<?xml version="1.0" standalone="no"?>
<!DOCTYPE svg PUBLIC "-//W3C//DTD SVG 1.1//EN" "http://www.w3.org/Graphics/SVG/1.1/DTD/svg11.dtd" >
<svg xmlns="http://www.w3.org/2000/svg" xmlns:xlink="http://www.w3.org/1999/xlink" version="1.1">
<metadata>
Created by FontForge 20201107 at Mon May  2 01:01:53 2022
 By Unknown
Copyright \(c\) 2019 by Toshi Omagari. All rights reserved.
</metadata>
<defs>
<font id="ComicCode-LightItalic" horiz-adv-x="620" >
  <font-face 
    font-family="Comic Code Light"
    font-weight="300"
    font-style="italic"
    font-stretch="normal"
    units-per-em="1000"
    panose-1="0 0 0 0 0 0 0 0 0 0"
    ascent="800"
    descent="-200"
    x-height="552"
    cap-height="710"
    bbox="-1181 -454 790 1082"
    underline-thickness="50"
    underline-position="-125"
    slope="-11"
    stemh="60"
    stemv="60"
    unicode-range="U+000D-FB02"
  />
<missing-glyph 
d="M295 -151c-100 0 -213 4 -306 9c-14 1 -25 13 -25 27v6c50 236 124 571 171 768c3 12 13 21 27 21c15 0 26 -12 26 -27v-7c-47 -188 -115 -503 -165 -736c84 -4 183 -7 272 -7c45 0 87 0 124 2c47 172 122 518 176 789h-116c-215 0 -318 -5 -339 -5c-15 0 -26 12 -26 27
c0 14 11 26 26 27c87 3 221 5 339 5c54 0 107 0 149 -1c15 -1 26 -13 26 -27v-6c-57 -286 -139 -667 -188 -842c-3 -11 -13 -19 -26 -20c-43 -2 -92 -3 -145 -3zM182 39c0 35 31 61 71 61c31 0 54 -22 54 -51s-24 -53 -60 -67c-6 -2 -9 -2 -13 -2c-9 0 -18 5 -22 12
c-17 8 -30 27 -30 47zM221 243c0 47 15 68 61 87c85 35 136 91 136 144c0 35 -21 57 -54 57c-26 0 -62 -12 -89 -31c-5 -3 -10 -5 -16 -5c-15 0 -26 12 -26 27c0 9 5 18 11 22c36 25 83 40 120 40c64 0 107 -45 107 -110c0 -76 -62 -148 -162 -190c-29 -13 -35 -20 -35 -44
c0 -7 1 -18 2 -25c0 -15 -11 -27 -26 -27c-14 0 -25 11 -27 24c-1 10 -2 22 -2 31z" />
    <glyph glyph-name=".notdef" 
d="M295 -151c-100 0 -213 4 -306 9c-14 1 -25 13 -25 27v6c50 236 124 571 171 768c3 12 13 21 27 21c15 0 26 -12 26 -27v-7c-47 -188 -115 -503 -165 -736c84 -4 183 -7 272 -7c45 0 87 0 124 2c47 172 122 518 176 789h-116c-215 0 -318 -5 -339 -5c-15 0 -26 12 -26 27
c0 14 11 26 26 27c87 3 221 5 339 5c54 0 107 0 149 -1c15 -1 26 -13 26 -27v-6c-57 -286 -139 -667 -188 -842c-3 -11 -13 -19 -26 -20c-43 -2 -92 -3 -145 -3zM182 39c0 35 31 61 71 61c31 0 54 -22 54 -51s-24 -53 -60 -67c-6 -2 -9 -2 -13 -2c-9 0 -18 5 -22 12
c-17 8 -30 27 -30 47zM221 243c0 47 15 68 61 87c85 35 136 91 136 144c0 35 -21 57 -54 57c-26 0 -62 -12 -89 -31c-5 -3 -10 -5 -16 -5c-15 0 -26 12 -26 27c0 9 5 18 11 22c36 25 83 40 120 40c64 0 107 -45 107 -110c0 -76 -62 -148 -162 -190c-29 -13 -35 -20 -35 -44
c0 -7 1 -18 2 -25c0 -15 -11 -27 -26 -27c-14 0 -25 11 -27 24c-1 10 -2 22 -2 31z" />
    <glyph glyph-name="CR" unicode="&#xd;" 
 />
    <glyph glyph-name="space" unicode=" " 
 />
    <glyph glyph-name="A" unicode="A" 
d="M491 -18c-17 0 -30 13 -30 30c0 63 -1 129 -3 196c-97 -4 -207 -12 -317 -23c-35 -57 -65 -112 -88 -159c-5 -10 -15 -17 -27 -17c-17 0 -30 13 -30 30c0 5 1 10 3 14c18 38 42 80 68 125l-6 -1h-4c-17 0 -30 13 -30 30c0 16 12 28 27 30l52 5c101 164 233 346 329 464
c6 6 14 10 23 10c16 0 29 -12 30 -27c24 -231 33 -474 33 -677c0 -17 -13 -30 -30 -30zM181 250c96 8 190 15 276 18c-4 113 -11 228 -22 341c-79 -101 -174 -233 -254 -359z" />
    <glyph glyph-name="Aacute" unicode="&#xc1;" 
d="M491 -18c-17 0 -30 13 -30 30c0 63 -1 129 -3 196c-97 -4 -207 -12 -317 -23c-35 -57 -65 -112 -88 -159c-5 -10 -15 -17 -27 -17c-17 0 -30 13 -30 30c0 5 1 10 3 14c18 38 42 80 68 125l-6 -1h-4c-17 0 -30 13 -30 30c0 16 12 28 27 30l52 5c101 164 233 346 329 464
c6 6 14 10 23 10c16 0 29 -12 30 -27c24 -231 33 -474 33 -677c0 -17 -13 -30 -30 -30zM181 250c96 8 190 15 276 18c-4 113 -11 228 -22 341c-79 -101 -174 -233 -254 -359zM342 801c0 11 6 20 14 26l232 150c4 3 10 5 16 5c17 0 30 -13 30 -30c0 -10 -5 -20 -14 -25
l-231 -151c-5 -3 -10 -5 -17 -5c-16 0 -30 14 -30 30z" />
    <glyph glyph-name="Abreve" unicode="&#x102;" 
d="M491 -18c-17 0 -30 13 -30 30c0 63 -1 129 -3 196c-97 -4 -207 -12 -317 -23c-35 -57 -65 -112 -88 -159c-5 -10 -15 -17 -27 -17c-17 0 -30 13 -30 30c0 5 1 10 3 14c18 38 42 80 68 125l-6 -1h-4c-17 0 -30 13 -30 30c0 16 12 28 27 30l52 5c101 164 233 346 329 464
c6 6 14 10 23 10c16 0 29 -12 30 -27c24 -231 33 -474 33 -677c0 -17 -13 -30 -30 -30zM181 250c96 8 190 15 276 18c-4 113 -11 228 -22 341c-79 -101 -174 -233 -254 -359zM296 939c0 17 13 30 30 30c15 0 29 -13 30 -28c4 -52 55 -89 127 -89c73 0 138 40 163 100
c4 10 15 19 28 19c17 0 30 -13 30 -30c0 -4 -1 -8 -3 -12c-34 -83 -121 -137 -218 -137c-102 0 -182 59 -187 147z" />
    <glyph glyph-name="Acircumflex" unicode="&#xc2;" 
d="M491 -18c-17 0 -30 13 -30 30c0 63 -1 129 -3 196c-97 -4 -207 -12 -317 -23c-35 -57 -65 -112 -88 -159c-5 -10 -15 -17 -27 -17c-17 0 -30 13 -30 30c0 5 1 10 3 14c18 38 42 80 68 125l-6 -1h-4c-17 0 -30 13 -30 30c0 16 12 28 27 30l52 5c101 164 233 346 329 464
c6 6 14 10 23 10c16 0 29 -12 30 -27c24 -231 33 -474 33 -677c0 -17 -13 -30 -30 -30zM181 250c96 8 190 15 276 18c-4 113 -11 228 -22 341c-79 -101 -174 -233 -254 -359zM263 815c0 11 5 20 14 25c74 48 147 92 219 132c4 3 9 4 15 4s12 -3 18 -6
c61 -46 111 -90 151 -135c4 -6 7 -12 7 -20c0 -17 -13 -30 -30 -30c-9 0 -18 3 -23 10c-33 38 -74 76 -126 115c-67 -37 -132 -77 -198 -120c-5 -3 -11 -5 -17 -5c-17 0 -30 13 -30 30z" />
    <glyph glyph-name="Adieresis" unicode="&#xc4;" 
d="M491 -18c-17 0 -30 13 -30 30c0 63 -1 129 -3 196c-97 -4 -207 -12 -317 -23c-35 -57 -65 -112 -88 -159c-5 -10 -15 -17 -27 -17c-17 0 -30 13 -30 30c0 5 1 10 3 14c18 38 42 80 68 125l-6 -1h-4c-17 0 -30 13 -30 30c0 16 12 28 27 30l52 5c101 164 233 346 329 464
c6 6 14 10 23 10c16 0 29 -12 30 -27c24 -231 33 -474 33 -677c0 -17 -13 -30 -30 -30zM181 250c96 8 190 15 276 18c-4 113 -11 228 -22 341c-79 -101 -174 -233 -254 -359zM351 821c0 38 4 62 14 85c5 10 15 18 28 18c16 0 30 -14 30 -30c0 -5 -1 -10 -3 -14
c-7 -14 -9 -27 -9 -59c0 -17 -14 -30 -30 -30c-17 0 -30 13 -30 30zM546 832c0 4 1 9 3 13c4 10 9 41 13 65c2 14 15 26 30 26c16 0 30 -14 30 -30c0 -2 0 -4 -1 -6c-4 -24 -10 -62 -17 -79c-5 -12 -16 -19 -28 -19c-17 0 -30 13 -30 30z" />
    <glyph glyph-name="Agrave" unicode="&#xc0;" 
d="M491 -18c-17 0 -30 13 -30 30c0 63 -1 129 -3 196c-97 -4 -207 -12 -317 -23c-35 -57 -65 -112 -88 -159c-5 -10 -15 -17 -27 -17c-17 0 -30 13 -30 30c0 5 1 10 3 14c18 38 42 80 68 125l-6 -1h-4c-17 0 -30 13 -30 30c0 16 12 28 27 30l52 5c101 164 233 346 329 464
c6 6 14 10 23 10c16 0 29 -12 30 -27c24 -231 33 -474 33 -677c0 -17 -13 -30 -30 -30zM181 250c96 8 190 15 276 18c-4 113 -11 228 -22 341c-79 -101 -174 -233 -254 -359zM370 946c0 16 13 30 30 30c7 0 14 -3 19 -8l172 -151c7 -5 11 -13 11 -22c0 -17 -14 -30 -30 -30
c-8 0 -15 2 -20 7l-172 151c-6 6 -10 14 -10 23z" />
    <glyph glyph-name="Amacron" unicode="&#x100;" 
d="M491 -18c-17 0 -30 13 -30 30c0 63 -1 129 -3 196c-97 -4 -207 -12 -317 -23c-35 -57 -65 -112 -88 -159c-5 -10 -15 -17 -27 -17c-17 0 -30 13 -30 30c0 5 1 10 3 14c18 38 42 80 68 125l-6 -1h-4c-17 0 -30 13 -30 30c0 16 12 28 27 30l52 5c101 164 233 346 329 464
c6 6 14 10 23 10c16 0 29 -12 30 -27c24 -231 33 -474 33 -677c0 -17 -13 -30 -30 -30zM181 250c96 8 190 15 276 18c-4 113 -11 228 -22 341c-79 -101 -174 -233 -254 -359zM260 831c0 15 11 28 26 29c111 16 294 23 384 23c16 0 30 -14 30 -30c0 -17 -14 -30 -30 -30
c-89 0 -268 -7 -376 -22h-4c-17 0 -30 13 -30 30z" />
    <glyph glyph-name="Aogonek" unicode="&#x104;" 
d="M57 177c-17 0 -30 13 -30 30c0 16 12 28 27 30l52 5c101 164 233 346 329 464c6 6 14 10 23 10c16 0 29 -12 30 -27c24 -231 33 -474 33 -677c0 -14 -8 -25 -20 -29c-75 -33 -132 -82 -132 -115c0 -19 16 -32 39 -32c29 0 68 15 97 37c6 4 12 6 18 6c17 0 30 -13 30 -30
c0 -10 -5 -19 -12 -24c-40 -30 -94 -49 -136 -49c-54 0 -96 34 -96 82c0 55 62 115 152 159c0 61 -1 125 -3 191c-97 -4 -207 -12 -317 -23c-35 -57 -65 -112 -88 -159c-5 -10 -15 -17 -27 -17c-17 0 -30 13 -30 30c0 5 1 10 3 14c18 38 42 80 68 125l-6 -1h-4zM181 250
c96 8 190 15 276 18c-4 113 -11 228 -22 341c-79 -101 -174 -233 -254 -359z" />
    <glyph glyph-name="Aring" unicode="&#xc5;" 
d="M491 -18c-17 0 -30 13 -30 30c0 63 -1 129 -3 196c-97 -4 -207 -12 -317 -23c-35 -57 -65 -112 -88 -159c-5 -10 -15 -17 -27 -17c-17 0 -30 13 -30 30c0 5 1 10 3 14c18 38 42 80 68 125l-6 -1h-4c-17 0 -30 13 -30 30c0 16 12 28 27 30l52 5c101 164 233 346 329 464
c6 6 14 10 23 10c16 0 29 -12 30 -27c24 -231 33 -474 33 -677c0 -17 -13 -30 -30 -30zM181 250c96 8 190 15 276 18c-4 113 -11 228 -22 341c-79 -101 -174 -233 -254 -359zM357 899c0 80 74 154 150 154c66 0 126 -60 126 -128c0 -70 -73 -142 -143 -142
c-79 0 -133 45 -133 116zM404 899c0 -40 29 -69 86 -69c44 0 97 49 97 95c0 42 -37 81 -80 81c-50 0 -103 -53 -103 -107z" />
    <glyph glyph-name="Aringacute" unicode="&#x1fa;" 
d="M491 -18c-17 0 -30 13 -30 30c0 63 -1 129 -3 196c-97 -4 -207 -12 -317 -23c-35 -57 -65 -112 -88 -159c-5 -10 -15 -17 -27 -17c-17 0 -30 13 -30 30c0 5 1 10 3 14c18 38 42 80 68 125l-6 -1h-4c-17 0 -30 13 -30 30c0 16 12 28 27 30l52 5c94 153 215 321 309 439
c-49 16 -80 54 -80 108c0 80 74 154 150 154c22 0 43 -7 62 -18l196 127c5 4 11 6 17 6c17 0 30 -13 30 -30c0 -11 -6 -21 -15 -25l-184 -121c12 -20 20 -43 20 -67c0 -63 -59 -127 -122 -140c23 -227 32 -464 32 -663c0 -17 -13 -30 -30 -30zM181 250c96 8 190 15 276 18
c-4 113 -11 228 -22 341c-79 -101 -174 -233 -254 -359zM382 789c0 -40 29 -69 86 -69c44 0 97 49 97 95c0 43 -38 81 -80 81c-50 0 -103 -53 -103 -107z" />
    <glyph glyph-name="Atilde" unicode="&#xc3;" 
d="M491 -18c-17 0 -30 13 -30 30c0 63 -1 129 -3 196c-97 -4 -207 -12 -317 -23c-35 -57 -65 -112 -88 -159c-5 -10 -15 -17 -27 -17c-17 0 -30 13 -30 30c0 5 1 10 3 14c18 38 42 80 68 125l-6 -1h-4c-17 0 -30 13 -30 30c0 16 12 28 27 30l52 5c101 164 233 346 329 464
c6 6 14 10 23 10c16 0 29 -12 30 -27c24 -231 33 -474 33 -677c0 -17 -13 -30 -30 -30zM181 250c96 8 190 15 276 18c-4 113 -11 228 -22 341c-79 -101 -174 -233 -254 -359zM232 814c0 4 0 8 2 11c31 80 100 136 172 136c54 0 83 -30 111 -67c21 -26 34 -42 65 -42
c40 0 82 39 102 98c4 12 15 21 29 21c16 0 30 -14 30 -30c0 -4 -1 -7 -2 -11c-28 -82 -91 -138 -159 -138c-55 0 -84 29 -112 66c-21 27 -34 43 -64 43c-46 0 -94 -40 -116 -98c-4 -11 -15 -19 -28 -19c-17 0 -30 13 -30 30z" />
    <glyph glyph-name="AE" unicode="&#xc6;" 
d="M-17 -12c-17 0 -30 13 -30 30c0 4 1 7 3 11c20 48 47 102 78 159c-14 3 -23 15 -23 29c0 15 11 28 27 30l30 3c91 163 205 340 289 456c5 8 15 14 25 14c15 0 27 -12 27 -27v-2c43 9 94 13 147 13c31 0 63 -2 91 -5c15 -1 27 -14 27 -30c0 -17 -13 -30 -30 -30
c-6 0 -39 5 -88 5c-39 0 -76 -3 -109 -7c-16 -60 -40 -152 -63 -244c56 1 117 7 166 15c3 1 4 1 7 1c17 0 30 -13 30 -30c0 -15 -11 -27 -26 -30c-56 -10 -129 -16 -191 -17c-28 -116 -51 -220 -51 -238c0 -27 13 -40 43 -40c39 0 108 13 162 30c3 1 7 2 10 2
c17 0 30 -13 30 -30c0 -14 -9 -25 -21 -29c-60 -19 -137 -33 -181 -33c-65 0 -103 35 -103 97c0 16 9 59 22 116c-54 -2 -115 -7 -178 -14c-36 -67 -68 -131 -92 -186c-4 -12 -15 -19 -28 -19zM139 257c54 5 108 9 156 11c30 125 72 282 96 367c-4 3 -7 6 -9 11
c-74 -106 -165 -251 -243 -389z" />
    <glyph glyph-name="AEacute" unicode="&#x1fc;" 
d="M-17 -12c-17 0 -30 13 -30 30c0 4 1 7 3 11c20 48 47 102 78 159c-14 3 -23 15 -23 29c0 15 11 28 27 30l30 3c91 163 205 340 289 456c5 8 15 14 25 14c15 0 27 -12 27 -27v-2c43 9 94 13 147 13c31 0 63 -2 91 -5c15 -1 27 -14 27 -30c0 -17 -13 -30 -30 -30
c-6 0 -39 5 -88 5c-39 0 -76 -3 -109 -7c-16 -60 -40 -152 -63 -244c56 1 117 7 166 15c3 1 4 1 7 1c17 0 30 -13 30 -30c0 -15 -11 -27 -26 -30c-56 -10 -129 -16 -191 -17c-28 -116 -51 -220 -51 -238c0 -27 13 -40 43 -40c39 0 108 13 162 30c3 1 7 2 10 2
c17 0 30 -13 30 -30c0 -14 -9 -25 -21 -29c-60 -19 -137 -33 -181 -33c-65 0 -103 35 -103 97c0 16 9 59 22 116c-54 -2 -115 -7 -178 -14c-36 -67 -68 -131 -92 -186c-4 -12 -15 -19 -28 -19zM139 257c54 5 108 9 156 11c30 125 72 282 96 367c-4 3 -7 6 -9 11
c-74 -106 -165 -251 -243 -389zM386 801c0 11 6 20 14 26l232 150c4 3 10 5 16 5c17 0 30 -13 30 -30c0 -10 -5 -20 -14 -25l-231 -151c-5 -3 -10 -5 -17 -5c-16 0 -30 14 -30 30z" />
    <glyph glyph-name="B" unicode="B" 
d="M71 -29c-17 0 -30 13 -30 30c0 2 1 4 2 10c24 123 58 310 85 458c17 97 32 178 38 210c3 13 14 23 27 24c45 5 84 7 120 7c168 0 265 -60 265 -174c0 -88 -59 -156 -156 -190c89 -31 140 -79 140 -145c0 -132 -185 -207 -463 -211c-5 -11 -15 -19 -28 -19zM111 50
c236 6 391 68 391 151c0 68 -135 118 -340 122c-17 -94 -35 -191 -51 -273zM173 383c44 -1 85 -4 122 -9c136 9 223 73 223 162c0 74 -67 114 -205 114c-28 0 -59 -2 -92 -4c-7 -37 -19 -106 -34 -188z" />
    <glyph glyph-name="C" unicode="C" 
d="M259 -15c-135 0 -209 84 -209 237c0 224 172 469 392 469c42 0 81 -9 123 -30l13 55c3 13 15 24 29 24c17 0 30 -14 30 -30c0 -3 0 -5 -1 -8l-49 -214c-3 -13 -15 -23 -30 -23c-16 0 -30 13 -30 30l1 7l23 98c-38 22 -71 31 -109 31c-186 0 -332 -214 -332 -409
c0 -120 49 -177 149 -177c73 0 148 31 242 101c5 4 11 7 19 7c16 0 30 -14 30 -30c0 -10 -5 -18 -12 -24c-103 -78 -191 -114 -279 -114z" />
    <glyph glyph-name="Cacute" unicode="&#x106;" 
d="M259 -15c-135 0 -209 84 -209 237c0 224 172 469 392 469c42 0 81 -9 123 -30l13 55c3 13 15 24 29 24c17 0 30 -14 30 -30c0 -3 0 -5 -1 -8l-49 -214c-3 -13 -15 -23 -30 -23c-16 0 -30 13 -30 30l1 7l23 98c-38 22 -71 31 -109 31c-186 0 -332 -214 -332 -409
c0 -120 49 -177 149 -177c73 0 148 31 242 101c5 4 11 7 19 7c16 0 30 -14 30 -30c0 -10 -5 -18 -12 -24c-103 -78 -191 -114 -279 -114zM286 801c0 11 6 20 14 26l232 150c4 3 10 5 16 5c17 0 30 -13 30 -30c0 -10 -5 -20 -14 -25l-231 -151c-5 -3 -10 -5 -17 -5
c-16 0 -30 14 -30 30z" />
    <glyph glyph-name="Ccaron" unicode="&#x10c;" 
d="M259 -15c-135 0 -209 84 -209 237c0 224 172 469 392 469c42 0 81 -9 123 -30l13 55c3 13 15 24 29 24c17 0 30 -14 30 -30c0 -3 0 -5 -1 -8l-49 -214c-3 -13 -15 -23 -30 -23c-16 0 -30 13 -30 30l1 7l23 98c-38 22 -71 31 -109 31c-186 0 -332 -214 -332 -409
c0 -120 49 -177 149 -177c73 0 148 31 242 101c5 4 11 7 19 7c16 0 30 -14 30 -30c0 -10 -5 -18 -12 -24c-103 -78 -191 -114 -279 -114zM233 946c0 17 13 30 30 30c9 0 17 -4 23 -10c33 -39 73 -76 125 -115c67 36 132 76 199 119c5 4 11 6 17 6c17 0 30 -13 30 -30
c0 -11 -6 -20 -15 -25c-74 -49 -146 -93 -218 -133c-5 -2 -10 -3 -15 -3c-7 0 -13 2 -18 6c-62 45 -112 90 -151 135c-4 5 -7 12 -7 20z" />
    <glyph glyph-name="Ccedilla" unicode="&#xc7;" 
d="M557 465c-16 0 -30 13 -30 30l1 7l23 98c-38 22 -71 31 -109 31c-186 0 -332 -214 -332 -409c0 -120 49 -177 149 -177c73 0 148 31 242 101c5 4 11 7 19 7c16 0 30 -14 30 -30c0 -10 -5 -18 -12 -24c-80 -61 -152 -96 -221 -109c20 -19 32 -45 32 -76
c0 -89 -86 -154 -197 -154c-8 0 -17 0 -24 1c-15 1 -27 14 -27 30s13 30 30 30c1 0 3 0 4 -1h17c78 0 137 41 137 94c0 27 -20 46 -59 53c-12 2 -22 11 -24 23c-101 20 -156 101 -156 232c0 224 172 469 392 469c42 0 81 -9 123 -30l13 55c3 13 15 24 29 24
c17 0 30 -14 30 -30c0 -3 0 -5 -1 -8l-49 -214c-3 -13 -15 -23 -30 -23z" />
    <glyph glyph-name="Ccircumflex" unicode="&#x108;" 
d="M259 -15c-135 0 -209 84 -209 237c0 224 172 469 392 469c42 0 81 -9 123 -30l13 55c3 13 15 24 29 24c17 0 30 -14 30 -30c0 -3 0 -5 -1 -8l-49 -214c-3 -13 -15 -23 -30 -23c-16 0 -30 13 -30 30l1 7l23 98c-38 22 -71 31 -109 31c-186 0 -332 -214 -332 -409
c0 -120 49 -177 149 -177c73 0 148 31 242 101c5 4 11 7 19 7c16 0 30 -14 30 -30c0 -10 -5 -18 -12 -24c-103 -78 -191 -114 -279 -114zM207 815c0 11 5 20 14 25c74 48 147 92 219 132c4 3 9 4 15 4s12 -3 18 -6c61 -46 111 -90 151 -135c4 -6 7 -12 7 -20
c0 -17 -13 -30 -30 -30c-9 0 -18 3 -23 10c-33 38 -74 76 -126 115c-67 -37 -132 -77 -198 -120c-5 -3 -11 -5 -17 -5c-17 0 -30 13 -30 30z" />
    <glyph glyph-name="Cdotaccent" unicode="&#x10a;" 
d="M259 -15c-135 0 -209 84 -209 237c0 224 172 469 392 469c42 0 81 -9 123 -30l13 55c3 13 15 24 29 24c17 0 30 -14 30 -30c0 -3 0 -5 -1 -8l-49 -214c-3 -13 -15 -23 -30 -23c-16 0 -30 13 -30 30l1 7l23 98c-38 22 -71 31 -109 31c-186 0 -332 -214 -332 -409
c0 -120 49 -177 149 -177c73 0 148 31 242 101c5 4 11 7 19 7c16 0 30 -14 30 -30c0 -10 -5 -18 -12 -24c-103 -78 -191 -114 -279 -114zM375 842c5 73 20 115 68 115c27 0 47 -21 47 -48s-27 -69 -58 -96c-6 -5 -13 -7 -20 -7c-17 0 -37 16 -37 36z" />
    <glyph glyph-name="D" unicode="D" 
d="M133 -8c-27 0 -60 6 -87 17c-12 4 -21 15 -21 28c0 3 1 7 2 12c43 152 94 418 119 595c-12 3 -20 14 -20 28c0 16 12 28 28 30c32 3 62 5 87 5c217 0 342 -112 342 -307c0 -227 -200 -408 -450 -408zM92 57c14 -3 28 -5 41 -5c217 0 390 155 390 348
c0 161 -98 247 -282 247c-11 0 -23 0 -34 -1c-24 -169 -72 -426 -115 -589z" />
    <glyph glyph-name="Eth" unicode="&#xd0;" 
d="M133 -8c-27 0 -60 6 -87 17c-12 4 -21 15 -21 28c0 3 1 7 2 12c20 71 42 167 62 267l-56 -7h-4c-15 0 -27 12 -27 27c0 13 11 24 24 26c23 3 48 6 74 9c18 97 35 194 46 273c-12 3 -20 14 -20 28c0 16 12 28 28 30c32 3 62 5 87 5c217 0 342 -112 342 -307
c0 -227 -200 -408 -450 -408zM92 57c14 -3 28 -5 41 -5c217 0 390 155 390 348c0 161 -98 247 -282 247c-11 0 -23 0 -34 -1c-11 -77 -27 -172 -45 -269c57 5 115 9 161 10c15 0 26 -11 26 -27c0 -14 -11 -26 -26 -26c-55 -2 -113 -6 -171 -11c-20 -97 -40 -192 -60 -266z
" />
    <glyph glyph-name="Dcaron" unicode="&#x10e;" 
d="M133 -8c-27 0 -60 6 -87 17c-12 4 -21 15 -21 28c0 3 1 7 2 12c43 152 94 418 119 595c-12 3 -20 14 -20 28c0 16 12 28 28 30c32 3 62 5 87 5c217 0 342 -112 342 -307c0 -227 -200 -408 -450 -408zM92 57c14 -3 28 -5 41 -5c217 0 390 155 390 348
c0 161 -98 247 -282 247c-11 0 -23 0 -34 -1c-24 -169 -72 -426 -115 -589zM233 946c0 17 13 30 30 30c9 0 17 -4 23 -10c33 -39 73 -76 125 -115c67 36 132 76 199 119c5 4 11 6 17 6c17 0 30 -13 30 -30c0 -11 -6 -20 -15 -25c-74 -49 -146 -93 -218 -133
c-5 -2 -10 -3 -15 -3c-7 0 -13 2 -18 6c-62 45 -112 90 -151 135c-4 5 -7 12 -7 20z" />
    <glyph glyph-name="Dcroat" unicode="&#x110;" 
d="M133 -8c-27 0 -60 6 -87 17c-12 4 -21 15 -21 28c0 3 1 7 2 12c20 71 42 167 62 267l-56 -7h-4c-15 0 -27 12 -27 27c0 13 11 24 24 26c23 3 48 6 74 9c18 97 35 194 46 273c-12 3 -20 14 -20 28c0 16 12 28 28 30c32 3 62 5 87 5c217 0 342 -112 342 -307
c0 -227 -200 -408 -450 -408zM92 57c14 -3 28 -5 41 -5c217 0 390 155 390 348c0 161 -98 247 -282 247c-11 0 -23 0 -34 -1c-11 -77 -27 -172 -45 -269c57 5 115 9 161 10c15 0 26 -11 26 -27c0 -14 -11 -26 -26 -26c-55 -2 -113 -6 -171 -11c-20 -97 -40 -192 -60 -266z
" />
    <glyph glyph-name="E" unicode="E" 
d="M486 -4c-105 0 -248 7 -333 16c-70 8 -108 39 -108 100c0 33 15 88 33 153l19 73c-7 6 -11 15 -11 24c0 15 10 27 25 30c5 21 10 42 14 64c24 120 33 181 32 216c0 17 13 30 30 30c12 0 22 -7 27 -17c84 13 174 20 259 20c45 0 90 -2 132 -6c16 -1 28 -14 28 -30
c0 -17 -13 -30 -31 -30c-42 4 -85 6 -129 6c-86 0 -176 -7 -259 -20c-4 -41 -13 -97 -30 -181l-12 -53h19c107 0 219 5 310 18h4c17 0 30 -13 30 -30c0 -15 -12 -28 -26 -30c-93 -12 -209 -18 -318 -18h-34c-7 -29 -15 -57 -22 -82c-18 -70 -30 -113 -30 -134
c0 -27 15 -39 55 -43c83 -9 223 -16 326 -16c17 0 30 -13 30 -30s-13 -30 -30 -30z" />
    <glyph glyph-name="Eacute" unicode="&#xc9;" 
d="M486 -4c-105 0 -248 7 -333 16c-70 8 -108 39 -108 100c0 33 15 88 33 153l19 73c-7 6 -11 15 -11 24c0 15 10 27 25 30c5 21 10 42 14 64c24 120 33 181 32 216c0 17 13 30 30 30c12 0 22 -7 27 -17c84 13 174 20 259 20c45 0 90 -2 132 -6c16 -1 28 -14 28 -30
c0 -17 -13 -30 -31 -30c-42 4 -85 6 -129 6c-86 0 -176 -7 -259 -20c-4 -41 -13 -97 -30 -181l-12 -53h19c107 0 219 5 310 18h4c17 0 30 -13 30 -30c0 -15 -12 -28 -26 -30c-93 -12 -209 -18 -318 -18h-34c-7 -29 -15 -57 -22 -82c-18 -70 -30 -113 -30 -134
c0 -27 15 -39 55 -43c83 -9 223 -16 326 -16c17 0 30 -13 30 -30s-13 -30 -30 -30zM286 801c0 11 6 20 14 26l232 150c4 3 10 5 16 5c17 0 30 -13 30 -30c0 -10 -5 -20 -14 -25l-231 -151c-5 -3 -10 -5 -17 -5c-16 0 -30 14 -30 30z" />
    <glyph glyph-name="Ebreve" unicode="&#x114;" 
d="M486 -4c-105 0 -248 7 -333 16c-70 8 -108 39 -108 100c0 33 15 88 33 153l19 73c-7 6 -11 15 -11 24c0 15 10 27 25 30c5 21 10 42 14 64c24 120 33 181 32 216c0 17 13 30 30 30c12 0 22 -7 27 -17c84 13 174 20 259 20c45 0 90 -2 132 -6c16 -1 28 -14 28 -30
c0 -17 -13 -30 -31 -30c-42 4 -85 6 -129 6c-86 0 -176 -7 -259 -20c-4 -41 -13 -97 -30 -181l-12 -53h19c107 0 219 5 310 18h4c17 0 30 -13 30 -30c0 -15 -12 -28 -26 -30c-93 -12 -209 -18 -318 -18h-34c-7 -29 -15 -57 -22 -82c-18 -70 -30 -113 -30 -134
c0 -27 15 -39 55 -43c83 -9 223 -16 326 -16c17 0 30 -13 30 -30s-13 -30 -30 -30zM240 939c0 17 13 30 30 30c15 0 29 -13 30 -28c4 -52 55 -89 127 -89c73 0 138 40 163 100c4 10 15 19 28 19c17 0 30 -13 30 -30c0 -4 -1 -8 -3 -12c-34 -83 -121 -137 -218 -137
c-102 0 -182 59 -187 147z" />
    <glyph glyph-name="Ecaron" unicode="&#x11a;" 
d="M486 -4c-105 0 -248 7 -333 16c-70 8 -108 39 -108 100c0 33 15 88 33 153l19 73c-7 6 -11 15 -11 24c0 15 10 27 25 30c5 21 10 42 14 64c24 120 33 181 32 216c0 17 13 30 30 30c12 0 22 -7 27 -17c84 13 174 20 259 20c45 0 90 -2 132 -6c16 -1 28 -14 28 -30
c0 -17 -13 -30 -31 -30c-42 4 -85 6 -129 6c-86 0 -176 -7 -259 -20c-4 -41 -13 -97 -30 -181l-12 -53h19c107 0 219 5 310 18h4c17 0 30 -13 30 -30c0 -15 -12 -28 -26 -30c-93 -12 -209 -18 -318 -18h-34c-7 -29 -15 -57 -22 -82c-18 -70 -30 -113 -30 -134
c0 -27 15 -39 55 -43c83 -9 223 -16 326 -16c17 0 30 -13 30 -30s-13 -30 -30 -30zM233 946c0 17 13 30 30 30c9 0 17 -4 23 -10c33 -39 73 -76 125 -115c67 36 132 76 199 119c5 4 11 6 17 6c17 0 30 -13 30 -30c0 -11 -6 -20 -15 -25c-74 -49 -146 -93 -218 -133
c-5 -2 -10 -3 -15 -3c-7 0 -13 2 -18 6c-62 45 -112 90 -151 135c-4 5 -7 12 -7 20z" />
    <glyph glyph-name="Ecircumflex" unicode="&#xca;" 
d="M486 -4c-105 0 -248 7 -333 16c-70 8 -108 39 -108 100c0 33 15 88 33 153l19 73c-7 6 -11 15 -11 24c0 15 10 27 25 30c5 21 10 42 14 64c24 120 33 181 32 216c0 17 13 30 30 30c12 0 22 -7 27 -17c84 13 174 20 259 20c45 0 90 -2 132 -6c16 -1 28 -14 28 -30
c0 -17 -13 -30 -31 -30c-42 4 -85 6 -129 6c-86 0 -176 -7 -259 -20c-4 -41 -13 -97 -30 -181l-12 -53h19c107 0 219 5 310 18h4c17 0 30 -13 30 -30c0 -15 -12 -28 -26 -30c-93 -12 -209 -18 -318 -18h-34c-7 -29 -15 -57 -22 -82c-18 -70 -30 -113 -30 -134
c0 -27 15 -39 55 -43c83 -9 223 -16 326 -16c17 0 30 -13 30 -30s-13 -30 -30 -30zM207 815c0 11 5 20 14 25c74 48 147 92 219 132c4 3 9 4 15 4s12 -3 18 -6c61 -46 111 -90 151 -135c4 -6 7 -12 7 -20c0 -17 -13 -30 -30 -30c-9 0 -18 3 -23 10c-33 38 -74 76 -126 115
c-67 -37 -132 -77 -198 -120c-5 -3 -11 -5 -17 -5c-17 0 -30 13 -30 30z" />
    <glyph glyph-name="Edieresis" unicode="&#xcb;" 
d="M486 -4c-105 0 -248 7 -333 16c-70 8 -108 39 -108 100c0 33 15 88 33 153l19 73c-7 6 -11 15 -11 24c0 15 10 27 25 30c5 21 10 42 14 64c24 120 33 181 32 216c0 17 13 30 30 30c12 0 22 -7 27 -17c84 13 174 20 259 20c45 0 90 -2 132 -6c16 -1 28 -14 28 -30
c0 -17 -13 -30 -31 -30c-42 4 -85 6 -129 6c-86 0 -176 -7 -259 -20c-4 -41 -13 -97 -30 -181l-12 -53h19c107 0 219 5 310 18h4c17 0 30 -13 30 -30c0 -15 -12 -28 -26 -30c-93 -12 -209 -18 -318 -18h-34c-7 -29 -15 -57 -22 -82c-18 -70 -30 -113 -30 -134
c0 -27 15 -39 55 -43c83 -9 223 -16 326 -16c17 0 30 -13 30 -30s-13 -30 -30 -30zM295 821c0 38 4 62 14 85c5 10 15 18 28 18c16 0 30 -14 30 -30c0 -5 -1 -10 -3 -14c-7 -14 -9 -27 -9 -59c0 -17 -14 -30 -30 -30c-17 0 -30 13 -30 30zM490 832c0 4 1 9 3 13
c4 10 9 41 13 65c2 14 15 26 30 26c16 0 30 -14 30 -30c0 -2 0 -4 -1 -6c-4 -24 -10 -62 -17 -79c-5 -12 -16 -19 -28 -19c-17 0 -30 13 -30 30z" />
    <glyph glyph-name="Edotaccent" unicode="&#x116;" 
d="M486 -4c-105 0 -248 7 -333 16c-70 8 -108 39 -108 100c0 33 15 88 33 153l19 73c-7 6 -11 15 -11 24c0 15 10 27 25 30c5 21 10 42 14 64c24 120 33 181 32 216c0 17 13 30 30 30c12 0 22 -7 27 -17c84 13 174 20 259 20c45 0 90 -2 132 -6c16 -1 28 -14 28 -30
c0 -17 -13 -30 -31 -30c-42 4 -85 6 -129 6c-86 0 -176 -7 -259 -20c-4 -41 -13 -97 -30 -181l-12 -53h19c107 0 219 5 310 18h4c17 0 30 -13 30 -30c0 -15 -12 -28 -26 -30c-93 -12 -209 -18 -318 -18h-34c-7 -29 -15 -57 -22 -82c-18 -70 -30 -113 -30 -134
c0 -27 15 -39 55 -43c83 -9 223 -16 326 -16c17 0 30 -13 30 -30s-13 -30 -30 -30zM375 842c5 73 20 115 68 115c27 0 47 -21 47 -48s-27 -69 -58 -96c-6 -5 -13 -7 -20 -7c-17 0 -37 16 -37 36z" />
    <glyph glyph-name="Egrave" unicode="&#xc8;" 
d="M486 -4c-105 0 -248 7 -333 16c-70 8 -108 39 -108 100c0 33 15 88 33 153l19 73c-7 6 -11 15 -11 24c0 15 10 27 25 30c5 21 10 42 14 64c24 120 33 181 32 216c0 17 13 30 30 30c12 0 22 -7 27 -17c84 13 174 20 259 20c45 0 90 -2 132 -6c16 -1 28 -14 28 -30
c0 -17 -13 -30 -31 -30c-42 4 -85 6 -129 6c-86 0 -176 -7 -259 -20c-4 -41 -13 -97 -30 -181l-12 -53h19c107 0 219 5 310 18h4c17 0 30 -13 30 -30c0 -15 -12 -28 -26 -30c-93 -12 -209 -18 -318 -18h-34c-7 -29 -15 -57 -22 -82c-18 -70 -30 -113 -30 -134
c0 -27 15 -39 55 -43c83 -9 223 -16 326 -16c17 0 30 -13 30 -30s-13 -30 -30 -30zM314 946c0 16 13 30 30 30c7 0 14 -3 19 -8l172 -151c7 -5 11 -13 11 -22c0 -17 -14 -30 -30 -30c-8 0 -15 2 -20 7l-172 151c-6 6 -10 14 -10 23z" />
    <glyph glyph-name="Emacron" unicode="&#x112;" 
d="M486 -4c-105 0 -248 7 -333 16c-70 8 -108 39 -108 100c0 33 15 88 33 153l19 73c-7 6 -11 15 -11 24c0 15 10 27 25 30c5 21 10 42 14 64c24 120 33 181 32 216c0 17 13 30 30 30c12 0 22 -7 27 -17c84 13 174 20 259 20c45 0 90 -2 132 -6c16 -1 28 -14 28 -30
c0 -17 -13 -30 -31 -30c-42 4 -85 6 -129 6c-86 0 -176 -7 -259 -20c-4 -41 -13 -97 -30 -181l-12 -53h19c107 0 219 5 310 18h4c17 0 30 -13 30 -30c0 -15 -12 -28 -26 -30c-93 -12 -209 -18 -318 -18h-34c-7 -29 -15 -57 -22 -82c-18 -70 -30 -113 -30 -134
c0 -27 15 -39 55 -43c83 -9 223 -16 326 -16c17 0 30 -13 30 -30s-13 -30 -30 -30zM204 831c0 15 11 28 26 29c111 16 294 23 384 23c16 0 30 -14 30 -30c0 -17 -14 -30 -30 -30c-89 0 -268 -7 -376 -22h-4c-17 0 -30 13 -30 30z" />
    <glyph glyph-name="Eogonek" unicode="&#x118;" 
d="M191 331h-34c-7 -29 -15 -57 -22 -82c-18 -70 -30 -113 -30 -134c0 -27 15 -39 55 -43c83 -9 223 -16 326 -16c17 0 30 -13 30 -30c0 -14 -8 -25 -20 -29c-75 -33 -132 -82 -132 -115c0 -19 16 -32 39 -32c29 0 68 15 97 37c6 4 12 6 18 6c17 0 30 -13 30 -30
c0 -10 -5 -19 -12 -24c-40 -30 -94 -49 -136 -49c-54 0 -96 34 -96 82c0 42 36 87 93 125c-87 3 -181 8 -244 15c-70 8 -108 39 -108 100c0 33 15 88 33 153l19 73c-7 6 -11 15 -11 24c0 15 10 27 25 30c5 21 10 42 14 64c24 120 33 181 32 216c0 17 13 30 30 30
c12 0 22 -7 27 -17c84 13 174 20 259 20c45 0 90 -2 132 -6c16 -1 28 -14 28 -30c0 -17 -13 -30 -31 -30c-42 4 -85 6 -129 6c-86 0 -176 -7 -259 -20c-4 -41 -13 -97 -30 -181l-12 -53h19c107 0 219 5 310 18h4c17 0 30 -13 30 -30c0 -15 -12 -28 -26 -30
c-93 -12 -209 -18 -318 -18z" />
    <glyph glyph-name="F" unicode="F" 
d="M80 -15c-17 0 -30 13 -30 30c0 2 1 4 1 6c16 82 34 161 51 236c35 156 66 296 75 417c1 16 14 28 30 28c12 0 23 -7 27 -17c87 13 174 20 256 20c44 0 86 -2 129 -6c15 -1 27 -14 27 -30c0 -17 -13 -30 -31 -30c-5 0 -55 6 -125 6c-82 0 -169 -7 -257 -21
c-9 -78 -27 -171 -47 -263c78 9 160 15 234 15c32 0 61 -1 89 -3c15 -1 27 -14 27 -30c0 -17 -13 -30 -30 -30c-3 0 -41 3 -86 3c-78 0 -167 -7 -247 -17l-13 -56c-17 -75 -34 -152 -50 -233c-3 -14 -15 -25 -30 -25z" />
    <glyph glyph-name="G" unicode="G" 
d="M252 -5c-128 0 -210 96 -210 246c0 190 188 466 358 466c51 0 136 -28 187 -62c9 -5 14 -14 14 -25c0 -17 -13 -30 -30 -30c-6 0 -11 1 -16 5c-42 27 -115 52 -155 52c-136 0 -298 -246 -298 -406c0 -118 56 -186 150 -186c111 0 212 102 250 249
c-80 -11 -162 -23 -212 -32h-6c-16 0 -30 13 -30 30c0 15 11 27 26 29c67 12 193 31 294 42h4c16 0 30 -13 30 -30c0 -16 -12 -29 -28 -30l-14 -2c-40 -185 -168 -316 -314 -316z" />
    <glyph glyph-name="Gbreve" unicode="&#x11e;" 
d="M252 -5c-128 0 -210 96 -210 246c0 190 188 466 358 466c51 0 136 -28 187 -62c9 -5 14 -14 14 -25c0 -17 -13 -30 -30 -30c-6 0 -11 1 -16 5c-42 27 -115 52 -155 52c-136 0 -298 -246 -298 -406c0 -118 56 -186 150 -186c111 0 212 102 250 249
c-80 -11 -162 -23 -212 -32h-6c-16 0 -30 13 -30 30c0 15 11 27 26 29c67 12 193 31 294 42h4c16 0 30 -13 30 -30c0 -16 -12 -29 -28 -30l-14 -2c-40 -185 -168 -316 -314 -316zM240 939c0 17 13 30 30 30c15 0 29 -13 30 -28c4 -52 55 -89 127 -89c73 0 138 40 163 100
c4 10 15 19 28 19c17 0 30 -13 30 -30c0 -4 -1 -8 -3 -12c-34 -83 -121 -137 -218 -137c-102 0 -182 59 -187 147z" />
    <glyph glyph-name="Gcircumflex" unicode="&#x11c;" 
d="M252 -5c-128 0 -210 96 -210 246c0 190 188 466 358 466c51 0 136 -28 187 -62c9 -5 14 -14 14 -25c0 -17 -13 -30 -30 -30c-6 0 -11 1 -16 5c-42 27 -115 52 -155 52c-136 0 -298 -246 -298 -406c0 -118 56 -186 150 -186c111 0 212 102 250 249
c-80 -11 -162 -23 -212 -32h-6c-16 0 -30 13 -30 30c0 15 11 27 26 29c67 12 193 31 294 42h4c16 0 30 -13 30 -30c0 -16 -12 -29 -28 -30l-14 -2c-40 -185 -168 -316 -314 -316zM207 815c0 11 5 20 14 25c74 48 147 92 219 132c4 3 9 4 15 4s12 -3 18 -6
c61 -46 111 -90 151 -135c4 -6 7 -12 7 -20c0 -17 -13 -30 -30 -30c-9 0 -18 3 -23 10c-33 38 -74 76 -126 115c-67 -37 -132 -77 -198 -120c-5 -3 -11 -5 -17 -5c-17 0 -30 13 -30 30z" />
    <glyph glyph-name="uni0122" unicode="&#x122;" 
d="M252 -5c-128 0 -210 96 -210 246c0 190 188 466 358 466c51 0 136 -28 187 -62c9 -5 14 -14 14 -25c0 -17 -13 -30 -30 -30c-6 0 -11 1 -16 5c-42 27 -115 52 -155 52c-136 0 -298 -246 -298 -406c0 -118 56 -186 150 -186c111 0 212 102 250 249
c-80 -11 -162 -23 -212 -32h-6c-16 0 -30 13 -30 30c0 15 11 27 26 29c67 12 193 31 294 42h4c16 0 30 -13 30 -30c0 -16 -12 -29 -28 -30l-14 -2c-40 -185 -168 -316 -314 -316zM122 -243c0 9 5 18 11 23c42 38 99 109 118 140c5 8 15 14 25 14c17 0 30 -13 30 -30
c0 -6 -2 -12 -5 -17c-21 -35 -84 -112 -129 -153c-6 -4 -12 -7 -20 -7c-16 0 -30 13 -30 30z" />
    <glyph glyph-name="Gdotaccent" unicode="&#x120;" 
d="M252 -5c-128 0 -210 96 -210 246c0 190 188 466 358 466c51 0 136 -28 187 -62c9 -5 14 -14 14 -25c0 -17 -13 -30 -30 -30c-6 0 -11 1 -16 5c-42 27 -115 52 -155 52c-136 0 -298 -246 -298 -406c0 -118 56 -186 150 -186c111 0 212 102 250 249
c-80 -11 -162 -23 -212 -32h-6c-16 0 -30 13 -30 30c0 15 11 27 26 29c67 12 193 31 294 42h4c16 0 30 -13 30 -30c0 -16 -12 -29 -28 -30l-14 -2c-40 -185 -168 -316 -314 -316zM375 842c5 73 20 115 68 115c27 0 47 -21 47 -48s-27 -69 -58 -96c-6 -5 -13 -7 -20 -7
c-17 0 -37 16 -37 36z" />
    <glyph glyph-name="H" unicode="H" 
d="M461 -21c-17 0 -30 13 -30 30c0 1 0 2 1 5c11 81 27 184 42 275c-35 3 -77 4 -121 4c-71 0 -146 -3 -198 -9c-23 -101 -51 -198 -82 -273c-4 -11 -15 -19 -27 -19c-17 0 -30 13 -30 30c0 4 0 9 2 12c65 161 120 442 145 640c2 15 14 27 30 27c17 0 30 -13 30 -30
c0 -1 0 -2 -1 -3c-11 -90 -29 -206 -53 -322c52 5 120 7 184 7c49 0 94 -1 131 -4c8 52 16 97 22 126c14 67 43 158 74 226c5 10 15 17 27 17c17 0 30 -13 30 -30c0 -5 -1 -9 -3 -13c-30 -64 -56 -149 -68 -212c-17 -84 -54 -309 -75 -458c-2 -15 -14 -26 -30 -26z" />
    <glyph glyph-name="Hbar" unicode="&#x126;" 
d="M461 -21c-17 0 -30 13 -30 30c0 1 0 2 1 5c11 81 27 184 42 275c-35 3 -77 4 -121 4c-71 0 -146 -3 -198 -9c-23 -101 -51 -198 -82 -273c-4 -11 -15 -19 -27 -19c-17 0 -30 13 -30 30c0 4 0 9 2 12c49 122 93 312 122 483l-30 -1c-17 0 -30 13 -30 30c0 16 13 30 30 30
l39 1c6 34 10 66 14 97c2 15 14 27 30 27c17 0 30 -13 30 -30c0 -1 0 -2 -1 -3c-3 -28 -7 -58 -12 -89h9c96 2 223 7 319 12c12 39 27 77 42 110c5 10 15 17 27 17c17 0 30 -13 30 -30c0 -5 -1 -9 -3 -13c-11 -24 -22 -52 -32 -80l30 2c17 0 30 -13 30 -30
c0 -16 -12 -29 -27 -30l-52 -4c-7 -25 -13 -49 -17 -70c-17 -84 -54 -309 -75 -458c-2 -15 -14 -26 -30 -26zM169 346c52 5 120 7 184 7c49 0 94 -1 131 -4c8 52 16 97 22 126c4 17 8 35 13 55c-97 -5 -209 -8 -298 -11h-20c-9 -56 -20 -114 -32 -173z" />
    <glyph glyph-name="Hcircumflex" unicode="&#x124;" 
d="M461 -21c-17 0 -30 13 -30 30c0 1 0 2 1 5c11 81 27 184 42 275c-35 3 -77 4 -121 4c-71 0 -146 -3 -198 -9c-23 -101 -51 -198 -82 -273c-4 -11 -15 -19 -27 -19c-17 0 -30 13 -30 30c0 4 0 9 2 12c65 161 120 442 145 640c2 15 14 27 30 27c17 0 30 -13 30 -30
c0 -1 0 -2 -1 -3c-11 -90 -29 -206 -53 -322c52 5 120 7 184 7c49 0 94 -1 131 -4c8 52 16 97 22 126c14 67 43 158 74 226c5 10 15 17 27 17c17 0 30 -13 30 -30c0 -5 -1 -9 -3 -13c-30 -64 -56 -149 -68 -212c-17 -84 -54 -309 -75 -458c-2 -15 -14 -26 -30 -26zM207 815
c0 11 5 20 14 25c74 48 147 92 219 132c4 3 9 4 15 4s12 -3 18 -6c61 -46 111 -90 151 -135c4 -6 7 -12 7 -20c0 -17 -13 -30 -30 -30c-9 0 -18 3 -23 10c-33 38 -74 76 -126 115c-67 -37 -132 -77 -198 -120c-5 -3 -11 -5 -17 -5c-17 0 -30 13 -30 30z" />
    <glyph glyph-name="I" unicode="I" 
d="M95 -14c-16 0 -30 13 -30 30c0 15 12 28 27 30c46 5 100 10 154 13c18 193 53 382 106 588c-37 1 -77 2 -117 3c-16 0 -30 14 -30 30c0 17 14 30 30 30c123 -2 234 -6 315 -11c15 -1 28 -14 28 -30c0 -17 -13 -30 -30 -30c-39 2 -85 5 -135 6
c-52 -206 -88 -392 -106 -583c43 2 85 4 120 4c17 0 30 -13 30 -30c0 -16 -13 -30 -29 -30c-111 -1 -243 -9 -333 -20z" />
    <glyph glyph-name="IJ" unicode="&#x132;" 
d="M352 -24c-84 0 -134 64 -134 166c0 43 11 105 33 140c6 8 15 14 26 14c16 0 30 -14 30 -30c0 -7 -2 -12 -5 -17c-16 -25 -24 -73 -24 -107c0 -71 26 -106 74 -106c49 0 97 63 117 160c20 95 42 247 63 450c-47 -3 -96 -7 -125 -11h-5c-16 0 -30 13 -30 30
c0 15 12 28 27 30c55 7 177 15 240 15c17 0 30 -13 30 -30s-13 -30 -30 -30l-46 -1c-21 -205 -44 -364 -65 -465c-26 -124 -93 -208 -176 -208zM42 17v3c19 221 59 427 120 665c3 13 15 23 29 23c17 0 30 -14 30 -30c0 -3 0 -6 -1 -9c-61 -234 -100 -436 -118 -654
c-2 -16 -14 -28 -30 -28c-17 0 -30 13 -30 30z" />
    <glyph glyph-name="Iacute" unicode="&#xcd;" 
d="M95 -14c-16 0 -30 13 -30 30c0 15 12 28 27 30c46 5 100 10 154 13c18 193 53 382 106 588c-37 1 -77 2 -117 3c-16 0 -30 14 -30 30c0 17 14 30 30 30c123 -2 234 -6 315 -11c15 -1 28 -14 28 -30c0 -17 -13 -30 -30 -30c-39 2 -85 5 -135 6
c-52 -206 -88 -392 -106 -583c43 2 85 4 120 4c17 0 30 -13 30 -30c0 -16 -13 -30 -29 -30c-111 -1 -243 -9 -333 -20zM286 801c0 11 6 20 14 26l232 150c4 3 10 5 16 5c17 0 30 -13 30 -30c0 -10 -5 -20 -14 -25l-231 -151c-5 -3 -10 -5 -17 -5c-16 0 -30 14 -30 30z" />
    <glyph glyph-name="Ibreve" unicode="&#x12c;" 
d="M95 -14c-16 0 -30 13 -30 30c0 15 12 28 27 30c46 5 100 10 154 13c18 193 53 382 106 588c-37 1 -77 2 -117 3c-16 0 -30 14 -30 30c0 17 14 30 30 30c123 -2 234 -6 315 -11c15 -1 28 -14 28 -30c0 -17 -13 -30 -30 -30c-39 2 -85 5 -135 6
c-52 -206 -88 -392 -106 -583c43 2 85 4 120 4c17 0 30 -13 30 -30c0 -16 -13 -30 -29 -30c-111 -1 -243 -9 -333 -20zM240 939c0 17 13 30 30 30c15 0 29 -13 30 -28c4 -52 55 -89 127 -89c73 0 138 40 163 100c4 10 15 19 28 19c17 0 30 -13 30 -30c0 -4 -1 -8 -3 -12
c-34 -83 -121 -137 -218 -137c-102 0 -182 59 -187 147z" />
    <glyph glyph-name="Icircumflex" unicode="&#xce;" 
d="M95 -14c-16 0 -30 13 -30 30c0 15 12 28 27 30c46 5 100 10 154 13c18 193 53 382 106 588c-37 1 -77 2 -117 3c-16 0 -30 14 -30 30c0 17 14 30 30 30c123 -2 234 -6 315 -11c15 -1 28 -14 28 -30c0 -17 -13 -30 -30 -30c-39 2 -85 5 -135 6
c-52 -206 -88 -392 -106 -583c43 2 85 4 120 4c17 0 30 -13 30 -30c0 -16 -13 -30 -29 -30c-111 -1 -243 -9 -333 -20zM207 815c0 11 5 20 14 25c74 48 147 92 219 132c4 3 9 4 15 4s12 -3 18 -6c61 -46 111 -90 151 -135c4 -6 7 -12 7 -20c0 -17 -13 -30 -30 -30
c-9 0 -18 3 -23 10c-33 38 -74 76 -126 115c-67 -37 -132 -77 -198 -120c-5 -3 -11 -5 -17 -5c-17 0 -30 13 -30 30z" />
    <glyph glyph-name="Idieresis" unicode="&#xcf;" 
d="M95 -14c-16 0 -30 13 -30 30c0 15 12 28 27 30c46 5 100 10 154 13c18 193 53 382 106 588c-37 1 -77 2 -117 3c-16 0 -30 14 -30 30c0 17 14 30 30 30c123 -2 234 -6 315 -11c15 -1 28 -14 28 -30c0 -17 -13 -30 -30 -30c-39 2 -85 5 -135 6
c-52 -206 -88 -392 -106 -583c43 2 85 4 120 4c17 0 30 -13 30 -30c0 -16 -13 -30 -29 -30c-111 -1 -243 -9 -333 -20zM295 821c0 38 4 62 14 85c5 10 15 18 28 18c16 0 30 -14 30 -30c0 -5 -1 -10 -3 -14c-7 -14 -9 -27 -9 -59c0 -17 -14 -30 -30 -30c-17 0 -30 13 -30 30z
M490 832c0 4 1 9 3 13c4 10 9 41 13 65c2 14 15 26 30 26c16 0 30 -14 30 -30c0 -2 0 -4 -1 -6c-4 -24 -10 -62 -17 -79c-5 -12 -16 -19 -28 -19c-17 0 -30 13 -30 30z" />
    <glyph glyph-name="Idotaccent" unicode="&#x130;" 
d="M95 -14c-16 0 -30 13 -30 30c0 15 12 28 27 30c46 5 100 10 154 13c18 193 53 382 106 588c-37 1 -77 2 -117 3c-16 0 -30 14 -30 30c0 17 14 30 30 30c123 -2 234 -6 315 -11c15 -1 28 -14 28 -30c0 -17 -13 -30 -30 -30c-39 2 -85 5 -135 6
c-52 -206 -88 -392 -106 -583c43 2 85 4 120 4c17 0 30 -13 30 -30c0 -16 -13 -30 -29 -30c-111 -1 -243 -9 -333 -20zM375 842c5 73 20 115 68 115c27 0 47 -21 47 -48s-27 -69 -58 -96c-6 -5 -13 -7 -20 -7c-17 0 -37 16 -37 36z" />
    <glyph glyph-name="Igrave" unicode="&#xcc;" 
d="M95 -14c-16 0 -30 13 -30 30c0 15 12 28 27 30c46 5 100 10 154 13c18 193 53 382 106 588c-37 1 -77 2 -117 3c-16 0 -30 14 -30 30c0 17 14 30 30 30c123 -2 234 -6 315 -11c15 -1 28 -14 28 -30c0 -17 -13 -30 -30 -30c-39 2 -85 5 -135 6
c-52 -206 -88 -392 -106 -583c43 2 85 4 120 4c17 0 30 -13 30 -30c0 -16 -13 -30 -29 -30c-111 -1 -243 -9 -333 -20zM314 946c0 16 13 30 30 30c7 0 14 -3 19 -8l172 -151c7 -5 11 -13 11 -22c0 -17 -14 -30 -30 -30c-8 0 -15 2 -20 7l-172 151c-6 6 -10 14 -10 23z" />
    <glyph glyph-name="Imacron" unicode="&#x12a;" 
d="M95 -14c-16 0 -30 13 -30 30c0 15 12 28 27 30c46 5 100 10 154 13c18 193 53 382 106 588c-37 1 -77 2 -117 3c-16 0 -30 14 -30 30c0 17 14 30 30 30c123 -2 234 -6 315 -11c15 -1 28 -14 28 -30c0 -17 -13 -30 -30 -30c-39 2 -85 5 -135 6
c-52 -206 -88 -392 -106 -583c43 2 85 4 120 4c17 0 30 -13 30 -30c0 -16 -13 -30 -29 -30c-111 -1 -243 -9 -333 -20zM204 831c0 15 11 28 26 29c111 16 294 23 384 23c16 0 30 -14 30 -30c0 -17 -14 -30 -30 -30c-89 0 -268 -7 -376 -22h-4c-17 0 -30 13 -30 30z" />
    <glyph glyph-name="Iogonek" unicode="&#x12e;" 
d="M95 -14c-16 0 -30 13 -30 30c0 15 12 28 27 30c46 5 100 10 154 13c18 193 53 382 106 588c-37 1 -77 2 -117 3c-16 0 -30 14 -30 30c0 17 14 30 30 30c123 -2 234 -6 315 -11c15 -1 28 -14 28 -30c0 -17 -13 -30 -30 -30c-39 2 -85 5 -135 6
c-52 -206 -88 -392 -106 -583c43 2 85 4 120 4c17 0 30 -13 30 -30c0 -16 -13 -30 -29 -30c-37 0 -77 -1 -117 -3c-74 -34 -132 -83 -132 -116c0 -19 16 -32 39 -32c29 0 68 15 97 37c6 4 12 6 18 6c17 0 30 -13 30 -30c0 -10 -5 -19 -12 -24c-40 -30 -94 -49 -136 -49
c-54 0 -96 34 -96 82c0 40 33 82 85 119c-40 -3 -77 -6 -109 -10z" />
    <glyph glyph-name="Itilde" unicode="&#x128;" 
d="M95 -14c-16 0 -30 13 -30 30c0 15 12 28 27 30c46 5 100 10 154 13c18 193 53 382 106 588c-37 1 -77 2 -117 3c-16 0 -30 14 -30 30c0 17 14 30 30 30c123 -2 234 -6 315 -11c15 -1 28 -14 28 -30c0 -17 -13 -30 -30 -30c-39 2 -85 5 -135 6
c-52 -206 -88 -392 -106 -583c43 2 85 4 120 4c17 0 30 -13 30 -30c0 -16 -13 -30 -29 -30c-111 -1 -243 -9 -333 -20zM176 814c0 4 0 8 2 11c31 80 100 136 172 136c54 0 83 -30 111 -67c21 -26 34 -42 65 -42c40 0 82 39 102 98c4 12 15 21 29 21c16 0 30 -14 30 -30
c0 -4 -1 -7 -2 -11c-28 -82 -91 -138 -159 -138c-55 0 -84 29 -112 66c-21 27 -34 43 -64 43c-46 0 -94 -40 -116 -98c-4 -11 -15 -19 -28 -19c-17 0 -30 13 -30 30z" />
    <glyph glyph-name="J" unicode="J" 
d="M279 -57c-117 0 -231 99 -231 202c0 39 17 79 44 103c5 5 12 8 20 8c17 0 30 -14 30 -30c0 -9 -4 -18 -10 -23c-15 -12 -24 -35 -24 -58c0 -69 87 -142 171 -142c40 0 84 67 106 173c21 99 44 255 66 463c-64 -3 -128 -7 -182 -12c-17 0 -30 14 -30 30s12 29 27 30
c102 10 241 15 348 17c17 0 30 -13 30 -30c0 -16 -13 -29 -29 -30l-103 -3c-23 -208 -46 -372 -68 -477c-28 -135 -87 -221 -165 -221z" />
    <glyph glyph-name="Jcircumflex" unicode="&#x134;" 
d="M279 -57c-117 0 -231 99 -231 202c0 39 17 79 44 103c5 5 12 8 20 8c17 0 30 -14 30 -30c0 -9 -4 -18 -10 -23c-15 -12 -24 -35 -24 -58c0 -69 87 -142 171 -142c40 0 84 67 106 173c21 99 44 255 66 463c-64 -3 -128 -7 -182 -12c-17 0 -30 14 -30 30s12 29 27 30
c102 10 241 15 348 17c17 0 30 -13 30 -30c0 -16 -13 -29 -29 -30l-103 -3c-23 -208 -46 -372 -68 -477c-28 -135 -87 -221 -165 -221zM207 815c0 11 5 20 14 25c74 48 147 92 219 132c4 3 9 4 15 4s12 -3 18 -6c61 -46 111 -90 151 -135c4 -6 7 -12 7 -20
c0 -17 -13 -30 -30 -30c-9 0 -18 3 -23 10c-33 38 -74 76 -126 115c-67 -37 -132 -77 -198 -120c-5 -3 -11 -5 -17 -5c-17 0 -30 13 -30 30z" />
    <glyph glyph-name="K" unicode="K" 
d="M98 -9c-17 0 -30 13 -30 30v4c26 206 81 450 147 665c4 13 15 22 29 22c17 0 30 -13 30 -30c0 -3 -1 -7 -2 -10c-27 -90 -53 -185 -75 -279c147 82 279 182 380 291c6 6 13 10 22 10c17 0 30 -13 30 -30c0 -8 -3 -15 -8 -20c-100 -107 -227 -206 -368 -288
c71 -103 175 -234 253 -315c5 -5 8 -13 8 -20c0 -17 -14 -30 -30 -30c-9 0 -17 3 -23 10c-82 86 -189 224 -261 325l-20 -11c-23 -103 -41 -204 -53 -298c-1 -15 -14 -26 -29 -26z" />
    <glyph glyph-name="uni0136" unicode="&#x136;" 
d="M98 -9c-17 0 -30 13 -30 30v4c26 206 81 450 147 665c4 13 15 22 29 22c17 0 30 -13 30 -30c0 -3 -1 -7 -2 -10c-27 -90 -53 -185 -75 -279c147 82 279 182 380 291c6 6 13 10 22 10c17 0 30 -13 30 -30c0 -8 -3 -15 -8 -20c-100 -107 -227 -206 -368 -288
c71 -103 175 -234 253 -315c5 -5 8 -13 8 -20c0 -17 -14 -30 -30 -30c-9 0 -17 3 -23 10c-82 86 -189 224 -261 325l-20 -11c-23 -103 -41 -204 -53 -298c-1 -15 -14 -26 -29 -26zM122 -243c0 9 5 18 11 23c42 38 99 109 118 140c5 8 15 14 25 14c17 0 30 -13 30 -30
c0 -6 -2 -12 -5 -17c-21 -35 -84 -112 -129 -153c-6 -4 -12 -7 -20 -7c-16 0 -30 13 -30 30z" />
    <glyph glyph-name="L" unicode="L" 
d="M113 -6c-17 0 -30 13 -30 30c0 3 0 5 1 8c36 149 98 472 125 651c2 15 15 26 30 26c17 0 30 -13 30 -30v-5c-26 -168 -82 -461 -118 -619c121 2 236 14 338 36c2 1 5 1 7 1c17 0 30 -13 30 -30c0 -15 -10 -27 -24 -29c-117 -26 -250 -39 -389 -39z" />
    <glyph glyph-name="Lacute" unicode="&#x139;" 
d="M113 -6c-17 0 -30 13 -30 30c0 3 0 5 1 8c36 149 98 472 125 651c2 15 15 26 30 26c17 0 30 -13 30 -30v-5c-26 -168 -82 -461 -118 -619c121 2 236 14 338 36c2 1 5 1 7 1c17 0 30 -13 30 -30c0 -15 -10 -27 -24 -29c-117 -26 -250 -39 -389 -39zM286 801
c0 11 6 20 14 26l232 150c4 3 10 5 16 5c17 0 30 -13 30 -30c0 -10 -5 -20 -14 -25l-231 -151c-5 -3 -10 -5 -17 -5c-16 0 -30 14 -30 30z" />
    <glyph glyph-name="Lcaron" unicode="&#x13d;" 
d="M113 -6c-17 0 -30 13 -30 30c0 3 0 5 1 8c36 149 98 472 125 651c2 15 15 26 30 26c17 0 30 -13 30 -30v-5c-26 -168 -82 -461 -118 -619c121 2 236 14 338 36c2 1 5 1 7 1c17 0 30 -13 30 -30c0 -15 -10 -27 -24 -29c-117 -26 -250 -39 -389 -39zM406 452c0 7 2 14 7 19
c47 57 77 122 77 169c0 17 -4 31 -11 41c-4 5 -6 11 -6 18c0 16 13 30 30 30c10 0 19 -5 24 -13c15 -20 23 -47 23 -76c0 -62 -35 -140 -91 -207c-6 -7 -14 -11 -23 -11c-17 0 -30 13 -30 30z" />
    <glyph glyph-name="uni013B" unicode="&#x13b;" 
d="M113 -6c-17 0 -30 13 -30 30c0 3 0 5 1 8c36 149 98 472 125 651c2 15 15 26 30 26c17 0 30 -13 30 -30v-5c-26 -168 -82 -461 -118 -619c121 2 236 14 338 36c2 1 5 1 7 1c17 0 30 -13 30 -30c0 -15 -10 -27 -24 -29c-117 -26 -250 -39 -389 -39zM122 -243
c0 9 5 18 11 23c42 38 99 109 118 140c5 8 15 14 25 14c17 0 30 -13 30 -30c0 -6 -2 -12 -5 -17c-21 -35 -84 -112 -129 -153c-6 -4 -12 -7 -20 -7c-16 0 -30 13 -30 30z" />
    <glyph glyph-name="Ldot" unicode="&#x13f;" 
d="M113 -6c-17 0 -30 13 -30 30c0 3 0 5 1 8c36 149 98 472 125 651c2 15 15 26 30 26c17 0 30 -13 30 -30v-5c-26 -168 -82 -461 -118 -619c121 2 236 14 338 36c2 1 5 1 7 1c17 0 30 -13 30 -30c0 -15 -10 -27 -24 -29c-117 -26 -250 -39 -389 -39zM345 374
c0 56 42 99 95 99c49 0 87 -32 87 -75c0 -42 -32 -76 -82 -96c-4 -2 -8 -2 -12 -2c-58 0 -87 20 -88 74z" />
    <glyph glyph-name="Lslash" unicode="&#x141;" 
d="M113 -6c-17 0 -30 13 -30 30c0 3 0 5 1 8c15 63 35 158 55 260c-43 -21 -82 -41 -115 -58c-4 -3 -9 -4 -15 -4c-16 0 -30 13 -30 30c0 12 7 22 17 27c43 23 98 50 158 79c22 115 42 232 55 317c2 15 15 26 30 26c17 0 30 -13 30 -30v-5c-12 -75 -29 -175 -48 -276
c77 36 159 72 231 102c4 1 8 2 12 2c17 0 30 -13 30 -30c0 -13 -8 -24 -19 -28c-84 -34 -180 -78 -268 -119c-20 -102 -40 -199 -56 -270c121 2 236 14 338 36c2 1 5 1 7 1c17 0 30 -13 30 -30c0 -15 -10 -27 -24 -29c-117 -26 -250 -39 -389 -39z" />
    <glyph glyph-name="M" unicode="M" 
d="M1 -12c-17 0 -30 13 -30 30c0 3 0 5 1 8c23 97 50 200 76 301c34 129 66 253 89 355c2 14 14 24 29 24c14 0 26 -10 29 -23c22 -85 86 -303 103 -399c41 69 218 347 261 419c5 9 15 15 26 15c17 0 30 -13 30 -30c0 -4 -8 -85 -12 -123c-17 -188 -36 -388 -55 -538
c-2 -15 -15 -27 -30 -27c-17 0 -30 14 -30 30c19 146 45 420 57 548c-54 -87 -194 -308 -232 -374c-5 -9 -15 -15 -26 -15c-15 0 -28 11 -30 25c-13 92 -61 266 -86 355c-18 -78 -42 -167 -65 -258c-26 -100 -53 -202 -76 -299c-3 -14 -15 -24 -29 -24z" />
    <glyph glyph-name="N" unicode="N" 
d="M52 -12c-17 0 -30 13 -30 30c0 2 0 5 1 8c31 127 111 494 137 657c2 14 15 25 30 25c14 0 25 -9 29 -21c53 -191 145 -426 226 -579c46 193 96 445 113 584c2 15 15 27 30 27c17 0 30 -14 30 -30v-4c-20 -159 -80 -458 -133 -664c-3 -13 -15 -23 -29 -23
c-11 0 -20 6 -26 14c-76 134 -169 357 -231 552c-32 -172 -92 -448 -118 -553c-3 -13 -15 -23 -29 -23z" />
    <glyph glyph-name="Nacute" unicode="&#x143;" 
d="M52 -12c-17 0 -30 13 -30 30c0 2 0 5 1 8c31 127 111 494 137 657c2 14 15 25 30 25c14 0 25 -9 29 -21c53 -191 145 -426 226 -579c46 193 96 445 113 584c2 15 15 27 30 27c17 0 30 -14 30 -30v-4c-20 -159 -80 -458 -133 -664c-3 -13 -15 -23 -29 -23
c-11 0 -20 6 -26 14c-76 134 -169 357 -231 552c-32 -172 -92 -448 -118 -553c-3 -13 -15 -23 -29 -23zM286 801c0 11 6 20 14 26l232 150c4 3 10 5 16 5c17 0 30 -13 30 -30c0 -10 -5 -20 -14 -25l-231 -151c-5 -3 -10 -5 -17 -5c-16 0 -30 14 -30 30z" />
    <glyph glyph-name="Ncaron" unicode="&#x147;" 
d="M52 -12c-17 0 -30 13 -30 30c0 2 0 5 1 8c31 127 111 494 137 657c2 14 15 25 30 25c14 0 25 -9 29 -21c53 -191 145 -426 226 -579c46 193 96 445 113 584c2 15 15 27 30 27c17 0 30 -14 30 -30v-4c-20 -159 -80 -458 -133 -664c-3 -13 -15 -23 -29 -23
c-11 0 -20 6 -26 14c-76 134 -169 357 -231 552c-32 -172 -92 -448 -118 -553c-3 -13 -15 -23 -29 -23zM233 946c0 17 13 30 30 30c9 0 17 -4 23 -10c33 -39 73 -76 125 -115c67 36 132 76 199 119c5 4 11 6 17 6c17 0 30 -13 30 -30c0 -11 -6 -20 -15 -25
c-74 -49 -146 -93 -218 -133c-5 -2 -10 -3 -15 -3c-7 0 -13 2 -18 6c-62 45 -112 90 -151 135c-4 5 -7 12 -7 20z" />
    <glyph glyph-name="uni0145" unicode="&#x145;" 
d="M52 -12c-17 0 -30 13 -30 30c0 2 0 5 1 8c31 127 111 494 137 657c2 14 15 25 30 25c14 0 25 -9 29 -21c53 -191 145 -426 226 -579c46 193 96 445 113 584c2 15 15 27 30 27c17 0 30 -14 30 -30v-4c-20 -159 -80 -458 -133 -664c-3 -13 -15 -23 -29 -23
c-11 0 -20 6 -26 14c-76 134 -169 357 -231 552c-32 -172 -92 -448 -118 -553c-3 -13 -15 -23 -29 -23zM122 -243c0 9 5 18 11 23c42 38 99 109 118 140c5 8 15 14 25 14c17 0 30 -13 30 -30c0 -6 -2 -12 -5 -17c-21 -35 -84 -112 -129 -153c-6 -4 -12 -7 -20 -7
c-16 0 -30 13 -30 30z" />
    <glyph glyph-name="Ntilde" unicode="&#xd1;" 
d="M52 -12c-17 0 -30 13 -30 30c0 2 0 5 1 8c31 127 111 494 137 657c2 14 15 25 30 25c14 0 25 -9 29 -21c53 -191 145 -426 226 -579c46 193 96 445 113 584c2 15 15 27 30 27c17 0 30 -14 30 -30v-4c-20 -159 -80 -458 -133 -664c-3 -13 -15 -23 -29 -23
c-11 0 -20 6 -26 14c-76 134 -169 357 -231 552c-32 -172 -92 -448 -118 -553c-3 -13 -15 -23 -29 -23zM176 814c0 4 0 8 2 11c31 80 100 136 172 136c54 0 83 -30 111 -67c21 -26 34 -42 65 -42c40 0 82 39 102 98c4 12 15 21 29 21c16 0 30 -14 30 -30c0 -4 -1 -7 -2 -11
c-28 -82 -91 -138 -159 -138c-55 0 -84 29 -112 66c-21 27 -34 43 -64 43c-46 0 -94 -40 -116 -98c-4 -11 -15 -19 -28 -19c-17 0 -30 13 -30 30z" />
    <glyph glyph-name="Eng" unicode="&#x14a;" 
d="M287 -212c-53 0 -103 18 -137 49c-6 5 -10 13 -10 22c0 17 13 30 30 30c8 0 15 -3 20 -8c23 -21 59 -33 97 -33c61 0 100 45 136 176c-74 135 -164 351 -224 540c-32 -172 -92 -448 -118 -553c-3 -13 -15 -23 -29 -23c-17 0 -30 13 -30 30c0 2 0 5 1 8
c31 127 111 494 137 657c2 14 15 25 30 25c14 0 25 -9 29 -21c54 -188 145 -419 227 -578c48 196 95 446 112 583c2 15 15 27 30 27c17 0 30 -14 30 -30v-4c-20 -155 -76 -448 -130 -653l-2 -9c-1 -2 -1 -5 -2 -7c-45 -159 -99 -228 -197 -228z" />
    <glyph glyph-name="O" unicode="O" 
d="M238 -7c-118 0 -189 85 -189 227c0 197 176 488 347 488c128 0 203 -88 203 -236c0 -206 -173 -479 -361 -479zM109 220c0 -110 45 -167 129 -167c153 0 301 243 301 419c0 116 -50 176 -143 176c-135 0 -287 -261 -287 -428z" />
    <glyph glyph-name="Oacute" unicode="&#xd3;" 
d="M238 -7c-118 0 -189 85 -189 227c0 197 176 488 347 488c128 0 203 -88 203 -236c0 -206 -173 -479 -361 -479zM109 220c0 -110 45 -167 129 -167c153 0 301 243 301 419c0 116 -50 176 -143 176c-135 0 -287 -261 -287 -428zM286 801c0 11 6 20 14 26l232 150
c4 3 10 5 16 5c17 0 30 -13 30 -30c0 -10 -5 -20 -14 -25l-231 -151c-5 -3 -10 -5 -17 -5c-16 0 -30 14 -30 30z" />
    <glyph glyph-name="Obreve" unicode="&#x14e;" 
d="M238 -7c-118 0 -189 85 -189 227c0 197 176 488 347 488c128 0 203 -88 203 -236c0 -206 -173 -479 -361 -479zM109 220c0 -110 45 -167 129 -167c153 0 301 243 301 419c0 116 -50 176 -143 176c-135 0 -287 -261 -287 -428zM240 939c0 17 13 30 30 30
c15 0 29 -13 30 -28c4 -52 55 -89 127 -89c73 0 138 40 163 100c4 10 15 19 28 19c17 0 30 -13 30 -30c0 -4 -1 -8 -3 -12c-34 -83 -121 -137 -218 -137c-102 0 -182 59 -187 147z" />
    <glyph glyph-name="Ocircumflex" unicode="&#xd4;" 
d="M238 -7c-118 0 -189 85 -189 227c0 197 176 488 347 488c128 0 203 -88 203 -236c0 -206 -173 -479 -361 -479zM109 220c0 -110 45 -167 129 -167c153 0 301 243 301 419c0 116 -50 176 -143 176c-135 0 -287 -261 -287 -428zM207 815c0 11 5 20 14 25
c74 48 147 92 219 132c4 3 9 4 15 4s12 -3 18 -6c61 -46 111 -90 151 -135c4 -6 7 -12 7 -20c0 -17 -13 -30 -30 -30c-9 0 -18 3 -23 10c-33 38 -74 76 -126 115c-67 -37 -132 -77 -198 -120c-5 -3 -11 -5 -17 -5c-17 0 -30 13 -30 30z" />
    <glyph glyph-name="Odieresis" unicode="&#xd6;" 
d="M238 -7c-118 0 -189 85 -189 227c0 197 176 488 347 488c128 0 203 -88 203 -236c0 -206 -173 -479 -361 -479zM109 220c0 -110 45 -167 129 -167c153 0 301 243 301 419c0 116 -50 176 -143 176c-135 0 -287 -261 -287 -428zM295 821c0 38 4 62 14 85c5 10 15 18 28 18
c16 0 30 -14 30 -30c0 -5 -1 -10 -3 -14c-7 -14 -9 -27 -9 -59c0 -17 -14 -30 -30 -30c-17 0 -30 13 -30 30zM490 832c0 4 1 9 3 13c4 10 9 41 13 65c2 14 15 26 30 26c16 0 30 -14 30 -30c0 -2 0 -4 -1 -6c-4 -24 -10 -62 -17 -79c-5 -12 -16 -19 -28 -19
c-17 0 -30 13 -30 30z" />
    <glyph glyph-name="Ograve" unicode="&#xd2;" 
d="M238 -7c-118 0 -189 85 -189 227c0 197 176 488 347 488c128 0 203 -88 203 -236c0 -206 -173 -479 -361 -479zM109 220c0 -110 45 -167 129 -167c153 0 301 243 301 419c0 116 -50 176 -143 176c-135 0 -287 -261 -287 -428zM314 946c0 16 13 30 30 30c7 0 14 -3 19 -8
l172 -151c7 -5 11 -13 11 -22c0 -17 -14 -30 -30 -30c-8 0 -15 2 -20 7l-172 151c-6 6 -10 14 -10 23z" />
    <glyph glyph-name="Ohungarumlaut" unicode="&#x150;" 
d="M238 -7c-118 0 -189 85 -189 227c0 197 176 488 347 488c128 0 203 -88 203 -236c0 -206 -173 -479 -361 -479zM109 220c0 -110 45 -167 129 -167c153 0 301 243 301 419c0 116 -50 176 -143 176c-135 0 -287 -261 -287 -428zM256 815c0 8 3 16 9 22
c59 55 117 106 174 152c5 4 12 7 19 7c17 0 30 -14 30 -30c0 -10 -4 -18 -11 -24c-56 -44 -112 -93 -170 -149c-6 -5 -13 -8 -21 -8c-17 0 -30 13 -30 30zM469 815c0 8 4 16 10 22c59 55 116 106 173 152c6 4 12 7 19 7c17 0 30 -14 30 -30c0 -10 -4 -18 -11 -24
c-55 -44 -111 -93 -170 -149c-5 -5 -13 -8 -21 -8c-16 0 -30 13 -30 30z" />
    <glyph glyph-name="Omacron" unicode="&#x14c;" 
d="M238 -7c-118 0 -189 85 -189 227c0 197 176 488 347 488c128 0 203 -88 203 -236c0 -206 -173 -479 -361 -479zM109 220c0 -110 45 -167 129 -167c153 0 301 243 301 419c0 116 -50 176 -143 176c-135 0 -287 -261 -287 -428zM204 831c0 15 11 28 26 29
c111 16 294 23 384 23c16 0 30 -14 30 -30c0 -17 -14 -30 -30 -30c-89 0 -268 -7 -376 -22h-4c-17 0 -30 13 -30 30z" />
    <glyph glyph-name="Oslash" unicode="&#xd8;" 
d="M238 -7c-59 0 -107 21 -139 61c-25 -30 -49 -59 -70 -86c-6 -7 -14 -11 -24 -11c-16 0 -30 13 -30 30c0 7 3 14 7 19c26 32 55 67 85 104c-12 31 -18 68 -18 110c0 197 176 488 347 488c64 0 115 -22 150 -63c32 33 60 62 85 86c6 6 13 9 21 9c17 0 30 -13 30 -30
c0 -8 -3 -16 -9 -21c-27 -27 -60 -60 -95 -97c14 -34 21 -74 21 -120c0 -206 -173 -479 -361 -479zM109 220c0 -24 2 -45 6 -64c125 147 274 313 394 439c-24 35 -62 53 -113 53c-135 0 -287 -261 -287 -428zM134 106c22 -35 57 -53 104 -53c153 0 301 243 301 419
c0 29 -3 55 -10 77c-123 -130 -272 -298 -395 -443z" />
    <glyph glyph-name="Oslashacute" unicode="&#x1fe;" 
d="M238 -7c-59 0 -107 21 -139 61c-25 -30 -49 -59 -70 -86c-6 -7 -14 -11 -24 -11c-16 0 -30 13 -30 30c0 7 3 14 7 19c26 32 55 67 85 104c-12 31 -18 68 -18 110c0 197 176 488 347 488c64 0 115 -22 150 -63c32 33 60 62 85 86c6 6 13 9 21 9c17 0 30 -13 30 -30
c0 -8 -3 -16 -9 -21c-27 -27 -60 -60 -95 -97c14 -34 21 -74 21 -120c0 -206 -173 -479 -361 -479zM109 220c0 -24 2 -45 6 -64c125 147 274 313 394 439c-24 35 -62 53 -113 53c-135 0 -287 -261 -287 -428zM134 106c22 -35 57 -53 104 -53c153 0 301 243 301 419
c0 29 -3 55 -10 77c-123 -130 -272 -298 -395 -443zM286 801c0 11 6 20 14 26l232 150c4 3 10 5 16 5c17 0 30 -13 30 -30c0 -10 -5 -20 -14 -25l-231 -151c-5 -3 -10 -5 -17 -5c-16 0 -30 14 -30 30z" />
    <glyph glyph-name="Otilde" unicode="&#xd5;" 
d="M238 -7c-118 0 -189 85 -189 227c0 197 176 488 347 488c128 0 203 -88 203 -236c0 -206 -173 -479 -361 -479zM109 220c0 -110 45 -167 129 -167c153 0 301 243 301 419c0 116 -50 176 -143 176c-135 0 -287 -261 -287 -428zM176 814c0 4 0 8 2 11
c31 80 100 136 172 136c54 0 83 -30 111 -67c21 -26 34 -42 65 -42c40 0 82 39 102 98c4 12 15 21 29 21c16 0 30 -14 30 -30c0 -4 -1 -7 -2 -11c-28 -82 -91 -138 -159 -138c-55 0 -84 29 -112 66c-21 27 -34 43 -64 43c-46 0 -94 -40 -116 -98c-4 -11 -15 -19 -28 -19
c-17 0 -30 13 -30 30z" />
    <glyph glyph-name="OE" unicode="&#x152;" 
d="M261 -11c-144 0 -225 84 -225 233c0 286 161 487 391 487c68 0 161 -7 222 -17c14 -2 26 -14 26 -29c0 -17 -14 -30 -30 -30h-6c-51 8 -126 14 -188 16c-18 -71 -41 -164 -64 -259c54 1 114 6 162 14h5c17 0 30 -13 30 -30c0 -15 -11 -28 -26 -30
c-55 -9 -125 -14 -186 -15c-24 -103 -47 -205 -62 -279c63 4 133 15 215 35c3 0 5 1 7 1c17 0 30 -14 30 -30c0 -15 -10 -27 -24 -30c-107 -25 -196 -37 -277 -37zM96 222c0 -111 50 -168 152 -173c31 149 96 428 141 598c-175 -21 -293 -189 -293 -425z" />
    <glyph glyph-name="P" unicode="P" 
d="M97 -16c-17 0 -30 13 -30 30c0 8 13 72 23 129c26 148 62 355 101 531c3 12 12 21 24 24c32 7 66 11 102 11c147 0 261 -98 261 -227c0 -136 -155 -242 -351 -242c-21 0 -40 1 -59 4c-11 -65 -35 -204 -41 -235c-2 -14 -15 -25 -30 -25zM179 302c15 -2 31 -2 48 -2
c161 0 291 83 291 182c0 94 -86 167 -201 167c-26 0 -49 -2 -71 -6c-24 -110 -48 -231 -67 -341z" />
    <glyph glyph-name="Thorn" unicode="&#xde;" 
d="M206 120c-20 0 -40 1 -59 3c-8 -45 -15 -84 -21 -115c-2 -14 -14 -25 -29 -25c-17 0 -30 13 -30 30v6c7 34 14 77 23 126c27 153 65 367 105 548c3 14 15 24 30 24c16 0 30 -13 30 -30l-1 -7c-7 -31 -14 -63 -20 -95c20 3 40 4 62 4c147 0 263 -87 263 -207
c0 -148 -157 -262 -353 -262zM157 182c15 -1 32 -2 49 -2c162 0 293 91 293 202c0 82 -88 147 -203 147c-27 0 -51 -2 -75 -7c-24 -118 -46 -238 -64 -340z" />
    <glyph glyph-name="Q" unicode="Q" 
d="M251 -10c-125 0 -194 90 -194 252c0 218 145 470 343 470c118 0 194 -105 194 -265c0 -124 -78 -284 -179 -378c39 -58 81 -107 125 -139c7 -6 11 -14 11 -23c0 -17 -14 -30 -30 -30c-8 0 -15 3 -20 8c-47 34 -92 86 -133 146c-38 -26 -78 -41 -117 -41zM117 242
c0 -130 45 -192 134 -192c28 0 58 11 86 31c-31 52 -59 109 -81 164c-2 3 -2 7 -2 11c0 17 13 30 30 30c13 0 24 -8 28 -20c20 -50 44 -100 71 -147c84 83 151 224 151 328c0 127 -52 205 -134 205c-163 0 -283 -221 -283 -410z" />
    <glyph glyph-name="R" unicode="R" 
d="M488 -36c-8 0 -15 4 -21 9c-87 91 -210 192 -328 265c-24 -95 -42 -177 -51 -232c-3 -15 -15 -26 -30 -26c-17 0 -30 13 -30 30v6c24 136 99 426 175 673c3 12 15 21 28 21h3c224 -21 346 -95 346 -230c0 -132 -122 -216 -336 -237c94 -65 191 -148 265 -227
c5 -5 9 -13 9 -22c0 -16 -13 -30 -30 -30zM154 294c233 7 366 76 366 186c0 91 -88 148 -267 168c-35 -117 -70 -242 -99 -354z" />
    <glyph glyph-name="Racute" unicode="&#x154;" 
d="M488 -36c-8 0 -15 4 -21 9c-87 91 -210 192 -328 265c-24 -95 -42 -177 -51 -232c-3 -15 -15 -26 -30 -26c-17 0 -30 13 -30 30v6c24 136 99 426 175 673c3 12 15 21 28 21h3c224 -21 346 -95 346 -230c0 -132 -122 -216 -336 -237c94 -65 191 -148 265 -227
c5 -5 9 -13 9 -22c0 -16 -13 -30 -30 -30zM154 294c233 7 366 76 366 186c0 91 -88 148 -267 168c-35 -117 -70 -242 -99 -354zM286 801c0 11 6 20 14 26l232 150c4 3 10 5 16 5c17 0 30 -13 30 -30c0 -10 -5 -20 -14 -25l-231 -151c-5 -3 -10 -5 -17 -5
c-16 0 -30 14 -30 30z" />
    <glyph glyph-name="Rcaron" unicode="&#x158;" 
d="M488 -36c-8 0 -15 4 -21 9c-87 91 -210 192 -328 265c-24 -95 -42 -177 -51 -232c-3 -15 -15 -26 -30 -26c-17 0 -30 13 -30 30v6c24 136 99 426 175 673c3 12 15 21 28 21h3c224 -21 346 -95 346 -230c0 -132 -122 -216 -336 -237c94 -65 191 -148 265 -227
c5 -5 9 -13 9 -22c0 -16 -13 -30 -30 -30zM154 294c233 7 366 76 366 186c0 91 -88 148 -267 168c-35 -117 -70 -242 -99 -354zM233 946c0 17 13 30 30 30c9 0 17 -4 23 -10c33 -39 73 -76 125 -115c67 36 132 76 199 119c5 4 11 6 17 6c17 0 30 -13 30 -30
c0 -11 -6 -20 -15 -25c-74 -49 -146 -93 -218 -133c-5 -2 -10 -3 -15 -3c-7 0 -13 2 -18 6c-62 45 -112 90 -151 135c-4 5 -7 12 -7 20z" />
    <glyph glyph-name="uni0156" unicode="&#x156;" 
d="M488 -36c-8 0 -15 4 -21 9c-87 91 -210 192 -328 265c-24 -95 -42 -177 -51 -232c-3 -15 -15 -26 -30 -26c-17 0 -30 13 -30 30v6c24 136 99 426 175 673c3 12 15 21 28 21h3c224 -21 346 -95 346 -230c0 -132 -122 -216 -336 -237c94 -65 191 -148 265 -227
c5 -5 9 -13 9 -22c0 -16 -13 -30 -30 -30zM122 -243c0 9 5 18 11 23c42 38 99 109 118 140c5 8 15 14 25 14c17 0 30 -13 30 -30c0 -6 -2 -12 -5 -17c-21 -35 -84 -112 -129 -153c-6 -4 -12 -7 -20 -7c-16 0 -30 13 -30 30zM154 294c233 7 366 76 366 186
c0 91 -88 148 -267 168c-35 -117 -70 -242 -99 -354z" />
    <glyph glyph-name="S" unicode="S" 
d="M253 -9c-107 0 -174 28 -227 94c-5 5 -8 12 -8 19c0 17 14 30 30 30c9 0 18 -4 23 -10c42 -53 92 -73 182 -73c123 0 225 80 225 171c0 71 -40 103 -170 121c-111 15 -163 64 -163 158c0 116 115 204 257 204c73 0 131 -15 183 -47c9 -5 15 -15 15 -26
c0 -17 -13 -30 -30 -30c-6 0 -11 2 -15 4c-43 27 -89 39 -153 39c-110 0 -197 -65 -197 -144c0 -60 27 -87 111 -99c155 -21 222 -70 222 -180c0 -127 -130 -231 -285 -231z" />
    <glyph glyph-name="Sacute" unicode="&#x15a;" 
d="M253 -9c-107 0 -174 28 -227 94c-5 5 -8 12 -8 19c0 17 14 30 30 30c9 0 18 -4 23 -10c42 -53 92 -73 182 -73c123 0 225 80 225 171c0 71 -40 103 -170 121c-111 15 -163 64 -163 158c0 116 115 204 257 204c73 0 131 -15 183 -47c9 -5 15 -15 15 -26
c0 -17 -13 -30 -30 -30c-6 0 -11 2 -15 4c-43 27 -89 39 -153 39c-110 0 -197 -65 -197 -144c0 -60 27 -87 111 -99c155 -21 222 -70 222 -180c0 -127 -130 -231 -285 -231zM286 801c0 11 6 20 14 26l232 150c4 3 10 5 16 5c17 0 30 -13 30 -30c0 -10 -5 -20 -14 -25
l-231 -151c-5 -3 -10 -5 -17 -5c-16 0 -30 14 -30 30z" />
    <glyph glyph-name="Scaron" unicode="&#x160;" 
d="M253 -9c-107 0 -174 28 -227 94c-5 5 -8 12 -8 19c0 17 14 30 30 30c9 0 18 -4 23 -10c42 -53 92 -73 182 -73c123 0 225 80 225 171c0 71 -40 103 -170 121c-111 15 -163 64 -163 158c0 116 115 204 257 204c73 0 131 -15 183 -47c9 -5 15 -15 15 -26
c0 -17 -13 -30 -30 -30c-6 0 -11 2 -15 4c-43 27 -89 39 -153 39c-110 0 -197 -65 -197 -144c0 -60 27 -87 111 -99c155 -21 222 -70 222 -180c0 -127 -130 -231 -285 -231zM233 946c0 17 13 30 30 30c9 0 17 -4 23 -10c33 -39 73 -76 125 -115c67 36 132 76 199 119
c5 4 11 6 17 6c17 0 30 -13 30 -30c0 -11 -6 -20 -15 -25c-74 -49 -146 -93 -218 -133c-5 -2 -10 -3 -15 -3c-7 0 -13 2 -18 6c-62 45 -112 90 -151 135c-4 5 -7 12 -7 20z" />
    <glyph glyph-name="Scedilla" unicode="&#x15e;" 
d="M152 -240c-8 0 -17 0 -24 1c-15 1 -27 14 -27 30s13 30 30 30c1 0 3 0 4 -1h17c78 0 137 41 137 94c0 27 -20 46 -59 53c-13 2 -24 12 -25 26c-80 8 -134 36 -179 92c-5 5 -8 12 -8 19c0 17 14 30 30 30c9 0 18 -4 23 -10c42 -53 92 -73 182 -73c123 0 225 80 225 171
c0 71 -40 103 -170 121c-111 15 -163 64 -163 158c0 116 115 204 257 204c73 0 131 -15 183 -47c9 -5 15 -15 15 -26c0 -17 -13 -30 -30 -30c-6 0 -11 2 -15 4c-43 27 -89 39 -153 39c-110 0 -197 -65 -197 -144c0 -60 27 -87 111 -99c155 -21 222 -70 222 -180
c0 -111 -99 -204 -227 -226c24 -20 38 -48 38 -82c0 -89 -86 -154 -197 -154z" />
    <glyph glyph-name="Scircumflex" unicode="&#x15c;" 
d="M253 -9c-107 0 -174 28 -227 94c-5 5 -8 12 -8 19c0 17 14 30 30 30c9 0 18 -4 23 -10c42 -53 92 -73 182 -73c123 0 225 80 225 171c0 71 -40 103 -170 121c-111 15 -163 64 -163 158c0 116 115 204 257 204c73 0 131 -15 183 -47c9 -5 15 -15 15 -26
c0 -17 -13 -30 -30 -30c-6 0 -11 2 -15 4c-43 27 -89 39 -153 39c-110 0 -197 -65 -197 -144c0 -60 27 -87 111 -99c155 -21 222 -70 222 -180c0 -127 -130 -231 -285 -231zM207 815c0 11 5 20 14 25c74 48 147 92 219 132c4 3 9 4 15 4s12 -3 18 -6
c61 -46 111 -90 151 -135c4 -6 7 -12 7 -20c0 -17 -13 -30 -30 -30c-9 0 -18 3 -23 10c-33 38 -74 76 -126 115c-67 -37 -132 -77 -198 -120c-5 -3 -11 -5 -17 -5c-17 0 -30 13 -30 30z" />
    <glyph glyph-name="uni0218" unicode="&#x218;" 
d="M253 -9c-107 0 -174 28 -227 94c-5 5 -8 12 -8 19c0 17 14 30 30 30c9 0 18 -4 23 -10c42 -53 92 -73 182 -73c123 0 225 80 225 171c0 71 -40 103 -170 121c-111 15 -163 64 -163 158c0 116 115 204 257 204c73 0 131 -15 183 -47c9 -5 15 -15 15 -26
c0 -17 -13 -30 -30 -30c-6 0 -11 2 -15 4c-43 27 -89 39 -153 39c-110 0 -197 -65 -197 -144c0 -60 27 -87 111 -99c155 -21 222 -70 222 -180c0 -127 -130 -231 -285 -231zM122 -243c0 9 5 18 11 23c42 38 99 109 118 140c5 8 15 14 25 14c17 0 30 -13 30 -30
c0 -6 -2 -12 -5 -17c-21 -35 -84 -112 -129 -153c-6 -4 -12 -7 -20 -7c-16 0 -30 13 -30 30z" />
    <glyph glyph-name="uni1E9E" unicode="&#x1e9e;" 
d="M251 -18c-17 0 -30 13 -30 30c0 15 12 28 27 30c157 17 251 92 251 198c0 59 -42 100 -132 119c-14 3 -24 15 -24 30c0 8 3 15 9 21c61 66 135 165 187 236c-82 -6 -184 -9 -277 -9h-39c-43 -239 -89 -465 -128 -625c-3 -14 -15 -23 -29 -23c-17 0 -30 13 -30 30
c0 3 0 5 1 10c38 155 83 377 125 609h-7c-17 1 -30 14 -30 30c0 17 13 30 30 30c31 -1 66 -1 107 -1c120 0 248 5 339 13c17 0 30 -13 30 -30c0 -6 -2 -12 -5 -18c-47 -69 -129 -178 -200 -260c87 -30 133 -85 133 -162c0 -139 -116 -238 -308 -258z" />
    <glyph glyph-name="uni018F" unicode="&#x18f;" 
d="M216 -9c-110 0 -178 82 -178 214c0 101 37 155 122 172c83 16 231 41 368 58v18c0 130 -56 199 -162 199c-71 0 -135 -29 -213 -98c-5 -5 -12 -8 -20 -8c-17 0 -30 13 -30 30c0 9 3 17 9 23c89 78 168 113 254 113c140 0 222 -96 222 -259c0 -233 -148 -462 -372 -462z
M98 205c0 -99 43 -154 118 -154c164 0 279 150 306 323c-132 -17 -271 -40 -350 -56c-55 -11 -74 -39 -74 -113z" />
    <glyph glyph-name="T" unicode="T" 
d="M269 -10c-16 0 -30 13 -30 30c0 2 1 4 1 7c30 148 76 423 101 606c-30 -1 -60 -1 -89 -1c-39 0 -78 0 -116 1c-16 0 -29 14 -29 30c0 17 13 30 30 30c37 -1 75 -1 115 -1c130 0 267 4 386 13c16 0 30 -13 30 -30c0 -16 -13 -29 -28 -30c-74 -6 -156 -9 -238 -11
c-25 -184 -72 -468 -103 -619c-3 -14 -15 -25 -30 -25z" />
    <glyph glyph-name="Tbar" unicode="&#x166;" 
d="M269 -10c-16 0 -30 13 -30 30c0 2 1 4 1 7c15 75 35 184 54 296c-34 -3 -68 -7 -102 -12h-4c-15 0 -27 12 -27 27c0 13 11 24 24 26c36 5 76 10 118 14c14 90 28 180 38 255c-30 -1 -60 -1 -89 -1c-39 0 -78 0 -116 1c-16 0 -29 14 -29 30c0 17 13 30 30 30
c37 -1 75 -1 115 -1c130 0 267 4 386 13c16 0 30 -13 30 -30c0 -16 -13 -29 -28 -30c-74 -6 -156 -9 -238 -11c-10 -73 -24 -161 -38 -251c42 3 83 5 118 6c15 0 26 -11 26 -27c0 -14 -11 -26 -26 -26c-41 -1 -84 -4 -127 -7c-19 -119 -40 -235 -56 -314
c-3 -14 -15 -25 -30 -25z" />
    <glyph glyph-name="Tcaron" unicode="&#x164;" 
d="M269 -10c-16 0 -30 13 -30 30c0 2 1 4 1 7c30 148 76 423 101 606c-30 -1 -60 -1 -89 -1c-39 0 -78 0 -116 1c-16 0 -29 14 -29 30c0 17 13 30 30 30c37 -1 75 -1 115 -1c130 0 267 4 386 13c16 0 30 -13 30 -30c0 -16 -13 -29 -28 -30c-74 -6 -156 -9 -238 -11
c-25 -184 -72 -468 -103 -619c-3 -14 -15 -25 -30 -25zM233 946c0 17 13 30 30 30c9 0 17 -4 23 -10c33 -39 73 -76 125 -115c67 36 132 76 199 119c5 4 11 6 17 6c17 0 30 -13 30 -30c0 -11 -6 -20 -15 -25c-74 -49 -146 -93 -218 -133c-5 -2 -10 -3 -15 -3
c-7 0 -13 2 -18 6c-62 45 -112 90 -151 135c-4 5 -7 12 -7 20z" />
    <glyph glyph-name="uni0162" unicode="&#x162;" 
d="M252 632c-39 0 -78 0 -116 1c-16 0 -29 14 -29 30c0 17 13 30 30 30c37 -1 75 -1 115 -1c130 0 267 4 386 13c16 0 30 -13 30 -30c0 -16 -13 -29 -28 -30c-74 -6 -156 -9 -238 -11c-25 -184 -72 -468 -103 -619l-3 -9c33 -20 53 -52 53 -92c0 -89 -86 -154 -197 -154
c-8 0 -17 0 -24 1c-15 1 -27 14 -27 30s13 30 30 30c1 0 3 0 4 -1h17c78 0 137 41 137 94c0 27 -20 46 -59 53c-14 2 -25 14 -25 29c0 17 13 30 30 30h5v1c30 148 76 423 101 606c-30 -1 -60 -1 -89 -1z" />
    <glyph glyph-name="uni021A" unicode="&#x21a;" 
d="M269 -10c-16 0 -30 13 -30 30c0 2 1 4 1 7c30 148 76 423 101 606c-30 -1 -60 -1 -89 -1c-39 0 -78 0 -116 1c-16 0 -29 14 -29 30c0 17 13 30 30 30c37 -1 75 -1 115 -1c130 0 267 4 386 13c16 0 30 -13 30 -30c0 -16 -13 -29 -28 -30c-74 -6 -156 -9 -238 -11
c-25 -184 -72 -468 -103 -619c-3 -14 -15 -25 -30 -25zM122 -243c0 9 5 18 11 23c42 38 99 109 118 140c5 8 15 14 25 14c17 0 30 -13 30 -30c0 -6 -2 -12 -5 -17c-21 -35 -84 -112 -129 -153c-6 -4 -12 -7 -20 -7c-16 0 -30 13 -30 30z" />
    <glyph glyph-name="U" unicode="U" 
d="M257 -9c-127 0 -200 70 -200 193c0 81 69 333 112 490c3 13 15 23 29 23c16 0 30 -13 30 -30c0 -3 -1 -6 -2 -9c-51 -186 -109 -406 -109 -474c0 -88 45 -133 140 -133c133 0 214 81 247 249c22 111 42 270 51 383c1 15 14 28 30 28s30 -13 30 -30v-2
c-9 -116 -29 -277 -53 -391c-38 -195 -143 -297 -305 -297z" />
    <glyph glyph-name="Uacute" unicode="&#xda;" 
d="M257 -9c-127 0 -200 70 -200 193c0 81 69 333 112 490c3 13 15 23 29 23c16 0 30 -13 30 -30c0 -3 -1 -6 -2 -9c-51 -186 -109 -406 -109 -474c0 -88 45 -133 140 -133c133 0 214 81 247 249c22 111 42 270 51 383c1 15 14 28 30 28s30 -13 30 -30v-2
c-9 -116 -29 -277 -53 -391c-38 -195 -143 -297 -305 -297zM286 801c0 11 6 20 14 26l232 150c4 3 10 5 16 5c17 0 30 -13 30 -30c0 -10 -5 -20 -14 -25l-231 -151c-5 -3 -10 -5 -17 -5c-16 0 -30 14 -30 30z" />
    <glyph glyph-name="Ubreve" unicode="&#x16c;" 
d="M257 -9c-127 0 -200 70 -200 193c0 81 69 333 112 490c3 13 15 23 29 23c16 0 30 -13 30 -30c0 -3 -1 -6 -2 -9c-51 -186 -109 -406 -109 -474c0 -88 45 -133 140 -133c133 0 214 81 247 249c22 111 42 270 51 383c1 15 14 28 30 28s30 -13 30 -30v-2
c-9 -116 -29 -277 -53 -391c-38 -195 -143 -297 -305 -297zM240 939c0 17 13 30 30 30c15 0 29 -13 30 -28c4 -52 55 -89 127 -89c73 0 138 40 163 100c4 10 15 19 28 19c17 0 30 -13 30 -30c0 -4 -1 -8 -3 -12c-34 -83 -121 -137 -218 -137c-102 0 -182 59 -187 147z" />
    <glyph glyph-name="Ucircumflex" unicode="&#xdb;" 
d="M257 -9c-127 0 -200 70 -200 193c0 81 69 333 112 490c3 13 15 23 29 23c16 0 30 -13 30 -30c0 -3 -1 -6 -2 -9c-51 -186 -109 -406 -109 -474c0 -88 45 -133 140 -133c133 0 214 81 247 249c22 111 42 270 51 383c1 15 14 28 30 28s30 -13 30 -30v-2
c-9 -116 -29 -277 -53 -391c-38 -195 -143 -297 -305 -297zM207 815c0 11 5 20 14 25c74 48 147 92 219 132c4 3 9 4 15 4s12 -3 18 -6c61 -46 111 -90 151 -135c4 -6 7 -12 7 -20c0 -17 -13 -30 -30 -30c-9 0 -18 3 -23 10c-33 38 -74 76 -126 115
c-67 -37 -132 -77 -198 -120c-5 -3 -11 -5 -17 -5c-17 0 -30 13 -30 30z" />
    <glyph glyph-name="Udieresis" unicode="&#xdc;" 
d="M257 -9c-127 0 -200 70 -200 193c0 81 69 333 112 490c3 13 15 23 29 23c16 0 30 -13 30 -30c0 -3 -1 -6 -2 -9c-51 -186 -109 -406 -109 -474c0 -88 45 -133 140 -133c133 0 214 81 247 249c22 111 42 270 51 383c1 15 14 28 30 28s30 -13 30 -30v-2
c-9 -116 -29 -277 -53 -391c-38 -195 -143 -297 -305 -297zM295 821c0 38 4 62 14 85c5 10 15 18 28 18c16 0 30 -14 30 -30c0 -5 -1 -10 -3 -14c-7 -14 -9 -27 -9 -59c0 -17 -14 -30 -30 -30c-17 0 -30 13 -30 30zM490 832c0 4 1 9 3 13c4 10 9 41 13 65c2 14 15 26 30 26
c16 0 30 -14 30 -30c0 -2 0 -4 -1 -6c-4 -24 -10 -62 -17 -79c-5 -12 -16 -19 -28 -19c-17 0 -30 13 -30 30z" />
    <glyph glyph-name="Ugrave" unicode="&#xd9;" 
d="M257 -9c-127 0 -200 70 -200 193c0 81 69 333 112 490c3 13 15 23 29 23c16 0 30 -13 30 -30c0 -3 -1 -6 -2 -9c-51 -186 -109 -406 -109 -474c0 -88 45 -133 140 -133c133 0 214 81 247 249c22 111 42 270 51 383c1 15 14 28 30 28s30 -13 30 -30v-2
c-9 -116 -29 -277 -53 -391c-38 -195 -143 -297 -305 -297zM314 946c0 16 13 30 30 30c7 0 14 -3 19 -8l172 -151c7 -5 11 -13 11 -22c0 -17 -14 -30 -30 -30c-8 0 -15 2 -20 7l-172 151c-6 6 -10 14 -10 23z" />
    <glyph glyph-name="Uhungarumlaut" unicode="&#x170;" 
d="M257 -9c-127 0 -200 70 -200 193c0 81 69 333 112 490c3 13 15 23 29 23c16 0 30 -13 30 -30c0 -3 -1 -6 -2 -9c-51 -186 -109 -406 -109 -474c0 -88 45 -133 140 -133c133 0 214 81 247 249c22 111 42 270 51 383c1 15 14 28 30 28s30 -13 30 -30v-2
c-9 -116 -29 -277 -53 -391c-38 -195 -143 -297 -305 -297zM256 815c0 8 3 16 9 22c59 55 117 106 174 152c5 4 12 7 19 7c17 0 30 -14 30 -30c0 -10 -4 -18 -11 -24c-56 -44 -112 -93 -170 -149c-6 -5 -13 -8 -21 -8c-17 0 -30 13 -30 30zM469 815c0 8 4 16 10 22
c59 55 116 106 173 152c6 4 12 7 19 7c17 0 30 -14 30 -30c0 -10 -4 -18 -11 -24c-55 -44 -111 -93 -170 -149c-5 -5 -13 -8 -21 -8c-16 0 -30 13 -30 30z" />
    <glyph glyph-name="Umacron" unicode="&#x16a;" 
d="M257 -9c-127 0 -200 70 -200 193c0 81 69 333 112 490c3 13 15 23 29 23c16 0 30 -13 30 -30c0 -3 -1 -6 -2 -9c-51 -186 -109 -406 -109 -474c0 -88 45 -133 140 -133c133 0 214 81 247 249c22 111 42 270 51 383c1 15 14 28 30 28s30 -13 30 -30v-2
c-9 -116 -29 -277 -53 -391c-38 -195 -143 -297 -305 -297zM204 831c0 15 11 28 26 29c111 16 294 23 384 23c16 0 30 -14 30 -30c0 -17 -14 -30 -30 -30c-89 0 -268 -7 -376 -22h-4c-17 0 -30 13 -30 30z" />
    <glyph glyph-name="Uogonek" unicode="&#x172;" 
d="M261 -202c-54 0 -96 34 -96 82c0 37 28 76 74 111c-116 7 -182 76 -182 193c0 81 69 333 112 490c3 13 15 23 29 23c16 0 30 -13 30 -30c0 -3 -1 -6 -2 -9c-51 -186 -109 -406 -109 -474c0 -88 45 -133 140 -133c133 0 214 81 247 249c22 111 42 270 51 383
c1 15 14 28 30 28s30 -13 30 -30v-2c-9 -116 -29 -277 -53 -391c-29 -149 -98 -244 -201 -280l-1 -1c-76 -34 -135 -84 -135 -117c0 -19 16 -32 39 -32c29 0 68 15 97 37c6 4 12 6 18 6c17 0 30 -13 30 -30c0 -10 -5 -19 -12 -24c-40 -30 -94 -49 -136 -49z" />
    <glyph glyph-name="Uring" unicode="&#x16e;" 
d="M257 -9c-127 0 -200 70 -200 193c0 81 69 333 112 490c3 13 15 23 29 23c16 0 30 -13 30 -30c0 -3 -1 -6 -2 -9c-51 -186 -109 -406 -109 -474c0 -88 45 -133 140 -133c133 0 214 81 247 249c22 111 42 270 51 383c1 15 14 28 30 28s30 -13 30 -30v-2
c-9 -116 -29 -277 -53 -391c-38 -195 -143 -297 -305 -297zM300 899c0 80 74 154 150 154c66 0 126 -60 126 -128c0 -70 -73 -142 -143 -142c-79 0 -133 45 -133 116zM347 899c0 -40 29 -69 86 -69c44 0 97 49 97 95c0 42 -37 81 -80 81c-50 0 -103 -53 -103 -107z" />
    <glyph glyph-name="Utilde" unicode="&#x168;" 
d="M257 -9c-127 0 -200 70 -200 193c0 81 69 333 112 490c3 13 15 23 29 23c16 0 30 -13 30 -30c0 -3 -1 -6 -2 -9c-51 -186 -109 -406 -109 -474c0 -88 45 -133 140 -133c133 0 214 81 247 249c22 111 42 270 51 383c1 15 14 28 30 28s30 -13 30 -30v-2
c-9 -116 -29 -277 -53 -391c-38 -195 -143 -297 -305 -297zM176 814c0 4 0 8 2 11c31 80 100 136 172 136c54 0 83 -30 111 -67c21 -26 34 -42 65 -42c40 0 82 39 102 98c4 12 15 21 29 21c16 0 30 -14 30 -30c0 -4 -1 -7 -2 -11c-28 -82 -91 -138 -159 -138
c-55 0 -84 29 -112 66c-21 27 -34 43 -64 43c-46 0 -94 -40 -116 -98c-4 -11 -15 -19 -28 -19c-17 0 -30 13 -30 30z" />
    <glyph glyph-name="V" unicode="V" 
d="M242 -19c-14 0 -26 9 -29 22c-47 164 -93 461 -98 669c0 17 13 30 30 30c16 0 30 -13 30 -29c4 -177 38 -421 77 -580c120 232 252 460 357 618c5 8 14 13 25 13c17 0 30 -13 30 -30c0 -6 -2 -13 -6 -18c-114 -170 -261 -425 -389 -678c-6 -11 -16 -17 -27 -17z" />
    <glyph glyph-name="W" unicode="W" 
d="M135 -21c-16 0 -30 12 -30 29c-3 63 -12 373 -12 483c0 65 1 121 4 169c0 17 14 29 30 29c17 0 30 -13 30 -30c0 -6 -4 -50 -4 -168c0 -103 3 -217 7 -365c51 113 132 286 180 399c4 11 15 19 27 19c16 0 30 -13 30 -30c1 -59 18 -263 30 -368c45 122 150 400 199 547
c4 12 16 21 29 21c17 0 30 -13 30 -30c0 -3 -1 -6 -2 -10c-63 -189 -193 -521 -241 -663c-5 -12 -16 -21 -29 -21c-16 0 -29 12 -30 28c-8 95 -27 271 -35 387c-48 -111 -143 -311 -186 -408c-4 -10 -15 -18 -27 -18z" />
    <glyph glyph-name="Wacute" unicode="&#x1e82;" 
d="M135 -21c-16 0 -30 12 -30 29c-3 63 -12 373 -12 483c0 65 1 121 4 169c0 17 14 29 30 29c17 0 30 -13 30 -30c0 -6 -4 -50 -4 -168c0 -103 3 -217 7 -365c51 113 132 286 180 399c4 11 15 19 27 19c16 0 30 -13 30 -30c1 -59 18 -263 30 -368c45 122 150 400 199 547
c4 12 16 21 29 21c17 0 30 -13 30 -30c0 -3 -1 -6 -2 -10c-63 -189 -193 -521 -241 -663c-5 -12 -16 -21 -29 -21c-16 0 -29 12 -30 28c-8 95 -27 271 -35 387c-48 -111 -143 -311 -186 -408c-4 -10 -15 -18 -27 -18zM286 801c0 11 6 20 14 26l232 150c4 3 10 5 16 5
c17 0 30 -13 30 -30c0 -10 -5 -20 -14 -25l-231 -151c-5 -3 -10 -5 -17 -5c-16 0 -30 14 -30 30z" />
    <glyph glyph-name="Wcircumflex" unicode="&#x174;" 
d="M135 -21c-16 0 -30 12 -30 29c-3 63 -12 373 -12 483c0 65 1 121 4 169c0 17 14 29 30 29c17 0 30 -13 30 -30c0 -6 -4 -50 -4 -168c0 -103 3 -217 7 -365c51 113 132 286 180 399c4 11 15 19 27 19c16 0 30 -13 30 -30c1 -59 18 -263 30 -368c45 122 150 400 199 547
c4 12 16 21 29 21c17 0 30 -13 30 -30c0 -3 -1 -6 -2 -10c-63 -189 -193 -521 -241 -663c-5 -12 -16 -21 -29 -21c-16 0 -29 12 -30 28c-8 95 -27 271 -35 387c-48 -111 -143 -311 -186 -408c-4 -10 -15 -18 -27 -18zM207 815c0 11 5 20 14 25c74 48 147 92 219 132
c4 3 9 4 15 4s12 -3 18 -6c61 -46 111 -90 151 -135c4 -6 7 -12 7 -20c0 -17 -13 -30 -30 -30c-9 0 -18 3 -23 10c-33 38 -74 76 -126 115c-67 -37 -132 -77 -198 -120c-5 -3 -11 -5 -17 -5c-17 0 -30 13 -30 30z" />
    <glyph glyph-name="Wdieresis" unicode="&#x1e84;" 
d="M135 -21c-16 0 -30 12 -30 29c-3 63 -12 373 -12 483c0 65 1 121 4 169c0 17 14 29 30 29c17 0 30 -13 30 -30c0 -6 -4 -50 -4 -168c0 -103 3 -217 7 -365c51 113 132 286 180 399c4 11 15 19 27 19c16 0 30 -13 30 -30c1 -59 18 -263 30 -368c45 122 150 400 199 547
c4 12 16 21 29 21c17 0 30 -13 30 -30c0 -3 -1 -6 -2 -10c-63 -189 -193 -521 -241 -663c-5 -12 -16 -21 -29 -21c-16 0 -29 12 -30 28c-8 95 -27 271 -35 387c-48 -111 -143 -311 -186 -408c-4 -10 -15 -18 -27 -18zM295 821c0 38 4 62 14 85c5 10 15 18 28 18
c16 0 30 -14 30 -30c0 -5 -1 -10 -3 -14c-7 -14 -9 -27 -9 -59c0 -17 -14 -30 -30 -30c-17 0 -30 13 -30 30zM490 832c0 4 1 9 3 13c4 10 9 41 13 65c2 14 15 26 30 26c16 0 30 -14 30 -30c0 -2 0 -4 -1 -6c-4 -24 -10 -62 -17 -79c-5 -12 -16 -19 -28 -19
c-17 0 -30 13 -30 30z" />
    <glyph glyph-name="Wgrave" unicode="&#x1e80;" 
d="M135 -21c-16 0 -30 12 -30 29c-3 63 -12 373 -12 483c0 65 1 121 4 169c0 17 14 29 30 29c17 0 30 -13 30 -30c0 -6 -4 -50 -4 -168c0 -103 3 -217 7 -365c51 113 132 286 180 399c4 11 15 19 27 19c16 0 30 -13 30 -30c1 -59 18 -263 30 -368c45 122 150 400 199 547
c4 12 16 21 29 21c17 0 30 -13 30 -30c0 -3 -1 -6 -2 -10c-63 -189 -193 -521 -241 -663c-5 -12 -16 -21 -29 -21c-16 0 -29 12 -30 28c-8 95 -27 271 -35 387c-48 -111 -143 -311 -186 -408c-4 -10 -15 -18 -27 -18zM314 946c0 16 13 30 30 30c7 0 14 -3 19 -8l172 -151
c7 -5 11 -13 11 -22c0 -17 -14 -30 -30 -30c-8 0 -15 2 -20 7l-172 151c-6 6 -10 14 -10 23z" />
    <glyph glyph-name="X" unicode="X" 
d="M3 -14c-16 0 -30 14 -30 30c0 9 4 17 10 22c89 88 199 204 290 305c-60 127 -94 237 -114 327c0 3 -1 5 -1 8c0 16 14 30 30 30c15 0 27 -11 30 -24c21 -95 53 -193 98 -291c93 106 210 230 291 314c6 5 13 8 21 8c17 0 30 -13 30 -30c0 -8 -3 -15 -8 -21
c-87 -88 -212 -221 -306 -331c39 -79 125 -225 173 -301c3 -5 5 -10 5 -17c0 -16 -13 -30 -30 -30c-10 0 -20 6 -25 14c-44 71 -122 202 -166 286c-88 -98 -191 -207 -277 -290c-5 -5 -13 -9 -21 -9z" />
    <glyph glyph-name="Y" unicode="Y" 
d="M261 -12c-17 0 -30 13 -30 30c0 2 0 5 1 7c15 67 35 150 57 239c-42 112 -105 271 -160 393c-2 4 -3 9 -3 14c0 17 13 30 30 30c12 0 22 -7 27 -17c49 -109 106 -251 147 -360c101 122 199 258 274 380c5 8 15 14 25 14c17 0 30 -13 30 -30c0 -6 -2 -12 -5 -17
c-79 -129 -190 -284 -307 -418c-21 -91 -41 -174 -57 -242c-3 -13 -15 -23 -29 -23z" />
    <glyph glyph-name="Yacute" unicode="&#xdd;" 
d="M261 -12c-17 0 -30 13 -30 30c0 2 0 5 1 7c15 67 35 150 57 239c-42 112 -105 271 -160 393c-2 4 -3 9 -3 14c0 17 13 30 30 30c12 0 22 -7 27 -17c49 -109 106 -251 147 -360c101 122 199 258 274 380c5 8 15 14 25 14c17 0 30 -13 30 -30c0 -6 -2 -12 -5 -17
c-79 -129 -190 -284 -307 -418c-21 -91 -41 -174 -57 -242c-3 -13 -15 -23 -29 -23zM286 801c0 11 6 20 14 26l232 150c4 3 10 5 16 5c17 0 30 -13 30 -30c0 -10 -5 -20 -14 -25l-231 -151c-5 -3 -10 -5 -17 -5c-16 0 -30 14 -30 30z" />
    <glyph glyph-name="Ycircumflex" unicode="&#x176;" 
d="M261 -12c-17 0 -30 13 -30 30c0 2 0 5 1 7c15 67 35 150 57 239c-42 112 -105 271 -160 393c-2 4 -3 9 -3 14c0 17 13 30 30 30c12 0 22 -7 27 -17c49 -109 106 -251 147 -360c101 122 199 258 274 380c5 8 15 14 25 14c17 0 30 -13 30 -30c0 -6 -2 -12 -5 -17
c-79 -129 -190 -284 -307 -418c-21 -91 -41 -174 -57 -242c-3 -13 -15 -23 -29 -23zM207 815c0 11 5 20 14 25c74 48 147 92 219 132c4 3 9 4 15 4s12 -3 18 -6c61 -46 111 -90 151 -135c4 -6 7 -12 7 -20c0 -17 -13 -30 -30 -30c-9 0 -18 3 -23 10c-33 38 -74 76 -126 115
c-67 -37 -132 -77 -198 -120c-5 -3 -11 -5 -17 -5c-17 0 -30 13 -30 30z" />
    <glyph glyph-name="Ydieresis" unicode="&#x178;" 
d="M261 -12c-17 0 -30 13 -30 30c0 2 0 5 1 7c15 67 35 150 57 239c-42 112 -105 271 -160 393c-2 4 -3 9 -3 14c0 17 13 30 30 30c12 0 22 -7 27 -17c49 -109 106 -251 147 -360c101 122 199 258 274 380c5 8 15 14 25 14c17 0 30 -13 30 -30c0 -6 -2 -12 -5 -17
c-79 -129 -190 -284 -307 -418c-21 -91 -41 -174 -57 -242c-3 -13 -15 -23 -29 -23zM295 821c0 38 4 62 14 85c5 10 15 18 28 18c16 0 30 -14 30 -30c0 -5 -1 -10 -3 -14c-7 -14 -9 -27 -9 -59c0 -17 -14 -30 -30 -30c-17 0 -30 13 -30 30zM490 832c0 4 1 9 3 13
c4 10 9 41 13 65c2 14 15 26 30 26c16 0 30 -14 30 -30c0 -2 0 -4 -1 -6c-4 -24 -10 -62 -17 -79c-5 -12 -16 -19 -28 -19c-17 0 -30 13 -30 30z" />
    <glyph glyph-name="Ygrave" unicode="&#x1ef2;" 
d="M261 -12c-17 0 -30 13 -30 30c0 2 0 5 1 7c15 67 35 150 57 239c-42 112 -105 271 -160 393c-2 4 -3 9 -3 14c0 17 13 30 30 30c12 0 22 -7 27 -17c49 -109 106 -251 147 -360c101 122 199 258 274 380c5 8 15 14 25 14c17 0 30 -13 30 -30c0 -6 -2 -12 -5 -17
c-79 -129 -190 -284 -307 -418c-21 -91 -41 -174 -57 -242c-3 -13 -15 -23 -29 -23zM314 946c0 16 13 30 30 30c7 0 14 -3 19 -8l172 -151c7 -5 11 -13 11 -22c0 -17 -14 -30 -30 -30c-8 0 -15 2 -20 7l-172 151c-6 6 -10 14 -10 23z" />
    <glyph glyph-name="Z" unicode="Z" 
d="M27 -6c-16 0 -30 13 -30 30c0 7 3 14 7 19c176 231 369 455 515 601c-83 -5 -169 -8 -240 -8c-51 0 -95 2 -126 4c-16 1 -28 14 -28 30c0 17 13 30 30 30h3c29 -2 71 -4 121 -4c94 0 211 5 317 13h3c17 0 30 -13 30 -30c0 -9 -4 -17 -10 -22
c-141 -134 -340 -361 -525 -600c54 3 111 3 169 3c77 0 153 0 223 6h2c17 0 30 -14 30 -30s-12 -29 -28 -30c-72 -6 -150 -6 -227 -6c-81 0 -160 0 -233 -6h-3z" />
    <glyph glyph-name="Zacute" unicode="&#x179;" 
d="M27 -6c-16 0 -30 13 -30 30c0 7 3 14 7 19c176 231 369 455 515 601c-83 -5 -169 -8 -240 -8c-51 0 -95 2 -126 4c-16 1 -28 14 -28 30c0 17 13 30 30 30h3c29 -2 71 -4 121 -4c94 0 211 5 317 13h3c17 0 30 -13 30 -30c0 -9 -4 -17 -10 -22
c-141 -134 -340 -361 -525 -600c54 3 111 3 169 3c77 0 153 0 223 6h2c17 0 30 -14 30 -30s-12 -29 -28 -30c-72 -6 -150 -6 -227 -6c-81 0 -160 0 -233 -6h-3zM286 801c0 11 6 20 14 26l232 150c4 3 10 5 16 5c17 0 30 -13 30 -30c0 -10 -5 -20 -14 -25l-231 -151
c-5 -3 -10 -5 -17 -5c-16 0 -30 14 -30 30z" />
    <glyph glyph-name="Zcaron" unicode="&#x17d;" 
d="M27 -6c-16 0 -30 13 -30 30c0 7 3 14 7 19c176 231 369 455 515 601c-83 -5 -169 -8 -240 -8c-51 0 -95 2 -126 4c-16 1 -28 14 -28 30c0 17 13 30 30 30h3c29 -2 71 -4 121 -4c94 0 211 5 317 13h3c17 0 30 -13 30 -30c0 -9 -4 -17 -10 -22
c-141 -134 -340 -361 -525 -600c54 3 111 3 169 3c77 0 153 0 223 6h2c17 0 30 -14 30 -30s-12 -29 -28 -30c-72 -6 -150 -6 -227 -6c-81 0 -160 0 -233 -6h-3zM233 946c0 17 13 30 30 30c9 0 17 -4 23 -10c33 -39 73 -76 125 -115c67 36 132 76 199 119c5 4 11 6 17 6
c17 0 30 -13 30 -30c0 -11 -6 -20 -15 -25c-74 -49 -146 -93 -218 -133c-5 -2 -10 -3 -15 -3c-7 0 -13 2 -18 6c-62 45 -112 90 -151 135c-4 5 -7 12 -7 20z" />
    <glyph glyph-name="Zdotaccent" unicode="&#x17b;" 
d="M27 -6c-16 0 -30 13 -30 30c0 7 3 14 7 19c176 231 369 455 515 601c-83 -5 -169 -8 -240 -8c-51 0 -95 2 -126 4c-16 1 -28 14 -28 30c0 17 13 30 30 30h3c29 -2 71 -4 121 -4c94 0 211 5 317 13h3c17 0 30 -13 30 -30c0 -9 -4 -17 -10 -22
c-141 -134 -340 -361 -525 -600c54 3 111 3 169 3c77 0 153 0 223 6h2c17 0 30 -14 30 -30s-12 -29 -28 -30c-72 -6 -150 -6 -227 -6c-81 0 -160 0 -233 -6h-3zM375 842c5 73 20 115 68 115c27 0 47 -21 47 -48s-27 -69 -58 -96c-6 -5 -13 -7 -20 -7c-17 0 -37 16 -37 36z
" />
    <glyph glyph-name="Y.ss02" 
d="M95 -36c-17 0 -30 13 -30 30c0 10 4 18 11 23c64 57 131 129 197 210c-38 125 -95 301 -144 435c-3 5 -3 8 -3 12c0 17 13 30 30 30c12 0 23 -7 28 -19c46 -122 97 -279 135 -401c107 135 208 287 284 422c5 9 15 15 26 15c17 0 30 -13 30 -30c0 -6 -1 -10 -4 -15
c-130 -232 -347 -534 -540 -704c-5 -5 -12 -8 -20 -8z" />
    <glyph glyph-name="Yacute.ss02" 
d="M95 -36c-17 0 -30 13 -30 30c0 10 4 18 11 23c64 57 131 129 197 210c-38 125 -95 301 -144 435c-3 5 -3 8 -3 12c0 17 13 30 30 30c12 0 23 -7 28 -19c46 -122 97 -279 135 -401c107 135 208 287 284 422c5 9 15 15 26 15c17 0 30 -13 30 -30c0 -6 -1 -10 -4 -15
c-130 -232 -347 -534 -540 -704c-5 -5 -12 -8 -20 -8zM286 801c0 11 6 20 14 26l232 150c4 3 10 5 16 5c17 0 30 -13 30 -30c0 -10 -5 -20 -14 -25l-231 -151c-5 -3 -10 -5 -17 -5c-16 0 -30 14 -30 30z" />
    <glyph glyph-name="Ycircumflex.ss02" 
d="M95 -36c-17 0 -30 13 -30 30c0 10 4 18 11 23c64 57 131 129 197 210c-38 125 -95 301 -144 435c-3 5 -3 8 -3 12c0 17 13 30 30 30c12 0 23 -7 28 -19c46 -122 97 -279 135 -401c107 135 208 287 284 422c5 9 15 15 26 15c17 0 30 -13 30 -30c0 -6 -1 -10 -4 -15
c-130 -232 -347 -534 -540 -704c-5 -5 -12 -8 -20 -8zM207 815c0 11 5 20 14 25c74 48 147 92 219 132c4 3 9 4 15 4s12 -3 18 -6c61 -46 111 -90 151 -135c4 -6 7 -12 7 -20c0 -17 -13 -30 -30 -30c-9 0 -18 3 -23 10c-33 38 -74 76 -126 115c-67 -37 -132 -77 -198 -120
c-5 -3 -11 -5 -17 -5c-17 0 -30 13 -30 30z" />
    <glyph glyph-name="Ydieresis.ss02" 
d="M95 -36c-17 0 -30 13 -30 30c0 10 4 18 11 23c64 57 131 129 197 210c-38 125 -95 301 -144 435c-3 5 -3 8 -3 12c0 17 13 30 30 30c12 0 23 -7 28 -19c46 -122 97 -279 135 -401c107 135 208 287 284 422c5 9 15 15 26 15c17 0 30 -13 30 -30c0 -6 -1 -10 -4 -15
c-130 -232 -347 -534 -540 -704c-5 -5 -12 -8 -20 -8zM295 821c0 38 4 62 14 85c5 10 15 18 28 18c16 0 30 -14 30 -30c0 -5 -1 -10 -3 -14c-7 -14 -9 -27 -9 -59c0 -17 -14 -30 -30 -30c-17 0 -30 13 -30 30zM490 832c0 4 1 9 3 13c4 10 9 41 13 65c2 14 15 26 30 26
c16 0 30 -14 30 -30c0 -2 0 -4 -1 -6c-4 -24 -10 -62 -17 -79c-5 -12 -16 -19 -28 -19c-17 0 -30 13 -30 30z" />
    <glyph glyph-name="Ygrave.ss02" 
d="M95 -36c-17 0 -30 13 -30 30c0 10 4 18 11 23c64 57 131 129 197 210c-38 125 -95 301 -144 435c-3 5 -3 8 -3 12c0 17 13 30 30 30c12 0 23 -7 28 -19c46 -122 97 -279 135 -401c107 135 208 287 284 422c5 9 15 15 26 15c17 0 30 -13 30 -30c0 -6 -1 -10 -4 -15
c-130 -232 -347 -534 -540 -704c-5 -5 -12 -8 -20 -8zM314 946c0 16 13 30 30 30c7 0 14 -3 19 -8l172 -151c7 -5 11 -13 11 -22c0 -17 -14 -30 -30 -30c-8 0 -15 2 -20 7l-172 151c-6 6 -10 14 -10 23z" />
    <glyph glyph-name="a" unicode="a" 
d="M195 -12c-84 0 -136 77 -136 194c0 191 162 377 330 377c49 0 90 -21 121 -60l13 28c4 11 15 18 27 18c17 0 30 -13 30 -30c0 -6 -1 -10 -3 -14c-54 -113 -103 -259 -103 -351c0 -53 12 -94 33 -117c5 -6 9 -13 9 -21c0 -17 -13 -30 -30 -30c-9 0 -17 3 -22 9
c-31 33 -48 85 -50 146c-69 -95 -148 -149 -219 -149zM119 182c0 -86 30 -134 80 -134c68 0 153 71 226 195c11 60 32 126 57 189c-21 44 -53 67 -93 67c-135 0 -270 -158 -270 -317z" />
    <glyph glyph-name="aacute" unicode="&#xe1;" 
d="M195 -12c-84 0 -136 77 -136 194c0 191 162 377 330 377c49 0 90 -21 121 -60l13 28c4 11 15 18 27 18c17 0 30 -13 30 -30c0 -6 -1 -10 -3 -14c-54 -113 -103 -259 -103 -351c0 -53 12 -94 33 -117c5 -6 9 -13 9 -21c0 -17 -13 -30 -30 -30c-9 0 -17 3 -22 9
c-31 33 -48 85 -50 146c-69 -95 -148 -149 -219 -149zM119 182c0 -86 30 -134 80 -134c68 0 153 71 226 195c11 60 32 126 57 189c-21 44 -53 67 -93 67c-135 0 -270 -158 -270 -317zM255 648c0 11 6 20 14 26l232 150c4 3 10 5 16 5c17 0 30 -13 30 -30
c0 -10 -5 -20 -14 -25l-231 -151c-5 -3 -10 -5 -17 -5c-16 0 -30 14 -30 30z" />
    <glyph glyph-name="abreve" unicode="&#x103;" 
d="M195 -12c-84 0 -136 77 -136 194c0 191 162 377 330 377c49 0 90 -21 121 -60l13 28c4 11 15 18 27 18c17 0 30 -13 30 -30c0 -6 -1 -10 -3 -14c-54 -113 -103 -259 -103 -351c0 -53 12 -94 33 -117c5 -6 9 -13 9 -21c0 -17 -13 -30 -30 -30c-9 0 -17 3 -22 9
c-31 33 -48 85 -50 146c-69 -95 -148 -149 -219 -149zM119 182c0 -86 30 -134 80 -134c68 0 153 71 226 195c11 60 32 126 57 189c-21 44 -53 67 -93 67c-135 0 -270 -158 -270 -317zM209 786c0 17 13 30 30 30c15 0 29 -13 30 -28c4 -52 55 -89 127 -89
c73 0 138 40 163 100c4 10 15 19 28 19c17 0 30 -13 30 -30c0 -4 -1 -8 -3 -12c-34 -83 -121 -137 -218 -137c-102 0 -182 59 -187 147z" />
    <glyph glyph-name="acircumflex" unicode="&#xe2;" 
d="M195 -12c-84 0 -136 77 -136 194c0 191 162 377 330 377c49 0 90 -21 121 -60l13 28c4 11 15 18 27 18c17 0 30 -13 30 -30c0 -6 -1 -10 -3 -14c-54 -113 -103 -259 -103 -351c0 -53 12 -94 33 -117c5 -6 9 -13 9 -21c0 -17 -13 -30 -30 -30c-9 0 -17 3 -22 9
c-31 33 -48 85 -50 146c-69 -95 -148 -149 -219 -149zM119 182c0 -86 30 -134 80 -134c68 0 153 71 226 195c11 60 32 126 57 189c-21 44 -53 67 -93 67c-135 0 -270 -158 -270 -317zM176 662c0 11 5 20 14 25c74 48 147 92 219 132c4 3 9 4 15 4s12 -3 18 -6
c61 -46 111 -90 151 -135c4 -6 7 -12 7 -20c0 -17 -13 -30 -30 -30c-9 0 -18 3 -23 10c-33 38 -74 76 -126 115c-67 -37 -132 -77 -198 -120c-5 -3 -11 -5 -17 -5c-17 0 -30 13 -30 30z" />
    <glyph glyph-name="adieresis" unicode="&#xe4;" 
d="M195 -12c-84 0 -136 77 -136 194c0 191 162 377 330 377c49 0 90 -21 121 -60l13 28c4 11 15 18 27 18c17 0 30 -13 30 -30c0 -6 -1 -10 -3 -14c-54 -113 -103 -259 -103 -351c0 -53 12 -94 33 -117c5 -6 9 -13 9 -21c0 -17 -13 -30 -30 -30c-9 0 -17 3 -22 9
c-31 33 -48 85 -50 146c-69 -95 -148 -149 -219 -149zM119 182c0 -86 30 -134 80 -134c68 0 153 71 226 195c11 60 32 126 57 189c-21 44 -53 67 -93 67c-135 0 -270 -158 -270 -317zM264 668c0 38 4 62 14 85c5 10 15 18 28 18c16 0 30 -14 30 -30c0 -5 -1 -10 -3 -14
c-7 -14 -9 -27 -9 -59c0 -17 -14 -30 -30 -30c-17 0 -30 13 -30 30zM459 679c0 4 1 9 3 13c4 10 9 41 13 65c2 14 15 26 30 26c16 0 30 -14 30 -30c0 -2 0 -4 -1 -6c-4 -24 -10 -62 -17 -79c-5 -12 -16 -19 -28 -19c-17 0 -30 13 -30 30z" />
    <glyph glyph-name="agrave" unicode="&#xe0;" 
d="M195 -12c-84 0 -136 77 -136 194c0 191 162 377 330 377c49 0 90 -21 121 -60l13 28c4 11 15 18 27 18c17 0 30 -13 30 -30c0 -6 -1 -10 -3 -14c-54 -113 -103 -259 -103 -351c0 -53 12 -94 33 -117c5 -6 9 -13 9 -21c0 -17 -13 -30 -30 -30c-9 0 -17 3 -22 9
c-31 33 -48 85 -50 146c-69 -95 -148 -149 -219 -149zM119 182c0 -86 30 -134 80 -134c68 0 153 71 226 195c11 60 32 126 57 189c-21 44 -53 67 -93 67c-135 0 -270 -158 -270 -317zM283 793c0 16 13 30 30 30c7 0 14 -3 19 -8l172 -151c7 -5 11 -13 11 -22
c0 -17 -14 -30 -30 -30c-8 0 -15 2 -20 7l-172 151c-6 6 -10 14 -10 23z" />
    <glyph glyph-name="amacron" unicode="&#x101;" 
d="M195 -12c-84 0 -136 77 -136 194c0 191 162 377 330 377c49 0 90 -21 121 -60l13 28c4 11 15 18 27 18c17 0 30 -13 30 -30c0 -6 -1 -10 -3 -14c-54 -113 -103 -259 -103 -351c0 -53 12 -94 33 -117c5 -6 9 -13 9 -21c0 -17 -13 -30 -30 -30c-9 0 -17 3 -22 9
c-31 33 -48 85 -50 146c-69 -95 -148 -149 -219 -149zM119 182c0 -86 30 -134 80 -134c68 0 153 71 226 195c11 60 32 126 57 189c-21 44 -53 67 -93 67c-135 0 -270 -158 -270 -317zM173 678c0 15 11 28 26 29c111 16 294 23 384 23c16 0 30 -14 30 -30
c0 -17 -14 -30 -30 -30c-89 0 -268 -7 -376 -22h-4c-17 0 -30 13 -30 30z" />
    <glyph glyph-name="aogonek" unicode="&#x105;" 
d="M195 -12c-84 0 -136 77 -136 194c0 191 162 377 330 377c49 0 90 -21 121 -60l13 28c4 11 15 18 27 18c17 0 30 -13 30 -30c0 -6 -1 -10 -3 -14c-54 -113 -103 -259 -103 -351c0 -53 12 -94 33 -117c5 -6 9 -13 9 -21c0 -11 -5 -20 -14 -25c-1 -1 -3 -2 -4 -3
c-76 -34 -135 -84 -135 -117c0 -19 16 -32 39 -32c29 0 68 15 97 37c6 4 12 6 18 6c17 0 30 -13 30 -30c0 -10 -5 -19 -12 -24c-40 -30 -94 -49 -136 -49c-54 0 -96 34 -96 82c0 54 58 111 145 155c-21 32 -32 76 -34 125c-69 -95 -148 -149 -219 -149zM119 182
c0 -86 30 -134 80 -134c68 0 153 71 226 195c11 60 32 126 57 189c-21 44 -53 67 -93 67c-135 0 -270 -158 -270 -317z" />
    <glyph glyph-name="aring" unicode="&#xe5;" 
d="M195 -12c-84 0 -136 77 -136 194c0 191 162 377 330 377c49 0 90 -21 121 -60l13 28c4 11 15 18 27 18c17 0 30 -13 30 -30c0 -6 -1 -10 -3 -14c-54 -113 -103 -259 -103 -351c0 -53 12 -94 33 -117c5 -6 9 -13 9 -21c0 -17 -13 -30 -30 -30c-9 0 -17 3 -22 9
c-31 33 -48 85 -50 146c-69 -95 -148 -149 -219 -149zM119 182c0 -86 30 -134 80 -134c68 0 153 71 226 195c11 60 32 126 57 189c-21 44 -53 67 -93 67c-135 0 -270 -158 -270 -317zM269 746c0 80 74 154 150 154c66 0 126 -60 126 -128c0 -70 -73 -142 -143 -142
c-79 0 -133 45 -133 116zM316 746c0 -40 29 -69 86 -69c44 0 97 49 97 95c0 42 -37 81 -80 81c-50 0 -103 -53 -103 -107z" />
    <glyph glyph-name="aringacute" unicode="&#x1fb;" 
d="M195 -12c-84 0 -136 77 -136 194c0 191 162 377 330 377c49 0 90 -21 121 -60l13 28c4 11 15 18 27 18c17 0 30 -13 30 -30c0 -6 -1 -10 -3 -14c-54 -113 -103 -259 -103 -351c0 -53 12 -94 33 -117c5 -6 9 -13 9 -21c0 -17 -13 -30 -30 -30c-9 0 -17 3 -22 9
c-31 33 -48 85 -50 146c-69 -95 -148 -149 -219 -149zM119 182c0 -86 30 -134 80 -134c68 0 153 71 226 195c11 60 32 126 57 189c-21 44 -53 67 -93 67c-135 0 -270 -158 -270 -317zM269 746c0 80 74 154 150 154c22 0 43 -7 62 -18l196 127c5 4 11 6 17 6
c17 0 30 -13 30 -30c0 -11 -6 -21 -15 -25l-184 -121c12 -20 20 -43 20 -67c0 -70 -73 -142 -143 -142c-79 0 -133 45 -133 116zM316 746c0 -40 29 -69 86 -69c44 0 97 49 97 95c0 43 -38 81 -80 81c-50 0 -103 -53 -103 -107z" />
    <glyph glyph-name="atilde" unicode="&#xe3;" 
d="M195 -12c-84 0 -136 77 -136 194c0 191 162 377 330 377c49 0 90 -21 121 -60l13 28c4 11 15 18 27 18c17 0 30 -13 30 -30c0 -6 -1 -10 -3 -14c-54 -113 -103 -259 -103 -351c0 -53 12 -94 33 -117c5 -6 9 -13 9 -21c0 -17 -13 -30 -30 -30c-9 0 -17 3 -22 9
c-31 33 -48 85 -50 146c-69 -95 -148 -149 -219 -149zM119 182c0 -86 30 -134 80 -134c68 0 153 71 226 195c11 60 32 126 57 189c-21 44 -53 67 -93 67c-135 0 -270 -158 -270 -317zM145 661c0 4 0 8 2 11c31 80 100 136 172 136c54 0 83 -30 111 -67c21 -26 34 -42 65 -42
c40 0 82 39 102 98c4 12 15 21 29 21c16 0 30 -14 30 -30c0 -4 -1 -7 -2 -11c-28 -82 -91 -138 -159 -138c-55 0 -84 29 -112 66c-21 27 -34 43 -64 43c-46 0 -94 -40 -116 -98c-4 -11 -15 -19 -28 -19c-17 0 -30 13 -30 30z" />
    <glyph glyph-name="ae" unicode="&#xe6;" 
d="M399 -9c-61 0 -100 34 -118 97c-51 -63 -112 -100 -170 -100c-75 0 -119 52 -119 136c0 105 83 190 188 190c39 0 74 -9 104 -27c15 74 21 98 21 123c0 54 -21 80 -64 80c-30 0 -68 -13 -109 -41c-5 -3 -11 -6 -18 -6c-17 0 -30 13 -30 30c0 11 6 20 14 25
c51 34 100 52 143 52c60 0 100 -34 112 -94c42 63 96 106 157 106c67 0 113 -53 113 -125c0 -54 -19 -85 -74 -121c-56 -38 -142 -78 -223 -107c-1 -13 -2 -25 -2 -37c0 -86 26 -121 75 -121c37 0 72 19 118 67c5 6 13 9 21 9c17 0 30 -13 30 -30c0 -8 -3 -15 -8 -21
c-56 -58 -106 -85 -161 -85zM52 124c0 -51 21 -76 59 -76c51 0 112 45 160 120v4c0 18 1 37 3 56c-26 22 -56 33 -94 33c-72 0 -128 -60 -128 -137zM336 272c66 26 134 61 180 92c37 26 47 42 47 74c0 38 -22 64 -54 64c-82 0 -147 -115 -173 -230z" />
    <glyph glyph-name="aeacute" unicode="&#x1fd;" 
d="M399 -9c-61 0 -100 34 -118 97c-51 -63 -112 -100 -170 -100c-75 0 -119 52 -119 136c0 105 83 190 188 190c39 0 74 -9 104 -27c15 74 21 98 21 123c0 54 -21 80 -64 80c-30 0 -68 -13 -109 -41c-5 -3 -11 -6 -18 -6c-17 0 -30 13 -30 30c0 11 6 20 14 25
c51 34 100 52 143 52c60 0 100 -34 112 -94c42 63 96 106 157 106c67 0 113 -53 113 -125c0 -54 -19 -85 -74 -121c-56 -38 -142 -78 -223 -107c-1 -13 -2 -25 -2 -37c0 -86 26 -121 75 -121c37 0 72 19 118 67c5 6 13 9 21 9c17 0 30 -13 30 -30c0 -8 -3 -15 -8 -21
c-56 -58 -106 -85 -161 -85zM52 124c0 -51 21 -76 59 -76c51 0 112 45 160 120v4c0 18 1 37 3 56c-26 22 -56 33 -94 33c-72 0 -128 -60 -128 -137zM255 648c0 11 6 20 14 26l232 150c4 3 10 5 16 5c17 0 30 -13 30 -30c0 -10 -5 -20 -14 -25l-231 -151c-5 -3 -10 -5 -17 -5
c-16 0 -30 14 -30 30zM336 272c66 26 134 61 180 92c37 26 47 42 47 74c0 38 -22 64 -54 64c-82 0 -147 -115 -173 -230z" />
    <glyph glyph-name="b" unicode="b" 
d="M229 -18c-46 0 -92 11 -129 31c-7 -15 -16 -28 -26 -39c-5 -7 -14 -11 -23 -11c-16 0 -30 14 -30 30c0 8 3 15 8 20c23 27 38 64 51 125c3 13 15 84 28 160c18 103 41 229 46 258c22 109 44 187 67 238c4 10 15 18 27 18c17 0 30 -14 30 -30c0 -5 -1 -10 -3 -14
c-21 -46 -41 -120 -62 -223l-10 -53c58 45 111 68 159 68c112 0 188 -91 188 -225c0 -199 -140 -353 -321 -353zM124 69c28 -17 66 -27 105 -27c147 0 261 126 261 293c0 102 -51 165 -128 165c-47 0 -105 -30 -174 -92l-21 -120c-16 -92 -26 -148 -28 -162
c-5 -21 -10 -40 -15 -57z" />
    <glyph glyph-name="c" unicode="c" 
d="M269 -16c-127 0 -206 84 -206 220c0 175 164 358 322 358c62 0 124 -25 183 -73c7 -5 12 -14 12 -23c0 -17 -14 -30 -30 -30c-7 0 -14 2 -19 6c-49 40 -98 60 -146 60c-124 0 -262 -156 -262 -298c0 -103 52 -160 146 -160c64 0 135 24 210 96c6 5 13 8 21 8
c17 0 30 -13 30 -30c0 -9 -4 -16 -10 -22c-86 -82 -173 -112 -251 -112z" />
    <glyph glyph-name="cacute" unicode="&#x107;" 
d="M269 -16c-127 0 -206 84 -206 220c0 175 164 358 322 358c62 0 124 -25 183 -73c7 -5 12 -14 12 -23c0 -17 -14 -30 -30 -30c-7 0 -14 2 -19 6c-49 40 -98 60 -146 60c-124 0 -262 -156 -262 -298c0 -103 52 -160 146 -160c64 0 135 24 210 96c6 5 13 8 21 8
c17 0 30 -13 30 -30c0 -9 -4 -16 -10 -22c-86 -82 -173 -112 -251 -112zM255 648c0 11 6 20 14 26l232 150c4 3 10 5 16 5c17 0 30 -13 30 -30c0 -10 -5 -20 -14 -25l-231 -151c-5 -3 -10 -5 -17 -5c-16 0 -30 14 -30 30z" />
    <glyph glyph-name="ccaron" unicode="&#x10d;" 
d="M269 -16c-127 0 -206 84 -206 220c0 175 164 358 322 358c62 0 124 -25 183 -73c7 -5 12 -14 12 -23c0 -17 -14 -30 -30 -30c-7 0 -14 2 -19 6c-49 40 -98 60 -146 60c-124 0 -262 -156 -262 -298c0 -103 52 -160 146 -160c64 0 135 24 210 96c6 5 13 8 21 8
c17 0 30 -13 30 -30c0 -9 -4 -16 -10 -22c-86 -82 -173 -112 -251 -112zM202 793c0 17 13 30 30 30c9 0 17 -4 23 -10c33 -39 73 -76 125 -115c67 36 132 76 199 119c5 4 11 6 17 6c17 0 30 -13 30 -30c0 -11 -6 -20 -15 -25c-74 -49 -146 -93 -218 -133
c-5 -2 -10 -3 -15 -3c-7 0 -13 2 -18 6c-62 45 -112 90 -151 135c-4 5 -7 12 -7 20z" />
    <glyph glyph-name="ccedilla" unicode="&#xe7;" 
d="M152 -240c-8 0 -17 0 -24 1c-15 1 -27 14 -27 30s13 30 30 30c1 0 3 0 4 -1h17c78 0 137 41 137 94c0 27 -20 46 -59 53c-13 2 -23 12 -25 25c-89 24 -142 100 -142 212c0 175 164 358 322 358c62 0 124 -25 183 -73c7 -5 12 -14 12 -23c0 -17 -14 -30 -30 -30
c-7 0 -14 2 -19 6c-49 40 -98 60 -146 60c-124 0 -262 -156 -262 -298c0 -103 52 -160 146 -160c64 0 135 24 210 96c6 5 13 8 21 8c17 0 30 -13 30 -30c0 -9 -4 -16 -10 -22c-68 -65 -137 -97 -201 -108c19 -19 30 -44 30 -74c0 -89 -86 -154 -197 -154z" />
    <glyph glyph-name="ccircumflex" unicode="&#x109;" 
d="M269 -16c-127 0 -206 84 -206 220c0 175 164 358 322 358c62 0 124 -25 183 -73c7 -5 12 -14 12 -23c0 -17 -14 -30 -30 -30c-7 0 -14 2 -19 6c-49 40 -98 60 -146 60c-124 0 -262 -156 -262 -298c0 -103 52 -160 146 -160c64 0 135 24 210 96c6 5 13 8 21 8
c17 0 30 -13 30 -30c0 -9 -4 -16 -10 -22c-86 -82 -173 -112 -251 -112zM176 662c0 11 5 20 14 25c74 48 147 92 219 132c4 3 9 4 15 4s12 -3 18 -6c61 -46 111 -90 151 -135c4 -6 7 -12 7 -20c0 -17 -13 -30 -30 -30c-9 0 -18 3 -23 10c-33 38 -74 76 -126 115
c-67 -37 -132 -77 -198 -120c-5 -3 -11 -5 -17 -5c-17 0 -30 13 -30 30z" />
    <glyph glyph-name="cdotaccent" unicode="&#x10b;" 
d="M269 -16c-127 0 -206 84 -206 220c0 175 164 358 322 358c62 0 124 -25 183 -73c7 -5 12 -14 12 -23c0 -17 -14 -30 -30 -30c-7 0 -14 2 -19 6c-49 40 -98 60 -146 60c-124 0 -262 -156 -262 -298c0 -103 52 -160 146 -160c64 0 135 24 210 96c6 5 13 8 21 8
c17 0 30 -13 30 -30c0 -9 -4 -16 -10 -22c-86 -82 -173 -112 -251 -112zM344 689c5 73 20 115 68 115c27 0 47 -21 47 -48s-27 -69 -58 -96c-6 -5 -13 -7 -20 -7c-17 0 -37 16 -37 36z" />
    <glyph glyph-name="d" unicode="d" 
d="M230 -12c-103 0 -170 69 -170 173c0 178 150 398 314 398c47 0 96 -15 134 -41c29 107 61 209 85 277c4 12 15 21 28 21c17 0 30 -14 30 -30c0 -4 0 -8 -2 -11c-59 -166 -159 -523 -159 -676c0 -43 10 -85 22 -96c4 -5 6 -11 6 -18c0 -17 -13 -30 -30 -30
c-10 0 -19 5 -24 13c-17 19 -29 58 -33 103c-66 -56 -131 -83 -201 -83zM120 161c0 -71 41 -113 113 -113c68 0 130 29 199 92c6 83 30 200 60 316c-31 26 -75 43 -118 43c-130 0 -254 -190 -254 -338z" />
    <glyph glyph-name="eth" unicode="&#xf0;" 
d="M249 -12c-122 0 -193 75 -193 205c0 183 153 346 327 346c38 0 80 -18 110 -43c-18 69 -53 129 -104 177c-60 -27 -119 -55 -161 -76c-4 -2 -8 -2 -12 -2c-15 0 -27 11 -27 26c0 11 7 20 17 25c36 18 86 41 137 65c-24 17 -51 32 -81 44c-10 4 -19 15 -19 28
c0 17 13 30 30 30c4 0 8 -1 12 -3c45 -19 85 -43 120 -71c58 26 114 51 152 67c4 1 7 2 10 2c15 0 27 -12 27 -27c0 -12 -8 -22 -18 -25c-33 -14 -79 -34 -128 -56c77 -83 119 -192 119 -317c0 -197 -136 -395 -318 -395zM116 193c0 -96 44 -145 133 -145
c138 0 258 156 258 335c0 13 -1 26 -2 38c-27 36 -78 61 -122 61c-141 0 -267 -136 -267 -289z" />
    <glyph glyph-name="dcaron" unicode="&#x10f;" 
d="M167 -11c-86 0 -137 73 -137 184c0 162 132 383 277 383c38 0 75 -14 106 -36c27 106 57 207 81 277c3 13 15 23 29 23c17 0 30 -13 30 -30c0 -3 -1 -6 -2 -10c-56 -164 -145 -494 -149 -651c-1 -39 9 -77 23 -90c6 -6 10 -14 10 -24c0 -17 -13 -30 -30 -30
c-7 0 -14 3 -19 7c-18 15 -31 43 -38 76c-60 -53 -118 -79 -181 -79zM90 173c0 -81 29 -124 79 -124c56 0 110 29 174 97c4 80 26 193 53 308c-22 26 -56 42 -89 42c-109 0 -217 -192 -217 -323zM528 459c0 5 1 10 3 13c45 58 72 125 72 172c0 35 -14 44 -14 52
c0 15 12 27 27 27c12 0 22 -9 26 -20c10 -17 14 -37 14 -59c0 -57 -31 -133 -78 -198c-5 -9 -14 -14 -24 -14c-15 0 -26 12 -26 27z" />
    <glyph glyph-name="dcroat" unicode="&#x111;" 
d="M230 -12c-103 0 -170 69 -170 173c0 178 150 398 314 398c47 0 96 -15 134 -41c15 54 30 106 44 154c-57 -5 -116 -11 -174 -19h-4c-15 0 -27 12 -27 27c0 13 11 24 24 26c60 9 132 16 199 20c8 26 16 49 23 69c4 12 15 21 28 21c17 0 30 -14 30 -30c0 -4 0 -8 -2 -11
l-15 -45c12 0 23 1 34 1c15 0 26 -11 26 -27c0 -14 -11 -26 -26 -26l-52 -2c-57 -182 -126 -450 -126 -577c0 -43 10 -85 22 -96c4 -5 6 -11 6 -18c0 -17 -13 -30 -30 -30c-10 0 -19 5 -24 13c-17 19 -29 58 -33 103c-66 -56 -131 -83 -201 -83zM120 161
c0 -71 41 -113 113 -113c68 0 130 29 199 92c6 83 30 200 60 316c-31 26 -75 43 -118 43c-130 0 -254 -190 -254 -338z" />
    <glyph glyph-name="e" unicode="e" 
d="M279 -12c-133 0 -205 76 -205 214c0 188 151 356 322 356c90 0 171 -57 171 -123c0 -53 -41 -86 -93 -116c-80 -50 -215 -108 -338 -149c8 -83 55 -121 143 -121c68 0 127 24 197 78c6 4 12 6 19 6c17 0 30 -13 30 -30c0 -9 -5 -18 -12 -24c-80 -62 -153 -91 -234 -91z
M136 235c112 37 235 91 309 136c33 20 60 39 60 65c0 30 -53 62 -109 62c-128 0 -245 -121 -260 -263z" />
    <glyph glyph-name="eacute" unicode="&#xe9;" 
d="M279 -12c-133 0 -205 76 -205 214c0 188 151 356 322 356c90 0 171 -57 171 -123c0 -53 -41 -86 -93 -116c-80 -50 -215 -108 -338 -149c8 -83 55 -121 143 -121c68 0 127 24 197 78c6 4 12 6 19 6c17 0 30 -13 30 -30c0 -9 -5 -18 -12 -24c-80 -62 -153 -91 -234 -91z
M136 235c112 37 235 91 309 136c33 20 60 39 60 65c0 30 -53 62 -109 62c-128 0 -245 -121 -260 -263zM255 648c0 11 6 20 14 26l232 150c4 3 10 5 16 5c17 0 30 -13 30 -30c0 -10 -5 -20 -14 -25l-231 -151c-5 -3 -10 -5 -17 -5c-16 0 -30 14 -30 30z" />
    <glyph glyph-name="ebreve" unicode="&#x115;" 
d="M279 -12c-133 0 -205 76 -205 214c0 188 151 356 322 356c90 0 171 -57 171 -123c0 -53 -41 -86 -93 -116c-80 -50 -215 -108 -338 -149c8 -83 55 -121 143 -121c68 0 127 24 197 78c6 4 12 6 19 6c17 0 30 -13 30 -30c0 -9 -5 -18 -12 -24c-80 -62 -153 -91 -234 -91z
M136 235c112 37 235 91 309 136c33 20 60 39 60 65c0 30 -53 62 -109 62c-128 0 -245 -121 -260 -263zM209 786c0 17 13 30 30 30c15 0 29 -13 30 -28c4 -52 55 -89 127 -89c73 0 138 40 163 100c4 10 15 19 28 19c17 0 30 -13 30 -30c0 -4 -1 -8 -3 -12
c-34 -83 -121 -137 -218 -137c-102 0 -182 59 -187 147z" />
    <glyph glyph-name="ecaron" unicode="&#x11b;" 
d="M279 -12c-133 0 -205 76 -205 214c0 188 151 356 322 356c90 0 171 -57 171 -123c0 -53 -41 -86 -93 -116c-80 -50 -215 -108 -338 -149c8 -83 55 -121 143 -121c68 0 127 24 197 78c6 4 12 6 19 6c17 0 30 -13 30 -30c0 -9 -5 -18 -12 -24c-80 -62 -153 -91 -234 -91z
M136 235c112 37 235 91 309 136c33 20 60 39 60 65c0 30 -53 62 -109 62c-128 0 -245 -121 -260 -263zM202 793c0 17 13 30 30 30c9 0 17 -4 23 -10c33 -39 73 -76 125 -115c67 36 132 76 199 119c5 4 11 6 17 6c17 0 30 -13 30 -30c0 -11 -6 -20 -15 -25
c-74 -49 -146 -93 -218 -133c-5 -2 -10 -3 -15 -3c-7 0 -13 2 -18 6c-62 45 -112 90 -151 135c-4 5 -7 12 -7 20z" />
    <glyph glyph-name="ecircumflex" unicode="&#xea;" 
d="M279 -12c-133 0 -205 76 -205 214c0 188 151 356 322 356c90 0 171 -57 171 -123c0 -53 -41 -86 -93 -116c-80 -50 -215 -108 -338 -149c8 -83 55 -121 143 -121c68 0 127 24 197 78c6 4 12 6 19 6c17 0 30 -13 30 -30c0 -9 -5 -18 -12 -24c-80 -62 -153 -91 -234 -91z
M136 235c112 37 235 91 309 136c33 20 60 39 60 65c0 30 -53 62 -109 62c-128 0 -245 -121 -260 -263zM176 662c0 11 5 20 14 25c74 48 147 92 219 132c4 3 9 4 15 4s12 -3 18 -6c61 -46 111 -90 151 -135c4 -6 7 -12 7 -20c0 -17 -13 -30 -30 -30c-9 0 -18 3 -23 10
c-33 38 -74 76 -126 115c-67 -37 -132 -77 -198 -120c-5 -3 -11 -5 -17 -5c-17 0 -30 13 -30 30z" />
    <glyph glyph-name="edieresis" unicode="&#xeb;" 
d="M279 -12c-133 0 -205 76 -205 214c0 188 151 356 322 356c90 0 171 -57 171 -123c0 -53 -41 -86 -93 -116c-80 -50 -215 -108 -338 -149c8 -83 55 -121 143 -121c68 0 127 24 197 78c6 4 12 6 19 6c17 0 30 -13 30 -30c0 -9 -5 -18 -12 -24c-80 -62 -153 -91 -234 -91z
M136 235c112 37 235 91 309 136c33 20 60 39 60 65c0 30 -53 62 -109 62c-128 0 -245 -121 -260 -263zM264 668c0 38 4 62 14 85c5 10 15 18 28 18c16 0 30 -14 30 -30c0 -5 -1 -10 -3 -14c-7 -14 -9 -27 -9 -59c0 -17 -14 -30 -30 -30c-17 0 -30 13 -30 30zM459 679
c0 4 1 9 3 13c4 10 9 41 13 65c2 14 15 26 30 26c16 0 30 -14 30 -30c0 -2 0 -4 -1 -6c-4 -24 -10 -62 -17 -79c-5 -12 -16 -19 -28 -19c-17 0 -30 13 -30 30z" />
    <glyph glyph-name="edotaccent" unicode="&#x117;" 
d="M279 -12c-133 0 -205 76 -205 214c0 188 151 356 322 356c90 0 171 -57 171 -123c0 -53 -41 -86 -93 -116c-80 -50 -215 -108 -338 -149c8 -83 55 -121 143 -121c68 0 127 24 197 78c6 4 12 6 19 6c17 0 30 -13 30 -30c0 -9 -5 -18 -12 -24c-80 -62 -153 -91 -234 -91z
M136 235c112 37 235 91 309 136c33 20 60 39 60 65c0 30 -53 62 -109 62c-128 0 -245 -121 -260 -263zM344 689c5 73 20 115 68 115c27 0 47 -21 47 -48s-27 -69 -58 -96c-6 -5 -13 -7 -20 -7c-17 0 -37 16 -37 36z" />
    <glyph glyph-name="egrave" unicode="&#xe8;" 
d="M279 -12c-133 0 -205 76 -205 214c0 188 151 356 322 356c90 0 171 -57 171 -123c0 -53 -41 -86 -93 -116c-80 -50 -215 -108 -338 -149c8 -83 55 -121 143 -121c68 0 127 24 197 78c6 4 12 6 19 6c17 0 30 -13 30 -30c0 -9 -5 -18 -12 -24c-80 -62 -153 -91 -234 -91z
M136 235c112 37 235 91 309 136c33 20 60 39 60 65c0 30 -53 62 -109 62c-128 0 -245 -121 -260 -263zM283 793c0 16 13 30 30 30c7 0 14 -3 19 -8l172 -151c7 -5 11 -13 11 -22c0 -17 -14 -30 -30 -30c-8 0 -15 2 -20 7l-172 151c-6 6 -10 14 -10 23z" />
    <glyph glyph-name="emacron" unicode="&#x113;" 
d="M279 -12c-133 0 -205 76 -205 214c0 188 151 356 322 356c90 0 171 -57 171 -123c0 -53 -41 -86 -93 -116c-80 -50 -215 -108 -338 -149c8 -83 55 -121 143 -121c68 0 127 24 197 78c6 4 12 6 19 6c17 0 30 -13 30 -30c0 -9 -5 -18 -12 -24c-80 -62 -153 -91 -234 -91z
M136 235c112 37 235 91 309 136c33 20 60 39 60 65c0 30 -53 62 -109 62c-128 0 -245 -121 -260 -263zM173 678c0 15 11 28 26 29c111 16 294 23 384 23c16 0 30 -14 30 -30c0 -17 -14 -30 -30 -30c-89 0 -268 -7 -376 -22h-4c-17 0 -30 13 -30 30z" />
    <glyph glyph-name="eogonek" unicode="&#x119;" 
d="M308 -192c-54 0 -96 34 -96 82c0 33 22 67 58 98c-127 4 -196 79 -196 214c0 188 151 356 322 356c90 0 171 -57 171 -123c0 -53 -41 -86 -93 -116c-80 -50 -215 -108 -338 -149c8 -83 55 -121 143 -121c68 0 127 24 197 78c6 4 12 6 19 6c17 0 30 -13 30 -30
c0 -9 -5 -18 -12 -24c-45 -35 -88 -59 -131 -74c-63 -33 -110 -76 -110 -105c0 -19 16 -32 39 -32c29 0 68 15 97 37c6 4 12 6 18 6c17 0 30 -13 30 -30c0 -10 -5 -19 -12 -24c-40 -30 -94 -49 -136 -49zM136 235c112 37 235 91 309 136c33 20 60 39 60 65
c0 30 -53 62 -109 62c-128 0 -245 -121 -260 -263z" />
    <glyph glyph-name="uni0259" unicode="&#x259;" 
d="M341 559c133 0 205 -76 205 -214c0 -188 -151 -356 -322 -356c-90 0 -171 57 -171 123c0 53 41 86 93 116c80 50 215 108 338 149c-8 83 -55 121 -143 121c-68 0 -127 -24 -197 -78c-6 -4 -12 -6 -19 -6c-17 0 -30 13 -30 30c0 9 5 18 12 24c80 62 153 91 234 91z
M115 111c0 -30 53 -62 109 -62c128 0 245 121 260 263c-112 -37 -235 -91 -309 -136c-33 -20 -60 -39 -60 -65z" />
    <glyph glyph-name="f" unicode="f" 
d="M88 -212c-59 0 -110 24 -140 68c-4 5 -6 11 -6 18c0 17 13 30 30 30c10 0 19 -5 23 -12c20 -28 51 -44 93 -44c84 0 125 47 154 192c14 72 28 294 41 434c-18 -1 -37 -1 -55 -1c-30 0 -61 1 -90 2c-16 1 -29 14 -29 30c0 17 13 30 30 30c5 0 56 -2 89 -2c21 0 41 0 62 1
l5 32c35 178 101 244 244 244c31 0 65 -4 92 -10c14 -3 24 -15 24 -30c0 -17 -13 -30 -30 -30c-3 0 -6 1 -8 1c-23 6 -52 9 -78 9c-111 0 -155 -44 -184 -196l-3 -17c79 5 156 14 224 27h6c17 0 30 -13 30 -30c0 -15 -11 -27 -24 -30c-74 -14 -158 -23 -243 -28
c-15 -137 -30 -378 -44 -448c-34 -170 -95 -240 -213 -240z" />
    <glyph glyph-name="g" unicode="g" 
d="M194 -213c-81 0 -154 24 -201 67c-6 5 -9 13 -9 22c0 17 13 30 30 30c8 0 15 -3 20 -8c36 -33 93 -51 160 -51c131 0 201 65 231 219l10 57c-69 -61 -139 -90 -214 -90c-105 0 -164 57 -164 161c0 188 139 362 295 362c54 0 105 -21 150 -60c6 19 14 37 22 53
c5 10 15 17 27 17c17 0 30 -13 30 -30c0 -5 -1 -10 -3 -14c-13 -26 -24 -56 -29 -83c-7 -32 -17 -95 -27 -162c-14 -82 -28 -172 -38 -223c-36 -180 -130 -267 -290 -267zM117 194c0 -69 32 -101 107 -101c77 0 147 35 225 113l13 80c9 55 18 107 24 142
c-41 45 -86 68 -134 68c-121 0 -235 -146 -235 -302z" />
    <glyph glyph-name="gbreve" unicode="&#x11f;" 
d="M194 -213c-81 0 -154 24 -201 67c-6 5 -9 13 -9 22c0 17 13 30 30 30c8 0 15 -3 20 -8c36 -33 93 -51 160 -51c131 0 201 65 231 219l10 57c-69 -61 -139 -90 -214 -90c-105 0 -164 57 -164 161c0 188 139 362 295 362c54 0 105 -21 150 -60c6 19 14 37 22 53
c5 10 15 17 27 17c17 0 30 -13 30 -30c0 -5 -1 -10 -3 -14c-13 -26 -24 -56 -29 -83c-7 -32 -17 -95 -27 -162c-14 -82 -28 -172 -38 -223c-36 -180 -130 -267 -290 -267zM117 194c0 -69 32 -101 107 -101c77 0 147 35 225 113l13 80c9 55 18 107 24 142
c-41 45 -86 68 -134 68c-121 0 -235 -146 -235 -302zM209 786c0 17 13 30 30 30c15 0 29 -13 30 -28c4 -52 55 -89 127 -89c73 0 138 40 163 100c4 10 15 19 28 19c17 0 30 -13 30 -30c0 -4 -1 -8 -3 -12c-34 -83 -121 -137 -218 -137c-102 0 -182 59 -187 147z" />
    <glyph glyph-name="gcircumflex" unicode="&#x11d;" 
d="M194 -213c-81 0 -154 24 -201 67c-6 5 -9 13 -9 22c0 17 13 30 30 30c8 0 15 -3 20 -8c36 -33 93 -51 160 -51c131 0 201 65 231 219l10 57c-69 -61 -139 -90 -214 -90c-105 0 -164 57 -164 161c0 188 139 362 295 362c54 0 105 -21 150 -60c6 19 14 37 22 53
c5 10 15 17 27 17c17 0 30 -13 30 -30c0 -5 -1 -10 -3 -14c-13 -26 -24 -56 -29 -83c-7 -32 -17 -95 -27 -162c-14 -82 -28 -172 -38 -223c-36 -180 -130 -267 -290 -267zM117 194c0 -69 32 -101 107 -101c77 0 147 35 225 113l13 80c9 55 18 107 24 142
c-41 45 -86 68 -134 68c-121 0 -235 -146 -235 -302zM176 662c0 11 5 20 14 25c74 48 147 92 219 132c4 3 9 4 15 4s12 -3 18 -6c61 -46 111 -90 151 -135c4 -6 7 -12 7 -20c0 -17 -13 -30 -30 -30c-9 0 -18 3 -23 10c-33 38 -74 76 -126 115c-67 -37 -132 -77 -198 -120
c-5 -3 -11 -5 -17 -5c-17 0 -30 13 -30 30z" />
    <glyph glyph-name="uni0123" unicode="&#x123;" 
d="M194 -213c-81 0 -154 24 -201 67c-6 5 -9 13 -9 22c0 17 13 30 30 30c8 0 15 -3 20 -8c36 -33 93 -51 160 -51c131 0 201 65 231 219l10 57c-69 -61 -139 -90 -214 -90c-105 0 -164 57 -164 161c0 188 139 362 295 362c54 0 105 -21 150 -60c6 19 14 37 22 53
c5 10 15 17 27 17c17 0 30 -13 30 -30c0 -5 -1 -10 -3 -14c-13 -26 -24 -56 -29 -83c-7 -32 -17 -95 -27 -162c-14 -82 -28 -172 -38 -223c-36 -180 -130 -267 -290 -267zM117 194c0 -69 32 -101 107 -101c77 0 147 35 225 113l13 80c9 55 18 107 24 142
c-41 45 -86 68 -134 68c-121 0 -235 -146 -235 -302zM365 634c0 6 2 12 5 17c21 35 84 112 129 153c6 4 12 7 20 7c16 0 30 -13 30 -30c0 -9 -5 -18 -11 -23c-42 -38 -99 -109 -118 -140c-5 -8 -15 -14 -25 -14c-17 0 -30 13 -30 30z" />
    <glyph glyph-name="gdotaccent" unicode="&#x121;" 
d="M194 -213c-81 0 -154 24 -201 67c-6 5 -9 13 -9 22c0 17 13 30 30 30c8 0 15 -3 20 -8c36 -33 93 -51 160 -51c131 0 201 65 231 219l10 57c-69 -61 -139 -90 -214 -90c-105 0 -164 57 -164 161c0 188 139 362 295 362c54 0 105 -21 150 -60c6 19 14 37 22 53
c5 10 15 17 27 17c17 0 30 -13 30 -30c0 -5 -1 -10 -3 -14c-13 -26 -24 -56 -29 -83c-7 -32 -17 -95 -27 -162c-14 -82 -28 -172 -38 -223c-36 -180 -130 -267 -290 -267zM117 194c0 -69 32 -101 107 -101c77 0 147 35 225 113l13 80c9 55 18 107 24 142
c-41 45 -86 68 -134 68c-121 0 -235 -146 -235 -302zM344 689c5 73 20 115 68 115c27 0 47 -21 47 -48s-27 -69 -58 -96c-6 -5 -13 -7 -20 -7c-17 0 -37 16 -37 36z" />
    <glyph glyph-name="h" unicode="h" 
d="M423 -32c-17 0 -30 13 -30 30c0 3 1 6 1 9c44 144 88 322 88 401c0 61 -17 89 -50 89c-55 0 -154 -72 -247 -182c-18 -84 -41 -176 -74 -306c-3 -14 -15 -23 -29 -23c-17 0 -30 13 -30 30c0 3 0 5 1 8c86 340 104 419 144 764c2 15 14 27 30 27c17 0 30 -13 30 -30
c0 -1 0 -3 -1 -4c-19 -163 -33 -268 -51 -369c85 91 170 145 232 145c68 0 105 -56 105 -149c0 -92 -51 -289 -89 -419c-5 -12 -16 -21 -30 -21z" />
    <glyph glyph-name="hbar" unicode="&#x127;" 
d="M423 -32c-17 0 -30 13 -30 30c0 3 1 6 1 9c44 144 88 322 88 401c0 61 -17 89 -50 89c-55 0 -154 -72 -247 -182c-18 -84 -41 -176 -74 -306c-3 -14 -15 -23 -29 -23c-17 0 -30 13 -30 30c0 3 0 5 1 8c74 292 98 392 128 633l-28 -4h-4c-15 0 -27 12 -27 27
c0 13 11 24 24 26l42 6c3 24 6 49 9 76c2 15 14 27 30 27c17 0 30 -13 30 -30c0 -1 0 -3 -1 -4l-7 -63c68 7 138 12 194 13c15 0 26 -11 26 -27c0 -14 -11 -26 -26 -26c-65 -2 -133 -7 -201 -14c-12 -101 -23 -178 -37 -252c85 91 170 145 232 145c68 0 105 -56 105 -149
c0 -92 -51 -289 -89 -419c-5 -12 -16 -21 -30 -21z" />
    <glyph glyph-name="hcircumflex" unicode="&#x125;" 
d="M423 -32c-17 0 -30 13 -30 30c0 3 1 6 1 9c44 144 88 322 88 401c0 61 -17 89 -50 89c-55 0 -154 -72 -247 -182c-18 -84 -41 -176 -74 -306c-3 -14 -15 -23 -29 -23c-17 0 -30 13 -30 30c0 3 0 5 1 8c86 340 104 419 144 764c2 15 14 27 30 27c17 0 30 -13 30 -30
c0 -1 0 -3 -1 -4c-19 -163 -33 -268 -51 -369c85 91 170 145 232 145c68 0 105 -56 105 -149c0 -92 -51 -289 -89 -419c-5 -12 -16 -21 -30 -21zM227 915c0 11 5 20 14 25c74 48 147 92 219 132c4 3 9 4 15 4s12 -3 18 -6c61 -46 111 -90 151 -135c4 -6 7 -12 7 -20
c0 -17 -13 -30 -30 -30c-9 0 -18 3 -23 10c-33 38 -74 76 -126 115c-67 -37 -132 -77 -198 -120c-5 -3 -11 -5 -17 -5c-17 0 -30 13 -30 30z" />
    <glyph glyph-name="i" unicode="i" 
d="M342 -8c-80 0 -117 34 -117 112c0 109 95 356 95 371c0 3 -2 3 -6 3c-43 0 -130 -43 -200 -96c-5 -4 -12 -7 -19 -7c-17 0 -30 13 -30 30c0 9 4 18 11 23c92 72 201 122 268 122c27 0 46 -16 46 -42c0 -28 -105 -297 -105 -401c0 -42 14 -55 57 -55c35 0 94 23 134 54
c5 3 11 5 18 5c16 0 30 -13 30 -30c0 -10 -5 -19 -13 -24c-50 -38 -122 -65 -169 -65zM337 704c5 72 23 106 67 106c27 0 47 -21 47 -48c0 -29 -30 -70 -62 -92c-4 -3 -10 -4 -15 -4c-9 0 -17 5 -22 11c-10 5 -15 14 -15 27z" />
    <glyph glyph-name="dotlessi" unicode="&#x131;" 
d="M342 -8c-80 0 -117 34 -117 112c0 109 95 356 95 371c0 3 -2 3 -6 3c-43 0 -130 -43 -200 -96c-5 -4 -12 -7 -19 -7c-17 0 -30 13 -30 30c0 9 4 18 11 23c92 72 201 122 268 122c27 0 46 -16 46 -42c0 -28 -105 -297 -105 -401c0 -42 14 -55 57 -55c35 0 94 23 134 54
c5 3 11 5 18 5c16 0 30 -13 30 -30c0 -10 -5 -19 -13 -24c-50 -38 -122 -65 -169 -65z" />
    <glyph glyph-name="iacute" unicode="&#xed;" 
d="M342 -8c-80 0 -117 34 -117 112c0 109 95 356 95 371c0 3 -2 3 -6 3c-43 0 -130 -43 -200 -96c-5 -4 -12 -7 -19 -7c-17 0 -30 13 -30 30c0 9 4 18 11 23c92 72 201 122 268 122c27 0 46 -16 46 -42c0 -28 -105 -297 -105 -401c0 -42 14 -55 57 -55c35 0 94 23 134 54
c5 3 11 5 18 5c16 0 30 -13 30 -30c0 -10 -5 -19 -13 -24c-50 -38 -122 -65 -169 -65zM255 648c0 11 6 20 14 26l232 150c4 3 10 5 16 5c17 0 30 -13 30 -30c0 -10 -5 -20 -14 -25l-231 -151c-5 -3 -10 -5 -17 -5c-16 0 -30 14 -30 30z" />
    <glyph glyph-name="ibreve" unicode="&#x12d;" 
d="M342 -8c-80 0 -117 34 -117 112c0 109 95 356 95 371c0 3 -2 3 -6 3c-43 0 -130 -43 -200 -96c-5 -4 -12 -7 -19 -7c-17 0 -30 13 -30 30c0 9 4 18 11 23c92 72 201 122 268 122c27 0 46 -16 46 -42c0 -28 -105 -297 -105 -401c0 -42 14 -55 57 -55c35 0 94 23 134 54
c5 3 11 5 18 5c16 0 30 -13 30 -30c0 -10 -5 -19 -13 -24c-50 -38 -122 -65 -169 -65zM209 786c0 17 13 30 30 30c15 0 29 -13 30 -28c4 -52 55 -89 127 -89c73 0 138 40 163 100c4 10 15 19 28 19c17 0 30 -13 30 -30c0 -4 -1 -8 -3 -12c-34 -83 -121 -137 -218 -137
c-102 0 -182 59 -187 147z" />
    <glyph glyph-name="icircumflex" unicode="&#xee;" 
d="M342 -8c-80 0 -117 34 -117 112c0 109 95 356 95 371c0 3 -2 3 -6 3c-43 0 -130 -43 -200 -96c-5 -4 -12 -7 -19 -7c-17 0 -30 13 -30 30c0 9 4 18 11 23c92 72 201 122 268 122c27 0 46 -16 46 -42c0 -28 -105 -297 -105 -401c0 -42 14 -55 57 -55c35 0 94 23 134 54
c5 3 11 5 18 5c16 0 30 -13 30 -30c0 -10 -5 -19 -13 -24c-50 -38 -122 -65 -169 -65zM176 662c0 11 5 20 14 25c74 48 147 92 219 132c4 3 9 4 15 4s12 -3 18 -6c61 -46 111 -90 151 -135c4 -6 7 -12 7 -20c0 -17 -13 -30 -30 -30c-9 0 -18 3 -23 10
c-33 38 -74 76 -126 115c-67 -37 -132 -77 -198 -120c-5 -3 -11 -5 -17 -5c-17 0 -30 13 -30 30z" />
    <glyph glyph-name="idieresis" unicode="&#xef;" 
d="M342 -8c-80 0 -117 34 -117 112c0 109 95 356 95 371c0 3 -2 3 -6 3c-43 0 -130 -43 -200 -96c-5 -4 -12 -7 -19 -7c-17 0 -30 13 -30 30c0 9 4 18 11 23c92 72 201 122 268 122c27 0 46 -16 46 -42c0 -28 -105 -297 -105 -401c0 -42 14 -55 57 -55c35 0 94 23 134 54
c5 3 11 5 18 5c16 0 30 -13 30 -30c0 -10 -5 -19 -13 -24c-50 -38 -122 -65 -169 -65zM264 668c0 38 4 62 14 85c5 10 15 18 28 18c16 0 30 -14 30 -30c0 -5 -1 -10 -3 -14c-7 -14 -9 -27 -9 -59c0 -17 -14 -30 -30 -30c-17 0 -30 13 -30 30zM459 679c0 4 1 9 3 13
c4 10 9 41 13 65c2 14 15 26 30 26c16 0 30 -14 30 -30c0 -2 0 -4 -1 -6c-4 -24 -10 -62 -17 -79c-5 -12 -16 -19 -28 -19c-17 0 -30 13 -30 30z" />
    <glyph glyph-name="igrave" unicode="&#xec;" 
d="M342 -8c-80 0 -117 34 -117 112c0 109 95 356 95 371c0 3 -2 3 -6 3c-43 0 -130 -43 -200 -96c-5 -4 -12 -7 -19 -7c-17 0 -30 13 -30 30c0 9 4 18 11 23c92 72 201 122 268 122c27 0 46 -16 46 -42c0 -28 -105 -297 -105 -401c0 -42 14 -55 57 -55c35 0 94 23 134 54
c5 3 11 5 18 5c16 0 30 -13 30 -30c0 -10 -5 -19 -13 -24c-50 -38 -122 -65 -169 -65zM283 793c0 16 13 30 30 30c7 0 14 -3 19 -8l172 -151c7 -5 11 -13 11 -22c0 -17 -14 -30 -30 -30c-8 0 -15 2 -20 7l-172 151c-6 6 -10 14 -10 23z" />
    <glyph glyph-name="ij" unicode="&#x133;" 
d="M259 -214c-52 0 -97 17 -123 48c-5 6 -8 13 -8 21c0 17 13 30 30 30c8 0 16 -4 22 -10c14 -18 43 -29 79 -29c71 0 127 71 152 200c17 82 57 371 64 482c0 16 14 28 30 28c17 0 30 -13 30 -30v-2c-7 -114 -47 -406 -65 -490c-31 -156 -108 -248 -211 -248zM66 16v2
c7 114 73 409 108 511c4 12 15 20 28 20c17 0 30 -13 30 -30c0 -3 0 -7 -2 -10c-33 -98 -97 -384 -104 -494c0 -16 -14 -29 -30 -29c-17 0 -30 13 -30 30zM192 687c0 49 15 110 67 110c27 0 47 -18 47 -45c0 -29 -26 -68 -59 -95c-5 -3 -12 -6 -18 -6c-9 0 -16 4 -21 10
c-10 4 -16 14 -16 26zM495 718c0 47 25 85 61 85c28 0 46 -19 46 -47c0 -21 -11 -49 -28 -79c-8 -13 -21 -17 -36 -17c-22 0 -34 9 -39 26c-2 8 -4 21 -4 32z" />
    <glyph glyph-name="imacron" unicode="&#x12b;" 
d="M342 -8c-80 0 -117 34 -117 112c0 109 95 356 95 371c0 3 -2 3 -6 3c-43 0 -130 -43 -200 -96c-5 -4 -12 -7 -19 -7c-17 0 -30 13 -30 30c0 9 4 18 11 23c92 72 201 122 268 122c27 0 46 -16 46 -42c0 -28 -105 -297 -105 -401c0 -42 14 -55 57 -55c35 0 94 23 134 54
c5 3 11 5 18 5c16 0 30 -13 30 -30c0 -10 -5 -19 -13 -24c-50 -38 -122 -65 -169 -65zM173 678c0 15 11 28 26 29c111 16 294 23 384 23c16 0 30 -14 30 -30c0 -17 -14 -30 -30 -30c-89 0 -268 -7 -376 -22h-4c-17 0 -30 13 -30 30z" />
    <glyph glyph-name="iogonek" unicode="&#x12f;" 
d="M374 666c-9 0 -17 5 -22 11c-10 5 -15 14 -15 27c5 72 23 106 67 106c27 0 47 -21 47 -48c0 -29 -30 -70 -62 -92c-4 -3 -10 -4 -15 -4zM65 405c0 9 4 18 11 23c92 72 201 122 268 122c27 0 46 -16 46 -42c0 -28 -105 -297 -105 -401c0 -42 14 -55 57 -55
c35 0 94 23 134 54c5 3 11 5 18 5c16 0 30 -13 30 -30c0 -10 -5 -19 -13 -24c-37 -28 -87 -51 -129 -60c-75 -34 -133 -83 -133 -116c0 -19 16 -32 39 -32c29 0 68 15 97 37c6 4 12 6 18 6c17 0 30 -13 30 -30c0 -10 -5 -19 -12 -24c-40 -30 -94 -49 -136 -49
c-54 0 -96 34 -96 82c0 43 38 89 98 128c-42 14 -62 48 -62 105c0 109 95 356 95 371c0 3 -2 3 -6 3c-43 0 -130 -43 -200 -96c-5 -4 -12 -7 -19 -7c-17 0 -30 13 -30 30z" />
    <glyph glyph-name="itilde" unicode="&#x129;" 
d="M342 -8c-80 0 -117 34 -117 112c0 109 95 356 95 371c0 3 -2 3 -6 3c-43 0 -130 -43 -200 -96c-5 -4 -12 -7 -19 -7c-17 0 -30 13 -30 30c0 9 4 18 11 23c92 72 201 122 268 122c27 0 46 -16 46 -42c0 -28 -105 -297 -105 -401c0 -42 14 -55 57 -55c35 0 94 23 134 54
c5 3 11 5 18 5c16 0 30 -13 30 -30c0 -10 -5 -19 -13 -24c-50 -38 -122 -65 -169 -65zM145 661c0 4 0 8 2 11c31 80 100 136 172 136c54 0 83 -30 111 -67c21 -26 34 -42 65 -42c40 0 82 39 102 98c4 12 15 21 29 21c16 0 30 -14 30 -30c0 -4 -1 -7 -2 -11
c-28 -82 -91 -138 -159 -138c-55 0 -84 29 -112 66c-21 27 -34 43 -64 43c-46 0 -94 -40 -116 -98c-4 -11 -15 -19 -28 -19c-17 0 -30 13 -30 30z" />
    <glyph glyph-name="j" unicode="j" 
d="M429 665c-21 0 -36 8 -40 23c-2 10 -4 23 -4 32c0 47 24 86 61 86c28 0 46 -19 46 -47c0 -21 -11 -49 -25 -74c-10 -17 -22 -20 -38 -20zM34 -28c0 17 13 30 30 30c15 0 27 -10 30 -24c24 -107 56 -139 130 -139c66 0 125 73 150 194c15 70 68 393 68 424
c0 24 -9 34 -28 34c-56 0 -184 -85 -300 -206c-5 -4 -12 -7 -19 -7c-17 0 -30 13 -30 30c0 10 4 18 10 23c129 132 268 222 345 222c51 0 83 -34 83 -88c0 -44 -56 -378 -69 -444c-32 -149 -111 -242 -210 -242c-105 0 -158 53 -189 186c-1 2 -1 4 -1 7z" />
    <glyph glyph-name="uni0237" unicode="&#x237;" 
d="M224 -221c-105 0 -159 53 -189 186c-1 2 -1 4 -1 7c0 17 13 30 30 30c14 0 27 -10 29 -24c25 -107 57 -139 131 -139c66 0 125 73 151 194c14 70 67 393 67 424c0 24 -9 34 -28 34c-55 0 -184 -85 -300 -206c-5 -4 -12 -7 -19 -7c-17 0 -30 13 -30 30c0 9 4 18 11 23
c128 132 267 222 344 222c51 0 83 -34 83 -88c0 -43 -56 -378 -70 -444c-31 -149 -110 -242 -209 -242z" />
    <glyph glyph-name="jcircumflex" unicode="&#x135;" 
d="M224 -221c-105 0 -159 53 -189 186c-1 2 -1 4 -1 7c0 17 13 30 30 30c14 0 27 -10 29 -24c25 -107 57 -139 131 -139c66 0 125 73 151 194c14 70 67 393 67 424c0 24 -9 34 -28 34c-55 0 -184 -85 -300 -206c-5 -4 -12 -7 -19 -7c-17 0 -30 13 -30 30c0 9 4 18 11 23
c128 132 267 222 344 222c51 0 83 -34 83 -88c0 -43 -56 -378 -70 -444c-31 -149 -110 -242 -209 -242zM176 662c0 11 5 20 14 25c74 48 147 92 219 132c4 3 9 4 15 4s12 -3 18 -6c61 -46 111 -90 151 -135c4 -6 7 -12 7 -20c0 -17 -13 -30 -30 -30c-9 0 -18 3 -23 10
c-33 38 -74 76 -126 115c-67 -37 -132 -77 -198 -120c-5 -3 -11 -5 -17 -5c-17 0 -30 13 -30 30z" />
    <glyph glyph-name="k" unicode="k" 
d="M484 -11c-10 0 -20 5 -25 13c-49 79 -123 185 -183 257c-39 -23 -79 -45 -120 -65c-16 -62 -33 -124 -51 -188c-3 -12 -15 -21 -29 -21c-17 0 -30 13 -30 30c0 3 0 6 2 10c76 263 127 497 166 761c2 15 14 27 29 27c17 0 30 -13 30 -30c0 -2 0 -4 -1 -9
c-25 -172 -56 -335 -97 -503c147 79 276 175 378 280c5 6 12 9 21 9c17 0 30 -13 30 -30c0 -8 -3 -15 -9 -21c-76 -79 -167 -152 -268 -218c60 -73 134 -178 182 -256c4 -5 5 -10 5 -16c0 -17 -13 -30 -30 -30z" />
    <glyph glyph-name="uni0137" unicode="&#x137;" 
d="M484 -11c-10 0 -20 5 -25 13c-49 79 -123 185 -183 257c-39 -23 -79 -45 -120 -65c-16 -62 -33 -124 -51 -188c-3 -12 -15 -21 -29 -21c-17 0 -30 13 -30 30c0 3 0 6 2 10c76 263 127 497 166 761c2 15 14 27 29 27c17 0 30 -13 30 -30c0 -2 0 -4 -1 -9
c-25 -172 -56 -335 -97 -503c147 79 276 175 378 280c5 6 12 9 21 9c17 0 30 -13 30 -30c0 -8 -3 -15 -9 -21c-76 -79 -167 -152 -268 -218c60 -73 134 -178 182 -256c4 -5 5 -10 5 -16c0 -17 -13 -30 -30 -30zM122 -243c0 9 5 18 11 23c42 38 99 109 118 140
c5 8 15 14 25 14c17 0 30 -13 30 -30c0 -6 -2 -12 -5 -17c-21 -35 -84 -112 -129 -153c-6 -4 -12 -7 -20 -7c-16 0 -30 13 -30 30z" />
    <glyph glyph-name="kgreenlandic" unicode="&#x138;" 
d="M76 -15c-17 0 -30 13 -30 30c0 3 0 6 1 9c44 154 98 377 125 510c2 14 15 25 29 25c17 0 30 -14 30 -30v-7c-14 -68 -34 -158 -57 -251c147 79 276 174 379 280c5 6 13 9 21 9c17 0 30 -13 30 -30c0 -8 -3 -15 -9 -21c-76 -79 -167 -152 -268 -218
c60 -73 134 -178 182 -255c3 -5 5 -11 5 -17c0 -17 -13 -30 -30 -30c-10 0 -20 5 -25 13c-49 79 -124 186 -184 257c-39 -23 -79 -45 -120 -66c-17 -66 -34 -130 -50 -186c-3 -13 -15 -22 -29 -22z" />
    <glyph glyph-name="l" unicode="l" 
d="M289 -10c-69 0 -104 36 -104 106c0 118 93 430 156 605c0 4 -1 5 -5 5c-41 -1 -113 -10 -165 -20c-2 0 -4 -1 -6 -1c-17 0 -30 13 -30 30c0 15 11 27 25 30c65 12 156 23 203 23c27 0 47 -18 47 -44c0 -4 -1 -10 -3 -17c-69 -182 -162 -502 -162 -611
c0 -34 12 -46 46 -46c44 0 113 19 183 50c4 3 8 3 13 3c17 0 30 -13 30 -30c0 -12 -8 -23 -18 -27c-77 -35 -156 -56 -210 -56z" />
    <glyph glyph-name="lacute" unicode="&#x13a;" 
d="M289 -10c-69 0 -104 36 -104 106c0 118 93 430 156 605c0 4 -1 5 -5 5c-41 -1 -113 -10 -165 -20c-2 0 -4 -1 -6 -1c-17 0 -30 13 -30 30c0 15 11 27 25 30c65 12 156 23 203 23c27 0 47 -18 47 -44c0 -4 -1 -10 -3 -17c-69 -182 -162 -502 -162 -611
c0 -34 12 -46 46 -46c44 0 113 19 183 50c4 3 8 3 13 3c17 0 30 -13 30 -30c0 -12 -8 -23 -18 -27c-77 -35 -156 -56 -210 -56zM306 901c0 11 6 20 14 26l232 150c4 3 10 5 16 5c17 0 30 -13 30 -30c0 -10 -5 -20 -14 -25l-231 -151c-5 -3 -10 -5 -17 -5
c-16 0 -30 14 -30 30z" />
    <glyph glyph-name="lcaron" unicode="&#x13e;" 
d="M289 -10c-69 0 -104 36 -104 106c0 118 93 430 156 605c0 4 -1 5 -5 5c-41 -1 -113 -10 -165 -20c-2 0 -4 -1 -6 -1c-17 0 -30 13 -30 30c0 15 11 27 25 30c65 12 156 23 203 23c27 0 47 -18 47 -44c0 -4 -1 -10 -3 -17c-69 -182 -162 -502 -162 -611
c0 -34 12 -46 46 -46c44 0 113 19 183 50c4 3 8 3 13 3c17 0 30 -13 30 -30c0 -12 -8 -23 -18 -27c-77 -35 -156 -56 -210 -56zM449 452c0 7 2 14 7 19c47 57 77 122 77 169c0 17 -4 31 -11 41c-4 5 -6 11 -6 18c0 16 13 30 30 30c10 0 19 -5 24 -13c15 -20 23 -47 23 -76
c0 -62 -35 -140 -91 -207c-6 -7 -14 -11 -23 -11c-17 0 -30 13 -30 30z" />
    <glyph glyph-name="uni013C" unicode="&#x13c;" 
d="M289 -10c-69 0 -104 36 -104 106c0 118 93 430 156 605c0 4 -1 5 -5 5c-41 -1 -113 -10 -165 -20c-2 0 -4 -1 -6 -1c-17 0 -30 13 -30 30c0 15 11 27 25 30c65 12 156 23 203 23c27 0 47 -18 47 -44c0 -4 -1 -10 -3 -17c-69 -182 -162 -502 -162 -611
c0 -34 12 -46 46 -46c44 0 113 19 183 50c4 3 8 3 13 3c17 0 30 -13 30 -30c0 -12 -8 -23 -18 -27c-77 -35 -156 -56 -210 -56zM122 -243c0 9 5 18 11 23c42 38 99 109 118 140c5 8 15 14 25 14c17 0 30 -13 30 -30c0 -6 -2 -12 -5 -17c-21 -35 -84 -112 -129 -153
c-6 -4 -12 -7 -20 -7c-16 0 -30 13 -30 30z" />
    <glyph glyph-name="ldot" unicode="&#x140;" 
d="M289 -10c-69 0 -104 36 -104 106c0 118 93 430 156 605c0 4 -1 5 -5 5c-41 -1 -113 -10 -165 -20c-2 0 -4 -1 -6 -1c-17 0 -30 13 -30 30c0 15 11 27 25 30c65 12 156 23 203 23c27 0 47 -18 47 -44c0 -4 -1 -10 -3 -17c-69 -182 -162 -502 -162 -611
c0 -34 12 -46 46 -46c44 0 113 19 183 50c4 3 8 3 13 3c17 0 30 -13 30 -30c0 -12 -8 -23 -18 -27c-77 -35 -156 -56 -210 -56zM439 374c0 56 42 99 95 99c49 0 87 -32 87 -75c0 -42 -32 -76 -82 -96c-4 -2 -8 -2 -12 -2c-58 0 -87 20 -88 74z" />
    <glyph glyph-name="lslash" unicode="&#x142;" 
d="M289 -10c-69 0 -104 36 -104 106c0 45 13 118 34 201c-47 -23 -90 -45 -125 -63c-4 -3 -9 -4 -15 -4c-16 0 -30 13 -30 30c0 12 7 22 17 27c47 25 107 55 172 86c32 116 71 239 103 328c0 4 -1 5 -5 5c-41 -1 -113 -10 -165 -20c-2 0 -4 -1 -6 -1c-17 0 -30 13 -30 30
c0 15 11 27 25 30c65 12 156 23 203 23c27 0 47 -18 47 -44c0 -4 -1 -10 -3 -17c-31 -83 -68 -194 -98 -301c72 34 146 67 213 94c4 1 8 2 12 2c17 0 30 -13 30 -30c0 -13 -8 -24 -19 -28c-80 -33 -172 -74 -257 -114c-25 -99 -43 -186 -43 -234c0 -34 12 -46 46 -46
c44 0 113 19 183 50c4 3 8 3 13 3c17 0 30 -13 30 -30c0 -12 -8 -23 -18 -27c-77 -35 -156 -56 -210 -56z" />
    <glyph glyph-name="m" unicode="m" 
d="M487 -1c-17 0 -30 13 -30 30c0 3 1 6 2 11c25 99 60 284 60 349c0 49 -12 73 -36 73c-30 0 -90 -47 -133 -108c-12 -95 -38 -234 -56 -300c-3 -14 -15 -23 -29 -23c-17 0 -30 13 -30 30c0 4 0 7 1 12c23 80 59 292 59 352c0 31 -7 46 -22 46c-30 0 -86 -38 -138 -97
c-27 -128 -57 -276 -70 -359c-2 -15 -15 -27 -30 -27c-17 0 -30 13 -30 30c0 2 0 4 1 10c19 118 72 372 103 511c3 14 15 24 29 24c15 0 27 -12 27 -27c0 -3 0 -5 -1 -10l-14 -63c48 46 98 73 138 73c41 0 65 -37 68 -94c45 50 96 83 136 83c57 0 87 -50 87 -136
c0 -74 -37 -270 -62 -367c-3 -13 -15 -23 -30 -23z" />
    <glyph glyph-name="n" unicode="n" 
d="M435 -9c-17 0 -30 13 -30 30c0 3 0 6 1 9c37 130 79 299 79 367c0 65 -21 96 -63 96c-65 0 -179 -107 -269 -257c-13 -77 -26 -151 -42 -230c-3 -13 -15 -24 -30 -24c-17 0 -30 13 -30 30c0 2 1 5 1 6c17 79 28 152 41 222c16 102 33 200 59 302c3 13 15 23 29 23
c15 0 27 -12 27 -27c0 -3 -1 -6 -1 -9c-16 -61 -28 -120 -38 -178c87 123 184 202 256 202c77 0 120 -59 120 -156c0 -81 -49 -269 -81 -384c-3 -13 -15 -22 -29 -22z" />
    <glyph glyph-name="nacute" unicode="&#x144;" 
d="M435 -9c-17 0 -30 13 -30 30c0 3 0 6 1 9c37 130 79 299 79 367c0 65 -21 96 -63 96c-65 0 -179 -107 -269 -257c-13 -77 -26 -151 -42 -230c-3 -13 -15 -24 -30 -24c-17 0 -30 13 -30 30c0 2 1 5 1 6c17 79 28 152 41 222c16 102 33 200 59 302c3 13 15 23 29 23
c15 0 27 -12 27 -27c0 -3 -1 -6 -1 -9c-16 -61 -28 -120 -38 -178c87 123 184 202 256 202c77 0 120 -59 120 -156c0 -81 -49 -269 -81 -384c-3 -13 -15 -22 -29 -22zM255 648c0 11 6 20 14 26l232 150c4 3 10 5 16 5c17 0 30 -13 30 -30c0 -10 -5 -20 -14 -25l-231 -151
c-5 -3 -10 -5 -17 -5c-16 0 -30 14 -30 30z" />
    <glyph glyph-name="napostrophe" unicode="&#x149;" 
d="M26 383c-16 0 -30 13 -30 30c0 10 5 19 13 24c80 61 135 114 163 158c-7 -1 -14 -1 -22 -1c-35 0 -59 27 -59 62c0 48 47 90 99 90c44 0 77 -36 77 -82c0 -73 -76 -164 -222 -275c-5 -4 -12 -6 -19 -6zM151 12c0 2 1 5 1 6c17 79 28 152 41 222c16 102 33 200 59 302
c3 13 15 23 29 23c15 0 27 -12 27 -27c0 -3 -1 -6 -1 -9c-16 -61 -28 -120 -38 -178c87 123 184 202 256 202c77 0 120 -59 120 -156c0 -81 -49 -269 -81 -384c-3 -13 -15 -22 -29 -22c-17 0 -30 13 -30 30c0 3 0 6 1 9c37 130 79 299 79 367c0 65 -21 96 -63 96
c-65 0 -179 -107 -269 -257c-13 -77 -26 -151 -42 -230c-3 -13 -15 -24 -30 -24c-17 0 -30 13 -30 30z" />
    <glyph glyph-name="ncaron" unicode="&#x148;" 
d="M435 -9c-17 0 -30 13 -30 30c0 3 0 6 1 9c37 130 79 299 79 367c0 65 -21 96 -63 96c-65 0 -179 -107 -269 -257c-13 -77 -26 -151 -42 -230c-3 -13 -15 -24 -30 -24c-17 0 -30 13 -30 30c0 2 1 5 1 6c17 79 28 152 41 222c16 102 33 200 59 302c3 13 15 23 29 23
c15 0 27 -12 27 -27c0 -3 -1 -6 -1 -9c-16 -61 -28 -120 -38 -178c87 123 184 202 256 202c77 0 120 -59 120 -156c0 -81 -49 -269 -81 -384c-3 -13 -15 -22 -29 -22zM202 793c0 17 13 30 30 30c9 0 17 -4 23 -10c33 -39 73 -76 125 -115c67 36 132 76 199 119
c5 4 11 6 17 6c17 0 30 -13 30 -30c0 -11 -6 -20 -15 -25c-74 -49 -146 -93 -218 -133c-5 -2 -10 -3 -15 -3c-7 0 -13 2 -18 6c-62 45 -112 90 -151 135c-4 5 -7 12 -7 20z" />
    <glyph glyph-name="uni0146" unicode="&#x146;" 
d="M435 -9c-17 0 -30 13 -30 30c0 3 0 6 1 9c37 130 79 299 79 367c0 65 -21 96 -63 96c-65 0 -179 -107 -269 -257c-13 -77 -26 -151 -42 -230c-3 -13 -15 -24 -30 -24c-17 0 -30 13 -30 30c0 2 1 5 1 6c17 79 28 152 41 222c16 102 33 200 59 302c3 13 15 23 29 23
c15 0 27 -12 27 -27c0 -3 -1 -6 -1 -9c-16 -61 -28 -120 -38 -178c87 123 184 202 256 202c77 0 120 -59 120 -156c0 -81 -49 -269 -81 -384c-3 -13 -15 -22 -29 -22zM122 -243c0 9 5 18 11 23c42 38 99 109 118 140c5 8 15 14 25 14c17 0 30 -13 30 -30c0 -6 -2 -12 -5 -17
c-21 -35 -84 -112 -129 -153c-6 -4 -12 -7 -20 -7c-16 0 -30 13 -30 30z" />
    <glyph glyph-name="ntilde" unicode="&#xf1;" 
d="M435 -9c-17 0 -30 13 -30 30c0 3 0 6 1 9c37 130 79 299 79 367c0 65 -21 96 -63 96c-65 0 -179 -107 -269 -257c-13 -77 -26 -151 -42 -230c-3 -13 -15 -24 -30 -24c-17 0 -30 13 -30 30c0 2 1 5 1 6c17 79 28 152 41 222c16 102 33 200 59 302c3 13 15 23 29 23
c15 0 27 -12 27 -27c0 -3 -1 -6 -1 -9c-16 -61 -28 -120 -38 -178c87 123 184 202 256 202c77 0 120 -59 120 -156c0 -81 -49 -269 -81 -384c-3 -13 -15 -22 -29 -22zM145 661c0 4 0 8 2 11c31 80 100 136 172 136c54 0 83 -30 111 -67c21 -26 34 -42 65 -42
c40 0 82 39 102 98c4 12 15 21 29 21c16 0 30 -14 30 -30c0 -4 -1 -7 -2 -11c-28 -82 -91 -138 -159 -138c-55 0 -84 29 -112 66c-21 27 -34 43 -64 43c-46 0 -94 -40 -116 -98c-4 -11 -15 -19 -28 -19c-17 0 -30 13 -30 30z" />
    <glyph glyph-name="eng" unicode="&#x14b;" 
d="M291 -214c-50 0 -94 21 -120 59c-3 5 -6 11 -6 17c0 17 13 30 30 30c10 0 19 -5 25 -13c15 -21 39 -33 71 -33c42 0 75 47 113 189c34 124 76 295 76 362c0 65 -21 96 -63 96c-65 0 -179 -107 -270 -258v-2c-12 -72 -25 -148 -42 -230c-2 -14 -15 -25 -29 -25
c-17 0 -30 13 -30 30v7c17 81 30 156 42 228c17 102 34 200 59 302c4 14 15 23 30 23c17 0 30 -13 30 -30c0 -3 -1 -6 -1 -9c-15 -57 -26 -114 -37 -170c87 119 180 194 251 194c77 0 120 -59 120 -156c0 -77 -47 -265 -78 -377c-44 -164 -89 -234 -171 -234z" />
    <glyph glyph-name="o" unicode="o" 
d="M268 -14c-127 0 -199 78 -199 215c0 183 140 360 287 360c120 0 191 -87 191 -234c0 -193 -121 -341 -279 -341zM129 201c0 -105 46 -155 139 -155c124 0 219 121 219 281c0 115 -46 174 -131 174c-113 0 -227 -149 -227 -300z" />
    <glyph glyph-name="oacute" unicode="&#xf3;" 
d="M268 -14c-127 0 -199 78 -199 215c0 183 140 360 287 360c120 0 191 -87 191 -234c0 -193 -121 -341 -279 -341zM129 201c0 -105 46 -155 139 -155c124 0 219 121 219 281c0 115 -46 174 -131 174c-113 0 -227 -149 -227 -300zM255 648c0 11 6 20 14 26l232 150
c4 3 10 5 16 5c17 0 30 -13 30 -30c0 -10 -5 -20 -14 -25l-231 -151c-5 -3 -10 -5 -17 -5c-16 0 -30 14 -30 30z" />
    <glyph glyph-name="obreve" unicode="&#x14f;" 
d="M268 -14c-127 0 -199 78 -199 215c0 183 140 360 287 360c120 0 191 -87 191 -234c0 -193 -121 -341 -279 -341zM129 201c0 -105 46 -155 139 -155c124 0 219 121 219 281c0 115 -46 174 -131 174c-113 0 -227 -149 -227 -300zM209 786c0 17 13 30 30 30
c15 0 29 -13 30 -28c4 -52 55 -89 127 -89c73 0 138 40 163 100c4 10 15 19 28 19c17 0 30 -13 30 -30c0 -4 -1 -8 -3 -12c-34 -83 -121 -137 -218 -137c-102 0 -182 59 -187 147z" />
    <glyph glyph-name="ocircumflex" unicode="&#xf4;" 
d="M268 -14c-127 0 -199 78 -199 215c0 183 140 360 287 360c120 0 191 -87 191 -234c0 -193 -121 -341 -279 -341zM129 201c0 -105 46 -155 139 -155c124 0 219 121 219 281c0 115 -46 174 -131 174c-113 0 -227 -149 -227 -300zM176 662c0 11 5 20 14 25
c74 48 147 92 219 132c4 3 9 4 15 4s12 -3 18 -6c61 -46 111 -90 151 -135c4 -6 7 -12 7 -20c0 -17 -13 -30 -30 -30c-9 0 -18 3 -23 10c-33 38 -74 76 -126 115c-67 -37 -132 -77 -198 -120c-5 -3 -11 -5 -17 -5c-17 0 -30 13 -30 30z" />
    <glyph glyph-name="odieresis" unicode="&#xf6;" 
d="M268 -14c-127 0 -199 78 -199 215c0 183 140 360 287 360c120 0 191 -87 191 -234c0 -193 -121 -341 -279 -341zM129 201c0 -105 46 -155 139 -155c124 0 219 121 219 281c0 115 -46 174 -131 174c-113 0 -227 -149 -227 -300zM264 668c0 38 4 62 14 85c5 10 15 18 28 18
c16 0 30 -14 30 -30c0 -5 -1 -10 -3 -14c-7 -14 -9 -27 -9 -59c0 -17 -14 -30 -30 -30c-17 0 -30 13 -30 30zM459 679c0 4 1 9 3 13c4 10 9 41 13 65c2 14 15 26 30 26c16 0 30 -14 30 -30c0 -2 0 -4 -1 -6c-4 -24 -10 -62 -17 -79c-5 -12 -16 -19 -28 -19
c-17 0 -30 13 -30 30z" />
    <glyph glyph-name="ograve" unicode="&#xf2;" 
d="M268 -14c-127 0 -199 78 -199 215c0 183 140 360 287 360c120 0 191 -87 191 -234c0 -193 -121 -341 -279 -341zM129 201c0 -105 46 -155 139 -155c124 0 219 121 219 281c0 115 -46 174 -131 174c-113 0 -227 -149 -227 -300zM283 793c0 16 13 30 30 30c7 0 14 -3 19 -8
l172 -151c7 -5 11 -13 11 -22c0 -17 -14 -30 -30 -30c-8 0 -15 2 -20 7l-172 151c-6 6 -10 14 -10 23z" />
    <glyph glyph-name="ohungarumlaut" unicode="&#x151;" 
d="M268 -14c-127 0 -199 78 -199 215c0 183 140 360 287 360c120 0 191 -87 191 -234c0 -193 -121 -341 -279 -341zM129 201c0 -105 46 -155 139 -155c124 0 219 121 219 281c0 115 -46 174 -131 174c-113 0 -227 -149 -227 -300zM225 662c0 8 3 16 9 22
c59 55 117 106 174 152c5 4 12 7 19 7c17 0 30 -14 30 -30c0 -10 -4 -18 -11 -24c-56 -44 -112 -93 -170 -149c-6 -5 -13 -8 -21 -8c-17 0 -30 13 -30 30zM438 662c0 8 4 16 10 22c59 55 116 106 173 152c6 4 12 7 19 7c17 0 30 -14 30 -30c0 -10 -4 -18 -11 -24
c-55 -44 -111 -93 -170 -149c-5 -5 -13 -8 -21 -8c-16 0 -30 13 -30 30z" />
    <glyph glyph-name="omacron" unicode="&#x14d;" 
d="M268 -14c-127 0 -199 78 -199 215c0 183 140 360 287 360c120 0 191 -87 191 -234c0 -193 -121 -341 -279 -341zM129 201c0 -105 46 -155 139 -155c124 0 219 121 219 281c0 115 -46 174 -131 174c-113 0 -227 -149 -227 -300zM173 678c0 15 11 28 26 29
c111 16 294 23 384 23c16 0 30 -14 30 -30c0 -17 -14 -30 -30 -30c-89 0 -268 -7 -376 -22h-4c-17 0 -30 13 -30 30z" />
    <glyph glyph-name="oslash" unicode="&#xf8;" 
d="M268 -14c-68 0 -121 23 -155 65c-31 -30 -60 -59 -86 -85c-6 -6 -13 -9 -22 -9c-16 0 -30 13 -30 30c0 8 4 16 9 21c30 30 64 63 100 97c-10 28 -15 60 -15 96c0 183 140 360 287 360c67 0 119 -27 152 -78c33 28 64 53 91 74c5 4 11 6 18 6c17 0 30 -13 30 -30
c0 -10 -4 -18 -12 -24c-29 -22 -64 -50 -102 -82c9 -29 14 -62 14 -100c0 -193 -121 -341 -279 -341zM129 201c0 -22 2 -41 6 -58c106 99 228 208 330 295c-21 42 -58 63 -109 63c-113 0 -227 -149 -227 -300zM154 97c22 -34 60 -51 114 -51c124 0 219 121 219 281
c0 24 -2 45 -6 64c-104 -89 -224 -197 -327 -294z" />
    <glyph glyph-name="oslashacute" unicode="&#x1ff;" 
d="M268 -14c-68 0 -121 23 -155 65c-31 -30 -60 -59 -86 -85c-6 -6 -13 -9 -22 -9c-16 0 -30 13 -30 30c0 8 4 16 9 21c30 30 64 63 100 97c-10 28 -15 60 -15 96c0 183 140 360 287 360c67 0 119 -27 152 -78c33 28 64 53 91 74c5 4 11 6 18 6c17 0 30 -13 30 -30
c0 -10 -4 -18 -12 -24c-29 -22 -64 -50 -102 -82c9 -29 14 -62 14 -100c0 -193 -121 -341 -279 -341zM129 201c0 -22 2 -41 6 -58c106 99 228 208 330 295c-21 42 -58 63 -109 63c-113 0 -227 -149 -227 -300zM154 97c22 -34 60 -51 114 -51c124 0 219 121 219 281
c0 24 -2 45 -6 64c-104 -89 -224 -197 -327 -294zM255 648c0 11 6 20 14 26l232 150c4 3 10 5 16 5c17 0 30 -13 30 -30c0 -10 -5 -20 -14 -25l-231 -151c-5 -3 -10 -5 -17 -5c-16 0 -30 14 -30 30z" />
    <glyph glyph-name="otilde" unicode="&#xf5;" 
d="M268 -14c-127 0 -199 78 -199 215c0 183 140 360 287 360c120 0 191 -87 191 -234c0 -193 -121 -341 -279 -341zM129 201c0 -105 46 -155 139 -155c124 0 219 121 219 281c0 115 -46 174 -131 174c-113 0 -227 -149 -227 -300zM145 661c0 4 0 8 2 11
c31 80 100 136 172 136c54 0 83 -30 111 -67c21 -26 34 -42 65 -42c40 0 82 39 102 98c4 12 15 21 29 21c16 0 30 -14 30 -30c0 -4 -1 -7 -2 -11c-28 -82 -91 -138 -159 -138c-55 0 -84 29 -112 66c-21 27 -34 43 -64 43c-46 0 -94 -40 -116 -98c-4 -11 -15 -19 -28 -19
c-17 0 -30 13 -30 30z" />
    <glyph glyph-name="oe" unicode="&#x153;" 
d="M137 -7c-79 0 -122 71 -122 190c0 154 94 372 217 372c59 0 96 -48 108 -131c41 78 101 137 172 137c66 0 112 -53 112 -126c0 -57 -19 -88 -71 -123c-58 -38 -145 -80 -225 -109c-1 -12 -2 -23 -2 -34c0 -86 27 -121 75 -121c38 0 73 19 120 67c6 5 13 9 21 9
c17 0 30 -13 30 -30c0 -9 -3 -16 -9 -22c-56 -57 -107 -84 -162 -84c-64 0 -105 40 -120 111c-36 -62 -85 -106 -144 -106zM75 183c0 -87 22 -130 62 -130c89 0 155 171 155 304c0 90 -22 138 -60 138c-81 0 -157 -188 -157 -312zM337 265c66 28 135 63 181 95
c39 27 46 41 46 75c0 40 -21 66 -52 66c-80 0 -148 -119 -175 -236z" />
    <glyph glyph-name="p" unicode="p" 
d="M246 -12c-41 0 -91 10 -130 25c-16 -67 -34 -138 -53 -212c-4 -13 -16 -23 -30 -23c-16 0 -30 13 -30 30c0 3 1 6 1 8c75 287 126 507 152 751c2 15 15 27 30 27c17 0 30 -13 30 -30v-4c-3 -28 -7 -56 -10 -84c62 50 126 79 179 79c94 0 159 -109 159 -248
c0 -186 -124 -319 -298 -319zM130 72c32 -14 78 -24 116 -24c140 0 238 106 238 259c0 106 -46 188 -99 188c-52 0 -124 -37 -191 -102c-17 -105 -38 -210 -64 -321z" />
    <glyph glyph-name="thorn" unicode="&#xfe;" 
d="M246 -12c-42 0 -93 10 -132 26c-16 -71 -34 -144 -53 -223c-3 -13 -15 -23 -30 -23c-16 0 -30 13 -30 30c0 3 1 5 1 8c95 385 156 651 198 978c1 15 14 26 29 26c17 0 30 -13 30 -30v-4c-13 -100 -28 -195 -44 -290c59 45 119 69 170 69c94 0 159 -109 159 -248
c0 -186 -124 -319 -298 -319zM128 73c32 -15 80 -25 118 -25c140 0 238 106 238 259c0 106 -46 188 -99 188c-50 0 -120 -37 -188 -101c-20 -103 -43 -208 -69 -321z" />
    <glyph glyph-name="q" unicode="q" 
d="M400 -211c-17 0 -30 13 -30 30v4c8 59 20 134 35 214c-49 -30 -108 -48 -160 -48c-107 0 -180 90 -180 222c0 171 159 346 314 346c62 0 123 -27 170 -74c6 -5 9 -13 9 -21c0 -3 0 -6 -1 -9c-40 -157 -105 -463 -127 -638c-2 -15 -15 -26 -30 -26zM125 211
c0 -99 48 -162 123 -162c57 0 121 23 171 62c25 123 53 250 76 341c-33 29 -75 45 -116 45c-122 0 -254 -148 -254 -286z" />
    <glyph glyph-name="r" unicode="r" 
d="M107 -15c-17 0 -30 13 -30 30c0 3 0 6 1 9c47 159 79 286 79 387c0 40 -3 77 -9 107l-1 7c0 17 13 30 30 30c15 0 27 -10 30 -23c7 -35 10 -78 10 -121v-6c67 92 173 162 266 162c66 0 90 -26 90 -94c0 -30 -3 -64 -8 -90c-2 -14 -14 -25 -29 -25c-17 0 -30 13 -30 30
c0 7 7 36 7 79c0 34 -5 40 -37 40c-95 0 -242 -115 -274 -243c-15 -80 -39 -168 -66 -258c-3 -12 -15 -21 -29 -21z" />
    <glyph glyph-name="racute" unicode="&#x155;" 
d="M107 -15c-17 0 -30 13 -30 30c0 3 0 6 1 9c47 159 79 286 79 387c0 40 -3 77 -9 107l-1 7c0 17 13 30 30 30c15 0 27 -10 30 -23c7 -35 10 -78 10 -121v-6c67 92 173 162 266 162c66 0 90 -26 90 -94c0 -30 -3 -64 -8 -90c-2 -14 -14 -25 -29 -25c-17 0 -30 13 -30 30
c0 7 7 36 7 79c0 34 -5 40 -37 40c-95 0 -242 -115 -274 -243c-15 -80 -39 -168 -66 -258c-3 -12 -15 -21 -29 -21zM255 648c0 11 6 20 14 26l232 150c4 3 10 5 16 5c17 0 30 -13 30 -30c0 -10 -5 -20 -14 -25l-231 -151c-5 -3 -10 -5 -17 -5c-16 0 -30 14 -30 30z" />
    <glyph glyph-name="rcaron" unicode="&#x159;" 
d="M107 -15c-17 0 -30 13 -30 30c0 3 0 6 1 9c47 159 79 286 79 387c0 40 -3 77 -9 107l-1 7c0 17 13 30 30 30c15 0 27 -10 30 -23c7 -35 10 -78 10 -121v-6c67 92 173 162 266 162c66 0 90 -26 90 -94c0 -30 -3 -64 -8 -90c-2 -14 -14 -25 -29 -25c-17 0 -30 13 -30 30
c0 7 7 36 7 79c0 34 -5 40 -37 40c-95 0 -242 -115 -274 -243c-15 -80 -39 -168 -66 -258c-3 -12 -15 -21 -29 -21zM202 793c0 17 13 30 30 30c9 0 17 -4 23 -10c33 -39 73 -76 125 -115c67 36 132 76 199 119c5 4 11 6 17 6c17 0 30 -13 30 -30c0 -11 -6 -20 -15 -25
c-74 -49 -146 -93 -218 -133c-5 -2 -10 -3 -15 -3c-7 0 -13 2 -18 6c-62 45 -112 90 -151 135c-4 5 -7 12 -7 20z" />
    <glyph glyph-name="uni0157" unicode="&#x157;" 
d="M107 -15c-17 0 -30 13 -30 30c0 3 0 6 1 9c47 159 79 286 79 387c0 40 -3 77 -9 107l-1 7c0 17 13 30 30 30c15 0 27 -10 30 -23c7 -35 10 -78 10 -121v-6c67 92 173 162 266 162c66 0 90 -26 90 -94c0 -30 -3 -64 -8 -90c-2 -14 -14 -25 -29 -25c-17 0 -30 13 -30 30
c0 7 7 36 7 79c0 34 -5 40 -37 40c-95 0 -242 -115 -274 -243c-15 -80 -39 -168 -66 -258c-3 -12 -15 -21 -29 -21zM122 -243c0 9 5 18 11 23c42 38 99 109 118 140c5 8 15 14 25 14c17 0 30 -13 30 -30c0 -6 -2 -12 -5 -17c-21 -35 -84 -112 -129 -153c-6 -4 -12 -7 -20 -7
c-16 0 -30 13 -30 30z" />
    <glyph glyph-name="s" unicode="s" 
d="M266 -16c-92 0 -167 27 -227 83c-6 6 -10 14 -10 23c0 16 13 30 30 30c7 0 14 -3 20 -8c49 -46 109 -68 187 -68c95 0 175 43 175 90c0 44 -30 68 -128 86c-109 21 -190 54 -190 154c0 110 126 191 281 191c74 0 140 -21 140 -67c0 -30 -3 -61 -10 -100
c-2 -14 -14 -25 -29 -25c-17 0 -30 13 -30 30v5c6 32 8 57 9 82c-2 6 -41 15 -80 15c-123 0 -221 -61 -221 -131c0 -60 50 -78 141 -95c121 -22 177 -64 177 -145c0 -89 -106 -150 -235 -150z" />
    <glyph glyph-name="sacute" unicode="&#x15b;" 
d="M266 -16c-92 0 -167 27 -227 83c-6 6 -10 14 -10 23c0 16 13 30 30 30c7 0 14 -3 20 -8c49 -46 109 -68 187 -68c95 0 175 43 175 90c0 44 -30 68 -128 86c-109 21 -190 54 -190 154c0 110 126 191 281 191c74 0 140 -21 140 -67c0 -30 -3 -61 -10 -100
c-2 -14 -14 -25 -29 -25c-17 0 -30 13 -30 30v5c6 32 8 57 9 82c-2 6 -41 15 -80 15c-123 0 -221 -61 -221 -131c0 -60 50 -78 141 -95c121 -22 177 -64 177 -145c0 -89 -106 -150 -235 -150zM255 648c0 11 6 20 14 26l232 150c4 3 10 5 16 5c17 0 30 -13 30 -30
c0 -10 -5 -20 -14 -25l-231 -151c-5 -3 -10 -5 -17 -5c-16 0 -30 14 -30 30z" />
    <glyph glyph-name="scaron" unicode="&#x161;" 
d="M266 -16c-92 0 -167 27 -227 83c-6 6 -10 14 -10 23c0 16 13 30 30 30c7 0 14 -3 20 -8c49 -46 109 -68 187 -68c95 0 175 43 175 90c0 44 -30 68 -128 86c-109 21 -190 54 -190 154c0 110 126 191 281 191c74 0 140 -21 140 -67c0 -30 -3 -61 -10 -100
c-2 -14 -14 -25 -29 -25c-17 0 -30 13 -30 30v5c6 32 8 57 9 82c-2 6 -41 15 -80 15c-123 0 -221 -61 -221 -131c0 -60 50 -78 141 -95c121 -22 177 -64 177 -145c0 -89 -106 -150 -235 -150zM202 793c0 17 13 30 30 30c9 0 17 -4 23 -10c33 -39 73 -76 125 -115
c67 36 132 76 199 119c5 4 11 6 17 6c17 0 30 -13 30 -30c0 -11 -6 -20 -15 -25c-74 -49 -146 -93 -218 -133c-5 -2 -10 -3 -15 -3c-7 0 -13 2 -18 6c-62 45 -112 90 -151 135c-4 5 -7 12 -7 20z" />
    <glyph glyph-name="scedilla" unicode="&#x15f;" 
d="M152 -240c-8 0 -17 0 -24 1c-15 1 -27 14 -27 30s13 30 30 30c1 0 3 0 4 -1h17c78 0 137 41 137 94c0 27 -20 46 -59 53c-11 2 -21 10 -24 21c-65 10 -121 36 -167 79c-6 6 -10 14 -10 23c0 16 13 30 30 30c7 0 14 -3 20 -8c49 -46 109 -68 187 -68c95 0 175 43 175 90
c0 44 -30 68 -128 86c-109 21 -190 54 -190 154c0 110 126 191 281 191c74 0 140 -21 140 -67c0 -30 -3 -61 -10 -100c-2 -14 -14 -25 -29 -25c-17 0 -30 13 -30 30v5c6 32 8 57 9 82c-2 6 -41 15 -80 15c-123 0 -221 -61 -221 -131c0 -60 50 -78 141 -95
c121 -22 177 -64 177 -145c0 -76 -78 -132 -181 -146c18 -19 29 -44 29 -74c0 -89 -86 -154 -197 -154z" />
    <glyph glyph-name="scircumflex" unicode="&#x15d;" 
d="M266 -16c-92 0 -167 27 -227 83c-6 6 -10 14 -10 23c0 16 13 30 30 30c7 0 14 -3 20 -8c49 -46 109 -68 187 -68c95 0 175 43 175 90c0 44 -30 68 -128 86c-109 21 -190 54 -190 154c0 110 126 191 281 191c74 0 140 -21 140 -67c0 -30 -3 -61 -10 -100
c-2 -14 -14 -25 -29 -25c-17 0 -30 13 -30 30v5c6 32 8 57 9 82c-2 6 -41 15 -80 15c-123 0 -221 -61 -221 -131c0 -60 50 -78 141 -95c121 -22 177 -64 177 -145c0 -89 -106 -150 -235 -150zM176 662c0 11 5 20 14 25c74 48 147 92 219 132c4 3 9 4 15 4s12 -3 18 -6
c61 -46 111 -90 151 -135c4 -6 7 -12 7 -20c0 -17 -13 -30 -30 -30c-9 0 -18 3 -23 10c-33 38 -74 76 -126 115c-67 -37 -132 -77 -198 -120c-5 -3 -11 -5 -17 -5c-17 0 -30 13 -30 30z" />
    <glyph glyph-name="uni0219" unicode="&#x219;" 
d="M266 -16c-92 0 -167 27 -227 83c-6 6 -10 14 -10 23c0 16 13 30 30 30c7 0 14 -3 20 -8c49 -46 109 -68 187 -68c95 0 175 43 175 90c0 44 -30 68 -128 86c-109 21 -190 54 -190 154c0 110 126 191 281 191c74 0 140 -21 140 -67c0 -30 -3 -61 -10 -100
c-2 -14 -14 -25 -29 -25c-17 0 -30 13 -30 30v5c6 32 8 57 9 82c-2 6 -41 15 -80 15c-123 0 -221 -61 -221 -131c0 -60 50 -78 141 -95c121 -22 177 -64 177 -145c0 -89 -106 -150 -235 -150zM122 -243c0 9 5 18 11 23c42 38 99 109 118 140c5 8 15 14 25 14
c17 0 30 -13 30 -30c0 -6 -2 -12 -5 -17c-21 -35 -84 -112 -129 -153c-6 -4 -12 -7 -20 -7c-16 0 -30 13 -30 30z" />
    <glyph glyph-name="germandbls" unicode="&#xdf;" 
d="M35 -139c-17 0 -30 13 -30 30c0 3 1 7 2 10c43 138 81 284 110 431c10 50 37 217 44 252c28 140 123 226 251 226c102 0 167 -63 167 -163c0 -76 -53 -151 -144 -211c62 -56 97 -131 97 -213c0 -123 -100 -231 -218 -231c-37 0 -81 15 -108 38c-8 5 -13 14 -13 24
c0 17 13 30 30 30c7 0 13 -2 18 -6c17 -15 47 -26 73 -26c85 0 158 80 158 171c0 76 -36 144 -103 192c-8 5 -13 15 -13 25c0 11 6 21 15 26c94 53 148 120 148 181c0 66 -38 103 -107 103c-99 0 -170 -65 -192 -178c-8 -37 -33 -202 -43 -252c-30 -148 -68 -297 -113 -439
c-4 -12 -15 -20 -29 -20z" />
    <glyph glyph-name="longs" unicode="&#x17f;" 
d="M152 -119c-17 0 -30 14 -30 30c0 6 2 11 4 16c30 52 51 110 65 176c11 59 28 150 44 240l16 91c-14 -1 -29 -1 -43 -1c-25 0 -51 0 -75 2c-16 1 -28 14 -28 30c0 17 13 30 30 30h2c22 -1 46 -2 71 -2c18 0 36 0 54 1l13 71c33 161 103 244 214 244c72 0 127 -46 147 -122
c1 -3 2 -5 2 -8c0 -17 -14 -30 -30 -30c-14 0 -26 9 -29 22c-14 51 -46 78 -90 78c-78 0 -128 -61 -155 -196c-10 -54 -25 -136 -40 -221c-16 -90 -33 -181 -45 -241c-14 -71 -38 -137 -71 -194c-5 -9 -15 -16 -26 -16z" />
    <glyph glyph-name="t" unicode="t" 
d="M282 -13c-76 0 -118 46 -118 128c0 58 39 220 77 364c-46 3 -93 8 -127 16c-13 3 -24 15 -24 30c0 16 14 30 30 30c3 0 5 -1 8 -1c33 -8 81 -13 129 -16c17 61 33 114 44 149c4 13 15 22 28 22c17 0 30 -14 30 -30c0 -4 0 -6 -1 -10c-11 -35 -25 -81 -39 -132
c56 0 164 11 236 26h7c16 0 30 -13 30 -30c0 -14 -11 -27 -25 -29c-77 -15 -193 -27 -251 -27h-14c-39 -146 -78 -311 -78 -362c0 -48 18 -68 61 -68s107 16 167 41c3 2 8 3 12 3c17 0 30 -13 30 -30c0 -12 -7 -23 -18 -28c-66 -28 -140 -46 -194 -46z" />
    <glyph glyph-name="tbar" unicode="&#x167;" 
d="M282 -13c-76 0 -118 46 -118 128c0 25 7 70 19 124c-23 -2 -45 -5 -67 -8h-4c-15 0 -27 12 -27 27c0 13 11 24 24 26c27 4 56 7 86 11c13 58 30 123 46 184c-46 3 -93 8 -127 16c-13 3 -24 15 -24 30c0 16 14 30 30 30c3 0 5 -1 8 -1c33 -8 81 -13 129 -16
c17 61 33 114 44 149c4 13 15 22 28 22c17 0 30 -14 30 -30c0 -4 0 -6 -1 -10c-11 -35 -25 -81 -39 -132c56 0 164 11 236 26h7c16 0 30 -13 30 -30c0 -14 -11 -27 -25 -29c-77 -15 -193 -27 -251 -27h-14c-16 -59 -31 -120 -44 -177c53 5 105 8 148 9c15 0 26 -11 26 -27
c0 -14 -11 -26 -26 -26c-52 -2 -106 -5 -161 -10c-13 -59 -21 -107 -21 -131c0 -48 18 -68 61 -68s107 16 167 41c3 2 8 3 12 3c17 0 30 -13 30 -30c0 -12 -7 -23 -18 -28c-66 -28 -140 -46 -194 -46z" />
    <glyph glyph-name="tcaron" unicode="&#x165;" 
d="M282 -13c-76 0 -118 46 -118 128c0 56 36 211 74 351c-46 3 -93 8 -127 16c-13 3 -23 15 -23 29c0 17 13 30 30 30h7c32 -8 80 -13 129 -15c17 65 34 123 46 161c5 13 15 22 29 22c17 0 30 -13 30 -30c0 -4 0 -6 -1 -10c-12 -38 -27 -89 -42 -145c55 0 164 11 237 25
c2 1 4 1 6 1c17 0 30 -13 30 -30c0 -15 -11 -27 -25 -30c-77 -15 -193 -26 -251 -26h-14c-38 -143 -75 -299 -75 -349c0 -48 18 -68 61 -68s107 15 167 41c3 3 8 3 12 3c17 0 30 -13 30 -30c0 -12 -8 -23 -18 -27c-66 -29 -140 -47 -194 -47zM437 609c0 7 2 14 7 18
c45 52 73 111 73 153c0 18 -3 31 -11 41c-3 5 -6 11 -6 18c0 17 13 30 30 30c10 0 19 -5 25 -13c15 -20 22 -47 22 -76c0 -57 -33 -129 -87 -190c-6 -7 -14 -11 -23 -11c-17 0 -30 13 -30 30z" />
    <glyph glyph-name="uni0163" unicode="&#x163;" 
d="M316 477h-14c-39 -146 -78 -311 -78 -362c0 -48 18 -68 61 -68s107 16 167 41c3 2 8 3 12 3c17 0 30 -13 30 -30c0 -12 -7 -23 -18 -28c-52 -22 -110 -38 -158 -44c20 -19 31 -45 31 -75c0 -89 -86 -154 -197 -154c-8 0 -17 0 -24 1c-15 1 -27 14 -27 30s13 30 30 30
c1 0 3 0 4 -1h17c78 0 137 41 137 94c0 27 -20 46 -59 53c-14 2 -25 14 -25 29c0 4 1 9 3 12c-29 22 -44 58 -44 107c0 58 39 220 77 364c-46 3 -93 8 -127 16c-13 3 -24 15 -24 30c0 16 14 30 30 30c3 0 5 -1 8 -1c33 -8 81 -13 129 -16c17 61 33 114 44 149
c4 13 15 22 28 22c17 0 30 -14 30 -30c0 -4 0 -6 -1 -10c-11 -35 -25 -81 -39 -132c56 0 164 11 236 26h7c16 0 30 -13 30 -30c0 -14 -11 -27 -25 -29c-77 -15 -193 -27 -251 -27z" />
    <glyph glyph-name="uni021B" unicode="&#x21b;" 
d="M282 -13c-76 0 -118 46 -118 128c0 58 39 220 77 364c-46 3 -93 8 -127 16c-13 3 -24 15 -24 30c0 16 14 30 30 30c3 0 5 -1 8 -1c33 -8 81 -13 129 -16c17 61 33 114 44 149c4 13 15 22 28 22c17 0 30 -14 30 -30c0 -4 0 -6 -1 -10c-11 -35 -25 -81 -39 -132
c56 0 164 11 236 26h7c16 0 30 -13 30 -30c0 -14 -11 -27 -25 -29c-77 -15 -193 -27 -251 -27h-14c-39 -146 -78 -311 -78 -362c0 -48 18 -68 61 -68s107 16 167 41c3 2 8 3 12 3c17 0 30 -13 30 -30c0 -12 -7 -23 -18 -28c-66 -28 -140 -46 -194 -46zM122 -243
c0 9 5 18 11 23c42 38 99 109 118 140c5 8 15 14 25 14c17 0 30 -13 30 -30c0 -6 -2 -12 -5 -17c-21 -35 -84 -112 -129 -153c-6 -4 -12 -7 -20 -7c-16 0 -30 13 -30 30z" />
    <glyph glyph-name="u" unicode="u" 
d="M210 -13c-88 0 -132 47 -132 141c0 100 58 281 114 415c4 10 15 19 28 19c17 0 30 -13 30 -30c0 -4 -1 -9 -3 -12c-54 -128 -109 -300 -109 -392c0 -59 21 -81 75 -81c62 0 130 36 215 118c11 73 53 262 78 361c3 13 15 23 30 23c17 0 30 -13 30 -30c0 -3 -1 -6 -1 -8
c-27 -106 -79 -335 -79 -371c0 -38 9 -87 22 -125c2 -5 3 -8 3 -11c0 -17 -13 -30 -30 -30c-13 0 -25 8 -29 20c-10 31 -19 67 -23 101c-81 -73 -151 -108 -219 -108z" />
    <glyph glyph-name="uacute" unicode="&#xfa;" 
d="M210 -13c-88 0 -132 47 -132 141c0 100 58 281 114 415c4 10 15 19 28 19c17 0 30 -13 30 -30c0 -4 -1 -9 -3 -12c-54 -128 -109 -300 -109 -392c0 -59 21 -81 75 -81c62 0 130 36 215 118c11 73 53 262 78 361c3 13 15 23 30 23c17 0 30 -13 30 -30c0 -3 -1 -6 -1 -8
c-27 -106 -79 -335 -79 -371c0 -38 9 -87 22 -125c2 -5 3 -8 3 -11c0 -17 -13 -30 -30 -30c-13 0 -25 8 -29 20c-10 31 -19 67 -23 101c-81 -73 -151 -108 -219 -108zM255 648c0 11 6 20 14 26l232 150c4 3 10 5 16 5c17 0 30 -13 30 -30c0 -10 -5 -20 -14 -25l-231 -151
c-5 -3 -10 -5 -17 -5c-16 0 -30 14 -30 30z" />
    <glyph glyph-name="ubreve" unicode="&#x16d;" 
d="M210 -13c-88 0 -132 47 -132 141c0 100 58 281 114 415c4 10 15 19 28 19c17 0 30 -13 30 -30c0 -4 -1 -9 -3 -12c-54 -128 -109 -300 -109 -392c0 -59 21 -81 75 -81c62 0 130 36 215 118c11 73 53 262 78 361c3 13 15 23 30 23c17 0 30 -13 30 -30c0 -3 -1 -6 -1 -8
c-27 -106 -79 -335 -79 -371c0 -38 9 -87 22 -125c2 -5 3 -8 3 -11c0 -17 -13 -30 -30 -30c-13 0 -25 8 -29 20c-10 31 -19 67 -23 101c-81 -73 -151 -108 -219 -108zM209 786c0 17 13 30 30 30c15 0 29 -13 30 -28c4 -52 55 -89 127 -89c73 0 138 40 163 100
c4 10 15 19 28 19c17 0 30 -13 30 -30c0 -4 -1 -8 -3 -12c-34 -83 -121 -137 -218 -137c-102 0 -182 59 -187 147z" />
    <glyph glyph-name="ucircumflex" unicode="&#xfb;" 
d="M210 -13c-88 0 -132 47 -132 141c0 100 58 281 114 415c4 10 15 19 28 19c17 0 30 -13 30 -30c0 -4 -1 -9 -3 -12c-54 -128 -109 -300 -109 -392c0 -59 21 -81 75 -81c62 0 130 36 215 118c11 73 53 262 78 361c3 13 15 23 30 23c17 0 30 -13 30 -30c0 -3 -1 -6 -1 -8
c-27 -106 -79 -335 -79 -371c0 -38 9 -87 22 -125c2 -5 3 -8 3 -11c0 -17 -13 -30 -30 -30c-13 0 -25 8 -29 20c-10 31 -19 67 -23 101c-81 -73 -151 -108 -219 -108zM176 662c0 11 5 20 14 25c74 48 147 92 219 132c4 3 9 4 15 4s12 -3 18 -6c61 -46 111 -90 151 -135
c4 -6 7 -12 7 -20c0 -17 -13 -30 -30 -30c-9 0 -18 3 -23 10c-33 38 -74 76 -126 115c-67 -37 -132 -77 -198 -120c-5 -3 -11 -5 -17 -5c-17 0 -30 13 -30 30z" />
    <glyph glyph-name="udieresis" unicode="&#xfc;" 
d="M210 -13c-88 0 -132 47 -132 141c0 100 58 281 114 415c4 10 15 19 28 19c17 0 30 -13 30 -30c0 -4 -1 -9 -3 -12c-54 -128 -109 -300 -109 -392c0 -59 21 -81 75 -81c62 0 130 36 215 118c11 73 53 262 78 361c3 13 15 23 30 23c17 0 30 -13 30 -30c0 -3 -1 -6 -1 -8
c-27 -106 -79 -335 -79 -371c0 -38 9 -87 22 -125c2 -5 3 -8 3 -11c0 -17 -13 -30 -30 -30c-13 0 -25 8 -29 20c-10 31 -19 67 -23 101c-81 -73 -151 -108 -219 -108zM264 668c0 38 4 62 14 85c5 10 15 18 28 18c16 0 30 -14 30 -30c0 -5 -1 -10 -3 -14
c-7 -14 -9 -27 -9 -59c0 -17 -14 -30 -30 -30c-17 0 -30 13 -30 30zM459 679c0 4 1 9 3 13c4 10 9 41 13 65c2 14 15 26 30 26c16 0 30 -14 30 -30c0 -2 0 -4 -1 -6c-4 -24 -10 -62 -17 -79c-5 -12 -16 -19 -28 -19c-17 0 -30 13 -30 30z" />
    <glyph glyph-name="ugrave" unicode="&#xf9;" 
d="M210 -13c-88 0 -132 47 -132 141c0 100 58 281 114 415c4 10 15 19 28 19c17 0 30 -13 30 -30c0 -4 -1 -9 -3 -12c-54 -128 -109 -300 -109 -392c0 -59 21 -81 75 -81c62 0 130 36 215 118c11 73 53 262 78 361c3 13 15 23 30 23c17 0 30 -13 30 -30c0 -3 -1 -6 -1 -8
c-27 -106 -79 -335 -79 -371c0 -38 9 -87 22 -125c2 -5 3 -8 3 -11c0 -17 -13 -30 -30 -30c-13 0 -25 8 -29 20c-10 31 -19 67 -23 101c-81 -73 -151 -108 -219 -108zM283 793c0 16 13 30 30 30c7 0 14 -3 19 -8l172 -151c7 -5 11 -13 11 -22c0 -17 -14 -30 -30 -30
c-8 0 -15 2 -20 7l-172 151c-6 6 -10 14 -10 23z" />
    <glyph glyph-name="uhungarumlaut" unicode="&#x171;" 
d="M210 -13c-88 0 -132 47 -132 141c0 100 58 281 114 415c4 10 15 19 28 19c17 0 30 -13 30 -30c0 -4 -1 -9 -3 -12c-54 -128 -109 -300 -109 -392c0 -59 21 -81 75 -81c62 0 130 36 215 118c11 73 53 262 78 361c3 13 15 23 30 23c17 0 30 -13 30 -30c0 -3 -1 -6 -1 -8
c-27 -106 -79 -335 -79 -371c0 -38 9 -87 22 -125c2 -5 3 -8 3 -11c0 -17 -13 -30 -30 -30c-13 0 -25 8 -29 20c-10 31 -19 67 -23 101c-81 -73 -151 -108 -219 -108zM225 662c0 8 3 16 9 22c59 55 117 106 174 152c5 4 12 7 19 7c17 0 30 -14 30 -30c0 -10 -4 -18 -11 -24
c-56 -44 -112 -93 -170 -149c-6 -5 -13 -8 -21 -8c-17 0 -30 13 -30 30zM438 662c0 8 4 16 10 22c59 55 116 106 173 152c6 4 12 7 19 7c17 0 30 -14 30 -30c0 -10 -4 -18 -11 -24c-55 -44 -111 -93 -170 -149c-5 -5 -13 -8 -21 -8c-16 0 -30 13 -30 30z" />
    <glyph glyph-name="umacron" unicode="&#x16b;" 
d="M210 -13c-88 0 -132 47 -132 141c0 100 58 281 114 415c4 10 15 19 28 19c17 0 30 -13 30 -30c0 -4 -1 -9 -3 -12c-54 -128 -109 -300 -109 -392c0 -59 21 -81 75 -81c62 0 130 36 215 118c11 73 53 262 78 361c3 13 15 23 30 23c17 0 30 -13 30 -30c0 -3 -1 -6 -1 -8
c-27 -106 -79 -335 -79 -371c0 -38 9 -87 22 -125c2 -5 3 -8 3 -11c0 -17 -13 -30 -30 -30c-13 0 -25 8 -29 20c-10 31 -19 67 -23 101c-81 -73 -151 -108 -219 -108zM173 678c0 15 11 28 26 29c111 16 294 23 384 23c16 0 30 -14 30 -30c0 -17 -14 -30 -30 -30
c-89 0 -268 -7 -376 -22h-4c-17 0 -30 13 -30 30z" />
    <glyph glyph-name="uogonek" unicode="&#x173;" 
d="M210 -13c-88 0 -132 47 -132 141c0 100 58 281 114 415c4 10 15 19 28 19c17 0 30 -13 30 -30c0 -4 -1 -9 -3 -12c-54 -128 -109 -300 -109 -392c0 -59 21 -81 75 -81c62 0 130 36 215 118c11 73 53 262 78 361c3 13 15 23 30 23c17 0 30 -13 30 -30c0 -3 -1 -6 -1 -8
c-27 -106 -79 -335 -79 -371c0 -38 9 -87 22 -125c2 -5 3 -8 3 -11c0 -15 -9 -26 -23 -29c-73 -34 -130 -83 -130 -115c0 -19 16 -32 39 -32c29 0 68 15 97 37c6 4 12 6 18 6c17 0 30 -13 30 -30c0 -10 -5 -19 -12 -24c-40 -30 -94 -49 -136 -49c-54 0 -96 34 -96 82
c0 55 61 114 150 158c-9 27 -15 58 -19 87c-81 -73 -151 -108 -219 -108z" />
    <glyph glyph-name="uring" unicode="&#x16f;" 
d="M210 -13c-88 0 -132 47 -132 141c0 100 58 281 114 415c4 10 15 19 28 19c17 0 30 -13 30 -30c0 -4 -1 -9 -3 -12c-54 -128 -109 -300 -109 -392c0 -59 21 -81 75 -81c62 0 130 36 215 118c11 73 53 262 78 361c3 13 15 23 30 23c17 0 30 -13 30 -30c0 -3 -1 -6 -1 -8
c-27 -106 -79 -335 -79 -371c0 -38 9 -87 22 -125c2 -5 3 -8 3 -11c0 -17 -13 -30 -30 -30c-13 0 -25 8 -29 20c-10 31 -19 67 -23 101c-81 -73 -151 -108 -219 -108zM269 746c0 80 74 154 150 154c66 0 126 -60 126 -128c0 -70 -73 -142 -143 -142c-79 0 -133 45 -133 116z
M316 746c0 -40 29 -69 86 -69c44 0 97 49 97 95c0 42 -37 81 -80 81c-50 0 -103 -53 -103 -107z" />
    <glyph glyph-name="utilde" unicode="&#x169;" 
d="M210 -13c-88 0 -132 47 -132 141c0 100 58 281 114 415c4 10 15 19 28 19c17 0 30 -13 30 -30c0 -4 -1 -9 -3 -12c-54 -128 -109 -300 -109 -392c0 -59 21 -81 75 -81c62 0 130 36 215 118c11 73 53 262 78 361c3 13 15 23 30 23c17 0 30 -13 30 -30c0 -3 -1 -6 -1 -8
c-27 -106 -79 -335 -79 -371c0 -38 9 -87 22 -125c2 -5 3 -8 3 -11c0 -17 -13 -30 -30 -30c-13 0 -25 8 -29 20c-10 31 -19 67 -23 101c-81 -73 -151 -108 -219 -108zM145 661c0 4 0 8 2 11c31 80 100 136 172 136c54 0 83 -30 111 -67c21 -26 34 -42 65 -42
c40 0 82 39 102 98c4 12 15 21 29 21c16 0 30 -14 30 -30c0 -4 -1 -7 -2 -11c-28 -82 -91 -138 -159 -138c-55 0 -84 29 -112 66c-21 27 -34 43 -64 43c-46 0 -94 -40 -116 -98c-4 -11 -15 -19 -28 -19c-17 0 -30 13 -30 30z" />
    <glyph glyph-name="v" unicode="v" 
d="M269 -28c-13 0 -25 8 -29 20c-46 135 -105 366 -131 513c-1 2 -1 4 -1 6c0 16 13 30 30 30c15 0 27 -11 30 -25c21 -121 66 -302 107 -435c91 132 203 326 270 462c4 10 15 17 27 17c16 0 30 -13 30 -30c0 -5 -2 -10 -4 -14c-72 -145 -200 -369 -301 -505c1 -3 2 -6 2 -9
c0 -17 -13 -30 -30 -30z" />
    <glyph glyph-name="w" unicode="w" 
d="M121 -6c-15 0 -27 10 -30 25c-17 76 -27 244 -27 379c0 52 1 96 4 127c2 15 15 27 30 27c17 0 30 -13 30 -30c0 -6 -4 -35 -4 -124c0 -97 6 -218 17 -294c60 103 130 233 179 345c5 10 16 18 28 18c15 0 28 -12 29 -26c11 -105 21 -226 23 -318c69 113 138 257 184 389
c4 12 16 21 29 21c17 0 30 -13 30 -30c0 -4 -1 -7 -2 -11c-58 -166 -150 -352 -239 -479c-6 -7 -15 -13 -25 -13c-17 0 -30 13 -30 30c3 84 -5 196 -16 319c-57 -120 -129 -250 -184 -341c-6 -8 -15 -14 -26 -14z" />
    <glyph glyph-name="wacute" unicode="&#x1e83;" 
d="M121 -6c-15 0 -27 10 -30 25c-17 76 -27 244 -27 379c0 52 1 96 4 127c2 15 15 27 30 27c17 0 30 -13 30 -30c0 -6 -4 -35 -4 -124c0 -97 6 -218 17 -294c60 103 130 233 179 345c5 10 16 18 28 18c15 0 28 -12 29 -26c11 -105 21 -226 23 -318c69 113 138 257 184 389
c4 12 16 21 29 21c17 0 30 -13 30 -30c0 -4 -1 -7 -2 -11c-58 -166 -150 -352 -239 -479c-6 -7 -15 -13 -25 -13c-17 0 -30 13 -30 30c3 84 -5 196 -16 319c-57 -120 -129 -250 -184 -341c-6 -8 -15 -14 -26 -14zM255 648c0 11 6 20 14 26l232 150c4 3 10 5 16 5
c17 0 30 -13 30 -30c0 -10 -5 -20 -14 -25l-231 -151c-5 -3 -10 -5 -17 -5c-16 0 -30 14 -30 30z" />
    <glyph glyph-name="wcircumflex" unicode="&#x175;" 
d="M121 -6c-15 0 -27 10 -30 25c-17 76 -27 244 -27 379c0 52 1 96 4 127c2 15 15 27 30 27c17 0 30 -13 30 -30c0 -6 -4 -35 -4 -124c0 -97 6 -218 17 -294c60 103 130 233 179 345c5 10 16 18 28 18c15 0 28 -12 29 -26c11 -105 21 -226 23 -318c69 113 138 257 184 389
c4 12 16 21 29 21c17 0 30 -13 30 -30c0 -4 -1 -7 -2 -11c-58 -166 -150 -352 -239 -479c-6 -7 -15 -13 -25 -13c-17 0 -30 13 -30 30c3 84 -5 196 -16 319c-57 -120 -129 -250 -184 -341c-6 -8 -15 -14 -26 -14zM176 662c0 11 5 20 14 25c74 48 147 92 219 132
c4 3 9 4 15 4s12 -3 18 -6c61 -46 111 -90 151 -135c4 -6 7 -12 7 -20c0 -17 -13 -30 -30 -30c-9 0 -18 3 -23 10c-33 38 -74 76 -126 115c-67 -37 -132 -77 -198 -120c-5 -3 -11 -5 -17 -5c-17 0 -30 13 -30 30z" />
    <glyph glyph-name="wdieresis" unicode="&#x1e85;" 
d="M121 -6c-15 0 -27 10 -30 25c-17 76 -27 244 -27 379c0 52 1 96 4 127c2 15 15 27 30 27c17 0 30 -13 30 -30c0 -6 -4 -35 -4 -124c0 -97 6 -218 17 -294c60 103 130 233 179 345c5 10 16 18 28 18c15 0 28 -12 29 -26c11 -105 21 -226 23 -318c69 113 138 257 184 389
c4 12 16 21 29 21c17 0 30 -13 30 -30c0 -4 -1 -7 -2 -11c-58 -166 -150 -352 -239 -479c-6 -7 -15 -13 -25 -13c-17 0 -30 13 -30 30c3 84 -5 196 -16 319c-57 -120 -129 -250 -184 -341c-6 -8 -15 -14 -26 -14zM264 668c0 38 4 62 14 85c5 10 15 18 28 18
c16 0 30 -14 30 -30c0 -5 -1 -10 -3 -14c-7 -14 -9 -27 -9 -59c0 -17 -14 -30 -30 -30c-17 0 -30 13 -30 30zM459 679c0 4 1 9 3 13c4 10 9 41 13 65c2 14 15 26 30 26c16 0 30 -14 30 -30c0 -2 0 -4 -1 -6c-4 -24 -10 -62 -17 -79c-5 -12 -16 -19 -28 -19
c-17 0 -30 13 -30 30z" />
    <glyph glyph-name="wgrave" unicode="&#x1e81;" 
d="M121 -6c-15 0 -27 10 -30 25c-17 76 -27 244 -27 379c0 52 1 96 4 127c2 15 15 27 30 27c17 0 30 -13 30 -30c0 -6 -4 -35 -4 -124c0 -97 6 -218 17 -294c60 103 130 233 179 345c5 10 16 18 28 18c15 0 28 -12 29 -26c11 -105 21 -226 23 -318c69 113 138 257 184 389
c4 12 16 21 29 21c17 0 30 -13 30 -30c0 -4 -1 -7 -2 -11c-58 -166 -150 -352 -239 -479c-6 -7 -15 -13 -25 -13c-17 0 -30 13 -30 30c3 84 -5 196 -16 319c-57 -120 -129 -250 -184 -341c-6 -8 -15 -14 -26 -14zM283 793c0 16 13 30 30 30c7 0 14 -3 19 -8l172 -151
c7 -5 11 -13 11 -22c0 -17 -14 -30 -30 -30c-8 0 -15 2 -20 7l-172 151c-6 6 -10 14 -10 23z" />
    <glyph glyph-name="x" unicode="x" 
d="M25 -13c-17 0 -30 13 -30 30c0 7 2 14 7 19c62 75 167 172 260 244c-41 82 -84 148 -141 208c-5 5 -8 12 -8 20c0 17 13 30 30 30c9 0 16 -3 22 -9c55 -58 101 -125 146 -212c91 70 198 171 240 229c6 8 15 13 25 13c17 0 30 -13 30 -30c0 -6 -2 -12 -6 -17
c-46 -66 -165 -177 -261 -251c30 -56 108 -167 155 -227c4 -5 7 -11 7 -18c0 -17 -14 -30 -30 -30c-10 0 -19 4 -24 11c-44 57 -121 165 -157 228c-88 -68 -184 -157 -242 -227c-6 -7 -14 -11 -23 -11z" />
    <glyph glyph-name="y" unicode="y" 
d="M54 -214c-17 0 -30 13 -30 30c0 9 4 17 10 22c73 68 136 138 209 227c-31 139 -89 333 -143 452c-2 4 -3 8 -3 12c0 17 13 30 30 30c13 0 24 -8 28 -19c49 -111 103 -282 136 -415l22 29c83 107 182 257 252 388c5 10 15 17 26 17c17 0 30 -13 30 -30c0 -5 -1 -10 -3 -15
c-74 -140 -178 -294 -258 -397c-105 -137 -189 -233 -285 -323c-6 -5 -13 -8 -21 -8z" />
    <glyph glyph-name="yacute" unicode="&#xfd;" 
d="M54 -214c-17 0 -30 13 -30 30c0 9 4 17 10 22c73 68 136 138 209 227c-31 139 -89 333 -143 452c-2 4 -3 8 -3 12c0 17 13 30 30 30c13 0 24 -8 28 -19c49 -111 103 -282 136 -415l22 29c83 107 182 257 252 388c5 10 15 17 26 17c17 0 30 -13 30 -30c0 -5 -1 -10 -3 -15
c-74 -140 -178 -294 -258 -397c-105 -137 -189 -233 -285 -323c-6 -5 -13 -8 -21 -8zM255 648c0 11 6 20 14 26l232 150c4 3 10 5 16 5c17 0 30 -13 30 -30c0 -10 -5 -20 -14 -25l-231 -151c-5 -3 -10 -5 -17 -5c-16 0 -30 14 -30 30z" />
    <glyph glyph-name="ycircumflex" unicode="&#x177;" 
d="M54 -214c-17 0 -30 13 -30 30c0 9 4 17 10 22c73 68 136 138 209 227c-31 139 -89 333 -143 452c-2 4 -3 8 -3 12c0 17 13 30 30 30c13 0 24 -8 28 -19c49 -111 103 -282 136 -415l22 29c83 107 182 257 252 388c5 10 15 17 26 17c17 0 30 -13 30 -30c0 -5 -1 -10 -3 -15
c-74 -140 -178 -294 -258 -397c-105 -137 -189 -233 -285 -323c-6 -5 -13 -8 -21 -8zM176 662c0 11 5 20 14 25c74 48 147 92 219 132c4 3 9 4 15 4s12 -3 18 -6c61 -46 111 -90 151 -135c4 -6 7 -12 7 -20c0 -17 -13 -30 -30 -30c-9 0 -18 3 -23 10c-33 38 -74 76 -126 115
c-67 -37 -132 -77 -198 -120c-5 -3 -11 -5 -17 -5c-17 0 -30 13 -30 30z" />
    <glyph glyph-name="ydieresis" unicode="&#xff;" 
d="M54 -214c-17 0 -30 13 -30 30c0 9 4 17 10 22c73 68 136 138 209 227c-31 139 -89 333 -143 452c-2 4 -3 8 -3 12c0 17 13 30 30 30c13 0 24 -8 28 -19c49 -111 103 -282 136 -415l22 29c83 107 182 257 252 388c5 10 15 17 26 17c17 0 30 -13 30 -30c0 -5 -1 -10 -3 -15
c-74 -140 -178 -294 -258 -397c-105 -137 -189 -233 -285 -323c-6 -5 -13 -8 -21 -8zM264 668c0 38 4 62 14 85c5 10 15 18 28 18c16 0 30 -14 30 -30c0 -5 -1 -10 -3 -14c-7 -14 -9 -27 -9 -59c0 -17 -14 -30 -30 -30c-17 0 -30 13 -30 30zM459 679c0 4 1 9 3 13
c4 10 9 41 13 65c2 14 15 26 30 26c16 0 30 -14 30 -30c0 -2 0 -4 -1 -6c-4 -24 -10 -62 -17 -79c-5 -12 -16 -19 -28 -19c-17 0 -30 13 -30 30z" />
    <glyph glyph-name="ygrave" unicode="&#x1ef3;" 
d="M54 -214c-17 0 -30 13 -30 30c0 9 4 17 10 22c73 68 136 138 209 227c-31 139 -89 333 -143 452c-2 4 -3 8 -3 12c0 17 13 30 30 30c13 0 24 -8 28 -19c49 -111 103 -282 136 -415l22 29c83 107 182 257 252 388c5 10 15 17 26 17c17 0 30 -13 30 -30c0 -5 -1 -10 -3 -15
c-74 -140 -178 -294 -258 -397c-105 -137 -189 -233 -285 -323c-6 -5 -13 -8 -21 -8zM283 793c0 16 13 30 30 30c7 0 14 -3 19 -8l172 -151c7 -5 11 -13 11 -22c0 -17 -14 -30 -30 -30c-8 0 -15 2 -20 7l-172 151c-6 6 -10 14 -10 23z" />
    <glyph glyph-name="z" unicode="z" 
d="M166 -6c-41 0 -81 1 -120 2c-17 0 -30 14 -30 30c0 9 4 16 10 22c80 86 163 167 247 250c64 63 130 129 196 198c-55 -5 -111 -8 -160 -8c-54 0 -101 3 -133 8c-14 3 -26 15 -26 30c0 17 13 30 30 30c8 0 40 -8 129 -8c132 0 229 15 241 15c17 0 30 -13 30 -30
c0 -9 -3 -16 -9 -22c-88 -92 -174 -176 -257 -258c-66 -65 -132 -131 -195 -198c18 0 38 -1 57 -1c113 0 208 7 283 20c5 1 7 1 9 1c17 0 30 -13 30 -30c0 -15 -11 -27 -25 -30c-89 -15 -193 -21 -307 -21z" />
    <glyph glyph-name="zacute" unicode="&#x17a;" 
d="M166 -6c-41 0 -81 1 -120 2c-17 0 -30 14 -30 30c0 9 4 16 10 22c80 86 163 167 247 250c64 63 130 129 196 198c-55 -5 -111 -8 -160 -8c-54 0 -101 3 -133 8c-14 3 -26 15 -26 30c0 17 13 30 30 30c8 0 40 -8 129 -8c132 0 229 15 241 15c17 0 30 -13 30 -30
c0 -9 -3 -16 -9 -22c-88 -92 -174 -176 -257 -258c-66 -65 -132 -131 -195 -198c18 0 38 -1 57 -1c113 0 208 7 283 20c5 1 7 1 9 1c17 0 30 -13 30 -30c0 -15 -11 -27 -25 -30c-89 -15 -193 -21 -307 -21zM255 648c0 11 6 20 14 26l232 150c4 3 10 5 16 5
c17 0 30 -13 30 -30c0 -10 -5 -20 -14 -25l-231 -151c-5 -3 -10 -5 -17 -5c-16 0 -30 14 -30 30z" />
    <glyph glyph-name="zcaron" unicode="&#x17e;" 
d="M166 -6c-41 0 -81 1 -120 2c-17 0 -30 14 -30 30c0 9 4 16 10 22c80 86 163 167 247 250c64 63 130 129 196 198c-55 -5 -111 -8 -160 -8c-54 0 -101 3 -133 8c-14 3 -26 15 -26 30c0 17 13 30 30 30c8 0 40 -8 129 -8c132 0 229 15 241 15c17 0 30 -13 30 -30
c0 -9 -3 -16 -9 -22c-88 -92 -174 -176 -257 -258c-66 -65 -132 -131 -195 -198c18 0 38 -1 57 -1c113 0 208 7 283 20c5 1 7 1 9 1c17 0 30 -13 30 -30c0 -15 -11 -27 -25 -30c-89 -15 -193 -21 -307 -21zM202 793c0 17 13 30 30 30c9 0 17 -4 23 -10
c33 -39 73 -76 125 -115c67 36 132 76 199 119c5 4 11 6 17 6c17 0 30 -13 30 -30c0 -11 -6 -20 -15 -25c-74 -49 -146 -93 -218 -133c-5 -2 -10 -3 -15 -3c-7 0 -13 2 -18 6c-62 45 -112 90 -151 135c-4 5 -7 12 -7 20z" />
    <glyph glyph-name="zdotaccent" unicode="&#x17c;" 
d="M166 -6c-41 0 -81 1 -120 2c-17 0 -30 14 -30 30c0 9 4 16 10 22c80 86 163 167 247 250c64 63 130 129 196 198c-55 -5 -111 -8 -160 -8c-54 0 -101 3 -133 8c-14 3 -26 15 -26 30c0 17 13 30 30 30c8 0 40 -8 129 -8c132 0 229 15 241 15c17 0 30 -13 30 -30
c0 -9 -3 -16 -9 -22c-88 -92 -174 -176 -257 -258c-66 -65 -132 -131 -195 -198c18 0 38 -1 57 -1c113 0 208 7 283 20c5 1 7 1 9 1c17 0 30 -13 30 -30c0 -15 -11 -27 -25 -30c-89 -15 -193 -21 -307 -21zM344 689c5 73 20 115 68 115c27 0 47 -21 47 -48s-27 -69 -58 -96
c-6 -5 -13 -7 -20 -7c-17 0 -37 16 -37 36z" />
    <glyph glyph-name="a.ss01" 
d="M459 -34c-17 0 -30 13 -30 30v5c2 18 5 42 8 70c-67 -52 -148 -83 -223 -83c-105 0 -167 53 -167 146c0 112 106 182 265 182c50 0 103 -8 147 -21c4 40 6 72 6 86c0 88 -28 121 -98 121c-47 0 -100 -16 -158 -47c-6 -3 -10 -4 -14 -4c-17 0 -30 13 -30 30
c0 12 7 23 17 28c66 34 130 53 185 53c106 0 158 -61 158 -181c0 -52 -25 -300 -36 -389c-2 -14 -15 -26 -30 -26zM107 134c0 -56 34 -85 111 -85c76 0 164 37 227 96c3 29 6 60 9 88c-41 15 -92 23 -142 23c-127 0 -205 -49 -205 -122z" />
    <glyph glyph-name="aacute.ss01" 
d="M459 -34c-17 0 -30 13 -30 30v5c2 18 5 42 8 70c-67 -52 -148 -83 -223 -83c-105 0 -167 53 -167 146c0 112 106 182 265 182c50 0 103 -8 147 -21c4 40 6 72 6 86c0 88 -28 121 -98 121c-47 0 -100 -16 -158 -47c-6 -3 -10 -4 -14 -4c-17 0 -30 13 -30 30
c0 12 7 23 17 28c66 34 130 53 185 53c106 0 158 -61 158 -181c0 -52 -25 -300 -36 -389c-2 -14 -15 -26 -30 -26zM107 134c0 -56 34 -85 111 -85c76 0 164 37 227 96c3 29 6 60 9 88c-41 15 -92 23 -142 23c-127 0 -205 -49 -205 -122zM255 648c0 11 6 20 14 26l232 150
c4 3 10 5 16 5c17 0 30 -13 30 -30c0 -10 -5 -20 -14 -25l-231 -151c-5 -3 -10 -5 -17 -5c-16 0 -30 14 -30 30z" />
    <glyph glyph-name="abreve.ss01" 
d="M459 -34c-17 0 -30 13 -30 30v5c2 18 5 42 8 70c-67 -52 -148 -83 -223 -83c-105 0 -167 53 -167 146c0 112 106 182 265 182c50 0 103 -8 147 -21c4 40 6 72 6 86c0 88 -28 121 -98 121c-47 0 -100 -16 -158 -47c-6 -3 -10 -4 -14 -4c-17 0 -30 13 -30 30
c0 12 7 23 17 28c66 34 130 53 185 53c106 0 158 -61 158 -181c0 -52 -25 -300 -36 -389c-2 -14 -15 -26 -30 -26zM107 134c0 -56 34 -85 111 -85c76 0 164 37 227 96c3 29 6 60 9 88c-41 15 -92 23 -142 23c-127 0 -205 -49 -205 -122zM209 786c0 17 13 30 30 30
c15 0 29 -13 30 -28c4 -52 55 -89 127 -89c73 0 138 40 163 100c4 10 15 19 28 19c17 0 30 -13 30 -30c0 -4 -1 -8 -3 -12c-34 -83 -121 -137 -218 -137c-102 0 -182 59 -187 147z" />
    <glyph glyph-name="acircumflex.ss01" 
d="M459 -34c-17 0 -30 13 -30 30v5c2 18 5 42 8 70c-67 -52 -148 -83 -223 -83c-105 0 -167 53 -167 146c0 112 106 182 265 182c50 0 103 -8 147 -21c4 40 6 72 6 86c0 88 -28 121 -98 121c-47 0 -100 -16 -158 -47c-6 -3 -10 -4 -14 -4c-17 0 -30 13 -30 30
c0 12 7 23 17 28c66 34 130 53 185 53c106 0 158 -61 158 -181c0 -52 -25 -300 -36 -389c-2 -14 -15 -26 -30 -26zM107 134c0 -56 34 -85 111 -85c76 0 164 37 227 96c3 29 6 60 9 88c-41 15 -92 23 -142 23c-127 0 -205 -49 -205 -122zM176 662c0 11 5 20 14 25
c74 48 147 92 219 132c4 3 9 4 15 4s12 -3 18 -6c61 -46 111 -90 151 -135c4 -6 7 -12 7 -20c0 -17 -13 -30 -30 -30c-9 0 -18 3 -23 10c-33 38 -74 76 -126 115c-67 -37 -132 -77 -198 -120c-5 -3 -11 -5 -17 -5c-17 0 -30 13 -30 30z" />
    <glyph glyph-name="adieresis.ss01" 
d="M459 -34c-17 0 -30 13 -30 30v5c2 18 5 42 8 70c-67 -52 -148 -83 -223 -83c-105 0 -167 53 -167 146c0 112 106 182 265 182c50 0 103 -8 147 -21c4 40 6 72 6 86c0 88 -28 121 -98 121c-47 0 -100 -16 -158 -47c-6 -3 -10 -4 -14 -4c-17 0 -30 13 -30 30
c0 12 7 23 17 28c66 34 130 53 185 53c106 0 158 -61 158 -181c0 -52 -25 -300 -36 -389c-2 -14 -15 -26 -30 -26zM107 134c0 -56 34 -85 111 -85c76 0 164 37 227 96c3 29 6 60 9 88c-41 15 -92 23 -142 23c-127 0 -205 -49 -205 -122zM264 668c0 38 4 62 14 85
c5 10 15 18 28 18c16 0 30 -14 30 -30c0 -5 -1 -10 -3 -14c-7 -14 -9 -27 -9 -59c0 -17 -14 -30 -30 -30c-17 0 -30 13 -30 30zM459 679c0 4 1 9 3 13c4 10 9 41 13 65c2 14 15 26 30 26c16 0 30 -14 30 -30c0 -2 0 -4 -1 -6c-4 -24 -10 -62 -17 -79c-5 -12 -16 -19 -28 -19
c-17 0 -30 13 -30 30z" />
    <glyph glyph-name="agrave.ss01" 
d="M459 -34c-17 0 -30 13 -30 30v5c2 18 5 42 8 70c-67 -52 -148 -83 -223 -83c-105 0 -167 53 -167 146c0 112 106 182 265 182c50 0 103 -8 147 -21c4 40 6 72 6 86c0 88 -28 121 -98 121c-47 0 -100 -16 -158 -47c-6 -3 -10 -4 -14 -4c-17 0 -30 13 -30 30
c0 12 7 23 17 28c66 34 130 53 185 53c106 0 158 -61 158 -181c0 -52 -25 -300 -36 -389c-2 -14 -15 -26 -30 -26zM107 134c0 -56 34 -85 111 -85c76 0 164 37 227 96c3 29 6 60 9 88c-41 15 -92 23 -142 23c-127 0 -205 -49 -205 -122zM283 793c0 16 13 30 30 30
c7 0 14 -3 19 -8l172 -151c7 -5 11 -13 11 -22c0 -17 -14 -30 -30 -30c-8 0 -15 2 -20 7l-172 151c-6 6 -10 14 -10 23z" />
    <glyph glyph-name="amacron.ss01" 
d="M459 -34c-17 0 -30 13 -30 30v5c2 18 5 42 8 70c-67 -52 -148 -83 -223 -83c-105 0 -167 53 -167 146c0 112 106 182 265 182c50 0 103 -8 147 -21c4 40 6 72 6 86c0 88 -28 121 -98 121c-47 0 -100 -16 -158 -47c-6 -3 -10 -4 -14 -4c-17 0 -30 13 -30 30
c0 12 7 23 17 28c66 34 130 53 185 53c106 0 158 -61 158 -181c0 -52 -25 -300 -36 -389c-2 -14 -15 -26 -30 -26zM107 134c0 -56 34 -85 111 -85c76 0 164 37 227 96c3 29 6 60 9 88c-41 15 -92 23 -142 23c-127 0 -205 -49 -205 -122zM173 678c0 15 11 28 26 29
c111 16 294 23 384 23c16 0 30 -14 30 -30c0 -17 -14 -30 -30 -30c-89 0 -268 -7 -376 -22h-4c-17 0 -30 13 -30 30z" />
    <glyph glyph-name="aogonek.ss01" 
d="M214 -12c-105 0 -167 53 -167 146c0 112 106 182 265 182c50 0 103 -8 147 -21c4 40 6 72 6 86c0 88 -28 121 -98 121c-47 0 -100 -16 -158 -47c-6 -3 -10 -4 -14 -4c-17 0 -30 13 -30 30c0 12 7 23 17 28c66 34 130 53 185 53c106 0 158 -61 158 -181
c0 -52 -25 -300 -36 -389c-2 -12 -11 -22 -22 -25c-74 -34 -131 -83 -131 -115c0 -19 16 -32 39 -32c29 0 68 15 97 37c6 4 12 6 18 6c17 0 30 -13 30 -30c0 -10 -5 -19 -12 -24c-40 -30 -94 -49 -136 -49c-54 0 -96 34 -96 82c0 55 62 115 153 159l8 70
c-67 -52 -148 -83 -223 -83zM107 134c0 -56 34 -85 111 -85c76 0 164 37 227 96c3 29 6 60 9 88c-41 15 -92 23 -142 23c-127 0 -205 -49 -205 -122z" />
    <glyph glyph-name="aring.ss01" 
d="M459 -34c-17 0 -30 13 -30 30v5c2 18 5 42 8 70c-67 -52 -148 -83 -223 -83c-105 0 -167 53 -167 146c0 112 106 182 265 182c50 0 103 -8 147 -21c4 40 6 72 6 86c0 88 -28 121 -98 121c-47 0 -100 -16 -158 -47c-6 -3 -10 -4 -14 -4c-17 0 -30 13 -30 30
c0 12 7 23 17 28c66 34 130 53 185 53c106 0 158 -61 158 -181c0 -52 -25 -300 -36 -389c-2 -14 -15 -26 -30 -26zM107 134c0 -56 34 -85 111 -85c76 0 164 37 227 96c3 29 6 60 9 88c-41 15 -92 23 -142 23c-127 0 -205 -49 -205 -122zM269 746c0 80 74 154 150 154
c66 0 126 -60 126 -128c0 -70 -73 -142 -143 -142c-79 0 -133 45 -133 116zM316 746c0 -40 29 -69 86 -69c44 0 97 49 97 95c0 42 -37 81 -80 81c-50 0 -103 -53 -103 -107z" />
    <glyph glyph-name="aringacute.ss01" 
d="M459 -34c-17 0 -30 13 -30 30v5c2 18 5 42 8 70c-67 -52 -148 -83 -223 -83c-105 0 -167 53 -167 146c0 112 106 182 265 182c50 0 103 -8 147 -21c4 40 6 72 6 86c0 88 -28 121 -98 121c-47 0 -100 -16 -158 -47c-6 -3 -10 -4 -14 -4c-17 0 -30 13 -30 30
c0 12 7 23 17 28c66 34 130 53 185 53c106 0 158 -61 158 -181c0 -52 -25 -300 -36 -389c-2 -14 -15 -26 -30 -26zM107 134c0 -56 34 -85 111 -85c76 0 164 37 227 96c3 29 6 60 9 88c-41 15 -92 23 -142 23c-127 0 -205 -49 -205 -122zM269 746c0 80 74 154 150 154
c22 0 43 -7 62 -18l196 127c5 4 11 6 17 6c17 0 30 -13 30 -30c0 -11 -6 -21 -15 -25l-184 -121c12 -20 20 -43 20 -67c0 -70 -73 -142 -143 -142c-79 0 -133 45 -133 116zM316 746c0 -40 29 -69 86 -69c44 0 97 49 97 95c0 43 -38 81 -80 81c-50 0 -103 -53 -103 -107z" />
    <glyph glyph-name="atilde.ss01" 
d="M459 -34c-17 0 -30 13 -30 30v5c2 18 5 42 8 70c-67 -52 -148 -83 -223 -83c-105 0 -167 53 -167 146c0 112 106 182 265 182c50 0 103 -8 147 -21c4 40 6 72 6 86c0 88 -28 121 -98 121c-47 0 -100 -16 -158 -47c-6 -3 -10 -4 -14 -4c-17 0 -30 13 -30 30
c0 12 7 23 17 28c66 34 130 53 185 53c106 0 158 -61 158 -181c0 -52 -25 -300 -36 -389c-2 -14 -15 -26 -30 -26zM107 134c0 -56 34 -85 111 -85c76 0 164 37 227 96c3 29 6 60 9 88c-41 15 -92 23 -142 23c-127 0 -205 -49 -205 -122zM145 661c0 4 0 8 2 11
c31 80 100 136 172 136c54 0 83 -30 111 -67c21 -26 34 -42 65 -42c40 0 82 39 102 98c4 12 15 21 29 21c16 0 30 -14 30 -30c0 -4 -1 -7 -2 -11c-28 -82 -91 -138 -159 -138c-55 0 -84 29 -112 66c-21 27 -34 43 -64 43c-46 0 -94 -40 -116 -98c-4 -11 -15 -19 -28 -19
c-17 0 -30 13 -30 30z" />
    <glyph glyph-name="fi" unicode="&#xfb01;" 
d="M-35 -212c-17 0 -30 13 -30 30c0 13 8 24 20 28c71 28 105 80 133 213c24 113 50 294 69 414h-3c-17 0 -35 1 -52 2c-15 1 -27 14 -27 30c0 17 13 30 30 30c6 0 29 -2 49 -2h13c2 12 3 22 5 30c33 161 92 244 192 244c20 0 41 -5 57 -13c10 -5 16 -15 16 -27
c0 -17 -13 -30 -30 -30c-14 0 -17 10 -43 10c-62 0 -105 -58 -132 -196l-3 -14c40 5 78 13 112 25c5 1 8 2 11 2c17 0 30 -13 30 -30c0 -14 -8 -24 -20 -29c-43 -14 -93 -24 -143 -29c-20 -118 -46 -301 -72 -429c-31 -151 -77 -220 -170 -257c-4 -1 -8 -2 -12 -2zM384 17v5
c20 140 74 384 114 509c4 12 15 21 29 21c17 0 30 -13 30 -30c0 -3 0 -6 -2 -10c-39 -121 -91 -362 -111 -498c-2 -15 -15 -27 -30 -27c-17 0 -30 13 -30 30zM532 705c0 14 8 105 56 105c23 0 37 -19 37 -43c0 -27 -21 -69 -40 -89c-5 -5 -12 -9 -20 -9c-21 0 -33 22 -33 36
z" />
    <glyph glyph-name="fl" unicode="&#xfb02;" 
d="M150 473c-17 0 -35 1 -51 2c-15 1 -27 15 -27 30c0 17 13 30 30 30c4 0 19 -2 48 -2h10c2 11 4 22 6 30c32 161 92 244 192 244c19 0 40 -4 56 -13c10 -5 17 -15 17 -27c0 -17 -14 -30 -30 -30c-15 0 -18 10 -43 10c-63 0 -106 -58 -133 -196l-3 -14c38 5 76 13 109 24
c4 2 7 3 11 3c17 0 30 -13 30 -30c0 -13 -8 -24 -20 -29c-42 -14 -91 -24 -140 -29c-20 -118 -46 -301 -72 -429c-31 -151 -76 -220 -170 -257c-4 -1 -7 -2 -12 -2c-16 0 -30 13 -30 30c0 13 8 24 20 28c72 28 106 80 133 213c24 113 50 294 69 414zM356 90
c0 121 105 513 161 704c3 13 15 22 29 22c17 0 30 -13 30 -30c0 -3 0 -6 -1 -9c-66 -221 -158 -588 -158 -678c0 -34 7 -49 22 -49c30 0 68 30 79 30c17 0 30 -13 30 -30c0 -10 -5 -20 -14 -25c-37 -26 -76 -41 -105 -41c-48 0 -73 40 -73 106z" />
    <glyph glyph-name="ordfeminine" unicode="&#xaa;" 
d="M484 296c-15 0 -27 12 -27 27v5c2 11 4 28 6 49c-59 -36 -132 -58 -198 -58c-86 0 -137 40 -137 109c0 88 88 140 220 140c42 0 89 -6 131 -16c1 22 2 40 2 48c0 70 -23 93 -81 93c-42 0 -91 -12 -143 -35c-3 -2 -7 -3 -11 -3c-15 0 -27 12 -27 27c0 11 7 21 16 25
c58 25 116 40 165 40c90 0 134 -49 134 -147c0 -37 -16 -224 -24 -280c-2 -13 -13 -24 -26 -24zM181 428c0 -37 25 -55 84 -55c71 0 149 26 204 69c2 20 4 40 6 59c-39 10 -87 16 -127 16c-104 0 -167 -35 -167 -89z" />
    <glyph glyph-name="ordmasculine" unicode="&#xba;" 
d="M323 303c-109 0 -170 61 -170 169c0 139 119 268 247 268c102 0 163 -69 163 -185c0 -144 -102 -252 -240 -252zM206 472c0 -78 37 -115 117 -115c108 0 187 83 187 198c0 87 -38 131 -110 131c-98 0 -194 -105 -194 -214z" />
    <glyph glyph-name="uni0410" unicode="&#x410;" 
d="M491 -18c-17 0 -30 13 -30 30c0 63 -1 129 -3 196c-97 -4 -207 -12 -317 -23c-35 -57 -65 -112 -88 -159c-5 -10 -15 -17 -27 -17c-17 0 -30 13 -30 30c0 5 1 10 3 14c18 38 42 80 68 125l-6 -1h-4c-17 0 -30 13 -30 30c0 16 12 28 27 30l52 5c101 164 233 346 329 464
c6 6 14 10 23 10c16 0 29 -12 30 -27c24 -231 33 -474 33 -677c0 -17 -13 -30 -30 -30zM181 250c96 8 190 15 276 18c-4 113 -11 228 -22 341c-79 -101 -174 -233 -254 -359z" />
    <glyph glyph-name="uni0411" unicode="&#x411;" 
d="M188 -9c-33 0 -65 2 -93 7c-15 1 -26 14 -26 29v4c14 125 64 379 116 607h-3c-16 0 -30 14 -30 30c0 17 14 30 30 30c30 1 62 1 93 2c70 1 141 2 204 2c34 0 64 0 90 -1c16 0 29 -14 29 -30c0 -17 -13 -30 -30 -30c-8 0 -42 1 -89 1c-63 0 -133 -1 -203 -2l-29 -1
c-17 -74 -34 -152 -50 -227c17 2 35 3 53 3c152 0 272 -87 272 -205c0 -128 -150 -219 -334 -219zM132 54c17 -2 36 -3 56 -3c152 0 274 72 274 159c0 81 -92 145 -212 145c-24 0 -45 -2 -66 -7c-23 -116 -42 -222 -52 -294z" />
    <glyph glyph-name="uni0412" unicode="&#x412;" 
d="M71 -29c-17 0 -30 13 -30 30c0 2 1 4 2 10c24 123 58 310 85 458c17 97 32 178 38 210c3 13 14 23 27 24c45 5 84 7 120 7c168 0 265 -60 265 -174c0 -88 -59 -156 -156 -190c89 -31 140 -79 140 -145c0 -132 -185 -207 -463 -211c-5 -11 -15 -19 -28 -19zM111 50
c236 6 391 68 391 151c0 68 -135 118 -340 122c-17 -94 -35 -191 -51 -273zM173 383c44 -1 85 -4 122 -9c136 9 223 73 223 162c0 74 -67 114 -205 114c-28 0 -59 -2 -92 -4c-7 -37 -19 -106 -34 -188z" />
    <glyph glyph-name="uni0413" unicode="&#x413;" 
d="M81 -12c-17 0 -30 14 -30 30c0 3 0 5 1 7c33 164 106 503 138 634c2 12 12 21 24 23c94 17 189 25 280 25c42 0 84 -2 125 -5c15 -2 27 -15 27 -30c0 -17 -13 -30 -30 -30h-3c-38 3 -78 5 -119 5c-81 0 -165 -7 -250 -21c-33 -139 -102 -456 -133 -613
c-3 -14 -15 -25 -30 -25z" />
    <glyph glyph-name="uni0403" unicode="&#x403;" 
d="M81 -12c-17 0 -30 14 -30 30c0 3 0 5 1 7c33 164 106 503 138 634c2 12 12 21 24 23c94 17 189 25 280 25c42 0 84 -2 125 -5c15 -2 27 -15 27 -30c0 -17 -13 -30 -30 -30h-3c-38 3 -78 5 -119 5c-81 0 -165 -7 -250 -21c-33 -139 -102 -456 -133 -613
c-3 -14 -15 -25 -30 -25zM286 801c0 11 6 20 14 26l232 150c4 3 10 5 16 5c17 0 30 -13 30 -30c0 -10 -5 -20 -14 -25l-231 -151c-5 -3 -10 -5 -17 -5c-16 0 -30 14 -30 30z" />
    <glyph glyph-name="uni0490" unicode="&#x490;" 
d="M80 -15c-16 0 -30 13 -30 30c0 2 1 4 1 6c33 165 107 505 138 636c2 12 12 21 24 23c94 16 190 25 281 25c33 0 66 -1 99 -4c8 34 16 78 22 113c3 14 15 25 30 25c17 0 30 -13 30 -30c0 -2 0 -4 -1 -5c-7 -40 -18 -101 -29 -142c-3 -13 -15 -23 -29 -23h-3
c-38 4 -78 6 -119 6c-81 0 -166 -7 -251 -21c-33 -140 -102 -457 -133 -614c-3 -14 -15 -25 -30 -25z" />
    <glyph glyph-name="uni0492" unicode="&#x492;" 
d="M81 -12c-17 0 -30 14 -30 30c0 3 0 5 1 7c13 65 33 159 53 255l-51 -6h-4c-15 0 -27 12 -27 27c0 13 11 24 24 26c22 3 46 6 70 9c28 128 56 254 73 323c2 12 12 21 24 23c94 17 189 25 280 25c42 0 84 -2 125 -5c15 -2 27 -15 27 -30c0 -17 -13 -30 -30 -30h-3
c-38 3 -78 5 -119 5c-81 0 -165 -7 -250 -21c-16 -66 -40 -173 -64 -284c58 5 117 9 164 10c15 0 26 -11 26 -27c0 -14 -11 -26 -26 -26c-57 -2 -116 -6 -176 -12c-22 -103 -43 -204 -57 -274c-3 -14 -15 -25 -30 -25z" />
    <glyph glyph-name="uni0414" unicode="&#x414;" 
d="M-44 -210c-17 0 -30 13 -30 30c0 3 1 5 2 10c25 93 42 148 60 188c3 10 12 17 24 18l38 5c79 104 142 293 204 624c3 12 13 22 25 24c67 12 201 19 291 20c17 0 30 -13 30 -30c0 -4 -1 -7 -2 -12c-46 -166 -94 -397 -127 -602l18 1c17 0 30 -13 30 -30c0 -3 -1 -6 -2 -10
c-4 -22 -9 -45 -13 -68c-12 -56 -21 -104 -27 -141c-2 -15 -14 -26 -29 -26c-17 0 -30 13 -30 30c0 2 0 4 1 9c3 26 16 87 33 174c-26 -1 -56 -3 -89 -4c-112 -5 -244 -11 -326 -21c-15 -36 -30 -87 -51 -166c-3 -14 -15 -23 -30 -23zM128 48c73 5 158 9 233 12l49 2
c31 195 75 416 120 586c-73 -2 -166 -7 -220 -15c-59 -305 -117 -478 -182 -585z" />
    <glyph glyph-name="uni0415" unicode="&#x415;" 
d="M486 -4c-105 0 -248 7 -333 16c-70 8 -108 39 -108 100c0 33 15 88 33 153l19 73c-7 6 -11 15 -11 24c0 15 10 27 25 30c5 21 10 42 14 64c24 120 33 181 32 216c0 17 13 30 30 30c12 0 22 -7 27 -17c84 13 174 20 259 20c45 0 90 -2 132 -6c16 -1 28 -14 28 -30
c0 -17 -13 -30 -31 -30c-42 4 -85 6 -129 6c-86 0 -176 -7 -259 -20c-4 -41 -13 -97 -30 -181l-12 -53h19c107 0 219 5 310 18h4c17 0 30 -13 30 -30c0 -15 -12 -28 -26 -30c-93 -12 -209 -18 -318 -18h-34c-7 -29 -15 -57 -22 -82c-18 -70 -30 -113 -30 -134
c0 -27 15 -39 55 -43c83 -9 223 -16 326 -16c17 0 30 -13 30 -30s-13 -30 -30 -30z" />
    <glyph glyph-name="uni0401" unicode="&#x401;" 
d="M486 -4c-105 0 -248 7 -333 16c-70 8 -108 39 -108 100c0 33 15 88 33 153l19 73c-7 6 -11 15 -11 24c0 15 10 27 25 30c5 21 10 42 14 64c24 120 33 181 32 216c0 17 13 30 30 30c12 0 22 -7 27 -17c84 13 174 20 259 20c45 0 90 -2 132 -6c16 -1 28 -14 28 -30
c0 -17 -13 -30 -31 -30c-42 4 -85 6 -129 6c-86 0 -176 -7 -259 -20c-4 -41 -13 -97 -30 -181l-12 -53h19c107 0 219 5 310 18h4c17 0 30 -13 30 -30c0 -15 -12 -28 -26 -30c-93 -12 -209 -18 -318 -18h-34c-7 -29 -15 -57 -22 -82c-18 -70 -30 -113 -30 -134
c0 -27 15 -39 55 -43c83 -9 223 -16 326 -16c17 0 30 -13 30 -30s-13 -30 -30 -30zM295 821c0 38 4 62 14 85c5 10 15 18 28 18c16 0 30 -14 30 -30c0 -5 -1 -10 -3 -14c-7 -14 -9 -27 -9 -59c0 -17 -14 -30 -30 -30c-17 0 -30 13 -30 30zM490 832c0 4 1 9 3 13
c4 10 9 41 13 65c2 14 15 26 30 26c16 0 30 -14 30 -30c0 -2 0 -4 -1 -6c-4 -24 -10 -62 -17 -79c-5 -12 -16 -19 -28 -19c-17 0 -30 13 -30 30z" />
    <glyph glyph-name="uni0416" unicode="&#x416;" 
d="M-1 -7c-17 0 -30 13 -30 30c0 6 2 11 4 16c66 103 169 224 255 310c-55 98 -95 213 -115 329v7c0 17 13 30 30 30c15 0 28 -12 30 -26c18 -116 53 -224 103 -316l27 -2c25 114 48 226 65 311c2 13 15 24 29 24c17 0 30 -13 30 -30c0 -2 0 -4 -1 -9
c-16 -81 -38 -189 -63 -300c6 -1 12 -1 17 -1c91 97 174 210 240 333c5 10 15 16 27 16c17 0 30 -13 30 -30c0 -4 -1 -9 -3 -14c-69 -123 -155 -239 -251 -339c52 -85 107 -201 132 -299c1 -4 2 -7 2 -10c0 -17 -13 -30 -30 -30c-15 0 -27 11 -30 24
c-24 97 -74 208 -122 289l-25 1c-24 -107 -49 -216 -71 -306c-3 -14 -15 -24 -29 -24c-17 0 -30 13 -30 30c0 4 0 7 1 11c22 86 46 190 69 294c-7 0 -13 1 -19 2c-83 -84 -182 -204 -246 -305c-5 -9 -15 -16 -26 -16z" />
    <glyph glyph-name="uni0417" unicode="&#x417;" 
d="M226 -11c-66 0 -122 17 -178 53c-8 5 -14 15 -14 26c0 17 13 30 30 30c6 0 11 -2 16 -5c47 -30 91 -44 146 -44c123 0 218 70 218 156c0 77 -58 123 -158 123c-20 0 -38 -1 -56 -3h-3c-17 0 -30 13 -30 30c0 7 3 14 7 19l1 2c4 4 10 8 16 10c195 54 280 107 280 168
c0 56 -42 96 -105 96c-53 0 -122 -17 -183 -46c-4 -2 -8 -3 -12 -3c-17 0 -30 14 -30 30c0 13 7 24 18 28c68 31 147 51 207 51c94 0 165 -65 165 -156c0 -77 -66 -136 -203 -187c90 -15 146 -74 146 -162c0 -122 -122 -216 -278 -216z" />
    <glyph glyph-name="uni0418" unicode="&#x418;" 
d="M483 -19c-16 0 -30 14 -30 30c0 3 1 6 2 9c37 134 86 375 116 564c-143 -155 -329 -390 -457 -579c-5 -8 -14 -13 -25 -13c-16 0 -30 13 -30 30l1 7c39 164 107 531 126 657c2 15 14 26 29 26c17 0 30 -13 30 -30v-5c-15 -101 -63 -363 -98 -530c138 193 318 414 447 547
c6 5 13 8 21 8c17 0 30 -13 30 -30v-5c-29 -208 -89 -506 -133 -663c-3 -13 -15 -23 -29 -23z" />
    <glyph glyph-name="uni0419" unicode="&#x419;" 
d="M483 -19c-16 0 -30 14 -30 30c0 3 1 6 2 9c37 134 86 375 116 564c-143 -155 -329 -390 -457 -579c-5 -8 -14 -13 -25 -13c-16 0 -30 13 -30 30l1 7c39 164 107 531 126 657c2 15 14 26 29 26c17 0 30 -13 30 -30v-5c-15 -101 -63 -363 -98 -530c138 193 318 414 447 547
c6 5 13 8 21 8c17 0 30 -13 30 -30v-5c-29 -208 -89 -506 -133 -663c-3 -13 -15 -23 -29 -23zM230 939c0 17 13 30 30 30c15 0 29 -13 30 -28c4 -52 55 -89 127 -89c73 0 138 40 163 100c4 10 15 19 28 19c17 0 30 -13 30 -30c0 -4 -1 -8 -3 -12
c-34 -83 -121 -137 -218 -137c-102 0 -182 59 -187 147z" />
    <glyph glyph-name="uni041A" unicode="&#x41a;" 
d="M484 -9c-9 0 -17 4 -23 10c-78 82 -178 214 -243 310l-39 2c-22 -102 -40 -203 -52 -296c-1 -15 -14 -26 -29 -26c-17 0 -30 13 -30 30v4c26 206 81 450 147 665c4 13 15 22 29 22c17 0 30 -13 30 -30c0 -3 -1 -7 -2 -10c-29 -96 -56 -198 -80 -299c12 -1 23 -2 33 -2
c134 85 256 192 350 311c5 7 14 12 24 12c17 0 30 -13 30 -30c0 -7 -2 -13 -6 -18c-94 -119 -215 -227 -348 -313c65 -94 159 -217 231 -292c5 -5 8 -13 8 -20c0 -17 -14 -30 -30 -30z" />
    <glyph glyph-name="uni040C" unicode="&#x40c;" 
d="M484 -9c-9 0 -17 4 -23 10c-78 82 -178 214 -243 310l-39 2c-22 -102 -40 -203 -52 -296c-1 -15 -14 -26 -29 -26c-17 0 -30 13 -30 30v4c26 206 81 450 147 665c4 13 15 22 29 22c17 0 30 -13 30 -30c0 -3 -1 -7 -2 -10c-29 -96 -56 -198 -80 -299c12 -1 23 -2 33 -2
c134 85 256 192 350 311c5 7 14 12 24 12c17 0 30 -13 30 -30c0 -7 -2 -13 -6 -18c-94 -119 -215 -227 -348 -313c65 -94 159 -217 231 -292c5 -5 8 -13 8 -20c0 -17 -14 -30 -30 -30zM286 801c0 11 6 20 14 26l232 150c4 3 10 5 16 5c17 0 30 -13 30 -30
c0 -10 -5 -20 -14 -25l-231 -151c-5 -3 -10 -5 -17 -5c-16 0 -30 14 -30 30z" />
    <glyph glyph-name="uni041B" unicode="&#x41b;" 
d="M462 -15c-17 0 -30 13 -30 30c0 2 0 3 1 5c33 236 66 451 116 624c-39 1 -87 3 -135 3c-38 0 -70 -1 -95 -2c-75 -389 -157 -556 -319 -649c-4 -2 -9 -4 -14 -4c-17 0 -30 13 -30 30c0 12 7 22 16 27c140 81 214 231 285 593h-4c-17 0 -30 13 -30 30c0 16 13 29 28 30
c38 3 99 5 163 5c65 0 130 -2 176 -5c16 -1 28 -14 28 -30c0 -3 0 -6 -1 -9c-56 -181 -90 -406 -125 -651c-2 -15 -14 -27 -30 -27z" />
    <glyph glyph-name="uni041C" unicode="&#x41c;" 
d="M1 -12c-17 0 -30 13 -30 30c0 3 0 5 1 8c23 97 50 200 76 301c34 129 66 253 89 355c2 14 14 24 29 24c14 0 26 -10 29 -23c22 -85 86 -303 103 -399c41 69 218 347 261 419c5 9 15 15 26 15c17 0 30 -13 30 -30c0 -4 -8 -85 -12 -123c-17 -188 -36 -388 -55 -538
c-2 -15 -15 -27 -30 -27c-17 0 -30 14 -30 30c19 146 45 420 57 548c-54 -87 -194 -308 -232 -374c-5 -9 -15 -15 -26 -15c-15 0 -28 11 -30 25c-13 92 -61 266 -86 355c-18 -78 -42 -167 -65 -258c-26 -100 -53 -202 -76 -299c-3 -14 -15 -24 -29 -24z" />
    <glyph glyph-name="uni041D" unicode="&#x41d;" 
d="M461 -21c-17 0 -30 13 -30 30c0 1 0 2 1 5c11 81 27 184 42 275c-35 3 -77 4 -121 4c-71 0 -146 -3 -198 -9c-23 -101 -51 -198 -82 -273c-4 -11 -15 -19 -27 -19c-17 0 -30 13 -30 30c0 4 0 9 2 12c65 161 120 442 145 640c2 15 14 27 30 27c17 0 30 -13 30 -30
c0 -1 0 -2 -1 -3c-11 -90 -29 -206 -53 -322c52 5 120 7 184 7c49 0 94 -1 131 -4c8 52 16 97 22 126c14 67 43 158 74 226c5 10 15 17 27 17c17 0 30 -13 30 -30c0 -5 -1 -9 -3 -13c-30 -64 -56 -149 -68 -212c-17 -84 -54 -309 -75 -458c-2 -15 -14 -26 -30 -26z" />
    <glyph glyph-name="uni041E" unicode="&#x41e;" 
d="M238 -7c-118 0 -189 85 -189 227c0 197 176 488 347 488c128 0 203 -88 203 -236c0 -206 -173 -479 -361 -479zM109 220c0 -110 45 -167 129 -167c153 0 301 243 301 419c0 116 -50 176 -143 176c-135 0 -287 -261 -287 -428z" />
    <glyph glyph-name="uni041F" unicode="&#x41f;" 
d="M456 -19c-17 0 -30 13 -30 30v5c35 248 63 438 122 632c-22 2 -49 3 -77 3c-83 0 -178 -5 -238 -12c-35 -182 -102 -459 -152 -623c-3 -12 -15 -21 -29 -21c-16 0 -30 13 -30 30c0 3 1 6 2 9c51 168 121 457 154 637c2 13 13 23 26 25c61 8 171 15 267 15
c47 0 88 -2 120 -5c15 -1 27 -14 27 -30c0 -3 0 -7 -1 -10c-66 -201 -94 -395 -132 -659c-1 -15 -14 -26 -29 -26z" />
    <glyph glyph-name="uni0420" unicode="&#x420;" 
d="M97 -16c-17 0 -30 13 -30 30c0 8 13 72 23 129c26 148 62 355 101 531c3 12 12 21 24 24c32 7 66 11 102 11c147 0 261 -98 261 -227c0 -136 -155 -242 -351 -242c-21 0 -40 1 -59 4c-11 -65 -35 -204 -41 -235c-2 -14 -15 -25 -30 -25zM179 302c15 -2 31 -2 48 -2
c161 0 291 83 291 182c0 94 -86 167 -201 167c-26 0 -49 -2 -71 -6c-24 -110 -48 -231 -67 -341z" />
    <glyph glyph-name="uni0421" unicode="&#x421;" 
d="M259 -15c-135 0 -209 84 -209 237c0 224 172 469 392 469c42 0 81 -9 123 -30l13 55c3 13 15 24 29 24c17 0 30 -14 30 -30c0 -3 0 -5 -1 -8l-49 -214c-3 -13 -15 -23 -30 -23c-16 0 -30 13 -30 30l1 7l23 98c-38 22 -71 31 -109 31c-186 0 -332 -214 -332 -409
c0 -120 49 -177 149 -177c73 0 148 31 242 101c5 4 11 7 19 7c16 0 30 -14 30 -30c0 -10 -5 -18 -12 -24c-103 -78 -191 -114 -279 -114z" />
    <glyph glyph-name="uni0422" unicode="&#x422;" 
d="M269 -10c-16 0 -30 13 -30 30c0 2 1 4 1 7c30 148 76 423 101 606c-30 -1 -60 -1 -89 -1c-39 0 -78 0 -116 1c-16 0 -29 14 -29 30c0 17 13 30 30 30c37 -1 75 -1 115 -1c130 0 267 4 386 13c16 0 30 -13 30 -30c0 -16 -13 -29 -28 -30c-74 -6 -156 -9 -238 -11
c-25 -184 -72 -468 -103 -619c-3 -14 -15 -25 -30 -25z" />
    <glyph glyph-name="uni0423" unicode="&#x423;" 
d="M95 -39c-17 0 -30 13 -30 30c0 9 4 17 11 23c64 57 131 129 197 210c-38 124 -95 301 -144 434c-3 5 -3 9 -3 13c0 17 13 30 30 30c12 0 23 -7 28 -19c46 -123 98 -280 135 -402c107 136 208 287 284 423c5 9 15 15 26 15c17 0 30 -13 30 -30c0 -6 -1 -11 -4 -16
c-130 -231 -347 -533 -540 -704c-5 -4 -12 -7 -20 -7z" />
    <glyph glyph-name="uni040E" unicode="&#x40e;" 
d="M95 -39c-17 0 -30 13 -30 30c0 9 4 17 11 23c64 57 131 129 197 210c-38 124 -95 301 -144 434c-3 5 -3 9 -3 13c0 17 13 30 30 30c12 0 23 -7 28 -19c46 -123 98 -280 135 -402c107 136 208 287 284 423c5 9 15 15 26 15c17 0 30 -13 30 -30c0 -6 -1 -11 -4 -16
c-130 -231 -347 -533 -540 -704c-5 -4 -12 -7 -20 -7zM240 939c0 17 13 30 30 30c15 0 29 -13 30 -28c4 -52 55 -89 127 -89c73 0 138 40 163 100c4 10 15 19 28 19c17 0 30 -13 30 -30c0 -4 -1 -8 -3 -12c-34 -83 -121 -137 -218 -137c-102 0 -182 59 -187 147z" />
    <glyph glyph-name="uni0424" unicode="&#x424;" 
d="M261 -50c-17 0 -30 13 -30 30c0 2 1 4 1 6l9 47c-128 11 -203 104 -203 254c0 191 146 370 311 383c3 20 6 38 8 56c3 15 15 27 30 27c17 0 30 -13 30 -30v-5c-3 -15 -5 -32 -8 -49c129 -16 202 -108 202 -255c0 -191 -139 -359 -309 -380c-4 -22 -7 -42 -11 -59
c-3 -14 -15 -25 -30 -25zM98 287c0 -124 54 -192 155 -198c29 153 64 358 89 523c-129 -19 -244 -168 -244 -325zM311 94c133 26 240 165 240 320c0 119 -52 187 -152 198c-24 -162 -59 -365 -88 -518z" />
    <glyph glyph-name="uni0425" unicode="&#x425;" 
d="M3 -14c-16 0 -30 14 -30 30c0 9 4 17 10 22c89 88 199 204 290 305c-60 127 -94 237 -114 327c0 3 -1 5 -1 8c0 16 14 30 30 30c15 0 27 -11 30 -24c21 -95 53 -193 98 -291c93 106 210 230 291 314c6 5 13 8 21 8c17 0 30 -13 30 -30c0 -8 -3 -15 -8 -21
c-87 -88 -212 -221 -306 -331c39 -79 125 -225 173 -301c3 -5 5 -10 5 -17c0 -16 -13 -30 -30 -30c-10 0 -20 6 -25 14c-44 71 -122 202 -166 286c-88 -98 -191 -207 -277 -290c-5 -5 -13 -9 -21 -9z" />
    <glyph glyph-name="uni0427" unicode="&#x427;" 
d="M256 277c-102 0 -160 57 -160 158c0 46 35 184 55 251c5 12 16 21 29 21c17 0 30 -13 30 -30c0 -4 0 -7 -1 -10c-21 -67 -53 -195 -53 -232c0 -68 31 -98 100 -98c70 0 152 21 215 54c22 113 47 224 69 307c4 13 15 23 30 23c17 0 30 -13 30 -30c0 -3 -1 -6 -1 -9
c-51 -192 -116 -511 -114 -666c0 -17 -13 -30 -30 -30c-16 0 -30 12 -30 29c-2 73 12 185 33 304c-63 -27 -137 -42 -202 -42z" />
    <glyph glyph-name="uni0426" unicode="&#x426;" 
d="M445 -215c-17 0 -30 13 -30 30c0 4 1 9 3 12c18 46 36 108 52 176c-135 -1 -279 -7 -421 -15c-17 0 -30 13 -30 30c0 3 1 5 1 7c36 164 101 484 131 662c2 14 15 26 30 26c17 0 30 -13 30 -30c0 -2 0 -4 -1 -6c-28 -167 -86 -458 -123 -627c97 5 204 10 298 12
c46 150 113 443 152 623c3 15 15 25 30 25c17 0 30 -13 30 -30c0 -3 -1 -5 -1 -7c-37 -174 -101 -453 -148 -610h60c17 0 30 -13 30 -30c0 -3 0 -5 -1 -7c-19 -85 -42 -164 -64 -221c-4 -12 -15 -20 -28 -20z" />
    <glyph glyph-name="uni0428" unicode="&#x428;" 
d="M473 -5c-122 0 -301 1 -449 3c-16 0 -29 14 -29 30v6c28 160 90 472 128 648c3 14 15 24 30 24c16 0 30 -13 30 -30l-1 -7c-36 -164 -92 -448 -122 -611l170 -2c27 155 86 451 128 633c3 14 15 24 29 24c17 0 30 -13 30 -30c0 -3 0 -5 -1 -7c-40 -178 -97 -463 -125 -620
c57 -1 111 -1 158 -1c14 65 32 152 52 244c30 140 62 293 86 400c2 14 14 24 29 24c17 0 30 -13 30 -30c0 -2 0 -5 -1 -7c-23 -107 -56 -259 -86 -400c-21 -102 -42 -199 -57 -267c-2 -14 -14 -24 -29 -24z" />
    <glyph glyph-name="uni0429" unicode="&#x429;" 
d="M448 -215c-17 0 -30 13 -30 30c0 4 1 9 3 12c18 46 37 108 53 179c-199 0 -431 -15 -441 -15c-17 0 -30 13 -30 30c0 3 1 5 1 7c36 163 99 478 130 656c2 14 14 25 29 25c17 0 30 -13 30 -30v-5c-28 -166 -85 -453 -122 -620l144 6c34 141 91 409 137 632
c2 14 15 24 29 24c17 0 30 -13 30 -30c0 -3 0 -6 -2 -16c-36 -174 -95 -454 -131 -608c49 1 97 3 141 3c46 151 115 445 153 627c3 14 15 24 29 24c17 0 30 -13 30 -30v-6c-38 -176 -102 -457 -149 -614h30c17 0 30 -13 30 -30c0 -2 0 -5 -1 -7c-19 -88 -42 -168 -65 -224
c-4 -12 -15 -20 -28 -20z" />
    <glyph glyph-name="uni040F" unicode="&#x40f;" 
d="M466 -5c-8 0 -63 6 -177 8c-16 -80 -24 -146 -26 -191c-1 -17 -14 -29 -30 -29c-17 0 -30 13 -30 30c1 44 11 119 25 190c-93 -1 -171 -5 -177 -5c-17 0 -30 13 -30 30c0 3 1 5 1 7c38 163 101 479 130 656c2 15 15 27 30 27c17 0 30 -13 30 -30c0 -2 0 -4 -1 -6
c-26 -166 -84 -455 -122 -622c50 2 103 3 155 3c72 0 141 -2 198 -6c38 224 78 422 134 625c4 13 16 23 30 23c17 0 30 -13 30 -30c0 -3 -1 -6 -1 -9c-57 -203 -97 -404 -139 -646c-2 -14 -15 -25 -30 -25z" />
    <glyph glyph-name="uni042C" unicode="&#x42c;" 
d="M190 -9c-35 0 -69 3 -98 8c-14 2 -25 14 -25 29v6c52 280 89 485 128 659c3 14 15 24 30 24c17 0 30 -13 30 -30c0 -3 -1 -6 -1 -7c-17 -75 -33 -154 -48 -231c17 3 34 5 53 5c154 0 270 -93 270 -219c0 -138 -149 -244 -339 -244zM132 55c18 -2 38 -4 58 -4
c156 0 279 82 279 184c0 90 -89 159 -210 159c-23 0 -44 -2 -65 -7c-20 -100 -47 -252 -62 -332z" />
    <glyph glyph-name="uni042B" unicode="&#x42b;" 
d="M113 3c-27 0 -53 2 -76 7c-14 3 -24 15 -24 30v6c5 24 10 53 16 86c26 144 64 361 106 546c3 14 15 24 30 24c17 0 30 -13 30 -30c0 -3 0 -6 -1 -7c-14 -62 -28 -127 -39 -191c12 2 25 2 38 2c122 0 204 -84 204 -210c0 -155 -116 -263 -284 -263zM77 65
c12 -1 24 -2 36 -2c135 0 224 82 224 203c0 93 -56 150 -143 150c-19 0 -35 -2 -53 -7zM456 35c0 2 0 3 1 5c41 288 71 490 129 648c3 12 15 21 28 21c17 0 30 -13 30 -30c0 -4 -1 -8 -3 -12c-55 -154 -85 -351 -125 -636c-2 -14 -14 -26 -30 -26c-17 0 -30 13 -30 30z" />
    <glyph glyph-name="uni042A" unicode="&#x42a;" 
d="M260 -8c-30 0 -59 2 -85 7c-14 3 -25 15 -25 30c0 2 0 4 1 6c5 23 10 52 15 84c25 139 63 345 103 527c-74 0 -135 -5 -139 -5c-17 0 -30 13 -30 30c0 16 12 29 27 30c56 4 121 6 179 6c17 0 30 -13 30 -30c0 -3 0 -5 -1 -7c-15 -68 -30 -140 -44 -211c13 2 26 2 40 2
c141 0 237 -84 237 -211c0 -152 -127 -258 -308 -258zM216 54c14 -2 29 -2 44 -2c149 0 248 80 248 198c0 93 -68 151 -177 151c-19 0 -35 -2 -52 -6c-22 -110 -41 -221 -63 -341z" />
    <glyph glyph-name="uni0409" unicode="&#x409;" 
d="M-30 -7c-17 0 -30 13 -30 30c0 15 11 27 25 30c63 12 91 66 130 268c22 104 41 244 51 350c2 16 15 28 30 28c130 0 215 7 223 7c17 0 30 -13 30 -30c0 -2 0 -5 -1 -9c-16 -73 -30 -141 -44 -212c117 -13 195 -96 195 -216c0 -134 -116 -245 -255 -245c-20 0 -38 1 -55 4
c-14 3 -25 15 -25 30v6c5 24 10 52 15 84c30 160 77 417 102 526c-53 -3 -109 -4 -157 -4c-11 -104 -30 -233 -49 -331c-41 -203 -76 -295 -179 -316h-6zM309 54h15c106 0 195 84 195 185c0 90 -57 150 -147 156c-20 -98 -39 -206 -63 -341z" />
    <glyph glyph-name="uni040A" unicode="&#x40a;" 
d="M323 -10c-23 0 -44 2 -64 7c-13 4 -22 16 -22 30v6c7 36 26 146 50 275c-54 -3 -112 -5 -165 -5c-21 -95 -46 -193 -70 -288c-3 -14 -15 -23 -29 -23c-17 0 -30 13 -30 30c0 3 0 5 1 8c59 231 119 481 130 647c1 16 14 28 30 28c17 0 30 -13 30 -30v-1
c-6 -87 -24 -195 -49 -311c54 1 110 2 163 6c21 105 43 216 63 305c3 14 15 24 30 24c17 0 30 -13 30 -30c0 -2 0 -5 -1 -7c-12 -54 -25 -120 -39 -190c8 1 17 1 26 1c107 0 175 -83 175 -210c0 -157 -108 -272 -259 -272zM301 51c7 0 14 -1 22 -1c117 0 199 87 199 212
c0 95 -43 151 -116 151c-13 0 -25 -2 -38 -5c-25 -127 -50 -260 -67 -357z" />
    <glyph glyph-name="uni0405" unicode="&#x405;" 
d="M253 -9c-107 0 -174 28 -227 94c-5 5 -8 12 -8 19c0 17 14 30 30 30c9 0 18 -4 23 -10c42 -53 92 -73 182 -73c123 0 225 80 225 171c0 71 -40 103 -170 121c-111 15 -163 64 -163 158c0 116 115 204 257 204c73 0 131 -15 183 -47c9 -5 15 -15 15 -26
c0 -17 -13 -30 -30 -30c-6 0 -11 2 -15 4c-43 27 -89 39 -153 39c-110 0 -197 -65 -197 -144c0 -60 27 -87 111 -99c155 -21 222 -70 222 -180c0 -127 -130 -231 -285 -231z" />
    <glyph glyph-name="uni0404" unicode="&#x404;" 
d="M259 -15c-135 0 -209 84 -209 237c0 224 172 469 392 469c42 0 81 -9 123 -30l13 55c3 13 15 24 29 24c17 0 30 -14 30 -30c0 -3 0 -5 -1 -8l-49 -214c-3 -13 -15 -23 -30 -23c-16 0 -30 13 -30 30l1 7l23 98c-38 22 -71 31 -109 31c-139 0 -256 -120 -306 -262
c101 9 208 13 275 13c17 0 30 -13 30 -30s-13 -30 -30 -30c-74 0 -190 -5 -292 -15c-6 -28 -9 -57 -9 -85c0 -120 49 -177 149 -177c73 0 148 31 242 101c5 4 11 7 19 7c16 0 30 -14 30 -30c0 -10 -5 -18 -12 -24c-103 -78 -191 -114 -279 -114z" />
    <glyph glyph-name="uni042D" unicode="&#x42d;" 
d="M184 -10c-58 0 -119 17 -167 46c-9 6 -15 15 -15 26c0 17 13 30 30 30c6 0 12 -2 16 -5c40 -24 88 -37 136 -37c166 0 299 119 333 285c-93 -3 -189 -9 -287 -21h-4c-17 0 -30 13 -30 30c0 15 11 28 26 30c100 12 202 18 302 21c1 8 1 15 1 22c0 145 -61 230 -162 230
c-53 0 -108 -17 -174 -55l-25 -94c-4 -13 -15 -23 -30 -23c-17 0 -30 13 -30 30c0 3 1 6 2 11l50 183c3 13 15 23 29 23c17 0 30 -13 30 -30c0 -3 0 -6 -2 -11l-3 -11c53 25 103 37 153 37c137 0 222 -112 222 -290c0 -240 -175 -427 -401 -427z" />
    <glyph glyph-name="uni0406" unicode="&#x406;" 
d="M95 -14c-16 0 -30 13 -30 30c0 15 12 28 27 30c46 5 100 10 154 13c18 193 53 382 106 588c-37 1 -77 2 -117 3c-16 0 -30 14 -30 30c0 17 14 30 30 30c123 -2 234 -6 315 -11c15 -1 28 -14 28 -30c0 -17 -13 -30 -30 -30c-39 2 -85 5 -135 6
c-52 -206 -88 -392 -106 -583c43 2 85 4 120 4c17 0 30 -13 30 -30c0 -16 -13 -30 -29 -30c-111 -1 -243 -9 -333 -20z" />
    <glyph glyph-name="uni0407" unicode="&#x407;" 
d="M95 -14c-16 0 -30 13 -30 30c0 15 12 28 27 30c46 5 100 10 154 13c18 193 53 382 106 588c-37 1 -77 2 -117 3c-16 0 -30 14 -30 30c0 17 14 30 30 30c123 -2 234 -6 315 -11c15 -1 28 -14 28 -30c0 -17 -13 -30 -30 -30c-39 2 -85 5 -135 6
c-52 -206 -88 -392 -106 -583c43 2 85 4 120 4c17 0 30 -13 30 -30c0 -16 -13 -30 -29 -30c-111 -1 -243 -9 -333 -20zM295 821c0 38 4 62 14 85c5 10 15 18 28 18c16 0 30 -14 30 -30c0 -5 -1 -10 -3 -14c-7 -14 -9 -27 -9 -59c0 -17 -14 -30 -30 -30c-17 0 -30 13 -30 30z
M490 832c0 4 1 9 3 13c4 10 9 41 13 65c2 14 15 26 30 26c16 0 30 -14 30 -30c0 -2 0 -4 -1 -6c-4 -24 -10 -62 -17 -79c-5 -12 -16 -19 -28 -19c-17 0 -30 13 -30 30z" />
    <glyph glyph-name="uni0408" unicode="&#x408;" 
d="M279 -57c-117 0 -231 99 -231 202c0 39 17 79 44 103c5 5 12 8 20 8c17 0 30 -14 30 -30c0 -9 -4 -18 -10 -23c-15 -12 -24 -35 -24 -58c0 -69 87 -142 171 -142c40 0 84 67 106 173c21 99 44 255 66 463c-64 -3 -128 -7 -182 -12c-17 0 -30 14 -30 30s12 29 27 30
c102 10 241 15 348 17c17 0 30 -13 30 -30c0 -16 -13 -29 -29 -30l-103 -3c-23 -208 -46 -372 -68 -477c-28 -135 -87 -221 -165 -221z" />
    <glyph glyph-name="uni040B" unicode="&#x40b;" 
d="M475 -4c-17 0 -30 13 -30 30c0 3 0 6 2 9c22 72 50 177 50 227c0 62 -29 91 -95 91c-53 0 -117 -20 -167 -53c-22 -107 -40 -213 -50 -291c-2 -15 -14 -27 -30 -27c-17 0 -30 13 -30 30c0 1 0 3 1 4c22 168 79 465 133 627h-21c-36 0 -72 0 -105 1c-16 1 -29 14 -29 30
c0 17 13 30 30 30c26 0 67 -1 104 -1c110 0 229 5 332 14h3c17 0 30 -13 30 -30c0 -16 -12 -29 -28 -30c-77 -7 -165 -11 -253 -13c-24 -67 -49 -166 -72 -271c50 25 106 40 155 40c97 0 152 -55 152 -151c0 -60 -31 -178 -53 -245c-4 -12 -15 -21 -29 -21z" />
    <glyph glyph-name="uni042E" unicode="&#x42e;" 
d="M357 -16c-79 0 -117 71 -117 198c0 35 3 73 8 112c-12 1 -25 2 -39 2c-28 0 -57 -3 -82 -7c-24 -105 -52 -205 -83 -282c-5 -11 -16 -19 -28 -19c-17 0 -30 14 -30 30c0 5 1 9 2 12c71 175 127 475 149 663c2 15 15 26 30 26c17 0 30 -13 30 -30v-4
c-11 -92 -31 -213 -56 -333c22 2 45 4 68 4c17 0 34 -1 48 -3c34 178 115 357 230 357c83 0 124 -75 124 -206c0 -212 -91 -520 -254 -520zM300 182c0 -89 21 -138 57 -138c116 0 194 276 194 460c0 98 -24 146 -64 146c-106 0 -187 -290 -187 -468z" />
    <glyph glyph-name="uni042F" unicode="&#x42f;" 
d="M467 -13c-17 0 -30 13 -30 30c0 2 0 3 1 5c9 64 24 147 41 237c-39 4 -75 9 -108 16c-110 -85 -230 -194 -323 -294c-6 -6 -13 -9 -22 -9c-17 0 -30 13 -30 30c0 8 3 15 8 20c85 91 193 191 295 272c-112 37 -172 100 -172 187c0 172 229 229 473 224c17 0 30 -14 30 -30
c0 -2 -1 -5 -1 -8c-51 -208 -108 -491 -132 -654c-2 -15 -15 -26 -30 -26zM187 481c0 -89 103 -147 304 -163c22 109 47 226 70 327c-193 -2 -374 -46 -374 -164z" />
    <glyph glyph-name="uni0402" unicode="&#x402;" 
d="M348 -15c-31 0 -58 9 -76 25c-11 4 -19 14 -19 27c0 17 13 30 30 30c4 0 9 -1 11 -3c13 -12 31 -19 54 -19c86 0 150 79 150 185c0 84 -35 125 -104 125c-52 0 -113 -21 -162 -56c-21 -107 -39 -212 -50 -290c-2 -15 -14 -26 -29 -26c-17 0 -30 13 -30 30v5
c23 166 79 462 131 622h-19c-36 0 -70 1 -104 2c-17 0 -29 14 -29 30c0 17 13 30 30 30c26 -1 64 -2 103 -2c109 0 228 6 330 14h3c17 0 30 -13 30 -30c0 -15 -12 -29 -28 -30c-76 -6 -164 -11 -252 -13c-23 -64 -47 -161 -69 -263c47 24 98 37 145 37
c104 0 164 -68 164 -185c0 -138 -90 -245 -210 -245z" />
    <glyph glyph-name="uni0462" unicode="&#x462;" 
d="M109 -14c-17 0 -30 13 -30 30c0 2 0 4 1 10c10 63 35 166 62 276c21 87 43 178 60 261c-35 -1 -67 -1 -94 -1c-17 0 -30 13 -30 30s13 30 30 30l106 1c5 24 9 47 12 68c2 15 14 27 30 27c17 0 30 -13 30 -30c0 -2 0 -4 -1 -9l-9 -55c97 1 207 5 303 11h2
c17 0 30 -13 30 -30c0 -16 -12 -29 -28 -30c-101 -6 -218 -10 -319 -12c-9 -42 -20 -90 -34 -149c14 1 28 1 44 1c174 0 300 -79 300 -199c0 -158 -234 -224 -465 -230zM145 48c181 10 369 57 369 168c0 82 -98 139 -240 139c-22 0 -41 0 -58 -2l-8 -34
c-28 -110 -49 -202 -63 -271z" />
    <glyph glyph-name="uni0472" unicode="&#x472;" 
d="M420 294c-43 0 -75 14 -109 32c-30 16 -51 26 -81 26c-34 0 -67 -9 -106 -32c-10 -35 -15 -69 -15 -100c0 -110 45 -167 129 -167c108 0 213 120 266 253c-27 -8 -54 -12 -84 -12zM49 220c0 197 176 488 347 488c128 0 203 -88 203 -236c0 -206 -173 -479 -361 -479
c-118 0 -189 85 -189 227zM150 398c28 9 54 14 80 14c42 0 74 -14 108 -32c30 -16 51 -26 82 -26c41 0 71 7 108 29c7 31 11 61 11 89c0 116 -50 176 -143 176c-92 0 -191 -120 -246 -250z" />
    <glyph glyph-name="uni0474" unicode="&#x474;" 
d="M240 -18c-14 0 -24 9 -29 21c-51 164 -103 465 -111 682c0 17 13 30 30 30c16 0 29 -12 30 -29c7 -179 45 -425 88 -585c81 186 163 365 211 461c51 101 94 145 152 145c26 0 53 -11 73 -30c5 -5 9 -13 9 -22c0 -17 -13 -30 -30 -30c-16 0 -27 20 -52 20
c-30 0 -59 -33 -98 -110c-55 -109 -153 -322 -245 -535c-4 -10 -15 -18 -28 -18z" />
    <glyph glyph-name="uni0496" unicode="&#x496;" 
d="M485 -214c-17 0 -30 13 -30 30c0 4 1 7 3 11c13 40 32 104 48 166h-19c-16 0 -28 12 -30 27c-16 97 -50 205 -84 286l-23 1c-24 -108 -49 -216 -71 -306c-3 -14 -15 -24 -29 -24c-17 0 -30 13 -30 30c0 3 0 6 1 9c22 87 46 191 69 296c-7 0 -13 1 -19 2
c-83 -84 -182 -204 -246 -305c-5 -9 -15 -16 -26 -16c-17 0 -30 13 -30 30c0 6 2 11 4 16c66 103 169 224 255 310c-55 98 -95 213 -115 332v4c0 17 13 30 30 30c15 0 28 -12 30 -26c18 -116 53 -224 103 -316l27 -2c25 115 48 226 65 311c2 13 15 24 29 24
c17 0 30 -13 30 -30v-6c-16 -83 -39 -191 -64 -303c6 -1 12 -1 17 -1c91 97 174 210 240 333c5 10 15 16 27 16c17 0 30 -13 30 -30c0 -5 -2 -10 -3 -14c-70 -124 -157 -241 -253 -341c35 -77 71 -181 91 -276h33c17 0 30 -13 30 -30c0 -2 0 -5 -1 -8
c-18 -74 -42 -159 -61 -209c-3 -12 -15 -21 -28 -21z" />
    <glyph glyph-name="uni049A" unicode="&#x49a;" 
d="M460 -210c-17 0 -30 13 -30 30c0 4 1 8 3 12c13 38 32 102 47 161h-13c-10 0 -16 4 -20 9c-73 80 -167 211 -230 309l-38 2c-22 -102 -40 -202 -51 -295c-2 -16 -15 -27 -30 -27c-17 0 -30 13 -30 30l1 9c24 201 80 445 146 660c4 13 15 22 29 22c17 0 30 -13 30 -30
c0 -4 0 -7 -2 -12c-29 -95 -56 -196 -79 -297c11 -1 22 -2 32 -2c134 85 256 192 350 311c5 8 14 12 24 12c17 0 30 -13 30 -30c0 -7 -2 -14 -6 -18c-94 -119 -216 -228 -349 -314c57 -89 141 -204 208 -280h37c17 0 30 -13 30 -30c0 -3 0 -6 -1 -9
c-18 -71 -41 -154 -60 -202c-3 -12 -15 -21 -28 -21z" />
    <glyph glyph-name="uni04A2" unicode="&#x4a2;" 
d="M461 -21c-17 0 -30 13 -30 30c0 1 0 2 1 5c11 81 27 184 42 275c-35 3 -77 4 -121 4c-71 0 -146 -3 -198 -9c-23 -101 -51 -198 -82 -273c-4 -11 -15 -19 -27 -19c-17 0 -30 13 -30 30c0 4 0 9 2 12c65 161 120 442 145 640c2 15 14 27 30 27c17 0 30 -13 30 -30
c0 -1 0 -2 -1 -3c-11 -90 -29 -206 -53 -322c52 5 120 7 184 7c49 0 94 -1 131 -4c8 52 16 97 22 126c14 67 43 158 74 226c5 10 15 17 27 17c17 0 30 -13 30 -30c0 -5 -1 -9 -3 -13c-30 -64 -56 -149 -68 -212c-16 -78 -49 -276 -70 -423h13c17 0 30 -13 30 -30
c0 -3 0 -5 -1 -8c-18 -74 -41 -155 -58 -203c-4 -12 -15 -20 -28 -20c-17 0 -30 13 -30 30c0 4 0 7 2 11c13 37 31 98 46 159h-9z" />
    <glyph glyph-name="uni04AE" unicode="&#x4ae;" 
d="M261 -12c-17 0 -30 13 -30 30c0 2 0 5 1 7c15 67 35 150 57 239c-42 112 -105 271 -160 393c-2 4 -3 9 -3 14c0 17 13 30 30 30c12 0 22 -7 27 -17c49 -109 106 -251 147 -360c101 122 199 258 274 380c5 8 15 14 25 14c17 0 30 -13 30 -30c0 -6 -2 -12 -5 -17
c-79 -129 -190 -284 -307 -418c-21 -91 -41 -174 -57 -242c-3 -13 -15 -23 -29 -23z" />
    <glyph glyph-name="uni04B0" unicode="&#x4b0;" 
d="M261 -12c-17 0 -30 13 -30 30c0 2 0 5 1 7c13 56 29 125 47 199c-37 -4 -73 -8 -109 -13h-4c-15 0 -27 12 -27 27c0 13 11 24 24 26c37 5 78 10 120 14c-41 111 -101 262 -154 379c-2 4 -3 9 -3 14c0 17 13 30 30 30c12 0 22 -7 27 -17c49 -109 106 -251 147 -360
c101 122 199 258 274 380c5 8 15 14 25 14c17 0 30 -13 30 -30c0 -6 -2 -12 -5 -17c-73 -119 -173 -260 -279 -386c30 2 59 3 85 4c15 0 26 -11 26 -27c0 -14 -11 -26 -26 -26c-39 -1 -78 -4 -118 -7l-52 -218c-3 -13 -15 -23 -29 -23z" />
    <glyph glyph-name="uni04B2" unicode="&#x4b2;" 
d="M3 -14c-17 0 -30 13 -30 30c0 9 4 16 10 22c88 87 198 202 287 302c-56 123 -91 236 -111 331c0 2 -1 4 -1 7c0 17 13 30 30 30c15 0 27 -11 30 -25c20 -96 52 -194 95 -293c94 107 212 232 294 317c6 5 13 8 21 8c17 0 30 -13 30 -30c0 -8 -3 -15 -9 -21
c-87 -89 -214 -224 -308 -333c36 -75 112 -208 158 -285h32c17 0 30 -13 30 -30c0 -2 0 -5 -1 -8c-18 -75 -41 -157 -60 -206c-4 -12 -15 -20 -28 -20c-17 0 -30 13 -30 30c0 3 0 8 2 11c15 39 33 101 48 163h-8c-13 0 -23 5 -28 14c-42 69 -115 198 -158 282
c-87 -98 -190 -205 -274 -287c-5 -6 -12 -9 -21 -9z" />
    <glyph glyph-name="uni04B6" unicode="&#x4b6;" 
d="M256 277c-102 0 -160 57 -160 158c0 46 35 184 55 251c5 12 16 21 29 21c17 0 30 -13 30 -30c0 -4 0 -7 -1 -10c-21 -67 -53 -195 -53 -232c0 -68 31 -98 100 -98c70 0 152 21 215 54c22 113 47 224 69 307c4 13 15 23 30 23c17 0 30 -13 30 -30c0 -3 -1 -6 -1 -9
c-48 -180 -108 -472 -114 -635h18c17 0 30 -13 30 -30c0 -3 0 -5 -1 -8c-18 -74 -41 -155 -58 -203c-4 -12 -15 -20 -28 -20c-17 0 -30 13 -30 30c0 4 0 7 2 11c13 37 31 98 46 159h-9c-16 0 -30 12 -30 29c-2 73 12 185 33 304c-63 -27 -137 -42 -202 -42z" />
    <glyph glyph-name="uni04BA" unicode="&#x4ba;" 
d="M469 -8c-17 0 -30 13 -30 30c0 3 0 6 1 9c21 69 50 179 50 219c0 78 -36 113 -109 113c-71 0 -151 -20 -213 -54c-22 -110 -42 -221 -54 -305c-2 -15 -14 -26 -30 -26s-30 13 -30 30c0 1 0 3 1 5c28 194 95 536 151 685c4 12 15 20 28 20c17 0 30 -13 30 -30
c0 -4 -1 -7 -2 -11c-25 -67 -53 -177 -79 -294c62 25 135 40 198 40c107 0 169 -63 169 -173c0 -50 -33 -174 -52 -237c-4 -12 -16 -21 -29 -21z" />
    <glyph glyph-name="uni04C0" unicode="&#x4c0;" 
d="M95 -14c-16 0 -30 13 -30 30c0 15 12 28 27 30c46 5 100 10 154 13c18 193 53 382 106 588c-37 1 -77 2 -117 3c-16 0 -30 14 -30 30c0 17 14 30 30 30c123 -2 234 -6 315 -11c15 -1 28 -14 28 -30c0 -17 -13 -30 -30 -30c-39 2 -85 5 -135 6
c-52 -206 -88 -392 -106 -583c43 2 85 4 120 4c17 0 30 -13 30 -30c0 -16 -13 -30 -29 -30c-111 -1 -243 -9 -333 -20z" />
    </font>
</defs>
</svg>
