<?xml version="1.0" standalone="no"?>
<!DOCTYPE svg PUBLIC "-//W3C//DTD SVG 1.1//EN" "http://www.w3.org/Graphics/SVG/1.1/DTD/svg11.dtd" >
<svg xmlns="http://www.w3.org/2000/svg" xmlns:xlink="http://www.w3.org/1999/xlink" version="1.1">
<metadata>
Created by FontForge 20201107 at Mon May  2 01:01:55 2022
 By Unknown
Copyright \(c\) 2019 by Toshi Omagari. All rights reserved.
</metadata>
<defs>
<font id="ComicCode-Bold" horiz-adv-x="620" >
  <font-face 
    font-family="Comic Code"
    font-weight="700"
    font-stretch="normal"
    units-per-em="1000"
    panose-1="0 0 0 0 0 0 0 0 0 0"
    ascent="800"
    descent="-200"
    x-height="576"
    cap-height="718"
    bbox="-1194 -454 781 1136"
    underline-thickness="50"
    underline-position="-125"
    stemh="140"
    stemv="140"
    unicode-range="U+000D-FB02"
  />
<missing-glyph 
d="M375 -184c-101 0 -214 3 -310 9c-32 2 -57 28 -57 60c0 185 12 589 17 765c0 4 1 8 2 12c-21 9 -35 30 -35 54c0 33 26 59 58 60c87 3 222 5 340 5c55 0 106 0 149 -1c33 -1 59 -27 59 -60c0 -286 -6 -669 -20 -845c-2 -30 -26 -54 -57 -56c-42 -2 -91 -3 -146 -3z
M129 -59c79 -3 167 -5 246 -5c31 0 60 0 87 1c10 174 15 475 16 724h-88c-85 0 -178 -1 -246 -3c1 -3 1 -7 1 -11c-1 -46 -14 -559 -16 -706zM155 520c0 19 10 37 24 48c36 27 86 45 128 45c88 0 153 -72 153 -162c0 -70 -46 -133 -120 -175c-9 -5 -21 -11 -21 -16
c0 -8 5 -17 5 -30c0 -33 -26 -60 -60 -60c-27 0 -49 18 -57 43c-8 24 -13 47 -13 66c0 43 25 72 68 92c50 22 78 54 78 80c0 27 -14 42 -33 42c-16 0 -39 -8 -55 -20c-10 -8 -23 -13 -37 -13c-33 0 -60 26 -60 60zM203 48c0 48 40 82 89 82c46 0 85 -36 85 -83
c0 -50 -47 -92 -88 -92c-21 0 -40 11 -51 29c-22 13 -35 36 -35 64z" />
    <glyph glyph-name=".notdef" 
d="M375 -184c-101 0 -214 3 -310 9c-32 2 -57 28 -57 60c0 185 12 589 17 765c0 4 1 8 2 12c-21 9 -35 30 -35 54c0 33 26 59 58 60c87 3 222 5 340 5c55 0 106 0 149 -1c33 -1 59 -27 59 -60c0 -286 -6 -669 -20 -845c-2 -30 -26 -54 -57 -56c-42 -2 -91 -3 -146 -3z
M129 -59c79 -3 167 -5 246 -5c31 0 60 0 87 1c10 174 15 475 16 724h-88c-85 0 -178 -1 -246 -3c1 -3 1 -7 1 -11c-1 -46 -14 -559 -16 -706zM155 520c0 19 10 37 24 48c36 27 86 45 128 45c88 0 153 -72 153 -162c0 -70 -46 -133 -120 -175c-9 -5 -21 -11 -21 -16
c0 -8 5 -17 5 -30c0 -33 -26 -60 -60 -60c-27 0 -49 18 -57 43c-8 24 -13 47 -13 66c0 43 25 72 68 92c50 22 78 54 78 80c0 27 -14 42 -33 42c-16 0 -39 -8 -55 -20c-10 -8 -23 -13 -37 -13c-33 0 -60 26 -60 60zM203 48c0 48 40 82 89 82c46 0 85 -36 85 -83
c0 -50 -47 -92 -88 -92c-21 0 -40 11 -51 29c-22 13 -35 36 -35 64z" />
    <glyph glyph-name="CR" unicode="&#xd;" 
 />
    <glyph glyph-name="space" unicode=" " 
 />
    <glyph glyph-name="A" unicode="A" 
d="M530 -36c-34 0 -63 25 -69 58c-9 48 -20 96 -30 145c-67 -4 -160 -11 -239 -19c-16 -39 -29 -75 -38 -106c-9 -29 -36 -51 -68 -51c-39 0 -70 31 -70 70c0 8 1 15 3 22c6 21 14 44 23 68c-17 12 -28 33 -28 56c0 36 27 66 63 70l18 2c66 148 154 309 222 413
c12 20 34 33 59 33c32 0 59 -22 67 -51c59 -195 114 -416 155 -625c1 -5 2 -10 2 -15c0 -39 -31 -70 -70 -70zM257 295c49 4 96 8 141 10c-14 59 -29 118 -45 176c-33 -60 -66 -124 -96 -186z" />
    <glyph glyph-name="Aacute" unicode="&#xc1;" 
d="M530 -36c-34 0 -63 25 -69 58c-9 48 -20 96 -30 145c-67 -4 -160 -11 -239 -19c-16 -39 -29 -75 -38 -106c-9 -29 -36 -51 -68 -51c-39 0 -70 31 -70 70c0 8 1 15 3 22c6 21 14 44 23 68c-17 12 -28 33 -28 56c0 36 27 66 63 70l18 2c66 148 154 309 222 413
c12 20 34 33 59 33c32 0 59 -22 67 -51c59 -195 114 -416 155 -625c1 -5 2 -10 2 -15c0 -39 -31 -70 -70 -70zM209 815c0 23 11 44 29 57l201 150c11 9 26 14 42 14c39 0 70 -31 70 -70c0 -23 -11 -44 -29 -57l-201 -150c-11 -9 -26 -14 -42 -14c-39 0 -70 31 -70 70z
M257 295c49 4 96 8 141 10c-14 59 -29 118 -45 176c-33 -60 -66 -124 -96 -186z" />
    <glyph glyph-name="Abreve" unicode="&#x102;" 
d="M530 -36c-34 0 -63 25 -69 58c-9 48 -20 96 -30 145c-67 -4 -160 -11 -239 -19c-16 -39 -29 -75 -38 -106c-9 -29 -36 -51 -68 -51c-39 0 -70 31 -70 70c0 8 1 15 3 22c6 21 14 44 23 68c-17 12 -28 33 -28 56c0 36 27 66 63 70l18 2c66 148 154 309 222 413
c12 20 34 33 59 33c32 0 59 -22 67 -51c59 -195 114 -416 155 -625c1 -5 2 -10 2 -15c0 -39 -31 -70 -70 -70zM136 939c0 39 31 70 70 70c33 0 60 -22 68 -52c11 -37 57 -65 113 -65c53 0 90 25 98 63c7 32 35 56 69 56c39 0 70 -31 70 -70c0 -6 -1 -11 -2 -16
c-23 -104 -117 -173 -235 -173s-219 68 -248 166c-2 7 -3 14 -3 21zM257 295c49 4 96 8 141 10c-14 59 -29 118 -45 176c-33 -60 -66 -124 -96 -186z" />
    <glyph glyph-name="Acircumflex" unicode="&#xc2;" 
d="M530 -36c-34 0 -63 25 -69 58c-9 48 -20 96 -30 145c-67 -4 -160 -11 -239 -19c-16 -39 -29 -75 -38 -106c-9 -29 -36 -51 -68 -51c-39 0 -70 31 -70 70c0 8 1 15 3 22c6 21 14 44 23 68c-17 12 -28 33 -28 56c0 36 27 66 63 70l18 2c66 148 154 309 222 413
c12 20 34 33 59 33c32 0 59 -22 67 -51c59 -195 114 -416 155 -625c1 -5 2 -10 2 -15c0 -39 -31 -70 -70 -70zM128 815c0 23 11 44 29 56c61 47 126 91 195 134c11 7 24 11 38 11s28 -4 39 -12c73 -47 132 -93 181 -138c14 -13 22 -31 22 -51c0 -39 -31 -70 -70 -70
c-19 0 -35 7 -48 19c-34 32 -75 65 -125 99c-52 -34 -101 -68 -148 -104c-12 -9 -27 -14 -43 -14c-39 0 -70 31 -70 70zM257 295c49 4 96 8 141 10c-14 59 -29 118 -45 176c-33 -60 -66 -124 -96 -186z" />
    <glyph glyph-name="Adieresis" unicode="&#xc4;" 
d="M530 -36c-34 0 -63 25 -69 58c-9 48 -20 96 -30 145c-67 -4 -160 -11 -239 -19c-16 -39 -29 -75 -38 -106c-9 -29 -36 -51 -68 -51c-39 0 -70 31 -70 70c0 8 1 15 3 22c6 21 14 44 23 68c-17 12 -28 33 -28 56c0 36 27 66 63 70l18 2c66 148 154 309 222 413
c12 20 34 33 59 33c32 0 59 -22 67 -51c59 -195 114 -416 155 -625c1 -5 2 -10 2 -15c0 -39 -31 -70 -70 -70zM209 869c0 10 2 27 4 38c7 33 35 57 69 57c39 0 70 -31 70 -70c0 -9 -1 -19 -1 -30c0 -13 4 -33 4 -43c0 -39 -31 -70 -70 -70c-34 0 -63 25 -69 57
c-5 24 -7 44 -7 61zM257 295c49 4 96 8 141 10c-14 59 -29 118 -45 176c-33 -60 -66 -124 -96 -186zM408 832c0 9 2 16 2 32s-1 33 -1 42c0 39 31 70 70 70c38 0 68 -30 70 -67c1 -11 1 -29 1 -45c0 -13 -1 -30 -3 -42c-4 -34 -34 -60 -69 -60c-39 0 -70 31 -70 70z" />
    <glyph glyph-name="Agrave" unicode="&#xc0;" 
d="M530 -36c-34 0 -63 25 -69 58c-9 48 -20 96 -30 145c-67 -4 -160 -11 -239 -19c-16 -39 -29 -75 -38 -106c-9 -29 -36 -51 -68 -51c-39 0 -70 31 -70 70c0 8 1 15 3 22c6 21 14 44 23 68c-17 12 -28 33 -28 56c0 36 27 66 63 70l18 2c66 148 154 309 222 413
c12 20 34 33 59 33c32 0 59 -22 67 -51c59 -195 114 -416 155 -625c1 -5 2 -10 2 -15c0 -39 -31 -70 -70 -70zM209 946c0 39 31 70 70 70c16 0 31 -5 42 -14l201 -150c18 -13 29 -34 29 -57c0 -39 -31 -70 -70 -70c-16 0 -31 5 -42 14l-201 150c-18 13 -29 34 -29 57z
M257 295c49 4 96 8 141 10c-14 59 -29 118 -45 176c-33 -60 -66 -124 -96 -186z" />
    <glyph glyph-name="Amacron" unicode="&#x100;" 
d="M530 -36c-34 0 -63 25 -69 58c-9 48 -20 96 -30 145c-67 -4 -160 -11 -239 -19c-16 -39 -29 -75 -38 -106c-9 -29 -36 -51 -68 -51c-39 0 -70 31 -70 70c0 8 1 15 3 22c6 21 14 44 23 68c-17 12 -28 33 -28 56c0 36 27 66 63 70l18 2c66 148 154 309 222 413
c12 20 34 33 59 33c32 0 59 -22 67 -51c59 -195 114 -416 155 -625c1 -5 2 -10 2 -15c0 -39 -31 -70 -70 -70zM122 831c0 36 27 65 61 69c110 16 294 23 384 23c39 0 70 -31 70 -70s-31 -70 -70 -70c-219 0 -365 -22 -375 -22c-39 0 -70 31 -70 70zM257 295
c49 4 96 8 141 10c-14 59 -29 118 -45 176c-33 -60 -66 -124 -96 -186z" />
    <glyph glyph-name="Aogonek" unicode="&#x104;" 
d="M485 -242c-82 0 -149 55 -149 129c0 55 41 109 122 152l-27 128c-67 -4 -160 -11 -239 -19c-16 -39 -29 -75 -38 -106c-9 -29 -36 -51 -68 -51c-39 0 -70 31 -70 70c0 8 1 15 3 22c6 21 14 44 23 68c-17 12 -28 33 -28 56c0 36 27 66 63 70l18 2c66 148 154 309 222 413
c12 20 34 33 59 33c32 0 59 -22 67 -51c59 -195 114 -416 155 -625c1 -5 2 -10 2 -15c0 -30 -18 -55 -45 -65c-42 -22 -79 -53 -79 -64c0 -5 4 -7 9 -7c20 0 46 10 64 26c12 10 28 17 46 17c39 0 70 -31 70 -70c0 -21 -10 -40 -25 -53c-41 -36 -103 -60 -155 -60zM257 295
c49 4 96 8 141 10c-14 59 -29 118 -45 176c-33 -60 -66 -124 -96 -186z" />
    <glyph glyph-name="Aring" unicode="&#xc5;" 
d="M530 -36c-34 0 -63 25 -69 58c-9 48 -20 96 -30 145c-67 -4 -160 -11 -239 -19c-16 -39 -29 -75 -38 -106c-9 -29 -36 -51 -68 -51c-39 0 -70 31 -70 70c0 8 1 15 3 22c6 21 14 44 23 68c-17 12 -28 33 -28 56c0 36 27 66 63 70l18 2c66 148 154 309 222 413
c12 20 34 33 59 33c32 0 59 -22 67 -51c59 -195 114 -416 155 -625c1 -5 2 -10 2 -15c0 -39 -31 -70 -70 -70zM202 918c0 94 81 175 177 175c91 0 178 -80 178 -165c0 -90 -78 -171 -172 -171c-106 0 -183 66 -183 161zM257 295c49 4 96 8 141 10c-14 59 -29 118 -45 176
c-33 -60 -66 -124 -96 -186zM302 918c0 -38 26 -61 83 -61c39 0 72 35 72 71c0 30 -45 65 -78 65c-34 0 -77 -36 -77 -75z" />
    <glyph glyph-name="Aringacute" unicode="&#x1fa;" 
d="M530 -36c-34 0 -63 25 -69 58c-9 48 -20 96 -30 145c-67 -4 -160 -11 -239 -19c-16 -39 -29 -75 -38 -106c-9 -29 -36 -51 -68 -51c-39 0 -70 31 -70 70c0 8 1 15 3 22c6 21 14 44 23 68c-17 12 -28 33 -28 56c0 36 27 66 63 70l18 2c56 125 128 260 190 362
c-51 27 -83 76 -83 137c0 95 81 175 177 175c18 0 36 -3 54 -9l145 110c12 9 27 14 43 14c39 0 70 -31 70 -70c0 -23 -11 -44 -29 -56l-121 -91c10 -20 16 -41 16 -63c0 -67 -42 -128 -102 -155c55 -185 105 -390 143 -584c1 -5 2 -10 2 -15c0 -39 -31 -70 -70 -70zM257 295
c49 4 96 8 141 10c-14 59 -29 118 -45 176c-33 -60 -66 -124 -96 -186zM302 778c0 -29 16 -50 49 -58c8 3 16 5 25 5c10 0 19 -2 27 -5c31 8 54 38 54 68s-45 65 -78 65c-34 0 -77 -36 -77 -75z" />
    <glyph glyph-name="Atilde" unicode="&#xc3;" 
d="M530 -36c-34 0 -63 25 -69 58c-9 48 -20 96 -30 145c-67 -4 -160 -11 -239 -19c-16 -39 -29 -75 -38 -106c-9 -29 -36 -51 -68 -51c-39 0 -70 31 -70 70c0 8 1 15 3 22c6 21 14 44 23 68c-17 12 -28 33 -28 56c0 36 27 66 63 70l18 2c66 148 154 309 222 413
c12 20 34 33 59 33c32 0 59 -22 67 -51c59 -195 114 -416 155 -625c1 -5 2 -10 2 -15c0 -39 -31 -70 -70 -70zM97 814c0 5 1 10 1 14c20 100 96 173 190 173c60 0 99 -24 149 -76c29 -29 35 -33 49 -33c15 0 32 19 38 58c4 34 33 61 69 61c39 0 70 -31 70 -70
c0 -4 0 -7 -1 -11c-14 -103 -83 -178 -176 -178c-60 0 -99 24 -149 76c-29 29 -35 33 -49 33c-23 0 -45 -23 -52 -59c-6 -33 -34 -58 -69 -58c-39 0 -70 31 -70 70zM257 295c49 4 96 8 141 10c-14 59 -29 118 -45 176c-33 -60 -66 -124 -96 -186z" />
    <glyph glyph-name="AE" unicode="&#xc6;" 
d="M71 -19c-39 0 -70 31 -70 70c0 5 1 10 2 15c6 30 13 62 22 96c-16 13 -26 33 -26 55c0 36 26 65 62 70c44 143 100 294 145 395c11 25 36 43 65 43c23 0 43 -13 53 -32l10 3c38 8 87 13 139 13c26 0 51 -1 75 -3c36 -3 64 -33 64 -70c0 -39 -31 -70 -70 -70
c-7 0 -38 3 -69 3c-18 0 -33 -1 -46 -1c-3 -40 -6 -86 -9 -133c65 4 103 14 114 14c39 0 70 -31 70 -70c0 -34 -25 -63 -58 -69c-38 -7 -85 -13 -132 -16c-2 -50 -3 -95 -3 -129c0 -29 1 -31 19 -31c24 0 67 9 102 21c7 2 15 4 24 4c39 0 70 -31 70 -70
c0 -31 -20 -58 -49 -67c-47 -16 -109 -28 -147 -28c-100 0 -159 66 -159 171c-41 -2 -75 -5 -102 -7c-11 -43 -20 -83 -27 -119c-6 -33 -35 -58 -69 -58zM208 301c22 2 44 4 66 5c4 81 11 173 18 248c-28 -75 -58 -164 -84 -253z" />
    <glyph glyph-name="AEacute" unicode="&#x1fc;" 
d="M71 -19c-39 0 -70 31 -70 70c0 5 1 10 2 15c6 30 13 62 22 96c-16 13 -26 33 -26 55c0 36 26 65 62 70c44 143 100 294 145 395c11 25 36 43 65 43c23 0 43 -13 53 -32l10 3c38 8 87 13 139 13c26 0 51 -1 75 -3c36 -3 64 -33 64 -70c0 -39 -31 -70 -70 -70
c-7 0 -38 3 -69 3c-18 0 -33 -1 -46 -1c-3 -40 -6 -86 -9 -133c65 4 103 14 114 14c39 0 70 -31 70 -70c0 -34 -25 -63 -58 -69c-38 -7 -85 -13 -132 -16c-2 -50 -3 -95 -3 -129c0 -29 1 -31 19 -31c24 0 67 9 102 21c7 2 15 4 24 4c39 0 70 -31 70 -70
c0 -31 -20 -58 -49 -67c-47 -16 -109 -28 -147 -28c-100 0 -159 66 -159 171c-41 -2 -75 -5 -102 -7c-11 -43 -20 -83 -27 -119c-6 -33 -35 -58 -69 -58zM208 301c22 2 44 4 66 5c4 81 11 173 18 248c-28 -75 -58 -164 -84 -253zM239 815c0 23 11 44 29 57l201 150
c11 9 26 14 42 14c39 0 70 -31 70 -70c0 -23 -11 -44 -29 -57l-201 -150c-11 -9 -26 -14 -42 -14c-39 0 -70 31 -70 70z" />
    <glyph glyph-name="B" unicode="B" 
d="M126 -49c-39 0 -70 31 -70 70c0 35 -10 535 -10 619c0 37 28 67 64 70c50 5 88 7 122 7c198 0 323 -73 323 -222c0 -59 -25 -106 -66 -139c69 -34 109 -82 109 -148c0 -151 -166 -222 -417 -230c-12 -17 -32 -27 -55 -27zM187 576l3 -161c27 -1 54 -3 80 -6
c95 4 145 39 145 86c0 54 -54 82 -183 82c-14 0 -29 0 -45 -1zM192 274l3 -155c167 8 263 47 263 89c0 22 -111 58 -266 66z" />
    <glyph glyph-name="C" unicode="C" 
d="M297 -22c-170 0 -271 111 -271 297c0 248 139 423 338 423c25 0 52 -4 79 -12c2 38 32 67 70 67c39 0 70 -31 70 -70l-7 -217c-1 -38 -32 -68 -70 -68c-39 0 -70 31 -70 70l2 72c-28 12 -51 18 -74 18c-117 0 -198 -111 -198 -283c0 -110 41 -157 131 -157
c60 0 117 27 187 91c12 11 29 18 47 18c39 0 70 -31 70 -70c0 -21 -9 -39 -23 -52c-94 -85 -185 -127 -281 -127z" />
    <glyph glyph-name="Cacute" unicode="&#x106;" 
d="M297 -22c-170 0 -271 111 -271 297c0 248 139 423 338 423c25 0 52 -4 79 -12c2 38 32 67 70 67c39 0 70 -31 70 -70l-7 -217c-1 -38 -32 -68 -70 -68c-39 0 -70 31 -70 70l2 72c-28 12 -51 18 -74 18c-117 0 -198 -111 -198 -283c0 -110 41 -157 131 -157
c60 0 117 27 187 91c12 11 29 18 47 18c39 0 70 -31 70 -70c0 -21 -9 -39 -23 -52c-94 -85 -185 -127 -281 -127zM139 815c0 23 11 44 29 57l201 150c11 9 26 14 42 14c39 0 70 -31 70 -70c0 -23 -11 -44 -29 -57l-201 -150c-11 -9 -26 -14 -42 -14c-39 0 -70 31 -70 70z
" />
    <glyph glyph-name="Ccaron" unicode="&#x10c;" 
d="M297 -22c-170 0 -271 111 -271 297c0 248 139 423 338 423c25 0 52 -4 79 -12c2 38 32 67 70 67c39 0 70 -31 70 -70l-7 -217c-1 -38 -32 -68 -70 -68c-39 0 -70 31 -70 70l2 72c-28 12 -51 18 -74 18c-117 0 -198 -111 -198 -283c0 -110 41 -157 131 -157
c60 0 117 27 187 91c12 11 29 18 47 18c39 0 70 -31 70 -70c0 -21 -9 -39 -23 -52c-94 -85 -185 -127 -281 -127zM58 946c0 39 31 70 70 70c19 0 35 -7 48 -19c34 -32 75 -65 125 -99c52 34 101 68 148 104c12 9 27 14 43 14c39 0 70 -31 70 -70c0 -23 -11 -44 -29 -56
c-61 -47 -126 -91 -195 -134c-11 -7 -24 -11 -38 -11s-28 4 -39 12c-73 47 -132 93 -181 138c-14 13 -22 31 -22 51z" />
    <glyph glyph-name="Ccedilla" unicode="&#xc7;" 
d="M506 398c-39 0 -70 31 -70 70l2 72c-28 12 -51 18 -74 18c-117 0 -198 -111 -198 -283c0 -110 41 -157 131 -157c60 0 117 27 187 91c12 11 29 18 47 18c39 0 70 -31 70 -70c0 -21 -9 -39 -23 -52c-51 -46 -101 -79 -151 -100c23 -28 36 -63 36 -100
c0 -101 -96 -172 -215 -172c-9 0 -18 0 -26 1c-36 3 -65 33 -65 70c0 39 31 70 70 70l21 -1c45 0 75 13 75 32c0 11 -11 23 -43 29c-28 4 -51 25 -58 52c-124 29 -196 132 -196 289c0 248 139 423 338 423c25 0 52 -4 79 -12c2 38 32 67 70 67c39 0 70 -31 70 -70l-7 -217
c-1 -38 -32 -68 -70 -68z" />
    <glyph glyph-name="Ccircumflex" unicode="&#x108;" 
d="M297 -22c-170 0 -271 111 -271 297c0 248 139 423 338 423c25 0 52 -4 79 -12c1 27 17 49 39 60c-15 2 -27 8 -38 18c-34 32 -75 65 -125 99c-52 -34 -101 -68 -148 -104c-12 -9 -27 -14 -43 -14c-39 0 -70 31 -70 70c0 23 11 44 29 56c61 47 126 91 195 134
c11 7 24 11 38 11s28 -4 39 -12c73 -47 132 -93 181 -138c14 -13 22 -31 22 -51c0 -28 -16 -51 -39 -63c34 -5 60 -34 60 -69l-7 -217c-1 -38 -32 -68 -70 -68c-39 0 -70 31 -70 70l2 72c-28 12 -51 18 -74 18c-117 0 -198 -111 -198 -283c0 -110 41 -157 131 -157
c60 0 117 27 187 91c12 11 29 18 47 18c39 0 70 -31 70 -70c0 -21 -9 -39 -23 -52c-94 -85 -185 -127 -281 -127z" />
    <glyph glyph-name="Cdotaccent" unicode="&#x10a;" 
d="M297 -22c-170 0 -271 111 -271 297c0 248 139 423 338 423c25 0 52 -4 79 -12c2 38 32 67 70 67c39 0 70 -31 70 -70l-7 -217c-1 -38 -32 -68 -70 -68c-39 0 -70 31 -70 70l2 72c-28 12 -51 18 -74 18c-117 0 -198 -111 -198 -283c0 -110 41 -157 131 -157
c60 0 117 27 187 91c12 11 29 18 47 18c39 0 70 -31 70 -70c0 -21 -9 -39 -23 -52c-94 -85 -185 -127 -281 -127zM218 886c0 63 32 111 94 111c51 0 91 -41 91 -92c0 -38 -23 -85 -53 -117c-13 -14 -31 -22 -51 -22c-18 0 -34 6 -46 17c-17 11 -29 30 -32 51
c-2 21 -3 38 -3 52z" />
    <glyph glyph-name="D" unicode="D" 
d="M197 -13c-30 0 -68 6 -100 16c-29 8 -51 35 -51 67c4 51 9 123 9 226c0 85 -3 196 -7 282c-21 12 -35 32 -35 60c0 37 28 66 64 70c25 3 66 5 90 5c269 0 431 -130 431 -349c0 -222 -164 -377 -401 -377zM188 573c4 -87 7 -194 7 -277c0 -61 -2 -118 -5 -169h7
c161 0 261 93 261 237c0 132 -90 204 -270 209z" />
    <glyph glyph-name="Eth" unicode="&#xd0;" 
d="M197 -13c-30 0 -68 6 -100 16c-29 8 -51 35 -51 67c4 48 8 115 9 209c-17 -3 -28 -4 -33 -4c-34 0 -60 27 -60 60c0 31 23 56 52 59l40 6c-1 61 -3 124 -6 178c-21 12 -35 32 -35 60c0 37 28 66 64 70c25 3 66 5 90 5c269 0 431 -130 431 -349
c0 -222 -164 -377 -401 -377zM188 573c2 -49 4 -105 6 -159c52 4 101 7 131 7c34 0 60 -26 60 -60c0 -32 -26 -59 -58 -60c-50 -2 -94 -4 -132 -7c0 -61 -2 -117 -5 -167h7c161 0 261 93 261 237c0 132 -90 204 -270 209z" />
    <glyph glyph-name="Dcaron" unicode="&#x10e;" 
d="M197 -13c-30 0 -68 6 -100 16c-29 8 -51 35 -51 67c4 51 9 123 9 226c0 85 -3 196 -7 282c-21 12 -35 32 -35 60c0 37 28 66 64 70c25 3 66 5 90 5c269 0 431 -130 431 -349c0 -222 -164 -377 -401 -377zM58 946c0 39 31 70 70 70c19 0 35 -7 48 -19
c34 -32 75 -65 125 -99c52 34 101 68 148 104c12 9 27 14 43 14c39 0 70 -31 70 -70c0 -23 -11 -44 -29 -56c-61 -47 -126 -91 -195 -134c-11 -7 -24 -11 -38 -11s-28 4 -39 12c-73 47 -132 93 -181 138c-14 13 -22 31 -22 51zM188 573c4 -87 7 -194 7 -277
c0 -61 -2 -118 -5 -169h7c161 0 261 93 261 237c0 132 -90 204 -270 209z" />
    <glyph glyph-name="Dcroat" unicode="&#x110;" 
d="M197 -13c-30 0 -68 6 -100 16c-29 8 -51 35 -51 67c4 48 8 115 9 209c-17 -3 -28 -4 -33 -4c-34 0 -60 27 -60 60c0 31 23 56 52 59l40 6c-1 61 -3 124 -6 178c-21 12 -35 32 -35 60c0 37 28 66 64 70c25 3 66 5 90 5c269 0 431 -130 431 -349
c0 -222 -164 -377 -401 -377zM188 573c2 -49 4 -105 6 -159c52 4 101 7 131 7c34 0 60 -26 60 -60c0 -32 -26 -59 -58 -60c-50 -2 -94 -4 -132 -7c0 -61 -2 -117 -5 -167h7c161 0 261 93 261 237c0 132 -90 204 -270 209z" />
    <glyph glyph-name="E" unicode="E" 
d="M529 -11c-98 0 -231 7 -313 16c-105 11 -162 69 -162 170c0 31 4 83 8 138c-12 12 -20 30 -20 49c0 22 10 42 26 55c1 12 1 23 1 33c0 164 -12 171 -12 189c0 39 31 70 70 70c16 0 30 -5 42 -14c70 11 145 17 217 17c47 0 93 -2 137 -6c36 -3 64 -33 64 -70
c0 -39 -31 -70 -70 -70c-10 0 -70 6 -131 6c-60 0 -122 -4 -179 -13c1 -29 2 -65 2 -109v-18c93 0 164 2 257 16c3 1 7 1 11 1c39 0 70 -31 70 -70c0 -36 -27 -65 -61 -69c-78 -12 -188 -18 -285 -19c-4 -51 -7 -97 -7 -116c0 -24 0 -27 36 -30c79 -9 207 -16 299 -16
c39 0 70 -31 70 -70s-31 -70 -70 -70z" />
    <glyph glyph-name="Eacute" unicode="&#xc9;" 
d="M529 -11c-98 0 -231 7 -313 16c-105 11 -162 69 -162 170c0 31 4 83 8 138c-12 12 -20 30 -20 49c0 22 10 42 26 55c1 12 1 23 1 33c0 164 -12 171 -12 189c0 39 31 70 70 70c16 0 30 -5 42 -14c70 11 145 17 217 17c47 0 93 -2 137 -6c36 -3 64 -33 64 -70
c0 -39 -31 -70 -70 -70c-10 0 -70 6 -131 6c-60 0 -122 -4 -179 -13c1 -29 2 -65 2 -109v-18c93 0 164 2 257 16c3 1 7 1 11 1c39 0 70 -31 70 -70c0 -36 -27 -65 -61 -69c-78 -12 -188 -18 -285 -19c-4 -51 -7 -97 -7 -116c0 -24 0 -27 36 -30c79 -9 207 -16 299 -16
c39 0 70 -31 70 -70s-31 -70 -70 -70zM139 815c0 23 11 44 29 57l201 150c11 9 26 14 42 14c39 0 70 -31 70 -70c0 -23 -11 -44 -29 -57l-201 -150c-11 -9 -26 -14 -42 -14c-39 0 -70 31 -70 70z" />
    <glyph glyph-name="Ebreve" unicode="&#x114;" 
d="M529 -11c-98 0 -231 7 -313 16c-105 11 -162 69 -162 170c0 31 4 83 8 138c-12 12 -20 30 -20 49c0 22 10 42 26 55c1 12 1 23 1 33c0 164 -12 171 -12 189c0 39 31 70 70 70c16 0 30 -5 42 -14c70 11 145 17 217 17c47 0 93 -2 137 -6c36 -3 64 -33 64 -70
c0 -39 -31 -70 -70 -70c-10 0 -70 6 -131 6c-60 0 -122 -4 -179 -13c1 -29 2 -65 2 -109v-18c93 0 164 2 257 16c3 1 7 1 11 1c39 0 70 -31 70 -70c0 -36 -27 -65 -61 -69c-78 -12 -188 -18 -285 -19c-4 -51 -7 -97 -7 -116c0 -24 0 -27 36 -30c79 -9 207 -16 299 -16
c39 0 70 -31 70 -70s-31 -70 -70 -70zM66 939c0 39 31 70 70 70c33 0 60 -22 68 -52c11 -37 57 -65 113 -65c53 0 90 25 98 63c7 32 35 56 69 56c39 0 70 -31 70 -70c0 -6 -1 -11 -2 -16c-23 -104 -117 -173 -235 -173s-219 68 -248 166c-2 7 -3 14 -3 21z" />
    <glyph glyph-name="Ecaron" unicode="&#x11a;" 
d="M529 -11c-98 0 -231 7 -313 16c-105 11 -162 69 -162 170c0 31 4 83 8 138c-12 12 -20 30 -20 49c0 22 10 42 26 55c1 12 1 23 1 33c0 164 -12 171 -12 189c0 39 31 70 70 70c16 0 30 -5 42 -14c70 11 145 17 217 17c47 0 93 -2 137 -6c36 -3 64 -33 64 -70
c0 -39 -31 -70 -70 -70c-10 0 -70 6 -131 6c-60 0 -122 -4 -179 -13c1 -29 2 -65 2 -109v-18c93 0 164 2 257 16c3 1 7 1 11 1c39 0 70 -31 70 -70c0 -36 -27 -65 -61 -69c-78 -12 -188 -18 -285 -19c-4 -51 -7 -97 -7 -116c0 -24 0 -27 36 -30c79 -9 207 -16 299 -16
c39 0 70 -31 70 -70s-31 -70 -70 -70zM58 946c0 39 31 70 70 70c19 0 35 -7 48 -19c34 -32 75 -65 125 -99c52 34 101 68 148 104c12 9 27 14 43 14c39 0 70 -31 70 -70c0 -23 -11 -44 -29 -56c-61 -47 -126 -91 -195 -134c-11 -7 -24 -11 -38 -11s-28 4 -39 12
c-73 47 -132 93 -181 138c-14 13 -22 31 -22 51z" />
    <glyph glyph-name="Ecircumflex" unicode="&#xca;" 
d="M529 -11c-98 0 -231 7 -313 16c-105 11 -162 69 -162 170c0 31 4 83 8 138c-12 12 -20 30 -20 49c0 22 10 42 26 55c1 12 1 23 1 33c0 164 -12 171 -12 189c0 39 31 70 70 70c16 0 30 -5 42 -14c70 11 145 17 217 17c47 0 93 -2 137 -6c36 -3 64 -33 64 -70
c0 -39 -31 -70 -70 -70c-10 0 -70 6 -131 6c-60 0 -122 -4 -179 -13c1 -29 2 -65 2 -109v-18c93 0 164 2 257 16c3 1 7 1 11 1c39 0 70 -31 70 -70c0 -36 -27 -65 -61 -69c-78 -12 -188 -18 -285 -19c-4 -51 -7 -97 -7 -116c0 -24 0 -27 36 -30c79 -9 207 -16 299 -16
c39 0 70 -31 70 -70s-31 -70 -70 -70zM58 815c0 23 11 44 29 56c61 47 126 91 195 134c11 7 24 11 38 11s28 -4 39 -12c73 -47 132 -93 181 -138c14 -13 22 -31 22 -51c0 -39 -31 -70 -70 -70c-19 0 -35 7 -48 19c-34 32 -75 65 -125 99c-52 -34 -101 -68 -148 -104
c-12 -9 -27 -14 -43 -14c-39 0 -70 31 -70 70z" />
    <glyph glyph-name="Edieresis" unicode="&#xcb;" 
d="M529 -11c-98 0 -231 7 -313 16c-105 11 -162 69 -162 170c0 31 4 83 8 138c-12 12 -20 30 -20 49c0 22 10 42 26 55c1 12 1 23 1 33c0 164 -12 171 -12 189c0 39 31 70 70 70c16 0 30 -5 42 -14c70 11 145 17 217 17c47 0 93 -2 137 -6c36 -3 64 -33 64 -70
c0 -39 -31 -70 -70 -70c-10 0 -70 6 -131 6c-60 0 -122 -4 -179 -13c1 -29 2 -65 2 -109v-18c93 0 164 2 257 16c3 1 7 1 11 1c39 0 70 -31 70 -70c0 -36 -27 -65 -61 -69c-78 -12 -188 -18 -285 -19c-4 -51 -7 -97 -7 -116c0 -24 0 -27 36 -30c79 -9 207 -16 299 -16
c39 0 70 -31 70 -70s-31 -70 -70 -70zM139 869c0 10 2 27 4 38c7 33 35 57 69 57c39 0 70 -31 70 -70c0 -9 -1 -19 -1 -30c0 -13 4 -33 4 -43c0 -39 -31 -70 -70 -70c-34 0 -63 25 -69 57c-5 24 -7 44 -7 61zM338 832c0 9 2 16 2 32s-1 33 -1 42c0 39 31 70 70 70
c38 0 68 -30 70 -67c1 -11 1 -29 1 -45c0 -13 -1 -30 -3 -42c-4 -34 -34 -60 -69 -60c-39 0 -70 31 -70 70z" />
    <glyph glyph-name="Edotaccent" unicode="&#x116;" 
d="M529 -11c-98 0 -231 7 -313 16c-105 11 -162 69 -162 170c0 31 4 83 8 138c-12 12 -20 30 -20 49c0 22 10 42 26 55c1 12 1 23 1 33c0 164 -12 171 -12 189c0 39 31 70 70 70c16 0 30 -5 42 -14c70 11 145 17 217 17c47 0 93 -2 137 -6c36 -3 64 -33 64 -70
c0 -39 -31 -70 -70 -70c-10 0 -70 6 -131 6c-60 0 -122 -4 -179 -13c1 -29 2 -65 2 -109v-18c93 0 164 2 257 16c3 1 7 1 11 1c39 0 70 -31 70 -70c0 -36 -27 -65 -61 -69c-78 -12 -188 -18 -285 -19c-4 -51 -7 -97 -7 -116c0 -24 0 -27 36 -30c79 -9 207 -16 299 -16
c39 0 70 -31 70 -70s-31 -70 -70 -70zM218 886c0 63 32 111 94 111c51 0 91 -41 91 -92c0 -38 -23 -85 -53 -117c-13 -14 -31 -22 -51 -22c-18 0 -34 6 -46 17c-17 11 -29 30 -32 51c-2 21 -3 38 -3 52z" />
    <glyph glyph-name="Egrave" unicode="&#xc8;" 
d="M529 -11c-98 0 -231 7 -313 16c-105 11 -162 69 -162 170c0 31 4 83 8 138c-12 12 -20 30 -20 49c0 22 10 42 26 55c1 12 1 23 1 33c0 164 -12 171 -12 189c0 39 31 70 70 70c16 0 30 -5 42 -14c70 11 145 17 217 17c47 0 93 -2 137 -6c36 -3 64 -33 64 -70
c0 -39 -31 -70 -70 -70c-10 0 -70 6 -131 6c-60 0 -122 -4 -179 -13c1 -29 2 -65 2 -109v-18c93 0 164 2 257 16c3 1 7 1 11 1c39 0 70 -31 70 -70c0 -36 -27 -65 -61 -69c-78 -12 -188 -18 -285 -19c-4 -51 -7 -97 -7 -116c0 -24 0 -27 36 -30c79 -9 207 -16 299 -16
c39 0 70 -31 70 -70s-31 -70 -70 -70zM139 946c0 39 31 70 70 70c16 0 31 -5 42 -14l201 -150c18 -13 29 -34 29 -57c0 -39 -31 -70 -70 -70c-16 0 -31 5 -42 14l-201 150c-18 13 -29 34 -29 57z" />
    <glyph glyph-name="Emacron" unicode="&#x112;" 
d="M529 -11c-98 0 -231 7 -313 16c-105 11 -162 69 -162 170c0 31 4 83 8 138c-12 12 -20 30 -20 49c0 22 10 42 26 55c1 12 1 23 1 33c0 164 -12 171 -12 189c0 39 31 70 70 70c16 0 30 -5 42 -14c70 11 145 17 217 17c47 0 93 -2 137 -6c36 -3 64 -33 64 -70
c0 -39 -31 -70 -70 -70c-10 0 -70 6 -131 6c-60 0 -122 -4 -179 -13c1 -29 2 -65 2 -109v-18c93 0 164 2 257 16c3 1 7 1 11 1c39 0 70 -31 70 -70c0 -36 -27 -65 -61 -69c-78 -12 -188 -18 -285 -19c-4 -51 -7 -97 -7 -116c0 -24 0 -27 36 -30c79 -9 207 -16 299 -16
c39 0 70 -31 70 -70s-31 -70 -70 -70zM52 831c0 36 27 65 61 69c110 16 294 23 384 23c39 0 70 -31 70 -70s-31 -70 -70 -70c-219 0 -365 -22 -375 -22c-39 0 -70 31 -70 70z" />
    <glyph glyph-name="Eogonek" unicode="&#x118;" 
d="M484 -217c-82 0 -149 55 -149 129c0 28 10 56 31 82c-55 3 -109 7 -150 11c-105 11 -162 69 -162 170c0 31 4 83 8 138c-12 12 -20 30 -20 49c0 22 10 42 26 55c1 12 1 23 1 33c0 164 -12 171 -12 189c0 39 31 70 70 70c16 0 30 -5 42 -14c70 11 145 17 217 17
c47 0 93 -2 137 -6c36 -3 64 -33 64 -70c0 -39 -31 -70 -70 -70c-10 0 -70 6 -131 6c-60 0 -122 -4 -179 -13c1 -29 2 -65 2 -109v-18c93 0 164 2 257 16c3 1 7 1 11 1c39 0 70 -31 70 -70c0 -36 -27 -65 -61 -69c-78 -12 -188 -18 -285 -19c-4 -51 -7 -97 -7 -116
c0 -24 0 -27 36 -30c79 -9 207 -16 299 -16c39 0 70 -31 70 -70c0 -30 -18 -55 -45 -65c-42 -22 -79 -53 -79 -64c0 -5 4 -7 9 -7c20 0 46 10 64 26c12 10 28 17 46 17c39 0 70 -31 70 -70c0 -21 -10 -40 -25 -53c-41 -36 -103 -60 -155 -60z" />
    <glyph glyph-name="F" unicode="F" 
d="M132 -15c-39 0 -70 31 -70 70c0 90 7 321 7 365c0 174 -12 194 -12 219c0 39 31 70 70 70c16 0 31 -6 43 -15c80 12 162 18 240 18c45 0 89 -2 133 -6c36 -3 64 -33 64 -70c0 -39 -31 -70 -70 -70c-7 0 -70 6 -127 6c-67 0 -136 -5 -204 -14c2 -38 3 -81 3 -138v-15
c68 7 136 11 197 11c32 0 63 -1 91 -3c36 -3 65 -33 65 -70c0 -39 -31 -70 -70 -70c-5 0 -57 3 -86 3c-62 0 -132 -4 -200 -12c-2 -78 -4 -164 -4 -209c0 -39 -31 -70 -70 -70z" />
    <glyph glyph-name="G" unicode="G" 
d="M287 -6c-157 0 -266 118 -266 289c0 219 156 426 324 426c50 0 133 -23 188 -51c23 -12 39 -35 39 -63c0 -39 -31 -70 -70 -70c-12 0 -23 3 -33 8c-38 20 -95 36 -124 36c-86 0 -184 -146 -184 -286c0 -95 47 -149 126 -149c69 0 121 53 140 138c-62 -9 -91 -15 -103 -15
c-39 0 -70 31 -70 70c0 35 26 64 60 69c60 10 205 29 226 29c39 0 70 -31 70 -70c0 -28 -16 -51 -39 -63c-18 -175 -131 -298 -284 -298z" />
    <glyph glyph-name="Gbreve" unicode="&#x11e;" 
d="M287 -6c-157 0 -266 118 -266 289c0 219 156 426 324 426c50 0 133 -23 188 -51c23 -12 39 -35 39 -63c0 -39 -31 -70 -70 -70c-12 0 -23 3 -33 8c-38 20 -95 36 -124 36c-86 0 -184 -146 -184 -286c0 -95 47 -149 126 -149c69 0 121 53 140 138c-62 -9 -91 -15 -103 -15
c-39 0 -70 31 -70 70c0 35 26 64 60 69c60 10 205 29 226 29c39 0 70 -31 70 -70c0 -28 -16 -51 -39 -63c-18 -175 -131 -298 -284 -298zM66 939c0 39 31 70 70 70c33 0 60 -22 68 -52c11 -37 57 -65 113 -65c53 0 90 25 98 63c7 32 35 56 69 56c39 0 70 -31 70 -70
c0 -6 -1 -11 -2 -16c-23 -104 -117 -173 -235 -173s-219 68 -248 166c-2 7 -3 14 -3 21z" />
    <glyph glyph-name="Gcircumflex" unicode="&#x11c;" 
d="M287 -6c-157 0 -266 118 -266 289c0 219 156 426 324 426c50 0 133 -23 188 -51c23 -12 39 -35 39 -63c0 -39 -31 -70 -70 -70c-12 0 -23 3 -33 8c-38 20 -95 36 -124 36c-86 0 -184 -146 -184 -286c0 -95 47 -149 126 -149c69 0 121 53 140 138c-62 -9 -91 -15 -103 -15
c-39 0 -70 31 -70 70c0 35 26 64 60 69c60 10 205 29 226 29c39 0 70 -31 70 -70c0 -28 -16 -51 -39 -63c-18 -175 -131 -298 -284 -298zM58 815c0 23 11 44 29 56c61 47 126 91 195 134c11 7 24 11 38 11s28 -4 39 -12c73 -47 132 -93 181 -138c14 -13 22 -31 22 -51
c0 -39 -31 -70 -70 -70c-19 0 -35 7 -48 19c-34 32 -75 65 -125 99c-52 -34 -101 -68 -148 -104c-12 -9 -27 -14 -43 -14c-39 0 -70 31 -70 70z" />
    <glyph glyph-name="uni0122" unicode="&#x122;" 
d="M287 -6c-157 0 -266 118 -266 289c0 219 156 426 324 426c50 0 133 -23 188 -51c23 -12 39 -35 39 -63c0 -39 -31 -70 -70 -70c-12 0 -23 3 -33 8c-38 20 -95 36 -124 36c-86 0 -184 -146 -184 -286c0 -95 47 -149 126 -149c69 0 121 53 140 138c-62 -9 -91 -15 -103 -15
c-39 0 -70 31 -70 70c0 35 26 64 60 69c60 10 205 29 226 29c39 0 70 -31 70 -70c0 -28 -16 -51 -39 -63c-18 -175 -131 -298 -284 -298zM186 -243c0 20 8 37 21 50c27 26 67 80 79 104c10 25 35 43 64 43c39 0 70 -31 70 -70c0 -11 -2 -21 -7 -30
c-18 -39 -71 -111 -108 -147c-13 -12 -30 -20 -49 -20c-39 0 -70 31 -70 70z" />
    <glyph glyph-name="Gdotaccent" unicode="&#x120;" 
d="M287 -6c-157 0 -266 118 -266 289c0 219 156 426 324 426c50 0 133 -23 188 -51c23 -12 39 -35 39 -63c0 -39 -31 -70 -70 -70c-12 0 -23 3 -33 8c-38 20 -95 36 -124 36c-86 0 -184 -146 -184 -286c0 -95 47 -149 126 -149c69 0 121 53 140 138c-62 -9 -91 -15 -103 -15
c-39 0 -70 31 -70 70c0 35 26 64 60 69c60 10 205 29 226 29c39 0 70 -31 70 -70c0 -28 -16 -51 -39 -63c-18 -175 -131 -298 -284 -298zM218 886c0 63 32 111 94 111c51 0 91 -41 91 -92c0 -38 -23 -85 -53 -117c-13 -14 -31 -22 -51 -22c-18 0 -34 6 -46 17
c-17 11 -29 30 -32 51c-2 21 -3 38 -3 52z" />
    <glyph glyph-name="H" unicode="H" 
d="M514 -22c-37 0 -68 29 -70 66c-4 60 -8 136 -11 207c-27 1 -57 2 -90 2c-53 0 -108 -2 -153 -5c-5 -79 -14 -146 -26 -199c-6 -31 -34 -55 -68 -55c-39 0 -70 31 -70 70c0 30 28 90 28 321c0 126 -11 239 -11 251c0 39 31 70 70 70c37 0 67 -28 70 -65
c7 -78 11 -169 11 -253c45 3 98 5 149 5c30 0 59 -1 85 -2l-1 64c0 66 12 152 29 212c8 30 36 52 68 52c39 0 70 -31 70 -70c0 -17 -27 -97 -27 -194c0 -89 17 -402 17 -407c0 -39 -31 -70 -70 -70z" />
    <glyph glyph-name="Hbar" unicode="&#x126;" 
d="M514 -22c-37 0 -68 29 -70 66c-4 60 -8 136 -11 207c-27 1 -57 2 -90 2c-53 0 -108 -2 -153 -5c-5 -79 -14 -146 -26 -199c-6 -31 -34 -55 -68 -55c-39 0 -70 31 -70 70c0 30 28 90 28 321c0 32 -1 62 -2 91c-37 2 -66 32 -66 70c0 35 25 64 58 69l-1 21
c0 39 31 70 70 70c37 0 67 -28 70 -65l2 -21c78 2 174 5 262 10c3 13 6 25 9 37c8 30 36 52 68 52c39 0 70 -31 70 -70c0 -3 -1 -8 -2 -14c30 -8 52 -35 52 -68c0 -37 -29 -67 -65 -70l-10 -1c-1 -13 -2 -27 -2 -41c0 -89 17 -402 17 -407c0 -39 -31 -70 -70 -70zM192 480
c1 -31 2 -62 2 -92c45 3 98 5 149 5c30 0 59 -1 85 -2l-1 64c0 11 0 22 1 33c-78 -3 -163 -6 -236 -8z" />
    <glyph glyph-name="Hcircumflex" unicode="&#x124;" 
d="M514 -22c-37 0 -68 29 -70 66c-4 60 -8 136 -11 207c-27 1 -57 2 -90 2c-53 0 -108 -2 -153 -5c-5 -79 -14 -146 -26 -199c-6 -31 -34 -55 -68 -55c-39 0 -70 31 -70 70c0 30 28 90 28 321c0 126 -11 239 -11 251c0 39 31 70 70 70c37 0 67 -28 70 -65
c7 -78 11 -169 11 -253c45 3 98 5 149 5c30 0 59 -1 85 -2l-1 64c0 66 12 152 29 212c8 30 36 52 68 52c39 0 70 -31 70 -70c0 -17 -27 -97 -27 -194c0 -89 17 -402 17 -407c0 -39 -31 -70 -70 -70zM58 815c0 23 11 44 29 56c61 47 126 91 195 134c11 7 24 11 38 11
s28 -4 39 -12c73 -47 132 -93 181 -138c14 -13 22 -31 22 -51c0 -39 -31 -70 -70 -70c-19 0 -35 7 -48 19c-34 32 -75 65 -125 99c-52 -34 -101 -68 -148 -104c-12 -9 -27 -14 -43 -14c-39 0 -70 31 -70 70z" />
    <glyph glyph-name="I" unicode="I" 
d="M147 -26c-39 0 -70 31 -70 70c0 36 27 66 62 70c31 4 67 7 106 10c-9 88 -14 179 -14 259c0 60 2 128 5 193c-29 1 -57 2 -83 2c-38 1 -69 32 -69 70c0 39 31 70 70 70c124 -2 237 -6 319 -11c37 -2 66 -33 66 -70c0 -39 -31 -70 -70 -70l-93 5c-3 -66 -5 -131 -5 -189
c0 -78 5 -166 14 -251c31 1 61 2 90 2c39 0 70 -31 70 -70c0 -38 -31 -70 -69 -70c-78 -1 -270 -11 -329 -20z" />
    <glyph glyph-name="IJ" unicode="&#x132;" 
d="M406 -24c-125 0 -208 104 -208 244c0 29 5 61 15 84c10 26 35 45 65 45c39 0 70 -31 70 -70c0 -23 -10 -26 -10 -59c0 -66 26 -104 68 -104c17 0 39 48 39 127c0 75 -8 184 -21 321c-55 -4 -94 -9 -100 -9c-39 0 -70 31 -70 70c0 36 27 65 62 70c58 7 179 15 242 15
c39 0 70 -31 70 -70c0 -37 -28 -67 -64 -70c14 -138 21 -249 21 -327c0 -153 -64 -267 -179 -267zM31 383c0 82 3 177 9 264c2 37 33 66 70 66c39 0 70 -31 70 -70c0 -3 -9 -131 -9 -260c0 -182 22 -316 22 -334c0 -39 -31 -70 -70 -70c-36 0 -66 27 -70 62
c-14 111 -22 236 -22 342z" />
    <glyph glyph-name="Iacute" unicode="&#xcd;" 
d="M147 -26c-39 0 -70 31 -70 70c0 36 27 66 62 70c31 4 67 7 106 10c-9 88 -14 179 -14 259c0 60 2 128 5 193c-29 1 -57 2 -83 2c-38 1 -69 32 -69 70c0 39 31 70 70 70c124 -2 237 -6 319 -11c37 -2 66 -33 66 -70c0 -39 -31 -70 -70 -70l-93 5c-3 -66 -5 -131 -5 -189
c0 -78 5 -166 14 -251c31 1 61 2 90 2c39 0 70 -31 70 -70c0 -38 -31 -70 -69 -70c-78 -1 -270 -11 -329 -20zM139 815c0 23 11 44 29 57l201 150c11 9 26 14 42 14c39 0 70 -31 70 -70c0 -23 -11 -44 -29 -57l-201 -150c-11 -9 -26 -14 -42 -14c-39 0 -70 31 -70 70z" />
    <glyph glyph-name="Ibreve" unicode="&#x12c;" 
d="M147 -26c-39 0 -70 31 -70 70c0 36 27 66 62 70c31 4 67 7 106 10c-9 88 -14 179 -14 259c0 60 2 128 5 193c-29 1 -57 2 -83 2c-38 1 -69 32 -69 70c0 39 31 70 70 70c124 -2 237 -6 319 -11c37 -2 66 -33 66 -70c0 -39 -31 -70 -70 -70l-93 5c-3 -66 -5 -131 -5 -189
c0 -78 5 -166 14 -251c31 1 61 2 90 2c39 0 70 -31 70 -70c0 -38 -31 -70 -69 -70c-78 -1 -270 -11 -329 -20zM66 939c0 39 31 70 70 70c33 0 60 -22 68 -52c11 -37 57 -65 113 -65c53 0 90 25 98 63c7 32 35 56 69 56c39 0 70 -31 70 -70c0 -6 -1 -11 -2 -16
c-23 -104 -117 -173 -235 -173s-219 68 -248 166c-2 7 -3 14 -3 21z" />
    <glyph glyph-name="Icircumflex" unicode="&#xce;" 
d="M147 -26c-39 0 -70 31 -70 70c0 36 27 66 62 70c31 4 67 7 106 10c-9 88 -14 179 -14 259c0 60 2 128 5 193c-29 1 -57 2 -83 2c-38 1 -69 32 -69 70c0 39 31 70 70 70c124 -2 237 -6 319 -11c37 -2 66 -33 66 -70c0 -39 -31 -70 -70 -70l-93 5c-3 -66 -5 -131 -5 -189
c0 -78 5 -166 14 -251c31 1 61 2 90 2c39 0 70 -31 70 -70c0 -38 -31 -70 -69 -70c-78 -1 -270 -11 -329 -20zM58 815c0 23 11 44 29 56c61 47 126 91 195 134c11 7 24 11 38 11s28 -4 39 -12c73 -47 132 -93 181 -138c14 -13 22 -31 22 -51c0 -39 -31 -70 -70 -70
c-19 0 -35 7 -48 19c-34 32 -75 65 -125 99c-52 -34 -101 -68 -148 -104c-12 -9 -27 -14 -43 -14c-39 0 -70 31 -70 70z" />
    <glyph glyph-name="Idieresis" unicode="&#xcf;" 
d="M147 -26c-39 0 -70 31 -70 70c0 36 27 66 62 70c31 4 67 7 106 10c-9 88 -14 179 -14 259c0 60 2 128 5 193c-29 1 -57 2 -83 2c-38 1 -69 32 -69 70c0 39 31 70 70 70c124 -2 237 -6 319 -11c37 -2 66 -33 66 -70c0 -39 -31 -70 -70 -70l-93 5c-3 -66 -5 -131 -5 -189
c0 -78 5 -166 14 -251c31 1 61 2 90 2c39 0 70 -31 70 -70c0 -38 -31 -70 -69 -70c-78 -1 -270 -11 -329 -20zM139 869c0 10 2 27 4 38c7 33 35 57 69 57c39 0 70 -31 70 -70c0 -9 -1 -19 -1 -30c0 -13 4 -33 4 -43c0 -39 -31 -70 -70 -70c-34 0 -63 25 -69 57
c-5 24 -7 44 -7 61zM338 832c0 9 2 16 2 32s-1 33 -1 42c0 39 31 70 70 70c38 0 68 -30 70 -67c1 -11 1 -29 1 -45c0 -13 -1 -30 -3 -42c-4 -34 -34 -60 -69 -60c-39 0 -70 31 -70 70z" />
    <glyph glyph-name="Idotaccent" unicode="&#x130;" 
d="M147 -26c-39 0 -70 31 -70 70c0 36 27 66 62 70c31 4 67 7 106 10c-9 88 -14 179 -14 259c0 60 2 128 5 193c-29 1 -57 2 -83 2c-38 1 -69 32 -69 70c0 39 31 70 70 70c124 -2 237 -6 319 -11c37 -2 66 -33 66 -70c0 -39 -31 -70 -70 -70l-93 5c-3 -66 -5 -131 -5 -189
c0 -78 5 -166 14 -251c31 1 61 2 90 2c39 0 70 -31 70 -70c0 -38 -31 -70 -69 -70c-78 -1 -270 -11 -329 -20zM218 886c0 63 32 111 94 111c51 0 91 -41 91 -92c0 -38 -23 -85 -53 -117c-13 -14 -31 -22 -51 -22c-18 0 -34 6 -46 17c-17 11 -29 30 -32 51c-2 21 -3 38 -3 52
z" />
    <glyph glyph-name="Igrave" unicode="&#xcc;" 
d="M147 -26c-39 0 -70 31 -70 70c0 36 27 66 62 70c31 4 67 7 106 10c-9 88 -14 179 -14 259c0 60 2 128 5 193c-29 1 -57 2 -83 2c-38 1 -69 32 -69 70c0 39 31 70 70 70c124 -2 237 -6 319 -11c37 -2 66 -33 66 -70c0 -39 -31 -70 -70 -70l-93 5c-3 -66 -5 -131 -5 -189
c0 -78 5 -166 14 -251c31 1 61 2 90 2c39 0 70 -31 70 -70c0 -38 -31 -70 -69 -70c-78 -1 -270 -11 -329 -20zM139 946c0 39 31 70 70 70c16 0 31 -5 42 -14l201 -150c18 -13 29 -34 29 -57c0 -39 -31 -70 -70 -70c-16 0 -31 5 -42 14l-201 150c-18 13 -29 34 -29 57z" />
    <glyph glyph-name="Imacron" unicode="&#x12a;" 
d="M147 -26c-39 0 -70 31 -70 70c0 36 27 66 62 70c31 4 67 7 106 10c-9 88 -14 179 -14 259c0 60 2 128 5 193c-29 1 -57 2 -83 2c-38 1 -69 32 -69 70c0 39 31 70 70 70c124 -2 237 -6 319 -11c37 -2 66 -33 66 -70c0 -39 -31 -70 -70 -70l-93 5c-3 -66 -5 -131 -5 -189
c0 -78 5 -166 14 -251c31 1 61 2 90 2c39 0 70 -31 70 -70c0 -38 -31 -70 -69 -70c-78 -1 -270 -11 -329 -20zM52 831c0 36 27 65 61 69c110 16 294 23 384 23c39 0 70 -31 70 -70s-31 -70 -70 -70c-219 0 -365 -22 -375 -22c-39 0 -70 31 -70 70z" />
    <glyph glyph-name="Iogonek" unicode="&#x12e;" 
d="M147 -26c-39 0 -70 31 -70 70c0 36 27 66 62 70c31 4 67 7 106 10c-9 88 -14 179 -14 259c0 60 2 128 5 193c-29 1 -57 2 -83 2c-38 1 -69 32 -69 70c0 39 31 70 70 70c124 -2 237 -6 319 -11c37 -2 66 -33 66 -70c0 -39 -31 -70 -70 -70l-93 5c-3 -66 -5 -131 -5 -189
c0 -78 5 -166 14 -251c31 1 61 2 90 2c39 0 70 -31 70 -70c0 -38 -31 -70 -69 -70c-23 0 -56 -1 -93 -3c-40 -22 -74 -50 -74 -61c0 -5 4 -7 9 -7c20 0 46 10 64 26c12 10 28 17 46 17c39 0 70 -31 70 -70c0 -21 -10 -40 -25 -53c-41 -36 -103 -60 -155 -60
c-82 0 -149 55 -149 129c0 23 7 45 21 67c-18 -2 -33 -3 -43 -5z" />
    <glyph glyph-name="Itilde" unicode="&#x128;" 
d="M147 -26c-39 0 -70 31 -70 70c0 36 27 66 62 70c31 4 67 7 106 10c-9 88 -14 179 -14 259c0 60 2 128 5 193c-29 1 -57 2 -83 2c-38 1 -69 32 -69 70c0 39 31 70 70 70c124 -2 237 -6 319 -11c37 -2 66 -33 66 -70c0 -39 -31 -70 -70 -70l-93 5c-3 -66 -5 -131 -5 -189
c0 -78 5 -166 14 -251c31 1 61 2 90 2c39 0 70 -31 70 -70c0 -38 -31 -70 -69 -70c-78 -1 -270 -11 -329 -20zM27 814c0 5 1 10 1 14c20 100 96 173 190 173c60 0 99 -24 149 -76c29 -29 35 -33 49 -33c15 0 32 19 38 58c4 34 33 61 69 61c39 0 70 -31 70 -70
c0 -4 0 -7 -1 -11c-14 -103 -83 -178 -176 -178c-60 0 -99 24 -149 76c-29 29 -35 33 -49 33c-23 0 -45 -23 -52 -59c-6 -33 -34 -58 -69 -58c-39 0 -70 31 -70 70z" />
    <glyph glyph-name="J" unicode="J" 
d="M346 -64c-150 0 -308 132 -308 264c0 40 13 79 39 107c12 13 31 22 51 22c39 0 70 -31 70 -70c0 -16 -6 -31 -14 -42c-5 -6 -6 -10 -6 -17c0 -51 95 -123 160 -123c14 0 27 65 27 127c0 83 -8 205 -23 360c-55 -3 -110 -7 -150 -10c-39 0 -70 31 -70 70c0 37 28 67 64 70
c97 9 275 17 348 17c39 0 70 -31 70 -70c0 -38 -31 -69 -69 -70l-52 -1c14 -155 22 -279 22 -366c0 -153 -49 -268 -159 -268z" />
    <glyph glyph-name="Jcircumflex" unicode="&#x134;" 
d="M346 -64c-150 0 -308 132 -308 264c0 40 13 79 39 107c12 13 31 22 51 22c39 0 70 -31 70 -70c0 -16 -6 -31 -14 -42c-5 -6 -6 -10 -6 -17c0 -51 95 -123 160 -123c14 0 27 65 27 127c0 83 -8 205 -23 360c-55 -3 -110 -7 -150 -10c-39 0 -70 31 -70 70c0 37 28 67 64 70
c97 9 275 17 348 17c39 0 70 -31 70 -70c0 -38 -31 -69 -69 -70l-52 -1c14 -155 22 -279 22 -366c0 -153 -49 -268 -159 -268zM58 815c0 23 11 44 29 56c61 47 126 91 195 134c11 7 24 11 38 11s28 -4 39 -12c73 -47 132 -93 181 -138c14 -13 22 -31 22 -51
c0 -39 -31 -70 -70 -70c-19 0 -35 7 -48 19c-34 32 -75 65 -125 99c-52 -34 -101 -68 -148 -104c-12 -9 -27 -14 -43 -14c-39 0 -70 31 -70 70z" />
    <glyph glyph-name="K" unicode="K" 
d="M148 -16c-37 0 -67 29 -70 65c-5 65 -9 147 -9 195c0 117 10 296 23 413c4 35 34 63 70 63c39 0 70 -31 70 -70c0 -12 -11 -92 -18 -216c100 70 185 150 250 239c13 18 34 29 57 29c39 0 70 -31 70 -70c0 -16 -5 -30 -14 -42c-63 -86 -145 -167 -239 -238
c74 -85 170 -187 243 -254c14 -13 23 -32 23 -52c0 -39 -31 -70 -70 -70c-18 0 -35 7 -47 18c-80 74 -187 188 -266 278l-12 -7v-21c0 -57 5 -130 9 -190c0 -39 -31 -70 -70 -70z" />
    <glyph glyph-name="uni0136" unicode="&#x136;" 
d="M148 -16c-37 0 -67 29 -70 65c-5 65 -9 147 -9 195c0 117 10 296 23 413c4 35 34 63 70 63c39 0 70 -31 70 -70c0 -12 -11 -92 -18 -216c100 70 185 150 250 239c13 18 34 29 57 29c39 0 70 -31 70 -70c0 -16 -5 -30 -14 -42c-63 -86 -145 -167 -239 -238
c74 -85 170 -187 243 -254c14 -13 23 -32 23 -52c0 -39 -31 -70 -70 -70c-18 0 -35 7 -47 18c-80 74 -187 188 -266 278l-12 -7v-21c0 -57 5 -130 9 -190c0 -39 -31 -70 -70 -70zM186 -243c0 20 8 37 21 50c27 26 67 80 79 104c10 25 35 43 64 43c39 0 70 -31 70 -70
c0 -11 -2 -21 -7 -30c-18 -39 -71 -111 -108 -147c-13 -12 -30 -20 -49 -20c-39 0 -70 31 -70 70z" />
    <glyph glyph-name="L" unicode="L" 
d="M156 -6c-39 0 -70 31 -70 70c2 57 3 135 3 208c0 223 -8 363 -8 367c0 39 31 70 70 70c37 0 68 -29 70 -66c5 -87 8 -230 8 -371c0 -50 0 -97 -1 -137c214 10 278 37 304 37c39 0 70 -31 70 -70c0 -34 -24 -62 -56 -69c-115 -25 -249 -39 -390 -39z" />
    <glyph glyph-name="Lacute" unicode="&#x139;" 
d="M156 -6c-39 0 -70 31 -70 70c2 57 3 135 3 208c0 223 -8 363 -8 367c0 39 31 70 70 70c37 0 68 -29 70 -66c5 -87 8 -230 8 -371c0 -50 0 -97 -1 -137c214 10 278 37 304 37c39 0 70 -31 70 -70c0 -34 -24 -62 -56 -69c-115 -25 -249 -39 -390 -39zM139 815
c0 23 11 44 29 57l201 150c11 9 26 14 42 14c39 0 70 -31 70 -70c0 -23 -11 -44 -29 -57l-201 -150c-11 -9 -26 -14 -42 -14c-39 0 -70 31 -70 70z" />
    <glyph glyph-name="Lcaron" unicode="&#x13d;" 
d="M156 -6c-39 0 -70 31 -70 70c2 57 3 135 3 208c0 223 -8 363 -8 367c0 39 31 70 70 70c37 0 68 -29 70 -66c5 -87 8 -230 8 -371c0 -50 0 -97 -1 -137c214 10 278 37 304 37c39 0 70 -31 70 -70c0 -34 -24 -62 -56 -69c-115 -25 -249 -39 -390 -39zM330 452
c0 14 4 27 11 38c25 40 38 79 38 115c0 23 -5 38 -13 46c-12 12 -19 29 -19 48c0 39 31 70 70 70c20 0 38 -8 51 -22c34 -35 51 -87 51 -142c0 -61 -21 -129 -59 -189c-12 -20 -35 -34 -60 -34c-39 0 -70 31 -70 70z" />
    <glyph glyph-name="uni013B" unicode="&#x13b;" 
d="M156 -6c-39 0 -70 31 -70 70c2 57 3 135 3 208c0 223 -8 363 -8 367c0 39 31 70 70 70c37 0 68 -29 70 -66c5 -87 8 -230 8 -371c0 -50 0 -97 -1 -137c214 10 278 37 304 37c39 0 70 -31 70 -70c0 -34 -24 -62 -56 -69c-115 -25 -249 -39 -390 -39zM186 -243
c0 20 8 37 21 50c27 26 67 80 79 104c10 25 35 43 64 43c39 0 70 -31 70 -70c0 -11 -2 -21 -7 -30c-18 -39 -71 -111 -108 -147c-13 -12 -30 -20 -49 -20c-39 0 -70 31 -70 70z" />
    <glyph glyph-name="Ldot" unicode="&#x13f;" 
d="M156 -6c-39 0 -70 31 -70 70c2 57 3 135 3 208c0 223 -8 363 -8 367c0 39 31 70 70 70c37 0 68 -29 70 -66c5 -87 8 -230 8 -371c0 -50 0 -97 -1 -137c214 10 278 37 304 37c39 0 70 -31 70 -70c0 -34 -24 -62 -56 -69c-115 -25 -249 -39 -390 -39zM339 407
c0 70 53 122 123 122c73 0 137 -53 137 -124c0 -56 -38 -99 -92 -123c-9 -4 -19 -6 -29 -6c-92 0 -139 49 -139 131z" />
    <glyph glyph-name="Lslash" unicode="&#x141;" 
d="M156 -6c-39 0 -70 31 -70 70c2 44 3 102 3 159l-40 -23c-11 -6 -24 -10 -37 -10c-39 0 -70 31 -70 70c0 26 14 49 36 61c31 18 69 40 110 62c-2 158 -7 253 -7 256c0 39 31 70 70 70c37 0 68 -29 70 -66c3 -48 5 -114 6 -187c57 28 115 56 168 79c9 5 19 7 30 7
c39 0 70 -31 70 -70c0 -29 -18 -54 -43 -65c-71 -31 -149 -69 -223 -108v-27c0 -50 0 -97 -1 -137c214 10 278 37 304 37c39 0 70 -31 70 -70c0 -34 -24 -62 -56 -69c-115 -25 -249 -39 -390 -39z" />
    <glyph glyph-name="M" unicode="M" 
d="M71 -16c-39 0 -70 31 -70 70c2 89 31 547 32 584c1 38 32 68 70 68c28 0 53 -17 64 -41c59 -116 109 -218 132 -268c31 71 96 214 122 276c10 26 35 44 65 44c36 0 66 -28 70 -63c18 -162 61 -557 61 -589c0 -39 -31 -70 -70 -70c-37 0 -67 29 -70 65
c-8 100 -20 226 -34 354c-32 -70 -61 -136 -78 -178c-10 -27 -36 -46 -66 -46c-31 0 -57 20 -66 48c-17 45 -43 101 -72 162l-20 -349c-2 -37 -32 -67 -70 -67z" />
    <glyph glyph-name="N" unicode="N" 
d="M103 -23c-39 0 -70 31 -70 70c0 6 8 190 8 430c0 73 -1 134 -2 168c0 39 31 70 70 70c27 0 51 -16 62 -38c73 -136 176 -297 272 -429c1 41 1 82 1 124c0 188 -9 271 -9 282c0 39 31 70 70 70c37 0 67 -29 70 -65c6 -70 9 -173 9 -287s-3 -229 -9 -320
c-2 -37 -33 -66 -70 -66c-21 0 -40 9 -53 24c-81 94 -181 233 -271 374c-1 -134 -5 -273 -8 -340c-2 -37 -32 -67 -70 -67z" />
    <glyph glyph-name="Nacute" unicode="&#x143;" 
d="M103 -23c-39 0 -70 31 -70 70c0 6 8 190 8 430c0 73 -1 134 -2 168c0 39 31 70 70 70c27 0 51 -16 62 -38c73 -136 176 -297 272 -429c1 41 1 82 1 124c0 188 -9 271 -9 282c0 39 31 70 70 70c37 0 67 -29 70 -65c6 -70 9 -173 9 -287s-3 -229 -9 -320
c-2 -37 -33 -66 -70 -66c-21 0 -40 9 -53 24c-81 94 -181 233 -271 374c-1 -134 -5 -273 -8 -340c-2 -37 -32 -67 -70 -67zM139 815c0 23 11 44 29 57l201 150c11 9 26 14 42 14c39 0 70 -31 70 -70c0 -23 -11 -44 -29 -57l-201 -150c-11 -9 -26 -14 -42 -14
c-39 0 -70 31 -70 70z" />
    <glyph glyph-name="Ncaron" unicode="&#x147;" 
d="M103 -23c-39 0 -70 31 -70 70c0 6 8 190 8 430c0 73 -1 134 -2 168c0 39 31 70 70 70c27 0 51 -16 62 -38c73 -136 176 -297 272 -429c1 41 1 82 1 124c0 188 -9 271 -9 282c0 39 31 70 70 70c37 0 67 -29 70 -65c6 -70 9 -173 9 -287s-3 -229 -9 -320
c-2 -37 -33 -66 -70 -66c-21 0 -40 9 -53 24c-81 94 -181 233 -271 374c-1 -134 -5 -273 -8 -340c-2 -37 -32 -67 -70 -67zM58 946c0 39 31 70 70 70c19 0 35 -7 48 -19c34 -32 75 -65 125 -99c52 34 101 68 148 104c12 9 27 14 43 14c39 0 70 -31 70 -70
c0 -23 -11 -44 -29 -56c-61 -47 -126 -91 -195 -134c-11 -7 -24 -11 -38 -11s-28 4 -39 12c-73 47 -132 93 -181 138c-14 13 -22 31 -22 51z" />
    <glyph glyph-name="uni0145" unicode="&#x145;" 
d="M103 -23c-39 0 -70 31 -70 70c0 6 8 190 8 430c0 73 -1 134 -2 168c0 39 31 70 70 70c27 0 51 -16 62 -38c73 -136 176 -297 272 -429c1 41 1 82 1 124c0 188 -9 271 -9 282c0 39 31 70 70 70c37 0 67 -29 70 -65c6 -70 9 -173 9 -287s-3 -229 -9 -320
c-2 -37 -33 -66 -70 -66c-21 0 -40 9 -53 24c-81 94 -181 233 -271 374c-1 -134 -5 -273 -8 -340c-2 -37 -32 -67 -70 -67zM186 -243c0 20 8 37 21 50c27 26 67 80 79 104c10 25 35 43 64 43c39 0 70 -31 70 -70c0 -11 -2 -21 -7 -30c-18 -39 -71 -111 -108 -147
c-13 -12 -30 -20 -49 -20c-39 0 -70 31 -70 70z" />
    <glyph glyph-name="Ntilde" unicode="&#xd1;" 
d="M103 -23c-39 0 -70 31 -70 70c0 6 8 190 8 430c0 73 -1 134 -2 168c0 39 31 70 70 70c27 0 51 -16 62 -38c73 -136 176 -297 272 -429c1 41 1 82 1 124c0 188 -9 271 -9 282c0 39 31 70 70 70c37 0 67 -29 70 -65c6 -70 9 -173 9 -287s-3 -229 -9 -320
c-2 -37 -33 -66 -70 -66c-21 0 -40 9 -53 24c-81 94 -181 233 -271 374c-1 -134 -5 -273 -8 -340c-2 -37 -32 -67 -70 -67zM27 814c0 5 1 10 1 14c20 100 96 173 190 173c60 0 99 -24 149 -76c29 -29 35 -33 49 -33c15 0 32 19 38 58c4 34 33 61 69 61c39 0 70 -31 70 -70
c0 -4 0 -7 -1 -11c-14 -103 -83 -178 -176 -178c-60 0 -99 24 -149 76c-29 29 -35 33 -49 33c-23 0 -45 -23 -52 -59c-6 -33 -34 -58 -69 -58c-39 0 -70 31 -70 70z" />
    <glyph glyph-name="Eng" unicode="&#x14a;" 
d="M103 -23c-39 0 -70 31 -70 70c0 9 5 189 8 430c1 73 -2 162 -2 168c0 39 31 70 70 70c27 0 51 -16 62 -38c73 -136 176 -297 272 -429c1 38 1 77 1 116c0 191 -9 280 -9 290c0 39 31 70 70 70c37 0 67 -29 70 -65c6 -72 9 -177 9 -295c0 -117 -3 -235 -9 -328
c-11 -186 -64 -288 -198 -288c-59 0 -120 20 -166 55c-18 12 -29 33 -29 56c0 39 31 70 70 70c16 0 31 -5 43 -15c23 -17 51 -26 82 -26c33 0 49 27 57 143c-77 93 -170 222 -253 353c-1 -134 -4 -273 -8 -340c-2 -37 -32 -67 -70 -67z" />
    <glyph glyph-name="O" unicode="O" 
d="M288 -10c-162 0 -265 103 -265 266c0 255 123 455 292 455c170 0 280 -106 280 -272c0 -263 -124 -449 -307 -449zM163 256c0 -85 40 -126 125 -126c95 0 167 124 167 309c0 87 -47 132 -140 132c-79 0 -152 -143 -152 -315z" />
    <glyph glyph-name="Oacute" unicode="&#xd3;" 
d="M288 -10c-162 0 -265 103 -265 266c0 255 123 455 292 455c170 0 280 -106 280 -272c0 -263 -124 -449 -307 -449zM139 815c0 23 11 44 29 57l201 150c11 9 26 14 42 14c39 0 70 -31 70 -70c0 -23 -11 -44 -29 -57l-201 -150c-11 -9 -26 -14 -42 -14c-39 0 -70 31 -70 70
zM163 256c0 -85 40 -126 125 -126c95 0 167 124 167 309c0 87 -47 132 -140 132c-79 0 -152 -143 -152 -315z" />
    <glyph glyph-name="Obreve" unicode="&#x14e;" 
d="M288 -10c-162 0 -265 103 -265 266c0 255 123 455 292 455c170 0 280 -106 280 -272c0 -263 -124 -449 -307 -449zM66 939c0 39 31 70 70 70c33 0 60 -22 68 -52c11 -37 57 -65 113 -65c53 0 90 25 98 63c7 32 35 56 69 56c39 0 70 -31 70 -70c0 -6 -1 -11 -2 -16
c-23 -104 -117 -173 -235 -173s-219 68 -248 166c-2 7 -3 14 -3 21zM163 256c0 -85 40 -126 125 -126c95 0 167 124 167 309c0 87 -47 132 -140 132c-79 0 -152 -143 -152 -315z" />
    <glyph glyph-name="Ocircumflex" unicode="&#xd4;" 
d="M288 -10c-162 0 -265 103 -265 266c0 255 123 455 292 455c170 0 280 -106 280 -272c0 -263 -124 -449 -307 -449zM58 815c0 23 11 44 29 56c61 47 126 91 195 134c11 7 24 11 38 11s28 -4 39 -12c73 -47 132 -93 181 -138c14 -13 22 -31 22 -51c0 -39 -31 -70 -70 -70
c-19 0 -35 7 -48 19c-34 32 -75 65 -125 99c-52 -34 -101 -68 -148 -104c-12 -9 -27 -14 -43 -14c-39 0 -70 31 -70 70zM163 256c0 -85 40 -126 125 -126c95 0 167 124 167 309c0 87 -47 132 -140 132c-79 0 -152 -143 -152 -315z" />
    <glyph glyph-name="Odieresis" unicode="&#xd6;" 
d="M288 -10c-162 0 -265 103 -265 266c0 255 123 455 292 455c170 0 280 -106 280 -272c0 -263 -124 -449 -307 -449zM139 869c0 10 2 27 4 38c7 33 35 57 69 57c39 0 70 -31 70 -70c0 -9 -1 -19 -1 -30c0 -13 4 -33 4 -43c0 -39 -31 -70 -70 -70c-34 0 -63 25 -69 57
c-5 24 -7 44 -7 61zM163 256c0 -85 40 -126 125 -126c95 0 167 124 167 309c0 87 -47 132 -140 132c-79 0 -152 -143 -152 -315zM338 832c0 9 2 16 2 32s-1 33 -1 42c0 39 31 70 70 70c38 0 68 -30 70 -67c1 -11 1 -29 1 -45c0 -13 -1 -30 -3 -42c-4 -34 -34 -60 -69 -60
c-39 0 -70 31 -70 70z" />
    <glyph glyph-name="Ograve" unicode="&#xd2;" 
d="M288 -10c-162 0 -265 103 -265 266c0 255 123 455 292 455c170 0 280 -106 280 -272c0 -263 -124 -449 -307 -449zM139 946c0 39 31 70 70 70c16 0 31 -5 42 -14l201 -150c18 -13 29 -34 29 -57c0 -39 -31 -70 -70 -70c-16 0 -31 5 -42 14l-201 150c-18 13 -29 34 -29 57
zM163 256c0 -85 40 -126 125 -126c95 0 167 124 167 309c0 87 -47 132 -140 132c-79 0 -152 -143 -152 -315z" />
    <glyph glyph-name="Ohungarumlaut" unicode="&#x150;" 
d="M288 -10c-162 0 -265 103 -265 266c0 255 123 455 292 455c170 0 280 -106 280 -272c0 -263 -124 -449 -307 -449zM99 815c0 18 6 34 17 46c50 58 98 109 147 156c12 12 29 19 48 19c39 0 70 -31 70 -70c0 -20 -8 -38 -22 -51c-45 -43 -90 -91 -137 -145
c-12 -15 -32 -25 -53 -25c-39 0 -70 31 -70 70zM163 256c0 -85 40 -126 125 -126c95 0 167 124 167 309c0 87 -47 132 -140 132c-79 0 -152 -143 -152 -315zM319 815c0 18 6 34 17 46c50 58 98 109 147 156c12 12 29 19 48 19c39 0 70 -31 70 -70c0 -20 -8 -38 -22 -51
c-45 -43 -90 -91 -137 -145c-12 -15 -32 -25 -53 -25c-39 0 -70 31 -70 70z" />
    <glyph glyph-name="Omacron" unicode="&#x14c;" 
d="M288 -10c-162 0 -265 103 -265 266c0 255 123 455 292 455c170 0 280 -106 280 -272c0 -263 -124 -449 -307 -449zM52 831c0 36 27 65 61 69c110 16 294 23 384 23c39 0 70 -31 70 -70s-31 -70 -70 -70c-219 0 -365 -22 -375 -22c-39 0 -70 31 -70 70zM163 256
c0 -85 40 -126 125 -126c95 0 167 124 167 309c0 87 -47 132 -140 132c-79 0 -152 -143 -152 -315z" />
    <glyph glyph-name="Oslash" unicode="&#xd8;" 
d="M288 -10c-47 0 -89 9 -125 25c-14 -22 -27 -43 -39 -63c-12 -21 -35 -35 -61 -35c-39 0 -70 31 -70 70c0 14 4 26 11 37c16 27 34 56 54 87c-23 40 -35 89 -35 145c0 255 123 455 292 455c52 0 99 -10 139 -29c20 27 39 51 57 72c13 16 32 26 54 26c39 0 70 -31 70 -70
c0 -17 -6 -33 -16 -45c-19 -22 -39 -48 -61 -77c24 -42 37 -92 37 -149c0 -263 -124 -449 -307 -449zM163 256l1 -17c71 109 151 222 222 320c-20 8 -43 12 -71 12c-79 0 -152 -143 -152 -315zM220 143c18 -9 41 -13 68 -13c95 0 167 124 167 309c0 14 -1 27 -4 39
c-75 -104 -158 -224 -231 -335z" />
    <glyph glyph-name="Oslashacute" unicode="&#x1fe;" 
d="M288 -10c-47 0 -89 9 -125 25c-14 -22 -27 -43 -39 -63c-12 -21 -35 -35 -61 -35c-39 0 -70 31 -70 70c0 14 4 26 11 37c16 27 34 56 54 87c-23 40 -35 89 -35 145c0 255 123 455 292 455c52 0 99 -10 139 -29c20 27 39 51 57 72c13 16 32 26 54 26c39 0 70 -31 70 -70
c0 -17 -6 -33 -16 -45c-19 -22 -39 -48 -61 -77c24 -42 37 -92 37 -149c0 -263 -124 -449 -307 -449zM139 815c0 23 11 44 29 57l201 150c11 9 26 14 42 14c39 0 70 -31 70 -70c0 -23 -11 -44 -29 -57l-201 -150c-11 -9 -26 -14 -42 -14c-39 0 -70 31 -70 70zM163 256l1 -17
c71 109 151 222 222 320c-20 8 -43 12 -71 12c-79 0 -152 -143 -152 -315zM220 143c18 -9 41 -13 68 -13c95 0 167 124 167 309c0 14 -1 27 -4 39c-75 -104 -158 -224 -231 -335z" />
    <glyph glyph-name="Otilde" unicode="&#xd5;" 
d="M288 -10c-162 0 -265 103 -265 266c0 255 123 455 292 455c170 0 280 -106 280 -272c0 -263 -124 -449 -307 -449zM27 814c0 5 1 10 1 14c20 100 96 173 190 173c60 0 99 -24 149 -76c29 -29 35 -33 49 -33c15 0 32 19 38 58c4 34 33 61 69 61c39 0 70 -31 70 -70
c0 -4 0 -7 -1 -11c-14 -103 -83 -178 -176 -178c-60 0 -99 24 -149 76c-29 29 -35 33 -49 33c-23 0 -45 -23 -52 -59c-6 -33 -34 -58 -69 -58c-39 0 -70 31 -70 70zM163 256c0 -85 40 -126 125 -126c95 0 167 124 167 309c0 87 -47 132 -140 132c-79 0 -152 -143 -152 -315z
" />
    <glyph glyph-name="OE" unicode="&#x152;" 
d="M312 -21c-190 0 -302 131 -302 350c0 247 118 383 336 383c63 0 149 -7 211 -17c34 -5 60 -34 60 -69c0 -39 -31 -70 -70 -70c-12 0 -53 8 -114 13c-3 -41 -6 -87 -8 -135c61 3 92 10 102 10c39 0 70 -31 70 -70c0 -35 -26 -65 -60 -69c-34 -5 -76 -9 -118 -11
c-3 -61 -4 -119 -5 -168c68 9 119 23 135 23c39 0 70 -31 70 -70c0 -34 -24 -62 -56 -69c-97 -21 -178 -31 -251 -31zM150 329c0 -126 41 -192 124 -207c2 125 9 311 18 446c-98 -18 -142 -91 -142 -239z" />
    <glyph glyph-name="P" unicode="P" 
d="M149 -16c-38 0 -69 31 -70 69c-4 119 -9 335 -9 447c0 51 1 96 2 137c1 32 24 59 54 66c33 9 71 13 110 13c188 0 344 -118 344 -266c0 -152 -149 -257 -353 -257h-12c1 -37 3 -103 4 -139c0 -39 -31 -70 -70 -70zM210 500c0 -56 1 -112 2 -167h15c126 0 213 51 213 117
c0 64 -94 126 -204 126c-9 0 -17 0 -25 -1c-1 -23 -1 -48 -1 -75z" />
    <glyph glyph-name="Thorn" unicode="&#xde;" 
d="M238 113h-21c1 -36 2 -61 2 -66c0 -39 -31 -70 -70 -70c-38 0 -69 31 -70 69c0 26 -9 342 -9 465c0 53 1 100 2 143c1 38 32 68 70 68c39 0 70 -31 70 -70l-1 -57c11 1 23 1 35 1c188 0 334 -93 334 -246c0 -157 -139 -237 -342 -237zM210 454l4 -200c8 -1 16 -1 24 -1
c126 0 202 25 202 97c0 71 -83 106 -194 106c-13 0 -25 -1 -36 -2z" />
    <glyph glyph-name="Q" unicode="Q" 
d="M302 -18c-177 0 -279 129 -279 351c0 225 123 388 296 388c161 0 278 -139 278 -327c0 -112 -39 -221 -99 -299c44 -56 88 -103 126 -133c16 -12 27 -32 27 -55c0 -39 -31 -70 -70 -70c-17 0 -32 6 -44 15c-44 35 -95 89 -145 152c-29 -14 -59 -22 -90 -22zM163 333
c0 -148 46 -211 139 -211h4c-26 39 -50 79 -73 119c-6 10 -9 22 -9 35c0 39 31 70 70 70c27 0 50 -15 62 -37c17 -31 36 -61 55 -91c27 51 46 115 46 176c0 112 -57 187 -138 187c-89 0 -156 -99 -156 -248z" />
    <glyph glyph-name="R" unicode="R" 
d="M537 -33c-16 0 -31 6 -43 15c-93 69 -207 143 -318 201c-2 -36 -3 -68 -3 -94c0 -14 1 -29 1 -39c0 -39 -31 -70 -70 -70c-38 0 -69 30 -70 68c0 12 -1 26 -1 41c0 134 17 364 40 561c5 39 34 63 75 63c279 -19 427 -104 427 -258c0 -109 -71 -183 -206 -221
c75 -45 148 -94 210 -141c17 -13 28 -33 28 -56c0 -39 -31 -70 -70 -70zM185 347c176 10 250 51 250 108c0 53 -76 94 -230 112c-7 -62 -14 -141 -20 -220z" />
    <glyph glyph-name="Racute" unicode="&#x154;" 
d="M537 -33c-16 0 -31 6 -43 15c-93 69 -207 143 -318 201c-2 -36 -3 -68 -3 -94c0 -14 1 -29 1 -39c0 -39 -31 -70 -70 -70c-38 0 -69 30 -70 68c0 12 -1 26 -1 41c0 134 17 364 40 561c5 39 34 63 75 63c279 -19 427 -104 427 -258c0 -109 -71 -183 -206 -221
c75 -45 148 -94 210 -141c17 -13 28 -33 28 -56c0 -39 -31 -70 -70 -70zM139 815c0 23 11 44 29 57l201 150c11 9 26 14 42 14c39 0 70 -31 70 -70c0 -23 -11 -44 -29 -57l-201 -150c-11 -9 -26 -14 -42 -14c-39 0 -70 31 -70 70zM185 347c176 10 250 51 250 108
c0 53 -76 94 -230 112c-7 -62 -14 -141 -20 -220z" />
    <glyph glyph-name="Rcaron" unicode="&#x158;" 
d="M537 -33c-16 0 -31 6 -43 15c-93 69 -207 143 -318 201c-2 -36 -3 -68 -3 -94c0 -14 1 -29 1 -39c0 -39 -31 -70 -70 -70c-38 0 -69 30 -70 68c0 12 -1 26 -1 41c0 134 17 364 40 561c5 39 34 63 75 63c279 -19 427 -104 427 -258c0 -109 -71 -183 -206 -221
c75 -45 148 -94 210 -141c17 -13 28 -33 28 -56c0 -39 -31 -70 -70 -70zM58 946c0 39 31 70 70 70c19 0 35 -7 48 -19c34 -32 75 -65 125 -99c52 34 101 68 148 104c12 9 27 14 43 14c39 0 70 -31 70 -70c0 -23 -11 -44 -29 -56c-61 -47 -126 -91 -195 -134
c-11 -7 -24 -11 -38 -11s-28 4 -39 12c-73 47 -132 93 -181 138c-14 13 -22 31 -22 51zM185 347c176 10 250 51 250 108c0 53 -76 94 -230 112c-7 -62 -14 -141 -20 -220z" />
    <glyph glyph-name="uni0156" unicode="&#x156;" 
d="M537 -33c-16 0 -31 6 -43 15c-93 69 -207 143 -318 201c-2 -36 -3 -68 -3 -94c0 -14 1 -29 1 -39c0 -39 -31 -70 -70 -70c-38 0 -69 30 -70 68c0 12 -1 26 -1 41c0 134 17 364 40 561c5 39 34 63 75 63c279 -19 427 -104 427 -258c0 -109 -71 -183 -206 -221
c75 -45 148 -94 210 -141c17 -13 28 -33 28 -56c0 -39 -31 -70 -70 -70zM185 347c176 10 250 51 250 108c0 53 -76 94 -230 112c-7 -62 -14 -141 -20 -220zM186 -243c0 20 8 37 21 50c27 26 67 80 79 104c10 25 35 43 64 43c39 0 70 -31 70 -70c0 -11 -2 -21 -7 -30
c-18 -39 -71 -111 -108 -147c-13 -12 -30 -20 -49 -20c-39 0 -70 31 -70 70z" />
    <glyph glyph-name="S" unicode="S" 
d="M293 -17c-106 0 -183 25 -252 82c-16 13 -26 32 -26 54c0 39 31 70 70 70c17 0 33 -6 45 -16c44 -37 87 -50 163 -50c93 0 156 49 156 112c0 36 -31 56 -160 62c-149 7 -230 59 -230 176c0 139 110 233 272 233c71 0 134 -11 191 -35c26 -10 45 -35 45 -65
c0 -39 -31 -70 -70 -70c-35 0 -51 30 -166 30c-86 0 -132 -35 -132 -93c0 -22 9 -32 96 -36c189 -9 294 -67 294 -202c0 -144 -127 -252 -296 -252z" />
    <glyph glyph-name="Sacute" unicode="&#x15a;" 
d="M293 -17c-106 0 -183 25 -252 82c-16 13 -26 32 -26 54c0 39 31 70 70 70c17 0 33 -6 45 -16c44 -37 87 -50 163 -50c93 0 156 49 156 112c0 36 -31 56 -160 62c-149 7 -230 59 -230 176c0 139 110 233 272 233c71 0 134 -11 191 -35c26 -10 45 -35 45 -65
c0 -39 -31 -70 -70 -70c-35 0 -51 30 -166 30c-86 0 -132 -35 -132 -93c0 -22 9 -32 96 -36c189 -9 294 -67 294 -202c0 -144 -127 -252 -296 -252zM139 815c0 23 11 44 29 57l201 150c11 9 26 14 42 14c39 0 70 -31 70 -70c0 -23 -11 -44 -29 -57l-201 -150
c-11 -9 -26 -14 -42 -14c-39 0 -70 31 -70 70z" />
    <glyph glyph-name="Scaron" unicode="&#x160;" 
d="M293 -17c-106 0 -183 25 -252 82c-16 13 -26 32 -26 54c0 39 31 70 70 70c17 0 33 -6 45 -16c44 -37 87 -50 163 -50c93 0 156 49 156 112c0 36 -31 56 -160 62c-149 7 -230 59 -230 176c0 139 110 233 272 233c71 0 134 -11 191 -35c26 -10 45 -35 45 -65
c0 -39 -31 -70 -70 -70c-35 0 -51 30 -166 30c-86 0 -132 -35 -132 -93c0 -22 9 -32 96 -36c189 -9 294 -67 294 -202c0 -144 -127 -252 -296 -252zM58 946c0 39 31 70 70 70c19 0 35 -7 48 -19c34 -32 75 -65 125 -99c52 34 101 68 148 104c12 9 27 14 43 14
c39 0 70 -31 70 -70c0 -23 -11 -44 -29 -56c-61 -47 -126 -91 -195 -134c-11 -7 -24 -11 -38 -11s-28 4 -39 12c-73 47 -132 93 -181 138c-14 13 -22 31 -22 51z" />
    <glyph glyph-name="Scedilla" unicode="&#x15e;" 
d="M248 -267c-9 0 -18 0 -26 1c-36 3 -65 33 -65 70c0 39 31 70 70 70l21 -1c45 0 75 13 75 32c0 11 -11 23 -43 29c-29 4 -52 26 -58 53c-71 10 -128 35 -181 78c-16 13 -26 32 -26 54c0 39 31 70 70 70c17 0 33 -6 45 -16c44 -37 87 -50 163 -50c93 0 156 49 156 112
c0 36 -31 56 -160 62c-149 7 -230 59 -230 176c0 139 110 233 272 233c71 0 134 -11 191 -35c26 -10 45 -35 45 -65c0 -39 -31 -70 -70 -70c-35 0 -51 30 -166 30c-86 0 -132 -35 -132 -93c0 -22 9 -32 96 -36c189 -9 294 -67 294 -202c0 -103 -65 -188 -164 -228
c24 -28 38 -63 38 -102c0 -101 -96 -172 -215 -172z" />
    <glyph glyph-name="Scircumflex" unicode="&#x15c;" 
d="M293 -17c-106 0 -183 25 -252 82c-16 13 -26 32 -26 54c0 39 31 70 70 70c17 0 33 -6 45 -16c44 -37 87 -50 163 -50c93 0 156 49 156 112c0 36 -31 56 -160 62c-149 7 -230 59 -230 176c0 139 110 233 272 233c71 0 134 -11 191 -35c26 -10 45 -35 45 -65
c0 -39 -31 -70 -70 -70c-35 0 -51 30 -166 30c-86 0 -132 -35 -132 -93c0 -22 9 -32 96 -36c189 -9 294 -67 294 -202c0 -144 -127 -252 -296 -252zM58 815c0 23 11 44 29 56c61 47 126 91 195 134c11 7 24 11 38 11s28 -4 39 -12c73 -47 132 -93 181 -138
c14 -13 22 -31 22 -51c0 -39 -31 -70 -70 -70c-19 0 -35 7 -48 19c-34 32 -75 65 -125 99c-52 -34 -101 -68 -148 -104c-12 -9 -27 -14 -43 -14c-39 0 -70 31 -70 70z" />
    <glyph glyph-name="uni0218" unicode="&#x218;" 
d="M293 -17c-106 0 -183 25 -252 82c-16 13 -26 32 -26 54c0 39 31 70 70 70c17 0 33 -6 45 -16c44 -37 87 -50 163 -50c93 0 156 49 156 112c0 36 -31 56 -160 62c-149 7 -230 59 -230 176c0 139 110 233 272 233c71 0 134 -11 191 -35c26 -10 45 -35 45 -65
c0 -39 -31 -70 -70 -70c-35 0 -51 30 -166 30c-86 0 -132 -35 -132 -93c0 -22 9 -32 96 -36c189 -9 294 -67 294 -202c0 -144 -127 -252 -296 -252zM186 -243c0 20 8 37 21 50c27 26 67 80 79 104c10 25 35 43 64 43c39 0 70 -31 70 -70c0 -11 -2 -21 -7 -30
c-18 -39 -71 -111 -108 -147c-13 -12 -30 -20 -49 -20c-39 0 -70 31 -70 70z" />
    <glyph glyph-name="uni1E9E" unicode="&#x1e9e;" 
d="M310 -20c-39 0 -70 31 -70 70c0 36 28 66 63 70c102 11 148 47 148 101c0 46 -33 78 -116 95c-33 6 -57 35 -57 69c0 16 6 31 15 43c28 36 61 87 92 138c-57 -3 -120 -4 -185 -4c1 -69 2 -139 2 -207c0 -114 -2 -217 -5 -302c-1 -37 -32 -67 -70 -67c-39 0 -70 31 -70 70
c3 90 5 174 5 299c0 70 -1 142 -2 214c-25 11 -42 36 -42 64c0 39 31 70 70 70c10 0 63 -1 99 -1c210 0 298 12 322 12c39 0 70 -31 70 -70c0 -12 -3 -23 -8 -33c-25 -50 -68 -124 -112 -190c85 -42 132 -110 132 -200c0 -133 -102 -221 -272 -240c-3 -1 -6 -1 -9 -1z" />
    <glyph glyph-name="uni018F" unicode="&#x18f;" 
d="M280 -13c-156 0 -262 110 -262 270c0 86 46 139 132 158c71 16 188 36 300 51c-19 69 -64 110 -146 110c-62 0 -110 -23 -169 -82c-13 -13 -31 -21 -50 -21c-39 0 -70 31 -70 70c0 19 8 37 21 50c84 84 169 123 268 123c182 0 297 -130 297 -334
c0 -245 -121 -395 -321 -395zM158 257c0 -84 44 -130 122 -130c103 0 165 67 178 199c-105 -14 -213 -33 -278 -47c-20 -5 -22 -8 -22 -22z" />
    <glyph glyph-name="T" unicode="T" 
d="M320 -10c-39 0 -70 31 -70 70c0 119 -8 334 -18 492h-51c-37 0 -75 0 -111 1c-38 1 -68 32 -68 70c0 39 31 70 70 70c36 -1 71 -1 109 -1c218 0 351 13 363 13c39 0 70 -31 70 -70c0 -37 -29 -67 -65 -70c-55 -4 -115 -8 -177 -10c11 -160 18 -375 18 -495
c0 -39 -31 -70 -70 -70z" />
    <glyph glyph-name="Tbar" unicode="&#x166;" 
d="M320 -10c-39 0 -70 31 -70 70c0 58 -2 140 -5 226c-43 -5 -69 -9 -77 -9c-34 0 -60 27 -60 60c0 31 23 56 52 59c22 3 50 7 80 10c-2 51 -5 101 -8 146h-51c-37 0 -75 0 -111 1c-38 1 -68 32 -68 70c0 39 31 70 70 70c36 -1 71 -1 109 -1c218 0 351 13 363 13
c39 0 70 -31 70 -70c0 -37 -29 -67 -65 -70c-55 -4 -115 -8 -177 -10c3 -42 6 -89 8 -136c36 2 69 4 91 4c34 0 60 -26 60 -60c0 -32 -26 -59 -58 -60s-61 -3 -88 -4c3 -91 5 -178 5 -239c0 -39 -31 -70 -70 -70z" />
    <glyph glyph-name="Tcaron" unicode="&#x164;" 
d="M320 -10c-39 0 -70 31 -70 70c0 119 -8 334 -18 492h-51c-37 0 -75 0 -111 1c-38 1 -68 32 -68 70c0 39 31 70 70 70c36 -1 71 -1 109 -1c218 0 351 13 363 13c39 0 70 -31 70 -70c0 -37 -29 -67 -65 -70c-55 -4 -115 -8 -177 -10c11 -160 18 -375 18 -495
c0 -39 -31 -70 -70 -70zM58 946c0 39 31 70 70 70c19 0 35 -7 48 -19c34 -32 75 -65 125 -99c52 34 101 68 148 104c12 9 27 14 43 14c39 0 70 -31 70 -70c0 -23 -11 -44 -29 -56c-61 -47 -126 -91 -195 -134c-11 -7 -24 -11 -38 -11s-28 4 -39 12c-73 47 -132 93 -181 138
c-14 13 -22 31 -22 51z" />
    <glyph glyph-name="uni0162" unicode="&#x162;" 
d="M181 552c-37 0 -75 0 -111 1c-38 1 -68 32 -68 70c0 39 31 70 70 70c36 -1 71 -1 109 -1c218 0 351 13 363 13c39 0 70 -31 70 -70c0 -37 -29 -67 -65 -70c-55 -4 -115 -8 -177 -10c11 -160 18 -375 18 -495c0 -7 -1 -13 -3 -20c48 -31 76 -80 76 -135
c0 -101 -96 -172 -215 -172c-9 0 -18 0 -26 1c-36 3 -65 33 -65 70c0 39 31 70 70 70l21 -1c45 0 75 13 75 32c0 11 -11 23 -43 29c-34 5 -60 34 -60 69c0 24 12 45 30 58c0 119 -8 334 -18 491h-51z" />
    <glyph glyph-name="uni021A" unicode="&#x21a;" 
d="M320 -10c-39 0 -70 31 -70 70c0 119 -8 334 -18 492h-51c-37 0 -75 0 -111 1c-38 1 -68 32 -68 70c0 39 31 70 70 70c36 -1 71 -1 109 -1c218 0 351 13 363 13c39 0 70 -31 70 -70c0 -37 -29 -67 -65 -70c-55 -4 -115 -8 -177 -10c11 -160 18 -375 18 -495
c0 -39 -31 -70 -70 -70zM186 -243c0 20 8 37 21 50c27 26 67 80 79 104c10 25 35 43 64 43c39 0 70 -31 70 -70c0 -11 -2 -21 -7 -30c-18 -39 -71 -111 -108 -147c-13 -12 -30 -20 -49 -20c-39 0 -70 31 -70 70z" />
    <glyph glyph-name="U" unicode="U" 
d="M308 -18c-172 0 -279 105 -279 275c0 86 8 230 20 379c3 36 33 65 70 65c39 0 70 -31 70 -70c0 -16 -20 -236 -20 -374c0 -92 44 -135 139 -135c106 0 151 49 151 176c0 182 -26 331 -26 347c0 39 31 70 70 70c36 0 65 -27 69 -61c16 -113 27 -258 27 -356
c0 -202 -105 -316 -291 -316z" />
    <glyph glyph-name="Uacute" unicode="&#xda;" 
d="M308 -18c-172 0 -279 105 -279 275c0 86 8 230 20 379c3 36 33 65 70 65c39 0 70 -31 70 -70c0 -16 -20 -236 -20 -374c0 -92 44 -135 139 -135c106 0 151 49 151 176c0 182 -26 331 -26 347c0 39 31 70 70 70c36 0 65 -27 69 -61c16 -113 27 -258 27 -356
c0 -202 -105 -316 -291 -316zM139 815c0 23 11 44 29 57l201 150c11 9 26 14 42 14c39 0 70 -31 70 -70c0 -23 -11 -44 -29 -57l-201 -150c-11 -9 -26 -14 -42 -14c-39 0 -70 31 -70 70z" />
    <glyph glyph-name="Ubreve" unicode="&#x16c;" 
d="M308 -18c-172 0 -279 105 -279 275c0 86 8 230 20 379c3 36 33 65 70 65c39 0 70 -31 70 -70c0 -16 -20 -236 -20 -374c0 -92 44 -135 139 -135c106 0 151 49 151 176c0 182 -26 331 -26 347c0 39 31 70 70 70c36 0 65 -27 69 -61c16 -113 27 -258 27 -356
c0 -202 -105 -316 -291 -316zM66 939c0 39 31 70 70 70c33 0 60 -22 68 -52c11 -37 57 -65 113 -65c53 0 90 25 98 63c7 32 35 56 69 56c39 0 70 -31 70 -70c0 -6 -1 -11 -2 -16c-23 -104 -117 -173 -235 -173s-219 68 -248 166c-2 7 -3 14 -3 21z" />
    <glyph glyph-name="Ucircumflex" unicode="&#xdb;" 
d="M308 -18c-172 0 -279 105 -279 275c0 86 8 230 20 379c3 36 33 65 70 65c39 0 70 -31 70 -70c0 -16 -20 -236 -20 -374c0 -92 44 -135 139 -135c106 0 151 49 151 176c0 182 -26 331 -26 347c0 39 31 70 70 70c36 0 65 -27 69 -61c16 -113 27 -258 27 -356
c0 -202 -105 -316 -291 -316zM58 815c0 23 11 44 29 56c61 47 126 91 195 134c11 7 24 11 38 11s28 -4 39 -12c73 -47 132 -93 181 -138c14 -13 22 -31 22 -51c0 -39 -31 -70 -70 -70c-19 0 -35 7 -48 19c-34 32 -75 65 -125 99c-52 -34 -101 -68 -148 -104
c-12 -9 -27 -14 -43 -14c-39 0 -70 31 -70 70z" />
    <glyph glyph-name="Udieresis" unicode="&#xdc;" 
d="M308 -18c-172 0 -279 105 -279 275c0 86 8 230 20 379c3 36 33 65 70 65c39 0 70 -31 70 -70c0 -16 -20 -236 -20 -374c0 -92 44 -135 139 -135c106 0 151 49 151 176c0 182 -26 331 -26 347c0 39 31 70 70 70c36 0 65 -27 69 -61c16 -113 27 -258 27 -356
c0 -202 -105 -316 -291 -316zM139 869c0 10 2 27 4 38c7 33 35 57 69 57c39 0 70 -31 70 -70c0 -9 -1 -19 -1 -30c0 -13 4 -33 4 -43c0 -39 -31 -70 -70 -70c-34 0 -63 25 -69 57c-5 24 -7 44 -7 61zM338 832c0 9 2 16 2 32s-1 33 -1 42c0 39 31 70 70 70
c38 0 68 -30 70 -67c1 -11 1 -29 1 -45c0 -13 -1 -30 -3 -42c-4 -34 -34 -60 -69 -60c-39 0 -70 31 -70 70z" />
    <glyph glyph-name="Ugrave" unicode="&#xd9;" 
d="M308 -18c-172 0 -279 105 -279 275c0 86 8 230 20 379c3 36 33 65 70 65c39 0 70 -31 70 -70c0 -16 -20 -236 -20 -374c0 -92 44 -135 139 -135c106 0 151 49 151 176c0 182 -26 331 -26 347c0 39 31 70 70 70c36 0 65 -27 69 -61c16 -113 27 -258 27 -356
c0 -202 -105 -316 -291 -316zM139 946c0 39 31 70 70 70c16 0 31 -5 42 -14l201 -150c18 -13 29 -34 29 -57c0 -39 -31 -70 -70 -70c-16 0 -31 5 -42 14l-201 150c-18 13 -29 34 -29 57z" />
    <glyph glyph-name="Uhungarumlaut" unicode="&#x170;" 
d="M308 -18c-172 0 -279 105 -279 275c0 86 8 230 20 379c3 36 33 65 70 65c39 0 70 -31 70 -70c0 -16 -20 -236 -20 -374c0 -92 44 -135 139 -135c106 0 151 49 151 176c0 182 -26 331 -26 347c0 39 31 70 70 70c36 0 65 -27 69 -61c16 -113 27 -258 27 -356
c0 -202 -105 -316 -291 -316zM99 815c0 18 6 34 17 46c50 58 98 109 147 156c12 12 29 19 48 19c39 0 70 -31 70 -70c0 -20 -8 -38 -22 -51c-45 -43 -90 -91 -137 -145c-12 -15 -32 -25 -53 -25c-39 0 -70 31 -70 70zM319 815c0 18 6 34 17 46c50 58 98 109 147 156
c12 12 29 19 48 19c39 0 70 -31 70 -70c0 -20 -8 -38 -22 -51c-45 -43 -90 -91 -137 -145c-12 -15 -32 -25 -53 -25c-39 0 -70 31 -70 70z" />
    <glyph glyph-name="Umacron" unicode="&#x16a;" 
d="M308 -18c-172 0 -279 105 -279 275c0 86 8 230 20 379c3 36 33 65 70 65c39 0 70 -31 70 -70c0 -16 -20 -236 -20 -374c0 -92 44 -135 139 -135c106 0 151 49 151 176c0 182 -26 331 -26 347c0 39 31 70 70 70c36 0 65 -27 69 -61c16 -113 27 -258 27 -356
c0 -202 -105 -316 -291 -316zM52 831c0 36 27 65 61 69c110 16 294 23 384 23c39 0 70 -31 70 -70s-31 -70 -70 -70c-219 0 -365 -22 -375 -22c-39 0 -70 31 -70 70z" />
    <glyph glyph-name="Uogonek" unicode="&#x172;" 
d="M350 -214c-82 0 -149 55 -149 129c0 26 9 51 27 76c-125 28 -199 124 -199 266c0 86 8 230 20 379c3 36 33 65 70 65c39 0 70 -31 70 -70c0 -16 -20 -236 -20 -374c0 -92 44 -135 139 -135c106 0 151 49 151 176c0 182 -26 331 -26 347c0 39 31 70 70 70
c36 0 65 -27 69 -61c16 -113 27 -258 27 -356c0 -151 -59 -253 -166 -295l-6 -3c-45 -22 -86 -55 -86 -67c0 -5 4 -7 9 -7c20 0 46 10 64 26c12 10 28 17 46 17c39 0 70 -31 70 -70c0 -21 -10 -40 -25 -53c-41 -36 -103 -60 -155 -60z" />
    <glyph glyph-name="Uring" unicode="&#x16e;" 
d="M308 -18c-172 0 -279 105 -279 275c0 86 8 230 20 379c3 36 33 65 70 65c39 0 70 -31 70 -70c0 -16 -20 -236 -20 -374c0 -92 44 -135 139 -135c106 0 151 49 151 176c0 182 -26 331 -26 347c0 39 31 70 70 70c36 0 65 -27 69 -61c16 -113 27 -258 27 -356
c0 -202 -105 -316 -291 -316zM132 918c0 94 81 175 177 175c91 0 178 -80 178 -165c0 -90 -78 -171 -172 -171c-106 0 -183 66 -183 161zM232 918c0 -38 26 -61 83 -61c39 0 72 35 72 71c0 30 -45 65 -78 65c-34 0 -77 -36 -77 -75z" />
    <glyph glyph-name="Utilde" unicode="&#x168;" 
d="M308 -18c-172 0 -279 105 -279 275c0 86 8 230 20 379c3 36 33 65 70 65c39 0 70 -31 70 -70c0 -16 -20 -236 -20 -374c0 -92 44 -135 139 -135c106 0 151 49 151 176c0 182 -26 331 -26 347c0 39 31 70 70 70c36 0 65 -27 69 -61c16 -113 27 -258 27 -356
c0 -202 -105 -316 -291 -316zM27 814c0 5 1 10 1 14c20 100 96 173 190 173c60 0 99 -24 149 -76c29 -29 35 -33 49 -33c15 0 32 19 38 58c4 34 33 61 69 61c39 0 70 -31 70 -70c0 -4 0 -7 -1 -11c-14 -103 -83 -178 -176 -178c-60 0 -99 24 -149 76c-29 29 -35 33 -49 33
c-23 0 -45 -23 -52 -59c-6 -33 -34 -58 -69 -58c-39 0 -70 31 -70 70z" />
    <glyph glyph-name="V" unicode="V" 
d="M295 -20c-27 0 -51 16 -63 39c-80 153 -181 426 -227 611c-1 6 -2 12 -2 18c0 39 31 70 70 70c33 0 61 -23 68 -55c31 -123 87 -288 145 -426c63 175 132 341 193 461c11 24 35 40 63 40c39 0 70 -31 70 -70c0 -12 -3 -23 -8 -33c-77 -152 -168 -379 -242 -605
c-9 -29 -35 -50 -67 -50z" />
    <glyph glyph-name="W" unicode="W" 
d="M194 -20c-34 0 -62 24 -68 55c-72 298 -112 466 -132 589c-1 4 -1 8 -1 12c0 39 31 70 70 70c35 0 64 -26 69 -60c16 -94 42 -213 71 -335c18 65 34 127 47 184c7 32 35 56 69 56s62 -24 68 -55c10 -41 27 -101 47 -165c20 108 41 220 56 325c4 34 33 61 69 61
c39 0 70 -31 70 -70c0 -41 -84 -474 -103 -596c-4 -34 -34 -60 -69 -60c-32 0 -59 22 -67 51c-12 37 -59 188 -68 215c-35 -129 -48 -175 -60 -223c-7 -31 -35 -54 -68 -54z" />
    <glyph glyph-name="Wacute" unicode="&#x1e82;" 
d="M194 -20c-34 0 -62 24 -68 55c-72 298 -112 466 -132 589c-1 4 -1 8 -1 12c0 39 31 70 70 70c35 0 64 -26 69 -60c16 -94 42 -213 71 -335c18 65 34 127 47 184c7 32 35 56 69 56s62 -24 68 -55c10 -41 27 -101 47 -165c20 108 41 220 56 325c4 34 33 61 69 61
c39 0 70 -31 70 -70c0 -41 -84 -474 -103 -596c-4 -34 -34 -60 -69 -60c-32 0 -59 22 -67 51c-12 37 -59 188 -68 215c-35 -129 -48 -175 -60 -223c-7 -31 -35 -54 -68 -54zM139 815c0 23 11 44 29 57l201 150c11 9 26 14 42 14c39 0 70 -31 70 -70c0 -23 -11 -44 -29 -57
l-201 -150c-11 -9 -26 -14 -42 -14c-39 0 -70 31 -70 70z" />
    <glyph glyph-name="Wcircumflex" unicode="&#x174;" 
d="M194 -20c-34 0 -62 24 -68 55c-72 298 -112 466 -132 589c-1 4 -1 8 -1 12c0 39 31 70 70 70c35 0 64 -26 69 -60c16 -94 42 -213 71 -335c18 65 34 127 47 184c7 32 35 56 69 56s62 -24 68 -55c10 -41 27 -101 47 -165c20 108 41 220 56 325c4 34 33 61 69 61
c39 0 70 -31 70 -70c0 -41 -84 -474 -103 -596c-4 -34 -34 -60 -69 -60c-32 0 -59 22 -67 51c-12 37 -59 188 -68 215c-35 -129 -48 -175 -60 -223c-7 -31 -35 -54 -68 -54zM58 815c0 23 11 44 29 56c61 47 126 91 195 134c11 7 24 11 38 11s28 -4 39 -12
c73 -47 132 -93 181 -138c14 -13 22 -31 22 -51c0 -39 -31 -70 -70 -70c-19 0 -35 7 -48 19c-34 32 -75 65 -125 99c-52 -34 -101 -68 -148 -104c-12 -9 -27 -14 -43 -14c-39 0 -70 31 -70 70z" />
    <glyph glyph-name="Wdieresis" unicode="&#x1e84;" 
d="M194 -20c-34 0 -62 24 -68 55c-72 298 -112 466 -132 589c-1 4 -1 8 -1 12c0 39 31 70 70 70c35 0 64 -26 69 -60c16 -94 42 -213 71 -335c18 65 34 127 47 184c7 32 35 56 69 56s62 -24 68 -55c10 -41 27 -101 47 -165c20 108 41 220 56 325c4 34 33 61 69 61
c39 0 70 -31 70 -70c0 -41 -84 -474 -103 -596c-4 -34 -34 -60 -69 -60c-32 0 -59 22 -67 51c-12 37 -59 188 -68 215c-35 -129 -48 -175 -60 -223c-7 -31 -35 -54 -68 -54zM139 869c0 10 2 27 4 38c7 33 35 57 69 57c39 0 70 -31 70 -70c0 -9 -1 -19 -1 -30
c0 -13 4 -33 4 -43c0 -39 -31 -70 -70 -70c-34 0 -63 25 -69 57c-5 24 -7 44 -7 61zM338 832c0 9 2 16 2 32s-1 33 -1 42c0 39 31 70 70 70c38 0 68 -30 70 -67c1 -11 1 -29 1 -45c0 -13 -1 -30 -3 -42c-4 -34 -34 -60 -69 -60c-39 0 -70 31 -70 70z" />
    <glyph glyph-name="Wgrave" unicode="&#x1e80;" 
d="M194 -20c-34 0 -62 24 -68 55c-72 298 -112 466 -132 589c-1 4 -1 8 -1 12c0 39 31 70 70 70c35 0 64 -26 69 -60c16 -94 42 -213 71 -335c18 65 34 127 47 184c7 32 35 56 69 56s62 -24 68 -55c10 -41 27 -101 47 -165c20 108 41 220 56 325c4 34 33 61 69 61
c39 0 70 -31 70 -70c0 -41 -84 -474 -103 -596c-4 -34 -34 -60 -69 -60c-32 0 -59 22 -67 51c-12 37 -59 188 -68 215c-35 -129 -48 -175 -60 -223c-7 -31 -35 -54 -68 -54zM139 946c0 39 31 70 70 70c16 0 31 -5 42 -14l201 -150c18 -13 29 -34 29 -57
c0 -39 -31 -70 -70 -70c-16 0 -31 5 -42 14l-201 150c-18 13 -29 34 -29 57z" />
    <glyph glyph-name="X" unicode="X" 
d="M67 -23c-39 0 -70 31 -70 70c0 17 6 33 17 46c66 76 137 168 196 248c-65 95 -119 190 -157 279c-4 9 -6 19 -6 29c0 39 31 70 70 70c29 0 55 -18 65 -44c29 -68 68 -139 115 -213c61 85 131 175 182 238c13 16 33 26 55 26c39 0 70 -31 70 -70c0 -17 -6 -33 -16 -45
c-58 -72 -140 -178 -206 -270c56 -73 148 -187 202 -249c11 -12 18 -28 18 -46c0 -39 -31 -70 -70 -70c-21 0 -40 9 -53 24c-47 54 -125 148 -183 222c-54 -73 -117 -152 -175 -220c-13 -15 -32 -25 -54 -25z" />
    <glyph glyph-name="Y" unicode="Y" 
d="M312 -21c-39 0 -70 31 -70 70c2 48 6 141 9 207c-62 97 -154 235 -231 339c-9 12 -14 26 -14 42c0 39 31 70 70 70c23 0 44 -12 57 -29c60 -83 130 -186 188 -273c54 84 108 179 156 277c11 23 35 40 63 40c39 0 70 -31 70 -70c0 -12 -3 -23 -8 -32
c-54 -110 -129 -245 -211 -364c-3 -72 -6 -150 -9 -210c-1 -37 -32 -67 -70 -67z" />
    <glyph glyph-name="Yacute" unicode="&#xdd;" 
d="M312 -21c-39 0 -70 31 -70 70c2 48 6 141 9 207c-62 97 -154 235 -231 339c-9 12 -14 26 -14 42c0 39 31 70 70 70c23 0 44 -12 57 -29c60 -83 130 -186 188 -273c54 84 108 179 156 277c11 23 35 40 63 40c39 0 70 -31 70 -70c0 -12 -3 -23 -8 -32
c-54 -110 -129 -245 -211 -364c-3 -72 -6 -150 -9 -210c-1 -37 -32 -67 -70 -67zM139 815c0 23 11 44 29 57l201 150c11 9 26 14 42 14c39 0 70 -31 70 -70c0 -23 -11 -44 -29 -57l-201 -150c-11 -9 -26 -14 -42 -14c-39 0 -70 31 -70 70z" />
    <glyph glyph-name="Ycircumflex" unicode="&#x176;" 
d="M312 -21c-39 0 -70 31 -70 70c2 48 6 141 9 207c-62 97 -154 235 -231 339c-9 12 -14 26 -14 42c0 39 31 70 70 70c23 0 44 -12 57 -29c60 -83 130 -186 188 -273c54 84 108 179 156 277c11 23 35 40 63 40c39 0 70 -31 70 -70c0 -12 -3 -23 -8 -32
c-54 -110 -129 -245 -211 -364c-3 -72 -6 -150 -9 -210c-1 -37 -32 -67 -70 -67zM58 815c0 23 11 44 29 56c61 47 126 91 195 134c11 7 24 11 38 11s28 -4 39 -12c73 -47 132 -93 181 -138c14 -13 22 -31 22 -51c0 -39 -31 -70 -70 -70c-19 0 -35 7 -48 19
c-34 32 -75 65 -125 99c-52 -34 -101 -68 -148 -104c-12 -9 -27 -14 -43 -14c-39 0 -70 31 -70 70z" />
    <glyph glyph-name="Ydieresis" unicode="&#x178;" 
d="M312 -21c-39 0 -70 31 -70 70c2 48 6 141 9 207c-62 97 -154 235 -231 339c-9 12 -14 26 -14 42c0 39 31 70 70 70c23 0 44 -12 57 -29c60 -83 130 -186 188 -273c54 84 108 179 156 277c11 23 35 40 63 40c39 0 70 -31 70 -70c0 -12 -3 -23 -8 -32
c-54 -110 -129 -245 -211 -364c-3 -72 -6 -150 -9 -210c-1 -37 -32 -67 -70 -67zM139 869c0 10 2 27 4 38c7 33 35 57 69 57c39 0 70 -31 70 -70c0 -9 -1 -19 -1 -30c0 -13 4 -33 4 -43c0 -39 -31 -70 -70 -70c-34 0 -63 25 -69 57c-5 24 -7 44 -7 61zM338 832
c0 9 2 16 2 32s-1 33 -1 42c0 39 31 70 70 70c38 0 68 -30 70 -67c1 -11 1 -29 1 -45c0 -13 -1 -30 -3 -42c-4 -34 -34 -60 -69 -60c-39 0 -70 31 -70 70z" />
    <glyph glyph-name="Ygrave" unicode="&#x1ef2;" 
d="M312 -21c-39 0 -70 31 -70 70c2 48 6 141 9 207c-62 97 -154 235 -231 339c-9 12 -14 26 -14 42c0 39 31 70 70 70c23 0 44 -12 57 -29c60 -83 130 -186 188 -273c54 84 108 179 156 277c11 23 35 40 63 40c39 0 70 -31 70 -70c0 -12 -3 -23 -8 -32
c-54 -110 -129 -245 -211 -364c-3 -72 -6 -150 -9 -210c-1 -37 -32 -67 -70 -67zM139 946c0 39 31 70 70 70c16 0 31 -5 42 -14l201 -150c18 -13 29 -34 29 -57c0 -39 -31 -70 -70 -70c-16 0 -31 5 -42 14l-201 150c-18 13 -29 34 -29 57z" />
    <glyph glyph-name="Z" unicode="Z" 
d="M84 -9c-39 0 -70 31 -70 70c0 14 4 27 11 38c106 168 225 334 331 464c-52 -2 -104 -3 -151 -3c-51 0 -96 2 -128 4c-36 3 -65 33 -65 70c0 39 31 70 70 70c15 0 54 -4 123 -4c148 0 301 13 313 13c39 0 70 -31 70 -70c0 -19 -7 -36 -19 -48
c-102 -107 -231 -276 -352 -458h98c164 0 206 6 221 6c39 0 70 -31 70 -70c0 -37 -29 -67 -65 -70c-72 -5 -150 -6 -226 -6c-187 0 -214 -6 -231 -6z" />
    <glyph glyph-name="Zacute" unicode="&#x179;" 
d="M84 -9c-39 0 -70 31 -70 70c0 14 4 27 11 38c106 168 225 334 331 464c-52 -2 -104 -3 -151 -3c-51 0 -96 2 -128 4c-36 3 -65 33 -65 70c0 39 31 70 70 70c15 0 54 -4 123 -4c148 0 301 13 313 13c39 0 70 -31 70 -70c0 -19 -7 -36 -19 -48
c-102 -107 -231 -276 -352 -458h98c164 0 206 6 221 6c39 0 70 -31 70 -70c0 -37 -29 -67 -65 -70c-72 -5 -150 -6 -226 -6c-187 0 -214 -6 -231 -6zM139 815c0 23 11 44 29 57l201 150c11 9 26 14 42 14c39 0 70 -31 70 -70c0 -23 -11 -44 -29 -57l-201 -150
c-11 -9 -26 -14 -42 -14c-39 0 -70 31 -70 70z" />
    <glyph glyph-name="Zcaron" unicode="&#x17d;" 
d="M84 -9c-39 0 -70 31 -70 70c0 14 4 27 11 38c106 168 225 334 331 464c-52 -2 -104 -3 -151 -3c-51 0 -96 2 -128 4c-36 3 -65 33 -65 70c0 39 31 70 70 70c15 0 54 -4 123 -4c148 0 301 13 313 13c39 0 70 -31 70 -70c0 -19 -7 -36 -19 -48
c-102 -107 -231 -276 -352 -458h98c164 0 206 6 221 6c39 0 70 -31 70 -70c0 -37 -29 -67 -65 -70c-72 -5 -150 -6 -226 -6c-187 0 -214 -6 -231 -6zM58 946c0 39 31 70 70 70c19 0 35 -7 48 -19c34 -32 75 -65 125 -99c52 34 101 68 148 104c12 9 27 14 43 14
c39 0 70 -31 70 -70c0 -23 -11 -44 -29 -56c-61 -47 -126 -91 -195 -134c-11 -7 -24 -11 -38 -11s-28 4 -39 12c-73 47 -132 93 -181 138c-14 13 -22 31 -22 51z" />
    <glyph glyph-name="Zdotaccent" unicode="&#x17b;" 
d="M84 -9c-39 0 -70 31 -70 70c0 14 4 27 11 38c106 168 225 334 331 464c-52 -2 -104 -3 -151 -3c-51 0 -96 2 -128 4c-36 3 -65 33 -65 70c0 39 31 70 70 70c15 0 54 -4 123 -4c148 0 301 13 313 13c39 0 70 -31 70 -70c0 -19 -7 -36 -19 -48
c-102 -107 -231 -276 -352 -458h98c164 0 206 6 221 6c39 0 70 -31 70 -70c0 -37 -29 -67 -65 -70c-72 -5 -150 -6 -226 -6c-187 0 -214 -6 -231 -6zM218 886c0 63 32 111 94 111c51 0 91 -41 91 -92c0 -38 -23 -85 -53 -117c-13 -14 -31 -22 -51 -22c-18 0 -34 6 -46 17
c-17 11 -29 30 -32 51c-2 21 -3 38 -3 52z" />
    <glyph glyph-name="Y.ss02" 
d="M152 -41c-39 0 -70 31 -70 70c0 20 8 37 21 50c43 42 87 96 131 158c-61 108 -146 251 -216 361c-8 11 -12 25 -12 39c0 39 31 70 70 70c25 0 47 -13 59 -33c60 -92 128 -207 185 -306c59 98 113 204 154 308c10 27 36 46 66 46c39 0 70 -31 70 -70c0 -10 -2 -19 -6 -27
c-97 -245 -260 -506 -403 -646c-13 -12 -30 -20 -49 -20z" />
    <glyph glyph-name="Yacute.ss02" 
d="M152 -41c-39 0 -70 31 -70 70c0 20 8 37 21 50c43 42 87 96 131 158c-61 108 -146 251 -216 361c-8 11 -12 25 -12 39c0 39 31 70 70 70c25 0 47 -13 59 -33c60 -92 128 -207 185 -306c59 98 113 204 154 308c10 27 36 46 66 46c39 0 70 -31 70 -70c0 -10 -2 -19 -6 -27
c-97 -245 -260 -506 -403 -646c-13 -12 -30 -20 -49 -20zM139 815c0 23 11 44 29 57l201 150c11 9 26 14 42 14c39 0 70 -31 70 -70c0 -23 -11 -44 -29 -57l-201 -150c-11 -9 -26 -14 -42 -14c-39 0 -70 31 -70 70z" />
    <glyph glyph-name="Ycircumflex.ss02" 
d="M152 -41c-39 0 -70 31 -70 70c0 20 8 37 21 50c43 42 87 96 131 158c-61 108 -146 251 -216 361c-8 11 -12 25 -12 39c0 39 31 70 70 70c25 0 47 -13 59 -33c60 -92 128 -207 185 -306c59 98 113 204 154 308c10 27 36 46 66 46c39 0 70 -31 70 -70c0 -10 -2 -19 -6 -27
c-97 -245 -260 -506 -403 -646c-13 -12 -30 -20 -49 -20zM58 815c0 23 11 44 29 56c61 47 126 91 195 134c11 7 24 11 38 11s28 -4 39 -12c73 -47 132 -93 181 -138c14 -13 22 -31 22 -51c0 -39 -31 -70 -70 -70c-19 0 -35 7 -48 19c-34 32 -75 65 -125 99
c-52 -34 -101 -68 -148 -104c-12 -9 -27 -14 -43 -14c-39 0 -70 31 -70 70z" />
    <glyph glyph-name="Ydieresis.ss02" 
d="M152 -41c-39 0 -70 31 -70 70c0 20 8 37 21 50c43 42 87 96 131 158c-61 108 -146 251 -216 361c-8 11 -12 25 -12 39c0 39 31 70 70 70c25 0 47 -13 59 -33c60 -92 128 -207 185 -306c59 98 113 204 154 308c10 27 36 46 66 46c39 0 70 -31 70 -70c0 -10 -2 -19 -6 -27
c-97 -245 -260 -506 -403 -646c-13 -12 -30 -20 -49 -20zM139 869c0 10 2 27 4 38c7 33 35 57 69 57c39 0 70 -31 70 -70c0 -9 -1 -19 -1 -30c0 -13 4 -33 4 -43c0 -39 -31 -70 -70 -70c-34 0 -63 25 -69 57c-5 24 -7 44 -7 61zM338 832c0 9 2 16 2 32s-1 33 -1 42
c0 39 31 70 70 70c38 0 68 -30 70 -67c1 -11 1 -29 1 -45c0 -13 -1 -30 -3 -42c-4 -34 -34 -60 -69 -60c-39 0 -70 31 -70 70z" />
    <glyph glyph-name="Ygrave.ss02" 
d="M152 -41c-39 0 -70 31 -70 70c0 20 8 37 21 50c43 42 87 96 131 158c-61 108 -146 251 -216 361c-8 11 -12 25 -12 39c0 39 31 70 70 70c25 0 47 -13 59 -33c60 -92 128 -207 185 -306c59 98 113 204 154 308c10 27 36 46 66 46c39 0 70 -31 70 -70c0 -10 -2 -19 -6 -27
c-97 -245 -260 -506 -403 -646c-13 -12 -30 -20 -49 -20zM139 946c0 39 31 70 70 70c16 0 31 -5 42 -14l201 -150c18 -13 29 -34 29 -57c0 -39 -31 -70 -70 -70c-16 0 -31 5 -42 14l-201 150c-18 13 -29 34 -29 57z" />
    <glyph glyph-name="a" unicode="a" 
d="M502 -49c-37 0 -68 29 -70 66l-1 17c-51 -37 -113 -58 -172 -58c-129 0 -215 66 -215 175c0 123 105 193 263 193c30 0 63 -4 94 -12c-11 89 -32 112 -84 112c-38 0 -78 -11 -122 -34c-10 -6 -22 -9 -34 -9c-39 0 -70 31 -70 70c0 27 16 51 39 63c61 32 128 50 187 50
c132 0 203 -82 222 -236c8 -64 28 -235 33 -327c0 -39 -31 -70 -70 -70zM184 156c0 -32 20 -50 75 -50c58 0 118 23 160 61l-4 44c-34 8 -71 13 -108 13c-87 0 -123 -25 -123 -68z" />
    <glyph glyph-name="aacute" unicode="&#xe1;" 
d="M502 -49c-37 0 -68 29 -70 66l-1 17c-51 -37 -113 -58 -172 -58c-129 0 -215 66 -215 175c0 123 105 193 263 193c30 0 63 -4 94 -12c-11 89 -32 112 -84 112c-38 0 -78 -11 -122 -34c-10 -6 -22 -9 -34 -9c-39 0 -70 31 -70 70c0 27 16 51 39 63c61 32 128 50 187 50
c132 0 203 -82 222 -236c8 -64 28 -235 33 -327c0 -39 -31 -70 -70 -70zM139 675c0 23 11 44 29 57l201 150c11 9 26 14 42 14c39 0 70 -31 70 -70c0 -23 -11 -44 -29 -57l-201 -150c-11 -9 -26 -14 -42 -14c-39 0 -70 31 -70 70zM184 156c0 -32 20 -50 75 -50
c58 0 118 23 160 61l-4 44c-34 8 -71 13 -108 13c-87 0 -123 -25 -123 -68z" />
    <glyph glyph-name="abreve" unicode="&#x103;" 
d="M502 -49c-37 0 -68 29 -70 66l-1 17c-51 -37 -113 -58 -172 -58c-129 0 -215 66 -215 175c0 123 105 193 263 193c30 0 63 -4 94 -12c-11 89 -32 112 -84 112c-38 0 -78 -11 -122 -34c-10 -6 -22 -9 -34 -9c-39 0 -70 31 -70 70c0 27 16 51 39 63c61 32 128 50 187 50
c132 0 203 -82 222 -236c8 -64 28 -235 33 -327c0 -39 -31 -70 -70 -70zM66 799c0 39 31 70 70 70c33 0 60 -22 68 -52c11 -37 57 -65 113 -65c53 0 90 25 98 63c7 32 35 56 69 56c39 0 70 -31 70 -70c0 -6 -1 -11 -2 -16c-23 -104 -117 -173 -235 -173s-219 68 -248 166
c-2 7 -3 14 -3 21zM184 156c0 -32 20 -50 75 -50c58 0 118 23 160 61l-4 44c-34 8 -71 13 -108 13c-87 0 -123 -25 -123 -68z" />
    <glyph glyph-name="acircumflex" unicode="&#xe2;" 
d="M502 -49c-37 0 -68 29 -70 66l-1 17c-51 -37 -113 -58 -172 -58c-129 0 -215 66 -215 175c0 123 105 193 263 193c30 0 63 -4 94 -12c-11 89 -32 112 -84 112c-38 0 -78 -11 -122 -34c-10 -6 -22 -9 -34 -9c-39 0 -70 31 -70 70c0 27 16 51 39 63c61 32 128 50 187 50
c132 0 203 -82 222 -236c8 -64 28 -235 33 -327c0 -39 -31 -70 -70 -70zM58 675c0 23 11 44 29 56c61 47 126 91 195 134c11 7 24 11 38 11s28 -4 39 -12c73 -47 132 -93 181 -138c14 -13 22 -31 22 -51c0 -39 -31 -70 -70 -70c-19 0 -35 7 -48 19c-34 32 -75 65 -125 99
c-52 -34 -101 -68 -148 -104c-12 -9 -27 -14 -43 -14c-39 0 -70 31 -70 70zM184 156c0 -32 20 -50 75 -50c58 0 118 23 160 61l-4 44c-34 8 -71 13 -108 13c-87 0 -123 -25 -123 -68z" />
    <glyph glyph-name="adieresis" unicode="&#xe4;" 
d="M502 -49c-37 0 -68 29 -70 66l-1 17c-51 -37 -113 -58 -172 -58c-129 0 -215 66 -215 175c0 123 105 193 263 193c30 0 63 -4 94 -12c-11 89 -32 112 -84 112c-38 0 -78 -11 -122 -34c-10 -6 -22 -9 -34 -9c-39 0 -70 31 -70 70c0 27 16 51 39 63c61 32 128 50 187 50
c132 0 203 -82 222 -236c8 -64 28 -235 33 -327c0 -39 -31 -70 -70 -70zM139 729c0 10 2 27 4 38c7 33 35 57 69 57c39 0 70 -31 70 -70c0 -9 -1 -19 -1 -30c0 -13 4 -33 4 -43c0 -39 -31 -70 -70 -70c-34 0 -63 25 -69 57c-5 24 -7 44 -7 61zM184 156c0 -32 20 -50 75 -50
c58 0 118 23 160 61l-4 44c-34 8 -71 13 -108 13c-87 0 -123 -25 -123 -68zM338 692c0 9 2 16 2 32s-1 33 -1 42c0 39 31 70 70 70c38 0 68 -30 70 -67c1 -11 1 -29 1 -45c0 -13 -1 -30 -3 -42c-4 -34 -34 -60 -69 -60c-39 0 -70 31 -70 70z" />
    <glyph glyph-name="agrave" unicode="&#xe0;" 
d="M502 -49c-37 0 -68 29 -70 66l-1 17c-51 -37 -113 -58 -172 -58c-129 0 -215 66 -215 175c0 123 105 193 263 193c30 0 63 -4 94 -12c-11 89 -32 112 -84 112c-38 0 -78 -11 -122 -34c-10 -6 -22 -9 -34 -9c-39 0 -70 31 -70 70c0 27 16 51 39 63c61 32 128 50 187 50
c132 0 203 -82 222 -236c8 -64 28 -235 33 -327c0 -39 -31 -70 -70 -70zM139 806c0 39 31 70 70 70c16 0 31 -5 42 -14l201 -150c18 -13 29 -34 29 -57c0 -39 -31 -70 -70 -70c-16 0 -31 5 -42 14l-201 150c-18 13 -29 34 -29 57zM184 156c0 -32 20 -50 75 -50
c58 0 118 23 160 61l-4 44c-34 8 -71 13 -108 13c-87 0 -123 -25 -123 -68z" />
    <glyph glyph-name="amacron" unicode="&#x101;" 
d="M502 -49c-37 0 -68 29 -70 66l-1 17c-51 -37 -113 -58 -172 -58c-129 0 -215 66 -215 175c0 123 105 193 263 193c30 0 63 -4 94 -12c-11 89 -32 112 -84 112c-38 0 -78 -11 -122 -34c-10 -6 -22 -9 -34 -9c-39 0 -70 31 -70 70c0 27 16 51 39 63c61 32 128 50 187 50
c132 0 203 -82 222 -236c8 -64 28 -235 33 -327c0 -39 -31 -70 -70 -70zM52 691c0 36 27 65 61 69c110 16 294 23 384 23c39 0 70 -31 70 -70s-31 -70 -70 -70c-219 0 -365 -22 -375 -22c-39 0 -70 31 -70 70zM184 156c0 -32 20 -50 75 -50c58 0 118 23 160 61l-4 44
c-34 8 -71 13 -108 13c-87 0 -123 -25 -123 -68z" />
    <glyph glyph-name="aogonek" unicode="&#x105;" 
d="M259 -24c-129 0 -215 66 -215 175c0 123 105 193 263 193c30 0 63 -4 94 -12c-11 89 -32 112 -84 112c-38 0 -78 -11 -122 -34c-10 -6 -22 -9 -34 -9c-39 0 -70 31 -70 70c0 27 16 51 39 63c61 32 128 50 187 50c132 0 203 -82 222 -236c8 -64 28 -235 33 -327
c0 -30 -18 -55 -45 -65c-42 -22 -79 -53 -79 -64c0 -5 4 -7 9 -7c20 0 46 10 64 26c12 10 28 17 46 17c39 0 70 -31 70 -70c0 -21 -10 -40 -25 -53c-41 -36 -103 -60 -155 -60c-82 0 -149 55 -149 129c0 55 41 110 123 153v7c-51 -37 -113 -58 -172 -58zM184 156
c0 -32 20 -50 75 -50c58 0 118 23 160 61l-4 44c-34 8 -71 13 -108 13c-87 0 -123 -25 -123 -68z" />
    <glyph glyph-name="aring" unicode="&#xe5;" 
d="M502 -49c-37 0 -68 29 -70 66l-1 17c-51 -37 -113 -58 -172 -58c-129 0 -215 66 -215 175c0 123 105 193 263 193c30 0 63 -4 94 -12c-11 89 -32 112 -84 112c-38 0 -78 -11 -122 -34c-10 -6 -22 -9 -34 -9c-39 0 -70 31 -70 70c0 27 16 51 39 63c61 32 128 50 187 50
c132 0 203 -82 222 -236c8 -64 28 -235 33 -327c0 -39 -31 -70 -70 -70zM132 778c0 94 81 175 177 175c91 0 178 -80 178 -165c0 -90 -78 -171 -172 -171c-106 0 -183 66 -183 161zM184 156c0 -32 20 -50 75 -50c58 0 118 23 160 61l-4 44c-34 8 -71 13 -108 13
c-87 0 -123 -25 -123 -68zM232 778c0 -38 26 -61 83 -61c39 0 72 35 72 71c0 30 -45 65 -78 65c-34 0 -77 -36 -77 -75z" />
    <glyph glyph-name="aringacute" unicode="&#x1fb;" 
d="M502 -49c-37 0 -68 29 -70 66l-1 17c-51 -37 -113 -58 -172 -58c-129 0 -215 66 -215 175c0 123 105 193 263 193c30 0 63 -4 94 -12c-11 89 -32 112 -84 112c-38 0 -78 -11 -122 -34c-10 -6 -22 -9 -34 -9c-39 0 -70 31 -70 70c0 27 16 51 39 63c61 32 128 50 187 50
c132 0 203 -82 222 -236c8 -64 28 -235 33 -327c0 -39 -31 -70 -70 -70zM132 778c0 95 81 175 177 175c18 0 36 -3 54 -9l145 110c12 9 27 14 43 14c39 0 70 -31 70 -70c0 -23 -11 -44 -29 -56l-121 -91c10 -20 16 -41 16 -63c0 -91 -78 -171 -172 -171
c-106 0 -183 66 -183 161zM184 156c0 -32 20 -50 75 -50c58 0 118 23 160 61l-4 44c-34 8 -71 13 -108 13c-87 0 -123 -25 -123 -68zM232 778c0 -38 26 -61 83 -61c39 0 72 35 72 71c0 30 -45 65 -78 65c-34 0 -77 -36 -77 -75z" />
    <glyph glyph-name="atilde" unicode="&#xe3;" 
d="M502 -49c-37 0 -68 29 -70 66l-1 17c-51 -37 -113 -58 -172 -58c-129 0 -215 66 -215 175c0 123 105 193 263 193c30 0 63 -4 94 -12c-11 89 -32 112 -84 112c-38 0 -78 -11 -122 -34c-10 -6 -22 -9 -34 -9c-39 0 -70 31 -70 70c0 27 16 51 39 63c61 32 128 50 187 50
c132 0 203 -82 222 -236c8 -64 28 -235 33 -327c0 -39 -31 -70 -70 -70zM27 674c0 5 1 10 1 14c20 100 96 173 190 173c60 0 99 -24 149 -76c29 -29 35 -33 49 -33c15 0 32 19 38 58c4 34 33 61 69 61c39 0 70 -31 70 -70c0 -4 0 -7 -1 -11c-14 -103 -83 -178 -176 -178
c-60 0 -99 24 -149 76c-29 29 -35 33 -49 33c-23 0 -45 -23 -52 -59c-6 -33 -34 -58 -69 -58c-39 0 -70 31 -70 70zM184 156c0 -32 20 -50 75 -50c58 0 118 23 160 61l-4 44c-34 8 -71 13 -108 13c-87 0 -123 -25 -123 -68z" />
    <glyph glyph-name="ae" unicode="&#xe6;" 
d="M433 -23c-56 0 -99 22 -129 62c-37 -41 -83 -64 -139 -64c-103 0 -166 76 -166 189c0 112 75 192 181 192c25 0 48 -4 70 -13c-2 65 -24 90 -59 90c-18 0 -39 -9 -67 -30c-12 -9 -27 -15 -43 -15c-39 0 -70 31 -70 70c0 23 11 43 28 56c49 38 101 59 152 59
c53 0 95 -23 124 -65c31 49 76 76 137 76c96 0 168 -85 168 -188c0 -50 -23 -84 -71 -120c-42 -30 -107 -62 -175 -88c10 -56 33 -71 59 -71c19 0 35 9 61 40c13 16 32 26 54 26c39 0 70 -31 70 -70c0 -17 -6 -33 -16 -45c-50 -60 -104 -91 -169 -91zM139 169
c0 -42 10 -54 32 -54c26 0 59 21 84 57c-2 15 -3 29 -4 45c-19 14 -37 19 -61 19c-33 0 -51 -22 -51 -67zM374 322c36 17 67 36 88 54c15 14 17 20 17 29c0 15 -14 39 -32 39c-34 0 -62 -43 -73 -122z" />
    <glyph glyph-name="aeacute" unicode="&#x1fd;" 
d="M433 -23c-56 0 -99 22 -129 62c-37 -41 -83 -64 -139 -64c-103 0 -166 76 -166 189c0 112 75 192 181 192c25 0 48 -4 70 -13c-2 65 -24 90 -59 90c-18 0 -39 -9 -67 -30c-12 -9 -27 -15 -43 -15c-39 0 -70 31 -70 70c0 23 11 43 28 56c49 38 101 59 152 59
c53 0 95 -23 124 -65c31 49 76 76 137 76c96 0 168 -85 168 -188c0 -50 -23 -84 -71 -120c-42 -30 -107 -62 -175 -88c10 -56 33 -71 59 -71c19 0 35 9 61 40c13 16 32 26 54 26c39 0 70 -31 70 -70c0 -17 -6 -33 -16 -45c-50 -60 -104 -91 -169 -91zM139 169
c0 -42 10 -54 32 -54c26 0 59 21 84 57c-2 15 -3 29 -4 45c-19 14 -37 19 -61 19c-33 0 -51 -22 -51 -67zM139 675c0 23 11 44 29 57l201 150c11 9 26 14 42 14c39 0 70 -31 70 -70c0 -23 -11 -44 -29 -57l-201 -150c-11 -9 -26 -14 -42 -14c-39 0 -70 31 -70 70zM374 322
c36 17 67 36 88 54c15 14 17 20 17 29c0 15 -14 39 -32 39c-34 0 -62 -43 -73 -122z" />
    <glyph glyph-name="b" unicode="b" 
d="M301 -25c-37 0 -77 11 -112 29l-9 -15c-12 -20 -34 -33 -59 -33c-39 0 -70 31 -70 70c0 43 30 34 30 133c0 30 -9 327 -9 372c0 102 7 178 20 229c8 30 35 53 68 53c39 0 70 -31 70 -70c0 -16 -18 -49 -18 -210c39 31 79 47 119 47c146 0 247 -134 247 -320
c0 -167 -115 -285 -277 -285zM216 376c2 -94 5 -198 5 -217l-1 -29c25 -9 54 -15 81 -15c85 0 137 55 137 145c0 108 -45 180 -107 180c-33 0 -71 -21 -115 -64z" />
    <glyph glyph-name="c" unicode="c" 
d="M302 -23c-154 0 -256 108 -256 270c0 182 130 338 286 338c65 0 135 -25 205 -71c19 -13 32 -34 32 -59c0 -39 -31 -70 -70 -70c-15 0 -28 5 -40 12c-49 33 -89 48 -127 48c-75 0 -146 -92 -146 -198c0 -85 41 -130 116 -130c63 0 117 23 165 73c13 13 30 21 50 21
c39 0 70 -31 70 -70c0 -19 -8 -36 -20 -49c-73 -75 -165 -115 -265 -115z" />
    <glyph glyph-name="cacute" unicode="&#x107;" 
d="M302 -23c-154 0 -256 108 -256 270c0 182 130 338 286 338c65 0 135 -25 205 -71c19 -13 32 -34 32 -59c0 -39 -31 -70 -70 -70c-15 0 -28 5 -40 12c-49 33 -89 48 -127 48c-75 0 -146 -92 -146 -198c0 -85 41 -130 116 -130c63 0 117 23 165 73c13 13 30 21 50 21
c39 0 70 -31 70 -70c0 -19 -8 -36 -20 -49c-73 -75 -165 -115 -265 -115zM139 675c0 23 11 44 29 57l201 150c11 9 26 14 42 14c39 0 70 -31 70 -70c0 -23 -11 -44 -29 -57l-201 -150c-11 -9 -26 -14 -42 -14c-39 0 -70 31 -70 70z" />
    <glyph glyph-name="ccaron" unicode="&#x10d;" 
d="M302 -23c-154 0 -256 108 -256 270c0 182 130 338 286 338c65 0 135 -25 205 -71c19 -13 32 -34 32 -59c0 -39 -31 -70 -70 -70c-15 0 -28 5 -40 12c-49 33 -89 48 -127 48c-75 0 -146 -92 -146 -198c0 -85 41 -130 116 -130c63 0 117 23 165 73c13 13 30 21 50 21
c39 0 70 -31 70 -70c0 -19 -8 -36 -20 -49c-73 -75 -165 -115 -265 -115zM58 806c0 39 31 70 70 70c19 0 35 -7 48 -19c34 -32 75 -65 125 -99c52 34 101 68 148 104c12 9 27 14 43 14c39 0 70 -31 70 -70c0 -23 -11 -44 -29 -56c-61 -47 -126 -91 -195 -134
c-11 -7 -24 -11 -38 -11s-28 4 -39 12c-73 47 -132 93 -181 138c-14 13 -22 31 -22 51z" />
    <glyph glyph-name="ccedilla" unicode="&#xe7;" 
d="M248 -267c-9 0 -18 0 -26 1c-36 3 -65 33 -65 70c0 39 31 70 70 70l21 -1c45 0 75 13 75 32c0 11 -11 23 -43 29c-29 4 -52 26 -58 54c-108 31 -176 127 -176 259c0 182 130 338 286 338c65 0 135 -25 205 -71c19 -13 32 -34 32 -59c0 -39 -31 -70 -70 -70
c-15 0 -28 5 -40 12c-49 33 -89 48 -127 48c-75 0 -146 -92 -146 -198c0 -85 41 -130 116 -130c63 0 117 23 165 73c13 13 30 21 50 21c39 0 70 -31 70 -70c0 -19 -8 -36 -20 -49c-40 -41 -86 -72 -136 -91c20 -28 32 -60 32 -96c0 -101 -96 -172 -215 -172z" />
    <glyph glyph-name="ccircumflex" unicode="&#x109;" 
d="M302 -23c-154 0 -256 108 -256 270c0 182 130 338 286 338c65 0 135 -25 205 -71c19 -13 32 -34 32 -59c0 -39 -31 -70 -70 -70c-15 0 -28 5 -40 12c-49 33 -89 48 -127 48c-75 0 -146 -92 -146 -198c0 -85 41 -130 116 -130c63 0 117 23 165 73c13 13 30 21 50 21
c39 0 70 -31 70 -70c0 -19 -8 -36 -20 -49c-73 -75 -165 -115 -265 -115zM58 675c0 23 11 44 29 56c61 47 126 91 195 134c11 7 24 11 38 11s28 -4 39 -12c73 -47 132 -93 181 -138c14 -13 22 -31 22 -51c0 -39 -31 -70 -70 -70c-19 0 -35 7 -48 19c-34 32 -75 65 -125 99
c-52 -34 -101 -68 -148 -104c-12 -9 -27 -14 -43 -14c-39 0 -70 31 -70 70z" />
    <glyph glyph-name="cdotaccent" unicode="&#x10b;" 
d="M302 -23c-154 0 -256 108 -256 270c0 182 130 338 286 338c65 0 135 -25 205 -71c19 -13 32 -34 32 -59c0 -39 -31 -70 -70 -70c-15 0 -28 5 -40 12c-49 33 -89 48 -127 48c-75 0 -146 -92 -146 -198c0 -85 41 -130 116 -130c63 0 117 23 165 73c13 13 30 21 50 21
c39 0 70 -31 70 -70c0 -19 -8 -36 -20 -49c-73 -75 -165 -115 -265 -115zM218 746c0 63 32 111 94 111c51 0 91 -41 91 -92c0 -38 -23 -85 -53 -117c-13 -14 -31 -22 -51 -22c-18 0 -34 6 -46 17c-17 11 -29 30 -32 51c-2 21 -3 38 -3 52z" />
    <glyph glyph-name="d" unicode="d" 
d="M274 -21c-136 0 -233 98 -233 235c0 206 115 362 272 362c35 0 72 -10 106 -28c7 80 18 159 28 218c5 33 34 59 69 59c39 0 70 -31 70 -70c0 -20 -38 -218 -38 -404c0 -58 7 -180 12 -204c6 -33 20 -68 30 -80c11 -13 17 -29 17 -46c0 -39 -31 -70 -70 -70
c-22 0 -41 10 -54 25c-14 17 -28 42 -39 71c-52 -46 -107 -68 -170 -68zM181 214c0 -59 35 -95 93 -95c53 0 96 18 142 62c-4 53 -8 125 -8 170c0 19 0 38 1 59c-29 16 -64 26 -96 26c-73 0 -132 -93 -132 -222z" />
    <glyph glyph-name="eth" unicode="&#xf0;" 
d="M300 -22c-161 0 -260 98 -260 258c0 175 125 316 315 316c-19 22 -41 43 -66 61c-47 -21 -93 -42 -126 -58c-8 -4 -17 -6 -27 -6c-33 0 -60 26 -60 60c0 24 15 45 35 55l44 20c-2 1 -3 1 -5 2c-28 9 -49 36 -49 67c0 39 31 70 70 70c8 0 17 -2 24 -4
c46 -16 89 -36 129 -60c49 21 95 41 129 55c7 3 14 5 23 5c34 0 60 -27 60 -60c0 -26 -16 -48 -39 -57l-65 -27c95 -95 149 -218 149 -355c0 -199 -117 -342 -281 -342zM180 236c0 -82 37 -118 120 -118s141 80 141 202c0 28 -3 56 -10 82c-20 12 -51 20 -77 20
c-99 0 -174 -79 -174 -186z" />
    <glyph glyph-name="dcaron" unicode="&#x10f;" 
d="M204 -19c-115 0 -193 101 -193 235c0 200 91 362 232 362c20 0 41 -3 61 -9c3 69 8 136 12 187c3 36 33 65 70 65c39 0 70 -31 70 -70c0 -8 -18 -231 -18 -406c0 -51 7 -159 12 -184c5 -23 14 -46 27 -60c18 -15 30 -34 30 -59c0 -39 -31 -70 -70 -70c-14 0 -28 4 -39 12
c-16 11 -31 27 -44 47c-46 -34 -95 -50 -150 -50zM151 216c0 -61 24 -95 53 -95c38 0 68 16 103 57c-5 50 -9 124 -9 167l1 73c-18 13 -39 20 -56 20c-45 0 -92 -97 -92 -222zM473 472c0 7 1 13 3 19c14 39 21 78 21 114c0 27 -3 49 -9 64c-2 6 -3 12 -3 18
c0 34 26 60 60 60c27 0 50 -18 57 -43c10 -26 15 -63 15 -99c0 -47 -9 -101 -26 -150c-7 -24 -30 -43 -58 -43c-33 0 -60 27 -60 60z" />
    <glyph glyph-name="dcroat" unicode="&#x111;" 
d="M274 -21c-136 0 -233 98 -233 235c0 206 115 362 272 362c35 0 72 -10 106 -28c3 30 6 60 9 89c-94 -8 -149 -18 -162 -18c-34 0 -60 27 -60 60c0 31 23 56 52 59c47 7 121 15 188 21l1 7c5 33 34 59 69 59c36 0 66 -27 70 -62c25 -7 43 -30 43 -58
c0 -32 -26 -59 -58 -60c-11 -79 -23 -188 -23 -294c0 -58 7 -180 12 -204c6 -33 20 -68 30 -80c11 -13 17 -29 17 -46c0 -39 -31 -70 -70 -70c-22 0 -41 10 -54 25c-14 17 -28 42 -39 71c-52 -46 -107 -68 -170 -68zM181 214c0 -59 35 -95 93 -95c53 0 96 18 142 62
c-4 53 -8 125 -8 170c0 19 0 38 1 59c-29 16 -64 26 -96 26c-73 0 -132 -93 -132 -222z" />
    <glyph glyph-name="e" unicode="e" 
d="M316 -24c-170 0 -267 105 -267 287c0 184 124 321 291 321c115 0 222 -79 222 -175c0 -58 -28 -93 -91 -132c-58 -35 -158 -77 -262 -113c19 -33 52 -48 107 -48c56 0 100 18 153 64c12 10 28 17 46 17c39 0 70 -31 70 -70c0 -21 -10 -40 -25 -53
c-76 -67 -155 -98 -244 -98zM191 286c85 30 162 64 208 91c14 8 19 15 19 23c0 20 -41 44 -78 44c-81 0 -141 -62 -149 -158z" />
    <glyph glyph-name="eacute" unicode="&#xe9;" 
d="M316 -24c-170 0 -267 105 -267 287c0 184 124 321 291 321c115 0 222 -79 222 -175c0 -58 -28 -93 -91 -132c-58 -35 -158 -77 -262 -113c19 -33 52 -48 107 -48c56 0 100 18 153 64c12 10 28 17 46 17c39 0 70 -31 70 -70c0 -21 -10 -40 -25 -53
c-76 -67 -155 -98 -244 -98zM139 675c0 23 11 44 29 57l201 150c11 9 26 14 42 14c39 0 70 -31 70 -70c0 -23 -11 -44 -29 -57l-201 -150c-11 -9 -26 -14 -42 -14c-39 0 -70 31 -70 70zM191 286c85 30 162 64 208 91c14 8 19 15 19 23c0 20 -41 44 -78 44
c-81 0 -141 -62 -149 -158z" />
    <glyph glyph-name="ebreve" unicode="&#x115;" 
d="M316 -24c-170 0 -267 105 -267 287c0 184 124 321 291 321c115 0 222 -79 222 -175c0 -58 -28 -93 -91 -132c-58 -35 -158 -77 -262 -113c19 -33 52 -48 107 -48c56 0 100 18 153 64c12 10 28 17 46 17c39 0 70 -31 70 -70c0 -21 -10 -40 -25 -53
c-76 -67 -155 -98 -244 -98zM66 799c0 39 31 70 70 70c33 0 60 -22 68 -52c11 -37 57 -65 113 -65c53 0 90 25 98 63c7 32 35 56 69 56c39 0 70 -31 70 -70c0 -6 -1 -11 -2 -16c-23 -104 -117 -173 -235 -173s-219 68 -248 166c-2 7 -3 14 -3 21zM191 286
c85 30 162 64 208 91c14 8 19 15 19 23c0 20 -41 44 -78 44c-81 0 -141 -62 -149 -158z" />
    <glyph glyph-name="ecaron" unicode="&#x11b;" 
d="M316 -24c-170 0 -267 105 -267 287c0 184 124 321 291 321c115 0 222 -79 222 -175c0 -58 -28 -93 -91 -132c-58 -35 -158 -77 -262 -113c19 -33 52 -48 107 -48c56 0 100 18 153 64c12 10 28 17 46 17c39 0 70 -31 70 -70c0 -21 -10 -40 -25 -53
c-76 -67 -155 -98 -244 -98zM58 806c0 39 31 70 70 70c19 0 35 -7 48 -19c34 -32 75 -65 125 -99c52 34 101 68 148 104c12 9 27 14 43 14c39 0 70 -31 70 -70c0 -23 -11 -44 -29 -56c-61 -47 -126 -91 -195 -134c-11 -7 -24 -11 -38 -11s-28 4 -39 12
c-73 47 -132 93 -181 138c-14 13 -22 31 -22 51zM191 286c85 30 162 64 208 91c14 8 19 15 19 23c0 20 -41 44 -78 44c-81 0 -141 -62 -149 -158z" />
    <glyph glyph-name="ecircumflex" unicode="&#xea;" 
d="M316 -24c-170 0 -267 105 -267 287c0 184 124 321 291 321c115 0 222 -79 222 -175c0 -58 -28 -93 -91 -132c-58 -35 -158 -77 -262 -113c19 -33 52 -48 107 -48c56 0 100 18 153 64c12 10 28 17 46 17c39 0 70 -31 70 -70c0 -21 -10 -40 -25 -53
c-76 -67 -155 -98 -244 -98zM58 675c0 23 11 44 29 56c61 47 126 91 195 134c11 7 24 11 38 11s28 -4 39 -12c73 -47 132 -93 181 -138c14 -13 22 -31 22 -51c0 -39 -31 -70 -70 -70c-19 0 -35 7 -48 19c-34 32 -75 65 -125 99c-52 -34 -101 -68 -148 -104
c-12 -9 -27 -14 -43 -14c-39 0 -70 31 -70 70zM191 286c85 30 162 64 208 91c14 8 19 15 19 23c0 20 -41 44 -78 44c-81 0 -141 -62 -149 -158z" />
    <glyph glyph-name="edieresis" unicode="&#xeb;" 
d="M316 -24c-170 0 -267 105 -267 287c0 184 124 321 291 321c115 0 222 -79 222 -175c0 -58 -28 -93 -91 -132c-58 -35 -158 -77 -262 -113c19 -33 52 -48 107 -48c56 0 100 18 153 64c12 10 28 17 46 17c39 0 70 -31 70 -70c0 -21 -10 -40 -25 -53
c-76 -67 -155 -98 -244 -98zM139 729c0 10 2 27 4 38c7 33 35 57 69 57c39 0 70 -31 70 -70c0 -9 -1 -19 -1 -30c0 -13 4 -33 4 -43c0 -39 -31 -70 -70 -70c-34 0 -63 25 -69 57c-5 24 -7 44 -7 61zM191 286c85 30 162 64 208 91c14 8 19 15 19 23c0 20 -41 44 -78 44
c-81 0 -141 -62 -149 -158zM338 692c0 9 2 16 2 32s-1 33 -1 42c0 39 31 70 70 70c38 0 68 -30 70 -67c1 -11 1 -29 1 -45c0 -13 -1 -30 -3 -42c-4 -34 -34 -60 -69 -60c-39 0 -70 31 -70 70z" />
    <glyph glyph-name="edotaccent" unicode="&#x117;" 
d="M316 -24c-170 0 -267 105 -267 287c0 184 124 321 291 321c115 0 222 -79 222 -175c0 -58 -28 -93 -91 -132c-58 -35 -158 -77 -262 -113c19 -33 52 -48 107 -48c56 0 100 18 153 64c12 10 28 17 46 17c39 0 70 -31 70 -70c0 -21 -10 -40 -25 -53
c-76 -67 -155 -98 -244 -98zM191 286c85 30 162 64 208 91c14 8 19 15 19 23c0 20 -41 44 -78 44c-81 0 -141 -62 -149 -158zM218 746c0 63 32 111 94 111c51 0 91 -41 91 -92c0 -38 -23 -85 -53 -117c-13 -14 -31 -22 -51 -22c-18 0 -34 6 -46 17c-17 11 -29 30 -32 51
c-2 21 -3 38 -3 52z" />
    <glyph glyph-name="egrave" unicode="&#xe8;" 
d="M316 -24c-170 0 -267 105 -267 287c0 184 124 321 291 321c115 0 222 -79 222 -175c0 -58 -28 -93 -91 -132c-58 -35 -158 -77 -262 -113c19 -33 52 -48 107 -48c56 0 100 18 153 64c12 10 28 17 46 17c39 0 70 -31 70 -70c0 -21 -10 -40 -25 -53
c-76 -67 -155 -98 -244 -98zM139 806c0 39 31 70 70 70c16 0 31 -5 42 -14l201 -150c18 -13 29 -34 29 -57c0 -39 -31 -70 -70 -70c-16 0 -31 5 -42 14l-201 150c-18 13 -29 34 -29 57zM191 286c85 30 162 64 208 91c14 8 19 15 19 23c0 20 -41 44 -78 44
c-81 0 -141 -62 -149 -158z" />
    <glyph glyph-name="emacron" unicode="&#x113;" 
d="M316 -24c-170 0 -267 105 -267 287c0 184 124 321 291 321c115 0 222 -79 222 -175c0 -58 -28 -93 -91 -132c-58 -35 -158 -77 -262 -113c19 -33 52 -48 107 -48c56 0 100 18 153 64c12 10 28 17 46 17c39 0 70 -31 70 -70c0 -21 -10 -40 -25 -53
c-76 -67 -155 -98 -244 -98zM52 691c0 36 27 65 61 69c110 16 294 23 384 23c39 0 70 -31 70 -70s-31 -70 -70 -70c-219 0 -365 -22 -375 -22c-39 0 -70 31 -70 70zM191 286c85 30 162 64 208 91c14 8 19 15 19 23c0 20 -41 44 -78 44c-81 0 -141 -62 -149 -158z" />
    <glyph glyph-name="eogonek" unicode="&#x119;" 
d="M395 -201c-82 0 -149 55 -149 129c0 18 4 35 13 52c-135 22 -210 123 -210 283c0 184 124 321 291 321c115 0 222 -79 222 -175c0 -58 -28 -93 -91 -132c-58 -35 -158 -77 -262 -113c19 -33 52 -48 107 -48c56 0 100 18 153 64c12 10 28 17 46 17c39 0 70 -31 70 -70
c0 -21 -10 -40 -25 -53c-28 -24 -55 -44 -84 -59l-4 -2c-45 -22 -86 -55 -86 -67c0 -5 4 -7 9 -7c20 0 46 10 64 26c12 10 28 17 46 17c39 0 70 -31 70 -70c0 -21 -10 -40 -25 -53c-41 -36 -103 -60 -155 -60zM191 286c85 30 162 64 208 91c14 8 19 15 19 23
c0 20 -41 44 -78 44c-81 0 -141 -62 -149 -158z" />
    <glyph glyph-name="uni0259" unicode="&#x259;" 
d="M304 584c170 0 267 -105 267 -287c0 -184 -124 -321 -291 -321c-115 0 -222 79 -222 175c0 58 28 93 91 132c58 35 158 77 262 113c-19 33 -52 48 -107 48c-56 0 -100 -18 -153 -64c-12 -10 -28 -17 -46 -17c-39 0 -70 31 -70 70c0 21 10 40 25 53c76 67 155 98 244 98z
M202 160c0 -20 41 -44 78 -44c81 0 141 62 149 158c-85 -30 -162 -64 -208 -91c-14 -8 -19 -15 -19 -23z" />
    <glyph glyph-name="f" unicode="f" 
d="M244 -122c-39 0 -70 31 -70 70c0 34 31 61 31 186c0 29 -3 156 -5 259h-17c-33 0 -63 1 -93 2c-37 2 -67 32 -67 70c0 39 31 70 70 70c30 -1 61 -2 90 -2h15c1 197 73 284 240 284c35 0 72 -4 104 -12c31 -6 55 -34 55 -68c0 -39 -31 -70 -70 -70c-17 0 -41 10 -89 10
c-79 0 -99 -20 -100 -138c115 9 178 25 192 25c39 0 70 -31 70 -70c0 -35 -25 -63 -58 -69c-61 -12 -130 -21 -202 -26c2 -104 5 -234 5 -265c0 -77 -12 -150 -35 -210c-10 -27 -36 -46 -66 -46z" />
    <glyph glyph-name="g" unicode="g" 
d="M286 -223c-87 0 -170 27 -229 74c-17 13 -27 33 -27 55c0 39 31 70 70 70c17 0 32 -6 44 -16c35 -27 85 -43 142 -43c100 0 139 40 141 162c-47 -40 -97 -59 -154 -59c-147 0 -232 91 -232 247c0 177 113 309 267 309c41 0 82 -16 122 -46l2 6c8 29 35 50 67 50
c39 0 70 -31 70 -70c0 -22 -14 -43 -14 -91c0 -36 12 -261 12 -335c0 -206 -96 -313 -281 -313zM181 267c0 -80 25 -107 92 -107c56 0 101 23 149 81l-6 145c-39 34 -74 50 -108 50c-74 0 -127 -69 -127 -169z" />
    <glyph glyph-name="gbreve" unicode="&#x11f;" 
d="M286 -223c-87 0 -170 27 -229 74c-17 13 -27 33 -27 55c0 39 31 70 70 70c17 0 32 -6 44 -16c35 -27 85 -43 142 -43c100 0 139 40 141 162c-47 -40 -97 -59 -154 -59c-147 0 -232 91 -232 247c0 177 113 309 267 309c41 0 82 -16 122 -46l2 6c8 29 35 50 67 50
c39 0 70 -31 70 -70c0 -22 -14 -43 -14 -91c0 -36 12 -261 12 -335c0 -206 -96 -313 -281 -313zM66 799c0 39 31 70 70 70c33 0 60 -22 68 -52c11 -37 57 -65 113 -65c53 0 90 25 98 63c7 32 35 56 69 56c39 0 70 -31 70 -70c0 -6 -1 -11 -2 -16
c-23 -104 -117 -173 -235 -173s-219 68 -248 166c-2 7 -3 14 -3 21zM181 267c0 -80 25 -107 92 -107c56 0 101 23 149 81l-6 145c-39 34 -74 50 -108 50c-74 0 -127 -69 -127 -169z" />
    <glyph glyph-name="gcircumflex" unicode="&#x11d;" 
d="M286 -223c-87 0 -170 27 -229 74c-17 13 -27 33 -27 55c0 39 31 70 70 70c17 0 32 -6 44 -16c35 -27 85 -43 142 -43c100 0 139 40 141 162c-47 -40 -97 -59 -154 -59c-147 0 -232 91 -232 247c0 177 113 309 267 309c41 0 82 -16 122 -46l2 6c8 29 35 50 67 50
c39 0 70 -31 70 -70c0 -22 -14 -43 -14 -91c0 -36 12 -261 12 -335c0 -206 -96 -313 -281 -313zM58 675c0 23 11 44 29 56c61 47 126 91 195 134c11 7 24 11 38 11s28 -4 39 -12c73 -47 132 -93 181 -138c14 -13 22 -31 22 -51c0 -39 -31 -70 -70 -70c-19 0 -35 7 -48 19
c-34 32 -75 65 -125 99c-52 -34 -101 -68 -148 -104c-12 -9 -27 -14 -43 -14c-39 0 -70 31 -70 70zM181 267c0 -80 25 -107 92 -107c56 0 101 23 149 81l-6 145c-39 34 -74 50 -108 50c-74 0 -127 -69 -127 -169z" />
    <glyph glyph-name="uni0123" unicode="&#x123;" 
d="M286 -223c-87 0 -170 27 -229 74c-17 13 -27 33 -27 55c0 39 31 70 70 70c17 0 32 -6 44 -16c35 -27 85 -43 142 -43c100 0 139 40 141 162c-47 -40 -97 -59 -154 -59c-147 0 -232 91 -232 247c0 177 113 309 267 309c41 0 82 -16 122 -46l2 6c8 29 35 50 67 50
c39 0 70 -31 70 -70c0 -22 -14 -43 -14 -91c0 -36 12 -261 12 -335c0 -206 -96 -313 -281 -313zM181 267c0 -80 25 -107 92 -107c56 0 101 23 149 81l-6 145c-39 34 -74 50 -108 50c-74 0 -127 -69 -127 -169zM193 667c0 11 2 21 7 30c18 39 71 111 108 147
c13 12 30 20 49 20c39 0 70 -31 70 -70c0 -20 -8 -37 -21 -50c-27 -26 -67 -80 -79 -104c-10 -25 -35 -43 -64 -43c-39 0 -70 31 -70 70z" />
    <glyph glyph-name="gdotaccent" unicode="&#x121;" 
d="M286 -223c-87 0 -170 27 -229 74c-17 13 -27 33 -27 55c0 39 31 70 70 70c17 0 32 -6 44 -16c35 -27 85 -43 142 -43c100 0 139 40 141 162c-47 -40 -97 -59 -154 -59c-147 0 -232 91 -232 247c0 177 113 309 267 309c41 0 82 -16 122 -46l2 6c8 29 35 50 67 50
c39 0 70 -31 70 -70c0 -22 -14 -43 -14 -91c0 -36 12 -261 12 -335c0 -206 -96 -313 -281 -313zM181 267c0 -80 25 -107 92 -107c56 0 101 23 149 81l-6 145c-39 34 -74 50 -108 50c-74 0 -127 -69 -127 -169zM218 746c0 63 32 111 94 111c51 0 91 -41 91 -92
c0 -38 -23 -85 -53 -117c-13 -14 -31 -22 -51 -22c-18 0 -34 6 -46 17c-17 11 -29 30 -32 51c-2 21 -3 38 -3 52z" />
    <glyph glyph-name="h" unicode="h" 
d="M472 -59c-39 0 -70 31 -70 70c0 26 16 137 16 311c0 76 -17 112 -29 112c-36 0 -108 -61 -167 -150c-3 -67 -7 -154 -12 -239c-2 -37 -33 -66 -70 -66c-39 0 -70 31 -70 70c0 13 14 203 14 322c0 130 -19 376 -19 384c0 39 31 70 70 70c37 0 67 -29 70 -65
c9 -119 14 -212 17 -287c56 64 114 101 167 101c112 0 169 -103 169 -252c0 -105 -5 -207 -16 -317c-3 -36 -33 -64 -70 -64z" />
    <glyph glyph-name="hbar" unicode="&#x127;" 
d="M472 -59c-39 0 -70 31 -70 70c0 26 16 137 16 311c0 76 -17 112 -29 112c-36 0 -108 -61 -167 -150c-3 -67 -7 -154 -12 -239c-2 -37 -33 -66 -70 -66c-39 0 -70 31 -70 70c0 13 14 203 14 322c0 68 -5 168 -10 249l-13 -1c-34 0 -60 27 -60 60c0 31 23 56 52 59l13 2
c-1 9 -1 14 -1 15c0 39 31 70 70 70c37 0 67 -29 70 -65v-4c62 5 123 9 159 9c34 0 60 -26 60 -60c0 -32 -26 -59 -58 -60c-59 -2 -110 -5 -153 -9c4 -63 7 -116 9 -163c56 64 114 101 167 101c112 0 169 -103 169 -252c0 -105 -5 -207 -16 -317c-3 -36 -33 -64 -70 -64z
" />
    <glyph glyph-name="hcircumflex" unicode="&#x125;" 
d="M472 -59c-39 0 -70 31 -70 70c0 26 16 137 16 311c0 76 -17 112 -29 112c-36 0 -108 -61 -167 -150c-3 -67 -7 -154 -12 -239c-2 -37 -33 -66 -70 -66c-39 0 -70 31 -70 70c0 13 14 203 14 322c0 130 -19 376 -19 384c0 39 31 70 70 70c37 0 67 -29 70 -65
c9 -119 14 -212 17 -287c56 64 114 101 167 101c112 0 169 -103 169 -252c0 -105 -5 -207 -16 -317c-3 -36 -33 -64 -70 -64zM58 915c0 23 11 44 29 56c61 47 126 91 195 134c11 7 24 11 38 11s28 -4 39 -12c73 -47 132 -93 181 -138c14 -13 22 -31 22 -51
c0 -39 -31 -70 -70 -70c-19 0 -35 7 -48 19c-34 32 -75 65 -125 99c-52 -34 -101 -68 -148 -104c-12 -9 -27 -14 -43 -14c-39 0 -70 31 -70 70z" />
    <glyph glyph-name="i" unicode="i" 
d="M125 -10c-39 0 -70 31 -70 70s31 70 70 70c40 0 80 1 118 3c-1 24 -2 48 -2 73c0 74 5 152 8 204c0 3 -1 5 -4 5c-12 0 -99 -12 -108 -12c-39 0 -70 31 -70 70c0 35 26 65 60 69c58 9 129 15 176 15c54 0 89 -37 89 -91c0 -18 -11 -180 -11 -260c0 -22 1 -43 2 -63
c63 5 106 10 112 10c39 0 70 -31 70 -70c0 -36 -27 -66 -63 -70c-111 -13 -274 -23 -377 -23zM209 735c0 59 36 102 94 102c51 0 91 -41 91 -92c0 -58 -54 -119 -104 -119c-44 0 -81 28 -81 109z" />
    <glyph glyph-name="dotlessi" unicode="&#x131;" 
d="M125 -10c-39 0 -70 31 -70 70s31 70 70 70c40 0 80 1 118 3c-1 24 -2 48 -2 73c0 74 5 152 8 204c0 3 -1 5 -4 5c-12 0 -99 -12 -108 -12c-39 0 -70 31 -70 70c0 35 26 65 60 69c58 9 129 15 176 15c54 0 89 -37 89 -91c0 -18 -11 -180 -11 -260c0 -22 1 -43 2 -63
c63 5 106 10 112 10c39 0 70 -31 70 -70c0 -36 -27 -66 -63 -70c-111 -13 -274 -23 -377 -23z" />
    <glyph glyph-name="iacute" unicode="&#xed;" 
d="M125 -10c-39 0 -70 31 -70 70s31 70 70 70c40 0 80 1 118 3c-1 24 -2 48 -2 73c0 74 5 152 8 204c0 3 -1 5 -4 5c-12 0 -99 -12 -108 -12c-39 0 -70 31 -70 70c0 35 26 65 60 69c58 9 129 15 176 15c54 0 89 -37 89 -91c0 -18 -11 -180 -11 -260c0 -22 1 -43 2 -63
c63 5 106 10 112 10c39 0 70 -31 70 -70c0 -36 -27 -66 -63 -70c-111 -13 -274 -23 -377 -23zM139 675c0 23 11 44 29 57l201 150c11 9 26 14 42 14c39 0 70 -31 70 -70c0 -23 -11 -44 -29 -57l-201 -150c-11 -9 -26 -14 -42 -14c-39 0 -70 31 -70 70z" />
    <glyph glyph-name="ibreve" unicode="&#x12d;" 
d="M125 -10c-39 0 -70 31 -70 70s31 70 70 70c40 0 80 1 118 3c-1 24 -2 48 -2 73c0 74 5 152 8 204c0 3 -1 5 -4 5c-12 0 -99 -12 -108 -12c-39 0 -70 31 -70 70c0 35 26 65 60 69c58 9 129 15 176 15c54 0 89 -37 89 -91c0 -18 -11 -180 -11 -260c0 -22 1 -43 2 -63
c63 5 106 10 112 10c39 0 70 -31 70 -70c0 -36 -27 -66 -63 -70c-111 -13 -274 -23 -377 -23zM66 799c0 39 31 70 70 70c33 0 60 -22 68 -52c11 -37 57 -65 113 -65c53 0 90 25 98 63c7 32 35 56 69 56c39 0 70 -31 70 -70c0 -6 -1 -11 -2 -16c-23 -104 -117 -173 -235 -173
s-219 68 -248 166c-2 7 -3 14 -3 21z" />
    <glyph glyph-name="icircumflex" unicode="&#xee;" 
d="M125 -10c-39 0 -70 31 -70 70s31 70 70 70c40 0 80 1 118 3c-1 24 -2 48 -2 73c0 74 5 152 8 204c0 3 -1 5 -4 5c-12 0 -99 -12 -108 -12c-39 0 -70 31 -70 70c0 35 26 65 60 69c58 9 129 15 176 15c54 0 89 -37 89 -91c0 -18 -11 -180 -11 -260c0 -22 1 -43 2 -63
c63 5 106 10 112 10c39 0 70 -31 70 -70c0 -36 -27 -66 -63 -70c-111 -13 -274 -23 -377 -23zM58 675c0 23 11 44 29 56c61 47 126 91 195 134c11 7 24 11 38 11s28 -4 39 -12c73 -47 132 -93 181 -138c14 -13 22 -31 22 -51c0 -39 -31 -70 -70 -70c-19 0 -35 7 -48 19
c-34 32 -75 65 -125 99c-52 -34 -101 -68 -148 -104c-12 -9 -27 -14 -43 -14c-39 0 -70 31 -70 70z" />
    <glyph glyph-name="idieresis" unicode="&#xef;" 
d="M125 -10c-39 0 -70 31 -70 70s31 70 70 70c40 0 80 1 118 3c-1 24 -2 48 -2 73c0 74 5 152 8 204c0 3 -1 5 -4 5c-12 0 -99 -12 -108 -12c-39 0 -70 31 -70 70c0 35 26 65 60 69c58 9 129 15 176 15c54 0 89 -37 89 -91c0 -18 -11 -180 -11 -260c0 -22 1 -43 2 -63
c63 5 106 10 112 10c39 0 70 -31 70 -70c0 -36 -27 -66 -63 -70c-111 -13 -274 -23 -377 -23zM139 729c0 10 2 27 4 38c7 33 35 57 69 57c39 0 70 -31 70 -70c0 -9 -1 -19 -1 -30c0 -13 4 -33 4 -43c0 -39 -31 -70 -70 -70c-34 0 -63 25 -69 57c-5 24 -7 44 -7 61zM338 692
c0 9 2 16 2 32s-1 33 -1 42c0 39 31 70 70 70c38 0 68 -30 70 -67c1 -11 1 -29 1 -45c0 -13 -1 -30 -3 -42c-4 -34 -34 -60 -69 -60c-39 0 -70 31 -70 70z" />
    <glyph glyph-name="igrave" unicode="&#xec;" 
d="M125 -10c-39 0 -70 31 -70 70s31 70 70 70c40 0 80 1 118 3c-1 24 -2 48 -2 73c0 74 5 152 8 204c0 3 -1 5 -4 5c-12 0 -99 -12 -108 -12c-39 0 -70 31 -70 70c0 35 26 65 60 69c58 9 129 15 176 15c54 0 89 -37 89 -91c0 -18 -11 -180 -11 -260c0 -22 1 -43 2 -63
c63 5 106 10 112 10c39 0 70 -31 70 -70c0 -36 -27 -66 -63 -70c-111 -13 -274 -23 -377 -23zM139 806c0 39 31 70 70 70c16 0 31 -5 42 -14l201 -150c18 -13 29 -34 29 -57c0 -39 -31 -70 -70 -70c-16 0 -31 5 -42 14l-201 150c-18 13 -29 34 -29 57z" />
    <glyph glyph-name="ij" unicode="&#x133;" 
d="M354 -221c-51 0 -104 17 -140 45c-16 13 -26 33 -26 55c0 39 31 70 70 70c17 0 32 -6 45 -16c11 -9 29 -14 51 -14c42 0 67 38 67 128c0 189 -27 443 -27 451c0 39 31 70 70 70c36 0 65 -27 70 -62c14 -107 27 -381 27 -459c0 -164 -79 -268 -207 -268zM63 734
c0 60 34 103 94 103c50 0 91 -38 91 -88c0 -39 -26 -82 -58 -110c-12 -11 -28 -17 -46 -17c-15 0 -29 5 -41 13c-19 11 -33 30 -36 53c-3 18 -4 33 -4 46zM65 186c0 109 8 260 16 310c5 34 34 60 69 60c39 0 70 -31 70 -70c0 -12 -15 -118 -15 -300c0 -84 9 -128 9 -138
c0 -39 -31 -70 -70 -70c-35 0 -65 26 -69 61c-6 41 -10 94 -10 147zM368 741c0 56 35 102 91 102c54 0 90 -41 90 -95c0 -20 -7 -49 -17 -73c-10 -26 -35 -45 -65 -45c-3 0 -6 0 -9 1c-4 -1 -7 -1 -10 -1c-28 0 -52 17 -64 41c-10 21 -16 48 -16 70z" />
    <glyph glyph-name="imacron" unicode="&#x12b;" 
d="M125 -10c-39 0 -70 31 -70 70s31 70 70 70c40 0 80 1 118 3c-1 24 -2 48 -2 73c0 74 5 152 8 204c0 3 -1 5 -4 5c-12 0 -99 -12 -108 -12c-39 0 -70 31 -70 70c0 35 26 65 60 69c58 9 129 15 176 15c54 0 89 -37 89 -91c0 -18 -11 -180 -11 -260c0 -22 1 -43 2 -63
c63 5 106 10 112 10c39 0 70 -31 70 -70c0 -36 -27 -66 -63 -70c-111 -13 -274 -23 -377 -23zM52 691c0 36 27 65 61 69c110 16 294 23 384 23c39 0 70 -31 70 -70s-31 -70 -70 -70c-219 0 -365 -22 -375 -22c-39 0 -70 31 -70 70z" />
    <glyph glyph-name="iogonek" unicode="&#x12f;" 
d="M125 -10c-39 0 -70 31 -70 70s31 70 70 70c40 0 80 1 118 3c-1 24 -2 48 -2 73c0 74 5 152 8 204c0 3 -1 5 -4 5c-12 0 -99 -12 -108 -12c-39 0 -70 31 -70 70c0 35 26 65 60 69c58 9 129 15 176 15c54 0 89 -37 89 -91c0 -18 -11 -180 -11 -260c0 -22 1 -43 2 -63
c63 5 106 10 112 10c39 0 70 -31 70 -70c0 -36 -27 -66 -63 -70c-31 -4 -65 -7 -102 -10c-2 -2 -5 -4 -8 -5c-45 -22 -86 -55 -86 -67c0 -5 4 -7 9 -7c20 0 46 10 64 26c12 10 28 17 46 17c39 0 70 -31 70 -70c0 -21 -10 -40 -25 -53c-41 -36 -103 -60 -155 -60
c-82 0 -149 55 -149 129c0 27 10 53 29 78zM209 735c0 59 36 102 94 102c51 0 91 -41 91 -92c0 -58 -54 -119 -104 -119c-44 0 -81 28 -81 109z" />
    <glyph glyph-name="itilde" unicode="&#x129;" 
d="M125 -10c-39 0 -70 31 -70 70s31 70 70 70c40 0 80 1 118 3c-1 24 -2 48 -2 73c0 74 5 152 8 204c0 3 -1 5 -4 5c-12 0 -99 -12 -108 -12c-39 0 -70 31 -70 70c0 35 26 65 60 69c58 9 129 15 176 15c54 0 89 -37 89 -91c0 -18 -11 -180 -11 -260c0 -22 1 -43 2 -63
c63 5 106 10 112 10c39 0 70 -31 70 -70c0 -36 -27 -66 -63 -70c-111 -13 -274 -23 -377 -23zM27 674c0 5 1 10 1 14c20 100 96 173 190 173c60 0 99 -24 149 -76c29 -29 35 -33 49 -33c15 0 32 19 38 58c4 34 33 61 69 61c39 0 70 -31 70 -70c0 -4 0 -7 -1 -11
c-14 -103 -83 -178 -176 -178c-60 0 -99 24 -149 76c-29 29 -35 33 -49 33c-23 0 -45 -23 -52 -59c-6 -33 -34 -58 -69 -58c-39 0 -70 31 -70 70z" />
    <glyph glyph-name="j" unicode="j" 
d="M280 -221c-115 0 -187 55 -245 183c-5 9 -7 19 -7 30c0 39 31 70 70 70c29 0 54 -18 64 -43c37 -81 67 -100 112 -100c41 0 73 66 73 148c0 59 -7 255 -15 347c-1 6 -5 10 -11 11c-15 1 -33 1 -53 1c-61 0 -95 -5 -104 -5c-38 0 -70 31 -70 70c0 36 28 66 63 70
c33 3 72 5 111 5c36 0 69 -1 94 -5c72 -9 101 -43 108 -116c9 -87 17 -313 17 -378c0 -157 -85 -288 -207 -288zM254 731c0 55 35 102 91 102c54 0 90 -41 90 -95c0 -65 -27 -121 -91 -121c-66 0 -90 53 -90 114z" />
    <glyph glyph-name="uni0237" unicode="&#x237;" 
d="M280 -221c-115 0 -187 55 -245 183c-5 9 -7 19 -7 30c0 39 31 70 70 70c29 0 54 -18 64 -43c37 -81 67 -100 112 -100c41 0 73 66 73 148c0 59 -7 255 -15 347c-1 6 -5 10 -11 11c-15 1 -33 1 -53 1c-61 0 -95 -5 -104 -5c-38 0 -70 31 -70 70c0 36 28 66 63 70
c33 3 72 5 111 5c36 0 69 -1 94 -5c72 -9 101 -43 108 -116c9 -87 17 -313 17 -378c0 -157 -85 -288 -207 -288z" />
    <glyph glyph-name="jcircumflex" unicode="&#x135;" 
d="M280 -221c-115 0 -187 55 -245 183c-5 9 -7 19 -7 30c0 39 31 70 70 70c29 0 54 -18 64 -43c37 -81 67 -100 112 -100c41 0 73 66 73 148c0 59 -7 255 -15 347c-1 6 -5 10 -11 11c-15 1 -33 1 -53 1c-61 0 -95 -5 -104 -5c-38 0 -70 31 -70 70c0 36 28 66 63 70
c33 3 72 5 111 5c36 0 69 -1 94 -5c72 -9 101 -43 108 -116c9 -87 17 -313 17 -378c0 -157 -85 -288 -207 -288zM58 675c0 23 11 44 29 56c61 47 126 91 195 134c11 7 24 11 38 11s28 -4 39 -12c73 -47 132 -93 181 -138c14 -13 22 -31 22 -51c0 -39 -31 -70 -70 -70
c-19 0 -35 7 -48 19c-34 32 -75 65 -125 99c-52 -34 -101 -68 -148 -104c-12 -9 -27 -14 -43 -14c-39 0 -70 31 -70 70z" />
    <glyph glyph-name="k" unicode="k" 
d="M124 -22c-39 0 -70 31 -70 70c0 24 23 222 23 446c0 95 -9 246 -9 254c0 39 31 70 70 70c37 0 68 -29 70 -66c5 -85 9 -194 9 -258c0 -43 -1 -96 -3 -153c95 62 174 134 237 213c12 16 32 27 55 27c39 0 70 -31 70 -70c0 -17 -6 -32 -15 -44c-49 -62 -109 -121 -177 -176
c65 -62 138 -137 187 -192c11 -13 18 -29 18 -47c0 -39 -31 -70 -70 -70c-21 0 -40 9 -52 24c-60 66 -138 145 -200 203c-20 -13 -41 -26 -62 -38c-3 -46 -7 -90 -11 -129c-4 -36 -34 -64 -70 -64z" />
    <glyph glyph-name="uni0137" unicode="&#x137;" 
d="M124 -22c-39 0 -70 31 -70 70c0 24 23 222 23 446c0 95 -9 246 -9 254c0 39 31 70 70 70c37 0 68 -29 70 -66c5 -85 9 -194 9 -258c0 -43 -1 -96 -3 -153c95 62 174 134 237 213c12 16 32 27 55 27c39 0 70 -31 70 -70c0 -17 -6 -32 -15 -44c-49 -62 -109 -121 -177 -176
c65 -62 138 -137 187 -192c11 -13 18 -29 18 -47c0 -39 -31 -70 -70 -70c-21 0 -40 9 -52 24c-60 66 -138 145 -200 203c-20 -13 -41 -26 -62 -38c-3 -46 -7 -90 -11 -129c-4 -36 -34 -64 -70 -64zM186 -243c0 20 8 37 21 50c27 26 67 80 79 104c10 25 35 43 64 43
c39 0 70 -31 70 -70c0 -11 -2 -21 -7 -30c-18 -39 -71 -111 -108 -147c-13 -12 -30 -20 -49 -20c-39 0 -70 31 -70 70z" />
    <glyph glyph-name="kgreenlandic" unicode="&#x138;" 
d="M124 -22c-39 0 -70 31 -70 70c0 15 23 225 23 456c0 39 31 70 70 70s70 -31 70 -70c0 -45 -1 -102 -4 -163c96 62 175 134 238 213c12 16 32 27 55 27c39 0 70 -31 70 -70c0 -17 -6 -32 -15 -44c-49 -62 -109 -121 -177 -176c65 -62 138 -137 187 -192
c11 -13 18 -29 18 -47c0 -39 -31 -70 -70 -70c-21 0 -40 9 -52 24c-60 66 -138 145 -200 203c-20 -13 -41 -26 -62 -38c-4 -46 -7 -90 -11 -129c-3 -36 -33 -64 -70 -64z" />
    <glyph glyph-name="l" unicode="l" 
d="M340 -13c-126 0 -167 87 -167 253c0 111 10 245 30 383c0 5 -2 7 -6 7c-25 0 -106 -18 -120 -18c-39 0 -70 31 -70 70c0 34 25 63 57 69c64 13 153 24 199 24c51 0 91 -38 91 -89c0 -23 -41 -220 -41 -446c0 -109 7 -113 27 -113c40 0 97 16 155 45c9 5 20 8 32 8
c39 0 70 -31 70 -70c0 -28 -16 -52 -40 -63c-75 -37 -157 -60 -217 -60z" />
    <glyph glyph-name="lacute" unicode="&#x13a;" 
d="M340 -13c-126 0 -167 87 -167 253c0 111 10 245 30 383c0 5 -2 7 -6 7c-25 0 -106 -18 -120 -18c-39 0 -70 31 -70 70c0 34 25 63 57 69c64 13 153 24 199 24c51 0 91 -38 91 -89c0 -23 -41 -220 -41 -446c0 -109 7 -113 27 -113c40 0 97 16 155 45c9 5 20 8 32 8
c39 0 70 -31 70 -70c0 -28 -16 -52 -40 -63c-75 -37 -157 -60 -217 -60zM139 915c0 23 11 44 29 57l201 150c11 9 26 14 42 14c39 0 70 -31 70 -70c0 -23 -11 -44 -29 -57l-201 -150c-11 -9 -26 -14 -42 -14c-39 0 -70 31 -70 70z" />
    <glyph glyph-name="lcaron" unicode="&#x13e;" 
d="M340 -13c-126 0 -167 87 -167 253c0 111 10 245 30 383c0 5 -2 7 -6 7c-25 0 -106 -18 -120 -18c-39 0 -70 31 -70 70c0 34 25 63 57 69c64 13 153 24 199 24c51 0 91 -38 91 -89c0 -23 -41 -220 -41 -446c0 -109 7 -113 27 -113c40 0 97 16 155 45c9 5 20 8 32 8
c39 0 70 -31 70 -70c0 -28 -16 -52 -40 -63c-75 -37 -157 -60 -217 -60zM380 452c0 14 4 27 11 38c25 40 38 79 38 115c0 23 -5 38 -13 46c-12 12 -19 29 -19 48c0 39 31 70 70 70c20 0 38 -8 51 -22c34 -35 51 -87 51 -142c0 -61 -21 -129 -59 -189
c-12 -20 -35 -34 -60 -34c-39 0 -70 31 -70 70z" />
    <glyph glyph-name="uni013C" unicode="&#x13c;" 
d="M340 -13c-126 0 -167 87 -167 253c0 111 10 245 30 383c0 5 -2 7 -6 7c-25 0 -106 -18 -120 -18c-39 0 -70 31 -70 70c0 34 25 63 57 69c64 13 153 24 199 24c51 0 91 -38 91 -89c0 -23 -41 -220 -41 -446c0 -109 7 -113 27 -113c40 0 97 16 155 45c9 5 20 8 32 8
c39 0 70 -31 70 -70c0 -28 -16 -52 -40 -63c-75 -37 -157 -60 -217 -60zM186 -243c0 20 8 37 21 50c27 26 67 80 79 104c10 25 35 43 64 43c39 0 70 -31 70 -70c0 -11 -2 -21 -7 -30c-18 -39 -71 -111 -108 -147c-13 -12 -30 -20 -49 -20c-39 0 -70 31 -70 70z" />
    <glyph glyph-name="ldot" unicode="&#x140;" 
d="M340 -13c-126 0 -167 87 -167 253c0 111 10 245 30 383c0 5 -2 7 -6 7c-25 0 -106 -18 -120 -18c-39 0 -70 31 -70 70c0 34 25 63 57 69c64 13 153 24 199 24c51 0 91 -38 91 -89c0 -23 -41 -220 -41 -446c0 -109 7 -113 27 -113c40 0 97 16 155 45c9 5 20 8 32 8
c39 0 70 -31 70 -70c0 -28 -16 -52 -40 -63c-75 -37 -157 -60 -217 -60zM439 407c0 70 53 122 123 122c73 0 137 -53 137 -124c0 -56 -38 -99 -92 -123c-9 -4 -19 -6 -29 -6c-92 0 -139 49 -139 131z" />
    <glyph glyph-name="lslash" unicode="&#x142;" 
d="M340 -13c-124 0 -165 84 -167 244l-54 -31c-11 -6 -24 -10 -37 -10c-39 0 -70 31 -70 70c0 26 14 49 36 61c36 21 81 47 131 73c4 73 13 150 24 229c0 5 -2 7 -6 7c-25 0 -106 -18 -120 -18c-39 0 -70 31 -70 70c0 34 25 63 57 69c64 13 153 24 199 24
c51 0 91 -38 91 -89c0 -15 -16 -99 -28 -216c47 23 95 46 139 65c9 5 19 7 30 7c39 0 70 -31 70 -70c0 -29 -18 -54 -43 -65c-66 -29 -139 -64 -208 -100c-1 -22 -1 -44 -1 -67c0 -109 7 -113 27 -113c40 0 97 16 155 45c9 5 20 8 32 8c39 0 70 -31 70 -70
c0 -28 -16 -52 -40 -63c-75 -37 -157 -60 -217 -60z" />
    <glyph glyph-name="m" unicode="m" 
d="M523 -15c-39 0 -70 31 -70 70c1 35 2 91 2 166c0 110 -13 192 -17 192c-9 0 -40 -29 -63 -66c3 -50 5 -111 5 -166c0 -36 -1 -71 -3 -100c-2 -37 -33 -66 -70 -66c-39 0 -70 31 -70 70c0 5 3 42 3 96c0 72 -4 154 -10 203c-3 21 -6 29 -10 29c-9 0 -37 -25 -60 -53v-116
c0 -68 1 -143 3 -199c0 -39 -31 -70 -70 -70c-38 0 -69 30 -70 67c-2 47 -3 116 -3 202c0 99 1 204 3 275c1 38 32 69 70 69c34 0 63 -24 69 -57c29 20 60 32 88 32c40 0 71 -24 92 -64c34 33 73 54 108 54c115 0 145 -135 145 -332c0 -68 0 -136 -2 -170
c-2 -37 -33 -66 -70 -66z" />
    <glyph glyph-name="n" unicode="n" 
d="M476 -19c-39 0 -70 31 -70 70c0 15 12 157 12 261c0 87 -21 122 -49 122c-36 0 -111 -86 -160 -201c2 -65 4 -131 4 -189c0 -38 -32 -69 -70 -69c-39 0 -70 31 -70 70c0 106 -7 248 -7 349c0 41 0 82 3 121c3 36 33 65 70 65c39 0 70 -31 70 -70c0 -6 -1 -16 -2 -50
c49 70 105 114 162 114c121 0 189 -105 189 -262c0 -72 -5 -179 -12 -266c-3 -36 -33 -65 -70 -65z" />
    <glyph glyph-name="nacute" unicode="&#x144;" 
d="M476 -19c-39 0 -70 31 -70 70c0 15 12 157 12 261c0 87 -21 122 -49 122c-36 0 -111 -86 -160 -201c2 -65 4 -131 4 -189c0 -38 -32 -69 -70 -69c-39 0 -70 31 -70 70c0 106 -7 248 -7 349c0 41 0 82 3 121c3 36 33 65 70 65c39 0 70 -31 70 -70c0 -6 -1 -16 -2 -50
c49 70 105 114 162 114c121 0 189 -105 189 -262c0 -72 -5 -179 -12 -266c-3 -36 -33 -65 -70 -65zM139 675c0 23 11 44 29 57l201 150c11 9 26 14 42 14c39 0 70 -31 70 -70c0 -23 -11 -44 -29 -57l-201 -150c-11 -9 -26 -14 -42 -14c-39 0 -70 31 -70 70z" />
    <glyph glyph-name="napostrophe" unicode="&#x149;" 
d="M8 373c-39 0 -70 31 -70 70c0 21 9 40 24 52c43 35 78 66 104 91c-48 14 -82 57 -82 109c0 69 57 121 128 121c73 0 128 -63 128 -138c0 -86 -60 -176 -185 -287c-13 -11 -29 -18 -47 -18zM166 354c0 31 1 62 3 91c2 36 33 65 70 65c39 0 70 -31 70 -70v-9
c43 58 91 93 140 93c108 0 169 -97 169 -242c0 -64 -5 -159 -12 -236c-3 -36 -33 -65 -70 -65c-39 0 -70 31 -70 70c0 13 12 139 12 231c0 73 -12 102 -29 102c-31 0 -97 -77 -140 -180c2 -55 4 -111 4 -160c0 -38 -32 -69 -70 -69c-39 0 -70 31 -70 70c0 94 -7 220 -7 309z
" />
    <glyph glyph-name="ncaron" unicode="&#x148;" 
d="M476 -19c-39 0 -70 31 -70 70c0 15 12 157 12 261c0 87 -21 122 -49 122c-36 0 -111 -86 -160 -201c2 -65 4 -131 4 -189c0 -38 -32 -69 -70 -69c-39 0 -70 31 -70 70c0 106 -7 248 -7 349c0 41 0 82 3 121c3 36 33 65 70 65c39 0 70 -31 70 -70c0 -6 -1 -16 -2 -50
c49 70 105 114 162 114c121 0 189 -105 189 -262c0 -72 -5 -179 -12 -266c-3 -36 -33 -65 -70 -65zM58 806c0 39 31 70 70 70c19 0 35 -7 48 -19c34 -32 75 -65 125 -99c52 34 101 68 148 104c12 9 27 14 43 14c39 0 70 -31 70 -70c0 -23 -11 -44 -29 -56
c-61 -47 -126 -91 -195 -134c-11 -7 -24 -11 -38 -11s-28 4 -39 12c-73 47 -132 93 -181 138c-14 13 -22 31 -22 51z" />
    <glyph glyph-name="uni0146" unicode="&#x146;" 
d="M476 -19c-39 0 -70 31 -70 70c0 15 12 157 12 261c0 87 -21 122 -49 122c-36 0 -111 -86 -160 -201c2 -65 4 -131 4 -189c0 -38 -32 -69 -70 -69c-39 0 -70 31 -70 70c0 106 -7 248 -7 349c0 41 0 82 3 121c3 36 33 65 70 65c39 0 70 -31 70 -70c0 -6 -1 -16 -2 -50
c49 70 105 114 162 114c121 0 189 -105 189 -262c0 -72 -5 -179 -12 -266c-3 -36 -33 -65 -70 -65zM186 -243c0 20 8 37 21 50c27 26 67 80 79 104c10 25 35 43 64 43c39 0 70 -31 70 -70c0 -11 -2 -21 -7 -30c-18 -39 -71 -111 -108 -147c-13 -12 -30 -20 -49 -20
c-39 0 -70 31 -70 70z" />
    <glyph glyph-name="ntilde" unicode="&#xf1;" 
d="M476 -19c-39 0 -70 31 -70 70c0 15 12 157 12 261c0 87 -21 122 -49 122c-36 0 -111 -86 -160 -201c2 -65 4 -131 4 -189c0 -38 -32 -69 -70 -69c-39 0 -70 31 -70 70c0 106 -7 248 -7 349c0 41 0 82 3 121c3 36 33 65 70 65c39 0 70 -31 70 -70c0 -6 -1 -16 -2 -50
c49 70 105 114 162 114c121 0 189 -105 189 -262c0 -72 -5 -179 -12 -266c-3 -36 -33 -65 -70 -65zM27 674c0 5 1 10 1 14c20 100 96 173 190 173c60 0 99 -24 149 -76c29 -29 35 -33 49 -33c15 0 32 19 38 58c4 34 33 61 69 61c39 0 70 -31 70 -70c0 -4 0 -7 -1 -11
c-14 -103 -83 -178 -176 -178c-60 0 -99 24 -149 76c-29 29 -35 33 -49 33c-23 0 -45 -23 -52 -59c-6 -33 -34 -58 -69 -58c-39 0 -70 31 -70 70z" />
    <glyph glyph-name="eng" unicode="&#x14b;" 
d="M380 -221c-55 0 -107 23 -144 63c-11 12 -18 29 -18 47c0 39 31 70 70 70c21 0 39 -9 52 -23c12 -12 19 -17 28 -17c17 0 33 36 39 154c4 78 6 173 6 239c0 87 -21 122 -49 122c-36 0 -111 -86 -160 -201c2 -81 4 -165 4 -199c0 -38 -32 -69 -70 -69c-39 0 -71 31 -70 71
c2 61 -7 311 -7 368c0 41 0 82 3 121c3 36 33 65 70 65c39 0 70 -31 70 -70c0 -6 -1 -24 -2 -60c48 70 105 114 162 114c121 0 189 -105 189 -262c0 -68 -2 -167 -6 -245c-9 -183 -50 -288 -167 -288z" />
    <glyph glyph-name="o" unicode="o" 
d="M300 -22c-162 0 -260 106 -260 279c0 178 127 325 284 325c158 0 257 -122 257 -312c0 -169 -118 -292 -281 -292zM180 257c0 -97 38 -139 120 -139c85 0 141 60 141 152c0 116 -42 172 -117 172c-77 0 -144 -83 -144 -185z" />
    <glyph glyph-name="oacute" unicode="&#xf3;" 
d="M300 -22c-162 0 -260 106 -260 279c0 178 127 325 284 325c158 0 257 -122 257 -312c0 -169 -118 -292 -281 -292zM139 675c0 23 11 44 29 57l201 150c11 9 26 14 42 14c39 0 70 -31 70 -70c0 -23 -11 -44 -29 -57l-201 -150c-11 -9 -26 -14 -42 -14c-39 0 -70 31 -70 70
zM180 257c0 -97 38 -139 120 -139c85 0 141 60 141 152c0 116 -42 172 -117 172c-77 0 -144 -83 -144 -185z" />
    <glyph glyph-name="obreve" unicode="&#x14f;" 
d="M300 -22c-162 0 -260 106 -260 279c0 178 127 325 284 325c158 0 257 -122 257 -312c0 -169 -118 -292 -281 -292zM66 799c0 39 31 70 70 70c33 0 60 -22 68 -52c11 -37 57 -65 113 -65c53 0 90 25 98 63c7 32 35 56 69 56c39 0 70 -31 70 -70c0 -6 -1 -11 -2 -16
c-23 -104 -117 -173 -235 -173s-219 68 -248 166c-2 7 -3 14 -3 21zM180 257c0 -97 38 -139 120 -139c85 0 141 60 141 152c0 116 -42 172 -117 172c-77 0 -144 -83 -144 -185z" />
    <glyph glyph-name="ocircumflex" unicode="&#xf4;" 
d="M300 -22c-162 0 -260 106 -260 279c0 178 127 325 284 325c158 0 257 -122 257 -312c0 -169 -118 -292 -281 -292zM58 675c0 23 11 44 29 56c61 47 126 91 195 134c11 7 24 11 38 11s28 -4 39 -12c73 -47 132 -93 181 -138c14 -13 22 -31 22 -51c0 -39 -31 -70 -70 -70
c-19 0 -35 7 -48 19c-34 32 -75 65 -125 99c-52 -34 -101 -68 -148 -104c-12 -9 -27 -14 -43 -14c-39 0 -70 31 -70 70zM180 257c0 -97 38 -139 120 -139c85 0 141 60 141 152c0 116 -42 172 -117 172c-77 0 -144 -83 -144 -185z" />
    <glyph glyph-name="odieresis" unicode="&#xf6;" 
d="M300 -22c-162 0 -260 106 -260 279c0 178 127 325 284 325c158 0 257 -122 257 -312c0 -169 -118 -292 -281 -292zM139 729c0 10 2 27 4 38c7 33 35 57 69 57c39 0 70 -31 70 -70c0 -9 -1 -19 -1 -30c0 -13 4 -33 4 -43c0 -39 -31 -70 -70 -70c-34 0 -63 25 -69 57
c-5 24 -7 44 -7 61zM180 257c0 -97 38 -139 120 -139c85 0 141 60 141 152c0 116 -42 172 -117 172c-77 0 -144 -83 -144 -185zM338 692c0 9 2 16 2 32s-1 33 -1 42c0 39 31 70 70 70c38 0 68 -30 70 -67c1 -11 1 -29 1 -45c0 -13 -1 -30 -3 -42c-4 -34 -34 -60 -69 -60
c-39 0 -70 31 -70 70z" />
    <glyph glyph-name="ograve" unicode="&#xf2;" 
d="M300 -22c-162 0 -260 106 -260 279c0 178 127 325 284 325c158 0 257 -122 257 -312c0 -169 -118 -292 -281 -292zM139 806c0 39 31 70 70 70c16 0 31 -5 42 -14l201 -150c18 -13 29 -34 29 -57c0 -39 -31 -70 -70 -70c-16 0 -31 5 -42 14l-201 150c-18 13 -29 34 -29 57
zM180 257c0 -97 38 -139 120 -139c85 0 141 60 141 152c0 116 -42 172 -117 172c-77 0 -144 -83 -144 -185z" />
    <glyph glyph-name="ohungarumlaut" unicode="&#x151;" 
d="M300 -22c-162 0 -260 106 -260 279c0 178 127 325 284 325c158 0 257 -122 257 -312c0 -169 -118 -292 -281 -292zM99 675c0 18 6 34 17 46c50 58 98 109 147 156c12 12 29 19 48 19c39 0 70 -31 70 -70c0 -20 -8 -38 -22 -51c-45 -43 -90 -91 -137 -145
c-12 -15 -32 -25 -53 -25c-39 0 -70 31 -70 70zM180 257c0 -97 38 -139 120 -139c85 0 141 60 141 152c0 116 -42 172 -117 172c-77 0 -144 -83 -144 -185zM319 675c0 18 6 34 17 46c50 58 98 109 147 156c12 12 29 19 48 19c39 0 70 -31 70 -70c0 -20 -8 -38 -22 -51
c-45 -43 -90 -91 -137 -145c-12 -15 -32 -25 -53 -25c-39 0 -70 31 -70 70z" />
    <glyph glyph-name="omacron" unicode="&#x14d;" 
d="M300 -22c-162 0 -260 106 -260 279c0 178 127 325 284 325c158 0 257 -122 257 -312c0 -169 -118 -292 -281 -292zM52 691c0 36 27 65 61 69c110 16 294 23 384 23c39 0 70 -31 70 -70s-31 -70 -70 -70c-219 0 -365 -22 -375 -22c-39 0 -70 31 -70 70zM180 257
c0 -97 38 -139 120 -139c85 0 141 60 141 152c0 116 -42 172 -117 172c-77 0 -144 -83 -144 -185z" />
    <glyph glyph-name="oslash" unicode="&#xf8;" 
d="M300 -22c-50 0 -94 10 -131 29l-51 -63c-13 -16 -33 -27 -55 -27c-39 0 -70 31 -70 70c0 17 6 32 15 44c19 24 40 50 63 77c-20 41 -31 92 -31 149c0 178 127 325 284 325c56 0 105 -15 144 -44c18 17 35 33 50 47c12 11 29 18 47 18c39 0 70 -31 70 -70
c0 -21 -9 -39 -23 -52c-18 -16 -37 -35 -58 -56c18 -44 27 -96 27 -155c0 -169 -118 -292 -281 -292zM180 257c0 -19 1 -35 4 -50c66 74 136 150 201 218c-16 11 -37 17 -61 17c-77 0 -144 -83 -144 -185zM246 126c15 -5 33 -8 54 -8c85 0 141 60 141 152c0 24 -2 45 -5 64
c-62 -66 -129 -138 -190 -208z" />
    <glyph glyph-name="oslashacute" unicode="&#x1ff;" 
d="M300 -22c-50 0 -94 10 -131 29l-51 -63c-13 -16 -33 -27 -55 -27c-39 0 -70 31 -70 70c0 17 6 32 15 44c19 24 40 50 63 77c-20 41 -31 92 -31 149c0 178 127 325 284 325c56 0 105 -15 144 -44c18 17 35 33 50 47c12 11 29 18 47 18c39 0 70 -31 70 -70
c0 -21 -9 -39 -23 -52c-18 -16 -37 -35 -58 -56c18 -44 27 -96 27 -155c0 -169 -118 -292 -281 -292zM139 675c0 23 11 44 29 57l201 150c11 9 26 14 42 14c39 0 70 -31 70 -70c0 -23 -11 -44 -29 -57l-201 -150c-11 -9 -26 -14 -42 -14c-39 0 -70 31 -70 70zM180 257
c0 -19 1 -35 4 -50c66 74 136 150 201 218c-16 11 -37 17 -61 17c-77 0 -144 -83 -144 -185zM246 126c15 -5 33 -8 54 -8c85 0 141 60 141 152c0 24 -2 45 -5 64c-62 -66 -129 -138 -190 -208z" />
    <glyph glyph-name="otilde" unicode="&#xf5;" 
d="M300 -22c-162 0 -260 106 -260 279c0 178 127 325 284 325c158 0 257 -122 257 -312c0 -169 -118 -292 -281 -292zM27 674c0 5 1 10 1 14c20 100 96 173 190 173c60 0 99 -24 149 -76c29 -29 35 -33 49 -33c15 0 32 19 38 58c4 34 33 61 69 61c39 0 70 -31 70 -70
c0 -4 0 -7 -1 -11c-14 -103 -83 -178 -176 -178c-60 0 -99 24 -149 76c-29 29 -35 33 -49 33c-23 0 -45 -23 -52 -59c-6 -33 -34 -58 -69 -58c-39 0 -70 31 -70 70zM180 257c0 -97 38 -139 120 -139c85 0 141 60 141 152c0 116 -42 172 -117 172c-77 0 -144 -83 -144 -185z
" />
    <glyph glyph-name="oe" unicode="&#x153;" 
d="M186 -18c-121 0 -182 111 -182 277c0 171 76 323 196 323c51 0 90 -29 117 -80c32 51 76 79 132 79c95 0 169 -81 169 -177c0 -50 -23 -86 -66 -121c-40 -32 -107 -70 -177 -102c8 -42 25 -63 57 -63c22 0 40 10 69 41c12 15 31 24 52 24c39 0 70 -31 70 -70
c0 -18 -7 -34 -18 -47c-53 -59 -109 -88 -173 -88c-55 0 -99 25 -128 73c-30 -43 -70 -69 -118 -69zM144 259c0 -95 23 -137 46 -137c27 0 60 62 60 151c0 102 -18 169 -44 169c-31 0 -62 -94 -62 -183zM375 332c36 19 68 39 89 56c12 9 14 12 14 20c0 16 -15 33 -34 33
c-29 0 -57 -36 -69 -109z" />
    <glyph glyph-name="p" unicode="p" 
d="M311 -22c-30 0 -65 7 -98 18c-2 -46 -5 -96 -9 -152c-2 -37 -33 -66 -70 -66c-39 0 -70 31 -70 70c0 13 17 219 17 374c0 183 -15 307 -15 322c0 39 31 70 70 70c37 0 67 -28 70 -64l3 -34c46 38 94 59 140 59c131 0 230 -149 230 -317c0 -169 -107 -280 -268 -280z
M218 362c2 -47 3 -95 3 -140c0 -26 -1 -56 -2 -89c29 -9 64 -15 92 -15c83 0 128 47 128 140s-49 177 -90 177c-37 0 -86 -27 -131 -73z" />
    <glyph glyph-name="thorn" unicode="&#xfe;" 
d="M311 -22c-30 0 -66 5 -100 12l-7 -146c-2 -37 -33 -66 -70 -66c-39 0 -70 31 -70 70c0 17 17 286 17 489s-15 405 -15 414c0 39 31 70 70 70c37 0 67 -29 70 -65c5 -64 9 -141 11 -219c44 25 89 38 132 38c131 0 230 -149 230 -317c0 -169 -107 -280 -268 -280zM217 133
c29 -9 65 -15 94 -15c83 0 128 47 128 140s-49 177 -90 177c-36 0 -84 -26 -128 -70v-28c0 -55 -1 -122 -4 -204z" />
    <glyph glyph-name="q" unicode="q" 
d="M481 -218c-37 0 -67 29 -70 65c-2 30 -5 96 -7 163c-34 -19 -71 -28 -108 -28c-147 0 -260 117 -260 270c0 176 133 325 289 325c68 0 137 -28 200 -81c16 -13 26 -32 26 -54c0 -6 -9 -140 -9 -310c0 -182 9 -272 9 -280c0 -39 -31 -70 -70 -70zM176 252
c0 -77 50 -130 120 -130c38 0 76 13 106 37c0 90 3 180 7 250c-30 19 -57 28 -84 28c-77 0 -149 -86 -149 -185z" />
    <glyph glyph-name="r" unicode="r" 
d="M165 -22c-39 0 -70 31 -70 70c0 14 15 133 15 248c0 49 -17 126 -39 176c-5 9 -7 19 -7 30c0 39 31 70 70 70c29 0 54 -18 65 -43c7 -16 14 -35 20 -55c54 66 130 110 211 110c54 0 107 -23 123 -73c13 -42 23 -107 23 -146s-31 -70 -70 -70s-70 31 -70 70
c0 18 -3 44 -8 69c-1 6 -4 8 -10 8c-61 0 -158 -77 -168 -165c-1 -61 -7 -164 -15 -236c-4 -35 -34 -63 -70 -63z" />
    <glyph glyph-name="racute" unicode="&#x155;" 
d="M165 -22c-39 0 -70 31 -70 70c0 14 15 133 15 248c0 49 -17 126 -39 176c-5 9 -7 19 -7 30c0 39 31 70 70 70c29 0 54 -18 65 -43c7 -16 14 -35 20 -55c54 66 130 110 211 110c54 0 107 -23 123 -73c13 -42 23 -107 23 -146s-31 -70 -70 -70s-70 31 -70 70
c0 18 -3 44 -8 69c-1 6 -4 8 -10 8c-61 0 -158 -77 -168 -165c-1 -61 -7 -164 -15 -236c-4 -35 -34 -63 -70 -63zM139 675c0 23 11 44 29 57l201 150c11 9 26 14 42 14c39 0 70 -31 70 -70c0 -23 -11 -44 -29 -57l-201 -150c-11 -9 -26 -14 -42 -14c-39 0 -70 31 -70 70z
" />
    <glyph glyph-name="rcaron" unicode="&#x159;" 
d="M165 -22c-39 0 -70 31 -70 70c0 14 15 133 15 248c0 49 -17 126 -39 176c-5 9 -7 19 -7 30c0 39 31 70 70 70c29 0 54 -18 65 -43c7 -16 14 -35 20 -55c54 66 130 110 211 110c54 0 107 -23 123 -73c13 -42 23 -107 23 -146s-31 -70 -70 -70s-70 31 -70 70
c0 18 -3 44 -8 69c-1 6 -4 8 -10 8c-61 0 -158 -77 -168 -165c-1 -61 -7 -164 -15 -236c-4 -35 -34 -63 -70 -63zM58 806c0 39 31 70 70 70c19 0 35 -7 48 -19c34 -32 75 -65 125 -99c52 34 101 68 148 104c12 9 27 14 43 14c39 0 70 -31 70 -70c0 -23 -11 -44 -29 -56
c-61 -47 -126 -91 -195 -134c-11 -7 -24 -11 -38 -11s-28 4 -39 12c-73 47 -132 93 -181 138c-14 13 -22 31 -22 51z" />
    <glyph glyph-name="uni0157" unicode="&#x157;" 
d="M165 -22c-39 0 -70 31 -70 70c0 14 15 133 15 248c0 49 -17 126 -39 176c-5 9 -7 19 -7 30c0 39 31 70 70 70c29 0 54 -18 65 -43c7 -16 14 -35 20 -55c54 66 130 110 211 110c54 0 107 -23 123 -73c13 -42 23 -107 23 -146s-31 -70 -70 -70s-70 31 -70 70
c0 18 -3 44 -8 69c-1 6 -4 8 -10 8c-61 0 -158 -77 -168 -165c-1 -61 -7 -164 -15 -236c-4 -35 -34 -63 -70 -63zM56 -243c0 20 8 37 21 50c27 26 67 80 79 104c10 25 35 43 64 43c39 0 70 -31 70 -70c0 -11 -2 -21 -7 -30c-18 -39 -71 -111 -108 -147
c-13 -12 -30 -20 -49 -20c-39 0 -70 31 -70 70z" />
    <glyph glyph-name="s" unicode="s" 
d="M311 -23c-91 0 -173 28 -244 83c-17 13 -28 33 -28 56c0 39 31 70 70 70c16 0 31 -6 43 -15c48 -37 97 -54 159 -54s112 24 112 36c0 13 -19 24 -108 37c-155 22 -242 68 -242 184c0 128 126 210 289 210c73 0 148 -15 167 -74c8 -27 14 -67 14 -115
c0 -39 -31 -70 -70 -70c-38 0 -69 30 -70 68c0 13 -1 28 -3 40c-1 6 -18 11 -38 11c-90 0 -149 -33 -149 -70c0 -20 22 -32 122 -46c145 -20 228 -65 228 -175c0 -108 -113 -176 -252 -176z" />
    <glyph glyph-name="sacute" unicode="&#x15b;" 
d="M311 -23c-91 0 -173 28 -244 83c-17 13 -28 33 -28 56c0 39 31 70 70 70c16 0 31 -6 43 -15c48 -37 97 -54 159 -54s112 24 112 36c0 13 -19 24 -108 37c-155 22 -242 68 -242 184c0 128 126 210 289 210c73 0 148 -15 167 -74c8 -27 14 -67 14 -115
c0 -39 -31 -70 -70 -70c-38 0 -69 30 -70 68c0 13 -1 28 -3 40c-1 6 -18 11 -38 11c-90 0 -149 -33 -149 -70c0 -20 22 -32 122 -46c145 -20 228 -65 228 -175c0 -108 -113 -176 -252 -176zM139 675c0 23 11 44 29 57l201 150c11 9 26 14 42 14c39 0 70 -31 70 -70
c0 -23 -11 -44 -29 -57l-201 -150c-11 -9 -26 -14 -42 -14c-39 0 -70 31 -70 70z" />
    <glyph glyph-name="scaron" unicode="&#x161;" 
d="M311 -23c-91 0 -173 28 -244 83c-17 13 -28 33 -28 56c0 39 31 70 70 70c16 0 31 -6 43 -15c48 -37 97 -54 159 -54s112 24 112 36c0 13 -19 24 -108 37c-155 22 -242 68 -242 184c0 128 126 210 289 210c73 0 148 -15 167 -74c8 -27 14 -67 14 -115
c0 -39 -31 -70 -70 -70c-38 0 -69 30 -70 68c0 13 -1 28 -3 40c-1 6 -18 11 -38 11c-90 0 -149 -33 -149 -70c0 -20 22 -32 122 -46c145 -20 228 -65 228 -175c0 -108 -113 -176 -252 -176zM58 806c0 39 31 70 70 70c19 0 35 -7 48 -19c34 -32 75 -65 125 -99
c52 34 101 68 148 104c12 9 27 14 43 14c39 0 70 -31 70 -70c0 -23 -11 -44 -29 -56c-61 -47 -126 -91 -195 -134c-11 -7 -24 -11 -38 -11s-28 4 -39 12c-73 47 -132 93 -181 138c-14 13 -22 31 -22 51z" />
    <glyph glyph-name="scedilla" unicode="&#x15f;" 
d="M248 -267c-9 0 -18 0 -26 1c-36 3 -65 33 -65 70c0 39 31 70 70 70l21 -1c45 0 75 13 75 32c0 11 -11 23 -43 29c-28 4 -51 25 -58 53c-56 12 -108 37 -155 73c-17 13 -28 33 -28 56c0 39 31 70 70 70c16 0 31 -6 43 -15c48 -37 97 -54 159 -54s112 24 112 36
c0 13 -19 24 -108 37c-155 22 -242 68 -242 184c0 128 126 210 289 210c73 0 148 -15 167 -74c8 -27 14 -67 14 -115c0 -39 -31 -70 -70 -70c-38 0 -69 30 -70 68c0 13 -1 28 -3 40c-1 6 -18 11 -38 11c-90 0 -149 -33 -149 -70c0 -20 22 -32 122 -46
c145 -20 228 -65 228 -175c0 -74 -52 -129 -130 -156c19 -27 30 -58 30 -92c0 -101 -96 -172 -215 -172z" />
    <glyph glyph-name="scircumflex" unicode="&#x15d;" 
d="M311 -23c-91 0 -173 28 -244 83c-17 13 -28 33 -28 56c0 39 31 70 70 70c16 0 31 -6 43 -15c48 -37 97 -54 159 -54s112 24 112 36c0 13 -19 24 -108 37c-155 22 -242 68 -242 184c0 128 126 210 289 210c73 0 148 -15 167 -74c8 -27 14 -67 14 -115
c0 -39 -31 -70 -70 -70c-38 0 -69 30 -70 68c0 13 -1 28 -3 40c-1 6 -18 11 -38 11c-90 0 -149 -33 -149 -70c0 -20 22 -32 122 -46c145 -20 228 -65 228 -175c0 -108 -113 -176 -252 -176zM58 675c0 23 11 44 29 56c61 47 126 91 195 134c11 7 24 11 38 11s28 -4 39 -12
c73 -47 132 -93 181 -138c14 -13 22 -31 22 -51c0 -39 -31 -70 -70 -70c-19 0 -35 7 -48 19c-34 32 -75 65 -125 99c-52 -34 -101 -68 -148 -104c-12 -9 -27 -14 -43 -14c-39 0 -70 31 -70 70z" />
    <glyph glyph-name="uni0219" unicode="&#x219;" 
d="M311 -23c-91 0 -173 28 -244 83c-17 13 -28 33 -28 56c0 39 31 70 70 70c16 0 31 -6 43 -15c48 -37 97 -54 159 -54s112 24 112 36c0 13 -19 24 -108 37c-155 22 -242 68 -242 184c0 128 126 210 289 210c73 0 148 -15 167 -74c8 -27 14 -67 14 -115
c0 -39 -31 -70 -70 -70c-38 0 -69 30 -70 68c0 13 -1 28 -3 40c-1 6 -18 11 -38 11c-90 0 -149 -33 -149 -70c0 -20 22 -32 122 -46c145 -20 228 -65 228 -175c0 -108 -113 -176 -252 -176zM186 -243c0 20 8 37 21 50c27 26 67 80 79 104c10 25 35 43 64 43
c39 0 70 -31 70 -70c0 -11 -2 -21 -7 -30c-18 -39 -71 -111 -108 -147c-13 -12 -30 -20 -49 -20c-39 0 -70 31 -70 70z" />
    <glyph glyph-name="germandbls" unicode="&#xdf;" 
d="M371 127c40 0 69 34 69 89c0 57 -42 114 -119 154c-23 12 -39 36 -39 63c0 25 13 46 32 59c58 39 87 80 87 117c0 38 -27 61 -80 61c-76 0 -115 -41 -115 -126c0 -25 7 -155 7 -194c0 -151 -11 -298 -32 -437c-4 -35 -34 -61 -69 -61c-39 0 -70 31 -70 70
c0 22 31 172 31 428c0 35 -7 164 -7 194c0 161 100 266 255 266c129 0 220 -83 220 -201c0 -60 -26 -118 -73 -170c71 -61 112 -139 112 -223c0 -131 -89 -229 -209 -229c-38 0 -86 13 -118 31c-21 12 -36 35 -36 61c0 39 31 70 70 70c13 0 26 -4 36 -10
c12 -7 32 -12 48 -12z" />
    <glyph glyph-name="longs" unicode="&#x17f;" 
d="M224 -152c-39 0 -70 31 -70 70c0 36 31 59 31 186c0 33 -3 178 -5 289h-6c-25 0 -50 1 -75 2c-37 1 -66 33 -66 70c0 39 31 70 70 70c6 0 28 -2 71 -2h4c3 179 76 279 210 279c86 0 161 -52 202 -139c4 -9 7 -20 7 -31c0 -39 -31 -70 -70 -70c-29 0 -53 17 -64 42
c-19 39 -45 58 -75 58c-47 0 -70 -36 -70 -150c0 -49 7 -366 7 -418c0 -77 -12 -150 -35 -210c-10 -27 -36 -46 -66 -46z" />
    <glyph glyph-name="t" unicode="t" 
d="M333 -20c-123 0 -183 90 -183 241c0 49 3 117 7 187c-34 3 -68 7 -94 13c-32 7 -56 35 -56 69c0 39 31 70 70 70c14 0 34 -7 89 -12c4 44 8 85 12 118c4 35 34 62 70 62c39 0 70 -31 70 -70c0 -2 -5 -47 -11 -113c93 5 187 25 196 25c39 0 70 -31 70 -70
c0 -34 -25 -63 -57 -69c-62 -12 -155 -24 -220 -26c-3 -60 -6 -124 -6 -184c0 -84 13 -101 43 -101c38 0 87 13 135 36c10 5 20 8 32 8c39 0 70 -31 70 -70c0 -28 -17 -52 -41 -64c-63 -30 -139 -50 -196 -50z" />
    <glyph glyph-name="tbar" unicode="&#x167;" 
d="M333 -20c-118 0 -178 82 -183 222c-22 -3 -36 -5 -42 -5c-34 0 -60 27 -60 60c0 31 23 56 52 59c15 2 33 5 52 7l5 85c-34 3 -68 7 -94 13c-32 7 -56 35 -56 69c0 39 31 70 70 70c14 0 34 -7 89 -12c4 44 8 85 12 118c4 35 34 62 70 62c39 0 70 -31 70 -70
c0 -2 -5 -47 -11 -113c93 5 187 25 196 25c39 0 70 -31 70 -70c0 -34 -25 -63 -57 -69c-62 -12 -155 -24 -220 -26l-3 -68c47 4 90 6 118 6c34 0 60 -26 60 -60c0 -32 -26 -59 -58 -60c-46 -2 -87 -4 -123 -7c0 -80 14 -96 43 -96c38 0 87 13 135 36c10 5 20 8 32 8
c39 0 70 -31 70 -70c0 -28 -17 -52 -41 -64c-63 -30 -139 -50 -196 -50z" />
    <glyph glyph-name="tcaron" unicode="&#x165;" 
d="M430 572c-39 0 -70 31 -70 70c0 15 5 29 12 40c18 26 27 51 27 73c0 21 -3 35 -9 43c-8 12 -13 26 -13 41c0 39 31 70 70 70c24 0 46 -12 58 -31c22 -32 34 -77 34 -123c0 -49 -18 -103 -50 -151c-13 -19 -34 -32 -59 -32zM7 450c0 39 31 70 70 70c13 0 33 -7 86 -12
c5 59 10 115 15 158c4 35 34 62 70 62c39 0 70 -31 70 -70c0 -3 -7 -66 -14 -153c93 4 190 25 199 25c39 0 70 -31 70 -70c0 -34 -25 -63 -57 -69c-62 -12 -158 -24 -222 -26c-2 -48 -4 -97 -4 -144c0 -84 13 -101 43 -101c38 0 87 13 135 36c10 5 20 8 32 8
c39 0 70 -31 70 -70c0 -28 -17 -52 -41 -64c-63 -30 -139 -50 -196 -50c-123 0 -183 90 -183 241c0 40 2 92 5 147c-34 3 -66 7 -92 13c-32 7 -56 35 -56 69z" />
    <glyph glyph-name="uni0163" unicode="&#x163;" 
d="M248 -267c-9 0 -18 0 -26 1c-36 3 -65 33 -65 70c0 39 31 70 70 70l21 -1c45 0 75 13 75 32c0 11 -11 23 -43 29c-34 5 -60 34 -60 69c0 5 0 9 1 13c-48 40 -71 111 -71 205c0 49 3 117 7 187c-34 3 -68 7 -94 13c-32 7 -56 35 -56 69c0 39 31 70 70 70
c14 0 34 -7 89 -12c4 44 8 85 12 118c4 35 34 62 70 62c39 0 70 -31 70 -70c0 -2 -5 -47 -11 -113c93 5 187 25 196 25c39 0 70 -31 70 -70c0 -34 -25 -63 -57 -69c-62 -12 -155 -24 -220 -26c-3 -60 -6 -124 -6 -184c0 -84 13 -101 43 -101c38 0 87 13 135 36
c10 5 20 8 32 8c39 0 70 -31 70 -70c0 -28 -17 -52 -41 -64c-30 -14 -62 -26 -95 -35c19 -26 29 -57 29 -90c0 -101 -96 -172 -215 -172z" />
    <glyph glyph-name="uni021B" unicode="&#x21b;" 
d="M333 -20c-123 0 -183 90 -183 241c0 49 3 117 7 187c-34 3 -68 7 -94 13c-32 7 -56 35 -56 69c0 39 31 70 70 70c14 0 34 -7 89 -12c4 44 8 85 12 118c4 35 34 62 70 62c39 0 70 -31 70 -70c0 -2 -5 -47 -11 -113c93 5 187 25 196 25c39 0 70 -31 70 -70
c0 -34 -25 -63 -57 -69c-62 -12 -155 -24 -220 -26c-3 -60 -6 -124 -6 -184c0 -84 13 -101 43 -101c38 0 87 13 135 36c10 5 20 8 32 8c39 0 70 -31 70 -70c0 -28 -17 -52 -41 -64c-63 -30 -139 -50 -196 -50zM186 -243c0 20 8 37 21 50c27 26 67 80 79 104
c10 25 35 43 64 43c39 0 70 -31 70 -70c0 -11 -2 -21 -7 -30c-18 -39 -71 -111 -108 -147c-13 -12 -30 -20 -49 -20c-39 0 -70 31 -70 70z" />
    <glyph glyph-name="u" unicode="u" 
d="M268 -20c-144 0 -208 82 -208 254c0 88 11 186 33 292c6 32 35 57 69 57c39 0 70 -31 70 -70c0 -5 -1 -11 -2 -16c-20 -98 -30 -184 -30 -263c0 -100 12 -114 68 -114c35 0 78 15 135 48c-1 17 -1 38 -1 66c0 75 3 187 9 277c2 37 33 66 70 66c39 0 70 -31 70 -70
c0 -6 -9 -147 -9 -273c0 -55 1 -76 3 -97c2 -12 14 -38 30 -57c9 -12 15 -28 15 -44c0 -39 -31 -70 -70 -70c-23 0 -43 11 -56 27c-11 15 -22 32 -31 50c-62 -42 -116 -63 -165 -63z" />
    <glyph glyph-name="uacute" unicode="&#xfa;" 
d="M268 -20c-144 0 -208 82 -208 254c0 88 11 186 33 292c6 32 35 57 69 57c39 0 70 -31 70 -70c0 -5 -1 -11 -2 -16c-20 -98 -30 -184 -30 -263c0 -100 12 -114 68 -114c35 0 78 15 135 48c-1 17 -1 38 -1 66c0 75 3 187 9 277c2 37 33 66 70 66c39 0 70 -31 70 -70
c0 -6 -9 -147 -9 -273c0 -55 1 -76 3 -97c2 -12 14 -38 30 -57c9 -12 15 -28 15 -44c0 -39 -31 -70 -70 -70c-23 0 -43 11 -56 27c-11 15 -22 32 -31 50c-62 -42 -116 -63 -165 -63zM139 675c0 23 11 44 29 57l201 150c11 9 26 14 42 14c39 0 70 -31 70 -70
c0 -23 -11 -44 -29 -57l-201 -150c-11 -9 -26 -14 -42 -14c-39 0 -70 31 -70 70z" />
    <glyph glyph-name="ubreve" unicode="&#x16d;" 
d="M268 -20c-144 0 -208 82 -208 254c0 88 11 186 33 292c6 32 35 57 69 57c39 0 70 -31 70 -70c0 -5 -1 -11 -2 -16c-20 -98 -30 -184 -30 -263c0 -100 12 -114 68 -114c35 0 78 15 135 48c-1 17 -1 38 -1 66c0 75 3 187 9 277c2 37 33 66 70 66c39 0 70 -31 70 -70
c0 -6 -9 -147 -9 -273c0 -55 1 -76 3 -97c2 -12 14 -38 30 -57c9 -12 15 -28 15 -44c0 -39 -31 -70 -70 -70c-23 0 -43 11 -56 27c-11 15 -22 32 -31 50c-62 -42 -116 -63 -165 -63zM66 799c0 39 31 70 70 70c33 0 60 -22 68 -52c11 -37 57 -65 113 -65c53 0 90 25 98 63
c7 32 35 56 69 56c39 0 70 -31 70 -70c0 -6 -1 -11 -2 -16c-23 -104 -117 -173 -235 -173s-219 68 -248 166c-2 7 -3 14 -3 21z" />
    <glyph glyph-name="ucircumflex" unicode="&#xfb;" 
d="M268 -20c-144 0 -208 82 -208 254c0 88 11 186 33 292c6 32 35 57 69 57c39 0 70 -31 70 -70c0 -5 -1 -11 -2 -16c-20 -98 -30 -184 -30 -263c0 -100 12 -114 68 -114c35 0 78 15 135 48c-1 17 -1 38 -1 66c0 75 3 187 9 277c2 37 33 66 70 66c39 0 70 -31 70 -70
c0 -6 -9 -147 -9 -273c0 -55 1 -76 3 -97c2 -12 14 -38 30 -57c9 -12 15 -28 15 -44c0 -39 -31 -70 -70 -70c-23 0 -43 11 -56 27c-11 15 -22 32 -31 50c-62 -42 -116 -63 -165 -63zM58 675c0 23 11 44 29 56c61 47 126 91 195 134c11 7 24 11 38 11s28 -4 39 -12
c73 -47 132 -93 181 -138c14 -13 22 -31 22 -51c0 -39 -31 -70 -70 -70c-19 0 -35 7 -48 19c-34 32 -75 65 -125 99c-52 -34 -101 -68 -148 -104c-12 -9 -27 -14 -43 -14c-39 0 -70 31 -70 70z" />
    <glyph glyph-name="udieresis" unicode="&#xfc;" 
d="M268 -20c-144 0 -208 82 -208 254c0 88 11 186 33 292c6 32 35 57 69 57c39 0 70 -31 70 -70c0 -5 -1 -11 -2 -16c-20 -98 -30 -184 -30 -263c0 -100 12 -114 68 -114c35 0 78 15 135 48c-1 17 -1 38 -1 66c0 75 3 187 9 277c2 37 33 66 70 66c39 0 70 -31 70 -70
c0 -6 -9 -147 -9 -273c0 -55 1 -76 3 -97c2 -12 14 -38 30 -57c9 -12 15 -28 15 -44c0 -39 -31 -70 -70 -70c-23 0 -43 11 -56 27c-11 15 -22 32 -31 50c-62 -42 -116 -63 -165 -63zM139 729c0 10 2 27 4 38c7 33 35 57 69 57c39 0 70 -31 70 -70c0 -9 -1 -19 -1 -30
c0 -13 4 -33 4 -43c0 -39 -31 -70 -70 -70c-34 0 -63 25 -69 57c-5 24 -7 44 -7 61zM338 692c0 9 2 16 2 32s-1 33 -1 42c0 39 31 70 70 70c38 0 68 -30 70 -67c1 -11 1 -29 1 -45c0 -13 -1 -30 -3 -42c-4 -34 -34 -60 -69 -60c-39 0 -70 31 -70 70z" />
    <glyph glyph-name="ugrave" unicode="&#xf9;" 
d="M268 -20c-144 0 -208 82 -208 254c0 88 11 186 33 292c6 32 35 57 69 57c39 0 70 -31 70 -70c0 -5 -1 -11 -2 -16c-20 -98 -30 -184 -30 -263c0 -100 12 -114 68 -114c35 0 78 15 135 48c-1 17 -1 38 -1 66c0 75 3 187 9 277c2 37 33 66 70 66c39 0 70 -31 70 -70
c0 -6 -9 -147 -9 -273c0 -55 1 -76 3 -97c2 -12 14 -38 30 -57c9 -12 15 -28 15 -44c0 -39 -31 -70 -70 -70c-23 0 -43 11 -56 27c-11 15 -22 32 -31 50c-62 -42 -116 -63 -165 -63zM139 806c0 39 31 70 70 70c16 0 31 -5 42 -14l201 -150c18 -13 29 -34 29 -57
c0 -39 -31 -70 -70 -70c-16 0 -31 5 -42 14l-201 150c-18 13 -29 34 -29 57z" />
    <glyph glyph-name="uhungarumlaut" unicode="&#x171;" 
d="M268 -20c-144 0 -208 82 -208 254c0 88 11 186 33 292c6 32 35 57 69 57c39 0 70 -31 70 -70c0 -5 -1 -11 -2 -16c-20 -98 -30 -184 -30 -263c0 -100 12 -114 68 -114c35 0 78 15 135 48c-1 17 -1 38 -1 66c0 75 3 187 9 277c2 37 33 66 70 66c39 0 70 -31 70 -70
c0 -6 -9 -147 -9 -273c0 -55 1 -76 3 -97c2 -12 14 -38 30 -57c9 -12 15 -28 15 -44c0 -39 -31 -70 -70 -70c-23 0 -43 11 -56 27c-11 15 -22 32 -31 50c-62 -42 -116 -63 -165 -63zM99 675c0 18 6 34 17 46c50 58 98 109 147 156c12 12 29 19 48 19c39 0 70 -31 70 -70
c0 -20 -8 -38 -22 -51c-45 -43 -90 -91 -137 -145c-12 -15 -32 -25 -53 -25c-39 0 -70 31 -70 70zM319 675c0 18 6 34 17 46c50 58 98 109 147 156c12 12 29 19 48 19c39 0 70 -31 70 -70c0 -20 -8 -38 -22 -51c-45 -43 -90 -91 -137 -145c-12 -15 -32 -25 -53 -25
c-39 0 -70 31 -70 70z" />
    <glyph glyph-name="umacron" unicode="&#x16b;" 
d="M268 -20c-144 0 -208 82 -208 254c0 88 11 186 33 292c6 32 35 57 69 57c39 0 70 -31 70 -70c0 -5 -1 -11 -2 -16c-20 -98 -30 -184 -30 -263c0 -100 12 -114 68 -114c35 0 78 15 135 48c-1 17 -1 38 -1 66c0 75 3 187 9 277c2 37 33 66 70 66c39 0 70 -31 70 -70
c0 -6 -9 -147 -9 -273c0 -55 1 -76 3 -97c2 -12 14 -38 30 -57c9 -12 15 -28 15 -44c0 -39 -31 -70 -70 -70c-23 0 -43 11 -56 27c-11 15 -22 32 -31 50c-62 -42 -116 -63 -165 -63zM52 691c0 36 27 65 61 69c110 16 294 23 384 23c39 0 70 -31 70 -70s-31 -70 -70 -70
c-219 0 -365 -22 -375 -22c-39 0 -70 31 -70 70z" />
    <glyph glyph-name="uogonek" unicode="&#x173;" 
d="M268 -20c-144 0 -208 82 -208 254c0 88 11 186 33 292c6 32 35 57 69 57c39 0 70 -31 70 -70c0 -5 -1 -11 -2 -16c-20 -98 -30 -184 -30 -263c0 -100 12 -114 68 -114c35 0 78 15 135 48c-1 17 -1 38 -1 66c0 75 3 187 9 277c2 37 33 66 70 66c39 0 70 -31 70 -70
c0 -6 -9 -147 -9 -273c0 -55 1 -76 3 -97c2 -12 14 -38 30 -57c9 -12 15 -28 15 -44c0 -30 -18 -55 -45 -65c-42 -22 -79 -53 -79 -64c0 -5 4 -7 9 -7c20 0 46 10 64 26c12 10 28 17 46 17c39 0 70 -31 70 -70c0 -21 -10 -40 -25 -53c-41 -36 -103 -60 -155 -60
c-82 0 -149 55 -149 129c0 53 37 104 111 146l-4 8c-62 -42 -116 -63 -165 -63z" />
    <glyph glyph-name="uring" unicode="&#x16f;" 
d="M268 -20c-144 0 -208 82 -208 254c0 88 11 186 33 292c6 32 35 57 69 57c39 0 70 -31 70 -70c0 -5 -1 -11 -2 -16c-20 -98 -30 -184 -30 -263c0 -100 12 -114 68 -114c35 0 78 15 135 48c-1 17 -1 38 -1 66c0 75 3 187 9 277c2 37 33 66 70 66c39 0 70 -31 70 -70
c0 -6 -9 -147 -9 -273c0 -55 1 -76 3 -97c2 -12 14 -38 30 -57c9 -12 15 -28 15 -44c0 -39 -31 -70 -70 -70c-23 0 -43 11 -56 27c-11 15 -22 32 -31 50c-62 -42 -116 -63 -165 -63zM132 778c0 94 81 175 177 175c91 0 178 -80 178 -165c0 -90 -78 -171 -172 -171
c-106 0 -183 66 -183 161zM232 778c0 -38 26 -61 83 -61c39 0 72 35 72 71c0 30 -45 65 -78 65c-34 0 -77 -36 -77 -75z" />
    <glyph glyph-name="utilde" unicode="&#x169;" 
d="M268 -20c-144 0 -208 82 -208 254c0 88 11 186 33 292c6 32 35 57 69 57c39 0 70 -31 70 -70c0 -5 -1 -11 -2 -16c-20 -98 -30 -184 -30 -263c0 -100 12 -114 68 -114c35 0 78 15 135 48c-1 17 -1 38 -1 66c0 75 3 187 9 277c2 37 33 66 70 66c39 0 70 -31 70 -70
c0 -6 -9 -147 -9 -273c0 -55 1 -76 3 -97c2 -12 14 -38 30 -57c9 -12 15 -28 15 -44c0 -39 -31 -70 -70 -70c-23 0 -43 11 -56 27c-11 15 -22 32 -31 50c-62 -42 -116 -63 -165 -63zM27 674c0 5 1 10 1 14c20 100 96 173 190 173c60 0 99 -24 149 -76c29 -29 35 -33 49 -33
c15 0 32 19 38 58c4 34 33 61 69 61c39 0 70 -31 70 -70c0 -4 0 -7 -1 -11c-14 -103 -83 -178 -176 -178c-60 0 -99 24 -149 76c-29 29 -35 33 -49 33c-23 0 -45 -23 -52 -59c-6 -33 -34 -58 -69 -58c-39 0 -70 31 -70 70z" />
    <glyph glyph-name="v" unicode="v" 
d="M322 -45c-27 0 -50 15 -62 37c-67 120 -166 333 -221 473c-3 9 -5 18 -5 27c0 39 31 70 70 70c30 0 56 -19 66 -46c35 -92 91 -217 143 -323c46 103 95 231 126 336c9 29 36 51 68 51c39 0 70 -31 70 -70c0 -8 -1 -15 -3 -22c-39 -130 -115 -327 -182 -456v-7
c0 -39 -31 -70 -70 -70z" />
    <glyph glyph-name="w" unicode="w" 
d="M171 -9c-30 0 -55 19 -65 45c-43 104 -104 373 -114 479v7c0 39 31 70 70 70c37 0 67 -28 70 -64c6 -64 29 -179 55 -280c24 63 46 125 60 177c8 30 35 52 68 52c31 0 58 -21 67 -49l50 -152c24 74 42 153 53 229c4 34 33 61 69 61c39 0 70 -31 70 -70c0 -4 0 -8 -1 -11
c-22 -152 -74 -326 -133 -447c-12 -24 -36 -41 -64 -41c-34 0 -63 25 -69 57c-8 40 -23 94 -44 162c-26 -68 -54 -132 -78 -183c-11 -25 -35 -42 -64 -42z" />
    <glyph glyph-name="wacute" unicode="&#x1e83;" 
d="M171 -9c-30 0 -55 19 -65 45c-43 104 -104 373 -114 479v7c0 39 31 70 70 70c37 0 67 -28 70 -64c6 -64 29 -179 55 -280c24 63 46 125 60 177c8 30 35 52 68 52c31 0 58 -21 67 -49l50 -152c24 74 42 153 53 229c4 34 33 61 69 61c39 0 70 -31 70 -70c0 -4 0 -8 -1 -11
c-22 -152 -74 -326 -133 -447c-12 -24 -36 -41 -64 -41c-34 0 -63 25 -69 57c-8 40 -23 94 -44 162c-26 -68 -54 -132 -78 -183c-11 -25 -35 -42 -64 -42zM139 675c0 23 11 44 29 57l201 150c11 9 26 14 42 14c39 0 70 -31 70 -70c0 -23 -11 -44 -29 -57l-201 -150
c-11 -9 -26 -14 -42 -14c-39 0 -70 31 -70 70z" />
    <glyph glyph-name="wcircumflex" unicode="&#x175;" 
d="M171 -9c-30 0 -55 19 -65 45c-43 104 -104 373 -114 479v7c0 39 31 70 70 70c37 0 67 -28 70 -64c6 -64 29 -179 55 -280c24 63 46 125 60 177c8 30 35 52 68 52c31 0 58 -21 67 -49l50 -152c24 74 42 153 53 229c4 34 33 61 69 61c39 0 70 -31 70 -70c0 -4 0 -8 -1 -11
c-22 -152 -74 -326 -133 -447c-12 -24 -36 -41 -64 -41c-34 0 -63 25 -69 57c-8 40 -23 94 -44 162c-26 -68 -54 -132 -78 -183c-11 -25 -35 -42 -64 -42zM58 675c0 23 11 44 29 56c61 47 126 91 195 134c11 7 24 11 38 11s28 -4 39 -12c73 -47 132 -93 181 -138
c14 -13 22 -31 22 -51c0 -39 -31 -70 -70 -70c-19 0 -35 7 -48 19c-34 32 -75 65 -125 99c-52 -34 -101 -68 -148 -104c-12 -9 -27 -14 -43 -14c-39 0 -70 31 -70 70z" />
    <glyph glyph-name="wdieresis" unicode="&#x1e85;" 
d="M171 -9c-30 0 -55 19 -65 45c-43 104 -104 373 -114 479v7c0 39 31 70 70 70c37 0 67 -28 70 -64c6 -64 29 -179 55 -280c24 63 46 125 60 177c8 30 35 52 68 52c31 0 58 -21 67 -49l50 -152c24 74 42 153 53 229c4 34 33 61 69 61c39 0 70 -31 70 -70c0 -4 0 -8 -1 -11
c-22 -152 -74 -326 -133 -447c-12 -24 -36 -41 -64 -41c-34 0 -63 25 -69 57c-8 40 -23 94 -44 162c-26 -68 -54 -132 -78 -183c-11 -25 -35 -42 -64 -42zM139 729c0 10 2 27 4 38c7 33 35 57 69 57c39 0 70 -31 70 -70c0 -9 -1 -19 -1 -30c0 -13 4 -33 4 -43
c0 -39 -31 -70 -70 -70c-34 0 -63 25 -69 57c-5 24 -7 44 -7 61zM338 692c0 9 2 16 2 32s-1 33 -1 42c0 39 31 70 70 70c38 0 68 -30 70 -67c1 -11 1 -29 1 -45c0 -13 -1 -30 -3 -42c-4 -34 -34 -60 -69 -60c-39 0 -70 31 -70 70z" />
    <glyph glyph-name="wgrave" unicode="&#x1e81;" 
d="M171 -9c-30 0 -55 19 -65 45c-43 104 -104 373 -114 479v7c0 39 31 70 70 70c37 0 67 -28 70 -64c6 -64 29 -179 55 -280c24 63 46 125 60 177c8 30 35 52 68 52c31 0 58 -21 67 -49l50 -152c24 74 42 153 53 229c4 34 33 61 69 61c39 0 70 -31 70 -70c0 -4 0 -8 -1 -11
c-22 -152 -74 -326 -133 -447c-12 -24 -36 -41 -64 -41c-34 0 -63 25 -69 57c-8 40 -23 94 -44 162c-26 -68 -54 -132 -78 -183c-11 -25 -35 -42 -64 -42zM139 806c0 39 31 70 70 70c16 0 31 -5 42 -14l201 -150c18 -13 29 -34 29 -57c0 -39 -31 -70 -70 -70
c-16 0 -31 5 -42 14l-201 150c-18 13 -29 34 -29 57z" />
    <glyph glyph-name="x" unicode="x" 
d="M94 -22c-39 0 -70 31 -70 70c0 14 4 28 12 39c40 62 106 139 172 203c-49 64 -93 112 -142 154c-15 13 -24 32 -24 53c0 39 31 70 70 70c18 0 34 -7 46 -17c53 -46 102 -100 153 -166c57 56 112 123 133 163c12 23 35 39 63 39c39 0 70 -31 70 -70c0 -12 -3 -24 -9 -34
c-29 -55 -101 -142 -172 -211c42 -51 110 -126 158 -174c13 -13 21 -31 21 -50c0 -39 -31 -70 -70 -70c-19 0 -37 8 -50 21c-43 43 -114 120 -163 179c-54 -53 -106 -115 -139 -166c-12 -20 -34 -33 -59 -33z" />
    <glyph glyph-name="y" unicode="y" 
d="M146 -223c-39 0 -70 31 -70 70c0 18 7 35 18 47c46 50 86 101 130 167c-55 138 -139 309 -200 407c-7 11 -11 24 -11 38c0 39 31 70 70 70c26 0 48 -14 60 -34c55 -89 120 -219 172 -335c57 99 112 221 147 320c9 29 36 49 67 49c39 0 70 -31 70 -70c0 -9 -2 -17 -4 -24
c-41 -118 -110 -265 -177 -375c-81 -136 -145 -225 -220 -307c-13 -14 -32 -23 -52 -23z" />
    <glyph glyph-name="yacute" unicode="&#xfd;" 
d="M146 -223c-39 0 -70 31 -70 70c0 18 7 35 18 47c46 50 86 101 130 167c-55 138 -139 309 -200 407c-7 11 -11 24 -11 38c0 39 31 70 70 70c26 0 48 -14 60 -34c55 -89 120 -219 172 -335c57 99 112 221 147 320c9 29 36 49 67 49c39 0 70 -31 70 -70c0 -9 -2 -17 -4 -24
c-41 -118 -110 -265 -177 -375c-81 -136 -145 -225 -220 -307c-13 -14 -32 -23 -52 -23zM139 675c0 23 11 44 29 57l201 150c11 9 26 14 42 14c39 0 70 -31 70 -70c0 -23 -11 -44 -29 -57l-201 -150c-11 -9 -26 -14 -42 -14c-39 0 -70 31 -70 70z" />
    <glyph glyph-name="ycircumflex" unicode="&#x177;" 
d="M146 -223c-39 0 -70 31 -70 70c0 18 7 35 18 47c46 50 86 101 130 167c-55 138 -139 309 -200 407c-7 11 -11 24 -11 38c0 39 31 70 70 70c26 0 48 -14 60 -34c55 -89 120 -219 172 -335c57 99 112 221 147 320c9 29 36 49 67 49c39 0 70 -31 70 -70c0 -9 -2 -17 -4 -24
c-41 -118 -110 -265 -177 -375c-81 -136 -145 -225 -220 -307c-13 -14 -32 -23 -52 -23zM58 675c0 23 11 44 29 56c61 47 126 91 195 134c11 7 24 11 38 11s28 -4 39 -12c73 -47 132 -93 181 -138c14 -13 22 -31 22 -51c0 -39 -31 -70 -70 -70c-19 0 -35 7 -48 19
c-34 32 -75 65 -125 99c-52 -34 -101 -68 -148 -104c-12 -9 -27 -14 -43 -14c-39 0 -70 31 -70 70z" />
    <glyph glyph-name="ydieresis" unicode="&#xff;" 
d="M146 -223c-39 0 -70 31 -70 70c0 18 7 35 18 47c46 50 86 101 130 167c-55 138 -139 309 -200 407c-7 11 -11 24 -11 38c0 39 31 70 70 70c26 0 48 -14 60 -34c55 -89 120 -219 172 -335c57 99 112 221 147 320c9 29 36 49 67 49c39 0 70 -31 70 -70c0 -9 -2 -17 -4 -24
c-41 -118 -110 -265 -177 -375c-81 -136 -145 -225 -220 -307c-13 -14 -32 -23 -52 -23zM139 729c0 10 2 27 4 38c7 33 35 57 69 57c39 0 70 -31 70 -70c0 -9 -1 -19 -1 -30c0 -13 4 -33 4 -43c0 -39 -31 -70 -70 -70c-34 0 -63 25 -69 57c-5 24 -7 44 -7 61zM338 692
c0 9 2 16 2 32s-1 33 -1 42c0 39 31 70 70 70c38 0 68 -30 70 -67c1 -11 1 -29 1 -45c0 -13 -1 -30 -3 -42c-4 -34 -34 -60 -69 -60c-39 0 -70 31 -70 70z" />
    <glyph glyph-name="ygrave" unicode="&#x1ef3;" 
d="M146 -223c-39 0 -70 31 -70 70c0 18 7 35 18 47c46 50 86 101 130 167c-55 138 -139 309 -200 407c-7 11 -11 24 -11 38c0 39 31 70 70 70c26 0 48 -14 60 -34c55 -89 120 -219 172 -335c57 99 112 221 147 320c9 29 36 49 67 49c39 0 70 -31 70 -70c0 -9 -2 -17 -4 -24
c-41 -118 -110 -265 -177 -375c-81 -136 -145 -225 -220 -307c-13 -14 -32 -23 -52 -23zM139 806c0 39 31 70 70 70c16 0 31 -5 42 -14l201 -150c18 -13 29 -34 29 -57c0 -39 -31 -70 -70 -70c-16 0 -31 5 -42 14l-201 150c-18 13 -29 34 -29 57z" />
    <glyph glyph-name="z" unicode="z" 
d="M216 -6c-38 0 -78 1 -122 2c-38 1 -68 32 -68 70c0 17 6 33 17 45c66 81 195 216 289 319c-24 -1 -48 -2 -72 -2c-56 0 -105 3 -140 9c-34 4 -60 34 -60 69c0 39 31 70 70 70c9 0 48 -8 130 -8c149 1 231 15 238 15c39 0 70 -31 70 -70c0 -17 -6 -33 -17 -45
c-102 -120 -207 -232 -302 -334c164 1 250 21 265 21c39 0 70 -31 70 -70c0 -35 -26 -64 -59 -69c-96 -17 -208 -22 -309 -22z" />
    <glyph glyph-name="zacute" unicode="&#x17a;" 
d="M216 -6c-38 0 -78 1 -122 2c-38 1 -68 32 -68 70c0 17 6 33 17 45c66 81 195 216 289 319c-24 -1 -48 -2 -72 -2c-56 0 -105 3 -140 9c-34 4 -60 34 -60 69c0 39 31 70 70 70c9 0 48 -8 130 -8c149 1 231 15 238 15c39 0 70 -31 70 -70c0 -17 -6 -33 -17 -45
c-102 -120 -207 -232 -302 -334c164 1 250 21 265 21c39 0 70 -31 70 -70c0 -35 -26 -64 -59 -69c-96 -17 -208 -22 -309 -22zM139 675c0 23 11 44 29 57l201 150c11 9 26 14 42 14c39 0 70 -31 70 -70c0 -23 -11 -44 -29 -57l-201 -150c-11 -9 -26 -14 -42 -14
c-39 0 -70 31 -70 70z" />
    <glyph glyph-name="zcaron" unicode="&#x17e;" 
d="M216 -6c-38 0 -78 1 -122 2c-38 1 -68 32 -68 70c0 17 6 33 17 45c66 81 195 216 289 319c-24 -1 -48 -2 -72 -2c-56 0 -105 3 -140 9c-34 4 -60 34 -60 69c0 39 31 70 70 70c9 0 48 -8 130 -8c149 1 231 15 238 15c39 0 70 -31 70 -70c0 -17 -6 -33 -17 -45
c-102 -120 -207 -232 -302 -334c164 1 250 21 265 21c39 0 70 -31 70 -70c0 -35 -26 -64 -59 -69c-96 -17 -208 -22 -309 -22zM58 806c0 39 31 70 70 70c19 0 35 -7 48 -19c34 -32 75 -65 125 -99c52 34 101 68 148 104c12 9 27 14 43 14c39 0 70 -31 70 -70
c0 -23 -11 -44 -29 -56c-61 -47 -126 -91 -195 -134c-11 -7 -24 -11 -38 -11s-28 4 -39 12c-73 47 -132 93 -181 138c-14 13 -22 31 -22 51z" />
    <glyph glyph-name="zdotaccent" unicode="&#x17c;" 
d="M216 -6c-38 0 -78 1 -122 2c-38 1 -68 32 -68 70c0 17 6 33 17 45c66 81 195 216 289 319c-24 -1 -48 -2 -72 -2c-56 0 -105 3 -140 9c-34 4 -60 34 -60 69c0 39 31 70 70 70c9 0 48 -8 130 -8c149 1 231 15 238 15c39 0 70 -31 70 -70c0 -17 -6 -33 -17 -45
c-102 -120 -207 -232 -302 -334c164 1 250 21 265 21c39 0 70 -31 70 -70c0 -35 -26 -64 -59 -69c-96 -17 -208 -22 -309 -22zM218 746c0 63 32 111 94 111c51 0 91 -41 91 -92c0 -38 -23 -85 -53 -117c-13 -14 -31 -22 -51 -22c-18 0 -34 6 -46 17c-17 11 -29 30 -32 51
c-2 21 -3 38 -3 52z" />
    <glyph glyph-name="a.ss01" 
d="M250 -19c-125 0 -213 105 -213 252c0 190 130 344 292 344c39 0 76 -15 108 -45c10 26 36 44 65 44c39 0 70 -31 70 -70c0 -7 -1 -14 -3 -21c-21 -72 -39 -179 -39 -233c0 -68 20 -124 53 -151c16 -12 26 -32 26 -54c0 -39 -31 -70 -70 -70c-17 0 -33 6 -45 16
c-30 25 -55 59 -72 99c-49 -71 -108 -111 -172 -111zM177 233c0 -71 30 -112 73 -112c46 0 100 50 140 138c1 35 7 85 15 136c-23 29 -49 42 -76 42c-81 0 -152 -90 -152 -204z" />
    <glyph glyph-name="aacute.ss01" 
d="M250 -19c-125 0 -213 105 -213 252c0 190 130 344 292 344c39 0 76 -15 108 -45c10 26 36 44 65 44c39 0 70 -31 70 -70c0 -7 -1 -14 -3 -21c-21 -72 -39 -179 -39 -233c0 -68 20 -124 53 -151c16 -12 26 -32 26 -54c0 -39 -31 -70 -70 -70c-17 0 -33 6 -45 16
c-30 25 -55 59 -72 99c-49 -71 -108 -111 -172 -111zM139 675c0 23 11 44 29 57l201 150c11 9 26 14 42 14c39 0 70 -31 70 -70c0 -23 -11 -44 -29 -57l-201 -150c-11 -9 -26 -14 -42 -14c-39 0 -70 31 -70 70zM177 233c0 -71 30 -112 73 -112c46 0 100 50 140 138
c1 35 7 85 15 136c-23 29 -49 42 -76 42c-81 0 -152 -90 -152 -204z" />
    <glyph glyph-name="abreve.ss01" 
d="M250 -19c-125 0 -213 105 -213 252c0 190 130 344 292 344c39 0 76 -15 108 -45c10 26 36 44 65 44c39 0 70 -31 70 -70c0 -7 -1 -14 -3 -21c-21 -72 -39 -179 -39 -233c0 -68 20 -124 53 -151c16 -12 26 -32 26 -54c0 -39 -31 -70 -70 -70c-17 0 -33 6 -45 16
c-30 25 -55 59 -72 99c-49 -71 -108 -111 -172 -111zM66 799c0 39 31 70 70 70c33 0 60 -22 68 -52c11 -37 57 -65 113 -65c53 0 90 25 98 63c7 32 35 56 69 56c39 0 70 -31 70 -70c0 -6 -1 -11 -2 -16c-23 -104 -117 -173 -235 -173s-219 68 -248 166c-2 7 -3 14 -3 21z
M177 233c0 -71 30 -112 73 -112c46 0 100 50 140 138c1 35 7 85 15 136c-23 29 -49 42 -76 42c-81 0 -152 -90 -152 -204z" />
    <glyph glyph-name="acircumflex.ss01" 
d="M250 -19c-125 0 -213 105 -213 252c0 190 130 344 292 344c39 0 76 -15 108 -45c10 26 36 44 65 44c39 0 70 -31 70 -70c0 -7 -1 -14 -3 -21c-21 -72 -39 -179 -39 -233c0 -68 20 -124 53 -151c16 -12 26 -32 26 -54c0 -39 -31 -70 -70 -70c-17 0 -33 6 -45 16
c-30 25 -55 59 -72 99c-49 -71 -108 -111 -172 -111zM58 675c0 23 11 44 29 56c61 47 126 91 195 134c11 7 24 11 38 11s28 -4 39 -12c73 -47 132 -93 181 -138c14 -13 22 -31 22 -51c0 -39 -31 -70 -70 -70c-19 0 -35 7 -48 19c-34 32 -75 65 -125 99
c-52 -34 -101 -68 -148 -104c-12 -9 -27 -14 -43 -14c-39 0 -70 31 -70 70zM177 233c0 -71 30 -112 73 -112c46 0 100 50 140 138c1 35 7 85 15 136c-23 29 -49 42 -76 42c-81 0 -152 -90 -152 -204z" />
    <glyph glyph-name="adieresis.ss01" 
d="M250 -19c-125 0 -213 105 -213 252c0 190 130 344 292 344c39 0 76 -15 108 -45c10 26 36 44 65 44c39 0 70 -31 70 -70c0 -7 -1 -14 -3 -21c-21 -72 -39 -179 -39 -233c0 -68 20 -124 53 -151c16 -12 26 -32 26 -54c0 -39 -31 -70 -70 -70c-17 0 -33 6 -45 16
c-30 25 -55 59 -72 99c-49 -71 -108 -111 -172 -111zM139 729c0 10 2 27 4 38c7 33 35 57 69 57c39 0 70 -31 70 -70c0 -9 -1 -19 -1 -30c0 -13 4 -33 4 -43c0 -39 -31 -70 -70 -70c-34 0 -63 25 -69 57c-5 24 -7 44 -7 61zM177 233c0 -71 30 -112 73 -112
c46 0 100 50 140 138c1 35 7 85 15 136c-23 29 -49 42 -76 42c-81 0 -152 -90 -152 -204zM338 692c0 9 2 16 2 32s-1 33 -1 42c0 39 31 70 70 70c38 0 68 -30 70 -67c1 -11 1 -29 1 -45c0 -13 -1 -30 -3 -42c-4 -34 -34 -60 -69 -60c-39 0 -70 31 -70 70z" />
    <glyph glyph-name="agrave.ss01" 
d="M250 -19c-125 0 -213 105 -213 252c0 190 130 344 292 344c39 0 76 -15 108 -45c10 26 36 44 65 44c39 0 70 -31 70 -70c0 -7 -1 -14 -3 -21c-21 -72 -39 -179 -39 -233c0 -68 20 -124 53 -151c16 -12 26 -32 26 -54c0 -39 -31 -70 -70 -70c-17 0 -33 6 -45 16
c-30 25 -55 59 -72 99c-49 -71 -108 -111 -172 -111zM139 806c0 39 31 70 70 70c16 0 31 -5 42 -14l201 -150c18 -13 29 -34 29 -57c0 -39 -31 -70 -70 -70c-16 0 -31 5 -42 14l-201 150c-18 13 -29 34 -29 57zM177 233c0 -71 30 -112 73 -112c46 0 100 50 140 138
c1 35 7 85 15 136c-23 29 -49 42 -76 42c-81 0 -152 -90 -152 -204z" />
    <glyph glyph-name="amacron.ss01" 
d="M250 -19c-125 0 -213 105 -213 252c0 190 130 344 292 344c39 0 76 -15 108 -45c10 26 36 44 65 44c39 0 70 -31 70 -70c0 -7 -1 -14 -3 -21c-21 -72 -39 -179 -39 -233c0 -68 20 -124 53 -151c16 -12 26 -32 26 -54c0 -39 -31 -70 -70 -70c-17 0 -33 6 -45 16
c-30 25 -55 59 -72 99c-49 -71 -108 -111 -172 -111zM52 691c0 36 27 65 61 69c110 16 294 23 384 23c39 0 70 -31 70 -70s-31 -70 -70 -70c-219 0 -365 -22 -375 -22c-39 0 -70 31 -70 70zM177 233c0 -71 30 -112 73 -112c46 0 100 50 140 138c1 35 7 85 15 136
c-23 29 -49 42 -76 42c-81 0 -152 -90 -152 -204z" />
    <glyph glyph-name="aogonek.ss01" 
d="M250 -19c-125 0 -213 105 -213 252c0 190 130 344 292 344c39 0 76 -15 108 -45c10 26 36 44 65 44c39 0 70 -31 70 -70c0 -7 -1 -14 -3 -21c-21 -72 -39 -179 -39 -233c0 -68 20 -124 53 -151c16 -12 26 -32 26 -54c0 -30 -18 -55 -45 -65c-42 -22 -79 -53 -79 -64
c0 -5 4 -7 9 -7c20 0 46 10 64 26c12 10 28 17 46 17c39 0 70 -31 70 -70c0 -21 -10 -40 -25 -53c-41 -36 -103 -60 -155 -60c-82 0 -149 55 -149 129c0 51 35 101 104 142c-10 15 -19 32 -27 50c-49 -71 -108 -111 -172 -111zM177 233c0 -71 30 -112 73 -112
c46 0 100 50 140 138c1 35 7 85 15 136c-23 29 -49 42 -76 42c-81 0 -152 -90 -152 -204z" />
    <glyph glyph-name="aring.ss01" 
d="M250 -19c-125 0 -213 105 -213 252c0 190 130 344 292 344c39 0 76 -15 108 -45c10 26 36 44 65 44c39 0 70 -31 70 -70c0 -7 -1 -14 -3 -21c-21 -72 -39 -179 -39 -233c0 -68 20 -124 53 -151c16 -12 26 -32 26 -54c0 -39 -31 -70 -70 -70c-17 0 -33 6 -45 16
c-30 25 -55 59 -72 99c-49 -71 -108 -111 -172 -111zM132 778c0 94 81 175 177 175c91 0 178 -80 178 -165c0 -90 -78 -171 -172 -171c-106 0 -183 66 -183 161zM177 233c0 -71 30 -112 73 -112c46 0 100 50 140 138c1 35 7 85 15 136c-23 29 -49 42 -76 42
c-81 0 -152 -90 -152 -204zM232 778c0 -38 26 -61 83 -61c39 0 72 35 72 71c0 30 -45 65 -78 65c-34 0 -77 -36 -77 -75z" />
    <glyph glyph-name="aringacute.ss01" 
d="M250 -19c-125 0 -213 105 -213 252c0 190 130 344 292 344c39 0 76 -15 108 -45c10 26 36 44 65 44c39 0 70 -31 70 -70c0 -7 -1 -14 -3 -21c-21 -72 -39 -179 -39 -233c0 -68 20 -124 53 -151c16 -12 26 -32 26 -54c0 -39 -31 -70 -70 -70c-17 0 -33 6 -45 16
c-30 25 -55 59 -72 99c-49 -71 -108 -111 -172 -111zM132 778c0 95 81 175 177 175c18 0 36 -3 54 -9l145 110c12 9 27 14 43 14c39 0 70 -31 70 -70c0 -23 -11 -44 -29 -56l-121 -91c10 -20 16 -41 16 -63c0 -91 -78 -171 -172 -171c-106 0 -183 66 -183 161zM177 233
c0 -71 30 -112 73 -112c46 0 100 50 140 138c1 35 7 85 15 136c-23 29 -49 42 -76 42c-81 0 -152 -90 -152 -204zM232 778c0 -38 26 -61 83 -61c39 0 72 35 72 71c0 30 -45 65 -78 65c-34 0 -77 -36 -77 -75z" />
    <glyph glyph-name="atilde.ss01" 
d="M250 -19c-125 0 -213 105 -213 252c0 190 130 344 292 344c39 0 76 -15 108 -45c10 26 36 44 65 44c39 0 70 -31 70 -70c0 -7 -1 -14 -3 -21c-21 -72 -39 -179 -39 -233c0 -68 20 -124 53 -151c16 -12 26 -32 26 -54c0 -39 -31 -70 -70 -70c-17 0 -33 6 -45 16
c-30 25 -55 59 -72 99c-49 -71 -108 -111 -172 -111zM27 674c0 5 1 10 1 14c20 100 96 173 190 173c60 0 99 -24 149 -76c29 -29 35 -33 49 -33c15 0 32 19 38 58c4 34 33 61 69 61c39 0 70 -31 70 -70c0 -4 0 -7 -1 -11c-14 -103 -83 -178 -176 -178c-60 0 -99 24 -149 76
c-29 29 -35 33 -49 33c-23 0 -45 -23 -52 -59c-6 -33 -34 -58 -69 -58c-39 0 -70 31 -70 70zM177 233c0 -71 30 -112 73 -112c46 0 100 50 140 138c1 35 7 85 15 136c-23 29 -49 42 -76 42c-81 0 -152 -90 -152 -204z" />
    <glyph glyph-name="fi" unicode="&#xfb01;" 
d="M147 -122c-39 0 -70 31 -70 70c0 17 16 60 16 186c0 30 -2 158 -3 260c-8 0 -16 1 -24 1c-36 3 -64 33 -64 70c0 39 31 70 70 70l17 -1c3 173 51 273 175 273c23 0 51 -6 72 -16c25 -10 43 -35 43 -64c0 -39 -31 -70 -70 -70c-11 0 -21 3 -28 6s-12 4 -17 4
c-18 0 -32 -25 -35 -122c16 4 31 9 44 14c8 3 17 5 27 5c39 0 70 -31 70 -70c0 -30 -19 -56 -46 -66c-27 -11 -60 -19 -94 -25c1 -102 3 -238 3 -269c0 -75 -6 -142 -17 -199c-6 -32 -35 -57 -69 -57zM411 204c0 113 5 230 13 297c4 36 34 63 70 63c39 0 70 -31 70 -70
c0 -6 -13 -114 -13 -290c0 -92 4 -145 4 -148c0 -39 -31 -70 -70 -70c-37 0 -68 29 -70 66c-3 46 -4 101 -4 152zM424 720c0 53 28 97 83 97c51 0 80 -45 80 -92c0 -29 -15 -64 -35 -86c-13 -14 -32 -23 -52 -23c-26 0 -48 14 -60 34c-8 10 -13 23 -14 36c-1 14 -2 25 -2 34
z" />
    <glyph glyph-name="fl" unicode="&#xfb02;" 
d="M495 -23c-102 0 -138 100 -138 243c0 158 11 356 30 533c4 35 34 63 70 63c39 0 70 -31 70 -70c0 -11 -30 -262 -30 -526c0 -87 1 -95 7 -95c4 0 9 3 17 8c7 4 17 7 28 7c39 0 70 -31 70 -70c0 -23 -12 -44 -29 -57c-30 -22 -64 -36 -95 -36zM-8 465c0 39 31 70 70 70
l7 -1c3 173 51 273 175 273c23 0 51 -6 72 -16c25 -10 43 -35 43 -64c0 -39 -31 -70 -70 -70c-11 0 -21 3 -28 6s-12 4 -17 4c-18 0 -32 -25 -35 -120c28 8 45 17 61 17c39 0 70 -31 70 -70c0 -29 -18 -55 -44 -65c-25 -10 -54 -19 -86 -25c1 -103 3 -238 3 -270
c0 -75 -6 -142 -17 -199c-6 -32 -35 -57 -69 -57c-39 0 -70 31 -70 70c0 17 16 60 16 186c0 30 -2 159 -3 260l-15 1c-35 4 -63 34 -63 70z" />
    <glyph glyph-name="ordfeminine" unicode="&#xaa;" 
d="M474 300c-32 0 -58 25 -60 57l-1 10c-49 -28 -106 -44 -163 -44c-113 0 -188 57 -188 152c0 108 93 166 231 166c28 0 59 -3 89 -10c-11 52 -30 66 -72 66c-37 0 -75 -10 -118 -31c-8 -4 -18 -7 -28 -7c-33 0 -60 27 -60 60c0 24 14 45 34 54c57 29 118 44 172 44
c115 0 177 -67 195 -196c12 -84 28 -232 29 -261c0 -33 -26 -60 -60 -60zM182 475c0 -18 15 -32 68 -32c56 0 113 19 151 49c0 6 -1 12 -2 17c-35 8 -73 12 -106 12c-78 0 -111 -19 -111 -46z" />
    <glyph glyph-name="ordmasculine" unicode="&#xba;" 
d="M301 309c-141 0 -226 88 -226 232c0 149 111 271 247 271c138 0 224 -101 224 -259c0 -142 -103 -244 -245 -244zM195 541c0 -78 33 -112 106 -112c76 0 125 48 125 124c0 94 -37 139 -104 139c-69 0 -127 -68 -127 -151z" />
    <glyph glyph-name="uni0410" unicode="&#x410;" 
d="M530 -36c-34 0 -63 25 -69 58c-9 48 -20 96 -30 145c-67 -4 -160 -11 -239 -19c-16 -39 -29 -75 -38 -106c-9 -29 -36 -51 -68 -51c-39 0 -70 31 -70 70c0 8 1 15 3 22c6 21 14 44 23 68c-17 12 -28 33 -28 56c0 36 27 66 63 70l18 2c66 148 154 309 222 413
c12 20 34 33 59 33c32 0 59 -22 67 -51c59 -195 114 -416 155 -625c1 -5 2 -10 2 -15c0 -39 -31 -70 -70 -70zM257 295c49 4 96 8 141 10c-14 59 -29 118 -45 176c-33 -60 -66 -124 -96 -186z" />
    <glyph glyph-name="uni0411" unicode="&#x411;" 
d="M230 -14c-28 0 -59 2 -88 7c-32 4 -57 30 -60 63c-6 63 -10 164 -10 288c0 73 1 151 4 225c-22 12 -37 35 -37 62c0 38 31 70 69 70c33 0 234 3 287 3c36 0 66 0 91 -1c38 -1 68 -32 68 -70c0 -39 -31 -70 -70 -70c-11 0 -53 1 -89 1c-32 0 -112 -1 -179 -2
c-1 -30 -2 -68 -3 -113c9 1 17 1 26 1c178 0 334 -99 334 -236c0 -141 -153 -228 -343 -228zM212 309c0 -61 1 -112 5 -183h13c117 0 203 43 203 88c0 46 -91 96 -194 96c-10 0 -19 0 -27 -1z" />
    <glyph glyph-name="uni0412" unicode="&#x412;" 
d="M126 -49c-39 0 -70 31 -70 70c0 35 -10 535 -10 619c0 37 28 67 64 70c50 5 88 7 122 7c198 0 323 -73 323 -222c0 -59 -25 -106 -66 -139c69 -34 109 -82 109 -148c0 -151 -166 -222 -417 -230c-12 -17 -32 -27 -55 -27zM187 576l3 -161c27 -1 54 -3 80 -6
c95 4 145 39 145 86c0 54 -54 82 -183 82c-14 0 -29 0 -45 -1zM192 274l3 -155c167 8 263 47 263 89c0 22 -111 58 -266 66z" />
    <glyph glyph-name="uni0413" unicode="&#x413;" 
d="M132 -15c-39 0 -70 31 -70 70c0 148 6 452 11 570c1 33 26 61 59 66c93 17 189 26 281 26c44 0 87 -2 130 -6c36 -3 64 -33 64 -70c0 -39 -31 -70 -70 -70c-8 0 -71 7 -124 6c-67 -1 -135 -5 -202 -15c-5 -138 -9 -381 -9 -507c0 -39 -31 -70 -70 -70z" />
    <glyph glyph-name="uni0403" unicode="&#x403;" 
d="M132 -15c-39 0 -70 31 -70 70c0 148 6 452 11 570c1 33 26 61 59 66c93 17 189 26 281 26c44 0 87 -2 130 -6c36 -3 64 -33 64 -70c0 -39 -31 -70 -70 -70c-8 0 -71 7 -124 6c-67 -1 -135 -5 -202 -15c-5 -138 -9 -381 -9 -507c0 -39 -31 -70 -70 -70zM139 815
c0 23 11 44 29 57l201 150c11 9 26 14 42 14c39 0 70 -31 70 -70c0 -23 -11 -44 -29 -57l-201 -150c-11 -9 -26 -14 -42 -14c-39 0 -70 31 -70 70z" />
    <glyph glyph-name="uni0490" unicode="&#x490;" 
d="M132 -15c-39 0 -70 31 -70 70c0 147 6 448 11 565c1 33 26 61 59 66c93 17 189 26 281 26c19 0 38 -1 56 -1l-1 65c0 39 31 70 70 70c38 0 69 -30 70 -68c0 -21 1 -46 1 -72c0 -30 -1 -55 -2 -75c-3 -36 -33 -65 -70 -65c-8 0 -71 7 -124 6c-67 -1 -135 -5 -202 -15
c-5 -137 -9 -377 -9 -502c0 -39 -31 -70 -70 -70z" />
    <glyph glyph-name="uni0492" unicode="&#x492;" 
d="M132 -15c-39 0 -70 31 -70 70c0 49 1 116 2 188c-14 -2 -23 -3 -27 -3c-34 0 -60 27 -60 60c0 31 23 56 52 59l37 5c2 105 5 204 7 261c1 33 26 61 59 66c93 17 189 26 281 26c44 0 87 -2 130 -6c36 -3 64 -33 64 -70c0 -39 -31 -70 -70 -70c-8 0 -71 7 -124 6
c-67 -1 -135 -5 -202 -15c-2 -51 -4 -115 -5 -183c53 4 103 7 134 7c34 0 60 -26 60 -60c0 -32 -26 -59 -58 -60c-52 -2 -99 -5 -138 -8c-1 -77 -2 -150 -2 -203c0 -39 -31 -70 -70 -70z" />
    <glyph glyph-name="uni0414" unicode="&#x414;" 
d="M60 -217c-39 0 -70 31 -70 70c5 88 15 166 24 202c6 28 29 50 58 54l14 2c39 83 57 225 57 457v55c0 35 26 64 59 69c66 12 198 19 286 20c40 0 71 -31 71 -70c0 -9 -12 -133 -12 -292c0 -46 1 -129 4 -213c31 -7 55 -34 55 -67c-1 -56 1 -169 2 -216
c0 -39 -31 -70 -70 -70c-38 0 -68 30 -70 67c-1 23 -2 109 -2 144c-44 0 -271 -12 -324 -18c-4 -30 -8 -70 -12 -128c-2 -37 -33 -66 -70 -66zM240 124c56 4 118 8 171 10c-3 85 -4 169 -4 216c0 71 2 150 7 220c-47 -2 -94 -5 -131 -9c0 -194 -14 -335 -43 -437z" />
    <glyph glyph-name="uni0415" unicode="&#x415;" 
d="M529 -11c-98 0 -231 7 -313 16c-105 11 -162 69 -162 170c0 31 4 83 8 138c-12 12 -20 30 -20 49c0 22 10 42 26 55c1 12 1 23 1 33c0 164 -12 171 -12 189c0 39 31 70 70 70c16 0 30 -5 42 -14c70 11 145 17 217 17c47 0 93 -2 137 -6c36 -3 64 -33 64 -70
c0 -39 -31 -70 -70 -70c-10 0 -70 6 -131 6c-60 0 -122 -4 -179 -13c1 -29 2 -65 2 -109v-18c93 0 164 2 257 16c3 1 7 1 11 1c39 0 70 -31 70 -70c0 -36 -27 -65 -61 -69c-78 -12 -188 -18 -285 -19c-4 -51 -7 -97 -7 -116c0 -24 0 -27 36 -30c79 -9 207 -16 299 -16
c39 0 70 -31 70 -70s-31 -70 -70 -70z" />
    <glyph glyph-name="uni0400" unicode="&#x400;" 
d="M529 -11c-98 0 -231 7 -313 16c-105 11 -162 69 -162 170c0 31 4 83 8 138c-12 12 -20 30 -20 49c0 22 10 42 26 55c1 12 1 23 1 33c0 164 -12 171 -12 189c0 39 31 70 70 70c16 0 30 -5 42 -14c70 11 145 17 217 17c47 0 93 -2 137 -6c36 -3 64 -33 64 -70
c0 -39 -31 -70 -70 -70c-10 0 -70 6 -131 6c-60 0 -122 -4 -179 -13c1 -29 2 -65 2 -109v-18c93 0 164 2 257 16c3 1 7 1 11 1c39 0 70 -31 70 -70c0 -36 -27 -65 -61 -69c-78 -12 -188 -18 -285 -19c-4 -51 -7 -97 -7 -116c0 -24 0 -27 36 -30c79 -9 207 -16 299 -16
c39 0 70 -31 70 -70s-31 -70 -70 -70zM139 946c0 39 31 70 70 70c16 0 31 -5 42 -14l201 -150c18 -13 29 -34 29 -57c0 -39 -31 -70 -70 -70c-16 0 -31 5 -42 14l-201 150c-18 13 -29 34 -29 57z" />
    <glyph glyph-name="uni0401" unicode="&#x401;" 
d="M529 -11c-98 0 -231 7 -313 16c-105 11 -162 69 -162 170c0 31 4 83 8 138c-12 12 -20 30 -20 49c0 22 10 42 26 55c1 12 1 23 1 33c0 164 -12 171 -12 189c0 39 31 70 70 70c16 0 30 -5 42 -14c70 11 145 17 217 17c47 0 93 -2 137 -6c36 -3 64 -33 64 -70
c0 -39 -31 -70 -70 -70c-10 0 -70 6 -131 6c-60 0 -122 -4 -179 -13c1 -29 2 -65 2 -109v-18c93 0 164 2 257 16c3 1 7 1 11 1c39 0 70 -31 70 -70c0 -36 -27 -65 -61 -69c-78 -12 -188 -18 -285 -19c-4 -51 -7 -97 -7 -116c0 -24 0 -27 36 -30c79 -9 207 -16 299 -16
c39 0 70 -31 70 -70s-31 -70 -70 -70zM139 869c0 10 2 27 4 38c7 33 35 57 69 57c39 0 70 -31 70 -70c0 -9 -1 -19 -1 -30c0 -13 4 -33 4 -43c0 -39 -31 -70 -70 -70c-34 0 -63 25 -69 57c-5 24 -7 44 -7 61zM338 832c0 9 2 16 2 32s-1 33 -1 42c0 39 31 70 70 70
c38 0 68 -30 70 -67c1 -11 1 -29 1 -45c0 -13 -1 -30 -3 -42c-4 -34 -34 -60 -69 -60c-39 0 -70 31 -70 70z" />
    <glyph glyph-name="uni0416" unicode="&#x416;" 
d="M62 -6c-39 0 -70 31 -70 70c0 9 2 17 5 25c29 84 79 183 129 262c-51 78 -95 173 -125 273c-3 7 -4 14 -4 22c0 39 31 70 70 70c32 0 59 -22 67 -51c28 -95 62 -177 107 -247l4 -1c1 66 2 139 2 220c0 39 31 70 70 70s70 -31 70 -70c0 -61 -1 -138 -2 -220
c44 72 79 155 106 248c8 29 35 51 67 51c39 0 70 -31 70 -70c0 -8 -1 -15 -4 -22c-31 -104 -77 -202 -131 -286c53 -75 104 -168 135 -247c3 -8 5 -17 5 -27c0 -39 -31 -70 -70 -70c-30 0 -56 19 -66 46c-26 73 -69 157 -115 225c-2 -78 -5 -155 -9 -221
c-2 -37 -33 -66 -70 -66c-39 0 -70 31 -70 70c0 18 5 97 9 229l-5 1c-41 -70 -83 -159 -108 -236c-10 -28 -36 -48 -67 -48z" />
    <glyph glyph-name="uni0417" unicode="&#x417;" 
d="M277 -20c-69 0 -136 17 -201 52c-22 11 -38 35 -38 62c0 39 31 70 70 70c12 0 24 -3 34 -9c47 -25 86 -35 135 -35c87 0 140 36 140 86c0 47 -55 79 -149 79c-16 0 -54 -3 -56 -3c-39 0 -70 31 -70 70v1c0 33 22 60 52 68c167 47 210 75 210 108c0 22 -38 45 -90 45
c-45 0 -100 -13 -151 -37c-10 -4 -20 -7 -31 -7c-39 0 -70 31 -70 70c0 29 17 54 42 64c67 31 148 50 210 50c127 0 230 -76 230 -185c0 -67 -32 -114 -108 -153c80 -38 121 -96 121 -170c0 -132 -117 -226 -280 -226z" />
    <glyph glyph-name="uni0418" unicode="&#x418;" 
d="M103 723c38 0 68 -30 70 -67c3 -67 7 -206 8 -340c90 141 190 280 271 374c13 15 32 24 53 24c37 0 68 -29 70 -66c6 -91 9 -206 9 -320s-3 -217 -9 -287c-3 -36 -33 -65 -70 -65c-39 0 -70 31 -70 70c0 11 9 94 9 282c0 42 0 83 -1 124c-96 -132 -199 -293 -272 -429
c-11 -22 -35 -38 -62 -38c-39 0 -70 31 -70 70c1 34 2 95 2 168c0 240 -8 424 -8 430c0 39 31 70 70 70z" />
    <glyph glyph-name="uni0419" unicode="&#x419;" 
d="M103 723c38 0 68 -30 70 -67c3 -67 7 -206 8 -340c90 141 190 280 271 374c13 15 32 24 53 24c37 0 68 -29 70 -66c6 -91 9 -206 9 -320s-3 -217 -9 -287c-3 -36 -33 -65 -70 -65c-39 0 -70 31 -70 70c0 11 9 94 9 282c0 42 0 83 -1 124c-96 -132 -199 -293 -272 -429
c-11 -22 -35 -38 -62 -38c-39 0 -70 31 -70 70c1 34 2 95 2 168c0 240 -8 424 -8 430c0 39 31 70 70 70zM56 939c0 39 31 70 70 70c33 0 60 -22 68 -52c11 -37 57 -65 113 -65c53 0 90 25 98 63c7 32 35 56 69 56c39 0 70 -31 70 -70c0 -6 -1 -11 -2 -16
c-23 -104 -117 -173 -235 -173s-219 68 -248 166c-2 7 -3 14 -3 21z" />
    <glyph glyph-name="uni040D" unicode="&#x40d;" 
d="M103 723c38 0 68 -30 70 -67c3 -67 7 -206 8 -340c90 141 190 280 271 374c13 15 32 24 53 24c37 0 68 -29 70 -66c6 -91 9 -206 9 -320s-3 -217 -9 -287c-3 -36 -33 -65 -70 -65c-39 0 -70 31 -70 70c0 11 9 94 9 282c0 42 0 83 -1 124c-96 -132 -199 -293 -272 -429
c-11 -22 -35 -38 -62 -38c-39 0 -70 31 -70 70c1 34 2 95 2 168c0 240 -8 424 -8 430c0 39 31 70 70 70zM129 946c0 39 31 70 70 70c16 0 31 -5 42 -14l201 -150c18 -13 29 -34 29 -57c0 -39 -31 -70 -70 -70c-16 0 -31 5 -42 14l-201 150c-18 13 -29 34 -29 57z" />
    <glyph glyph-name="uni041A" unicode="&#x41a;" 
d="M534 -24c-18 0 -35 7 -47 19c-80 73 -185 187 -259 274l-19 1v-26c0 -70 9 -181 9 -190c0 -39 -31 -70 -70 -70c-37 0 -67 29 -70 65c-5 65 -9 147 -9 195c0 117 10 296 23 413c4 35 34 63 70 63c39 0 70 -31 70 -70c0 -7 -12 -112 -18 -240l23 -1c92 70 167 157 222 256
c12 22 35 37 62 37c39 0 70 -31 70 -70c0 -13 -3 -25 -10 -35c-55 -99 -132 -192 -221 -268c69 -79 155 -170 221 -231c14 -13 23 -32 23 -52c0 -39 -31 -70 -70 -70z" />
    <glyph glyph-name="uni040C" unicode="&#x40c;" 
d="M534 -24c-18 0 -35 7 -47 19c-80 73 -185 187 -259 274l-19 1v-26c0 -70 9 -181 9 -190c0 -39 -31 -70 -70 -70c-37 0 -67 29 -70 65c-5 65 -9 147 -9 195c0 117 10 296 23 413c4 35 34 63 70 63c39 0 70 -31 70 -70c0 -7 -12 -112 -18 -240l23 -1c92 70 167 157 222 256
c12 22 35 37 62 37c39 0 70 -31 70 -70c0 -13 -3 -25 -10 -35c-55 -99 -132 -192 -221 -268c69 -79 155 -170 221 -231c14 -13 23 -32 23 -52c0 -39 -31 -70 -70 -70zM139 815c0 23 11 44 29 57l201 150c11 9 26 14 42 14c39 0 70 -31 70 -70c0 -23 -11 -44 -29 -57
l-201 -150c-11 -9 -26 -14 -42 -14c-39 0 -70 31 -70 70z" />
    <glyph glyph-name="uni041B" unicode="&#x41b;" 
d="M514 -15c-37 0 -68 29 -70 66c-8 124 -17 314 -17 386c0 37 2 83 5 128c-30 1 -64 2 -98 2l-51 -1c-2 -322 -57 -478 -211 -567c-11 -6 -23 -10 -36 -10c-39 0 -70 31 -70 70c0 26 15 49 36 61c103 59 140 172 141 449c-23 11 -39 35 -39 63c0 37 29 67 65 70
c37 3 96 5 165 5c67 0 132 -2 179 -5c37 -2 66 -33 66 -70c0 -7 -12 -106 -12 -195c0 -91 17 -381 17 -382c0 -39 -31 -70 -70 -70z" />
    <glyph glyph-name="uni041C" unicode="&#x41c;" 
d="M71 -16c-39 0 -70 31 -70 70c2 89 31 547 32 584c1 38 32 68 70 68c28 0 53 -17 64 -41c59 -116 109 -218 132 -268c31 71 96 214 122 276c10 26 35 44 65 44c36 0 66 -28 70 -63c18 -162 61 -557 61 -589c0 -39 -31 -70 -70 -70c-37 0 -67 29 -70 65
c-8 100 -20 226 -34 354c-32 -70 -61 -136 -78 -178c-10 -27 -36 -46 -66 -46c-31 0 -57 20 -66 48c-17 45 -43 101 -72 162l-20 -349c-2 -37 -32 -67 -70 -67z" />
    <glyph glyph-name="uni041D" unicode="&#x41d;" 
d="M514 -22c-37 0 -68 29 -70 66c-4 60 -8 136 -11 207c-27 1 -57 2 -90 2c-53 0 -108 -2 -153 -5c-5 -79 -14 -146 -26 -199c-6 -31 -34 -55 -68 -55c-39 0 -70 31 -70 70c0 30 28 90 28 321c0 126 -11 239 -11 251c0 39 31 70 70 70c37 0 67 -28 70 -65
c7 -78 11 -169 11 -253c45 3 98 5 149 5c30 0 59 -1 85 -2l-1 64c0 66 12 152 29 212c8 30 36 52 68 52c39 0 70 -31 70 -70c0 -17 -27 -97 -27 -194c0 -89 17 -402 17 -407c0 -39 -31 -70 -70 -70z" />
    <glyph glyph-name="uni041E" unicode="&#x41e;" 
d="M288 -10c-162 0 -265 103 -265 266c0 255 123 455 292 455c170 0 280 -106 280 -272c0 -263 -124 -449 -307 -449zM163 256c0 -85 40 -126 125 -126c95 0 167 124 167 309c0 87 -47 132 -140 132c-79 0 -152 -143 -152 -315z" />
    <glyph glyph-name="uni041F" unicode="&#x41f;" 
d="M496 -17c-37 0 -68 29 -70 66c-7 117 -15 296 -15 363c0 53 3 113 7 167h-30c-58 0 -125 -3 -178 -7c-1 -168 -12 -384 -26 -513c-4 -35 -34 -63 -70 -63c-39 0 -70 31 -70 70c0 11 26 236 26 530v39c0 36 27 65 61 69c60 9 167 15 257 15c44 0 83 -1 114 -4
c36 -3 64 -33 64 -70c0 -7 -15 -113 -15 -233c0 -91 15 -352 15 -359c0 -39 -31 -70 -70 -70z" />
    <glyph glyph-name="uni0420" unicode="&#x420;" 
d="M149 -16c-38 0 -69 31 -70 69c-4 119 -9 335 -9 447c0 51 1 96 2 137c1 32 24 59 54 66c33 9 71 13 110 13c188 0 344 -118 344 -266c0 -152 -149 -257 -353 -257h-12c1 -37 3 -103 4 -139c0 -39 -31 -70 -70 -70zM210 500c0 -56 1 -112 2 -167h15c126 0 213 51 213 117
c0 64 -94 126 -204 126c-9 0 -17 0 -25 -1c-1 -23 -1 -48 -1 -75z" />
    <glyph glyph-name="uni0421" unicode="&#x421;" 
d="M297 -22c-170 0 -271 111 -271 297c0 248 139 423 338 423c25 0 52 -4 79 -12c2 38 32 67 70 67c39 0 70 -31 70 -70l-7 -217c-1 -38 -32 -68 -70 -68c-39 0 -70 31 -70 70l2 72c-28 12 -51 18 -74 18c-117 0 -198 -111 -198 -283c0 -110 41 -157 131 -157
c60 0 117 27 187 91c12 11 29 18 47 18c39 0 70 -31 70 -70c0 -21 -9 -39 -23 -52c-94 -85 -185 -127 -281 -127z" />
    <glyph glyph-name="uni0422" unicode="&#x422;" 
d="M320 -10c-39 0 -70 31 -70 70c0 119 -8 334 -18 492h-51c-37 0 -75 0 -111 1c-38 1 -68 32 -68 70c0 39 31 70 70 70c36 -1 71 -1 109 -1c218 0 351 13 363 13c39 0 70 -31 70 -70c0 -37 -29 -67 -65 -70c-55 -4 -115 -8 -177 -10c11 -160 18 -375 18 -495
c0 -39 -31 -70 -70 -70z" />
    <glyph glyph-name="uni0423" unicode="&#x423;" 
d="M152 -41c-39 0 -70 31 -70 70c0 20 8 37 21 50c43 42 87 96 131 158c-61 108 -146 251 -216 361c-8 11 -12 25 -12 39c0 39 31 70 70 70c25 0 47 -13 59 -33c60 -92 128 -207 185 -306c59 98 113 204 154 308c10 27 36 46 66 46c39 0 70 -31 70 -70c0 -10 -2 -19 -6 -27
c-97 -245 -260 -506 -403 -646c-13 -12 -30 -20 -49 -20z" />
    <glyph glyph-name="uni040E" unicode="&#x40e;" 
d="M152 -41c-39 0 -70 31 -70 70c0 20 8 37 21 50c43 42 87 96 131 158c-61 108 -146 251 -216 361c-8 11 -12 25 -12 39c0 39 31 70 70 70c25 0 47 -13 59 -33c60 -92 128 -207 185 -306c59 98 113 204 154 308c10 27 36 46 66 46c39 0 70 -31 70 -70c0 -10 -2 -19 -6 -27
c-97 -245 -260 -506 -403 -646c-13 -12 -30 -20 -49 -20zM66 939c0 39 31 70 70 70c33 0 60 -22 68 -52c11 -37 57 -65 113 -65c53 0 90 25 98 63c7 32 35 56 69 56c39 0 70 -31 70 -70c0 -6 -1 -11 -2 -16c-23 -104 -117 -173 -235 -173s-219 68 -248 166c-2 7 -3 14 -3 21
z" />
    <glyph glyph-name="uni0424" unicode="&#x424;" 
d="M320 -50c-39 0 -70 31 -70 70v12c-150 16 -242 129 -242 299c0 157 91 288 220 329l-1 23c0 39 31 70 70 70c37 0 68 -29 70 -66l1 -18c150 -20 242 -130 242 -293c0 -162 -87 -288 -220 -331v-25c0 -39 -31 -70 -70 -70zM148 331c0 -99 36 -155 105 -168
c-2 132 -7 262 -12 358c-56 -34 -93 -105 -93 -190zM371 536c5 -113 9 -240 12 -350c54 35 87 102 87 190c0 89 -33 142 -99 160z" />
    <glyph glyph-name="uni0425" unicode="&#x425;" 
d="M67 -23c-39 0 -70 31 -70 70c0 17 6 33 17 46c66 76 137 168 196 248c-65 95 -119 190 -157 279c-4 9 -6 19 -6 29c0 39 31 70 70 70c29 0 55 -18 65 -44c29 -68 68 -139 115 -213c61 85 131 175 182 238c13 16 33 26 55 26c39 0 70 -31 70 -70c0 -17 -6 -33 -16 -45
c-58 -72 -140 -178 -206 -270c56 -73 148 -187 202 -249c11 -12 18 -28 18 -46c0 -39 -31 -70 -70 -70c-21 0 -40 9 -53 24c-47 54 -125 148 -183 222c-54 -73 -117 -152 -175 -220c-13 -15 -32 -25 -54 -25z" />
    <glyph glyph-name="uni0427" unicode="&#x427;" 
d="M253 237c-136 0 -220 85 -220 223c0 66 4 130 10 187c4 36 34 63 70 63c39 0 70 -31 70 -70c0 -10 -10 -67 -10 -180c0 -61 22 -83 80 -83c53 0 110 13 155 35c0 87 3 173 8 246c2 37 33 66 70 66c39 0 70 -31 70 -70c0 -7 -8 -115 -8 -260c0 -231 28 -329 28 -345
c0 -39 -31 -70 -70 -70c-34 0 -62 24 -68 55c-12 51 -22 136 -27 229c-51 -16 -106 -26 -158 -26z" />
    <glyph glyph-name="uni0426" unicode="&#x426;" 
d="M530 -215c-39 0 -70 31 -70 70c0 13 12 56 16 137c-98 -1 -234 -6 -376 -14c-39 0 -70 31 -70 70c2 66 3 165 3 275c0 226 -4 318 -4 323c0 39 31 70 70 70c38 0 69 -30 70 -68c2 -81 4 -198 4 -325c0 -72 -1 -142 -1 -201c73 4 149 7 221 9c12 140 20 367 22 513
c0 38 32 69 70 69c39 0 70 -31 70 -71c-2 -142 -9 -362 -21 -509h15c39 0 70 -31 70 -71c-1 -83 -8 -162 -20 -220c-6 -32 -35 -57 -69 -57z" />
    <glyph glyph-name="uni0428" unicode="&#x428;" 
d="M516 -5c-119 0 -293 1 -437 3c-38 0 -68 31 -69 68c-2 71 -3 181 -3 304c0 99 1 196 2 267c1 38 32 69 70 69c39 0 70 -31 70 -70c0 -6 -2 -136 -2 -266c0 -83 0 -165 2 -233l84 -1c-1 64 -1 142 -1 221c0 111 1 213 3 288c1 38 32 68 70 68c39 0 70 -31 70 -70
c0 -18 -3 -185 -3 -286c0 -81 1 -159 2 -222h73c1 66 7 444 8 519c1 38 32 69 70 69c39 0 70 -31 70 -70l-9 -589c-1 -38 -32 -69 -70 -69z" />
    <glyph glyph-name="uni0429" unicode="&#x429;" 
d="M540 -215c-39 0 -70 31 -70 70c0 5 1 11 2 16c7 33 12 75 14 121c-173 -1 -389 -14 -396 -14c-39 0 -70 31 -70 70c0 8 3 138 3 275c0 134 -4 314 -4 323c0 39 31 70 70 70c38 0 69 -30 70 -68c2 -81 4 -198 4 -325c0 -72 -1 -142 -1 -201l65 3c5 145 7 378 8 528
c0 39 31 70 70 70s70 -31 70 -70c-1 -147 -3 -376 -8 -523l66 2c12 142 20 373 22 522c0 38 32 69 70 69c39 0 70 -31 70 -70c-2 -146 -9 -372 -21 -521c31 -7 55 -35 55 -69c-1 -84 -8 -163 -20 -221c-6 -32 -35 -57 -69 -57z" />
    <glyph glyph-name="uni040F" unicode="&#x40f;" 
d="M516 -5c-11 0 -49 5 -133 7c1 -60 5 -108 11 -144c1 -4 1 -8 1 -12c0 -39 -31 -70 -70 -70c-35 0 -64 26 -69 60c-7 42 -11 99 -13 167c-86 -1 -138 -5 -143 -5c-39 0 -70 31 -70 70c0 7 4 145 4 274c0 162 -5 297 -5 309c0 39 31 70 70 70c38 0 69 -30 70 -67
c3 -79 5 -192 5 -312c0 -73 0 -143 -2 -201c40 2 80 2 120 2c54 0 105 -1 152 -3c-1 59 -2 119 -2 182c0 112 4 217 13 321c3 36 33 65 70 65c39 0 70 -31 70 -70c0 -19 -13 -144 -13 -316c0 -92 4 -245 4 -257c0 -39 -31 -70 -70 -70z" />
    <glyph glyph-name="uni042C" unicode="&#x42c;" 
d="M70 473c0 66 1 125 2 179c1 38 32 68 70 68c39 0 70 -31 70 -70c0 -11 -3 -96 -2 -161c12 1 24 2 36 2c186 0 334 -111 334 -256c0 -147 -143 -247 -343 -247c-35 0 -71 3 -101 8c-34 5 -60 33 -60 68c0 75 -6 294 -6 409zM211 349l4 -220c7 -1 14 -1 22 -1
c122 0 203 47 203 107c0 61 -86 116 -194 116c-12 0 -24 -1 -35 -2z" />
    <glyph glyph-name="uni042B" unicode="&#x42b;" 
d="M157 -17c-25 0 -52 3 -76 9c-31 6 -55 34 -55 67c-2 113 -6 299 -6 414c0 64 1 122 2 174c1 38 32 68 70 68c39 0 70 -31 70 -70l-2 -129h6c154 0 264 -120 264 -286c0 -151 -107 -247 -273 -247zM161 376c1 -83 3 -164 4 -253c84 2 125 38 125 107
c0 90 -49 146 -124 146h-5zM447 477c0 57 7 132 17 187c6 33 34 58 69 58c39 0 70 -31 70 -70c0 -18 -16 -85 -16 -175c0 -131 17 -401 17 -422c0 -39 -31 -70 -70 -70c-37 0 -68 29 -70 66c-8 137 -17 348 -17 426z" />
    <glyph glyph-name="uni042A" unicode="&#x42a;" 
d="M307 -11c-29 0 -58 3 -84 8c-32 6 -57 34 -57 68c0 113 -6 294 -6 407v98c-54 -2 -82 -5 -90 -5c-39 0 -70 31 -70 70c0 37 29 67 65 70c50 4 110 6 167 6c39 0 70 -31 70 -70c0 -8 -1 -72 -2 -129h16c170 0 294 -111 294 -266c0 -157 -120 -257 -303 -257zM300 372
c1 -73 2 -151 5 -243h2c108 0 163 42 163 117c0 76 -60 126 -154 126h-16z" />
    <glyph glyph-name="uni0409" unicode="&#x409;" 
d="M20 -11c-39 0 -70 31 -70 70c0 34 25 63 58 69c27 6 39 37 39 203c0 163 -20 283 -20 301c0 39 31 70 70 70c116 0 208 7 215 7c39 0 70 -31 70 -70c0 -7 -2 -89 -2 -151c137 -26 230 -128 230 -264c0 -133 -105 -234 -243 -234c-22 0 -42 2 -61 5c-34 5 -60 33 -60 68
c-2 93 -6 294 -6 407v95c-21 -1 -43 -2 -65 -2c7 -79 12 -164 12 -232c0 -213 -26 -316 -152 -340c-5 -1 -10 -2 -15 -2zM381 343c1 -77 3 -153 4 -212c51 7 85 43 85 93c0 57 -33 100 -89 119z" />
    <glyph glyph-name="uni040A" unicode="&#x40a;" 
d="M367 -17c-23 0 -46 3 -68 9c-30 8 -53 35 -53 67c-1 39 -3 122 -4 207l-82 -2c-3 -74 -6 -150 -10 -213c-2 -37 -33 -66 -70 -66c-39 0 -70 31 -70 70c0 12 14 247 14 422c0 86 -13 152 -13 165c0 39 31 70 70 70c35 0 64 -26 69 -60c8 -52 14 -122 14 -175l-1 -73
c26 0 52 1 77 2v60c0 63 1 120 2 171c1 38 32 68 70 68c39 0 70 -31 70 -70l-2 -129c137 -2 230 -111 230 -266c0 -158 -93 -257 -243 -257zM381 366c1 -78 2 -160 4 -242c58 6 85 42 85 116c0 79 -34 124 -89 126z" />
    <glyph glyph-name="uni0405" unicode="&#x405;" 
d="M293 -17c-106 0 -183 25 -252 82c-16 13 -26 32 -26 54c0 39 31 70 70 70c17 0 33 -6 45 -16c44 -37 87 -50 163 -50c93 0 156 49 156 112c0 36 -31 56 -160 62c-149 7 -230 59 -230 176c0 139 110 233 272 233c71 0 134 -11 191 -35c26 -10 45 -35 45 -65
c0 -39 -31 -70 -70 -70c-35 0 -51 30 -166 30c-86 0 -132 -35 -132 -93c0 -22 9 -32 96 -36c189 -9 294 -67 294 -202c0 -144 -127 -252 -296 -252z" />
    <glyph glyph-name="uni0404" unicode="&#x404;" 
d="M297 -22c-170 0 -271 111 -271 297c0 248 139 423 338 423c25 0 52 -4 79 -12c2 38 32 67 70 67c39 0 70 -31 70 -70l-7 -217c-1 -38 -32 -68 -70 -68c-39 0 -70 31 -70 70l2 72c-28 12 -51 18 -74 18c-81 0 -145 -53 -176 -143c63 5 125 7 168 7c39 0 70 -31 70 -70
s-31 -70 -70 -70c-55 0 -126 -4 -190 -9c1 -109 42 -155 131 -155c60 0 117 27 187 91c12 11 29 18 47 18c39 0 70 -31 70 -70c0 -21 -9 -39 -23 -52c-94 -85 -185 -127 -281 -127z" />
    <glyph glyph-name="uni042D" unicode="&#x42d;" 
d="M242 -13c-59 0 -125 17 -177 46c-23 12 -38 35 -38 62c0 39 31 70 70 70c13 0 25 -3 35 -9c34 -19 72 -29 110 -29c102 0 180 69 198 170c-142 -5 -209 -17 -219 -17c-39 0 -70 31 -70 70c0 36 27 66 62 70c67 8 140 14 222 17c-21 91 -72 143 -141 143
c-38 0 -75 -12 -118 -37l-4 -52c-2 -37 -33 -66 -70 -66c-39 0 -70 31 -70 70l12 173c2 37 33 66 70 66c27 0 50 -15 62 -36c39 14 79 22 118 22c174 0 290 -152 290 -377c0 -203 -147 -356 -342 -356z" />
    <glyph glyph-name="uni0406" unicode="&#x406;" 
d="M147 -26c-39 0 -70 31 -70 70c0 36 27 66 62 70c31 4 67 7 106 10c-9 88 -14 179 -14 259c0 60 2 128 5 193c-29 1 -57 2 -83 2c-38 1 -69 32 -69 70c0 39 31 70 70 70c124 -2 237 -6 319 -11c37 -2 66 -33 66 -70c0 -39 -31 -70 -70 -70l-93 5c-3 -66 -5 -131 -5 -189
c0 -78 5 -166 14 -251c31 1 61 2 90 2c39 0 70 -31 70 -70c0 -38 -31 -70 -69 -70c-78 -1 -270 -11 -329 -20z" />
    <glyph glyph-name="uni0407" unicode="&#x407;" 
d="M147 -26c-39 0 -70 31 -70 70c0 36 27 66 62 70c31 4 67 7 106 10c-9 88 -14 179 -14 259c0 60 2 128 5 193c-29 1 -57 2 -83 2c-38 1 -69 32 -69 70c0 39 31 70 70 70c124 -2 237 -6 319 -11c37 -2 66 -33 66 -70c0 -39 -31 -70 -70 -70l-93 5c-3 -66 -5 -131 -5 -189
c0 -78 5 -166 14 -251c31 1 61 2 90 2c39 0 70 -31 70 -70c0 -38 -31 -70 -69 -70c-78 -1 -270 -11 -329 -20zM139 869c0 10 2 27 4 38c7 33 35 57 69 57c39 0 70 -31 70 -70c0 -9 -1 -19 -1 -30c0 -13 4 -33 4 -43c0 -39 -31 -70 -70 -70c-34 0 -63 25 -69 57
c-5 24 -7 44 -7 61zM338 832c0 9 2 16 2 32s-1 33 -1 42c0 39 31 70 70 70c38 0 68 -30 70 -67c1 -11 1 -29 1 -45c0 -13 -1 -30 -3 -42c-4 -34 -34 -60 -69 -60c-39 0 -70 31 -70 70z" />
    <glyph glyph-name="uni0408" unicode="&#x408;" 
d="M346 -64c-150 0 -308 132 -308 264c0 40 13 79 39 107c12 13 31 22 51 22c39 0 70 -31 70 -70c0 -16 -6 -31 -14 -42c-5 -6 -6 -10 -6 -17c0 -51 95 -123 160 -123c14 0 27 65 27 127c0 83 -8 205 -23 360c-55 -3 -110 -7 -150 -10c-39 0 -70 31 -70 70c0 37 28 67 64 70
c97 9 275 17 348 17c39 0 70 -31 70 -70c0 -38 -31 -69 -69 -70l-52 -1c14 -155 22 -279 22 -366c0 -153 -49 -268 -159 -268z" />
    <glyph glyph-name="uni040B" unicode="&#x40b;" 
d="M502 -7c-39 0 -70 31 -70 70c0 7 9 71 9 153c0 68 -21 92 -70 92c-31 0 -65 -10 -93 -26c1 -129 8 -223 8 -232c0 -39 -31 -70 -70 -70c-37 0 -68 29 -70 66c-5 79 -8 175 -8 269c0 89 4 182 11 253c-25 0 -49 0 -73 1c-38 1 -68 32 -68 70c0 39 31 70 70 70
c10 0 60 -1 92 -1c156 0 288 12 301 12c39 0 70 -31 70 -70c0 -37 -29 -67 -65 -70c-58 -5 -122 -8 -186 -10c-4 -38 -8 -85 -10 -136c30 9 61 14 91 14c131 0 210 -89 210 -232c0 -54 -3 -108 -9 -160c-4 -36 -34 -63 -70 -63z" />
    <glyph glyph-name="uni042E" unicode="&#x42e;" 
d="M393 -17c-115 0 -169 104 -179 276h-2c-12 0 -23 0 -34 -1c-3 -86 -11 -158 -23 -214c-7 -33 -35 -57 -69 -57c-39 0 -70 31 -70 70c0 13 25 96 25 326c0 151 -10 254 -10 269c0 39 31 70 70 70c37 0 67 -29 70 -65c7 -82 10 -174 10 -259c10 1 21 1 31 1h2
c10 195 66 315 193 315c134 0 188 -140 188 -350c0 -238 -56 -381 -202 -381zM352 326c0 -141 26 -203 41 -203c34 0 62 67 62 241c0 138 -26 210 -48 210c-26 0 -55 -79 -55 -248z" />
    <glyph glyph-name="uni042F" unicode="&#x42f;" 
d="M103 -33c-39 0 -70 31 -70 70c0 16 5 30 14 42c47 65 106 134 166 195c-98 44 -151 114 -151 207c0 157 166 231 408 231h29c38 -1 68 -32 68 -70c0 -13 -6 -186 -6 -323c0 -125 5 -254 5 -268c0 -39 -31 -70 -70 -70c-38 0 -68 30 -70 67c-2 59 -3 120 -4 178
c-18 1 -36 3 -53 6c-73 -68 -151 -155 -209 -236c-13 -17 -33 -29 -57 -29zM202 481c0 -57 71 -99 219 -115c0 71 2 141 3 205c-142 -6 -222 -42 -222 -90z" />
    <glyph glyph-name="uni0402" unicode="&#x402;" 
d="M408 -15c-18 0 -42 3 -57 7c-31 8 -53 35 -53 68c0 39 31 70 70 70c7 0 14 -1 21 -3s13 -2 19 -2c35 0 56 27 56 81c0 74 -28 104 -94 104c-33 0 -69 -12 -99 -32c1 -141 6 -211 6 -225c0 -39 -31 -70 -70 -70c-38 0 -68 30 -70 67c-4 74 -6 169 -6 269
c0 87 4 175 10 242c-24 0 -46 0 -68 1c-38 1 -68 32 -68 70c0 39 31 70 70 70c9 0 58 -1 89 -1c161 0 278 12 291 12c39 0 70 -31 70 -70c0 -37 -28 -67 -65 -70c-56 -5 -117 -8 -179 -10c-3 -36 -6 -81 -8 -130c32 11 65 17 97 17c145 0 234 -93 234 -244
c0 -129 -79 -221 -196 -221z" />
    <glyph glyph-name="uni0462" unicode="&#x462;" 
d="M175 -17c-38 0 -69 30 -70 68c0 12 -1 25 -1 41c0 91 11 269 14 403h-39c-39 0 -70 31 -70 70s31 70 70 70h38v16c0 39 31 70 70 70c38 0 68 -30 70 -67l1 -17c134 4 232 10 240 10c39 0 70 -31 70 -70c0 -37 -29 -68 -66 -70c-77 -5 -164 -8 -244 -10l-2 -45h1
c188 0 342 -85 342 -224c0 -175 -203 -240 -424 -245zM245 127c138 14 214 53 214 101c0 43 -88 84 -202 84h-6c-3 -81 -6 -155 -6 -185z" />
    <glyph glyph-name="uni0472" unicode="&#x472;" 
d="M402 256c-87 0 -141 54 -187 54c-18 0 -34 -4 -51 -12c-1 -14 -1 -28 -1 -42c0 -85 40 -126 125 -126c59 0 109 47 138 127c-8 -1 -16 -1 -24 -1zM23 256c0 255 123 455 292 455c170 0 280 -106 280 -272c0 -263 -124 -449 -307 -449c-162 0 -265 103 -265 266zM197 449
c6 1 12 1 18 1c85 0 139 -54 187 -54c23 0 38 3 52 9c1 11 1 23 1 34c0 87 -47 132 -140 132c-46 0 -89 -48 -118 -122z" />
    <glyph glyph-name="uni0474" unicode="&#x474;" 
d="M294 -23c-27 0 -51 16 -63 39c-80 152 -182 427 -228 616c-2 8 -2 15 -2 18c0 39 31 70 70 70c33 0 61 -23 68 -55c30 -119 82 -276 137 -409c32 118 64 223 86 288c33 102 78 162 155 162c33 0 68 -13 95 -35c16 -13 27 -33 27 -55c0 -39 -31 -70 -70 -70
c-17 0 -26 4 -38 11c-3 2 -5 3 -7 3c-8 0 -19 -27 -30 -60c-31 -96 -86 -281 -132 -468c-7 -32 -35 -55 -68 -55z" />
    <glyph glyph-name="uni0496" unicode="&#x496;" 
d="M562 -211c-39 0 -70 31 -70 70c0 6 6 42 14 137c-25 6 -44 25 -51 50c-17 61 -44 130 -74 191c-2 -68 -5 -135 -8 -193c-2 -37 -33 -66 -70 -66c-39 0 -70 31 -70 70c0 6 5 89 9 223c-44 -69 -87 -154 -113 -229c-10 -28 -36 -48 -67 -48c-39 0 -70 31 -70 70
c0 9 2 17 5 25c29 84 79 183 129 262c-51 78 -95 173 -125 273c-3 7 -4 14 -4 22c0 39 31 70 70 70c32 0 59 -22 67 -51c29 -92 65 -172 111 -241c1 65 2 136 2 213c0 39 31 70 70 70s70 -31 70 -70c0 -58 -1 -130 -2 -207c43 69 79 148 106 235c8 29 35 51 67 51
c39 0 70 -31 70 -70c0 -8 -1 -15 -4 -22c-32 -106 -79 -207 -135 -291c31 -60 62 -130 84 -196h7c39 0 70 -31 70 -70c-2 -79 -12 -177 -19 -218c-5 -34 -34 -60 -69 -60z" />
    <glyph glyph-name="uni049A" unicode="&#x49a;" 
d="M523 -209c-39 0 -70 31 -70 70c0 10 7 41 14 121c-10 3 -18 9 -24 16c-67 73 -157 185 -220 271l-14 1v-26c0 -70 9 -181 9 -190c0 -39 -31 -70 -70 -70c-37 0 -67 29 -70 65c-5 65 -9 147 -9 195c0 117 10 296 23 413c4 35 34 63 70 63c39 0 70 -31 70 -70
c0 -8 -12 -109 -18 -240l23 -1c92 70 167 157 222 256c12 22 35 37 62 37c39 0 70 -31 70 -70c0 -13 -3 -25 -10 -35c-56 -101 -135 -195 -225 -272c51 -69 114 -147 166 -206h19c39 0 70 -31 70 -70c0 -37 -12 -160 -19 -199c-5 -33 -34 -59 -69 -59z" />
    <glyph glyph-name="uni04A2" unicode="&#x4a2;" 
d="M96 -6c-39 0 -70 31 -70 70c0 30 28 90 28 321c0 126 -11 239 -11 251c0 39 31 70 70 70c37 0 67 -28 70 -65c7 -78 11 -169 11 -253c45 3 98 5 149 5c30 0 59 -1 85 -2l-1 64c0 66 12 152 29 212c8 30 36 52 68 52c39 0 70 -31 70 -70c0 -17 -27 -97 -27 -194
c0 -63 8 -238 13 -337c30 -8 51 -35 51 -67c0 -37 -12 -160 -19 -199c-5 -33 -34 -59 -69 -59c-39 0 -70 31 -70 70c0 10 9 58 14 120c-24 10 -42 34 -43 61c-4 60 -8 136 -11 207c-27 1 -57 2 -90 2c-53 0 -108 -2 -153 -5c-5 -79 -14 -146 -26 -199
c-6 -31 -34 -55 -68 -55z" />
    <glyph glyph-name="uni04AE" unicode="&#x4ae;" 
d="M312 -21c-39 0 -70 31 -70 70c2 48 6 141 9 207c-62 97 -154 235 -231 339c-9 12 -14 26 -14 42c0 39 31 70 70 70c23 0 44 -12 57 -29c60 -83 130 -186 188 -273c54 84 108 179 156 277c11 23 35 40 63 40c39 0 70 -31 70 -70c0 -12 -3 -23 -8 -32
c-54 -110 -129 -245 -211 -364c-3 -72 -6 -150 -9 -210c-1 -37 -32 -67 -70 -67z" />
    <glyph glyph-name="uni04B0" unicode="&#x4b0;" 
d="M312 -21c-39 0 -70 31 -70 70l4 97c-43 -5 -70 -9 -78 -9c-34 0 -60 27 -60 60c0 31 23 56 52 59c23 4 52 7 84 11c-62 96 -150 228 -224 328c-9 12 -14 26 -14 42c0 39 31 70 70 70c23 0 44 -12 57 -29c60 -83 130 -186 188 -273c54 84 108 179 156 277
c11 23 35 40 63 40c39 0 70 -31 70 -70c0 -12 -3 -23 -8 -32c-50 -102 -119 -227 -194 -339c25 1 47 2 63 2c34 0 60 -26 60 -60c0 -32 -26 -59 -58 -60c-31 -1 -60 -2 -86 -4l-5 -113c-1 -37 -32 -67 -70 -67z" />
    <glyph glyph-name="uni04B2" unicode="&#x4b2;" 
d="M531 -219c-39 0 -70 31 -70 70c0 16 7 42 14 130c-11 4 -21 12 -28 22c-41 51 -107 136 -159 208c-53 -70 -112 -144 -167 -209c-13 -15 -32 -25 -54 -25c-39 0 -70 31 -70 70c0 17 6 33 17 46c63 74 133 162 190 240c-64 99 -116 198 -151 289c-4 8 -6 17 -6 27
c0 39 31 70 70 70c30 0 56 -19 66 -46c27 -69 64 -142 109 -217c63 86 135 179 187 244c13 16 33 26 55 26c39 0 70 -31 70 -70c0 -17 -6 -33 -16 -45c-61 -75 -147 -186 -214 -280c45 -63 111 -151 159 -212h16c39 0 70 -31 70 -70c0 -40 -13 -171 -19 -208
c-5 -34 -34 -60 -69 -60z" />
    <glyph glyph-name="uni04B6" unicode="&#x4b6;" 
d="M253 237c-136 0 -220 85 -220 223c0 66 4 130 10 187c4 36 34 63 70 63c39 0 70 -31 70 -70c0 -10 -10 -67 -10 -180c0 -61 22 -83 80 -83c53 0 110 13 155 35c0 87 3 173 8 246c2 37 33 66 70 66c39 0 70 -31 70 -70c0 -7 -8 -115 -8 -260c0 -130 9 -218 17 -273
c33 -5 58 -34 58 -69c0 -37 -12 -160 -19 -199c-5 -33 -34 -59 -69 -59c-39 0 -70 31 -70 70c0 10 9 58 14 120c-21 9 -37 28 -41 50c-12 51 -22 136 -27 229c-51 -16 -106 -26 -158 -26z" />
    <glyph glyph-name="uni04BA" unicode="&#x4ba;" 
d="M496 -9c-39 0 -70 31 -70 70c0 14 9 85 9 173c0 61 -22 84 -81 84c-44 0 -91 -10 -130 -28c1 -127 7 -230 7 -241c0 -39 -31 -70 -70 -70c-38 0 -68 30 -70 67c-5 85 -7 178 -7 265c0 139 8 278 20 347c5 33 34 59 69 59c39 0 70 -31 70 -70c0 -13 -12 -67 -17 -208
c42 12 86 19 128 19c136 0 221 -85 221 -224c0 -60 -3 -122 -9 -180c-4 -35 -34 -63 -70 -63z" />
    <glyph glyph-name="uni04C0" unicode="&#x4c0;" 
d="M147 -26c-39 0 -70 31 -70 70c0 36 27 66 62 70c31 4 67 7 106 10c-9 88 -14 179 -14 259c0 60 2 128 5 193c-29 1 -57 2 -83 2c-38 1 -69 32 -69 70c0 39 31 70 70 70c124 -2 237 -6 319 -11c37 -2 66 -33 66 -70c0 -39 -31 -70 -70 -70l-93 5c-3 -66 -5 -131 -5 -189
c0 -78 5 -166 14 -251c31 1 61 2 90 2c39 0 70 -31 70 -70c0 -38 -31 -70 -69 -70c-78 -1 -270 -11 -329 -20z" />
    <glyph glyph-name="uni04D8" unicode="&#x4d8;" 
d="M280 -13c-156 0 -262 110 -262 270c0 86 46 139 132 158c71 16 188 36 300 51c-19 69 -64 110 -146 110c-62 0 -110 -23 -169 -82c-13 -13 -31 -21 -50 -21c-39 0 -70 31 -70 70c0 19 8 37 21 50c84 84 169 123 268 123c182 0 297 -130 297 -334
c0 -245 -121 -395 -321 -395zM158 257c0 -84 44 -130 122 -130c103 0 165 67 178 199c-105 -14 -213 -33 -278 -47c-20 -5 -22 -8 -22 -22z" />
    <glyph glyph-name="uni04E2" unicode="&#x4e2;" 
d="M103 723c38 0 68 -30 70 -67c3 -67 7 -206 8 -340c90 141 190 280 271 374c13 15 32 24 53 24c37 0 68 -29 70 -66c6 -91 9 -206 9 -320s-3 -217 -9 -287c-3 -36 -33 -65 -70 -65c-39 0 -70 31 -70 70c0 11 9 94 9 282c0 42 0 83 -1 124c-96 -132 -199 -293 -272 -429
c-11 -22 -35 -38 -62 -38c-39 0 -70 31 -70 70c1 34 2 95 2 168c0 240 -8 424 -8 430c0 39 31 70 70 70zM42 831c0 36 27 65 61 69c110 16 294 23 384 23c39 0 70 -31 70 -70s-31 -70 -70 -70c-219 0 -365 -22 -375 -22c-39 0 -70 31 -70 70z" />
    <glyph glyph-name="uni04E8" unicode="&#x4e8;" 
d="M286 -10c-162 0 -265 103 -265 266c0 255 123 455 292 455c170 0 280 -106 280 -272c0 -263 -124 -449 -307 -449zM161 256c0 -85 40 -126 125 -126c59 0 110 48 139 130c-88 12 -183 23 -263 29c-1 -11 -1 -22 -1 -33zM187 428c83 -7 178 -19 265 -31c1 14 1 28 1 42
c0 87 -47 132 -140 132c-50 0 -98 -58 -126 -143z" />
    <glyph glyph-name="uni04EE" unicode="&#x4ee;" 
d="M152 -41c-39 0 -70 31 -70 70c0 20 8 37 21 50c43 42 87 96 131 158c-61 108 -146 251 -216 361c-8 11 -12 25 -12 39c0 39 31 70 70 70c25 0 47 -13 59 -33c60 -92 128 -207 185 -306c59 98 113 204 154 308c10 27 36 46 66 46c39 0 70 -31 70 -70c0 -10 -2 -19 -6 -27
c-97 -245 -260 -506 -403 -646c-13 -12 -30 -20 -49 -20zM52 831c0 36 27 65 61 69c110 16 294 23 384 23c39 0 70 -31 70 -70s-31 -70 -70 -70c-219 0 -365 -22 -375 -22c-39 0 -70 31 -70 70z" />
    <glyph glyph-name="uni0430" unicode="&#x430;" 
d="M502 -49c-37 0 -68 29 -70 66l-1 17c-51 -37 -113 -58 -172 -58c-129 0 -215 66 -215 175c0 123 105 193 263 193c30 0 63 -4 94 -12c-11 89 -32 112 -84 112c-38 0 -78 -11 -122 -34c-10 -6 -22 -9 -34 -9c-39 0 -70 31 -70 70c0 27 16 51 39 63c61 32 128 50 187 50
c132 0 203 -82 222 -236c8 -64 28 -235 33 -327c0 -39 -31 -70 -70 -70zM184 156c0 -32 20 -50 75 -50c58 0 118 23 160 61l-4 44c-34 8 -71 13 -108 13c-87 0 -123 -25 -123 -68z" />
    <glyph glyph-name="uni0431" unicode="&#x431;" 
d="M307 -23c-147 0 -259 127 -259 288c0 81 19 186 49 266c44 120 125 181 261 199c49 7 67 19 78 47c10 28 36 47 66 47c39 0 70 -31 70 -70c0 -9 -2 -18 -5 -26c-30 -79 -92 -123 -189 -136c-85 -12 -132 -34 -161 -90c35 19 70 29 100 29c142 0 252 -112 252 -255
c0 -158 -123 -299 -262 -299zM188 265c0 -85 52 -148 119 -148c59 0 122 78 122 159c0 71 -48 125 -112 125c-46 0 -92 -19 -122 -46c-4 -32 -7 -63 -7 -90z" />
    <glyph glyph-name="uni0432" unicode="&#x432;" 
d="M141 -21c-39 0 -70 31 -70 70c0 27 -10 446 -10 457c0 37 29 67 65 70c39 3 77 5 112 5c188 0 317 -52 317 -179c0 -46 -18 -82 -68 -105c76 -25 107 -68 107 -126c0 -142 -188 -192 -453 -192zM202 440c1 -23 2 -52 2 -82c21 -1 41 -2 60 -4c90 4 151 33 151 48
c0 16 -63 39 -177 39c-11 0 -23 -1 -36 -1zM208 227c1 -37 2 -72 2 -106c143 7 244 36 244 50c0 22 -108 47 -246 56z" />
    <glyph glyph-name="uni0433" unicode="&#x433;" 
d="M142 -15c-39 0 -70 31 -70 70c0 121 4 306 11 426c2 33 26 60 58 65c89 17 181 26 269 26c42 0 83 -2 123 -6c36 -3 64 -33 64 -70c0 -39 -31 -70 -70 -70c-10 0 -55 6 -117 6c-63 0 -126 -5 -190 -15c-5 -113 -8 -260 -8 -362c0 -39 -31 -70 -70 -70z" />
    <glyph glyph-name="uni0453" unicode="&#x453;" 
d="M142 -15c-39 0 -70 31 -70 70c0 121 4 306 11 426c2 33 26 60 58 65c89 17 181 26 269 26c42 0 83 -2 123 -6c36 -3 64 -33 64 -70c0 -39 -31 -70 -70 -70c-10 0 -55 6 -117 6c-63 0 -126 -5 -190 -15c-5 -113 -8 -260 -8 -362c0 -39 -31 -70 -70 -70zM139 675
c0 23 11 44 29 57l201 150c11 9 26 14 42 14c39 0 70 -31 70 -70c0 -23 -11 -44 -29 -57l-201 -150c-11 -9 -26 -14 -42 -14c-39 0 -70 31 -70 70z" />
    <glyph glyph-name="uni0491" unicode="&#x491;" 
d="M142 -20c-39 0 -70 31 -70 70c0 121 4 306 11 426c2 33 26 60 58 65c89 17 181 26 269 26c16 0 33 -1 49 -1c0 21 -1 58 -1 65c0 39 31 70 70 70c38 0 69 -30 70 -68c1 -21 1 -46 1 -72c0 -30 -1 -55 -2 -75c-3 -36 -33 -65 -70 -65c-16 0 -55 6 -117 6
c-63 0 -126 -5 -190 -15c-5 -113 -8 -260 -8 -362c0 -39 -31 -70 -70 -70z" />
    <glyph glyph-name="uni0493" unicode="&#x493;" 
d="M160 -15c-39 0 -70 31 -70 70l1 108c-13 -2 -22 -3 -26 -3c-34 0 -60 27 -60 60c0 31 23 56 52 59l36 5c2 71 5 141 8 197c2 33 26 60 58 65c89 17 181 26 269 26c42 0 83 -2 123 -6c36 -3 64 -33 64 -70c0 -39 -31 -70 -70 -70c-10 0 -55 6 -117 6
c-63 0 -126 -5 -190 -15c-2 -37 -3 -77 -4 -118c53 4 103 7 134 7c34 0 60 -26 60 -60c0 -32 -26 -59 -58 -60c-53 -2 -99 -5 -139 -8l-1 -123c0 -39 -31 -70 -70 -70z" />
    </font>
</defs>
</svg>
