<?xml version="1.0" standalone="no"?>
<!DOCTYPE svg PUBLIC "-//W3C//DTD SVG 1.1//EN" "http://www.w3.org/Graphics/SVG/1.1/DTD/svg11.dtd" >
<svg xmlns="http://www.w3.org/2000/svg" xmlns:xlink="http://www.w3.org/1999/xlink" version="1.1">
<metadata>
Created by FontForge 20201107 at Mon May  2 01:01:47 2022
 By Unknown
Copyright \(c\) 2019 by Toshi Omagari. All rights reserved.
</metadata>
<defs>
<font id="ComicCode-UltraLight" horiz-adv-x="620" >
  <font-face 
    font-family="Comic Code UltraLight"
    font-weight="200"
    font-stretch="normal"
    units-per-em="1000"
    panose-1="0 0 0 0 0 0 0 0 0 0"
    ascent="800"
    descent="-200"
    x-height="542"
    cap-height="708"
    bbox="-1146 -454 781 1069"
    underline-thickness="50"
    underline-position="-125"
    stemh="40"
    stemv="40"
    unicode-range="U+000D-FB02"
  />
<missing-glyph 
d="M375 -142c-103 0 -216 3 -308 9c-10 0 -17 8 -17 18c2 237 10 597 18 798c0 7 4 13 11 16l-27 -1c-10 0 -18 8 -18 18s7 18 18 18c87 3 220 5 338 5c54 0 106 0 148 -1c11 0 18 -8 18 -18c0 -286 -6 -667 -20 -843c0 -9 -7 -16 -17 -16c-42 -2 -91 -3 -144 -3zM87 -98
c87 -5 192 -8 288 -8c45 0 88 1 126 3c13 175 19 530 19 805c-37 1 -82 1 -130 1c-103 0 -217 -2 -297 -4c7 -2 11 -8 11 -17c-7 -178 -15 -550 -17 -780zM189 523c0 5 3 11 8 14c30 24 74 40 110 40c69 0 119 -55 119 -128c0 -64 -49 -123 -128 -160
c-21 -10 -29 -17 -29 -29c0 -27 10 -43 10 -49c0 -11 -8 -18 -18 -18c-8 0 -15 5 -17 13c-8 21 -12 39 -12 57c0 26 14 42 46 56c70 32 111 80 111 130c0 53 -35 92 -82 92c-28 0 -63 -13 -88 -33c-3 -2 -7 -4 -11 -4c-11 0 -19 8 -19 19zM234 44c0 29 25 49 59 49
c29 0 53 -22 53 -51c0 -30 -30 -56 -57 -56c-8 0 -15 5 -17 11c-22 6 -38 23 -38 47z" />
    <glyph glyph-name=".notdef" 
d="M375 -142c-103 0 -216 3 -308 9c-10 0 -17 8 -17 18c2 237 10 597 18 798c0 7 4 13 11 16l-27 -1c-10 0 -18 8 -18 18s7 18 18 18c87 3 220 5 338 5c54 0 106 0 148 -1c11 0 18 -8 18 -18c0 -286 -6 -667 -20 -843c0 -9 -7 -16 -17 -16c-42 -2 -91 -3 -144 -3zM87 -98
c87 -5 192 -8 288 -8c45 0 88 1 126 3c13 175 19 530 19 805c-37 1 -82 1 -130 1c-103 0 -217 -2 -297 -4c7 -2 11 -8 11 -17c-7 -178 -15 -550 -17 -780zM189 523c0 5 3 11 8 14c30 24 74 40 110 40c69 0 119 -55 119 -128c0 -64 -49 -123 -128 -160
c-21 -10 -29 -17 -29 -29c0 -27 10 -43 10 -49c0 -11 -8 -18 -18 -18c-8 0 -15 5 -17 13c-8 21 -12 39 -12 57c0 26 14 42 46 56c70 32 111 80 111 130c0 53 -35 92 -82 92c-28 0 -63 -13 -88 -33c-3 -2 -7 -4 -11 -4c-11 0 -19 8 -19 19zM234 44c0 29 25 49 59 49
c29 0 53 -22 53 -51c0 -30 -30 -56 -57 -56c-8 0 -15 5 -17 11c-22 6 -38 23 -38 47z" />
    <glyph glyph-name="CR" unicode="&#xd;" 
 />
    <glyph glyph-name="space" unicode=" " 
 />
    <glyph glyph-name="A" unicode="A" 
d="M547 -14c-10 0 -18 8 -20 17c-14 69 -29 141 -46 215c-86 -3 -219 -12 -333 -23c-25 -60 -45 -118 -59 -167c-2 -8 -10 -14 -20 -14c-11 0 -20 8 -20 20c0 2 1 5 2 8c13 44 31 95 52 149l-36 -4c-11 0 -20 9 -20 20c0 10 8 19 18 20l55 6c69 166 165 352 239 472
c3 5 10 9 17 9c10 0 17 -6 20 -14c69 -232 129 -479 170 -685c1 -5 1 -7 1 -9c0 -11 -9 -20 -20 -20zM165 237c105 10 211 18 307 21c-30 127 -64 258 -102 387c-66 -112 -145 -266 -205 -408z" />
    <glyph glyph-name="Aacute" unicode="&#xc1;" 
d="M547 -14c-10 0 -18 8 -20 17c-14 69 -29 141 -46 215c-86 -3 -219 -12 -333 -23c-25 -60 -45 -118 -59 -167c-2 -8 -10 -14 -20 -14c-11 0 -20 8 -20 20c0 2 1 5 2 8c13 44 31 95 52 149l-36 -4c-11 0 -20 9 -20 20c0 10 8 19 18 20l55 6c69 166 165 352 239 472
c3 5 10 9 17 9c10 0 17 -6 20 -14c69 -232 129 -479 170 -685c1 -5 1 -7 1 -9c0 -11 -9 -20 -20 -20zM165 237c105 10 211 18 307 21c-30 127 -64 258 -102 387c-66 -112 -145 -266 -205 -408zM259 798c0 7 3 13 8 16l202 151c3 3 7 4 12 4c11 0 20 -9 20 -20
c0 -6 -3 -12 -8 -16l-202 -151c-3 -2 -7 -4 -12 -4c-11 0 -20 9 -20 20z" />
    <glyph glyph-name="Abreve" unicode="&#x102;" 
d="M547 -14c-10 0 -18 8 -20 17c-14 69 -29 141 -46 215c-86 -3 -219 -12 -333 -23c-25 -60 -45 -118 -59 -167c-2 -8 -10 -14 -20 -14c-11 0 -20 8 -20 20c0 2 1 5 2 8c13 44 31 95 52 149l-36 -4c-11 0 -20 9 -20 20c0 10 8 19 18 20l55 6c69 166 165 352 239 472
c3 5 10 9 17 9c10 0 17 -6 20 -14c69 -232 129 -479 170 -685c1 -5 1 -7 1 -9c0 -11 -9 -20 -20 -20zM165 237c105 10 211 18 307 21c-30 127 -64 258 -102 387c-66 -112 -145 -266 -205 -408zM186 939c0 11 9 20 20 20c9 0 17 -6 19 -15c17 -59 84 -102 162 -102
c76 0 134 41 147 103c2 9 10 16 20 16c11 0 20 -9 20 -20c0 -1 0 -3 -1 -4c-17 -81 -91 -135 -186 -135c-96 0 -178 54 -200 131c-1 2 -1 4 -1 6z" />
    <glyph glyph-name="Acircumflex" unicode="&#xc2;" 
d="M547 -14c-10 0 -18 8 -20 17c-14 69 -29 141 -46 215c-86 -3 -219 -12 -333 -23c-25 -60 -45 -118 -59 -167c-2 -8 -10 -14 -20 -14c-11 0 -20 8 -20 20c0 2 1 5 2 8c13 44 31 95 52 149l-36 -4c-11 0 -20 9 -20 20c0 10 8 19 18 20l55 6c69 166 165 352 239 472
c3 5 10 9 17 9c10 0 17 -6 20 -14c69 -232 129 -479 170 -685c1 -5 1 -7 1 -9c0 -11 -9 -20 -20 -20zM165 237c105 10 211 18 307 21c-30 127 -64 258 -102 387c-66 -112 -145 -266 -205 -408zM178 815c0 7 3 13 8 16c65 49 129 92 193 132c3 2 7 3 11 3s8 -1 11 -3
c71 -46 128 -90 175 -133c4 -4 6 -9 6 -15c0 -11 -9 -20 -20 -20c-5 0 -10 2 -14 6c-42 39 -94 79 -158 122c-64 -40 -123 -81 -180 -124c-3 -2 -7 -4 -12 -4c-11 0 -20 9 -20 20z" />
    <glyph glyph-name="Adieresis" unicode="&#xc4;" 
d="M547 -14c-10 0 -18 8 -20 17c-14 69 -29 141 -46 215c-86 -3 -219 -12 -333 -23c-25 -60 -45 -118 -59 -167c-2 -8 -10 -14 -20 -14c-11 0 -20 8 -20 20c0 2 1 5 2 8c13 44 31 95 52 149l-36 -4c-11 0 -20 9 -20 20c0 10 8 19 18 20l55 6c69 166 165 352 239 472
c3 5 10 9 17 9c10 0 17 -6 20 -14c69 -232 129 -479 170 -685c1 -5 1 -7 1 -9c0 -11 -9 -20 -20 -20zM165 237c105 10 211 18 307 21c-30 127 -64 258 -102 387c-66 -112 -145 -266 -205 -408zM259 869c0 10 1 19 3 29s10 16 20 16c12 0 20 -8 20 -20c0 -4 -3 -15 -3 -25
c0 -20 6 -42 6 -48c0 -11 -8 -20 -20 -20c-10 0 -18 8 -20 17c-4 20 -6 37 -6 51zM458 832c0 6 2 11 2 32c0 28 -1 38 -1 42c0 12 9 20 20 20s20 -8 20 -19c1 -10 1 -27 1 -43c0 -14 0 -27 -2 -35c-2 -10 -10 -17 -20 -17c-11 0 -20 9 -20 20z" />
    <glyph glyph-name="Agrave" unicode="&#xc0;" 
d="M547 -14c-10 0 -18 8 -20 17c-14 69 -29 141 -46 215c-86 -3 -219 -12 -333 -23c-25 -60 -45 -118 -59 -167c-2 -8 -10 -14 -20 -14c-11 0 -20 8 -20 20c0 2 1 5 2 8c13 44 31 95 52 149l-36 -4c-11 0 -20 9 -20 20c0 10 8 19 18 20l55 6c69 166 165 352 239 472
c3 5 10 9 17 9c10 0 17 -6 20 -14c69 -232 129 -479 170 -685c1 -5 1 -7 1 -9c0 -11 -9 -20 -20 -20zM165 237c105 10 211 18 307 21c-30 127 -64 258 -102 387c-66 -112 -145 -266 -205 -408zM259 946c0 11 9 20 20 20c5 0 9 -1 12 -4l202 -151c5 -3 8 -9 8 -16
c0 -11 -9 -20 -20 -20c-5 0 -9 2 -12 4l-202 151c-5 4 -8 10 -8 16z" />
    <glyph glyph-name="Amacron" unicode="&#x100;" 
d="M547 -14c-10 0 -18 8 -20 17c-14 69 -29 141 -46 215c-86 -3 -219 -12 -333 -23c-25 -60 -45 -118 -59 -167c-2 -8 -10 -14 -20 -14c-11 0 -20 8 -20 20c0 2 1 5 2 8c13 44 31 95 52 149l-36 -4c-11 0 -20 9 -20 20c0 10 8 19 18 20l55 6c69 166 165 352 239 472
c3 5 10 9 17 9c10 0 17 -6 20 -14c69 -232 129 -479 170 -685c1 -5 1 -7 1 -9c0 -11 -9 -20 -20 -20zM165 237c105 10 211 18 307 21c-30 127 -64 258 -102 387c-66 -112 -145 -266 -205 -408zM172 831c0 11 8 19 18 20c106 15 288 22 377 22c12 0 20 -8 20 -20
c0 -11 -8 -20 -20 -20c-216 0 -370 -22 -375 -22c-11 0 -20 9 -20 20z" />
    <glyph glyph-name="Aogonek" unicode="&#x104;" 
d="M67 187c-11 0 -20 9 -20 20c0 10 8 19 18 20l55 6c69 166 165 352 239 472c3 5 10 9 17 9c10 0 17 -6 20 -14c69 -232 129 -479 170 -685c1 -5 1 -7 1 -9c0 -5 -2 -9 -4 -12s-4 -4 -6 -6c-66 -34 -114 -84 -114 -118c0 -29 26 -50 59 -50c32 0 70 15 97 38c3 3 8 5 13 5
c12 0 20 -9 20 -20c0 -6 -2 -12 -7 -16c-33 -28 -82 -47 -123 -47c-55 0 -99 37 -99 87c0 47 47 102 122 144c-13 66 -28 136 -44 207c-86 -3 -219 -12 -333 -23c-25 -60 -45 -118 -59 -167c-2 -8 -10 -14 -20 -14c-11 0 -20 8 -20 20c0 2 1 5 2 8c13 44 31 95 52 149
c-12 -1 -24 -3 -36 -4zM165 237c105 10 211 18 307 21c-30 127 -64 258 -102 387c-66 -112 -145 -266 -205 -408z" />
    <glyph glyph-name="Aring" unicode="&#xc5;" 
d="M547 -14c-10 0 -18 8 -20 17c-14 69 -29 141 -46 215c-86 -3 -219 -12 -333 -23c-25 -60 -45 -118 -59 -167c-2 -8 -10 -14 -20 -14c-11 0 -20 8 -20 20c0 2 1 5 2 8c13 44 31 95 52 149l-36 -4c-11 0 -20 9 -20 20c0 10 8 19 18 20l55 6c69 166 165 352 239 472
c3 5 10 9 17 9c10 0 17 -6 20 -14c69 -232 129 -479 170 -685c1 -5 1 -7 1 -9c0 -11 -9 -20 -20 -20zM165 237c105 10 211 18 307 21c-30 127 -64 258 -102 387c-66 -112 -145 -266 -205 -408zM252 910c0 71 59 133 127 133c63 0 128 -61 128 -123c0 -68 -57 -129 -122 -129
c-79 0 -133 47 -133 119zM285 910c0 -53 38 -86 100 -86c47 0 89 46 89 96c0 43 -50 90 -95 90c-48 0 -94 -47 -94 -100z" />
    <glyph glyph-name="Aringacute" unicode="&#x1fa;" 
d="M547 -14c-10 0 -18 8 -20 17c-14 69 -29 141 -46 215c-86 -3 -219 -12 -333 -23c-25 -60 -45 -118 -59 -167c-2 -8 -10 -14 -20 -14c-11 0 -20 8 -20 20c0 2 1 5 2 8c13 44 31 95 52 149l-36 -4c-11 0 -20 9 -20 20c0 10 8 19 18 20l55 6c66 158 156 335 228 455
c-58 12 -96 55 -96 115c0 72 59 133 127 133c20 0 41 -6 59 -17l171 128c3 3 7 4 12 4c11 0 20 -9 20 -20c0 -6 -3 -12 -8 -16l-162 -122c22 -22 36 -51 36 -80c0 -63 -48 -119 -107 -128c68 -228 126 -468 166 -670c1 -5 1 -7 1 -9c0 -11 -9 -20 -20 -20zM165 237
c105 10 211 18 307 21c-30 127 -64 258 -102 387c-66 -112 -145 -266 -205 -408zM285 803c0 -53 38 -86 100 -86c47 0 89 46 89 96c0 43 -50 90 -95 90c-48 0 -94 -47 -94 -100z" />
    <glyph glyph-name="Atilde" unicode="&#xc3;" 
d="M547 -14c-10 0 -18 8 -20 17c-14 69 -29 141 -46 215c-86 -3 -219 -12 -333 -23c-25 -60 -45 -118 -59 -167c-2 -8 -10 -14 -20 -14c-11 0 -20 8 -20 20c0 2 1 5 2 8c13 44 31 95 52 149l-36 -4c-11 0 -20 9 -20 20c0 10 8 19 18 20l55 6c69 166 165 352 239 472
c3 5 10 9 17 9c10 0 17 -6 20 -14c69 -232 129 -479 170 -685c1 -5 1 -7 1 -9c0 -11 -9 -20 -20 -20zM147 814v4c15 78 72 133 141 133c52 0 83 -29 113 -60c27 -28 48 -49 85 -49c44 0 79 40 87 102c1 10 10 17 20 17c11 0 20 -9 20 -20v-3c-11 -81 -62 -136 -127 -136
c-52 0 -83 30 -113 61c-27 27 -48 48 -85 48c-49 0 -90 -40 -101 -100c-2 -9 -10 -17 -20 -17c-11 0 -20 9 -20 20zM165 237c105 10 211 18 307 21c-30 127 -64 258 -102 387c-66 -112 -145 -266 -205 -408z" />
    <glyph glyph-name="AE" unicode="&#xc6;" 
d="M25 -11c-11 0 -20 9 -20 20c0 2 0 4 1 5c13 55 33 118 57 185l-15 -2c-11 0 -20 9 -20 20c0 10 8 19 18 20l33 4c62 166 144 347 209 466c3 7 10 11 18 11c11 0 18 -7 18 -18c0 -3 0 -7 -2 -9l-1 -3c0 1 1 1 2 1c42 8 96 13 154 13c33 0 66 -1 96 -4c10 -2 18 -10 18 -20
c0 -12 -8 -20 -20 -20c-3 0 -44 4 -94 4c-55 0 -93 -4 -117 -8c-6 -72 -11 -173 -15 -272c103 2 186 17 191 17c12 0 20 -8 20 -20c0 -10 -7 -18 -16 -20c-59 -10 -132 -16 -197 -17c-3 -88 -5 -171 -5 -227s21 -81 69 -81c43 0 116 14 169 32c3 1 5 1 7 1
c12 0 20 -8 20 -20c0 -8 -5 -16 -14 -19c-58 -19 -135 -34 -182 -34c-71 0 -109 43 -109 121c0 28 1 64 2 103c-84 -4 -150 -10 -193 -14c-26 -72 -48 -140 -62 -198c-2 -10 -10 -17 -20 -17zM122 245c61 6 123 11 179 13c4 129 12 287 20 392c-7 2 -12 7 -13 14
c-59 -114 -130 -271 -186 -419z" />
    <glyph glyph-name="AEacute" unicode="&#x1fc;" 
d="M25 -11c-11 0 -20 9 -20 20c0 2 0 4 1 5c13 55 33 118 57 185l-15 -2c-11 0 -20 9 -20 20c0 10 8 19 18 20l33 4c62 166 144 347 209 466c3 7 10 11 18 11c11 0 18 -7 18 -18c0 -3 0 -7 -2 -9l-1 -3c0 1 1 1 2 1c42 8 96 13 154 13c33 0 66 -1 96 -4c10 -2 18 -10 18 -20
c0 -12 -8 -20 -20 -20c-3 0 -44 4 -94 4c-55 0 -93 -4 -117 -8c-6 -72 -11 -173 -15 -272c103 2 186 17 191 17c12 0 20 -8 20 -20c0 -10 -7 -18 -16 -20c-59 -10 -132 -16 -197 -17c-3 -88 -5 -171 -5 -227s21 -81 69 -81c43 0 116 14 169 32c3 1 5 1 7 1
c12 0 20 -8 20 -20c0 -8 -5 -16 -14 -19c-58 -19 -135 -34 -182 -34c-71 0 -109 43 -109 121c0 28 1 64 2 103c-84 -4 -150 -10 -193 -14c-26 -72 -48 -140 -62 -198c-2 -10 -10 -17 -20 -17zM122 245c61 6 123 11 179 13c4 129 12 287 20 392c-7 2 -12 7 -13 14
c-59 -114 -130 -271 -186 -419zM289 798c0 7 3 13 8 16l202 151c3 3 7 4 12 4c11 0 20 -9 20 -20c0 -6 -3 -12 -8 -16l-202 -151c-3 -2 -7 -4 -12 -4c-11 0 -20 9 -20 20z" />
    <glyph glyph-name="B" unicode="B" 
d="M126 -24c-11 0 -20 8 -20 20c0 40 -10 629 -10 686c0 10 8 18 18 20c42 4 82 7 118 7c188 0 290 -64 290 -189c0 -84 -54 -143 -143 -171c123 -29 194 -83 194 -158c0 -126 -158 -194 -427 -197c-1 -11 -9 -18 -20 -18zM136 664l4 -290c46 -1 89 -3 128 -7
c134 6 214 64 214 153c0 98 -83 149 -250 149c-31 0 -62 -3 -96 -5zM141 334l5 -300c247 3 387 62 387 157c0 83 -150 140 -392 143z" />
    <glyph glyph-name="C" unicode="C" 
d="M289 -14c-149 0 -230 101 -230 281c0 255 121 423 305 423c51 0 95 -14 135 -33l2 60c1 11 10 19 20 19c12 0 20 -8 20 -20l-7 -215c0 -11 -9 -20 -20 -20s-20 9 -20 20l4 111c-48 25 -89 38 -134 38c-160 0 -265 -149 -265 -383c0 -159 65 -241 190 -241
c84 0 164 33 254 105c3 2 8 4 13 4c12 0 20 -8 20 -20c0 -6 -3 -11 -7 -15c-97 -77 -186 -114 -280 -114z" />
    <glyph glyph-name="Cacute" unicode="&#x106;" 
d="M289 -14c-149 0 -230 101 -230 281c0 255 121 423 305 423c51 0 95 -14 135 -33l2 60c1 11 10 19 20 19c12 0 20 -8 20 -20l-7 -215c0 -11 -9 -20 -20 -20s-20 9 -20 20l4 111c-48 25 -89 38 -134 38c-160 0 -265 -149 -265 -383c0 -159 65 -241 190 -241
c84 0 164 33 254 105c3 2 8 4 13 4c12 0 20 -8 20 -20c0 -6 -3 -11 -7 -15c-97 -77 -186 -114 -280 -114zM189 798c0 7 3 13 8 16l202 151c3 3 7 4 12 4c11 0 20 -9 20 -20c0 -6 -3 -12 -8 -16l-202 -151c-3 -2 -7 -4 -12 -4c-11 0 -20 9 -20 20z" />
    <glyph glyph-name="Ccaron" unicode="&#x10c;" 
d="M289 -14c-149 0 -230 101 -230 281c0 255 121 423 305 423c51 0 95 -14 135 -33l2 60c1 11 10 19 20 19c12 0 20 -8 20 -20l-7 -215c0 -11 -9 -20 -20 -20s-20 9 -20 20l4 111c-48 25 -89 38 -134 38c-160 0 -265 -149 -265 -383c0 -159 65 -241 190 -241
c84 0 164 33 254 105c3 2 8 4 13 4c12 0 20 -8 20 -20c0 -6 -3 -11 -7 -15c-97 -77 -186 -114 -280 -114zM108 946c0 11 9 20 20 20c5 0 10 -2 14 -5c42 -40 94 -79 158 -122c64 40 123 80 180 123c3 3 7 4 12 4c11 0 20 -9 20 -20c0 -6 -3 -12 -8 -16
c-65 -48 -129 -92 -193 -132c-3 -2 -7 -3 -11 -3s-8 2 -11 4c-71 46 -128 89 -175 133c-4 3 -6 9 -6 14z" />
    <glyph glyph-name="Ccedilla" unicode="&#xc7;" 
d="M514 481c-11 0 -20 9 -20 20l4 111c-48 25 -89 38 -134 38c-160 0 -265 -149 -265 -383c0 -159 65 -241 190 -241c84 0 164 33 254 105c3 2 8 4 13 4c12 0 20 -8 20 -20c0 -6 -3 -11 -7 -15c-74 -58 -143 -94 -213 -107c36 -23 57 -60 57 -105c0 -71 -72 -122 -165 -122
c-8 0 -15 0 -23 1c-10 1 -18 10 -18 20c0 12 9 20 21 20c2 0 11 -1 20 -1c73 0 125 36 125 82s-30 76 -85 87c-7 1 -13 5 -16 11c-138 8 -213 108 -213 281c0 255 121 423 305 423c51 0 95 -14 135 -33l2 60c1 11 10 19 20 19c12 0 20 -8 20 -20l-7 -215
c0 -11 -9 -20 -20 -20z" />
    <glyph glyph-name="Ccircumflex" unicode="&#x108;" 
d="M289 -14c-149 0 -230 101 -230 281c0 255 121 423 305 423c51 0 95 -14 135 -33l2 60c1 11 10 19 20 19c12 0 20 -8 20 -20l-7 -215c0 -11 -9 -20 -20 -20s-20 9 -20 20l4 111c-48 25 -89 38 -134 38c-160 0 -265 -149 -265 -383c0 -159 65 -241 190 -241
c84 0 164 33 254 105c3 2 8 4 13 4c12 0 20 -8 20 -20c0 -6 -3 -11 -7 -15c-97 -77 -186 -114 -280 -114zM108 815c0 7 3 13 8 16c65 49 129 92 193 132c3 2 7 3 11 3s8 -1 11 -3c71 -46 128 -90 175 -133c4 -4 6 -9 6 -15c0 -11 -9 -20 -20 -20c-5 0 -10 2 -14 6
c-42 39 -94 79 -158 122c-64 -40 -123 -81 -180 -124c-3 -2 -7 -4 -12 -4c-11 0 -20 9 -20 20z" />
    <glyph glyph-name="Cdotaccent" unicode="&#x10a;" 
d="M289 -14c-149 0 -230 101 -230 281c0 255 121 423 305 423c51 0 95 -14 135 -33l2 60c1 11 10 19 20 19c12 0 20 -8 20 -20l-7 -215c0 -11 -9 -20 -20 -20s-20 9 -20 20l4 111c-48 25 -89 38 -134 38c-160 0 -265 -149 -265 -383c0 -159 65 -241 190 -241
c84 0 164 33 254 105c3 2 8 4 13 4c12 0 20 -8 20 -20c0 -6 -3 -11 -7 -15c-97 -77 -186 -114 -280 -114zM268 887c0 39 14 60 44 60c23 0 41 -18 41 -42s-17 -59 -40 -82c-3 -4 -8 -7 -14 -7s-12 3 -15 8c-7 3 -12 9 -13 16c-2 19 -3 34 -3 47z" />
    <glyph glyph-name="D" unicode="D" 
d="M180 -6c-26 0 -58 6 -86 17c-8 2 -15 10 -15 18c7 92 9 156 9 259c0 119 -4 272 -9 372h-3c-12 0 -21 8 -21 21c0 10 8 18 18 20c16 2 63 5 86 5c252 0 397 -125 397 -341c0 -220 -151 -371 -376 -371zM118 664c6 -101 10 -255 10 -376c0 -91 -2 -172 -7 -243
c20 -7 41 -11 59 -11c203 0 336 133 336 331c0 194 -127 301 -357 301c-11 0 -26 -1 -41 -2z" />
    <glyph glyph-name="Eth" unicode="&#xd0;" 
d="M180 -6c-26 0 -58 6 -86 17c-8 2 -15 10 -15 18c7 92 9 156 9 259v39c-44 -5 -70 -9 -75 -9c-10 0 -18 7 -18 18c0 9 7 17 16 18c25 3 50 7 77 10c-2 102 -5 216 -9 296h-3c-12 0 -21 8 -21 21c0 10 8 18 18 20c16 2 63 5 86 5c252 0 397 -125 397 -341
c0 -220 -151 -371 -376 -371zM118 664c5 -80 8 -193 10 -296c59 5 119 9 172 11c10 0 18 -8 18 -19c0 -9 -8 -18 -18 -18c-68 -2 -126 -6 -172 -11v-43c0 -91 -2 -172 -7 -243c20 -7 41 -11 59 -11c203 0 336 133 336 331c0 194 -127 301 -357 301c-11 0 -26 -1 -41 -2z" />
    <glyph glyph-name="Dcaron" unicode="&#x10e;" 
d="M180 -6c-26 0 -58 6 -86 17c-8 2 -15 10 -15 18c7 92 9 156 9 259c0 119 -4 272 -9 372h-3c-12 0 -21 8 -21 21c0 10 8 18 18 20c16 2 63 5 86 5c252 0 397 -125 397 -341c0 -220 -151 -371 -376 -371zM108 946c0 11 9 20 20 20c5 0 10 -2 14 -5c42 -40 94 -79 158 -122
c64 40 123 80 180 123c3 3 7 4 12 4c11 0 20 -9 20 -20c0 -6 -3 -12 -8 -16c-65 -48 -129 -92 -193 -132c-3 -2 -7 -3 -11 -3s-8 2 -11 4c-71 46 -128 89 -175 133c-4 3 -6 9 -6 14zM118 664c6 -101 10 -255 10 -376c0 -91 -2 -172 -7 -243c20 -7 41 -11 59 -11
c203 0 336 133 336 331c0 194 -127 301 -357 301c-11 0 -26 -1 -41 -2z" />
    <glyph glyph-name="Dcroat" unicode="&#x110;" 
d="M180 -6c-26 0 -58 6 -86 17c-8 2 -15 10 -15 18c7 92 9 156 9 259v39c-44 -5 -70 -9 -75 -9c-10 0 -18 7 -18 18c0 9 7 17 16 18c25 3 50 7 77 10c-2 102 -5 216 -9 296h-3c-12 0 -21 8 -21 21c0 10 8 18 18 20c16 2 63 5 86 5c252 0 397 -125 397 -341
c0 -220 -151 -371 -376 -371zM118 664c5 -80 8 -193 10 -296c59 5 119 9 172 11c10 0 18 -8 18 -19c0 -9 -8 -18 -18 -18c-68 -2 -126 -6 -172 -11v-43c0 -91 -2 -172 -7 -243c20 -7 41 -11 59 -11c203 0 336 133 336 331c0 194 -127 301 -357 301c-11 0 -26 -1 -41 -2z" />
    <glyph glyph-name="E" unicode="E" 
d="M537 -3c-107 0 -253 7 -341 16c-80 9 -117 46 -117 120c0 43 7 128 11 210c-8 2 -15 10 -15 19c0 11 8 19 17 20c1 24 2 47 2 68c0 214 -12 217 -12 231c0 11 9 20 20 20c10 0 18 -7 20 -16l1 -3c85 14 181 22 271 22c46 0 90 -2 133 -6c10 -2 18 -10 18 -20
c0 -12 -8 -20 -20 -20c-10 0 -54 6 -131 6c-90 0 -183 -8 -266 -22c5 -41 6 -100 6 -192c0 -20 -1 -43 -2 -68c119 -1 253 3 350 17h3c12 0 20 -8 20 -20c0 -10 -7 -18 -17 -20c-98 -14 -243 -19 -358 -18c-4 -83 -11 -174 -11 -208c0 -53 21 -73 81 -80
c88 -9 232 -16 337 -16c12 0 20 -8 20 -20c0 -11 -8 -20 -20 -20z" />
    <glyph glyph-name="Eacute" unicode="&#xc9;" 
d="M537 -3c-107 0 -253 7 -341 16c-80 9 -117 46 -117 120c0 43 7 128 11 210c-8 2 -15 10 -15 19c0 11 8 19 17 20c1 24 2 47 2 68c0 214 -12 217 -12 231c0 11 9 20 20 20c10 0 18 -7 20 -16l1 -3c85 14 181 22 271 22c46 0 90 -2 133 -6c10 -2 18 -10 18 -20
c0 -12 -8 -20 -20 -20c-10 0 -54 6 -131 6c-90 0 -183 -8 -266 -22c5 -41 6 -100 6 -192c0 -20 -1 -43 -2 -68c119 -1 253 3 350 17h3c12 0 20 -8 20 -20c0 -10 -7 -18 -17 -20c-98 -14 -243 -19 -358 -18c-4 -83 -11 -174 -11 -208c0 -53 21 -73 81 -80
c88 -9 232 -16 337 -16c12 0 20 -8 20 -20c0 -11 -8 -20 -20 -20zM189 798c0 7 3 13 8 16l202 151c3 3 7 4 12 4c11 0 20 -9 20 -20c0 -6 -3 -12 -8 -16l-202 -151c-3 -2 -7 -4 -12 -4c-11 0 -20 9 -20 20z" />
    <glyph glyph-name="Ebreve" unicode="&#x114;" 
d="M537 -3c-107 0 -253 7 -341 16c-80 9 -117 46 -117 120c0 43 7 128 11 210c-8 2 -15 10 -15 19c0 11 8 19 17 20c1 24 2 47 2 68c0 214 -12 217 -12 231c0 11 9 20 20 20c10 0 18 -7 20 -16l1 -3c85 14 181 22 271 22c46 0 90 -2 133 -6c10 -2 18 -10 18 -20
c0 -12 -8 -20 -20 -20c-10 0 -54 6 -131 6c-90 0 -183 -8 -266 -22c5 -41 6 -100 6 -192c0 -20 -1 -43 -2 -68c119 -1 253 3 350 17h3c12 0 20 -8 20 -20c0 -10 -7 -18 -17 -20c-98 -14 -243 -19 -358 -18c-4 -83 -11 -174 -11 -208c0 -53 21 -73 81 -80
c88 -9 232 -16 337 -16c12 0 20 -8 20 -20c0 -11 -8 -20 -20 -20zM116 939c0 11 9 20 20 20c9 0 17 -6 19 -15c17 -59 84 -102 162 -102c76 0 134 41 147 103c2 9 10 16 20 16c11 0 20 -9 20 -20c0 -1 0 -3 -1 -4c-17 -81 -91 -135 -186 -135c-96 0 -178 54 -200 131
c-1 2 -1 4 -1 6z" />
    <glyph glyph-name="Ecaron" unicode="&#x11a;" 
d="M537 -3c-107 0 -253 7 -341 16c-80 9 -117 46 -117 120c0 43 7 128 11 210c-8 2 -15 10 -15 19c0 11 8 19 17 20c1 24 2 47 2 68c0 214 -12 217 -12 231c0 11 9 20 20 20c10 0 18 -7 20 -16l1 -3c85 14 181 22 271 22c46 0 90 -2 133 -6c10 -2 18 -10 18 -20
c0 -12 -8 -20 -20 -20c-10 0 -54 6 -131 6c-90 0 -183 -8 -266 -22c5 -41 6 -100 6 -192c0 -20 -1 -43 -2 -68c119 -1 253 3 350 17h3c12 0 20 -8 20 -20c0 -10 -7 -18 -17 -20c-98 -14 -243 -19 -358 -18c-4 -83 -11 -174 -11 -208c0 -53 21 -73 81 -80
c88 -9 232 -16 337 -16c12 0 20 -8 20 -20c0 -11 -8 -20 -20 -20zM108 946c0 11 9 20 20 20c5 0 10 -2 14 -5c42 -40 94 -79 158 -122c64 40 123 80 180 123c3 3 7 4 12 4c11 0 20 -9 20 -20c0 -6 -3 -12 -8 -16c-65 -48 -129 -92 -193 -132c-3 -2 -7 -3 -11 -3s-8 2 -11 4
c-71 46 -128 89 -175 133c-4 3 -6 9 -6 14z" />
    <glyph glyph-name="Ecircumflex" unicode="&#xca;" 
d="M537 -3c-107 0 -253 7 -341 16c-80 9 -117 46 -117 120c0 43 7 128 11 210c-8 2 -15 10 -15 19c0 11 8 19 17 20c1 24 2 47 2 68c0 214 -12 217 -12 231c0 11 9 20 20 20c10 0 18 -7 20 -16l1 -3c85 14 181 22 271 22c46 0 90 -2 133 -6c10 -2 18 -10 18 -20
c0 -12 -8 -20 -20 -20c-10 0 -54 6 -131 6c-90 0 -183 -8 -266 -22c5 -41 6 -100 6 -192c0 -20 -1 -43 -2 -68c119 -1 253 3 350 17h3c12 0 20 -8 20 -20c0 -10 -7 -18 -17 -20c-98 -14 -243 -19 -358 -18c-4 -83 -11 -174 -11 -208c0 -53 21 -73 81 -80
c88 -9 232 -16 337 -16c12 0 20 -8 20 -20c0 -11 -8 -20 -20 -20zM108 815c0 7 3 13 8 16c65 49 129 92 193 132c3 2 7 3 11 3s8 -1 11 -3c71 -46 128 -90 175 -133c4 -4 6 -9 6 -15c0 -11 -9 -20 -20 -20c-5 0 -10 2 -14 6c-42 39 -94 79 -158 122
c-64 -40 -123 -81 -180 -124c-3 -2 -7 -4 -12 -4c-11 0 -20 9 -20 20z" />
    <glyph glyph-name="Edieresis" unicode="&#xcb;" 
d="M537 -3c-107 0 -253 7 -341 16c-80 9 -117 46 -117 120c0 43 7 128 11 210c-8 2 -15 10 -15 19c0 11 8 19 17 20c1 24 2 47 2 68c0 214 -12 217 -12 231c0 11 9 20 20 20c10 0 18 -7 20 -16l1 -3c85 14 181 22 271 22c46 0 90 -2 133 -6c10 -2 18 -10 18 -20
c0 -12 -8 -20 -20 -20c-10 0 -54 6 -131 6c-90 0 -183 -8 -266 -22c5 -41 6 -100 6 -192c0 -20 -1 -43 -2 -68c119 -1 253 3 350 17h3c12 0 20 -8 20 -20c0 -10 -7 -18 -17 -20c-98 -14 -243 -19 -358 -18c-4 -83 -11 -174 -11 -208c0 -53 21 -73 81 -80
c88 -9 232 -16 337 -16c12 0 20 -8 20 -20c0 -11 -8 -20 -20 -20zM189 869c0 10 1 19 3 29s10 16 20 16c12 0 20 -8 20 -20c0 -4 -3 -15 -3 -25c0 -20 6 -42 6 -48c0 -11 -8 -20 -20 -20c-10 0 -18 8 -20 17c-4 20 -6 37 -6 51zM388 832c0 6 2 11 2 32c0 28 -1 38 -1 42
c0 12 9 20 20 20s20 -8 20 -19c1 -10 1 -27 1 -43c0 -14 0 -27 -2 -35c-2 -10 -10 -17 -20 -17c-11 0 -20 9 -20 20z" />
    <glyph glyph-name="Edotaccent" unicode="&#x116;" 
d="M537 -3c-107 0 -253 7 -341 16c-80 9 -117 46 -117 120c0 43 7 128 11 210c-8 2 -15 10 -15 19c0 11 8 19 17 20c1 24 2 47 2 68c0 214 -12 217 -12 231c0 11 9 20 20 20c10 0 18 -7 20 -16l1 -3c85 14 181 22 271 22c46 0 90 -2 133 -6c10 -2 18 -10 18 -20
c0 -12 -8 -20 -20 -20c-10 0 -54 6 -131 6c-90 0 -183 -8 -266 -22c5 -41 6 -100 6 -192c0 -20 -1 -43 -2 -68c119 -1 253 3 350 17h3c12 0 20 -8 20 -20c0 -10 -7 -18 -17 -20c-98 -14 -243 -19 -358 -18c-4 -83 -11 -174 -11 -208c0 -53 21 -73 81 -80
c88 -9 232 -16 337 -16c12 0 20 -8 20 -20c0 -11 -8 -20 -20 -20zM268 887c0 39 14 60 44 60c23 0 41 -18 41 -42s-17 -59 -40 -82c-3 -4 -8 -7 -14 -7s-12 3 -15 8c-7 3 -12 9 -13 16c-2 19 -3 34 -3 47z" />
    <glyph glyph-name="Egrave" unicode="&#xc8;" 
d="M537 -3c-107 0 -253 7 -341 16c-80 9 -117 46 -117 120c0 43 7 128 11 210c-8 2 -15 10 -15 19c0 11 8 19 17 20c1 24 2 47 2 68c0 214 -12 217 -12 231c0 11 9 20 20 20c10 0 18 -7 20 -16l1 -3c85 14 181 22 271 22c46 0 90 -2 133 -6c10 -2 18 -10 18 -20
c0 -12 -8 -20 -20 -20c-10 0 -54 6 -131 6c-90 0 -183 -8 -266 -22c5 -41 6 -100 6 -192c0 -20 -1 -43 -2 -68c119 -1 253 3 350 17h3c12 0 20 -8 20 -20c0 -10 -7 -18 -17 -20c-98 -14 -243 -19 -358 -18c-4 -83 -11 -174 -11 -208c0 -53 21 -73 81 -80
c88 -9 232 -16 337 -16c12 0 20 -8 20 -20c0 -11 -8 -20 -20 -20zM189 946c0 11 9 20 20 20c5 0 9 -1 12 -4l202 -151c5 -3 8 -9 8 -16c0 -11 -9 -20 -20 -20c-5 0 -9 2 -12 4l-202 151c-5 4 -8 10 -8 16z" />
    <glyph glyph-name="Emacron" unicode="&#x112;" 
d="M537 -3c-107 0 -253 7 -341 16c-80 9 -117 46 -117 120c0 43 7 128 11 210c-8 2 -15 10 -15 19c0 11 8 19 17 20c1 24 2 47 2 68c0 214 -12 217 -12 231c0 11 9 20 20 20c10 0 18 -7 20 -16l1 -3c85 14 181 22 271 22c46 0 90 -2 133 -6c10 -2 18 -10 18 -20
c0 -12 -8 -20 -20 -20c-10 0 -54 6 -131 6c-90 0 -183 -8 -266 -22c5 -41 6 -100 6 -192c0 -20 -1 -43 -2 -68c119 -1 253 3 350 17h3c12 0 20 -8 20 -20c0 -10 -7 -18 -17 -20c-98 -14 -243 -19 -358 -18c-4 -83 -11 -174 -11 -208c0 -53 21 -73 81 -80
c88 -9 232 -16 337 -16c12 0 20 -8 20 -20c0 -11 -8 -20 -20 -20zM102 831c0 11 8 19 18 20c106 15 288 22 377 22c12 0 20 -8 20 -20c0 -11 -8 -20 -20 -20c-216 0 -370 -22 -375 -22c-11 0 -20 9 -20 20z" />
    <glyph glyph-name="Eogonek" unicode="&#x118;" 
d="M492 -209c-55 0 -99 37 -99 87c0 38 32 82 84 120c-97 2 -209 8 -281 15c-80 9 -117 46 -117 120c0 43 7 128 11 210c-8 2 -15 10 -15 19c0 11 8 19 17 20c1 24 2 47 2 68c0 214 -12 217 -12 231c0 11 9 20 20 20c10 0 18 -7 20 -16l1 -3c85 14 181 22 271 22
c46 0 90 -2 133 -6c10 -2 18 -10 18 -20c0 -12 -8 -20 -20 -20c-10 0 -54 6 -131 6c-90 0 -183 -8 -266 -22c5 -41 6 -100 6 -192c0 -20 -1 -43 -2 -68c119 -1 253 3 350 17h3c12 0 20 -8 20 -20c0 -10 -7 -18 -17 -20c-98 -14 -243 -19 -358 -18c-4 -83 -11 -174 -11 -208
c0 -53 21 -73 81 -80c88 -9 232 -16 337 -16c12 0 20 -8 20 -20c0 -6 -2 -11 -6 -15l-4 -3c-66 -34 -114 -84 -114 -118c0 -29 26 -50 59 -50c32 0 70 15 97 38c3 3 8 5 13 5c12 0 20 -9 20 -20c0 -6 -2 -12 -7 -16c-33 -28 -82 -47 -123 -47z" />
    <glyph glyph-name="F" unicode="F" 
d="M132 -15c-11 0 -20 9 -20 20c0 101 7 364 7 415c0 202 -12 250 -12 261s9 20 20 20c10 0 19 -8 20 -18v-2c85 15 175 23 263 23c43 0 86 -2 129 -6c10 -1 18 -10 18 -20c0 -11 -8 -20 -20 -20c-7 0 -55 6 -127 6c-84 0 -172 -8 -258 -23c5 -58 7 -122 7 -221l-1 -71
c80 10 168 17 248 17c31 0 60 -1 87 -3c11 -1 19 -9 19 -20s-9 -20 -20 -20c-5 0 -38 3 -86 3c-80 0 -169 -7 -249 -18c-2 -101 -5 -239 -5 -303c0 -11 -9 -20 -20 -20z" />
    <glyph glyph-name="G" unicode="G" 
d="M280 -4c-139 0 -232 108 -232 272c0 245 160 439 290 439c46 0 124 -23 175 -51c6 -3 11 -10 11 -18c0 -11 -9 -20 -20 -20c-4 0 -7 1 -10 3c-46 25 -117 46 -156 46c-108 0 -250 -174 -250 -399c0 -142 76 -232 192 -232c133 0 228 112 234 277
c-164 -21 -235 -38 -247 -38c-11 0 -20 9 -20 20c0 10 8 19 17 20c101 19 294 45 306 45s20 -8 20 -20c0 -10 -8 -19 -18 -20l-18 -2c-4 -189 -117 -322 -274 -322z" />
    <glyph glyph-name="Gbreve" unicode="&#x11e;" 
d="M280 -4c-139 0 -232 108 -232 272c0 245 160 439 290 439c46 0 124 -23 175 -51c6 -3 11 -10 11 -18c0 -11 -9 -20 -20 -20c-4 0 -7 1 -10 3c-46 25 -117 46 -156 46c-108 0 -250 -174 -250 -399c0 -142 76 -232 192 -232c133 0 228 112 234 277
c-164 -21 -235 -38 -247 -38c-11 0 -20 9 -20 20c0 10 8 19 17 20c101 19 294 45 306 45s20 -8 20 -20c0 -10 -8 -19 -18 -20l-18 -2c-4 -189 -117 -322 -274 -322zM116 939c0 11 9 20 20 20c9 0 17 -6 19 -15c17 -59 84 -102 162 -102c76 0 134 41 147 103c2 9 10 16 20 16
c11 0 20 -9 20 -20c0 -1 0 -3 -1 -4c-17 -81 -91 -135 -186 -135c-96 0 -178 54 -200 131c-1 2 -1 4 -1 6z" />
    <glyph glyph-name="Gcircumflex" unicode="&#x11c;" 
d="M280 -4c-139 0 -232 108 -232 272c0 245 160 439 290 439c46 0 124 -23 175 -51c6 -3 11 -10 11 -18c0 -11 -9 -20 -20 -20c-4 0 -7 1 -10 3c-46 25 -117 46 -156 46c-108 0 -250 -174 -250 -399c0 -142 76 -232 192 -232c133 0 228 112 234 277
c-164 -21 -235 -38 -247 -38c-11 0 -20 9 -20 20c0 10 8 19 17 20c101 19 294 45 306 45s20 -8 20 -20c0 -10 -8 -19 -18 -20l-18 -2c-4 -189 -117 -322 -274 -322zM108 815c0 7 3 13 8 16c65 49 129 92 193 132c3 2 7 3 11 3s8 -1 11 -3c71 -46 128 -90 175 -133
c4 -4 6 -9 6 -15c0 -11 -9 -20 -20 -20c-5 0 -10 2 -14 6c-42 39 -94 79 -158 122c-64 -40 -123 -81 -180 -124c-3 -2 -7 -4 -12 -4c-11 0 -20 9 -20 20z" />
    <glyph glyph-name="uni0122" unicode="&#x122;" 
d="M280 -4c-139 0 -232 108 -232 272c0 245 160 439 290 439c46 0 124 -23 175 -51c6 -3 11 -10 11 -18c0 -11 -9 -20 -20 -20c-4 0 -7 1 -10 3c-46 25 -117 46 -156 46c-108 0 -250 -174 -250 -399c0 -142 76 -232 192 -232c133 0 228 112 234 277
c-164 -21 -235 -38 -247 -38c-11 0 -20 9 -20 20c0 10 8 19 17 20c101 19 294 45 306 45s20 -8 20 -20c0 -10 -8 -19 -18 -20l-18 -2c-4 -189 -117 -322 -274 -322zM236 -243c0 5 2 10 5 14c35 40 79 114 90 145c3 8 11 13 19 13c11 0 20 -9 20 -20c0 -3 -1 -6 -2 -8
c-13 -35 -60 -114 -97 -158c-4 -4 -9 -6 -15 -6c-11 0 -20 9 -20 20z" />
    <glyph glyph-name="Gdotaccent" unicode="&#x120;" 
d="M280 -4c-139 0 -232 108 -232 272c0 245 160 439 290 439c46 0 124 -23 175 -51c6 -3 11 -10 11 -18c0 -11 -9 -20 -20 -20c-4 0 -7 1 -10 3c-46 25 -117 46 -156 46c-108 0 -250 -174 -250 -399c0 -142 76 -232 192 -232c133 0 228 112 234 277
c-164 -21 -235 -38 -247 -38c-11 0 -20 9 -20 20c0 10 8 19 17 20c101 19 294 45 306 45s20 -8 20 -20c0 -10 -8 -19 -18 -20l-18 -2c-4 -189 -117 -322 -274 -322zM268 887c0 39 14 60 44 60c23 0 41 -18 41 -42s-17 -59 -40 -82c-3 -4 -8 -7 -14 -7s-12 3 -15 8
c-7 3 -12 9 -13 16c-2 19 -3 34 -3 47z" />
    <glyph glyph-name="H" unicode="H" 
d="M514 -21c-10 0 -20 8 -20 19c-5 88 -9 202 -13 300c-39 4 -88 5 -138 5c-74 0 -151 -3 -200 -9c-3 -117 -13 -215 -27 -287c-2 -8 -10 -16 -20 -16c-11 0 -20 9 -20 21c0 10 28 118 28 376c0 144 -11 286 -11 292c0 12 9 20 20 20c10 0 20 -8 20 -18
c6 -84 11 -189 11 -294v-53c51 5 128 8 199 8c52 0 99 -1 137 -5c-2 56 -3 104 -3 135c0 71 11 162 27 230c3 9 11 15 20 15c12 0 20 -8 20 -20c0 -11 -27 -102 -27 -225c0 -121 17 -471 17 -474c0 -12 -8 -20 -20 -20z" />
    <glyph glyph-name="Hbar" unicode="&#x126;" 
d="M514 -21c-10 0 -20 8 -20 19c-5 88 -9 202 -13 300c-39 4 -88 5 -138 5c-74 0 -151 -3 -200 -9c-3 -117 -13 -215 -27 -287c-2 -8 -10 -16 -20 -16c-11 0 -20 9 -20 21c0 10 28 118 28 376c0 48 -1 97 -3 139c-18 0 -33 -1 -45 -1c-11 0 -20 9 -20 20s8 20 20 20l43 1
c-3 65 -6 110 -6 113c0 12 9 20 20 20c10 0 20 -8 20 -18c2 -35 5 -73 7 -114l24 1c92 2 209 6 320 12c4 43 11 86 20 122c3 9 11 15 20 15c12 0 20 -8 20 -20c0 -7 -12 -50 -20 -114c17 1 34 2 50 3c12 0 20 -8 20 -20c0 -10 -8 -19 -18 -20l-56 -4c-2 -22 -3 -45 -3 -70
c0 -121 17 -471 17 -474c0 -12 -8 -20 -20 -20zM141 528c2 -45 3 -93 3 -140v-53c51 5 128 8 199 8c52 0 99 -1 137 -5c-2 56 -3 104 -3 135c0 21 1 44 3 68c-100 -6 -221 -9 -315 -12c-8 0 -16 0 -24 -1z" />
    <glyph glyph-name="Hcircumflex" unicode="&#x124;" 
d="M514 -21c-10 0 -20 8 -20 19c-5 88 -9 202 -13 300c-39 4 -88 5 -138 5c-74 0 -151 -3 -200 -9c-3 -117 -13 -215 -27 -287c-2 -8 -10 -16 -20 -16c-11 0 -20 9 -20 21c0 10 28 118 28 376c0 144 -11 286 -11 292c0 12 9 20 20 20c10 0 20 -8 20 -18
c6 -84 11 -189 11 -294v-53c51 5 128 8 199 8c52 0 99 -1 137 -5c-2 56 -3 104 -3 135c0 71 11 162 27 230c3 9 11 15 20 15c12 0 20 -8 20 -20c0 -11 -27 -102 -27 -225c0 -121 17 -471 17 -474c0 -12 -8 -20 -20 -20zM108 815c0 7 3 13 8 16c65 49 129 92 193 132
c3 2 7 3 11 3s8 -1 11 -3c71 -46 128 -90 175 -133c4 -4 6 -9 6 -15c0 -11 -9 -20 -20 -20c-5 0 -10 2 -14 6c-42 39 -94 79 -158 122c-64 -40 -123 -81 -180 -124c-3 -2 -7 -4 -12 -4c-11 0 -20 9 -20 20z" />
    <glyph glyph-name="I" unicode="I" 
d="M147 -11c-11 0 -20 9 -20 20c0 10 8 19 18 20c47 6 101 11 156 14c-13 112 -20 239 -20 347c0 83 3 180 8 275c-48 2 -93 3 -135 3c-11 0 -20 9 -20 20s9 20 20 20c123 -2 235 -6 316 -11c11 -1 19 -9 19 -20s-9 -20 -20 -20c-49 3 -96 5 -140 7c-5 -95 -8 -192 -8 -274
c0 -106 7 -232 20 -345c49 2 96 4 134 4c11 0 20 -9 20 -20s-9 -20 -20 -20c-102 -1 -235 -8 -328 -20z" />
    <glyph glyph-name="IJ" unicode="&#x132;" 
d="M406 -24c-95 0 -158 93 -158 227c0 25 4 49 12 67c2 7 10 12 18 12c12 0 20 -8 20 -20c0 -8 -10 -20 -10 -59c0 -112 47 -187 118 -187c52 0 88 65 89 166c1 102 -8 263 -27 485c-80 -4 -138 -12 -144 -12c-11 0 -20 9 -20 20c0 10 8 18 18 20c53 7 172 15 236 15
c12 0 20 -8 20 -20c0 -11 -8 -20 -20 -20l-50 -1c19 -213 28 -380 27 -487c-1 -123 -51 -206 -129 -206zM81 385c0 90 3 198 9 302c0 11 10 19 20 19c12 0 20 -8 20 -20c0 -2 -9 -153 -9 -301c0 -202 22 -368 22 -376c0 -12 -8 -20 -20 -20c-10 0 -18 8 -20 18
c-14 122 -22 262 -22 378z" />
    <glyph glyph-name="Iacute" unicode="&#xcd;" 
d="M147 -11c-11 0 -20 9 -20 20c0 10 8 19 18 20c47 6 101 11 156 14c-13 112 -20 239 -20 347c0 83 3 180 8 275c-48 2 -93 3 -135 3c-11 0 -20 9 -20 20s9 20 20 20c123 -2 235 -6 316 -11c11 -1 19 -9 19 -20s-9 -20 -20 -20c-49 3 -96 5 -140 7c-5 -95 -8 -192 -8 -274
c0 -106 7 -232 20 -345c49 2 96 4 134 4c11 0 20 -9 20 -20s-9 -20 -20 -20c-102 -1 -235 -8 -328 -20zM189 798c0 7 3 13 8 16l202 151c3 3 7 4 12 4c11 0 20 -9 20 -20c0 -6 -3 -12 -8 -16l-202 -151c-3 -2 -7 -4 -12 -4c-11 0 -20 9 -20 20z" />
    <glyph glyph-name="Ibreve" unicode="&#x12c;" 
d="M147 -11c-11 0 -20 9 -20 20c0 10 8 19 18 20c47 6 101 11 156 14c-13 112 -20 239 -20 347c0 83 3 180 8 275c-48 2 -93 3 -135 3c-11 0 -20 9 -20 20s9 20 20 20c123 -2 235 -6 316 -11c11 -1 19 -9 19 -20s-9 -20 -20 -20c-49 3 -96 5 -140 7c-5 -95 -8 -192 -8 -274
c0 -106 7 -232 20 -345c49 2 96 4 134 4c11 0 20 -9 20 -20s-9 -20 -20 -20c-102 -1 -235 -8 -328 -20zM116 939c0 11 9 20 20 20c9 0 17 -6 19 -15c17 -59 84 -102 162 -102c76 0 134 41 147 103c2 9 10 16 20 16c11 0 20 -9 20 -20c0 -1 0 -3 -1 -4
c-17 -81 -91 -135 -186 -135c-96 0 -178 54 -200 131c-1 2 -1 4 -1 6z" />
    <glyph glyph-name="Icircumflex" unicode="&#xce;" 
d="M147 -11c-11 0 -20 9 -20 20c0 10 8 19 18 20c47 6 101 11 156 14c-13 112 -20 239 -20 347c0 83 3 180 8 275c-48 2 -93 3 -135 3c-11 0 -20 9 -20 20s9 20 20 20c123 -2 235 -6 316 -11c11 -1 19 -9 19 -20s-9 -20 -20 -20c-49 3 -96 5 -140 7c-5 -95 -8 -192 -8 -274
c0 -106 7 -232 20 -345c49 2 96 4 134 4c11 0 20 -9 20 -20s-9 -20 -20 -20c-102 -1 -235 -8 -328 -20zM108 815c0 7 3 13 8 16c65 49 129 92 193 132c3 2 7 3 11 3s8 -1 11 -3c71 -46 128 -90 175 -133c4 -4 6 -9 6 -15c0 -11 -9 -20 -20 -20c-5 0 -10 2 -14 6
c-42 39 -94 79 -158 122c-64 -40 -123 -81 -180 -124c-3 -2 -7 -4 -12 -4c-11 0 -20 9 -20 20z" />
    <glyph glyph-name="Idieresis" unicode="&#xcf;" 
d="M147 -11c-11 0 -20 9 -20 20c0 10 8 19 18 20c47 6 101 11 156 14c-13 112 -20 239 -20 347c0 83 3 180 8 275c-48 2 -93 3 -135 3c-11 0 -20 9 -20 20s9 20 20 20c123 -2 235 -6 316 -11c11 -1 19 -9 19 -20s-9 -20 -20 -20c-49 3 -96 5 -140 7c-5 -95 -8 -192 -8 -274
c0 -106 7 -232 20 -345c49 2 96 4 134 4c11 0 20 -9 20 -20s-9 -20 -20 -20c-102 -1 -235 -8 -328 -20zM189 869c0 10 1 19 3 29s10 16 20 16c12 0 20 -8 20 -20c0 -4 -3 -15 -3 -25c0 -20 6 -42 6 -48c0 -11 -8 -20 -20 -20c-10 0 -18 8 -20 17c-4 20 -6 37 -6 51zM388 832
c0 6 2 11 2 32c0 28 -1 38 -1 42c0 12 9 20 20 20s20 -8 20 -19c1 -10 1 -27 1 -43c0 -14 0 -27 -2 -35c-2 -10 -10 -17 -20 -17c-11 0 -20 9 -20 20z" />
    <glyph glyph-name="Idotaccent" unicode="&#x130;" 
d="M147 -11c-11 0 -20 9 -20 20c0 10 8 19 18 20c47 6 101 11 156 14c-13 112 -20 239 -20 347c0 83 3 180 8 275c-48 2 -93 3 -135 3c-11 0 -20 9 -20 20s9 20 20 20c123 -2 235 -6 316 -11c11 -1 19 -9 19 -20s-9 -20 -20 -20c-49 3 -96 5 -140 7c-5 -95 -8 -192 -8 -274
c0 -106 7 -232 20 -345c49 2 96 4 134 4c11 0 20 -9 20 -20s-9 -20 -20 -20c-102 -1 -235 -8 -328 -20zM268 887c0 39 14 60 44 60c23 0 41 -18 41 -42s-17 -59 -40 -82c-3 -4 -8 -7 -14 -7s-12 3 -15 8c-7 3 -12 9 -13 16c-2 19 -3 34 -3 47z" />
    <glyph glyph-name="Igrave" unicode="&#xcc;" 
d="M147 -11c-11 0 -20 9 -20 20c0 10 8 19 18 20c47 6 101 11 156 14c-13 112 -20 239 -20 347c0 83 3 180 8 275c-48 2 -93 3 -135 3c-11 0 -20 9 -20 20s9 20 20 20c123 -2 235 -6 316 -11c11 -1 19 -9 19 -20s-9 -20 -20 -20c-49 3 -96 5 -140 7c-5 -95 -8 -192 -8 -274
c0 -106 7 -232 20 -345c49 2 96 4 134 4c11 0 20 -9 20 -20s-9 -20 -20 -20c-102 -1 -235 -8 -328 -20zM189 946c0 11 9 20 20 20c5 0 9 -1 12 -4l202 -151c5 -3 8 -9 8 -16c0 -11 -9 -20 -20 -20c-5 0 -9 2 -12 4l-202 151c-5 4 -8 10 -8 16z" />
    <glyph glyph-name="Imacron" unicode="&#x12a;" 
d="M147 -11c-11 0 -20 9 -20 20c0 10 8 19 18 20c47 6 101 11 156 14c-13 112 -20 239 -20 347c0 83 3 180 8 275c-48 2 -93 3 -135 3c-11 0 -20 9 -20 20s9 20 20 20c123 -2 235 -6 316 -11c11 -1 19 -9 19 -20s-9 -20 -20 -20c-49 3 -96 5 -140 7c-5 -95 -8 -192 -8 -274
c0 -106 7 -232 20 -345c49 2 96 4 134 4c11 0 20 -9 20 -20s-9 -20 -20 -20c-102 -1 -235 -8 -328 -20zM102 831c0 11 8 19 18 20c106 15 288 22 377 22c12 0 20 -8 20 -20c0 -11 -8 -20 -20 -20c-216 0 -370 -22 -375 -22c-11 0 -20 9 -20 20z" />
    <glyph glyph-name="Iogonek" unicode="&#x12e;" 
d="M147 -11c-11 0 -20 9 -20 20c0 10 8 19 18 20c47 6 101 11 156 14c-13 112 -20 239 -20 347c0 83 3 180 8 275c-48 2 -93 3 -135 3c-11 0 -20 9 -20 20s9 20 20 20c123 -2 235 -6 316 -11c11 -1 19 -9 19 -20s-9 -20 -20 -20c-49 3 -96 5 -140 7c-5 -95 -8 -192 -8 -274
c0 -106 7 -232 20 -345c49 2 96 4 134 4c11 0 20 -9 20 -20s-9 -20 -20 -20c-37 0 -78 -2 -120 -3c-65 -34 -113 -84 -113 -118c0 -29 26 -50 59 -50c32 0 70 15 97 38c3 3 8 5 13 5c12 0 20 -9 20 -20c0 -6 -2 -12 -7 -16c-33 -28 -82 -47 -123 -47c-55 0 -99 37 -99 87
c0 37 30 80 80 116c-49 -3 -96 -7 -135 -12z" />
    <glyph glyph-name="Itilde" unicode="&#x128;" 
d="M147 -11c-11 0 -20 9 -20 20c0 10 8 19 18 20c47 6 101 11 156 14c-13 112 -20 239 -20 347c0 83 3 180 8 275c-48 2 -93 3 -135 3c-11 0 -20 9 -20 20s9 20 20 20c123 -2 235 -6 316 -11c11 -1 19 -9 19 -20s-9 -20 -20 -20c-49 3 -96 5 -140 7c-5 -95 -8 -192 -8 -274
c0 -106 7 -232 20 -345c49 2 96 4 134 4c11 0 20 -9 20 -20s-9 -20 -20 -20c-102 -1 -235 -8 -328 -20zM77 814v4c15 78 72 133 141 133c52 0 83 -29 113 -60c27 -28 48 -49 85 -49c44 0 79 40 87 102c1 10 10 17 20 17c11 0 20 -9 20 -20v-3c-11 -81 -62 -136 -127 -136
c-52 0 -83 30 -113 61c-27 27 -48 48 -85 48c-49 0 -90 -40 -101 -100c-2 -9 -10 -17 -20 -17c-11 0 -20 9 -20 20z" />
    <glyph glyph-name="J" unicode="J" 
d="M338 -56c-123 0 -258 111 -258 214c0 30 8 55 25 73c4 4 9 6 15 6c11 0 20 -9 20 -20c0 -5 -2 -9 -5 -12c-10 -12 -15 -27 -15 -47c0 -80 117 -174 216 -174c48 0 78 71 79 183c1 103 -8 267 -27 491c-68 -3 -137 -7 -196 -12c-11 0 -20 9 -20 20c0 10 8 19 18 20
c104 9 253 15 344 17c11 0 20 -9 20 -20s-9 -20 -20 -20c-32 -1 -68 -2 -106 -3c19 -216 28 -384 27 -493c-1 -137 -42 -223 -117 -223z" />
    <glyph glyph-name="Jcircumflex" unicode="&#x134;" 
d="M338 -56c-123 0 -258 111 -258 214c0 30 8 55 25 73c4 4 9 6 15 6c11 0 20 -9 20 -20c0 -5 -2 -9 -5 -12c-10 -12 -15 -27 -15 -47c0 -80 117 -174 216 -174c48 0 78 71 79 183c1 103 -8 267 -27 491c-68 -3 -137 -7 -196 -12c-11 0 -20 9 -20 20c0 10 8 19 18 20
c104 9 253 15 344 17c11 0 20 -9 20 -20s-9 -20 -20 -20c-32 -1 -68 -2 -106 -3c19 -216 28 -384 27 -493c-1 -137 -42 -223 -117 -223zM108 815c0 7 3 13 8 16c65 49 129 92 193 132c3 2 7 3 11 3s8 -1 11 -3c71 -46 128 -90 175 -133c4 -4 6 -9 6 -15
c0 -11 -9 -20 -20 -20c-5 0 -10 2 -14 6c-42 39 -94 79 -158 122c-64 -40 -123 -81 -180 -124c-3 -2 -7 -4 -12 -4c-11 0 -20 9 -20 20z" />
    <glyph glyph-name="K" unicode="K" 
d="M148 -8c-11 0 -19 9 -20 19c-5 72 -9 168 -9 223c0 121 9 321 23 458c1 10 10 18 20 18c11 0 20 -9 20 -20c0 -9 -14 -139 -20 -312c140 85 259 191 343 306c3 5 9 8 16 8c11 0 20 -9 20 -20c0 -5 -1 -9 -4 -12c-81 -111 -194 -214 -326 -298c94 -104 233 -245 336 -333
c4 -3 7 -9 7 -15c0 -11 -9 -20 -20 -20c-5 0 -10 2 -13 5c-106 91 -250 236 -344 342l-17 -10c-1 -32 -1 -64 -1 -97c0 -57 4 -151 9 -222c0 -11 -9 -20 -20 -20z" />
    <glyph glyph-name="uni0136" unicode="&#x136;" 
d="M148 -8c-11 0 -19 9 -20 19c-5 72 -9 168 -9 223c0 121 9 321 23 458c1 10 10 18 20 18c11 0 20 -9 20 -20c0 -9 -14 -139 -20 -312c140 85 259 191 343 306c3 5 9 8 16 8c11 0 20 -9 20 -20c0 -5 -1 -9 -4 -12c-81 -111 -194 -214 -326 -298c94 -104 233 -245 336 -333
c4 -3 7 -9 7 -15c0 -11 -9 -20 -20 -20c-5 0 -10 2 -13 5c-106 91 -250 236 -344 342l-17 -10c-1 -32 -1 -64 -1 -97c0 -57 4 -151 9 -222c0 -11 -9 -20 -20 -20zM236 -243c0 5 2 10 5 14c35 40 79 114 90 145c3 8 11 13 19 13c11 0 20 -9 20 -20c0 -3 -1 -6 -2 -8
c-13 -35 -60 -114 -97 -158c-4 -4 -9 -6 -15 -6c-11 0 -20 9 -20 20z" />
    <glyph glyph-name="L" unicode="L" 
d="M164 -6c-11 0 -20 8 -20 20c2 60 3 146 3 238c0 299 -8 428 -8 437c0 12 9 20 20 20s20 -8 20 -19c6 -115 8 -286 8 -438c0 -84 0 -161 -2 -218c225 4 345 38 355 38c12 0 20 -8 20 -20c0 -10 -6 -18 -16 -20c-111 -25 -241 -38 -380 -38z" />
    <glyph glyph-name="Lacute" unicode="&#x139;" 
d="M164 -6c-11 0 -20 8 -20 20c2 60 3 146 3 238c0 299 -8 428 -8 437c0 12 9 20 20 20s20 -8 20 -19c6 -115 8 -286 8 -438c0 -84 0 -161 -2 -218c225 4 345 38 355 38c12 0 20 -8 20 -20c0 -10 -6 -18 -16 -20c-111 -25 -241 -38 -380 -38zM189 798c0 7 3 13 8 16l202 151
c3 3 7 4 12 4c11 0 20 -9 20 -20c0 -6 -3 -12 -8 -16l-202 -151c-3 -2 -7 -4 -12 -4c-11 0 -20 9 -20 20z" />
    <glyph glyph-name="Lcaron" unicode="&#x13d;" 
d="M164 -6c-11 0 -20 8 -20 20c2 60 3 146 3 238c0 299 -8 428 -8 437c0 12 9 20 20 20s20 -8 20 -19c6 -115 8 -286 8 -438c0 -84 0 -161 -2 -218c225 4 345 38 355 38c12 0 20 -8 20 -20c0 -10 -6 -18 -16 -20c-111 -25 -241 -38 -380 -38zM380 452c0 4 1 8 3 11
c30 48 46 98 46 142c0 35 -9 63 -26 81c-4 3 -6 8 -6 13c0 11 9 20 20 20c6 0 11 -2 15 -6c24 -26 37 -64 37 -108c0 -52 -18 -110 -52 -163c-3 -6 -10 -10 -17 -10c-11 0 -20 9 -20 20z" />
    <glyph glyph-name="uni013B" unicode="&#x13b;" 
d="M164 -6c-11 0 -20 8 -20 20c2 60 3 146 3 238c0 299 -8 428 -8 437c0 12 9 20 20 20s20 -8 20 -19c6 -115 8 -286 8 -438c0 -84 0 -161 -2 -218c225 4 345 38 355 38c12 0 20 -8 20 -20c0 -10 -6 -18 -16 -20c-111 -25 -241 -38 -380 -38zM236 -243c0 5 2 10 5 14
c35 40 79 114 90 145c3 8 11 13 19 13c11 0 20 -9 20 -20c0 -3 -1 -6 -2 -8c-13 -35 -60 -114 -97 -158c-4 -4 -9 -6 -15 -6c-11 0 -20 9 -20 20z" />
    <glyph glyph-name="Ldot" unicode="&#x13f;" 
d="M164 -6c-11 0 -20 8 -20 20c2 60 3 146 3 238c0 299 -8 428 -8 437c0 12 9 20 20 20s20 -8 20 -19c6 -115 8 -286 8 -438c0 -84 0 -161 -2 -218c225 4 345 38 355 38c12 0 20 -8 20 -20c0 -10 -6 -18 -16 -20c-111 -25 -241 -38 -380 -38zM398 387c0 42 31 72 73 72
c47 0 87 -33 87 -74c0 -33 -21 -61 -61 -75c-7 -3 -12 -4 -18 -4c-49 0 -81 31 -81 81z" />
    <glyph glyph-name="Lslash" unicode="&#x141;" 
d="M164 -6c-11 0 -20 8 -20 20c2 60 3 146 3 238v61c-47 -25 -90 -49 -125 -70c-3 -2 -6 -3 -10 -3c-11 0 -20 9 -20 20c0 7 4 14 10 17c40 24 90 52 145 81c-2 224 -8 323 -8 331c0 12 9 20 20 20s20 -8 20 -19c4 -84 7 -197 8 -311c76 39 157 79 230 111c2 1 5 2 8 2
c11 0 20 -9 20 -20c0 -8 -5 -15 -12 -18c-78 -34 -166 -78 -246 -120v-82c0 -84 0 -161 -2 -218c225 4 345 38 355 38c12 0 20 -8 20 -20c0 -10 -6 -18 -16 -20c-111 -25 -241 -38 -380 -38z" />
    <glyph glyph-name="M" unicode="M" 
d="M47 -11c-12 0 -20 8 -20 20c7 182 29 498 34 677c1 12 10 20 20 20c8 0 16 -4 19 -12c104 -222 157 -329 198 -439c47 118 146 340 190 451c2 7 10 13 18 13c10 0 19 -8 20 -18c23 -212 65 -642 65 -679c0 -12 -8 -20 -20 -20c-10 0 -19 8 -20 18c-9 128 -22 276 -57 605
c-38 -91 -126 -295 -177 -423c-3 -8 -10 -14 -19 -14c-8 0 -16 6 -19 14c-32 96 -96 228 -180 409c-7 -139 -26 -472 -32 -602c0 -12 -10 -20 -20 -20z" />
    <glyph glyph-name="N" unicode="N" 
d="M103 -10c-11 0 -20 9 -20 20c0 10 8 185 8 486c0 76 0 143 -2 191c0 11 9 20 20 20c8 0 15 -5 18 -12c96 -204 245 -459 360 -619c5 93 7 200 7 303c0 199 -9 313 -9 318c0 12 9 20 20 20c10 0 20 -8 20 -18c6 -81 9 -197 9 -320c0 -124 -3 -253 -9 -359
c0 -11 -10 -19 -20 -19c-6 0 -12 3 -15 7c-110 144 -256 388 -360 596c1 -35 1 -76 1 -117c0 -176 -4 -387 -8 -477c0 -11 -9 -20 -20 -20z" />
    <glyph glyph-name="Nacute" unicode="&#x143;" 
d="M103 -10c-11 0 -20 9 -20 20c0 10 8 185 8 486c0 76 0 143 -2 191c0 11 9 20 20 20c8 0 15 -5 18 -12c96 -204 245 -459 360 -619c5 93 7 200 7 303c0 199 -9 313 -9 318c0 12 9 20 20 20c10 0 20 -8 20 -18c6 -81 9 -197 9 -320c0 -124 -3 -253 -9 -359
c0 -11 -10 -19 -20 -19c-6 0 -12 3 -15 7c-110 144 -256 388 -360 596c1 -35 1 -76 1 -117c0 -176 -4 -387 -8 -477c0 -11 -9 -20 -20 -20zM189 798c0 7 3 13 8 16l202 151c3 3 7 4 12 4c11 0 20 -9 20 -20c0 -6 -3 -12 -8 -16l-202 -151c-3 -2 -7 -4 -12 -4
c-11 0 -20 9 -20 20z" />
    <glyph glyph-name="Ncaron" unicode="&#x147;" 
d="M103 -10c-11 0 -20 9 -20 20c0 10 8 185 8 486c0 76 0 143 -2 191c0 11 9 20 20 20c8 0 15 -5 18 -12c96 -204 245 -459 360 -619c5 93 7 200 7 303c0 199 -9 313 -9 318c0 12 9 20 20 20c10 0 20 -8 20 -18c6 -81 9 -197 9 -320c0 -124 -3 -253 -9 -359
c0 -11 -10 -19 -20 -19c-6 0 -12 3 -15 7c-110 144 -256 388 -360 596c1 -35 1 -76 1 -117c0 -176 -4 -387 -8 -477c0 -11 -9 -20 -20 -20zM108 946c0 11 9 20 20 20c5 0 10 -2 14 -5c42 -40 94 -79 158 -122c64 40 123 80 180 123c3 3 7 4 12 4c11 0 20 -9 20 -20
c0 -6 -3 -12 -8 -16c-65 -48 -129 -92 -193 -132c-3 -2 -7 -3 -11 -3s-8 2 -11 4c-71 46 -128 89 -175 133c-4 3 -6 9 -6 14z" />
    <glyph glyph-name="uni0145" unicode="&#x145;" 
d="M103 -10c-11 0 -20 9 -20 20c0 10 8 185 8 486c0 76 0 143 -2 191c0 11 9 20 20 20c8 0 15 -5 18 -12c96 -204 245 -459 360 -619c5 93 7 200 7 303c0 199 -9 313 -9 318c0 12 9 20 20 20c10 0 20 -8 20 -18c6 -81 9 -197 9 -320c0 -124 -3 -253 -9 -359
c0 -11 -10 -19 -20 -19c-6 0 -12 3 -15 7c-110 144 -256 388 -360 596c1 -35 1 -76 1 -117c0 -176 -4 -387 -8 -477c0 -11 -9 -20 -20 -20zM236 -243c0 5 2 10 5 14c35 40 79 114 90 145c3 8 11 13 19 13c11 0 20 -9 20 -20c0 -3 -1 -6 -2 -8c-13 -35 -60 -114 -97 -158
c-4 -4 -9 -6 -15 -6c-11 0 -20 9 -20 20z" />
    <glyph glyph-name="Ntilde" unicode="&#xd1;" 
d="M103 -10c-11 0 -20 9 -20 20c0 10 8 185 8 486c0 76 0 143 -2 191c0 11 9 20 20 20c8 0 15 -5 18 -12c96 -204 245 -459 360 -619c5 93 7 200 7 303c0 199 -9 313 -9 318c0 12 9 20 20 20c10 0 20 -8 20 -18c6 -81 9 -197 9 -320c0 -124 -3 -253 -9 -359
c0 -11 -10 -19 -20 -19c-6 0 -12 3 -15 7c-110 144 -256 388 -360 596c1 -35 1 -76 1 -117c0 -176 -4 -387 -8 -477c0 -11 -9 -20 -20 -20zM77 814v4c15 78 72 133 141 133c52 0 83 -29 113 -60c27 -28 48 -49 85 -49c44 0 79 40 87 102c1 10 10 17 20 17c11 0 20 -9 20 -20
v-3c-11 -81 -62 -136 -127 -136c-52 0 -83 30 -113 61c-27 27 -48 48 -85 48c-49 0 -90 -40 -101 -100c-2 -9 -10 -17 -20 -17c-11 0 -20 9 -20 20z" />
    <glyph glyph-name="Eng" unicode="&#x14a;" 
d="M103 -10c-11 0 -20 9 -20 20c0 10 5 176 8 486c1 117 -2 184 -2 191c0 11 9 20 20 20c8 0 15 -5 18 -12c96 -203 244 -454 361 -617c4 84 6 181 6 277c0 233 -9 333 -9 342c0 12 9 20 20 20c10 0 20 -8 20 -18c6 -85 9 -212 9 -344c0 -110 -2 -223 -8 -316
c-10 -169 -51 -241 -148 -241c-49 0 -99 16 -137 45c-5 4 -8 10 -8 16c0 11 8 20 20 20c4 0 8 -2 12 -4c31 -24 71 -37 113 -37c66 0 95 46 106 178c-109 144 -252 383 -354 588c1 -36 1 -76 1 -117c0 -176 -4 -387 -8 -477c0 -11 -9 -20 -20 -20z" />
    <glyph glyph-name="O" unicode="O" 
d="M288 -7c-142 0 -227 93 -227 248c0 228 95 467 254 467c151 0 243 -96 243 -256c0 -270 -109 -459 -270 -459zM101 241c0 -132 68 -208 187 -208c134 0 230 171 230 419c0 137 -74 216 -203 216c-132 0 -214 -217 -214 -427z" />
    <glyph glyph-name="Oacute" unicode="&#xd3;" 
d="M288 -7c-142 0 -227 93 -227 248c0 228 95 467 254 467c151 0 243 -96 243 -256c0 -270 -109 -459 -270 -459zM101 241c0 -132 68 -208 187 -208c134 0 230 171 230 419c0 137 -74 216 -203 216c-132 0 -214 -217 -214 -427zM189 798c0 7 3 13 8 16l202 151c3 3 7 4 12 4
c11 0 20 -9 20 -20c0 -6 -3 -12 -8 -16l-202 -151c-3 -2 -7 -4 -12 -4c-11 0 -20 9 -20 20z" />
    <glyph glyph-name="Obreve" unicode="&#x14e;" 
d="M288 -7c-142 0 -227 93 -227 248c0 228 95 467 254 467c151 0 243 -96 243 -256c0 -270 -109 -459 -270 -459zM101 241c0 -132 68 -208 187 -208c134 0 230 171 230 419c0 137 -74 216 -203 216c-132 0 -214 -217 -214 -427zM116 939c0 11 9 20 20 20c9 0 17 -6 19 -15
c17 -59 84 -102 162 -102c76 0 134 41 147 103c2 9 10 16 20 16c11 0 20 -9 20 -20c0 -1 0 -3 -1 -4c-17 -81 -91 -135 -186 -135c-96 0 -178 54 -200 131c-1 2 -1 4 -1 6z" />
    <glyph glyph-name="Ocircumflex" unicode="&#xd4;" 
d="M288 -7c-142 0 -227 93 -227 248c0 228 95 467 254 467c151 0 243 -96 243 -256c0 -270 -109 -459 -270 -459zM101 241c0 -132 68 -208 187 -208c134 0 230 171 230 419c0 137 -74 216 -203 216c-132 0 -214 -217 -214 -427zM108 815c0 7 3 13 8 16c65 49 129 92 193 132
c3 2 7 3 11 3s8 -1 11 -3c71 -46 128 -90 175 -133c4 -4 6 -9 6 -15c0 -11 -9 -20 -20 -20c-5 0 -10 2 -14 6c-42 39 -94 79 -158 122c-64 -40 -123 -81 -180 -124c-3 -2 -7 -4 -12 -4c-11 0 -20 9 -20 20z" />
    <glyph glyph-name="Odieresis" unicode="&#xd6;" 
d="M288 -7c-142 0 -227 93 -227 248c0 228 95 467 254 467c151 0 243 -96 243 -256c0 -270 -109 -459 -270 -459zM101 241c0 -132 68 -208 187 -208c134 0 230 171 230 419c0 137 -74 216 -203 216c-132 0 -214 -217 -214 -427zM189 869c0 10 1 19 3 29s10 16 20 16
c12 0 20 -8 20 -20c0 -4 -3 -15 -3 -25c0 -20 6 -42 6 -48c0 -11 -8 -20 -20 -20c-10 0 -18 8 -20 17c-4 20 -6 37 -6 51zM388 832c0 6 2 11 2 32c0 28 -1 38 -1 42c0 12 9 20 20 20s20 -8 20 -19c1 -10 1 -27 1 -43c0 -14 0 -27 -2 -35c-2 -10 -10 -17 -20 -17
c-11 0 -20 9 -20 20z" />
    <glyph glyph-name="Ograve" unicode="&#xd2;" 
d="M288 -7c-142 0 -227 93 -227 248c0 228 95 467 254 467c151 0 243 -96 243 -256c0 -270 -109 -459 -270 -459zM101 241c0 -132 68 -208 187 -208c134 0 230 171 230 419c0 137 -74 216 -203 216c-132 0 -214 -217 -214 -427zM189 946c0 11 9 20 20 20c5 0 9 -1 12 -4
l202 -151c5 -3 8 -9 8 -16c0 -11 -9 -20 -20 -20c-5 0 -9 2 -12 4l-202 151c-5 4 -8 10 -8 16z" />
    <glyph glyph-name="Ohungarumlaut" unicode="&#x150;" 
d="M288 -7c-142 0 -227 93 -227 248c0 228 95 467 254 467c151 0 243 -96 243 -256c0 -270 -109 -459 -270 -459zM101 241c0 -132 68 -208 187 -208c134 0 230 171 230 419c0 137 -74 216 -203 216c-132 0 -214 -217 -214 -427zM166 815c0 5 1 10 5 13c48 57 95 107 143 153
c3 3 8 5 14 5c11 0 20 -9 20 -20c0 -5 -3 -11 -7 -14c-46 -44 -92 -94 -140 -150c-4 -4 -9 -7 -15 -7c-11 0 -20 9 -20 20zM369 815c0 5 2 10 5 13c48 57 95 107 143 153c4 3 9 5 14 5c11 0 20 -9 20 -20c0 -5 -2 -10 -6 -14c-46 -44 -93 -94 -141 -150c-3 -4 -9 -7 -15 -7
c-11 0 -20 9 -20 20z" />
    <glyph glyph-name="Omacron" unicode="&#x14c;" 
d="M288 -7c-142 0 -227 93 -227 248c0 228 95 467 254 467c151 0 243 -96 243 -256c0 -270 -109 -459 -270 -459zM101 241c0 -132 68 -208 187 -208c134 0 230 171 230 419c0 137 -74 216 -203 216c-132 0 -214 -217 -214 -427zM102 831c0 11 8 19 18 20
c106 15 288 22 377 22c12 0 20 -8 20 -20c0 -11 -8 -20 -20 -20c-216 0 -370 -22 -375 -22c-11 0 -20 9 -20 20z" />
    <glyph glyph-name="Oslash" unicode="&#xd8;" 
d="M288 -7c-67 0 -122 21 -161 60c-16 -27 -32 -52 -47 -76c-3 -6 -10 -10 -17 -10c-11 0 -20 9 -20 20c0 4 1 7 3 11c16 27 35 57 55 88c-26 40 -40 93 -40 155c0 228 95 467 254 467c73 0 132 -22 173 -63c22 29 44 55 62 78c3 4 9 7 15 7c11 0 20 -9 20 -20
c0 -5 -2 -9 -5 -13c-19 -24 -42 -52 -66 -84c29 -41 44 -96 44 -161c0 -270 -109 -459 -270 -459zM101 241c0 -48 9 -88 26 -120c102 161 235 352 339 489c-35 38 -86 58 -151 58c-132 0 -214 -217 -214 -427zM147 90c32 -37 80 -57 141 -57c134 0 230 171 230 419
c0 52 -11 96 -31 131c-105 -140 -238 -332 -340 -493z" />
    <glyph glyph-name="Oslashacute" unicode="&#x1fe;" 
d="M288 -7c-67 0 -122 21 -161 60c-16 -27 -32 -52 -47 -76c-3 -6 -10 -10 -17 -10c-11 0 -20 9 -20 20c0 4 1 7 3 11c16 27 35 57 55 88c-26 40 -40 93 -40 155c0 228 95 467 254 467c73 0 132 -22 173 -63c22 29 44 55 62 78c3 4 9 7 15 7c11 0 20 -9 20 -20
c0 -5 -2 -9 -5 -13c-19 -24 -42 -52 -66 -84c29 -41 44 -96 44 -161c0 -270 -109 -459 -270 -459zM101 241c0 -48 9 -88 26 -120c102 161 235 352 339 489c-35 38 -86 58 -151 58c-132 0 -214 -217 -214 -427zM147 90c32 -37 80 -57 141 -57c134 0 230 171 230 419
c0 52 -11 96 -31 131c-105 -140 -238 -332 -340 -493zM189 798c0 7 3 13 8 16l202 151c3 3 7 4 12 4c11 0 20 -9 20 -20c0 -6 -3 -12 -8 -16l-202 -151c-3 -2 -7 -4 -12 -4c-11 0 -20 9 -20 20z" />
    <glyph glyph-name="Otilde" unicode="&#xd5;" 
d="M288 -7c-142 0 -227 93 -227 248c0 228 95 467 254 467c151 0 243 -96 243 -256c0 -270 -109 -459 -270 -459zM77 814v4c15 78 72 133 141 133c52 0 83 -29 113 -60c27 -28 48 -49 85 -49c44 0 79 40 87 102c1 10 10 17 20 17c11 0 20 -9 20 -20v-3
c-11 -81 -62 -136 -127 -136c-52 0 -83 30 -113 61c-27 27 -48 48 -85 48c-49 0 -90 -40 -101 -100c-2 -9 -10 -17 -20 -17c-11 0 -20 9 -20 20zM101 241c0 -132 68 -208 187 -208c134 0 230 171 230 419c0 137 -74 216 -203 216c-132 0 -214 -217 -214 -427z" />
    <glyph glyph-name="OE" unicode="&#x152;" 
d="M312 -9c-172 0 -269 121 -269 334c0 254 103 383 303 383c70 0 165 -7 229 -16c9 -2 17 -10 17 -20c0 -12 -8 -20 -20 -20c-6 0 -101 15 -210 16c-6 -78 -11 -183 -15 -290c104 2 184 16 188 16c12 0 20 -8 20 -20c0 -10 -7 -18 -16 -20c-57 -9 -130 -15 -194 -16
c-4 -115 -7 -228 -7 -306c126 5 233 38 244 38c12 0 20 -9 20 -20c0 -10 -6 -18 -16 -20c-103 -26 -192 -39 -274 -39zM83 325c0 -186 75 -287 215 -293c1 158 12 463 23 635c-161 -10 -238 -121 -238 -342z" />
    <glyph glyph-name="P" unicode="P" 
d="M149 -16c-10 0 -20 8 -20 20c-3 123 -9 387 -9 516c0 57 1 109 2 157c0 10 7 17 16 19c29 8 62 12 98 12c161 0 294 -105 294 -233c0 -131 -127 -224 -303 -224c-22 0 -44 2 -64 5l6 -252c0 -12 -8 -20 -20 -20zM160 520c0 -75 1 -152 3 -224c19 -3 41 -5 64 -5
c154 0 263 77 263 184c0 104 -116 193 -254 193c-27 0 -52 -3 -74 -8c-1 -45 -2 -92 -2 -140z" />
    <glyph glyph-name="Thorn" unicode="&#xde;" 
d="M229 121c-22 0 -43 2 -62 4l2 -120c0 -12 -9 -21 -20 -21s-20 9 -20 20c0 31 -9 391 -9 531c0 59 1 113 2 162c0 10 9 19 20 19s20 -8 20 -20c-1 -34 -1 -74 -2 -115c24 5 50 7 78 7c160 0 292 -105 292 -238c0 -137 -125 -229 -301 -229zM160 535c0 -85 3 -246 6 -369
c19 -3 40 -5 63 -5c154 0 261 76 261 189c0 110 -114 198 -252 198c-29 0 -55 -3 -78 -8v-5z" />
    <glyph glyph-name="Q" unicode="Q" 
d="M302 -8c-157 0 -241 119 -241 338c0 221 106 379 258 379c140 0 241 -130 241 -310c0 -117 -46 -248 -116 -329c53 -61 110 -113 165 -146c5 -4 9 -10 9 -17c0 -12 -9 -20 -20 -20c-5 0 -8 1 -12 3c-57 35 -116 89 -170 151c-35 -31 -73 -49 -114 -49zM101 330
c0 -197 69 -298 201 -298c30 0 60 14 88 39c-45 54 -86 113 -121 170c-2 3 -3 6 -3 10c0 12 8 20 20 20c8 0 14 -4 18 -10c33 -54 72 -110 114 -161c59 70 102 185 102 299c0 159 -84 270 -201 270c-127 0 -218 -139 -218 -339z" />
    <glyph glyph-name="R" unicode="R" 
d="M545 -36c-5 0 -9 1 -12 4c-106 94 -250 199 -385 275c-4 2 -8 5 -10 9c-4 -80 -6 -152 -6 -207v-45c0 -11 -9 -20 -20 -20s-19 9 -20 19v46c0 152 16 417 39 647c2 11 11 18 22 18c252 -21 380 -101 380 -240c0 -130 -107 -205 -312 -222c120 -73 244 -166 337 -249
c4 -4 7 -9 7 -15c0 -11 -9 -20 -20 -20zM139 273c4 5 10 9 17 9c225 6 337 71 337 188c0 110 -107 177 -324 198c-12 -127 -23 -270 -30 -395z" />
    <glyph glyph-name="Racute" unicode="&#x154;" 
d="M545 -36c-5 0 -9 1 -12 4c-106 94 -250 199 -385 275c-4 2 -8 5 -10 9c-4 -80 -6 -152 -6 -207v-45c0 -11 -9 -20 -20 -20s-19 9 -20 19v46c0 152 16 417 39 647c2 11 11 18 22 18c252 -21 380 -101 380 -240c0 -130 -107 -205 -312 -222c120 -73 244 -166 337 -249
c4 -4 7 -9 7 -15c0 -11 -9 -20 -20 -20zM139 273c4 5 10 9 17 9c225 6 337 71 337 188c0 110 -107 177 -324 198c-12 -127 -23 -270 -30 -395zM189 798c0 7 3 13 8 16l202 151c3 3 7 4 12 4c11 0 20 -9 20 -20c0 -6 -3 -12 -8 -16l-202 -151c-3 -2 -7 -4 -12 -4
c-11 0 -20 9 -20 20z" />
    <glyph glyph-name="Rcaron" unicode="&#x158;" 
d="M545 -36c-5 0 -9 1 -12 4c-106 94 -250 199 -385 275c-4 2 -8 5 -10 9c-4 -80 -6 -152 -6 -207v-45c0 -11 -9 -20 -20 -20s-19 9 -20 19v46c0 152 16 417 39 647c2 11 11 18 22 18c252 -21 380 -101 380 -240c0 -130 -107 -205 -312 -222c120 -73 244 -166 337 -249
c4 -4 7 -9 7 -15c0 -11 -9 -20 -20 -20zM108 946c0 11 9 20 20 20c5 0 10 -2 14 -5c42 -40 94 -79 158 -122c64 40 123 80 180 123c3 3 7 4 12 4c11 0 20 -9 20 -20c0 -6 -3 -12 -8 -16c-65 -48 -129 -92 -193 -132c-3 -2 -7 -3 -11 -3s-8 2 -11 4c-71 46 -128 89 -175 133
c-4 3 -6 9 -6 14zM139 273c4 5 10 9 17 9c225 6 337 71 337 188c0 110 -107 177 -324 198c-12 -127 -23 -270 -30 -395z" />
    <glyph glyph-name="uni0156" unicode="&#x156;" 
d="M545 -36c-5 0 -9 1 -12 4c-106 94 -250 199 -385 275c-4 2 -8 5 -10 9c-4 -80 -6 -152 -6 -207v-45c0 -11 -9 -20 -20 -20s-19 9 -20 19v46c0 152 16 417 39 647c2 11 11 18 22 18c252 -21 380 -101 380 -240c0 -130 -107 -205 -312 -222c120 -73 244 -166 337 -249
c4 -4 7 -9 7 -15c0 -11 -9 -20 -20 -20zM139 273c4 5 10 9 17 9c225 6 337 71 337 188c0 110 -107 177 -324 198c-12 -127 -23 -270 -30 -395zM236 -243c0 5 2 10 5 14c35 40 79 114 90 145c3 8 11 13 19 13c11 0 20 -9 20 -20c0 -3 -1 -6 -2 -8c-13 -35 -60 -114 -97 -158
c-4 -4 -9 -6 -15 -6c-11 0 -20 9 -20 20z" />
    <glyph glyph-name="S" unicode="S" 
d="M293 -7c-98 0 -164 23 -225 81c-5 4 -7 9 -7 15c0 12 8 20 20 20c5 0 10 -2 13 -5c54 -51 110 -71 199 -71c122 0 210 82 210 190c0 86 -57 124 -211 132c-129 7 -186 48 -186 143c0 125 90 206 226 206c70 0 124 -10 176 -35c8 -3 12 -10 12 -18c0 -11 -8 -20 -20 -20
c-14 0 -51 33 -168 33c-114 0 -186 -64 -186 -166c0 -69 37 -98 147 -103c174 -9 250 -59 250 -172c0 -131 -106 -230 -250 -230z" />
    <glyph glyph-name="Sacute" unicode="&#x15a;" 
d="M293 -7c-98 0 -164 23 -225 81c-5 4 -7 9 -7 15c0 12 8 20 20 20c5 0 10 -2 13 -5c54 -51 110 -71 199 -71c122 0 210 82 210 190c0 86 -57 124 -211 132c-129 7 -186 48 -186 143c0 125 90 206 226 206c70 0 124 -10 176 -35c8 -3 12 -10 12 -18c0 -11 -8 -20 -20 -20
c-14 0 -51 33 -168 33c-114 0 -186 -64 -186 -166c0 -69 37 -98 147 -103c174 -9 250 -59 250 -172c0 -131 -106 -230 -250 -230zM189 798c0 7 3 13 8 16l202 151c3 3 7 4 12 4c11 0 20 -9 20 -20c0 -6 -3 -12 -8 -16l-202 -151c-3 -2 -7 -4 -12 -4c-11 0 -20 9 -20 20z" />
    <glyph glyph-name="Scaron" unicode="&#x160;" 
d="M293 -7c-98 0 -164 23 -225 81c-5 4 -7 9 -7 15c0 12 8 20 20 20c5 0 10 -2 13 -5c54 -51 110 -71 199 -71c122 0 210 82 210 190c0 86 -57 124 -211 132c-129 7 -186 48 -186 143c0 125 90 206 226 206c70 0 124 -10 176 -35c8 -3 12 -10 12 -18c0 -11 -8 -20 -20 -20
c-14 0 -51 33 -168 33c-114 0 -186 -64 -186 -166c0 -69 37 -98 147 -103c174 -9 250 -59 250 -172c0 -131 -106 -230 -250 -230zM108 946c0 11 9 20 20 20c5 0 10 -2 14 -5c42 -40 94 -79 158 -122c64 40 123 80 180 123c3 3 7 4 12 4c11 0 20 -9 20 -20
c0 -6 -3 -12 -8 -16c-65 -48 -129 -92 -193 -132c-3 -2 -7 -3 -11 -3s-8 2 -11 4c-71 46 -128 89 -175 133c-4 3 -6 9 -6 14z" />
    <glyph glyph-name="Scedilla" unicode="&#x15e;" 
d="M248 -234c-8 0 -15 0 -23 1c-10 1 -18 10 -18 20c0 12 9 20 21 20c2 0 11 -1 20 -1c73 0 125 36 125 82s-30 76 -85 87c-9 1 -17 9 -18 18c-86 4 -146 28 -202 81c-5 4 -7 9 -7 15c0 12 8 20 20 20c5 0 10 -2 13 -5c54 -51 110 -71 199 -71c122 0 210 82 210 190
c0 86 -57 124 -211 132c-129 7 -186 48 -186 143c0 125 90 206 226 206c70 0 124 -10 176 -35c8 -3 12 -10 12 -18c0 -11 -8 -20 -20 -20c-14 0 -51 33 -168 33c-114 0 -186 -64 -186 -166c0 -69 37 -98 147 -103c174 -9 250 -59 250 -172c0 -114 -80 -204 -196 -225
c42 -22 66 -61 66 -110c0 -71 -72 -122 -165 -122z" />
    <glyph glyph-name="Scircumflex" unicode="&#x15c;" 
d="M293 -7c-98 0 -164 23 -225 81c-5 4 -7 9 -7 15c0 12 8 20 20 20c5 0 10 -2 13 -5c54 -51 110 -71 199 -71c122 0 210 82 210 190c0 86 -57 124 -211 132c-129 7 -186 48 -186 143c0 125 90 206 226 206c70 0 124 -10 176 -35c8 -3 12 -10 12 -18c0 -11 -8 -20 -20 -20
c-14 0 -51 33 -168 33c-114 0 -186 -64 -186 -166c0 -69 37 -98 147 -103c174 -9 250 -59 250 -172c0 -131 -106 -230 -250 -230zM108 815c0 7 3 13 8 16c65 49 129 92 193 132c3 2 7 3 11 3s8 -1 11 -3c71 -46 128 -90 175 -133c4 -4 6 -9 6 -15c0 -11 -9 -20 -20 -20
c-5 0 -10 2 -14 6c-42 39 -94 79 -158 122c-64 -40 -123 -81 -180 -124c-3 -2 -7 -4 -12 -4c-11 0 -20 9 -20 20z" />
    <glyph glyph-name="uni0218" unicode="&#x218;" 
d="M293 -7c-98 0 -164 23 -225 81c-5 4 -7 9 -7 15c0 12 8 20 20 20c5 0 10 -2 13 -5c54 -51 110 -71 199 -71c122 0 210 82 210 190c0 86 -57 124 -211 132c-129 7 -186 48 -186 143c0 125 90 206 226 206c70 0 124 -10 176 -35c8 -3 12 -10 12 -18c0 -11 -8 -20 -20 -20
c-14 0 -51 33 -168 33c-114 0 -186 -64 -186 -166c0 -69 37 -98 147 -103c174 -9 250 -59 250 -172c0 -131 -106 -230 -250 -230zM236 -243c0 5 2 10 5 14c35 40 79 114 90 145c3 8 11 13 19 13c11 0 20 -9 20 -20c0 -3 -1 -6 -2 -8c-13 -35 -60 -114 -97 -158
c-4 -4 -9 -6 -15 -6c-11 0 -20 9 -20 20z" />
    <glyph glyph-name="uni1E9E" unicode="&#x1e9e;" 
d="M301 -18c-12 0 -20 9 -20 20s8 19 18 21c146 16 225 79 225 176c0 88 -58 146 -177 171c-10 2 -16 10 -16 20c0 4 1 9 4 12c54 75 115 187 153 264c-88 -7 -202 -10 -306 -10h-45c2 -104 3 -210 3 -308c0 -127 -2 -244 -5 -339c-1 -11 -10 -20 -20 -20
c-12 0 -20 9 -20 20c3 96 5 210 5 339c0 100 -1 204 -3 308l-24 1c-11 0 -20 10 -20 20c0 12 9 20 20 20c30 -1 70 -1 109 -1c218 0 330 13 340 13c12 0 20 -8 20 -20c0 -4 0 -6 -2 -9c-34 -74 -99 -193 -157 -279c119 -32 181 -102 181 -202c0 -120 -95 -198 -261 -216
c0 -1 -2 -1 -2 -1z" />
    <glyph glyph-name="uni018F" unicode="&#x18f;" 
d="M263 -8c-128 0 -212 104 -212 262c0 64 31 100 93 113c80 17 227 42 366 59c-12 156 -85 245 -206 245c-81 0 -148 -30 -221 -100c-4 -4 -9 -6 -15 -6c-11 0 -20 8 -20 20c0 5 3 10 6 14c81 77 158 112 250 112c154 0 247 -124 247 -327c0 -248 -105 -392 -288 -392z
M91 254c0 -137 67 -222 172 -222c159 0 248 126 248 351v3c-136 -17 -280 -42 -358 -59c-45 -8 -62 -28 -62 -73z" />
    <glyph glyph-name="T" unicode="T" 
d="M320 -10c-11 0 -20 8 -20 20c0 158 -9 454 -22 643c-35 -1 -70 -1 -105 -1c-41 0 -80 0 -118 1c-11 0 -20 10 -20 20c0 12 9 20 20 20c38 -1 76 -1 118 -1c230 0 381 13 388 13c11 0 20 -8 20 -20c0 -10 -8 -19 -19 -20c-75 -6 -159 -9 -244 -11c13 -191 22 -487 22 -644
c0 -12 -8 -20 -20 -20z" />
    <glyph glyph-name="Tbar" unicode="&#x166;" 
d="M320 -10c-11 0 -20 8 -20 20c0 82 -3 201 -7 323c-69 -6 -111 -13 -117 -13c-10 0 -18 7 -18 18c0 9 7 17 16 18c37 5 78 10 118 14c-4 101 -8 202 -14 283c-35 -1 -70 -1 -105 -1c-41 0 -80 0 -118 1c-11 0 -20 10 -20 20c0 12 9 20 20 20c38 -1 76 -1 118 -1
c230 0 381 13 388 13c11 0 20 -8 20 -20c0 -10 -8 -19 -19 -20c-75 -6 -159 -9 -244 -11c6 -81 10 -181 14 -281c45 4 90 7 131 8c10 0 18 -8 18 -19c0 -9 -8 -18 -18 -18c-48 -1 -92 -4 -130 -7c4 -124 7 -245 7 -327c0 -12 -8 -20 -20 -20z" />
    <glyph glyph-name="Tcaron" unicode="&#x164;" 
d="M320 -10c-11 0 -20 8 -20 20c0 158 -9 454 -22 643c-35 -1 -70 -1 -105 -1c-41 0 -80 0 -118 1c-11 0 -20 10 -20 20c0 12 9 20 20 20c38 -1 76 -1 118 -1c230 0 381 13 388 13c11 0 20 -8 20 -20c0 -10 -8 -19 -19 -20c-75 -6 -159 -9 -244 -11c13 -191 22 -487 22 -644
c0 -12 -8 -20 -20 -20zM108 946c0 11 9 20 20 20c5 0 10 -2 14 -5c42 -40 94 -79 158 -122c64 40 123 80 180 123c3 3 7 4 12 4c11 0 20 -9 20 -20c0 -6 -3 -12 -8 -16c-65 -48 -129 -92 -193 -132c-3 -2 -7 -3 -11 -3s-8 2 -11 4c-71 46 -128 89 -175 133c-4 3 -6 9 -6 14z
" />
    <glyph glyph-name="uni0162" unicode="&#x162;" 
d="M173 652c-41 0 -80 0 -118 1c-11 0 -20 10 -20 20c0 12 9 20 20 20c38 -1 76 -1 118 -1c230 0 381 13 388 13c11 0 20 -8 20 -20c0 -10 -8 -19 -19 -20c-75 -6 -159 -9 -244 -11c13 -191 22 -487 22 -644c0 -3 0 -6 -1 -8c47 -21 74 -62 74 -114
c0 -71 -72 -122 -165 -122c-8 0 -15 0 -23 1c-10 1 -18 10 -18 20c0 12 9 20 21 20c2 0 11 -1 20 -1c73 0 125 36 125 82s-30 76 -85 87c-10 1 -18 10 -18 20c0 11 9 20 20 20h4l6 -1c0 159 -9 452 -22 639c-35 -1 -70 -1 -105 -1z" />
    <glyph glyph-name="uni021A" unicode="&#x21a;" 
d="M320 -10c-11 0 -20 8 -20 20c0 158 -9 454 -22 643c-35 -1 -70 -1 -105 -1c-41 0 -80 0 -118 1c-11 0 -20 10 -20 20c0 12 9 20 20 20c38 -1 76 -1 118 -1c230 0 381 13 388 13c11 0 20 -8 20 -20c0 -10 -8 -19 -19 -20c-75 -6 -159 -9 -244 -11c13 -191 22 -487 22 -644
c0 -12 -8 -20 -20 -20zM236 -243c0 5 2 10 5 14c35 40 79 114 90 145c3 8 11 13 19 13c11 0 20 -9 20 -20c0 -3 -1 -6 -2 -8c-13 -35 -60 -114 -97 -158c-4 -4 -9 -6 -15 -6c-11 0 -20 9 -20 20z" />
    <glyph glyph-name="U" unicode="U" 
d="M308 -6c-145 0 -229 95 -229 258c0 104 9 275 20 425c1 11 9 19 20 19s20 -9 20 -20c0 -4 -20 -267 -20 -424c0 -141 67 -218 189 -218c135 0 201 84 201 259c0 194 -26 389 -26 397c0 11 9 20 20 20c10 0 19 -8 20 -18c14 -117 26 -282 26 -399
c0 -197 -82 -299 -241 -299z" />
    <glyph glyph-name="Uacute" unicode="&#xda;" 
d="M308 -6c-145 0 -229 95 -229 258c0 104 9 275 20 425c1 11 9 19 20 19s20 -9 20 -20c0 -4 -20 -267 -20 -424c0 -141 67 -218 189 -218c135 0 201 84 201 259c0 194 -26 389 -26 397c0 11 9 20 20 20c10 0 19 -8 20 -18c14 -117 26 -282 26 -399
c0 -197 -82 -299 -241 -299zM189 798c0 7 3 13 8 16l202 151c3 3 7 4 12 4c11 0 20 -9 20 -20c0 -6 -3 -12 -8 -16l-202 -151c-3 -2 -7 -4 -12 -4c-11 0 -20 9 -20 20z" />
    <glyph glyph-name="Ubreve" unicode="&#x16c;" 
d="M308 -6c-145 0 -229 95 -229 258c0 104 9 275 20 425c1 11 9 19 20 19s20 -9 20 -20c0 -4 -20 -267 -20 -424c0 -141 67 -218 189 -218c135 0 201 84 201 259c0 194 -26 389 -26 397c0 11 9 20 20 20c10 0 19 -8 20 -18c14 -117 26 -282 26 -399
c0 -197 -82 -299 -241 -299zM116 939c0 11 9 20 20 20c9 0 17 -6 19 -15c17 -59 84 -102 162 -102c76 0 134 41 147 103c2 9 10 16 20 16c11 0 20 -9 20 -20c0 -1 0 -3 -1 -4c-17 -81 -91 -135 -186 -135c-96 0 -178 54 -200 131c-1 2 -1 4 -1 6z" />
    <glyph glyph-name="Ucircumflex" unicode="&#xdb;" 
d="M308 -6c-145 0 -229 95 -229 258c0 104 9 275 20 425c1 11 9 19 20 19s20 -9 20 -20c0 -4 -20 -267 -20 -424c0 -141 67 -218 189 -218c135 0 201 84 201 259c0 194 -26 389 -26 397c0 11 9 20 20 20c10 0 19 -8 20 -18c14 -117 26 -282 26 -399
c0 -197 -82 -299 -241 -299zM108 815c0 7 3 13 8 16c65 49 129 92 193 132c3 2 7 3 11 3s8 -1 11 -3c71 -46 128 -90 175 -133c4 -4 6 -9 6 -15c0 -11 -9 -20 -20 -20c-5 0 -10 2 -14 6c-42 39 -94 79 -158 122c-64 -40 -123 -81 -180 -124c-3 -2 -7 -4 -12 -4
c-11 0 -20 9 -20 20z" />
    <glyph glyph-name="Udieresis" unicode="&#xdc;" 
d="M308 -6c-145 0 -229 95 -229 258c0 104 9 275 20 425c1 11 9 19 20 19s20 -9 20 -20c0 -4 -20 -267 -20 -424c0 -141 67 -218 189 -218c135 0 201 84 201 259c0 194 -26 389 -26 397c0 11 9 20 20 20c10 0 19 -8 20 -18c14 -117 26 -282 26 -399
c0 -197 -82 -299 -241 -299zM189 869c0 10 1 19 3 29s10 16 20 16c12 0 20 -8 20 -20c0 -4 -3 -15 -3 -25c0 -20 6 -42 6 -48c0 -11 -8 -20 -20 -20c-10 0 -18 8 -20 17c-4 20 -6 37 -6 51zM388 832c0 6 2 11 2 32c0 28 -1 38 -1 42c0 12 9 20 20 20s20 -8 20 -19
c1 -10 1 -27 1 -43c0 -14 0 -27 -2 -35c-2 -10 -10 -17 -20 -17c-11 0 -20 9 -20 20z" />
    <glyph glyph-name="Ugrave" unicode="&#xd9;" 
d="M308 -6c-145 0 -229 95 -229 258c0 104 9 275 20 425c1 11 9 19 20 19s20 -9 20 -20c0 -4 -20 -267 -20 -424c0 -141 67 -218 189 -218c135 0 201 84 201 259c0 194 -26 389 -26 397c0 11 9 20 20 20c10 0 19 -8 20 -18c14 -117 26 -282 26 -399
c0 -197 -82 -299 -241 -299zM189 946c0 11 9 20 20 20c5 0 9 -1 12 -4l202 -151c5 -3 8 -9 8 -16c0 -11 -9 -20 -20 -20c-5 0 -9 2 -12 4l-202 151c-5 4 -8 10 -8 16z" />
    <glyph glyph-name="Uhungarumlaut" unicode="&#x170;" 
d="M308 -6c-145 0 -229 95 -229 258c0 104 9 275 20 425c1 11 9 19 20 19s20 -9 20 -20c0 -4 -20 -267 -20 -424c0 -141 67 -218 189 -218c135 0 201 84 201 259c0 194 -26 389 -26 397c0 11 9 20 20 20c10 0 19 -8 20 -18c14 -117 26 -282 26 -399
c0 -197 -82 -299 -241 -299zM166 815c0 5 1 10 5 13c48 57 95 107 143 153c3 3 8 5 14 5c11 0 20 -9 20 -20c0 -5 -3 -11 -7 -14c-46 -44 -92 -94 -140 -150c-4 -4 -9 -7 -15 -7c-11 0 -20 9 -20 20zM369 815c0 5 2 10 5 13c48 57 95 107 143 153c4 3 9 5 14 5
c11 0 20 -9 20 -20c0 -5 -2 -10 -6 -14c-46 -44 -93 -94 -141 -150c-3 -4 -9 -7 -15 -7c-11 0 -20 9 -20 20z" />
    <glyph glyph-name="Umacron" unicode="&#x16a;" 
d="M308 -6c-145 0 -229 95 -229 258c0 104 9 275 20 425c1 11 9 19 20 19s20 -9 20 -20c0 -4 -20 -267 -20 -424c0 -141 67 -218 189 -218c135 0 201 84 201 259c0 194 -26 389 -26 397c0 11 9 20 20 20c10 0 19 -8 20 -18c14 -117 26 -282 26 -399
c0 -197 -82 -299 -241 -299zM102 831c0 11 8 19 18 20c106 15 288 22 377 22c12 0 20 -8 20 -20c0 -11 -8 -20 -20 -20c-216 0 -370 -22 -375 -22c-11 0 -20 9 -20 20z" />
    <glyph glyph-name="Uogonek" unicode="&#x172;" 
d="M308 -6c-145 0 -229 95 -229 258c0 104 9 275 20 425c1 11 9 19 20 19s20 -9 20 -20c0 -4 -20 -267 -20 -424c0 -141 67 -218 189 -218c135 0 201 84 201 259c0 194 -26 389 -26 397c0 11 9 20 20 20c10 0 19 -8 20 -18c14 -117 26 -282 26 -399
c0 -151 -48 -246 -142 -282c0 -1 -1 -1 -2 -2c-66 -34 -114 -84 -114 -118c0 -29 26 -50 59 -50c32 0 70 15 97 38c3 3 8 5 13 5c12 0 20 -9 20 -20c0 -6 -2 -12 -7 -16c-33 -28 -82 -47 -123 -47c-55 0 -99 37 -99 87c0 34 25 72 66 106h-9z" />
    <glyph glyph-name="Uring" unicode="&#x16e;" 
d="M308 -6c-145 0 -229 95 -229 258c0 104 9 275 20 425c1 11 9 19 20 19s20 -9 20 -20c0 -4 -20 -267 -20 -424c0 -141 67 -218 189 -218c135 0 201 84 201 259c0 194 -26 389 -26 397c0 11 9 20 20 20c10 0 19 -8 20 -18c14 -117 26 -282 26 -399
c0 -197 -82 -299 -241 -299zM182 910c0 71 59 133 127 133c63 0 128 -61 128 -123c0 -68 -57 -129 -122 -129c-79 0 -133 47 -133 119zM215 910c0 -53 38 -86 100 -86c47 0 89 46 89 96c0 43 -50 90 -95 90c-48 0 -94 -47 -94 -100z" />
    <glyph glyph-name="Utilde" unicode="&#x168;" 
d="M308 -6c-145 0 -229 95 -229 258c0 104 9 275 20 425c1 11 9 19 20 19s20 -9 20 -20c0 -4 -20 -267 -20 -424c0 -141 67 -218 189 -218c135 0 201 84 201 259c0 194 -26 389 -26 397c0 11 9 20 20 20c10 0 19 -8 20 -18c14 -117 26 -282 26 -399
c0 -197 -82 -299 -241 -299zM77 814v4c15 78 72 133 141 133c52 0 83 -29 113 -60c27 -28 48 -49 85 -49c44 0 79 40 87 102c1 10 10 17 20 17c11 0 20 -9 20 -20v-3c-11 -81 -62 -136 -127 -136c-52 0 -83 30 -113 61c-27 27 -48 48 -85 48c-49 0 -90 -40 -101 -100
c-2 -9 -10 -17 -20 -17c-11 0 -20 9 -20 20z" />
    <glyph glyph-name="V" unicode="V" 
d="M295 -19c-8 0 -15 4 -19 11c-79 165 -185 468 -232 678c-1 4 -1 6 -1 8c0 12 9 20 20 20c10 0 18 -6 20 -16c42 -193 134 -461 208 -627c76 247 166 489 243 654c3 7 10 12 18 12c12 0 20 -9 20 -20c0 -4 0 -7 -2 -9c-82 -177 -179 -439 -256 -697c-3 -8 -9 -14 -19 -14z
" />
    <glyph glyph-name="W" unicode="W" 
d="M186 -22c-10 0 -18 7 -20 16c-75 334 -118 527 -139 668c-1 1 -1 2 -1 3c0 11 9 20 20 20c10 0 19 -7 20 -17c20 -129 64 -329 121 -588c23 88 90 346 112 446c2 9 10 16 20 16s18 -7 20 -16c16 -72 47 -181 120 -430c19 122 75 438 97 600c1 10 9 18 20 18s20 -9 20 -20
c-1 -47 -78 -472 -111 -687c-1 -9 -10 -17 -20 -17c-9 0 -17 6 -19 15c-11 41 -104 355 -126 442c-24 -97 -98 -383 -115 -453c-2 -9 -10 -16 -19 -16z" />
    <glyph glyph-name="Wacute" unicode="&#x1e82;" 
d="M186 -22c-10 0 -18 7 -20 16c-75 334 -118 527 -139 668c-1 1 -1 2 -1 3c0 11 9 20 20 20c10 0 19 -7 20 -17c20 -129 64 -329 121 -588c23 88 90 346 112 446c2 9 10 16 20 16s18 -7 20 -16c16 -72 47 -181 120 -430c19 122 75 438 97 600c1 10 9 18 20 18s20 -9 20 -20
c-1 -47 -78 -472 -111 -687c-1 -9 -10 -17 -20 -17c-9 0 -17 6 -19 15c-11 41 -104 355 -126 442c-24 -97 -98 -383 -115 -453c-2 -9 -10 -16 -19 -16zM189 798c0 7 3 13 8 16l202 151c3 3 7 4 12 4c11 0 20 -9 20 -20c0 -6 -3 -12 -8 -16l-202 -151c-3 -2 -7 -4 -12 -4
c-11 0 -20 9 -20 20z" />
    <glyph glyph-name="Wcircumflex" unicode="&#x174;" 
d="M186 -22c-10 0 -18 7 -20 16c-75 334 -118 527 -139 668c-1 1 -1 2 -1 3c0 11 9 20 20 20c10 0 19 -7 20 -17c20 -129 64 -329 121 -588c23 88 90 346 112 446c2 9 10 16 20 16s18 -7 20 -16c16 -72 47 -181 120 -430c19 122 75 438 97 600c1 10 9 18 20 18s20 -9 20 -20
c-1 -47 -78 -472 -111 -687c-1 -9 -10 -17 -20 -17c-9 0 -17 6 -19 15c-11 41 -104 355 -126 442c-24 -97 -98 -383 -115 -453c-2 -9 -10 -16 -19 -16zM108 815c0 7 3 13 8 16c65 49 129 92 193 132c3 2 7 3 11 3s8 -1 11 -3c71 -46 128 -90 175 -133c4 -4 6 -9 6 -15
c0 -11 -9 -20 -20 -20c-5 0 -10 2 -14 6c-42 39 -94 79 -158 122c-64 -40 -123 -81 -180 -124c-3 -2 -7 -4 -12 -4c-11 0 -20 9 -20 20z" />
    <glyph glyph-name="Wdieresis" unicode="&#x1e84;" 
d="M186 -22c-10 0 -18 7 -20 16c-75 334 -118 527 -139 668c-1 1 -1 2 -1 3c0 11 9 20 20 20c10 0 19 -7 20 -17c20 -129 64 -329 121 -588c23 88 90 346 112 446c2 9 10 16 20 16s18 -7 20 -16c16 -72 47 -181 120 -430c19 122 75 438 97 600c1 10 9 18 20 18s20 -9 20 -20
c-1 -47 -78 -472 -111 -687c-1 -9 -10 -17 -20 -17c-9 0 -17 6 -19 15c-11 41 -104 355 -126 442c-24 -97 -98 -383 -115 -453c-2 -9 -10 -16 -19 -16zM189 869c0 10 1 19 3 29s10 16 20 16c12 0 20 -8 20 -20c0 -4 -3 -15 -3 -25c0 -20 6 -42 6 -48c0 -11 -8 -20 -20 -20
c-10 0 -18 8 -20 17c-4 20 -6 37 -6 51zM388 832c0 6 2 11 2 32c0 28 -1 38 -1 42c0 12 9 20 20 20s20 -8 20 -19c1 -10 1 -27 1 -43c0 -14 0 -27 -2 -35c-2 -10 -10 -17 -20 -17c-11 0 -20 9 -20 20z" />
    <glyph glyph-name="Wgrave" unicode="&#x1e80;" 
d="M186 -22c-10 0 -18 7 -20 16c-75 334 -118 527 -139 668c-1 1 -1 2 -1 3c0 11 9 20 20 20c10 0 19 -7 20 -17c20 -129 64 -329 121 -588c23 88 90 346 112 446c2 9 10 16 20 16s18 -7 20 -16c16 -72 47 -181 120 -430c19 122 75 438 97 600c1 10 9 18 20 18s20 -9 20 -20
c-1 -47 -78 -472 -111 -687c-1 -9 -10 -17 -20 -17c-9 0 -17 6 -19 15c-11 41 -104 355 -126 442c-24 -97 -98 -383 -115 -453c-2 -9 -10 -16 -19 -16zM189 946c0 11 9 20 20 20c5 0 9 -1 12 -4l202 -151c5 -3 8 -9 8 -16c0 -11 -9 -20 -20 -20c-5 0 -9 2 -12 4l-202 151
c-5 4 -8 10 -8 16z" />
    <glyph glyph-name="X" unicode="X" 
d="M52 -11c-11 0 -20 8 -20 20c0 4 2 9 5 12c73 91 163 212 234 317c-77 116 -140 231 -184 339c-1 2 -2 5 -2 8c0 11 9 20 20 20c9 0 16 -6 19 -12c42 -102 99 -210 171 -319c74 111 171 242 238 331c4 4 10 8 16 8c12 0 20 -9 20 -20c0 -5 -2 -9 -4 -13
c-70 -91 -171 -229 -246 -341c54 -79 177 -238 243 -319c3 -2 5 -8 5 -12c0 -12 -8 -20 -20 -20c-6 0 -12 2 -15 7c-64 76 -180 225 -237 308c-70 -104 -156 -219 -227 -307c-4 -4 -10 -7 -16 -7z" />
    <glyph glyph-name="Y" unicode="Y" 
d="M312 -10c-11 0 -20 8 -20 20c3 63 6 150 9 244c-64 117 -161 287 -241 414c-2 3 -4 7 -4 12c0 11 9 20 20 20c7 0 13 -4 17 -9c75 -119 165 -275 228 -390c81 126 156 271 209 404c3 7 10 12 18 12c12 0 20 -8 20 -20c0 -3 0 -6 -2 -9c-55 -138 -136 -296 -225 -430
c-3 -94 -6 -181 -9 -249c0 -11 -9 -19 -20 -19z" />
    <glyph glyph-name="Yacute" unicode="&#xdd;" 
d="M312 -10c-11 0 -20 8 -20 20c3 63 6 150 9 244c-64 117 -161 287 -241 414c-2 3 -4 7 -4 12c0 11 9 20 20 20c7 0 13 -4 17 -9c75 -119 165 -275 228 -390c81 126 156 271 209 404c3 7 10 12 18 12c12 0 20 -8 20 -20c0 -3 0 -6 -2 -9c-55 -138 -136 -296 -225 -430
c-3 -94 -6 -181 -9 -249c0 -11 -9 -19 -20 -19zM189 798c0 7 3 13 8 16l202 151c3 3 7 4 12 4c11 0 20 -9 20 -20c0 -6 -3 -12 -8 -16l-202 -151c-3 -2 -7 -4 -12 -4c-11 0 -20 9 -20 20z" />
    <glyph glyph-name="Ycircumflex" unicode="&#x176;" 
d="M312 -10c-11 0 -20 8 -20 20c3 63 6 150 9 244c-64 117 -161 287 -241 414c-2 3 -4 7 -4 12c0 11 9 20 20 20c7 0 13 -4 17 -9c75 -119 165 -275 228 -390c81 126 156 271 209 404c3 7 10 12 18 12c12 0 20 -8 20 -20c0 -3 0 -6 -2 -9c-55 -138 -136 -296 -225 -430
c-3 -94 -6 -181 -9 -249c0 -11 -9 -19 -20 -19zM108 815c0 7 3 13 8 16c65 49 129 92 193 132c3 2 7 3 11 3s8 -1 11 -3c71 -46 128 -90 175 -133c4 -4 6 -9 6 -15c0 -11 -9 -20 -20 -20c-5 0 -10 2 -14 6c-42 39 -94 79 -158 122c-64 -40 -123 -81 -180 -124
c-3 -2 -7 -4 -12 -4c-11 0 -20 9 -20 20z" />
    <glyph glyph-name="Ydieresis" unicode="&#x178;" 
d="M312 -10c-11 0 -20 8 -20 20c3 63 6 150 9 244c-64 117 -161 287 -241 414c-2 3 -4 7 -4 12c0 11 9 20 20 20c7 0 13 -4 17 -9c75 -119 165 -275 228 -390c81 126 156 271 209 404c3 7 10 12 18 12c12 0 20 -8 20 -20c0 -3 0 -6 -2 -9c-55 -138 -136 -296 -225 -430
c-3 -94 -6 -181 -9 -249c0 -11 -9 -19 -20 -19zM189 869c0 10 1 19 3 29s10 16 20 16c12 0 20 -8 20 -20c0 -4 -3 -15 -3 -25c0 -20 6 -42 6 -48c0 -11 -8 -20 -20 -20c-10 0 -18 8 -20 17c-4 20 -6 37 -6 51zM388 832c0 6 2 11 2 32c0 28 -1 38 -1 42c0 12 9 20 20 20
s20 -8 20 -19c1 -10 1 -27 1 -43c0 -14 0 -27 -2 -35c-2 -10 -10 -17 -20 -17c-11 0 -20 9 -20 20z" />
    <glyph glyph-name="Ygrave" unicode="&#x1ef2;" 
d="M312 -10c-11 0 -20 8 -20 20c3 63 6 150 9 244c-64 117 -161 287 -241 414c-2 3 -4 7 -4 12c0 11 9 20 20 20c7 0 13 -4 17 -9c75 -119 165 -275 228 -390c81 126 156 271 209 404c3 7 10 12 18 12c12 0 20 -8 20 -20c0 -3 0 -6 -2 -9c-55 -138 -136 -296 -225 -430
c-3 -94 -6 -181 -9 -249c0 -11 -9 -19 -20 -19zM189 946c0 11 9 20 20 20c5 0 9 -1 12 -4l202 -151c5 -3 8 -9 8 -16c0 -11 -9 -20 -20 -20c-5 0 -9 2 -12 4l-202 151c-5 4 -8 10 -8 16z" />
    <glyph glyph-name="Z" unicode="Z" 
d="M76 -6c-12 0 -20 9 -20 20c0 4 0 7 2 11c136 245 292 487 415 640c-95 -6 -193 -10 -274 -10c-51 0 -95 2 -127 4c-10 1 -18 10 -18 20c0 12 8 20 20 20c11 0 46 -5 125 -4c143 2 311 13 319 13c12 0 20 -8 20 -20c0 -5 -2 -10 -5 -13c-120 -144 -281 -388 -420 -639
c62 4 130 4 198 4c172 0 221 6 225 6c12 0 20 -8 20 -20c0 -10 -8 -19 -18 -20c-71 -5 -149 -6 -227 -6c-188 0 -229 -6 -235 -6z" />
    <glyph glyph-name="Zacute" unicode="&#x179;" 
d="M76 -6c-12 0 -20 9 -20 20c0 4 0 7 2 11c136 245 292 487 415 640c-95 -6 -193 -10 -274 -10c-51 0 -95 2 -127 4c-10 1 -18 10 -18 20c0 12 8 20 20 20c11 0 46 -5 125 -4c143 2 311 13 319 13c12 0 20 -8 20 -20c0 -5 -2 -10 -5 -13c-120 -144 -281 -388 -420 -639
c62 4 130 4 198 4c172 0 221 6 225 6c12 0 20 -8 20 -20c0 -10 -8 -19 -18 -20c-71 -5 -149 -6 -227 -6c-188 0 -229 -6 -235 -6zM189 798c0 7 3 13 8 16l202 151c3 3 7 4 12 4c11 0 20 -9 20 -20c0 -6 -3 -12 -8 -16l-202 -151c-3 -2 -7 -4 -12 -4c-11 0 -20 9 -20 20z" />
    <glyph glyph-name="Zcaron" unicode="&#x17d;" 
d="M76 -6c-12 0 -20 9 -20 20c0 4 0 7 2 11c136 245 292 487 415 640c-95 -6 -193 -10 -274 -10c-51 0 -95 2 -127 4c-10 1 -18 10 -18 20c0 12 8 20 20 20c11 0 46 -5 125 -4c143 2 311 13 319 13c12 0 20 -8 20 -20c0 -5 -2 -10 -5 -13c-120 -144 -281 -388 -420 -639
c62 4 130 4 198 4c172 0 221 6 225 6c12 0 20 -8 20 -20c0 -10 -8 -19 -18 -20c-71 -5 -149 -6 -227 -6c-188 0 -229 -6 -235 -6zM108 946c0 11 9 20 20 20c5 0 10 -2 14 -5c42 -40 94 -79 158 -122c64 40 123 80 180 123c3 3 7 4 12 4c11 0 20 -9 20 -20
c0 -6 -3 -12 -8 -16c-65 -48 -129 -92 -193 -132c-3 -2 -7 -3 -11 -3s-8 2 -11 4c-71 46 -128 89 -175 133c-4 3 -6 9 -6 14z" />
    <glyph glyph-name="Zdotaccent" unicode="&#x17b;" 
d="M76 -6c-12 0 -20 9 -20 20c0 4 0 7 2 11c136 245 292 487 415 640c-95 -6 -193 -10 -274 -10c-51 0 -95 2 -127 4c-10 1 -18 10 -18 20c0 12 8 20 20 20c11 0 46 -5 125 -4c143 2 311 13 319 13c12 0 20 -8 20 -20c0 -5 -2 -10 -5 -13c-120 -144 -281 -388 -420 -639
c62 4 130 4 198 4c172 0 221 6 225 6c12 0 20 -8 20 -20c0 -10 -8 -19 -18 -20c-71 -5 -149 -6 -227 -6c-188 0 -229 -6 -235 -6zM268 887c0 39 14 60 44 60c23 0 41 -18 41 -42s-17 -59 -40 -82c-3 -4 -8 -7 -14 -7s-12 3 -15 8c-7 3 -12 9 -13 16c-2 19 -3 34 -3 47z" />
    <glyph glyph-name="Y.ss02" 
d="M152 -34c-11 0 -20 8 -20 20c0 5 2 10 6 14c54 59 107 134 158 217c-65 133 -159 316 -237 456c-2 4 -3 7 -3 11c0 11 9 20 20 20c8 0 14 -4 17 -10c74 -133 164 -305 227 -436c85 144 159 308 209 450c3 8 11 13 19 13c12 0 20 -8 20 -20c0 -2 0 -5 -1 -7
c-87 -244 -245 -550 -401 -722c-3 -4 -8 -6 -14 -6z" />
    <glyph glyph-name="Yacute.ss02" 
d="M152 -34c-11 0 -20 8 -20 20c0 5 2 10 6 14c54 59 107 134 158 217c-65 133 -159 316 -237 456c-2 4 -3 7 -3 11c0 11 9 20 20 20c8 0 14 -4 17 -10c74 -133 164 -305 227 -436c85 144 159 308 209 450c3 8 11 13 19 13c12 0 20 -8 20 -20c0 -2 0 -5 -1 -7
c-87 -244 -245 -550 -401 -722c-3 -4 -8 -6 -14 -6zM189 798c0 7 3 13 8 16l202 151c3 3 7 4 12 4c11 0 20 -9 20 -20c0 -6 -3 -12 -8 -16l-202 -151c-3 -2 -7 -4 -12 -4c-11 0 -20 9 -20 20z" />
    <glyph glyph-name="Ycircumflex.ss02" 
d="M152 -34c-11 0 -20 8 -20 20c0 5 2 10 6 14c54 59 107 134 158 217c-65 133 -159 316 -237 456c-2 4 -3 7 -3 11c0 11 9 20 20 20c8 0 14 -4 17 -10c74 -133 164 -305 227 -436c85 144 159 308 209 450c3 8 11 13 19 13c12 0 20 -8 20 -20c0 -2 0 -5 -1 -7
c-87 -244 -245 -550 -401 -722c-3 -4 -8 -6 -14 -6zM108 815c0 7 3 13 8 16c65 49 129 92 193 132c3 2 7 3 11 3s8 -1 11 -3c71 -46 128 -90 175 -133c4 -4 6 -9 6 -15c0 -11 -9 -20 -20 -20c-5 0 -10 2 -14 6c-42 39 -94 79 -158 122c-64 -40 -123 -81 -180 -124
c-3 -2 -7 -4 -12 -4c-11 0 -20 9 -20 20z" />
    <glyph glyph-name="Ydieresis.ss02" 
d="M152 -34c-11 0 -20 8 -20 20c0 5 2 10 6 14c54 59 107 134 158 217c-65 133 -159 316 -237 456c-2 4 -3 7 -3 11c0 11 9 20 20 20c8 0 14 -4 17 -10c74 -133 164 -305 227 -436c85 144 159 308 209 450c3 8 11 13 19 13c12 0 20 -8 20 -20c0 -2 0 -5 -1 -7
c-87 -244 -245 -550 -401 -722c-3 -4 -8 -6 -14 -6zM189 869c0 10 1 19 3 29s10 16 20 16c12 0 20 -8 20 -20c0 -4 -3 -15 -3 -25c0 -20 6 -42 6 -48c0 -11 -8 -20 -20 -20c-10 0 -18 8 -20 17c-4 20 -6 37 -6 51zM388 832c0 6 2 11 2 32c0 28 -1 38 -1 42c0 12 9 20 20 20
s20 -8 20 -19c1 -10 1 -27 1 -43c0 -14 0 -27 -2 -35c-2 -10 -10 -17 -20 -17c-11 0 -20 9 -20 20z" />
    <glyph glyph-name="Ygrave.ss02" 
d="M152 -34c-11 0 -20 8 -20 20c0 5 2 10 6 14c54 59 107 134 158 217c-65 133 -159 316 -237 456c-2 4 -3 7 -3 11c0 11 9 20 20 20c8 0 14 -4 17 -10c74 -133 164 -305 227 -436c85 144 159 308 209 450c3 8 11 13 19 13c12 0 20 -8 20 -20c0 -2 0 -5 -1 -7
c-87 -244 -245 -550 -401 -722c-3 -4 -8 -6 -14 -6zM189 946c0 11 9 20 20 20c5 0 9 -1 12 -4l202 -151c5 -3 8 -9 8 -16c0 -11 -9 -20 -20 -20c-5 0 -9 2 -12 4l-202 151c-5 4 -8 10 -8 16z" />
    <glyph glyph-name="a" unicode="a" 
d="M517 -30c-10 0 -20 8 -20 19c-2 29 -5 62 -8 97c-61 -58 -148 -94 -231 -94c-112 0 -179 53 -179 146c0 105 86 165 231 165c53 0 111 -9 159 -25l-7 59c-15 127 -58 179 -147 179c-48 0 -101 -17 -154 -49c-3 -2 -6 -3 -10 -3c-11 0 -20 8 -20 20c0 7 4 14 11 18
c58 35 118 54 173 54c112 0 169 -67 187 -215c11 -95 28 -249 35 -351c0 -11 -8 -20 -20 -20zM119 138c0 -69 47 -106 139 -106c83 0 170 39 226 101c-3 34 -7 69 -10 103c-48 17 -108 27 -164 27c-124 0 -191 -45 -191 -125z" />
    <glyph glyph-name="aacute" unicode="&#xe1;" 
d="M517 -30c-10 0 -20 8 -20 19c-2 29 -5 62 -8 97c-61 -58 -148 -94 -231 -94c-112 0 -179 53 -179 146c0 105 86 165 231 165c53 0 111 -9 159 -25l-7 59c-15 127 -58 179 -147 179c-48 0 -101 -17 -154 -49c-3 -2 -6 -3 -10 -3c-11 0 -20 8 -20 20c0 7 4 14 11 18
c58 35 118 54 173 54c112 0 169 -67 187 -215c11 -95 28 -249 35 -351c0 -11 -8 -20 -20 -20zM119 138c0 -69 47 -106 139 -106c83 0 170 39 226 101c-3 34 -7 69 -10 103c-48 17 -108 27 -164 27c-124 0 -191 -45 -191 -125zM189 641c0 7 3 13 8 16l202 151c3 3 7 4 12 4
c11 0 20 -9 20 -20c0 -6 -3 -12 -8 -16l-202 -151c-3 -2 -7 -4 -12 -4c-11 0 -20 9 -20 20z" />
    <glyph glyph-name="abreve" unicode="&#x103;" 
d="M517 -30c-10 0 -20 8 -20 19c-2 29 -5 62 -8 97c-61 -58 -148 -94 -231 -94c-112 0 -179 53 -179 146c0 105 86 165 231 165c53 0 111 -9 159 -25l-7 59c-15 127 -58 179 -147 179c-48 0 -101 -17 -154 -49c-3 -2 -6 -3 -10 -3c-11 0 -20 8 -20 20c0 7 4 14 11 18
c58 35 118 54 173 54c112 0 169 -67 187 -215c11 -95 28 -249 35 -351c0 -11 -8 -20 -20 -20zM116 782c0 11 9 20 20 20c9 0 17 -6 19 -15c17 -59 84 -102 162 -102c76 0 134 41 147 103c2 9 10 16 20 16c11 0 20 -9 20 -20c0 -1 0 -3 -1 -4c-17 -81 -91 -135 -186 -135
c-96 0 -178 54 -200 131c-1 2 -1 4 -1 6zM119 138c0 -69 47 -106 139 -106c83 0 170 39 226 101c-3 34 -7 69 -10 103c-48 17 -108 27 -164 27c-124 0 -191 -45 -191 -125z" />
    <glyph glyph-name="acircumflex" unicode="&#xe2;" 
d="M517 -30c-10 0 -20 8 -20 19c-2 29 -5 62 -8 97c-61 -58 -148 -94 -231 -94c-112 0 -179 53 -179 146c0 105 86 165 231 165c53 0 111 -9 159 -25l-7 59c-15 127 -58 179 -147 179c-48 0 -101 -17 -154 -49c-3 -2 -6 -3 -10 -3c-11 0 -20 8 -20 20c0 7 4 14 11 18
c58 35 118 54 173 54c112 0 169 -67 187 -215c11 -95 28 -249 35 -351c0 -11 -8 -20 -20 -20zM108 658c0 7 3 13 8 16c65 49 129 92 193 132c3 2 7 3 11 3s8 -1 11 -3c71 -46 128 -90 175 -133c4 -4 6 -9 6 -15c0 -11 -9 -20 -20 -20c-5 0 -10 2 -14 6
c-42 39 -94 79 -158 122c-64 -40 -123 -81 -180 -124c-3 -2 -7 -4 -12 -4c-11 0 -20 9 -20 20zM119 138c0 -69 47 -106 139 -106c83 0 170 39 226 101c-3 34 -7 69 -10 103c-48 17 -108 27 -164 27c-124 0 -191 -45 -191 -125z" />
    <glyph glyph-name="adieresis" unicode="&#xe4;" 
d="M517 -30c-10 0 -20 8 -20 19c-2 29 -5 62 -8 97c-61 -58 -148 -94 -231 -94c-112 0 -179 53 -179 146c0 105 86 165 231 165c53 0 111 -9 159 -25l-7 59c-15 127 -58 179 -147 179c-48 0 -101 -17 -154 -49c-3 -2 -6 -3 -10 -3c-11 0 -20 8 -20 20c0 7 4 14 11 18
c58 35 118 54 173 54c112 0 169 -67 187 -215c11 -95 28 -249 35 -351c0 -11 -8 -20 -20 -20zM119 138c0 -69 47 -106 139 -106c83 0 170 39 226 101c-3 34 -7 69 -10 103c-48 17 -108 27 -164 27c-124 0 -191 -45 -191 -125zM189 712c0 10 1 19 3 29s10 16 20 16
c12 0 20 -8 20 -20c0 -4 -3 -15 -3 -25c0 -20 6 -42 6 -48c0 -11 -8 -20 -20 -20c-10 0 -18 8 -20 17c-4 20 -6 37 -6 51zM388 675c0 6 2 11 2 32c0 28 -1 38 -1 42c0 12 9 20 20 20s20 -8 20 -19c1 -10 1 -27 1 -43c0 -14 0 -27 -2 -35c-2 -10 -10 -17 -20 -17
c-11 0 -20 9 -20 20z" />
    <glyph glyph-name="agrave" unicode="&#xe0;" 
d="M517 -30c-10 0 -20 8 -20 19c-2 29 -5 62 -8 97c-61 -58 -148 -94 -231 -94c-112 0 -179 53 -179 146c0 105 86 165 231 165c53 0 111 -9 159 -25l-7 59c-15 127 -58 179 -147 179c-48 0 -101 -17 -154 -49c-3 -2 -6 -3 -10 -3c-11 0 -20 8 -20 20c0 7 4 14 11 18
c58 35 118 54 173 54c112 0 169 -67 187 -215c11 -95 28 -249 35 -351c0 -11 -8 -20 -20 -20zM119 138c0 -69 47 -106 139 -106c83 0 170 39 226 101c-3 34 -7 69 -10 103c-48 17 -108 27 -164 27c-124 0 -191 -45 -191 -125zM189 789c0 11 9 20 20 20c5 0 9 -1 12 -4
l202 -151c5 -3 8 -9 8 -16c0 -11 -9 -20 -20 -20c-5 0 -9 2 -12 4l-202 151c-5 4 -8 10 -8 16z" />
    <glyph glyph-name="amacron" unicode="&#x101;" 
d="M517 -30c-10 0 -20 8 -20 19c-2 29 -5 62 -8 97c-61 -58 -148 -94 -231 -94c-112 0 -179 53 -179 146c0 105 86 165 231 165c53 0 111 -9 159 -25l-7 59c-15 127 -58 179 -147 179c-48 0 -101 -17 -154 -49c-3 -2 -6 -3 -10 -3c-11 0 -20 8 -20 20c0 7 4 14 11 18
c58 35 118 54 173 54c112 0 169 -67 187 -215c11 -95 28 -249 35 -351c0 -11 -8 -20 -20 -20zM102 674c0 11 8 19 18 20c106 15 288 22 377 22c12 0 20 -8 20 -20c0 -11 -8 -20 -20 -20c-216 0 -370 -22 -375 -22c-11 0 -20 9 -20 20zM119 138c0 -69 47 -106 139 -106
c83 0 170 39 226 101c-3 34 -7 69 -10 103c-48 17 -108 27 -164 27c-124 0 -191 -45 -191 -125z" />
    <glyph glyph-name="aogonek" unicode="&#x105;" 
d="M258 -8c-112 0 -179 53 -179 146c0 105 86 165 231 165c53 0 111 -9 159 -25l-7 59c-15 127 -58 179 -147 179c-48 0 -101 -17 -154 -49c-3 -2 -6 -3 -10 -3c-11 0 -20 8 -20 20c0 7 4 14 11 18c58 35 118 54 173 54c112 0 169 -67 187 -215c11 -95 28 -249 35 -351
c0 -6 -2 -11 -6 -15l-4 -3c-66 -34 -114 -84 -114 -118c0 -29 26 -50 59 -50c32 0 70 15 97 38c3 3 8 5 13 5c12 0 20 -9 20 -20c0 -6 -2 -12 -7 -16c-33 -28 -82 -47 -123 -47c-55 0 -99 37 -99 87c0 47 48 103 124 144l-8 91c-61 -58 -148 -94 -231 -94zM119 138
c0 -69 47 -106 139 -106c83 0 170 39 226 101c-3 34 -7 69 -10 103c-48 17 -108 27 -164 27c-124 0 -191 -45 -191 -125z" />
    <glyph glyph-name="aring" unicode="&#xe5;" 
d="M517 -30c-10 0 -20 8 -20 19c-2 29 -5 62 -8 97c-61 -58 -148 -94 -231 -94c-112 0 -179 53 -179 146c0 105 86 165 231 165c53 0 111 -9 159 -25l-7 59c-15 127 -58 179 -147 179c-48 0 -101 -17 -154 -49c-3 -2 -6 -3 -10 -3c-11 0 -20 8 -20 20c0 7 4 14 11 18
c58 35 118 54 173 54c112 0 169 -67 187 -215c11 -95 28 -249 35 -351c0 -11 -8 -20 -20 -20zM119 138c0 -69 47 -106 139 -106c83 0 170 39 226 101c-3 34 -7 69 -10 103c-48 17 -108 27 -164 27c-124 0 -191 -45 -191 -125zM182 753c0 71 59 133 127 133
c63 0 128 -61 128 -123c0 -68 -57 -129 -122 -129c-79 0 -133 47 -133 119zM215 753c0 -53 38 -86 100 -86c47 0 89 46 89 96c0 43 -50 90 -95 90c-48 0 -94 -47 -94 -100z" />
    <glyph glyph-name="aringacute" unicode="&#x1fb;" 
d="M517 -30c-10 0 -20 8 -20 19c-2 29 -5 62 -8 97c-61 -58 -148 -94 -231 -94c-112 0 -179 53 -179 146c0 105 86 165 231 165c53 0 111 -9 159 -25l-7 59c-15 127 -58 179 -147 179c-48 0 -101 -17 -154 -49c-3 -2 -6 -3 -10 -3c-11 0 -20 8 -20 20c0 7 4 14 11 18
c58 35 118 54 173 54c112 0 169 -67 187 -215c11 -95 28 -249 35 -351c0 -11 -8 -20 -20 -20zM119 138c0 -69 47 -106 139 -106c83 0 170 39 226 101c-3 34 -7 69 -10 103c-48 17 -108 27 -164 27c-124 0 -191 -45 -191 -125zM182 753c0 72 59 133 127 133
c20 0 41 -6 59 -17l171 128c3 3 7 4 12 4c11 0 20 -9 20 -20c0 -6 -3 -12 -8 -16l-162 -122c22 -22 36 -51 36 -80c0 -68 -57 -129 -122 -129c-79 0 -133 47 -133 119zM215 753c0 -53 38 -86 100 -86c47 0 89 46 89 96c0 43 -50 90 -95 90c-48 0 -94 -47 -94 -100z" />
    <glyph glyph-name="atilde" unicode="&#xe3;" 
d="M517 -30c-10 0 -20 8 -20 19c-2 29 -5 62 -8 97c-61 -58 -148 -94 -231 -94c-112 0 -179 53 -179 146c0 105 86 165 231 165c53 0 111 -9 159 -25l-7 59c-15 127 -58 179 -147 179c-48 0 -101 -17 -154 -49c-3 -2 -6 -3 -10 -3c-11 0 -20 8 -20 20c0 7 4 14 11 18
c58 35 118 54 173 54c112 0 169 -67 187 -215c11 -95 28 -249 35 -351c0 -11 -8 -20 -20 -20zM77 657v4c15 78 72 133 141 133c52 0 83 -29 113 -60c27 -28 48 -49 85 -49c44 0 79 40 87 102c1 10 10 17 20 17c11 0 20 -9 20 -20v-3c-11 -81 -62 -136 -127 -136
c-52 0 -83 30 -113 61c-27 27 -48 48 -85 48c-49 0 -90 -40 -101 -100c-2 -9 -10 -17 -20 -17c-11 0 -20 9 -20 20zM119 138c0 -69 47 -106 139 -106c83 0 170 39 226 101c-3 34 -7 69 -10 103c-48 17 -108 27 -164 27c-124 0 -191 -45 -191 -125z" />
    <glyph glyph-name="ae" unicode="&#xe6;" 
d="M441 -6c-60 0 -102 30 -126 88c-43 -57 -104 -90 -167 -90c-78 0 -124 56 -124 150c0 96 60 162 148 162c44 0 84 -12 120 -35v78c0 104 -36 158 -101 158c-32 0 -68 -14 -106 -44c-4 -2 -8 -4 -12 -4c-12 0 -20 9 -20 20c0 7 3 12 8 16c44 34 88 52 130 52
c66 0 111 -43 128 -118c26 84 73 130 141 130c71 0 127 -65 127 -144c0 -34 -15 -58 -52 -86c-51 -39 -132 -82 -207 -111c3 -122 41 -181 113 -181c45 0 82 20 123 70c4 6 10 8 16 8c11 0 20 -8 20 -20c0 -4 -2 -10 -5 -12c-49 -60 -96 -87 -154 -87zM64 142
c0 -72 30 -110 85 -110c57 0 116 35 153 94c-7 29 -10 62 -10 100c-36 27 -74 41 -119 41c-66 0 -109 -49 -109 -125zM328 255c68 28 137 67 182 102c29 22 37 36 37 57c0 56 -39 103 -87 103c-78 0 -127 -91 -132 -262z" />
    <glyph glyph-name="aeacute" unicode="&#x1fd;" 
d="M441 -6c-60 0 -102 30 -126 88c-43 -57 -104 -90 -167 -90c-78 0 -124 56 -124 150c0 96 60 162 148 162c44 0 84 -12 120 -35v78c0 104 -36 158 -101 158c-32 0 -68 -14 -106 -44c-4 -2 -8 -4 -12 -4c-12 0 -20 9 -20 20c0 7 3 12 8 16c44 34 88 52 130 52
c66 0 111 -43 128 -118c26 84 73 130 141 130c71 0 127 -65 127 -144c0 -34 -15 -58 -52 -86c-51 -39 -132 -82 -207 -111c3 -122 41 -181 113 -181c45 0 82 20 123 70c4 6 10 8 16 8c11 0 20 -8 20 -20c0 -4 -2 -10 -5 -12c-49 -60 -96 -87 -154 -87zM64 142
c0 -72 30 -110 85 -110c57 0 116 35 153 94c-7 29 -10 62 -10 100c-36 27 -74 41 -119 41c-66 0 -109 -49 -109 -125zM189 641c0 7 3 13 8 16l202 151c3 3 7 4 12 4c11 0 20 -9 20 -20c0 -6 -3 -12 -8 -16l-202 -151c-3 -2 -7 -4 -12 -4c-11 0 -20 9 -20 20zM328 255
c68 28 137 67 182 102c29 22 37 36 37 57c0 56 -39 103 -87 103c-78 0 -127 -91 -132 -262z" />
    <glyph glyph-name="b" unicode="b" 
d="M276 -17c-45 0 -95 14 -134 38c-5 -18 -11 -33 -20 -47c-4 -6 -10 -10 -18 -10c-11 0 -20 9 -20 20c0 14 30 31 30 142c0 36 -9 378 -9 430c0 110 7 190 19 242c2 9 10 15 19 15c12 0 20 -8 20 -20c0 -13 -18 -48 -18 -237l1 -84c55 56 108 83 160 83
c132 0 230 -127 230 -295c0 -164 -105 -277 -260 -277zM148 419c2 -118 6 -269 6 -293c0 -25 -1 -47 -4 -67c35 -22 82 -36 126 -36c133 0 220 95 220 237c0 146 -82 255 -190 255c-48 0 -102 -32 -158 -96z" />
    <glyph glyph-name="c" unicode="c" 
d="M300 -14c-134 0 -222 97 -222 246c0 174 118 324 256 324c61 0 126 -24 193 -71c6 -4 9 -10 9 -17c0 -11 -9 -20 -20 -20c-4 0 -9 2 -12 4c-61 43 -117 64 -170 64c-115 0 -216 -131 -216 -284c0 -127 70 -206 182 -206c86 0 158 34 221 101c4 4 9 6 14 6
c12 0 20 -9 20 -20c0 -6 -2 -10 -5 -14c-70 -74 -155 -113 -250 -113z" />
    <glyph glyph-name="cacute" unicode="&#x107;" 
d="M300 -14c-134 0 -222 97 -222 246c0 174 118 324 256 324c61 0 126 -24 193 -71c6 -4 9 -10 9 -17c0 -11 -9 -20 -20 -20c-4 0 -9 2 -12 4c-61 43 -117 64 -170 64c-115 0 -216 -131 -216 -284c0 -127 70 -206 182 -206c86 0 158 34 221 101c4 4 9 6 14 6
c12 0 20 -9 20 -20c0 -6 -2 -10 -5 -14c-70 -74 -155 -113 -250 -113zM189 641c0 7 3 13 8 16l202 151c3 3 7 4 12 4c11 0 20 -9 20 -20c0 -6 -3 -12 -8 -16l-202 -151c-3 -2 -7 -4 -12 -4c-11 0 -20 9 -20 20z" />
    <glyph glyph-name="ccaron" unicode="&#x10d;" 
d="M300 -14c-134 0 -222 97 -222 246c0 174 118 324 256 324c61 0 126 -24 193 -71c6 -4 9 -10 9 -17c0 -11 -9 -20 -20 -20c-4 0 -9 2 -12 4c-61 43 -117 64 -170 64c-115 0 -216 -131 -216 -284c0 -127 70 -206 182 -206c86 0 158 34 221 101c4 4 9 6 14 6
c12 0 20 -9 20 -20c0 -6 -2 -10 -5 -14c-70 -74 -155 -113 -250 -113zM108 789c0 11 9 20 20 20c5 0 10 -2 14 -5c42 -40 94 -79 158 -122c64 40 123 80 180 123c3 3 7 4 12 4c11 0 20 -9 20 -20c0 -6 -3 -12 -8 -16c-65 -48 -129 -92 -193 -132c-3 -2 -7 -3 -11 -3
s-8 2 -11 4c-71 46 -128 89 -175 133c-4 3 -6 9 -6 14z" />
    <glyph glyph-name="ccedilla" unicode="&#xe7;" 
d="M248 -234c-8 0 -15 0 -23 1c-10 1 -18 10 -18 20c0 12 9 20 21 20c2 0 11 -1 20 -1c73 0 125 36 125 82s-30 76 -85 87c-7 1 -14 6 -16 13c-118 12 -194 106 -194 244c0 174 118 324 256 324c61 0 126 -24 193 -71c6 -4 9 -10 9 -17c0 -11 -9 -20 -20 -20
c-4 0 -9 2 -12 4c-61 43 -117 64 -170 64c-115 0 -216 -131 -216 -284c0 -127 70 -206 182 -206c86 0 158 34 221 101c4 4 9 6 14 6c12 0 20 -9 20 -20c0 -6 -2 -10 -5 -14c-55 -58 -120 -95 -191 -108c34 -23 54 -59 54 -103c0 -71 -72 -122 -165 -122z" />
    <glyph glyph-name="ccircumflex" unicode="&#x109;" 
d="M300 -14c-134 0 -222 97 -222 246c0 174 118 324 256 324c61 0 126 -24 193 -71c6 -4 9 -10 9 -17c0 -11 -9 -20 -20 -20c-4 0 -9 2 -12 4c-61 43 -117 64 -170 64c-115 0 -216 -131 -216 -284c0 -127 70 -206 182 -206c86 0 158 34 221 101c4 4 9 6 14 6
c12 0 20 -9 20 -20c0 -6 -2 -10 -5 -14c-70 -74 -155 -113 -250 -113zM108 658c0 7 3 13 8 16c65 49 129 92 193 132c3 2 7 3 11 3s8 -1 11 -3c71 -46 128 -90 175 -133c4 -4 6 -9 6 -15c0 -11 -9 -20 -20 -20c-5 0 -10 2 -14 6c-42 39 -94 79 -158 122
c-64 -40 -123 -81 -180 -124c-3 -2 -7 -4 -12 -4c-11 0 -20 9 -20 20z" />
    <glyph glyph-name="cdotaccent" unicode="&#x10b;" 
d="M300 -14c-134 0 -222 97 -222 246c0 174 118 324 256 324c61 0 126 -24 193 -71c6 -4 9 -10 9 -17c0 -11 -9 -20 -20 -20c-4 0 -9 2 -12 4c-61 43 -117 64 -170 64c-115 0 -216 -131 -216 -284c0 -127 70 -206 182 -206c86 0 158 34 221 101c4 4 9 6 14 6
c12 0 20 -9 20 -20c0 -6 -2 -10 -5 -14c-70 -74 -155 -113 -250 -113zM268 730c0 39 14 60 44 60c23 0 41 -18 41 -42s-17 -59 -40 -82c-3 -4 -8 -7 -14 -7s-12 3 -15 8c-7 3 -12 9 -13 16c-2 19 -3 34 -3 47z" />
    <glyph glyph-name="d" unicode="d" 
d="M287 -9c-118 0 -200 89 -200 218c0 198 101 345 239 345c48 0 101 -17 143 -46c7 104 19 213 31 290c2 9 10 17 20 17c12 0 20 -8 20 -20c0 -7 -38 -243 -38 -457c0 -75 8 -211 13 -239c8 -47 29 -95 48 -110c4 -3 7 -9 7 -14c0 -11 -9 -20 -20 -20c-6 0 -11 3 -14 6
c-23 19 -48 69 -59 120c-57 -61 -119 -90 -190 -90zM127 209c0 -106 64 -178 160 -178c70 0 128 30 184 96c-4 55 -9 152 -9 211c0 38 1 82 4 126c-37 30 -92 50 -140 50c-113 0 -199 -128 -199 -305z" />
    <glyph glyph-name="eth" unicode="&#xf0;" 
d="M300 -10c-144 0 -227 89 -227 246c0 169 120 299 281 299c37 0 80 -10 114 -27c-33 73 -85 135 -151 184c-61 -31 -122 -63 -164 -87c-2 -1 -5 -2 -9 -2c-10 0 -18 8 -18 19c0 7 4 13 10 16c38 21 91 50 146 77c-36 23 -75 42 -117 57c-8 2 -14 10 -14 19
c0 11 9 20 20 20c2 0 5 -1 7 -2c53 -19 102 -43 145 -73c52 27 103 51 138 67c2 2 4 2 7 2c10 0 18 -8 18 -18c0 -8 -4 -14 -11 -17c-31 -15 -73 -35 -119 -58c122 -97 192 -235 192 -392c0 -194 -102 -330 -248 -330zM113 236c0 -134 65 -205 187 -205s208 117 208 289
c0 48 -7 93 -20 136c-33 23 -89 41 -134 41c-136 0 -241 -112 -241 -261z" />
    <glyph glyph-name="dcaron" unicode="&#x10f;" 
d="M221 -9c-100 0 -168 90 -168 218c0 194 87 342 207 342c39 0 82 -16 117 -43c6 106 17 216 31 293c1 10 9 18 20 18s20 -8 20 -20c0 -7 -35 -242 -35 -440c0 -72 8 -203 13 -230c7 -43 28 -89 48 -104c4 -4 8 -10 8 -16c0 -12 -8 -20 -20 -20c-4 0 -8 1 -11 3
c-21 15 -42 51 -55 91c-52 -63 -108 -92 -175 -92zM93 209c0 -107 52 -178 128 -178c63 0 112 31 163 103c-5 45 -11 160 -11 225c0 30 1 64 2 98c-32 33 -77 54 -115 54c-94 0 -167 -130 -167 -302zM496 455c0 3 1 5 2 8c27 48 42 98 42 142c0 35 -8 64 -25 83
c-2 3 -3 6 -3 9c0 11 7 18 18 18c7 0 13 -3 15 -9c21 -25 32 -60 32 -101c0 -50 -16 -105 -46 -157c-3 -6 -9 -11 -17 -11c-11 0 -18 8 -18 18z" />
    <glyph glyph-name="dcroat" unicode="&#x111;" 
d="M287 -9c-118 0 -200 89 -200 218c0 198 101 345 239 345c48 0 101 -17 143 -46c4 58 9 118 16 173c-110 -7 -178 -19 -186 -19c-10 0 -18 7 -18 18c0 9 7 17 16 18c60 9 128 15 192 20c4 29 7 56 11 80c2 9 10 17 20 17c12 0 20 -8 20 -20c0 -2 -4 -30 -10 -75
c19 2 38 2 56 3c10 0 18 -8 18 -19c0 -9 -8 -18 -18 -18l-60 -2c-11 -90 -24 -222 -24 -346c0 -75 8 -211 13 -239c8 -47 29 -95 48 -110c4 -3 7 -9 7 -14c0 -11 -9 -20 -20 -20c-6 0 -11 3 -14 6c-23 19 -48 69 -59 120c-57 -61 -119 -90 -190 -90zM127 209
c0 -106 64 -178 160 -178c70 0 128 30 184 96c-4 55 -9 152 -9 211c0 38 1 82 4 126c-37 30 -92 50 -140 50c-113 0 -199 -128 -199 -305z" />
    <glyph glyph-name="e" unicode="e" 
d="M320 -8c-151 0 -230 86 -230 249c0 204 132 311 256 311c91 0 182 -61 182 -122c0 -41 -17 -64 -69 -100c-76 -53 -206 -116 -323 -158c18 -91 77 -140 184 -140c74 0 134 24 199 81c5 3 9 4 14 4c11 0 20 -8 20 -20c0 -6 -3 -12 -7 -15c-73 -62 -142 -90 -226 -90z
M130 241c0 -10 0 -20 1 -29c111 41 235 100 306 151c41 29 50 42 50 67c0 38 -74 82 -141 82c-105 0 -216 -88 -216 -271z" />
    <glyph glyph-name="eacute" unicode="&#xe9;" 
d="M320 -8c-151 0 -230 86 -230 249c0 204 132 311 256 311c91 0 182 -61 182 -122c0 -41 -17 -64 -69 -100c-76 -53 -206 -116 -323 -158c18 -91 77 -140 184 -140c74 0 134 24 199 81c5 3 9 4 14 4c11 0 20 -8 20 -20c0 -6 -3 -12 -7 -15c-73 -62 -142 -90 -226 -90z
M130 241c0 -10 0 -20 1 -29c111 41 235 100 306 151c41 29 50 42 50 67c0 38 -74 82 -141 82c-105 0 -216 -88 -216 -271zM189 641c0 7 3 13 8 16l202 151c3 3 7 4 12 4c11 0 20 -9 20 -20c0 -6 -3 -12 -8 -16l-202 -151c-3 -2 -7 -4 -12 -4c-11 0 -20 9 -20 20z" />
    <glyph glyph-name="ebreve" unicode="&#x115;" 
d="M320 -8c-151 0 -230 86 -230 249c0 204 132 311 256 311c91 0 182 -61 182 -122c0 -41 -17 -64 -69 -100c-76 -53 -206 -116 -323 -158c18 -91 77 -140 184 -140c74 0 134 24 199 81c5 3 9 4 14 4c11 0 20 -8 20 -20c0 -6 -3 -12 -7 -15c-73 -62 -142 -90 -226 -90z
M116 782c0 11 9 20 20 20c9 0 17 -6 19 -15c17 -59 84 -102 162 -102c76 0 134 41 147 103c2 9 10 16 20 16c11 0 20 -9 20 -20c0 -1 0 -3 -1 -4c-17 -81 -91 -135 -186 -135c-96 0 -178 54 -200 131c-1 2 -1 4 -1 6zM130 241c0 -10 0 -20 1 -29c111 41 235 100 306 151
c41 29 50 42 50 67c0 38 -74 82 -141 82c-105 0 -216 -88 -216 -271z" />
    <glyph glyph-name="ecaron" unicode="&#x11b;" 
d="M320 -8c-151 0 -230 86 -230 249c0 204 132 311 256 311c91 0 182 -61 182 -122c0 -41 -17 -64 -69 -100c-76 -53 -206 -116 -323 -158c18 -91 77 -140 184 -140c74 0 134 24 199 81c5 3 9 4 14 4c11 0 20 -8 20 -20c0 -6 -3 -12 -7 -15c-73 -62 -142 -90 -226 -90z
M108 789c0 11 9 20 20 20c5 0 10 -2 14 -5c42 -40 94 -79 158 -122c64 40 123 80 180 123c3 3 7 4 12 4c11 0 20 -9 20 -20c0 -6 -3 -12 -8 -16c-65 -48 -129 -92 -193 -132c-3 -2 -7 -3 -11 -3s-8 2 -11 4c-71 46 -128 89 -175 133c-4 3 -6 9 -6 14zM130 241
c0 -10 0 -20 1 -29c111 41 235 100 306 151c41 29 50 42 50 67c0 38 -74 82 -141 82c-105 0 -216 -88 -216 -271z" />
    <glyph glyph-name="ecircumflex" unicode="&#xea;" 
d="M320 -8c-151 0 -230 86 -230 249c0 204 132 311 256 311c91 0 182 -61 182 -122c0 -41 -17 -64 -69 -100c-76 -53 -206 -116 -323 -158c18 -91 77 -140 184 -140c74 0 134 24 199 81c5 3 9 4 14 4c11 0 20 -8 20 -20c0 -6 -3 -12 -7 -15c-73 -62 -142 -90 -226 -90z
M108 658c0 7 3 13 8 16c65 49 129 92 193 132c3 2 7 3 11 3s8 -1 11 -3c71 -46 128 -90 175 -133c4 -4 6 -9 6 -15c0 -11 -9 -20 -20 -20c-5 0 -10 2 -14 6c-42 39 -94 79 -158 122c-64 -40 -123 -81 -180 -124c-3 -2 -7 -4 -12 -4c-11 0 -20 9 -20 20zM130 241
c0 -10 0 -20 1 -29c111 41 235 100 306 151c41 29 50 42 50 67c0 38 -74 82 -141 82c-105 0 -216 -88 -216 -271z" />
    <glyph glyph-name="edieresis" unicode="&#xeb;" 
d="M320 -8c-151 0 -230 86 -230 249c0 204 132 311 256 311c91 0 182 -61 182 -122c0 -41 -17 -64 -69 -100c-76 -53 -206 -116 -323 -158c18 -91 77 -140 184 -140c74 0 134 24 199 81c5 3 9 4 14 4c11 0 20 -8 20 -20c0 -6 -3 -12 -7 -15c-73 -62 -142 -90 -226 -90z
M130 241c0 -10 0 -20 1 -29c111 41 235 100 306 151c41 29 50 42 50 67c0 38 -74 82 -141 82c-105 0 -216 -88 -216 -271zM189 712c0 10 1 19 3 29s10 16 20 16c12 0 20 -8 20 -20c0 -4 -3 -15 -3 -25c0 -20 6 -42 6 -48c0 -11 -8 -20 -20 -20c-10 0 -18 8 -20 17
c-4 20 -6 37 -6 51zM388 675c0 6 2 11 2 32c0 28 -1 38 -1 42c0 12 9 20 20 20s20 -8 20 -19c1 -10 1 -27 1 -43c0 -14 0 -27 -2 -35c-2 -10 -10 -17 -20 -17c-11 0 -20 9 -20 20z" />
    <glyph glyph-name="edotaccent" unicode="&#x117;" 
d="M320 -8c-151 0 -230 86 -230 249c0 204 132 311 256 311c91 0 182 -61 182 -122c0 -41 -17 -64 -69 -100c-76 -53 -206 -116 -323 -158c18 -91 77 -140 184 -140c74 0 134 24 199 81c5 3 9 4 14 4c11 0 20 -8 20 -20c0 -6 -3 -12 -7 -15c-73 -62 -142 -90 -226 -90z
M130 241c0 -10 0 -20 1 -29c111 41 235 100 306 151c41 29 50 42 50 67c0 38 -74 82 -141 82c-105 0 -216 -88 -216 -271zM268 730c0 39 14 60 44 60c23 0 41 -18 41 -42s-17 -59 -40 -82c-3 -4 -8 -7 -14 -7s-12 3 -15 8c-7 3 -12 9 -13 16c-2 19 -3 34 -3 47z" />
    <glyph glyph-name="egrave" unicode="&#xe8;" 
d="M320 -8c-151 0 -230 86 -230 249c0 204 132 311 256 311c91 0 182 -61 182 -122c0 -41 -17 -64 -69 -100c-76 -53 -206 -116 -323 -158c18 -91 77 -140 184 -140c74 0 134 24 199 81c5 3 9 4 14 4c11 0 20 -8 20 -20c0 -6 -3 -12 -7 -15c-73 -62 -142 -90 -226 -90z
M130 241c0 -10 0 -20 1 -29c111 41 235 100 306 151c41 29 50 42 50 67c0 38 -74 82 -141 82c-105 0 -216 -88 -216 -271zM189 789c0 11 9 20 20 20c5 0 9 -1 12 -4l202 -151c5 -3 8 -9 8 -16c0 -11 -9 -20 -20 -20c-5 0 -9 2 -12 4l-202 151c-5 4 -8 10 -8 16z" />
    <glyph glyph-name="emacron" unicode="&#x113;" 
d="M320 -8c-151 0 -230 86 -230 249c0 204 132 311 256 311c91 0 182 -61 182 -122c0 -41 -17 -64 -69 -100c-76 -53 -206 -116 -323 -158c18 -91 77 -140 184 -140c74 0 134 24 199 81c5 3 9 4 14 4c11 0 20 -8 20 -20c0 -6 -3 -12 -7 -15c-73 -62 -142 -90 -226 -90z
M102 674c0 11 8 19 18 20c106 15 288 22 377 22c12 0 20 -8 20 -20c0 -11 -8 -20 -20 -20c-216 0 -370 -22 -375 -22c-11 0 -20 9 -20 20zM130 241c0 -10 0 -20 1 -29c111 41 235 100 306 151c41 29 50 42 50 67c0 38 -74 82 -141 82c-105 0 -216 -88 -216 -271z" />
    <glyph glyph-name="eogonek" unicode="&#x119;" 
d="M320 -8c-151 0 -230 86 -230 249c0 204 132 311 256 311c91 0 182 -61 182 -122c0 -41 -17 -64 -69 -100c-76 -53 -206 -116 -323 -158c18 -91 77 -140 184 -140c74 0 134 24 199 81c5 3 9 4 14 4c11 0 20 -8 20 -20c0 -6 -3 -12 -7 -15c-31 -26 -62 -47 -93 -61
c0 -1 -1 -1 -2 -2c-66 -34 -114 -84 -114 -118c0 -29 26 -50 59 -50c32 0 70 15 97 38c3 3 8 5 13 5c12 0 20 -9 20 -20c0 -6 -2 -12 -7 -16c-33 -28 -82 -47 -123 -47c-55 0 -99 37 -99 87c0 30 20 64 54 95c-10 -1 -21 -1 -31 -1zM130 241c0 -10 0 -20 1 -29
c111 41 235 100 306 151c41 29 50 42 50 67c0 38 -74 82 -141 82c-105 0 -216 -88 -216 -271z" />
    <glyph glyph-name="uni0259" unicode="&#x259;" 
d="M300 551c151 0 230 -86 230 -249c0 -204 -132 -311 -256 -311c-91 0 -182 61 -182 122c0 41 17 64 69 100c76 53 206 116 323 158c-18 91 -77 140 -184 140c-74 0 -134 -24 -199 -81c-5 -3 -9 -4 -14 -4c-11 0 -20 8 -20 20c0 6 3 12 7 15c73 62 142 90 226 90zM133 113
c0 -38 74 -82 141 -82c105 0 216 88 216 271c0 10 0 20 -1 29c-111 -41 -235 -100 -306 -151c-41 -29 -50 -42 -50 -67z" />
    <glyph glyph-name="f" unicode="f" 
d="M244 -72c-11 0 -20 9 -20 20s31 65 31 186c0 41 -4 244 -6 360c-22 -1 -44 -1 -66 -1c-31 0 -61 1 -91 2c-11 1 -19 9 -19 20s9 20 20 20c29 -1 59 -2 90 -2c23 0 45 0 65 1v35c0 174 50 240 190 240c32 0 65 -4 93 -11c9 -2 16 -10 16 -19c0 -11 -9 -20 -20 -20
c-9 0 -38 10 -89 10c-115 0 -150 -46 -150 -200v-33c146 7 235 28 242 28c11 0 20 -9 20 -20c0 -10 -7 -18 -17 -20c-73 -14 -158 -24 -244 -28c2 -116 6 -320 6 -362c0 -73 -11 -138 -32 -193c-3 -7 -10 -13 -19 -13z" />
    <glyph glyph-name="g" unicode="g" 
d="M286 -211c-79 0 -153 23 -206 64c-5 3 -8 9 -8 15c0 12 8 20 20 20c4 0 8 -1 12 -4c46 -34 111 -55 182 -55c134 0 191 67 191 224c0 18 -1 49 -2 86c-63 -70 -130 -102 -210 -102c-125 0 -191 77 -191 222c0 169 94 292 226 292c55 0 112 -24 166 -71c3 23 7 47 14 67
c3 8 10 14 19 14c12 0 20 -8 20 -20c0 -6 -14 -40 -14 -91c0 -53 12 -325 12 -397c0 -179 -74 -264 -231 -264zM114 259c0 -124 49 -182 151 -182c80 0 144 35 208 115c-3 90 -7 194 -8 241c-55 52 -112 78 -165 78c-108 0 -186 -105 -186 -252z" />
    <glyph glyph-name="gbreve" unicode="&#x11f;" 
d="M286 -211c-79 0 -153 23 -206 64c-5 3 -8 9 -8 15c0 12 8 20 20 20c4 0 8 -1 12 -4c46 -34 111 -55 182 -55c134 0 191 67 191 224c0 18 -1 49 -2 86c-63 -70 -130 -102 -210 -102c-125 0 -191 77 -191 222c0 169 94 292 226 292c55 0 112 -24 166 -71c3 23 7 47 14 67
c3 8 10 14 19 14c12 0 20 -8 20 -20c0 -6 -14 -40 -14 -91c0 -53 12 -325 12 -397c0 -179 -74 -264 -231 -264zM114 259c0 -124 49 -182 151 -182c80 0 144 35 208 115c-3 90 -7 194 -8 241c-55 52 -112 78 -165 78c-108 0 -186 -105 -186 -252zM116 782c0 11 9 20 20 20
c9 0 17 -6 19 -15c17 -59 84 -102 162 -102c76 0 134 41 147 103c2 9 10 16 20 16c11 0 20 -9 20 -20c0 -1 0 -3 -1 -4c-17 -81 -91 -135 -186 -135c-96 0 -178 54 -200 131c-1 2 -1 4 -1 6z" />
    <glyph glyph-name="gcircumflex" unicode="&#x11d;" 
d="M286 -211c-79 0 -153 23 -206 64c-5 3 -8 9 -8 15c0 12 8 20 20 20c4 0 8 -1 12 -4c46 -34 111 -55 182 -55c134 0 191 67 191 224c0 18 -1 49 -2 86c-63 -70 -130 -102 -210 -102c-125 0 -191 77 -191 222c0 169 94 292 226 292c55 0 112 -24 166 -71c3 23 7 47 14 67
c3 8 10 14 19 14c12 0 20 -8 20 -20c0 -6 -14 -40 -14 -91c0 -53 12 -325 12 -397c0 -179 -74 -264 -231 -264zM108 658c0 7 3 13 8 16c65 49 129 92 193 132c3 2 7 3 11 3s8 -1 11 -3c71 -46 128 -90 175 -133c4 -4 6 -9 6 -15c0 -11 -9 -20 -20 -20c-5 0 -10 2 -14 6
c-42 39 -94 79 -158 122c-64 -40 -123 -81 -180 -124c-3 -2 -7 -4 -12 -4c-11 0 -20 9 -20 20zM114 259c0 -124 49 -182 151 -182c80 0 144 35 208 115c-3 90 -7 194 -8 241c-55 52 -112 78 -165 78c-108 0 -186 -105 -186 -252z" />
    <glyph glyph-name="uni0123" unicode="&#x123;" 
d="M286 -211c-79 0 -153 23 -206 64c-5 3 -8 9 -8 15c0 12 8 20 20 20c4 0 8 -1 12 -4c46 -34 111 -55 182 -55c134 0 191 67 191 224c0 18 -1 49 -2 86c-63 -70 -130 -102 -210 -102c-125 0 -191 77 -191 222c0 169 94 292 226 292c55 0 112 -24 166 -71c3 23 7 47 14 67
c3 8 10 14 19 14c12 0 20 -8 20 -20c0 -6 -14 -40 -14 -91c0 -53 12 -325 12 -397c0 -179 -74 -264 -231 -264zM114 259c0 -124 49 -182 151 -182c80 0 144 35 208 115c-3 90 -7 194 -8 241c-55 52 -112 78 -165 78c-108 0 -186 -105 -186 -252zM243 625c0 3 1 6 2 8
c13 35 60 114 97 158c4 4 9 6 15 6c11 0 20 -9 20 -20c0 -5 -2 -10 -5 -14c-35 -40 -79 -114 -90 -145c-3 -8 -11 -13 -19 -13c-11 0 -20 9 -20 20z" />
    <glyph glyph-name="gdotaccent" unicode="&#x121;" 
d="M286 -211c-79 0 -153 23 -206 64c-5 3 -8 9 -8 15c0 12 8 20 20 20c4 0 8 -1 12 -4c46 -34 111 -55 182 -55c134 0 191 67 191 224c0 18 -1 49 -2 86c-63 -70 -130 -102 -210 -102c-125 0 -191 77 -191 222c0 169 94 292 226 292c55 0 112 -24 166 -71c3 23 7 47 14 67
c3 8 10 14 19 14c12 0 20 -8 20 -20c0 -6 -14 -40 -14 -91c0 -53 12 -325 12 -397c0 -179 -74 -264 -231 -264zM114 259c0 -124 49 -182 151 -182c80 0 144 35 208 115c-3 90 -7 194 -8 241c-55 52 -112 78 -165 78c-108 0 -186 -105 -186 -252zM268 730c0 39 14 60 44 60
c23 0 41 -18 41 -42s-17 -59 -40 -82c-3 -4 -8 -7 -14 -7s-12 3 -15 8c-7 3 -12 9 -13 16c-2 19 -3 34 -3 47z" />
    <glyph glyph-name="h" unicode="h" 
d="M480 -26c-11 0 -20 9 -20 20c0 9 16 132 16 303c0 139 -36 216 -95 216c-60 0 -145 -73 -216 -186c-1 -73 -6 -198 -13 -320c-1 -12 -10 -20 -20 -20c-12 0 -20 9 -20 20c0 8 14 218 14 362c0 170 -24 417 -24 424c0 11 8 20 20 20c10 0 19 -9 20 -19
c14 -169 23 -301 24 -403c70 100 151 162 215 162c88 0 135 -94 135 -256c0 -101 -5 -199 -16 -305c-1 -10 -9 -18 -20 -18z" />
    <glyph glyph-name="hbar" unicode="&#x127;" 
d="M480 -26c-11 0 -20 9 -20 20c0 9 16 132 16 303c0 139 -36 216 -95 216c-60 0 -145 -73 -216 -186c-1 -73 -6 -198 -13 -320c-1 -12 -10 -20 -20 -20c-12 0 -20 9 -20 20c0 8 14 218 14 362c0 94 -7 211 -14 298c-25 -3 -40 -5 -43 -5c-10 0 -18 7 -18 18c0 9 7 17 16 18
l42 6c-4 51 -7 86 -7 89c0 11 8 20 20 20c10 0 19 -9 20 -19l7 -86c70 8 143 13 207 15c10 0 18 -8 18 -19c0 -9 -8 -18 -18 -18c-85 -3 -155 -9 -204 -14c8 -112 13 -205 14 -281c70 100 151 162 215 162c88 0 135 -94 135 -256c0 -101 -5 -199 -16 -305
c-1 -10 -9 -18 -20 -18z" />
    <glyph glyph-name="hcircumflex" unicode="&#x125;" 
d="M480 -26c-11 0 -20 9 -20 20c0 9 16 132 16 303c0 139 -36 216 -95 216c-60 0 -145 -73 -216 -186c-1 -73 -6 -198 -13 -320c-1 -12 -10 -20 -20 -20c-12 0 -20 9 -20 20c0 8 14 218 14 362c0 170 -24 417 -24 424c0 11 8 20 20 20c10 0 19 -9 20 -19
c14 -169 23 -301 24 -403c70 100 151 162 215 162c88 0 135 -94 135 -256c0 -101 -5 -199 -16 -305c-1 -10 -9 -18 -20 -18zM108 915c0 7 3 13 8 16c65 49 129 92 193 132c3 2 7 3 11 3s8 -1 11 -3c71 -46 128 -90 175 -133c4 -4 6 -9 6 -15c0 -11 -9 -20 -20 -20
c-5 0 -10 2 -14 6c-42 39 -94 79 -158 122c-64 -40 -123 -81 -180 -124c-3 -2 -7 -4 -12 -4c-11 0 -20 9 -20 20z" />
    <glyph glyph-name="i" unicode="i" 
d="M125 -6c-11 0 -20 9 -20 20c0 12 9 20 20 20c59 0 119 3 173 6c-4 38 -7 87 -7 141c0 125 18 285 19 317c0 9 -1 10 -8 10c-69 0 -158 -13 -165 -13c-11 0 -20 8 -20 20c0 10 8 18 18 20c62 9 133 14 176 14c26 0 39 -15 39 -41c0 -32 -19 -201 -19 -327
c0 -54 3 -102 7 -138c88 6 153 14 157 14c12 0 20 -8 20 -20c0 -10 -8 -18 -18 -20c-108 -13 -271 -23 -372 -23zM259 744c0 39 14 60 44 60c24 0 41 -19 41 -42c0 -36 -36 -86 -54 -86s-31 14 -31 68z" />
    <glyph glyph-name="dotlessi" unicode="&#x131;" 
d="M125 -6c-11 0 -20 9 -20 20c0 12 9 20 20 20c59 0 119 3 173 6c-4 38 -7 87 -7 141c0 125 18 285 19 317c0 9 -1 10 -8 10c-69 0 -158 -13 -165 -13c-11 0 -20 8 -20 20c0 10 8 18 18 20c62 9 133 14 176 14c26 0 39 -15 39 -41c0 -32 -19 -201 -19 -327
c0 -54 3 -102 7 -138c88 6 153 14 157 14c12 0 20 -8 20 -20c0 -10 -8 -18 -18 -20c-108 -13 -271 -23 -372 -23z" />
    <glyph glyph-name="iacute" unicode="&#xed;" 
d="M125 -6c-11 0 -20 9 -20 20c0 12 9 20 20 20c59 0 119 3 173 6c-4 38 -7 87 -7 141c0 125 18 285 19 317c0 9 -1 10 -8 10c-69 0 -158 -13 -165 -13c-11 0 -20 8 -20 20c0 10 8 18 18 20c62 9 133 14 176 14c26 0 39 -15 39 -41c0 -32 -19 -201 -19 -327
c0 -54 3 -102 7 -138c88 6 153 14 157 14c12 0 20 -8 20 -20c0 -10 -8 -18 -18 -20c-108 -13 -271 -23 -372 -23zM189 641c0 7 3 13 8 16l202 151c3 3 7 4 12 4c11 0 20 -9 20 -20c0 -6 -3 -12 -8 -16l-202 -151c-3 -2 -7 -4 -12 -4c-11 0 -20 9 -20 20z" />
    <glyph glyph-name="ibreve" unicode="&#x12d;" 
d="M125 -6c-11 0 -20 9 -20 20c0 12 9 20 20 20c59 0 119 3 173 6c-4 38 -7 87 -7 141c0 125 18 285 19 317c0 9 -1 10 -8 10c-69 0 -158 -13 -165 -13c-11 0 -20 8 -20 20c0 10 8 18 18 20c62 9 133 14 176 14c26 0 39 -15 39 -41c0 -32 -19 -201 -19 -327
c0 -54 3 -102 7 -138c88 6 153 14 157 14c12 0 20 -8 20 -20c0 -10 -8 -18 -18 -20c-108 -13 -271 -23 -372 -23zM116 782c0 11 9 20 20 20c9 0 17 -6 19 -15c17 -59 84 -102 162 -102c76 0 134 41 147 103c2 9 10 16 20 16c11 0 20 -9 20 -20c0 -1 0 -3 -1 -4
c-17 -81 -91 -135 -186 -135c-96 0 -178 54 -200 131c-1 2 -1 4 -1 6z" />
    <glyph glyph-name="icircumflex" unicode="&#xee;" 
d="M125 -6c-11 0 -20 9 -20 20c0 12 9 20 20 20c59 0 119 3 173 6c-4 38 -7 87 -7 141c0 125 18 285 19 317c0 9 -1 10 -8 10c-69 0 -158 -13 -165 -13c-11 0 -20 8 -20 20c0 10 8 18 18 20c62 9 133 14 176 14c26 0 39 -15 39 -41c0 -32 -19 -201 -19 -327
c0 -54 3 -102 7 -138c88 6 153 14 157 14c12 0 20 -8 20 -20c0 -10 -8 -18 -18 -20c-108 -13 -271 -23 -372 -23zM108 658c0 7 3 13 8 16c65 49 129 92 193 132c3 2 7 3 11 3s8 -1 11 -3c71 -46 128 -90 175 -133c4 -4 6 -9 6 -15c0 -11 -9 -20 -20 -20c-5 0 -10 2 -14 6
c-42 39 -94 79 -158 122c-64 -40 -123 -81 -180 -124c-3 -2 -7 -4 -12 -4c-11 0 -20 9 -20 20z" />
    <glyph glyph-name="idieresis" unicode="&#xef;" 
d="M125 -6c-11 0 -20 9 -20 20c0 12 9 20 20 20c59 0 119 3 173 6c-4 38 -7 87 -7 141c0 125 18 285 19 317c0 9 -1 10 -8 10c-69 0 -158 -13 -165 -13c-11 0 -20 8 -20 20c0 10 8 18 18 20c62 9 133 14 176 14c26 0 39 -15 39 -41c0 -32 -19 -201 -19 -327
c0 -54 3 -102 7 -138c88 6 153 14 157 14c12 0 20 -8 20 -20c0 -10 -8 -18 -18 -20c-108 -13 -271 -23 -372 -23zM189 712c0 10 1 19 3 29s10 16 20 16c12 0 20 -8 20 -20c0 -4 -3 -15 -3 -25c0 -20 6 -42 6 -48c0 -11 -8 -20 -20 -20c-10 0 -18 8 -20 17c-4 20 -6 37 -6 51
zM388 675c0 6 2 11 2 32c0 28 -1 38 -1 42c0 12 9 20 20 20s20 -8 20 -19c1 -10 1 -27 1 -43c0 -14 0 -27 -2 -35c-2 -10 -10 -17 -20 -17c-11 0 -20 9 -20 20z" />
    <glyph glyph-name="igrave" unicode="&#xec;" 
d="M125 -6c-11 0 -20 9 -20 20c0 12 9 20 20 20c59 0 119 3 173 6c-4 38 -7 87 -7 141c0 125 18 285 19 317c0 9 -1 10 -8 10c-69 0 -158 -13 -165 -13c-11 0 -20 8 -20 20c0 10 8 18 18 20c62 9 133 14 176 14c26 0 39 -15 39 -41c0 -32 -19 -201 -19 -327
c0 -54 3 -102 7 -138c88 6 153 14 157 14c12 0 20 -8 20 -20c0 -10 -8 -18 -18 -20c-108 -13 -271 -23 -372 -23zM189 789c0 11 9 20 20 20c5 0 9 -1 12 -4l202 -151c5 -3 8 -9 8 -16c0 -11 -9 -20 -20 -20c-5 0 -9 2 -12 4l-202 151c-5 4 -8 10 -8 16z" />
    <glyph glyph-name="ij" unicode="&#x133;" 
d="M350 -213c-51 0 -97 17 -126 47c-4 4 -7 9 -7 15c0 11 9 20 20 20c6 0 10 -2 14 -5c22 -23 57 -37 99 -37c74 0 117 75 117 212c0 185 -35 485 -35 494c0 12 8 20 20 20c10 0 18 -8 20 -18c16 -114 35 -412 35 -496c0 -158 -57 -252 -157 -252zM117 727c0 40 14 60 44 60
c24 0 41 -18 41 -41c0 -25 -17 -59 -40 -82c-4 -3 -8 -5 -14 -5s-11 3 -14 7c-7 3 -12 8 -14 16c-2 18 -3 33 -3 45zM119 169c0 149 9 316 15 361c2 10 10 18 20 18c12 0 20 -9 20 -20c0 -8 -15 -136 -15 -359c0 -101 9 -156 9 -161c0 -12 -8 -20 -20 -20
c-10 0 -18 8 -20 18c-5 39 -9 98 -9 163zM414 737c0 32 15 56 41 56c25 0 40 -19 40 -48c0 -16 -5 -38 -14 -62c-3 -8 -10 -13 -18 -13c-3 0 -7 2 -9 4c-3 -2 -7 -4 -10 -4c-8 0 -15 5 -18 12c-8 17 -12 37 -12 55z" />
    <glyph glyph-name="imacron" unicode="&#x12b;" 
d="M125 -6c-11 0 -20 9 -20 20c0 12 9 20 20 20c59 0 119 3 173 6c-4 38 -7 87 -7 141c0 125 18 285 19 317c0 9 -1 10 -8 10c-69 0 -158 -13 -165 -13c-11 0 -20 8 -20 20c0 10 8 18 18 20c62 9 133 14 176 14c26 0 39 -15 39 -41c0 -32 -19 -201 -19 -327
c0 -54 3 -102 7 -138c88 6 153 14 157 14c12 0 20 -8 20 -20c0 -10 -8 -18 -18 -20c-108 -13 -271 -23 -372 -23zM102 674c0 11 8 19 18 20c106 15 288 22 377 22c12 0 20 -8 20 -20c0 -11 -8 -20 -20 -20c-216 0 -370 -22 -375 -22c-11 0 -20 9 -20 20z" />
    <glyph glyph-name="iogonek" unicode="&#x12f;" 
d="M125 -6c-11 0 -20 9 -20 20c0 12 9 20 20 20c59 0 119 3 173 6c-4 38 -7 87 -7 141c0 125 18 285 19 317c0 9 -1 10 -8 10c-69 0 -158 -13 -165 -13c-11 0 -20 8 -20 20c0 10 8 18 18 20c62 9 133 14 176 14c26 0 39 -15 39 -41c0 -32 -19 -201 -19 -327
c0 -54 3 -102 7 -138c88 6 153 14 157 14c12 0 20 -8 20 -20c0 -10 -8 -18 -18 -20c-44 -5 -96 -10 -150 -14l-2 -1c-66 -34 -114 -84 -114 -118c0 -29 26 -50 59 -50c32 0 70 15 97 38c3 3 8 5 13 5c12 0 20 -9 20 -20c0 -6 -2 -12 -7 -16c-33 -28 -82 -47 -123 -47
c-55 0 -99 37 -99 87c0 37 30 81 81 118c-54 -3 -106 -5 -147 -5zM259 744c0 39 14 60 44 60c24 0 41 -19 41 -42c0 -36 -36 -86 -54 -86s-31 14 -31 68z" />
    <glyph glyph-name="itilde" unicode="&#x129;" 
d="M125 -6c-11 0 -20 9 -20 20c0 12 9 20 20 20c59 0 119 3 173 6c-4 38 -7 87 -7 141c0 125 18 285 19 317c0 9 -1 10 -8 10c-69 0 -158 -13 -165 -13c-11 0 -20 8 -20 20c0 10 8 18 18 20c62 9 133 14 176 14c26 0 39 -15 39 -41c0 -32 -19 -201 -19 -327
c0 -54 3 -102 7 -138c88 6 153 14 157 14c12 0 20 -8 20 -20c0 -10 -8 -18 -18 -20c-108 -13 -271 -23 -372 -23zM77 657v4c15 78 72 133 141 133c52 0 83 -29 113 -60c27 -28 48 -49 85 -49c44 0 79 40 87 102c1 10 10 17 20 17c11 0 20 -9 20 -20v-3
c-11 -81 -62 -136 -127 -136c-52 0 -83 30 -113 61c-27 27 -48 48 -85 48c-49 0 -90 -40 -101 -100c-2 -9 -10 -17 -20 -17c-11 0 -20 9 -20 20z" />
    <glyph glyph-name="j" unicode="j" 
d="M280 -221c-98 0 -155 47 -208 171c-2 3 -2 6 -2 9c0 11 8 20 20 20c8 0 15 -6 18 -13c48 -111 92 -147 171 -147c66 0 118 87 118 198c0 77 -8 344 -17 450c-2 31 -5 35 -33 39c-20 3 -48 3 -79 3c-59 0 -96 -5 -104 -5c-11 0 -20 9 -20 20s8 19 18 20c32 4 70 5 106 5
c33 0 64 -1 87 -4c48 -6 61 -21 65 -72c9 -104 17 -378 17 -456c0 -133 -67 -238 -157 -238zM304 744c0 31 15 56 41 56c25 0 40 -20 40 -49c0 -44 -15 -76 -41 -76s-40 28 -40 69z" />
    <glyph glyph-name="uni0237" unicode="&#x237;" 
d="M280 -221c-98 0 -155 47 -208 171c-2 3 -2 6 -2 9c0 11 8 20 20 20c8 0 15 -6 18 -13c48 -111 92 -147 171 -147c66 0 118 87 118 198c0 77 -8 344 -17 450c-2 31 -5 35 -33 39c-20 3 -48 3 -79 3c-59 0 -96 -5 -104 -5c-11 0 -20 9 -20 20s8 19 18 20c32 4 70 5 106 5
c33 0 64 -1 87 -4c48 -6 61 -21 65 -72c9 -104 17 -378 17 -456c0 -133 -67 -238 -157 -238z" />
    <glyph glyph-name="jcircumflex" unicode="&#x135;" 
d="M280 -221c-98 0 -155 47 -208 171c-2 3 -2 6 -2 9c0 11 8 20 20 20c8 0 15 -6 18 -13c48 -111 92 -147 171 -147c66 0 118 87 118 198c0 77 -8 344 -17 450c-2 31 -5 35 -33 39c-20 3 -48 3 -79 3c-59 0 -96 -5 -104 -5c-11 0 -20 9 -20 20s8 19 18 20c32 4 70 5 106 5
c33 0 64 -1 87 -4c48 -6 61 -21 65 -72c9 -104 17 -378 17 -456c0 -133 -67 -238 -157 -238zM108 658c0 7 3 13 8 16c65 49 129 92 193 132c3 2 7 3 11 3s8 -1 11 -3c71 -46 128 -90 175 -133c4 -4 6 -9 6 -15c0 -11 -9 -20 -20 -20c-5 0 -10 2 -14 6
c-42 39 -94 79 -158 122c-64 -40 -123 -81 -180 -124c-3 -2 -7 -4 -12 -4c-11 0 -20 9 -20 20z" />
    <glyph glyph-name="k" unicode="k" 
d="M128 -14c-11 0 -20 9 -20 21c0 6 23 242 23 510c0 117 -9 271 -9 274c0 12 9 20 20 20s20 -8 20 -19c5 -88 9 -206 9 -275c0 -71 -3 -169 -7 -268c143 83 261 185 347 298c4 5 10 8 16 8c11 0 20 -8 20 -20c0 -4 -2 -8 -4 -12c-62 -83 -141 -159 -234 -227
c79 -77 182 -192 246 -273c3 -3 5 -8 5 -13c0 -11 -9 -20 -20 -20c-6 0 -12 3 -15 8c-68 83 -171 199 -249 275c-36 -25 -74 -49 -114 -71c-4 -70 -9 -139 -14 -197c0 -11 -10 -19 -20 -19z" />
    <glyph glyph-name="uni0137" unicode="&#x137;" 
d="M128 -14c-11 0 -20 9 -20 21c0 6 23 242 23 510c0 117 -9 271 -9 274c0 12 9 20 20 20s20 -8 20 -19c5 -88 9 -206 9 -275c0 -71 -3 -169 -7 -268c143 83 261 185 347 298c4 5 10 8 16 8c11 0 20 -8 20 -20c0 -4 -2 -8 -4 -12c-62 -83 -141 -159 -234 -227
c79 -77 182 -192 246 -273c3 -3 5 -8 5 -13c0 -11 -9 -20 -20 -20c-6 0 -12 3 -15 8c-68 83 -171 199 -249 275c-36 -25 -74 -49 -114 -71c-4 -70 -9 -139 -14 -197c0 -11 -10 -19 -20 -19zM236 -243c0 5 2 10 5 14c35 40 79 114 90 145c3 8 11 13 19 13c11 0 20 -9 20 -20
c0 -3 -1 -6 -2 -8c-13 -35 -60 -114 -97 -158c-4 -4 -9 -6 -15 -6c-11 0 -20 9 -20 20z" />
    <glyph glyph-name="kgreenlandic" unicode="&#x138;" 
d="M128 -14c-11 0 -20 9 -20 20c0 7 23 261 23 529c0 11 9 20 20 20c12 0 20 -9 20 -20c0 -76 -3 -181 -8 -286c144 83 262 185 348 298c4 5 10 8 16 8c11 0 20 -8 20 -20c0 -4 -2 -8 -4 -12c-62 -83 -141 -159 -234 -227c79 -77 182 -192 246 -273c3 -3 5 -8 5 -13
c0 -11 -9 -20 -20 -20c-6 0 -12 3 -15 8c-68 83 -171 199 -249 275c-36 -25 -75 -49 -115 -71c-3 -70 -8 -138 -13 -197c0 -11 -9 -19 -20 -19z" />
    <glyph glyph-name="l" unicode="l" 
d="M340 -9c-102 0 -117 73 -117 220c0 149 18 337 47 507c0 5 -3 8 -10 8c-65 0 -177 -22 -183 -22c-11 0 -20 9 -20 20c0 9 7 18 16 19c63 13 153 24 198 24c24 0 41 -16 41 -39c0 -7 -49 -261 -49 -517c0 -136 7 -180 77 -180c47 0 114 19 178 51c3 1 6 2 9 2
c11 0 20 -9 20 -20c0 -8 -5 -15 -11 -18c-69 -34 -142 -55 -196 -55z" />
    <glyph glyph-name="lacute" unicode="&#x13a;" 
d="M340 -9c-102 0 -117 73 -117 220c0 149 18 337 47 507c0 5 -3 8 -10 8c-65 0 -177 -22 -183 -22c-11 0 -20 9 -20 20c0 9 7 18 16 19c63 13 153 24 198 24c24 0 41 -16 41 -39c0 -7 -49 -261 -49 -517c0 -136 7 -180 77 -180c47 0 114 19 178 51c3 1 6 2 9 2
c11 0 20 -9 20 -20c0 -8 -5 -15 -11 -18c-69 -34 -142 -55 -196 -55zM189 898c0 7 3 13 8 16l202 151c3 3 7 4 12 4c11 0 20 -9 20 -20c0 -6 -3 -12 -8 -16l-202 -151c-3 -2 -7 -4 -12 -4c-11 0 -20 9 -20 20z" />
    <glyph glyph-name="lcaron" unicode="&#x13e;" 
d="M340 -9c-102 0 -117 73 -117 220c0 149 18 337 47 507c0 5 -3 8 -10 8c-65 0 -177 -22 -183 -22c-11 0 -20 9 -20 20c0 9 7 18 16 19c63 13 153 24 198 24c24 0 41 -16 41 -39c0 -7 -49 -261 -49 -517c0 -136 7 -180 77 -180c47 0 114 19 178 51c3 1 6 2 9 2
c11 0 20 -9 20 -20c0 -8 -5 -15 -11 -18c-69 -34 -142 -55 -196 -55zM413 452c0 4 1 8 3 11c30 48 46 98 46 142c0 35 -9 63 -26 81c-4 3 -6 8 -6 13c0 11 9 20 20 20c6 0 11 -2 15 -6c24 -26 37 -64 37 -108c0 -52 -18 -110 -52 -163c-3 -6 -10 -10 -17 -10
c-11 0 -20 9 -20 20z" />
    <glyph glyph-name="uni013C" unicode="&#x13c;" 
d="M340 -9c-102 0 -117 73 -117 220c0 149 18 337 47 507c0 5 -3 8 -10 8c-65 0 -177 -22 -183 -22c-11 0 -20 9 -20 20c0 9 7 18 16 19c63 13 153 24 198 24c24 0 41 -16 41 -39c0 -7 -49 -261 -49 -517c0 -136 7 -180 77 -180c47 0 114 19 178 51c3 1 6 2 9 2
c11 0 20 -9 20 -20c0 -8 -5 -15 -11 -18c-69 -34 -142 -55 -196 -55zM236 -243c0 5 2 10 5 14c35 40 79 114 90 145c3 8 11 13 19 13c11 0 20 -9 20 -20c0 -3 -1 -6 -2 -8c-13 -35 -60 -114 -97 -158c-4 -4 -9 -6 -15 -6c-11 0 -20 9 -20 20z" />
    <glyph glyph-name="ldot" unicode="&#x140;" 
d="M340 -9c-102 0 -117 73 -117 220c0 149 18 337 47 507c0 5 -3 8 -10 8c-65 0 -177 -22 -183 -22c-11 0 -20 9 -20 20c0 9 7 18 16 19c63 13 153 24 198 24c24 0 41 -16 41 -39c0 -7 -49 -261 -49 -517c0 -136 7 -180 77 -180c47 0 114 19 178 51c3 1 6 2 9 2
c11 0 20 -9 20 -20c0 -8 -5 -15 -11 -18c-69 -34 -142 -55 -196 -55zM490 387c0 42 31 72 73 72c47 0 87 -33 87 -74c0 -33 -21 -61 -61 -75c-7 -3 -12 -4 -18 -4c-49 0 -81 31 -81 81z" />
    <glyph glyph-name="lslash" unicode="&#x142;" 
d="M340 -9c-102 0 -117 73 -117 220c0 34 1 69 3 106c-51 -26 -97 -52 -134 -74c-3 -2 -6 -3 -10 -3c-11 0 -20 9 -20 20c0 7 4 14 10 17c43 25 97 56 156 87c8 114 22 238 42 354c0 5 -3 8 -10 8c-65 0 -177 -22 -183 -22c-11 0 -20 9 -20 20c0 9 7 18 16 19
c63 13 153 24 198 24c24 0 41 -16 41 -39c0 -5 -29 -157 -42 -342c72 37 148 74 217 104c2 1 5 2 8 2c11 0 20 -9 20 -20c0 -8 -5 -15 -12 -18c-74 -33 -159 -74 -236 -115c-3 -42 -4 -85 -4 -128c0 -136 7 -180 77 -180c47 0 114 19 178 51c3 1 6 2 9 2c11 0 20 -9 20 -20
c0 -8 -5 -15 -11 -18c-69 -34 -142 -55 -196 -55z" />
    <glyph glyph-name="m" unicode="m" 
d="M540 3c-12 0 -20 8 -20 20c2 37 2 111 2 190c0 174 -27 265 -77 265c-36 0 -88 -48 -122 -115c4 -58 7 -135 7 -203c0 -38 -1 -75 -3 -106c0 -11 -10 -19 -20 -19c-11 0 -20 9 -20 21c0 4 3 37 3 104c0 84 -4 179 -11 237c-5 60 -22 90 -45 90c-37 0 -90 -42 -131 -103
c-1 -50 -1 -102 -1 -152c0 -83 1 -164 3 -220c0 -12 -9 -20 -20 -20s-20 8 -20 19c-2 54 -3 135 -3 221c0 109 1 226 3 305c0 11 9 19 20 19s20 -8 20 -20l-2 -92c43 53 94 85 136 85c40 0 67 -39 77 -106c39 57 88 95 131 95c82 0 115 -106 115 -305c0 -78 0 -154 -2 -191
c-1 -11 -10 -19 -20 -19z" />
    <glyph glyph-name="n" unicode="n" 
d="M488 -7c-12 0 -20 9 -20 21c0 5 13 147 13 291c0 132 -40 202 -108 202s-163 -108 -226 -263c2 -88 5 -177 4 -241c0 -11 -9 -20 -20 -20s-20 9 -20 20c1 105 -7 288 -7 409c0 45 0 89 3 130c0 11 9 19 20 19s20 -9 20 -20c0 -4 -3 -58 -3 -129c0 -28 0 -58 1 -90
c65 136 152 225 228 225c95 0 148 -90 148 -242c0 -81 -5 -199 -13 -293c-1 -10 -10 -19 -20 -19z" />
    <glyph glyph-name="nacute" unicode="&#x144;" 
d="M488 -7c-12 0 -20 9 -20 21c0 5 13 147 13 291c0 132 -40 202 -108 202s-163 -108 -226 -263c2 -88 5 -177 4 -241c0 -11 -9 -20 -20 -20s-20 9 -20 20c1 105 -7 288 -7 409c0 45 0 89 3 130c0 11 9 19 20 19s20 -9 20 -20c0 -4 -3 -58 -3 -129c0 -28 0 -58 1 -90
c65 136 152 225 228 225c95 0 148 -90 148 -242c0 -81 -5 -199 -13 -293c-1 -10 -10 -19 -20 -19zM189 641c0 7 3 13 8 16l202 151c3 3 7 4 12 4c11 0 20 -9 20 -20c0 -6 -3 -12 -8 -16l-202 -151c-3 -2 -7 -4 -12 -4c-11 0 -20 9 -20 20z" />
    <glyph glyph-name="napostrophe" unicode="&#x149;" 
d="M8 465c-11 0 -20 8 -20 20c0 6 2 11 6 14c84 74 132 133 147 181c-11 -6 -24 -9 -37 -9c-40 0 -70 29 -70 66c0 40 34 71 78 71s78 -40 78 -88c0 -69 -54 -149 -168 -250c-4 -3 -8 -5 -14 -5zM187 405c0 43 3 86 3 125c0 11 10 19 20 19c11 0 20 -8 20 -20
c0 -4 -3 -60 -3 -124c0 -27 0 -57 1 -88c65 134 151 222 225 222c92 0 144 -89 144 -239c0 -79 -5 -196 -13 -288c0 -10 -9 -19 -20 -19s-20 9 -20 21c0 5 13 144 13 286c0 129 -38 199 -104 199c-68 0 -162 -108 -223 -262c2 -85 5 -172 5 -234c0 -11 -10 -20 -20 -20
c-12 0 -20 9 -20 20c0 103 -8 283 -8 402z" />
    <glyph glyph-name="ncaron" unicode="&#x148;" 
d="M488 -7c-12 0 -20 9 -20 21c0 5 13 147 13 291c0 132 -40 202 -108 202s-163 -108 -226 -263c2 -88 5 -177 4 -241c0 -11 -9 -20 -20 -20s-20 9 -20 20c1 105 -7 288 -7 409c0 45 0 89 3 130c0 11 9 19 20 19s20 -9 20 -20c0 -4 -3 -58 -3 -129c0 -28 0 -58 1 -90
c65 136 152 225 228 225c95 0 148 -90 148 -242c0 -81 -5 -199 -13 -293c-1 -10 -10 -19 -20 -19zM108 789c0 11 9 20 20 20c5 0 10 -2 14 -5c42 -40 94 -79 158 -122c64 40 123 80 180 123c3 3 7 4 12 4c11 0 20 -9 20 -20c0 -6 -3 -12 -8 -16c-65 -48 -129 -92 -193 -132
c-3 -2 -7 -3 -11 -3s-8 2 -11 4c-71 46 -128 89 -175 133c-4 3 -6 9 -6 14z" />
    <glyph glyph-name="uni0146" unicode="&#x146;" 
d="M488 -7c-12 0 -20 9 -20 21c0 5 13 147 13 291c0 132 -40 202 -108 202s-163 -108 -226 -263c2 -88 5 -177 4 -241c0 -11 -9 -20 -20 -20s-20 9 -20 20c1 105 -7 288 -7 409c0 45 0 89 3 130c0 11 9 19 20 19s20 -9 20 -20c0 -4 -3 -58 -3 -129c0 -28 0 -58 1 -90
c65 136 152 225 228 225c95 0 148 -90 148 -242c0 -81 -5 -199 -13 -293c-1 -10 -10 -19 -20 -19zM236 -243c0 5 2 10 5 14c35 40 79 114 90 145c3 8 11 13 19 13c11 0 20 -9 20 -20c0 -3 -1 -6 -2 -8c-13 -35 -60 -114 -97 -158c-4 -4 -9 -6 -15 -6c-11 0 -20 9 -20 20z
" />
    <glyph glyph-name="ntilde" unicode="&#xf1;" 
d="M488 -7c-12 0 -20 9 -20 21c0 5 13 147 13 291c0 132 -40 202 -108 202s-163 -108 -226 -263c2 -88 5 -177 4 -241c0 -11 -9 -20 -20 -20s-20 9 -20 20c1 105 -7 288 -7 409c0 45 0 89 3 130c0 11 9 19 20 19s20 -9 20 -20c0 -4 -3 -58 -3 -129c0 -28 0 -58 1 -90
c65 136 152 225 228 225c95 0 148 -90 148 -242c0 -81 -5 -199 -13 -293c-1 -10 -10 -19 -20 -19zM77 657v4c15 78 72 133 141 133c52 0 83 -29 113 -60c27 -28 48 -49 85 -49c44 0 79 40 87 102c1 10 10 17 20 17c11 0 20 -9 20 -20v-3c-11 -81 -62 -136 -127 -136
c-52 0 -83 30 -113 61c-27 27 -48 48 -85 48c-49 0 -90 -40 -101 -100c-2 -9 -10 -17 -20 -17c-11 0 -20 9 -20 20z" />
    <glyph glyph-name="eng" unicode="&#x14b;" 
d="M383 -213c-48 0 -92 20 -123 55c-3 4 -5 8 -5 14c0 11 8 20 20 20c6 0 10 -3 14 -7c25 -28 57 -42 92 -42c49 0 72 48 83 191c7 92 12 207 12 287c0 132 -40 202 -108 202s-163 -108 -226 -263c2 -95 4 -200 4 -243c0 -11 -9 -19 -20 -19s-20 8 -20 20
c1 72 -7 339 -7 411c0 45 0 90 3 130c0 11 9 20 20 20s20 -9 20 -21c0 -6 -3 -60 -3 -129l1 -90c65 135 152 224 228 224c95 0 148 -90 148 -242c0 -80 -5 -197 -12 -290c-13 -161 -44 -228 -121 -228z" />
    <glyph glyph-name="o" unicode="o" 
d="M299 -12c-136 0 -213 94 -213 257c0 171 107 310 239 310c131 0 210 -112 210 -294c0 -161 -97 -273 -236 -273zM126 245c0 -142 60 -217 173 -217c116 0 196 94 196 233c0 162 -63 254 -170 254c-109 0 -199 -120 -199 -270z" />
    <glyph glyph-name="oacute" unicode="&#xf3;" 
d="M299 -12c-136 0 -213 94 -213 257c0 171 107 310 239 310c131 0 210 -112 210 -294c0 -161 -97 -273 -236 -273zM126 245c0 -142 60 -217 173 -217c116 0 196 94 196 233c0 162 -63 254 -170 254c-109 0 -199 -120 -199 -270zM189 641c0 7 3 13 8 16l202 151
c3 3 7 4 12 4c11 0 20 -9 20 -20c0 -6 -3 -12 -8 -16l-202 -151c-3 -2 -7 -4 -12 -4c-11 0 -20 9 -20 20z" />
    <glyph glyph-name="obreve" unicode="&#x14f;" 
d="M299 -12c-136 0 -213 94 -213 257c0 171 107 310 239 310c131 0 210 -112 210 -294c0 -161 -97 -273 -236 -273zM116 782c0 11 9 20 20 20c9 0 17 -6 19 -15c17 -59 84 -102 162 -102c76 0 134 41 147 103c2 9 10 16 20 16c11 0 20 -9 20 -20c0 -1 0 -3 -1 -4
c-17 -81 -91 -135 -186 -135c-96 0 -178 54 -200 131c-1 2 -1 4 -1 6zM126 245c0 -142 60 -217 173 -217c116 0 196 94 196 233c0 162 -63 254 -170 254c-109 0 -199 -120 -199 -270z" />
    <glyph glyph-name="ocircumflex" unicode="&#xf4;" 
d="M299 -12c-136 0 -213 94 -213 257c0 171 107 310 239 310c131 0 210 -112 210 -294c0 -161 -97 -273 -236 -273zM108 658c0 7 3 13 8 16c65 49 129 92 193 132c3 2 7 3 11 3s8 -1 11 -3c71 -46 128 -90 175 -133c4 -4 6 -9 6 -15c0 -11 -9 -20 -20 -20c-5 0 -10 2 -14 6
c-42 39 -94 79 -158 122c-64 -40 -123 -81 -180 -124c-3 -2 -7 -4 -12 -4c-11 0 -20 9 -20 20zM126 245c0 -142 60 -217 173 -217c116 0 196 94 196 233c0 162 -63 254 -170 254c-109 0 -199 -120 -199 -270z" />
    <glyph glyph-name="odieresis" unicode="&#xf6;" 
d="M299 -12c-136 0 -213 94 -213 257c0 171 107 310 239 310c131 0 210 -112 210 -294c0 -161 -97 -273 -236 -273zM126 245c0 -142 60 -217 173 -217c116 0 196 94 196 233c0 162 -63 254 -170 254c-109 0 -199 -120 -199 -270zM189 712c0 10 1 19 3 29s10 16 20 16
c12 0 20 -8 20 -20c0 -4 -3 -15 -3 -25c0 -20 6 -42 6 -48c0 -11 -8 -20 -20 -20c-10 0 -18 8 -20 17c-4 20 -6 37 -6 51zM388 675c0 6 2 11 2 32c0 28 -1 38 -1 42c0 12 9 20 20 20s20 -8 20 -19c1 -10 1 -27 1 -43c0 -14 0 -27 -2 -35c-2 -10 -10 -17 -20 -17
c-11 0 -20 9 -20 20z" />
    <glyph glyph-name="ograve" unicode="&#xf2;" 
d="M299 -12c-136 0 -213 94 -213 257c0 171 107 310 239 310c131 0 210 -112 210 -294c0 -161 -97 -273 -236 -273zM126 245c0 -142 60 -217 173 -217c116 0 196 94 196 233c0 162 -63 254 -170 254c-109 0 -199 -120 -199 -270zM189 789c0 11 9 20 20 20c5 0 9 -1 12 -4
l202 -151c5 -3 8 -9 8 -16c0 -11 -9 -20 -20 -20c-5 0 -9 2 -12 4l-202 151c-5 4 -8 10 -8 16z" />
    <glyph glyph-name="ohungarumlaut" unicode="&#x151;" 
d="M299 -12c-136 0 -213 94 -213 257c0 171 107 310 239 310c131 0 210 -112 210 -294c0 -161 -97 -273 -236 -273zM126 245c0 -142 60 -217 173 -217c116 0 196 94 196 233c0 162 -63 254 -170 254c-109 0 -199 -120 -199 -270zM166 658c0 5 1 10 5 13
c48 57 95 107 143 153c3 3 8 5 14 5c11 0 20 -9 20 -20c0 -5 -3 -11 -7 -14c-46 -44 -92 -94 -140 -150c-4 -4 -9 -7 -15 -7c-11 0 -20 9 -20 20zM369 658c0 5 2 10 5 13c48 57 95 107 143 153c4 3 9 5 14 5c11 0 20 -9 20 -20c0 -5 -2 -10 -6 -14
c-46 -44 -93 -94 -141 -150c-3 -4 -9 -7 -15 -7c-11 0 -20 9 -20 20z" />
    <glyph glyph-name="omacron" unicode="&#x14d;" 
d="M299 -12c-136 0 -213 94 -213 257c0 171 107 310 239 310c131 0 210 -112 210 -294c0 -161 -97 -273 -236 -273zM102 674c0 11 8 19 18 20c106 15 288 22 377 22c12 0 20 -8 20 -20c0 -11 -8 -20 -20 -20c-216 0 -370 -22 -375 -22c-11 0 -20 9 -20 20zM126 245
c0 -142 60 -217 173 -217c116 0 196 94 196 233c0 162 -63 254 -170 254c-109 0 -199 -120 -199 -270z" />
    <glyph glyph-name="oslash" unicode="&#xf8;" 
d="M299 -12c-67 0 -119 23 -156 65c-23 -27 -44 -53 -64 -78c-4 -5 -10 -8 -16 -8c-11 0 -20 8 -20 20c0 4 2 9 4 12c21 28 46 58 73 89c-22 41 -34 94 -34 157c0 171 107 310 239 310c65 0 117 -28 153 -78c27 27 52 51 73 71c4 3 9 5 14 5c12 0 20 -8 20 -20
c0 -6 -2 -11 -6 -14c-24 -22 -50 -47 -80 -77c24 -47 36 -109 36 -181c0 -161 -97 -273 -236 -273zM126 245c0 -52 8 -94 23 -128c94 110 208 234 303 329c-29 45 -72 69 -127 69c-109 0 -199 -120 -199 -270zM168 87c29 -39 73 -59 131 -59c116 0 196 94 196 233
c0 62 -9 114 -27 154c-95 -96 -208 -220 -300 -328z" />
    <glyph glyph-name="oslashacute" unicode="&#x1ff;" 
d="M299 -12c-67 0 -119 23 -156 65c-23 -27 -44 -53 -64 -78c-4 -5 -10 -8 -16 -8c-11 0 -20 8 -20 20c0 4 2 9 4 12c21 28 46 58 73 89c-22 41 -34 94 -34 157c0 171 107 310 239 310c65 0 117 -28 153 -78c27 27 52 51 73 71c4 3 9 5 14 5c12 0 20 -8 20 -20
c0 -6 -2 -11 -6 -14c-24 -22 -50 -47 -80 -77c24 -47 36 -109 36 -181c0 -161 -97 -273 -236 -273zM126 245c0 -52 8 -94 23 -128c94 110 208 234 303 329c-29 45 -72 69 -127 69c-109 0 -199 -120 -199 -270zM168 87c29 -39 73 -59 131 -59c116 0 196 94 196 233
c0 62 -9 114 -27 154c-95 -96 -208 -220 -300 -328zM189 641c0 7 3 13 8 16l202 151c3 3 7 4 12 4c11 0 20 -9 20 -20c0 -6 -3 -12 -8 -16l-202 -151c-3 -2 -7 -4 -12 -4c-11 0 -20 9 -20 20z" />
    <glyph glyph-name="otilde" unicode="&#xf5;" 
d="M299 -12c-136 0 -213 94 -213 257c0 171 107 310 239 310c131 0 210 -112 210 -294c0 -161 -97 -273 -236 -273zM77 657v4c15 78 72 133 141 133c52 0 83 -29 113 -60c27 -28 48 -49 85 -49c44 0 79 40 87 102c1 10 10 17 20 17c11 0 20 -9 20 -20v-3
c-11 -81 -62 -136 -127 -136c-52 0 -83 30 -113 61c-27 27 -48 48 -85 48c-49 0 -90 -40 -101 -100c-2 -9 -10 -17 -20 -17c-11 0 -20 9 -20 20zM126 245c0 -142 60 -217 173 -217c116 0 196 94 196 233c0 162 -63 254 -170 254c-109 0 -199 -120 -199 -270z" />
    <glyph glyph-name="oe" unicode="&#x153;" 
d="M174 -5c-93 0 -145 99 -145 262c0 161 69 292 161 292c63 0 106 -54 127 -147c26 98 76 154 146 154c71 0 127 -68 127 -150c0 -34 -15 -58 -51 -86c-50 -39 -131 -83 -207 -114c5 -119 40 -175 113 -175c45 0 82 20 124 71c3 5 9 7 15 7c11 0 20 -9 20 -20
c0 -5 -2 -10 -5 -13c-49 -59 -97 -86 -154 -86c-71 0 -117 43 -137 127c-26 -75 -74 -122 -134 -122zM69 257c0 -142 41 -222 106 -222c69 0 120 93 120 227c0 155 -40 247 -104 247c-67 0 -122 -113 -122 -252zM332 249c66 28 137 67 182 102c28 21 36 34 36 55
c0 61 -39 110 -88 110c-76 0 -126 -98 -130 -267z" />
    <glyph glyph-name="p" unicode="p" 
d="M293 -10c-42 0 -97 13 -137 31c-3 -64 -7 -139 -12 -225c0 -10 -10 -18 -20 -18c-11 0 -20 9 -20 21c0 9 17 256 17 423c0 193 -15 341 -15 347c0 12 9 20 20 20c10 0 20 -8 20 -18c3 -34 6 -73 8 -115c57 60 121 94 177 94c112 0 205 -139 205 -300
c0 -160 -94 -260 -243 -260zM157 407c2 -62 4 -126 4 -185c0 -42 -1 -95 -4 -161c37 -17 93 -30 136 -30c127 0 203 81 203 219c0 139 -78 260 -165 260c-53 0 -118 -39 -174 -103z" />
    <glyph glyph-name="thorn" unicode="&#xfe;" 
d="M293 -10c-43 0 -98 12 -140 29c-2 -66 -5 -140 -9 -223c0 -10 -10 -18 -20 -18c-11 0 -20 9 -20 21c0 11 17 328 17 544c0 254 -15 437 -15 445c0 11 9 20 20 20c10 0 20 -8 20 -19c7 -90 12 -207 14 -322c56 53 117 83 171 83c112 0 205 -139 205 -300
c0 -160 -94 -260 -243 -260zM155 62c37 -18 94 -31 138 -31c127 0 203 81 203 219c0 139 -78 260 -165 260c-52 0 -115 -37 -170 -99v-68c0 -69 -2 -161 -6 -281z" />
    <glyph glyph-name="q" unicode="q" 
d="M494 -210c-11 0 -20 9 -20 19c-4 57 -7 155 -8 238c-48 -36 -108 -57 -166 -57c-124 0 -218 111 -218 258c0 164 114 304 247 304c60 0 124 -25 177 -70c5 -3 8 -9 8 -15c0 -4 -9 -127 -9 -345c0 -202 9 -306 9 -312c0 -11 -9 -20 -20 -20zM122 248
c0 -125 77 -218 178 -218c59 0 121 25 165 65v29c0 124 3 248 8 333c-44 35 -96 55 -144 55c-109 0 -207 -122 -207 -264z" />
    <glyph glyph-name="r" unicode="r" 
d="M157 -14c-12 0 -20 9 -20 20c0 5 15 164 15 290c0 56 -17 155 -44 227c-2 3 -2 6 -2 8c0 12 8 20 20 20c8 0 15 -5 18 -13c18 -46 32 -104 40 -156c47 102 146 181 246 181c42 0 75 -13 83 -38c15 -39 21 -98 21 -131c0 -11 -8 -20 -20 -20c-11 0 -20 9 -20 20
c0 27 -5 78 -17 113c-3 9 -23 16 -49 16c-108 0 -224 -118 -236 -241c-1 -67 -7 -193 -15 -278c-1 -10 -10 -18 -20 -18z" />
    <glyph glyph-name="racute" unicode="&#x155;" 
d="M157 -14c-12 0 -20 9 -20 20c0 5 15 164 15 290c0 56 -17 155 -44 227c-2 3 -2 6 -2 8c0 12 8 20 20 20c8 0 15 -5 18 -13c18 -46 32 -104 40 -156c47 102 146 181 246 181c42 0 75 -13 83 -38c15 -39 21 -98 21 -131c0 -11 -8 -20 -20 -20c-11 0 -20 9 -20 20
c0 27 -5 78 -17 113c-3 9 -23 16 -49 16c-108 0 -224 -118 -236 -241c-1 -67 -7 -193 -15 -278c-1 -10 -10 -18 -20 -18zM189 641c0 7 3 13 8 16l202 151c3 3 7 4 12 4c11 0 20 -9 20 -20c0 -6 -3 -12 -8 -16l-202 -151c-3 -2 -7 -4 -12 -4c-11 0 -20 9 -20 20z" />
    <glyph glyph-name="rcaron" unicode="&#x159;" 
d="M157 -14c-12 0 -20 9 -20 20c0 5 15 164 15 290c0 56 -17 155 -44 227c-2 3 -2 6 -2 8c0 12 8 20 20 20c8 0 15 -5 18 -13c18 -46 32 -104 40 -156c47 102 146 181 246 181c42 0 75 -13 83 -38c15 -39 21 -98 21 -131c0 -11 -8 -20 -20 -20c-11 0 -20 9 -20 20
c0 27 -5 78 -17 113c-3 9 -23 16 -49 16c-108 0 -224 -118 -236 -241c-1 -67 -7 -193 -15 -278c-1 -10 -10 -18 -20 -18zM108 789c0 11 9 20 20 20c5 0 10 -2 14 -5c42 -40 94 -79 158 -122c64 40 123 80 180 123c3 3 7 4 12 4c11 0 20 -9 20 -20c0 -6 -3 -12 -8 -16
c-65 -48 -129 -92 -193 -132c-3 -2 -7 -3 -11 -3s-8 2 -11 4c-71 46 -128 89 -175 133c-4 3 -6 9 -6 14z" />
    <glyph glyph-name="uni0157" unicode="&#x157;" 
d="M157 -14c-12 0 -20 9 -20 20c0 5 15 164 15 290c0 56 -17 155 -44 227c-2 3 -2 6 -2 8c0 12 8 20 20 20c8 0 15 -5 18 -13c18 -46 32 -104 40 -156c47 102 146 181 246 181c42 0 75 -13 83 -38c15 -39 21 -98 21 -131c0 -11 -8 -20 -20 -20c-11 0 -20 9 -20 20
c0 27 -5 78 -17 113c-3 9 -23 16 -49 16c-108 0 -224 -118 -236 -241c-1 -67 -7 -193 -15 -278c-1 -10 -10 -18 -20 -18zM89 -243c0 5 2 10 5 14c35 40 79 114 90 145c3 8 11 13 19 13c11 0 20 -9 20 -20c0 -3 -1 -6 -2 -8c-13 -35 -60 -114 -97 -158c-4 -4 -9 -6 -15 -6
c-11 0 -20 9 -20 20z" />
    <glyph glyph-name="s" unicode="s" 
d="M308 -15c-86 0 -162 28 -228 83c-6 4 -8 10 -8 16c0 12 8 20 20 20c4 0 9 -1 12 -4c60 -50 127 -75 204 -75c101 0 174 45 174 102s-41 83 -162 101c-116 17 -212 45 -212 152c0 106 107 180 254 180c66 0 116 -13 126 -42c7 -24 12 -62 13 -114c0 -11 -9 -20 -20 -20
s-20 9 -20 20c-1 37 -4 73 -11 96c-3 10 -42 20 -88 20c-126 0 -214 -59 -214 -140c0 -78 72 -96 177 -112c113 -17 197 -47 197 -141c0 -84 -92 -142 -214 -142z" />
    <glyph glyph-name="sacute" unicode="&#x15b;" 
d="M308 -15c-86 0 -162 28 -228 83c-6 4 -8 10 -8 16c0 12 8 20 20 20c4 0 9 -1 12 -4c60 -50 127 -75 204 -75c101 0 174 45 174 102s-41 83 -162 101c-116 17 -212 45 -212 152c0 106 107 180 254 180c66 0 116 -13 126 -42c7 -24 12 -62 13 -114c0 -11 -9 -20 -20 -20
s-20 9 -20 20c-1 37 -4 73 -11 96c-3 10 -42 20 -88 20c-126 0 -214 -59 -214 -140c0 -78 72 -96 177 -112c113 -17 197 -47 197 -141c0 -84 -92 -142 -214 -142zM189 641c0 7 3 13 8 16l202 151c3 3 7 4 12 4c11 0 20 -9 20 -20c0 -6 -3 -12 -8 -16l-202 -151
c-3 -2 -7 -4 -12 -4c-11 0 -20 9 -20 20z" />
    <glyph glyph-name="scaron" unicode="&#x161;" 
d="M308 -15c-86 0 -162 28 -228 83c-6 4 -8 10 -8 16c0 12 8 20 20 20c4 0 9 -1 12 -4c60 -50 127 -75 204 -75c101 0 174 45 174 102s-41 83 -162 101c-116 17 -212 45 -212 152c0 106 107 180 254 180c66 0 116 -13 126 -42c7 -24 12 -62 13 -114c0 -11 -9 -20 -20 -20
s-20 9 -20 20c-1 37 -4 73 -11 96c-3 10 -42 20 -88 20c-126 0 -214 -59 -214 -140c0 -78 72 -96 177 -112c113 -17 197 -47 197 -141c0 -84 -92 -142 -214 -142zM108 789c0 11 9 20 20 20c5 0 10 -2 14 -5c42 -40 94 -79 158 -122c64 40 123 80 180 123c3 3 7 4 12 4
c11 0 20 -9 20 -20c0 -6 -3 -12 -8 -16c-65 -48 -129 -92 -193 -132c-3 -2 -7 -3 -11 -3s-8 2 -11 4c-71 46 -128 89 -175 133c-4 3 -6 9 -6 14z" />
    <glyph glyph-name="scedilla" unicode="&#x15f;" 
d="M248 -234c-8 0 -15 0 -23 1c-10 1 -18 10 -18 20c0 12 9 20 21 20c2 0 11 -1 20 -1c73 0 125 36 125 82s-30 76 -85 87c-7 1 -13 5 -16 12c-71 7 -135 34 -192 81c-6 4 -8 10 -8 16c0 12 8 20 20 20c4 0 9 -1 12 -4c60 -50 127 -75 204 -75c101 0 174 45 174 102
s-41 83 -162 101c-116 17 -212 45 -212 152c0 106 107 180 254 180c66 0 116 -13 126 -42c7 -24 12 -62 13 -114c0 -11 -9 -20 -20 -20s-20 9 -20 20c-1 37 -4 73 -11 96c-3 10 -42 20 -88 20c-126 0 -214 -59 -214 -140c0 -78 72 -96 177 -112c113 -17 197 -47 197 -141
c0 -71 -66 -124 -160 -138c32 -23 51 -58 51 -101c0 -71 -72 -122 -165 -122z" />
    <glyph glyph-name="scircumflex" unicode="&#x15d;" 
d="M308 -15c-86 0 -162 28 -228 83c-6 4 -8 10 -8 16c0 12 8 20 20 20c4 0 9 -1 12 -4c60 -50 127 -75 204 -75c101 0 174 45 174 102s-41 83 -162 101c-116 17 -212 45 -212 152c0 106 107 180 254 180c66 0 116 -13 126 -42c7 -24 12 -62 13 -114c0 -11 -9 -20 -20 -20
s-20 9 -20 20c-1 37 -4 73 -11 96c-3 10 -42 20 -88 20c-126 0 -214 -59 -214 -140c0 -78 72 -96 177 -112c113 -17 197 -47 197 -141c0 -84 -92 -142 -214 -142zM108 658c0 7 3 13 8 16c65 49 129 92 193 132c3 2 7 3 11 3s8 -1 11 -3c71 -46 128 -90 175 -133
c4 -4 6 -9 6 -15c0 -11 -9 -20 -20 -20c-5 0 -10 2 -14 6c-42 39 -94 79 -158 122c-64 -40 -123 -81 -180 -124c-3 -2 -7 -4 -12 -4c-11 0 -20 9 -20 20z" />
    <glyph glyph-name="uni0219" unicode="&#x219;" 
d="M308 -15c-86 0 -162 28 -228 83c-6 4 -8 10 -8 16c0 12 8 20 20 20c4 0 9 -1 12 -4c60 -50 127 -75 204 -75c101 0 174 45 174 102s-41 83 -162 101c-116 17 -212 45 -212 152c0 106 107 180 254 180c66 0 116 -13 126 -42c7 -24 12 -62 13 -114c0 -11 -9 -20 -20 -20
s-20 9 -20 20c-1 37 -4 73 -11 96c-3 10 -42 20 -88 20c-126 0 -214 -59 -214 -140c0 -78 72 -96 177 -112c113 -17 197 -47 197 -141c0 -84 -92 -142 -214 -142zM236 -243c0 5 2 10 5 14c35 40 79 114 90 145c3 8 11 13 19 13c11 0 20 -9 20 -20c0 -3 -1 -6 -2 -8
c-13 -35 -60 -114 -97 -158c-4 -4 -9 -6 -15 -6c-11 0 -20 9 -20 20z" />
    <glyph glyph-name="germandbls" unicode="&#xdf;" 
d="M363 34c79 0 135 66 135 160c0 90 -57 174 -155 229c-7 4 -11 11 -11 18s4 13 9 17c77 54 118 118 118 184c0 78 -53 128 -138 128c-110 0 -173 -67 -173 -183c0 -36 7 -219 7 -267c0 -149 -8 -298 -23 -440c-2 -10 -10 -17 -20 -17c-11 0 -20 8 -20 20
c0 8 23 184 23 437c0 47 -7 230 -7 267c0 138 81 223 213 223c107 0 178 -68 178 -168c0 -71 -40 -141 -113 -199c96 -62 152 -152 152 -249c0 -116 -74 -200 -175 -200c-37 0 -83 15 -112 37c-6 4 -9 10 -9 17c0 12 9 20 20 20c4 0 9 -1 11 -3c23 -18 60 -31 90 -31z" />
    <glyph glyph-name="longs" unicode="&#x17f;" 
d="M224 -110c-11 0 -20 8 -20 20s31 63 31 186c0 39 -3 220 -5 348c-20 0 -40 -1 -60 -1c-26 0 -51 0 -77 2c-10 0 -18 10 -18 20c0 12 8 20 20 20c6 0 37 -2 75 -2c19 0 39 0 59 1l-1 84c0 158 53 240 160 240c66 0 124 -41 157 -112c2 -2 2 -5 2 -8c0 -12 -8 -20 -20 -20
c-8 0 -15 4 -18 12c-27 56 -70 88 -121 88c-81 0 -120 -62 -120 -200c0 -57 7 -414 7 -472c0 -73 -11 -138 -32 -193c-3 -8 -11 -13 -19 -13z" />
    <glyph glyph-name="t" unicode="t" 
d="M333 -11c-90 0 -133 64 -133 191c0 81 5 205 13 317c-52 2 -108 8 -148 17c-10 2 -16 10 -16 19c0 12 8 20 20 20c9 0 54 -12 146 -16c4 57 9 109 13 149c2 10 10 18 20 18c12 0 20 -9 20 -20c0 -2 -6 -61 -13 -148h14c106 0 234 26 242 26c12 0 20 -9 20 -20
c0 -10 -7 -18 -16 -20c-75 -15 -189 -26 -246 -26h-17c-6 -93 -12 -208 -12 -316c0 -107 29 -151 93 -151c47 0 110 16 167 42c2 2 5 2 8 2c12 0 20 -8 20 -20c0 -8 -4 -15 -11 -18c-61 -28 -130 -46 -184 -46z" />
    <glyph glyph-name="tbar" unicode="&#x167;" 
d="M333 -11c-90 0 -133 64 -133 191l1 70c-50 -5 -80 -10 -85 -10c-10 0 -18 7 -18 18c0 9 7 17 16 18c28 4 58 8 88 11c2 66 6 140 11 210c-52 2 -108 8 -148 17c-10 2 -16 10 -16 19c0 12 8 20 20 20c9 0 54 -12 146 -16c4 57 9 109 13 149c2 10 10 18 20 18
c12 0 20 -9 20 -20c0 -2 -6 -61 -13 -148h14c106 0 234 26 242 26c12 0 20 -9 20 -20c0 -10 -7 -18 -16 -20c-75 -15 -189 -26 -246 -26h-17c-4 -62 -8 -133 -10 -205c55 5 111 8 161 10c10 0 18 -8 18 -19c0 -9 -8 -18 -18 -18c-63 -2 -118 -6 -162 -10
c-1 -25 -1 -50 -1 -74c0 -107 29 -151 93 -151c47 0 110 16 167 42c2 2 5 2 8 2c12 0 20 -8 20 -20c0 -8 -4 -15 -11 -18c-61 -28 -130 -46 -184 -46z" />
    <glyph glyph-name="tcaron" unicode="&#x165;" 
d="M397 580c-12 0 -20 9 -20 20c0 5 1 9 3 11c28 46 44 94 44 136c0 34 -9 61 -26 79c-3 4 -4 8 -4 13c0 12 8 20 20 20c6 0 12 -3 15 -8c23 -25 35 -62 35 -104c0 -51 -18 -106 -50 -157c-4 -6 -10 -10 -17 -10zM49 493c0 12 8 20 20 20c9 0 53 -12 143 -16
c5 72 11 139 16 189c2 10 10 18 20 18c12 0 20 -9 20 -20c0 -2 -8 -80 -16 -188h17c106 0 234 26 242 26c12 0 20 -9 20 -20c0 -10 -7 -18 -16 -20c-75 -15 -189 -26 -246 -26h-19c-6 -85 -10 -183 -10 -276c0 -107 29 -151 93 -151c47 0 110 16 167 42c2 2 5 2 8 2
c12 0 20 -8 20 -20c0 -8 -4 -15 -11 -18c-61 -28 -130 -46 -184 -46c-90 0 -133 64 -133 191c0 72 4 176 10 277c-51 3 -106 8 -145 17c-10 2 -16 10 -16 19z" />
    <glyph glyph-name="uni0163" unicode="&#x163;" 
d="M269 496h-17c-6 -93 -12 -208 -12 -316c0 -107 29 -151 93 -151c47 0 110 16 167 42c2 2 5 2 8 2c12 0 20 -8 20 -20c0 -8 -4 -15 -11 -18c-51 -24 -108 -40 -157 -45c34 -22 53 -58 53 -102c0 -71 -72 -122 -165 -122c-8 0 -15 0 -23 1c-10 1 -18 10 -18 20
c0 12 9 20 21 20c2 0 11 -1 20 -1c73 0 125 36 125 82s-30 76 -85 87c-10 1 -18 10 -18 20c0 3 1 5 1 7c-48 25 -71 85 -71 178c0 81 5 205 13 317c-52 2 -108 8 -148 17c-10 2 -16 10 -16 19c0 12 8 20 20 20c9 0 54 -12 146 -16c4 57 9 109 13 149c2 10 10 18 20 18
c12 0 20 -9 20 -20c0 -2 -6 -61 -13 -148h14c106 0 234 26 242 26c12 0 20 -9 20 -20c0 -10 -7 -18 -16 -20c-75 -15 -189 -26 -246 -26z" />
    <glyph glyph-name="uni021B" unicode="&#x21b;" 
d="M333 -11c-90 0 -133 64 -133 191c0 81 5 205 13 317c-52 2 -108 8 -148 17c-10 2 -16 10 -16 19c0 12 8 20 20 20c9 0 54 -12 146 -16c4 57 9 109 13 149c2 10 10 18 20 18c12 0 20 -9 20 -20c0 -2 -6 -61 -13 -148h14c106 0 234 26 242 26c12 0 20 -9 20 -20
c0 -10 -7 -18 -16 -20c-75 -15 -189 -26 -246 -26h-17c-6 -93 -12 -208 -12 -316c0 -107 29 -151 93 -151c47 0 110 16 167 42c2 2 5 2 8 2c12 0 20 -8 20 -20c0 -8 -4 -15 -11 -18c-61 -28 -130 -46 -184 -46zM236 -243c0 5 2 10 5 14c35 40 79 114 90 145c3 8 11 13 19 13
c11 0 20 -9 20 -20c0 -3 -1 -6 -2 -8c-13 -35 -60 -114 -97 -158c-4 -4 -9 -6 -15 -6c-11 0 -20 9 -20 20z" />
    <glyph glyph-name="u" unicode="u" 
d="M276 -12c-115 0 -166 68 -166 221c0 101 14 212 41 333c1 9 10 16 19 16c12 0 20 -8 20 -20c0 -2 0 -3 -1 -8c-26 -114 -39 -223 -39 -321c0 -132 35 -181 126 -181c50 0 109 23 187 72c-2 22 -3 53 -3 109c0 86 3 213 9 316c1 11 10 19 20 19c12 0 20 -9 20 -21
c0 -8 -9 -136 -9 -314c0 -67 1 -97 4 -119s19 -57 40 -83c3 -3 4 -8 4 -13c0 -11 -8 -20 -20 -20c-6 0 -12 4 -16 8c-17 23 -33 53 -42 79c-77 -50 -139 -73 -194 -73z" />
    <glyph glyph-name="uacute" unicode="&#xfa;" 
d="M276 -12c-115 0 -166 68 -166 221c0 101 14 212 41 333c1 9 10 16 19 16c12 0 20 -8 20 -20c0 -2 0 -3 -1 -8c-26 -114 -39 -223 -39 -321c0 -132 35 -181 126 -181c50 0 109 23 187 72c-2 22 -3 53 -3 109c0 86 3 213 9 316c1 11 10 19 20 19c12 0 20 -9 20 -21
c0 -8 -9 -136 -9 -314c0 -67 1 -97 4 -119s19 -57 40 -83c3 -3 4 -8 4 -13c0 -11 -8 -20 -20 -20c-6 0 -12 4 -16 8c-17 23 -33 53 -42 79c-77 -50 -139 -73 -194 -73zM189 641c0 7 3 13 8 16l202 151c3 3 7 4 12 4c11 0 20 -9 20 -20c0 -6 -3 -12 -8 -16l-202 -151
c-3 -2 -7 -4 -12 -4c-11 0 -20 9 -20 20z" />
    <glyph glyph-name="ubreve" unicode="&#x16d;" 
d="M276 -12c-115 0 -166 68 -166 221c0 101 14 212 41 333c1 9 10 16 19 16c12 0 20 -8 20 -20c0 -2 0 -3 -1 -8c-26 -114 -39 -223 -39 -321c0 -132 35 -181 126 -181c50 0 109 23 187 72c-2 22 -3 53 -3 109c0 86 3 213 9 316c1 11 10 19 20 19c12 0 20 -9 20 -21
c0 -8 -9 -136 -9 -314c0 -67 1 -97 4 -119s19 -57 40 -83c3 -3 4 -8 4 -13c0 -11 -8 -20 -20 -20c-6 0 -12 4 -16 8c-17 23 -33 53 -42 79c-77 -50 -139 -73 -194 -73zM116 782c0 11 9 20 20 20c9 0 17 -6 19 -15c17 -59 84 -102 162 -102c76 0 134 41 147 103
c2 9 10 16 20 16c11 0 20 -9 20 -20c0 -1 0 -3 -1 -4c-17 -81 -91 -135 -186 -135c-96 0 -178 54 -200 131c-1 2 -1 4 -1 6z" />
    <glyph glyph-name="ucircumflex" unicode="&#xfb;" 
d="M276 -12c-115 0 -166 68 -166 221c0 101 14 212 41 333c1 9 10 16 19 16c12 0 20 -8 20 -20c0 -2 0 -3 -1 -8c-26 -114 -39 -223 -39 -321c0 -132 35 -181 126 -181c50 0 109 23 187 72c-2 22 -3 53 -3 109c0 86 3 213 9 316c1 11 10 19 20 19c12 0 20 -9 20 -21
c0 -8 -9 -136 -9 -314c0 -67 1 -97 4 -119s19 -57 40 -83c3 -3 4 -8 4 -13c0 -11 -8 -20 -20 -20c-6 0 -12 4 -16 8c-17 23 -33 53 -42 79c-77 -50 -139 -73 -194 -73zM108 658c0 7 3 13 8 16c65 49 129 92 193 132c3 2 7 3 11 3s8 -1 11 -3c71 -46 128 -90 175 -133
c4 -4 6 -9 6 -15c0 -11 -9 -20 -20 -20c-5 0 -10 2 -14 6c-42 39 -94 79 -158 122c-64 -40 -123 -81 -180 -124c-3 -2 -7 -4 -12 -4c-11 0 -20 9 -20 20z" />
    <glyph glyph-name="udieresis" unicode="&#xfc;" 
d="M276 -12c-115 0 -166 68 -166 221c0 101 14 212 41 333c1 9 10 16 19 16c12 0 20 -8 20 -20c0 -2 0 -3 -1 -8c-26 -114 -39 -223 -39 -321c0 -132 35 -181 126 -181c50 0 109 23 187 72c-2 22 -3 53 -3 109c0 86 3 213 9 316c1 11 10 19 20 19c12 0 20 -9 20 -21
c0 -8 -9 -136 -9 -314c0 -67 1 -97 4 -119s19 -57 40 -83c3 -3 4 -8 4 -13c0 -11 -8 -20 -20 -20c-6 0 -12 4 -16 8c-17 23 -33 53 -42 79c-77 -50 -139 -73 -194 -73zM189 712c0 10 1 19 3 29s10 16 20 16c12 0 20 -8 20 -20c0 -4 -3 -15 -3 -25c0 -20 6 -42 6 -48
c0 -11 -8 -20 -20 -20c-10 0 -18 8 -20 17c-4 20 -6 37 -6 51zM388 675c0 6 2 11 2 32c0 28 -1 38 -1 42c0 12 9 20 20 20s20 -8 20 -19c1 -10 1 -27 1 -43c0 -14 0 -27 -2 -35c-2 -10 -10 -17 -20 -17c-11 0 -20 9 -20 20z" />
    <glyph glyph-name="ugrave" unicode="&#xf9;" 
d="M276 -12c-115 0 -166 68 -166 221c0 101 14 212 41 333c1 9 10 16 19 16c12 0 20 -8 20 -20c0 -2 0 -3 -1 -8c-26 -114 -39 -223 -39 -321c0 -132 35 -181 126 -181c50 0 109 23 187 72c-2 22 -3 53 -3 109c0 86 3 213 9 316c1 11 10 19 20 19c12 0 20 -9 20 -21
c0 -8 -9 -136 -9 -314c0 -67 1 -97 4 -119s19 -57 40 -83c3 -3 4 -8 4 -13c0 -11 -8 -20 -20 -20c-6 0 -12 4 -16 8c-17 23 -33 53 -42 79c-77 -50 -139 -73 -194 -73zM189 789c0 11 9 20 20 20c5 0 9 -1 12 -4l202 -151c5 -3 8 -9 8 -16c0 -11 -9 -20 -20 -20
c-5 0 -9 2 -12 4l-202 151c-5 4 -8 10 -8 16z" />
    <glyph glyph-name="uhungarumlaut" unicode="&#x171;" 
d="M276 -12c-115 0 -166 68 -166 221c0 101 14 212 41 333c1 9 10 16 19 16c12 0 20 -8 20 -20c0 -2 0 -3 -1 -8c-26 -114 -39 -223 -39 -321c0 -132 35 -181 126 -181c50 0 109 23 187 72c-2 22 -3 53 -3 109c0 86 3 213 9 316c1 11 10 19 20 19c12 0 20 -9 20 -21
c0 -8 -9 -136 -9 -314c0 -67 1 -97 4 -119s19 -57 40 -83c3 -3 4 -8 4 -13c0 -11 -8 -20 -20 -20c-6 0 -12 4 -16 8c-17 23 -33 53 -42 79c-77 -50 -139 -73 -194 -73zM166 658c0 5 1 10 5 13c48 57 95 107 143 153c3 3 8 5 14 5c11 0 20 -9 20 -20c0 -5 -3 -11 -7 -14
c-46 -44 -92 -94 -140 -150c-4 -4 -9 -7 -15 -7c-11 0 -20 9 -20 20zM369 658c0 5 2 10 5 13c48 57 95 107 143 153c4 3 9 5 14 5c11 0 20 -9 20 -20c0 -5 -2 -10 -6 -14c-46 -44 -93 -94 -141 -150c-3 -4 -9 -7 -15 -7c-11 0 -20 9 -20 20z" />
    <glyph glyph-name="umacron" unicode="&#x16b;" 
d="M276 -12c-115 0 -166 68 -166 221c0 101 14 212 41 333c1 9 10 16 19 16c12 0 20 -8 20 -20c0 -2 0 -3 -1 -8c-26 -114 -39 -223 -39 -321c0 -132 35 -181 126 -181c50 0 109 23 187 72c-2 22 -3 53 -3 109c0 86 3 213 9 316c1 11 10 19 20 19c12 0 20 -9 20 -21
c0 -8 -9 -136 -9 -314c0 -67 1 -97 4 -119s19 -57 40 -83c3 -3 4 -8 4 -13c0 -11 -8 -20 -20 -20c-6 0 -12 4 -16 8c-17 23 -33 53 -42 79c-77 -50 -139 -73 -194 -73zM102 674c0 11 8 19 18 20c106 15 288 22 377 22c12 0 20 -8 20 -20c0 -11 -8 -20 -20 -20
c-216 0 -370 -22 -375 -22c-11 0 -20 9 -20 20z" />
    <glyph glyph-name="uogonek" unicode="&#x173;" 
d="M276 -12c-115 0 -166 68 -166 221c0 101 14 212 41 333c1 9 10 16 19 16c12 0 20 -8 20 -20c0 -2 0 -3 -1 -8c-26 -114 -39 -223 -39 -321c0 -132 35 -181 126 -181c50 0 109 23 187 72c-2 22 -3 53 -3 109c0 86 3 213 9 316c1 11 10 19 20 19c12 0 20 -9 20 -21
c0 -8 -9 -136 -9 -314c0 -67 1 -97 4 -119s19 -57 40 -83c3 -3 4 -8 4 -13c0 -6 -2 -11 -6 -15l-4 -3c-66 -34 -114 -84 -114 -118c0 -29 26 -50 59 -50c32 0 70 15 97 38c3 3 8 5 13 5c12 0 20 -9 20 -20c0 -6 -2 -12 -7 -16c-33 -28 -82 -47 -123 -47c-55 0 -99 37 -99 87
c0 46 46 100 118 141c-13 21 -25 45 -32 65c-77 -50 -139 -73 -194 -73z" />
    <glyph glyph-name="uring" unicode="&#x16f;" 
d="M276 -12c-115 0 -166 68 -166 221c0 101 14 212 41 333c1 9 10 16 19 16c12 0 20 -8 20 -20c0 -2 0 -3 -1 -8c-26 -114 -39 -223 -39 -321c0 -132 35 -181 126 -181c50 0 109 23 187 72c-2 22 -3 53 -3 109c0 86 3 213 9 316c1 11 10 19 20 19c12 0 20 -9 20 -21
c0 -8 -9 -136 -9 -314c0 -67 1 -97 4 -119s19 -57 40 -83c3 -3 4 -8 4 -13c0 -11 -8 -20 -20 -20c-6 0 -12 4 -16 8c-17 23 -33 53 -42 79c-77 -50 -139 -73 -194 -73zM182 753c0 71 59 133 127 133c63 0 128 -61 128 -123c0 -68 -57 -129 -122 -129c-79 0 -133 47 -133 119
zM215 753c0 -53 38 -86 100 -86c47 0 89 46 89 96c0 43 -50 90 -95 90c-48 0 -94 -47 -94 -100z" />
    <glyph glyph-name="utilde" unicode="&#x169;" 
d="M276 -12c-115 0 -166 68 -166 221c0 101 14 212 41 333c1 9 10 16 19 16c12 0 20 -8 20 -20c0 -2 0 -3 -1 -8c-26 -114 -39 -223 -39 -321c0 -132 35 -181 126 -181c50 0 109 23 187 72c-2 22 -3 53 -3 109c0 86 3 213 9 316c1 11 10 19 20 19c12 0 20 -9 20 -21
c0 -8 -9 -136 -9 -314c0 -67 1 -97 4 -119s19 -57 40 -83c3 -3 4 -8 4 -13c0 -11 -8 -20 -20 -20c-6 0 -12 4 -16 8c-17 23 -33 53 -42 79c-77 -50 -139 -73 -194 -73zM77 657v4c15 78 72 133 141 133c52 0 83 -29 113 -60c27 -28 48 -49 85 -49c44 0 79 40 87 102
c1 10 10 17 20 17c11 0 20 -9 20 -20v-3c-11 -81 -62 -136 -127 -136c-52 0 -83 30 -113 61c-27 27 -48 48 -85 48c-49 0 -90 -40 -101 -100c-2 -9 -10 -17 -20 -17c-11 0 -20 9 -20 20z" />
    <glyph glyph-name="v" unicode="v" 
d="M324 -24c-8 0 -14 4 -18 10c-75 138 -181 373 -237 522c-1 3 -2 5 -2 7c0 12 9 20 20 20c9 0 16 -5 19 -13c49 -131 138 -331 209 -468c70 135 148 344 189 487c2 8 10 14 20 14c11 0 20 -8 20 -20c0 -2 0 -4 -2 -8c-43 -147 -129 -378 -203 -517l2 -4c2 -4 3 -6 3 -10
c0 -12 -9 -20 -20 -20z" />
    <glyph glyph-name="w" unicode="w" 
d="M171 -5c-8 0 -16 5 -19 13c-47 110 -116 400 -127 512v2c0 11 9 20 20 20s19 -8 20 -18c10 -98 65 -336 108 -455c43 111 93 258 123 384c2 9 10 16 19 16s17 -6 19 -15c39 -139 76 -274 97 -371c53 120 98 279 120 424c1 10 9 17 20 17s20 -9 20 -20c0 -1 0 -2 -1 -3
c-25 -169 -82 -358 -146 -488c-3 -7 -10 -12 -18 -12c-10 0 -18 7 -20 17c-13 77 -44 200 -91 366c-35 -131 -85 -276 -126 -376c-3 -8 -10 -13 -18 -13z" />
    <glyph glyph-name="wacute" unicode="&#x1e83;" 
d="M171 -5c-8 0 -16 5 -19 13c-47 110 -116 400 -127 512v2c0 11 9 20 20 20s19 -8 20 -18c10 -98 65 -336 108 -455c43 111 93 258 123 384c2 9 10 16 19 16s17 -6 19 -15c39 -139 76 -274 97 -371c53 120 98 279 120 424c1 10 9 17 20 17s20 -9 20 -20c0 -1 0 -2 -1 -3
c-25 -169 -82 -358 -146 -488c-3 -7 -10 -12 -18 -12c-10 0 -18 7 -20 17c-13 77 -44 200 -91 366c-35 -131 -85 -276 -126 -376c-3 -8 -10 -13 -18 -13zM189 641c0 7 3 13 8 16l202 151c3 3 7 4 12 4c11 0 20 -9 20 -20c0 -6 -3 -12 -8 -16l-202 -151c-3 -2 -7 -4 -12 -4
c-11 0 -20 9 -20 20z" />
    <glyph glyph-name="wcircumflex" unicode="&#x175;" 
d="M171 -5c-8 0 -16 5 -19 13c-47 110 -116 400 -127 512v2c0 11 9 20 20 20s19 -8 20 -18c10 -98 65 -336 108 -455c43 111 93 258 123 384c2 9 10 16 19 16s17 -6 19 -15c39 -139 76 -274 97 -371c53 120 98 279 120 424c1 10 9 17 20 17s20 -9 20 -20c0 -1 0 -2 -1 -3
c-25 -169 -82 -358 -146 -488c-3 -7 -10 -12 -18 -12c-10 0 -18 7 -20 17c-13 77 -44 200 -91 366c-35 -131 -85 -276 -126 -376c-3 -8 -10 -13 -18 -13zM108 658c0 7 3 13 8 16c65 49 129 92 193 132c3 2 7 3 11 3s8 -1 11 -3c71 -46 128 -90 175 -133c4 -4 6 -9 6 -15
c0 -11 -9 -20 -20 -20c-5 0 -10 2 -14 6c-42 39 -94 79 -158 122c-64 -40 -123 -81 -180 -124c-3 -2 -7 -4 -12 -4c-11 0 -20 9 -20 20z" />
    <glyph glyph-name="wdieresis" unicode="&#x1e85;" 
d="M171 -5c-8 0 -16 5 -19 13c-47 110 -116 400 -127 512v2c0 11 9 20 20 20s19 -8 20 -18c10 -98 65 -336 108 -455c43 111 93 258 123 384c2 9 10 16 19 16s17 -6 19 -15c39 -139 76 -274 97 -371c53 120 98 279 120 424c1 10 9 17 20 17s20 -9 20 -20c0 -1 0 -2 -1 -3
c-25 -169 -82 -358 -146 -488c-3 -7 -10 -12 -18 -12c-10 0 -18 7 -20 17c-13 77 -44 200 -91 366c-35 -131 -85 -276 -126 -376c-3 -8 -10 -13 -18 -13zM189 712c0 10 1 19 3 29s10 16 20 16c12 0 20 -8 20 -20c0 -4 -3 -15 -3 -25c0 -20 6 -42 6 -48c0 -11 -8 -20 -20 -20
c-10 0 -18 8 -20 17c-4 20 -6 37 -6 51zM388 675c0 6 2 11 2 32c0 28 -1 38 -1 42c0 12 9 20 20 20s20 -8 20 -19c1 -10 1 -27 1 -43c0 -14 0 -27 -2 -35c-2 -10 -10 -17 -20 -17c-11 0 -20 9 -20 20z" />
    <glyph glyph-name="wgrave" unicode="&#x1e81;" 
d="M171 -5c-8 0 -16 5 -19 13c-47 110 -116 400 -127 512v2c0 11 9 20 20 20s19 -8 20 -18c10 -98 65 -336 108 -455c43 111 93 258 123 384c2 9 10 16 19 16s17 -6 19 -15c39 -139 76 -274 97 -371c53 120 98 279 120 424c1 10 9 17 20 17s20 -9 20 -20c0 -1 0 -2 -1 -3
c-25 -169 -82 -358 -146 -488c-3 -7 -10 -12 -18 -12c-10 0 -18 7 -20 17c-13 77 -44 200 -91 366c-35 -131 -85 -276 -126 -376c-3 -8 -10 -13 -18 -13zM189 789c0 11 9 20 20 20c5 0 9 -1 12 -4l202 -151c5 -3 8 -9 8 -16c0 -11 -9 -20 -20 -20c-5 0 -9 2 -12 4l-202 151
c-5 4 -8 10 -8 16z" />
    <glyph glyph-name="x" unicode="x" 
d="M72 -11c-12 0 -20 8 -20 20c0 4 1 8 3 11c49 78 137 178 220 252c-61 87 -121 159 -196 224c-5 4 -7 9 -7 15c0 12 9 20 20 20c6 0 10 -2 14 -5c75 -66 137 -140 198 -227c81 71 175 179 208 242c3 7 10 12 18 12c11 0 20 -9 20 -20c0 -4 -1 -7 -3 -10
c-34 -68 -135 -183 -219 -258c37 -55 150 -179 213 -243c4 -4 6 -8 6 -14c0 -12 -9 -20 -20 -20c-6 0 -11 2 -14 6c-61 62 -175 186 -215 245c-79 -71 -163 -167 -209 -241c-4 -5 -10 -9 -17 -9z" />
    <glyph glyph-name="y" unicode="y" 
d="M146 -211c-11 0 -20 8 -20 20c0 5 3 10 6 14c60 70 111 143 168 237c-60 141 -162 341 -242 463c-2 4 -3 7 -3 11c0 12 8 20 20 20c7 0 13 -3 16 -9c79 -118 174 -306 233 -442c8 13 16 27 24 41c61 106 132 259 176 396c3 9 10 14 19 14c12 0 20 -8 20 -20
c0 -2 0 -4 -1 -8c-45 -139 -118 -296 -179 -402c-78 -138 -142 -236 -222 -328c-4 -5 -9 -7 -15 -7z" />
    <glyph glyph-name="yacute" unicode="&#xfd;" 
d="M146 -211c-11 0 -20 8 -20 20c0 5 3 10 6 14c60 70 111 143 168 237c-60 141 -162 341 -242 463c-2 4 -3 7 -3 11c0 12 8 20 20 20c7 0 13 -3 16 -9c79 -118 174 -306 233 -442c8 13 16 27 24 41c61 106 132 259 176 396c3 9 10 14 19 14c12 0 20 -8 20 -20
c0 -2 0 -4 -1 -8c-45 -139 -118 -296 -179 -402c-78 -138 -142 -236 -222 -328c-4 -5 -9 -7 -15 -7zM189 641c0 7 3 13 8 16l202 151c3 3 7 4 12 4c11 0 20 -9 20 -20c0 -6 -3 -12 -8 -16l-202 -151c-3 -2 -7 -4 -12 -4c-11 0 -20 9 -20 20z" />
    <glyph glyph-name="ycircumflex" unicode="&#x177;" 
d="M146 -211c-11 0 -20 8 -20 20c0 5 3 10 6 14c60 70 111 143 168 237c-60 141 -162 341 -242 463c-2 4 -3 7 -3 11c0 12 8 20 20 20c7 0 13 -3 16 -9c79 -118 174 -306 233 -442c8 13 16 27 24 41c61 106 132 259 176 396c3 9 10 14 19 14c12 0 20 -8 20 -20
c0 -2 0 -4 -1 -8c-45 -139 -118 -296 -179 -402c-78 -138 -142 -236 -222 -328c-4 -5 -9 -7 -15 -7zM108 658c0 7 3 13 8 16c65 49 129 92 193 132c3 2 7 3 11 3s8 -1 11 -3c71 -46 128 -90 175 -133c4 -4 6 -9 6 -15c0 -11 -9 -20 -20 -20c-5 0 -10 2 -14 6
c-42 39 -94 79 -158 122c-64 -40 -123 -81 -180 -124c-3 -2 -7 -4 -12 -4c-11 0 -20 9 -20 20z" />
    <glyph glyph-name="ydieresis" unicode="&#xff;" 
d="M146 -211c-11 0 -20 8 -20 20c0 5 3 10 6 14c60 70 111 143 168 237c-60 141 -162 341 -242 463c-2 4 -3 7 -3 11c0 12 8 20 20 20c7 0 13 -3 16 -9c79 -118 174 -306 233 -442c8 13 16 27 24 41c61 106 132 259 176 396c3 9 10 14 19 14c12 0 20 -8 20 -20
c0 -2 0 -4 -1 -8c-45 -139 -118 -296 -179 -402c-78 -138 -142 -236 -222 -328c-4 -5 -9 -7 -15 -7zM189 712c0 10 1 19 3 29s10 16 20 16c12 0 20 -8 20 -20c0 -4 -3 -15 -3 -25c0 -20 6 -42 6 -48c0 -11 -8 -20 -20 -20c-10 0 -18 8 -20 17c-4 20 -6 37 -6 51zM388 675
c0 6 2 11 2 32c0 28 -1 38 -1 42c0 12 9 20 20 20s20 -8 20 -19c1 -10 1 -27 1 -43c0 -14 0 -27 -2 -35c-2 -10 -10 -17 -20 -17c-11 0 -20 9 -20 20z" />
    <glyph glyph-name="ygrave" unicode="&#x1ef3;" 
d="M146 -211c-11 0 -20 8 -20 20c0 5 3 10 6 14c60 70 111 143 168 237c-60 141 -162 341 -242 463c-2 4 -3 7 -3 11c0 12 8 20 20 20c7 0 13 -3 16 -9c79 -118 174 -306 233 -442c8 13 16 27 24 41c61 106 132 259 176 396c3 9 10 14 19 14c12 0 20 -8 20 -20
c0 -2 0 -4 -1 -8c-45 -139 -118 -296 -179 -402c-78 -138 -142 -236 -222 -328c-4 -5 -9 -7 -15 -7zM189 789c0 11 9 20 20 20c5 0 9 -1 12 -4l202 -151c5 -3 8 -9 8 -16c0 -11 -9 -20 -20 -20c-5 0 -9 2 -12 4l-202 151c-5 4 -8 10 -8 16z" />
    <glyph glyph-name="z" unicode="z" 
d="M216 -6c-41 0 -81 1 -120 2c-12 0 -20 9 -20 20c0 5 2 9 5 13c101 145 261 336 372 484c-66 -6 -134 -10 -193 -10c-53 0 -100 3 -132 8c-10 2 -18 10 -18 20c0 12 9 20 20 20c7 0 42 -8 130 -8c136 1 233 15 238 15c12 0 20 -8 20 -20c0 -4 -2 -9 -4 -12
c-118 -164 -260 -332 -377 -491c28 0 56 -1 84 -1c193 0 286 21 293 21c12 0 20 -8 20 -20c0 -10 -8 -18 -16 -20c-83 -14 -185 -21 -302 -21z" />
    <glyph glyph-name="zacute" unicode="&#x17a;" 
d="M216 -6c-41 0 -81 1 -120 2c-12 0 -20 9 -20 20c0 5 2 9 5 13c101 145 261 336 372 484c-66 -6 -134 -10 -193 -10c-53 0 -100 3 -132 8c-10 2 -18 10 -18 20c0 12 9 20 20 20c7 0 42 -8 130 -8c136 1 233 15 238 15c12 0 20 -8 20 -20c0 -4 -2 -9 -4 -12
c-118 -164 -260 -332 -377 -491c28 0 56 -1 84 -1c193 0 286 21 293 21c12 0 20 -8 20 -20c0 -10 -8 -18 -16 -20c-83 -14 -185 -21 -302 -21zM189 641c0 7 3 13 8 16l202 151c3 3 7 4 12 4c11 0 20 -9 20 -20c0 -6 -3 -12 -8 -16l-202 -151c-3 -2 -7 -4 -12 -4
c-11 0 -20 9 -20 20z" />
    <glyph glyph-name="zcaron" unicode="&#x17e;" 
d="M216 -6c-41 0 -81 1 -120 2c-12 0 -20 9 -20 20c0 5 2 9 5 13c101 145 261 336 372 484c-66 -6 -134 -10 -193 -10c-53 0 -100 3 -132 8c-10 2 -18 10 -18 20c0 12 9 20 20 20c7 0 42 -8 130 -8c136 1 233 15 238 15c12 0 20 -8 20 -20c0 -4 -2 -9 -4 -12
c-118 -164 -260 -332 -377 -491c28 0 56 -1 84 -1c193 0 286 21 293 21c12 0 20 -8 20 -20c0 -10 -8 -18 -16 -20c-83 -14 -185 -21 -302 -21zM108 789c0 11 9 20 20 20c5 0 10 -2 14 -5c42 -40 94 -79 158 -122c64 40 123 80 180 123c3 3 7 4 12 4c11 0 20 -9 20 -20
c0 -6 -3 -12 -8 -16c-65 -48 -129 -92 -193 -132c-3 -2 -7 -3 -11 -3s-8 2 -11 4c-71 46 -128 89 -175 133c-4 3 -6 9 -6 14z" />
    <glyph glyph-name="zdotaccent" unicode="&#x17c;" 
d="M216 -6c-41 0 -81 1 -120 2c-12 0 -20 9 -20 20c0 5 2 9 5 13c101 145 261 336 372 484c-66 -6 -134 -10 -193 -10c-53 0 -100 3 -132 8c-10 2 -18 10 -18 20c0 12 9 20 20 20c7 0 42 -8 130 -8c136 1 233 15 238 15c12 0 20 -8 20 -20c0 -4 -2 -9 -4 -12
c-118 -164 -260 -332 -377 -491c28 0 56 -1 84 -1c193 0 286 21 293 21c12 0 20 -8 20 -20c0 -10 -8 -18 -16 -20c-83 -14 -185 -21 -302 -21zM268 730c0 39 14 60 44 60c23 0 41 -18 41 -42s-17 -59 -40 -82c-3 -4 -8 -7 -14 -7s-12 3 -15 8c-7 3 -12 9 -13 16
c-2 19 -3 34 -3 47z" />
    <glyph glyph-name="a.ss01" 
d="M250 -10c-102 0 -171 99 -171 241c0 197 134 324 262 324c49 0 94 -26 132 -75c3 15 6 29 10 43c2 9 10 16 20 16c11 0 20 -9 20 -20c0 -2 0 -5 -1 -10c-25 -90 -42 -219 -42 -279c0 -93 27 -171 72 -213c5 -4 7 -9 7 -15c0 -12 -8 -20 -20 -20c-5 0 -10 2 -13 5
c-41 37 -69 97 -80 169c-53 -105 -122 -166 -196 -166zM119 231c0 -121 53 -201 131 -201c71 0 140 72 190 197v3c0 45 9 125 23 202c-34 55 -75 83 -122 83c-122 0 -222 -126 -222 -284z" />
    <glyph glyph-name="aacute.ss01" 
d="M250 -10c-102 0 -171 99 -171 241c0 197 134 324 262 324c49 0 94 -26 132 -75c3 15 6 29 10 43c2 9 10 16 20 16c11 0 20 -9 20 -20c0 -2 0 -5 -1 -10c-25 -90 -42 -219 -42 -279c0 -93 27 -171 72 -213c5 -4 7 -9 7 -15c0 -12 -8 -20 -20 -20c-5 0 -10 2 -13 5
c-41 37 -69 97 -80 169c-53 -105 -122 -166 -196 -166zM119 231c0 -121 53 -201 131 -201c71 0 140 72 190 197v3c0 45 9 125 23 202c-34 55 -75 83 -122 83c-122 0 -222 -126 -222 -284zM189 641c0 7 3 13 8 16l202 151c3 3 7 4 12 4c11 0 20 -9 20 -20c0 -6 -3 -12 -8 -16
l-202 -151c-3 -2 -7 -4 -12 -4c-11 0 -20 9 -20 20z" />
    <glyph glyph-name="abreve.ss01" 
d="M250 -10c-102 0 -171 99 -171 241c0 197 134 324 262 324c49 0 94 -26 132 -75c3 15 6 29 10 43c2 9 10 16 20 16c11 0 20 -9 20 -20c0 -2 0 -5 -1 -10c-25 -90 -42 -219 -42 -279c0 -93 27 -171 72 -213c5 -4 7 -9 7 -15c0 -12 -8 -20 -20 -20c-5 0 -10 2 -13 5
c-41 37 -69 97 -80 169c-53 -105 -122 -166 -196 -166zM116 782c0 11 9 20 20 20c9 0 17 -6 19 -15c17 -59 84 -102 162 -102c76 0 134 41 147 103c2 9 10 16 20 16c11 0 20 -9 20 -20c0 -1 0 -3 -1 -4c-17 -81 -91 -135 -186 -135c-96 0 -178 54 -200 131c-1 2 -1 4 -1 6z
M119 231c0 -121 53 -201 131 -201c71 0 140 72 190 197v3c0 45 9 125 23 202c-34 55 -75 83 -122 83c-122 0 -222 -126 -222 -284z" />
    <glyph glyph-name="acircumflex.ss01" 
d="M250 -10c-102 0 -171 99 -171 241c0 197 134 324 262 324c49 0 94 -26 132 -75c3 15 6 29 10 43c2 9 10 16 20 16c11 0 20 -9 20 -20c0 -2 0 -5 -1 -10c-25 -90 -42 -219 -42 -279c0 -93 27 -171 72 -213c5 -4 7 -9 7 -15c0 -12 -8 -20 -20 -20c-5 0 -10 2 -13 5
c-41 37 -69 97 -80 169c-53 -105 -122 -166 -196 -166zM108 658c0 7 3 13 8 16c65 49 129 92 193 132c3 2 7 3 11 3s8 -1 11 -3c71 -46 128 -90 175 -133c4 -4 6 -9 6 -15c0 -11 -9 -20 -20 -20c-5 0 -10 2 -14 6c-42 39 -94 79 -158 122c-64 -40 -123 -81 -180 -124
c-3 -2 -7 -4 -12 -4c-11 0 -20 9 -20 20zM119 231c0 -121 53 -201 131 -201c71 0 140 72 190 197v3c0 45 9 125 23 202c-34 55 -75 83 -122 83c-122 0 -222 -126 -222 -284z" />
    <glyph glyph-name="adieresis.ss01" 
d="M250 -10c-102 0 -171 99 -171 241c0 197 134 324 262 324c49 0 94 -26 132 -75c3 15 6 29 10 43c2 9 10 16 20 16c11 0 20 -9 20 -20c0 -2 0 -5 -1 -10c-25 -90 -42 -219 -42 -279c0 -93 27 -171 72 -213c5 -4 7 -9 7 -15c0 -12 -8 -20 -20 -20c-5 0 -10 2 -13 5
c-41 37 -69 97 -80 169c-53 -105 -122 -166 -196 -166zM119 231c0 -121 53 -201 131 -201c71 0 140 72 190 197v3c0 45 9 125 23 202c-34 55 -75 83 -122 83c-122 0 -222 -126 -222 -284zM189 712c0 10 1 19 3 29s10 16 20 16c12 0 20 -8 20 -20c0 -4 -3 -15 -3 -25
c0 -20 6 -42 6 -48c0 -11 -8 -20 -20 -20c-10 0 -18 8 -20 17c-4 20 -6 37 -6 51zM388 675c0 6 2 11 2 32c0 28 -1 38 -1 42c0 12 9 20 20 20s20 -8 20 -19c1 -10 1 -27 1 -43c0 -14 0 -27 -2 -35c-2 -10 -10 -17 -20 -17c-11 0 -20 9 -20 20z" />
    <glyph glyph-name="agrave.ss01" 
d="M250 -10c-102 0 -171 99 -171 241c0 197 134 324 262 324c49 0 94 -26 132 -75c3 15 6 29 10 43c2 9 10 16 20 16c11 0 20 -9 20 -20c0 -2 0 -5 -1 -10c-25 -90 -42 -219 -42 -279c0 -93 27 -171 72 -213c5 -4 7 -9 7 -15c0 -12 -8 -20 -20 -20c-5 0 -10 2 -13 5
c-41 37 -69 97 -80 169c-53 -105 -122 -166 -196 -166zM119 231c0 -121 53 -201 131 -201c71 0 140 72 190 197v3c0 45 9 125 23 202c-34 55 -75 83 -122 83c-122 0 -222 -126 -222 -284zM189 789c0 11 9 20 20 20c5 0 9 -1 12 -4l202 -151c5 -3 8 -9 8 -16
c0 -11 -9 -20 -20 -20c-5 0 -9 2 -12 4l-202 151c-5 4 -8 10 -8 16z" />
    <glyph glyph-name="amacron.ss01" 
d="M250 -10c-102 0 -171 99 -171 241c0 197 134 324 262 324c49 0 94 -26 132 -75c3 15 6 29 10 43c2 9 10 16 20 16c11 0 20 -9 20 -20c0 -2 0 -5 -1 -10c-25 -90 -42 -219 -42 -279c0 -93 27 -171 72 -213c5 -4 7 -9 7 -15c0 -12 -8 -20 -20 -20c-5 0 -10 2 -13 5
c-41 37 -69 97 -80 169c-53 -105 -122 -166 -196 -166zM102 674c0 11 8 19 18 20c106 15 288 22 377 22c12 0 20 -8 20 -20c0 -11 -8 -20 -20 -20c-216 0 -370 -22 -375 -22c-11 0 -20 9 -20 20zM119 231c0 -121 53 -201 131 -201c71 0 140 72 190 197v3c0 45 9 125 23 202
c-34 55 -75 83 -122 83c-122 0 -222 -126 -222 -284z" />
    <glyph glyph-name="aogonek.ss01" 
d="M250 -10c-102 0 -171 99 -171 241c0 197 134 324 262 324c49 0 94 -26 132 -75c3 15 6 29 10 43c2 9 10 16 20 16c11 0 20 -9 20 -20c0 -2 0 -5 -1 -10c-25 -90 -42 -219 -42 -279c0 -93 27 -171 72 -213c5 -4 7 -9 7 -15c0 -8 -3 -13 -8 -17l-2 -1
c-66 -34 -114 -84 -114 -118c0 -29 26 -50 59 -50c32 0 70 15 97 38c3 3 8 5 13 5c12 0 20 -9 20 -20c0 -6 -2 -12 -7 -16c-33 -28 -82 -47 -123 -47c-55 0 -99 37 -99 87c0 45 44 99 115 140c-33 37 -55 91 -64 153c-53 -105 -122 -166 -196 -166zM119 231
c0 -121 53 -201 131 -201c71 0 140 72 190 197v3c0 45 9 125 23 202c-34 55 -75 83 -122 83c-122 0 -222 -126 -222 -284z" />
    <glyph glyph-name="aring.ss01" 
d="M250 -10c-102 0 -171 99 -171 241c0 197 134 324 262 324c49 0 94 -26 132 -75c3 15 6 29 10 43c2 9 10 16 20 16c11 0 20 -9 20 -20c0 -2 0 -5 -1 -10c-25 -90 -42 -219 -42 -279c0 -93 27 -171 72 -213c5 -4 7 -9 7 -15c0 -12 -8 -20 -20 -20c-5 0 -10 2 -13 5
c-41 37 -69 97 -80 169c-53 -105 -122 -166 -196 -166zM119 231c0 -121 53 -201 131 -201c71 0 140 72 190 197v3c0 45 9 125 23 202c-34 55 -75 83 -122 83c-122 0 -222 -126 -222 -284zM182 753c0 71 59 133 127 133c63 0 128 -61 128 -123c0 -68 -57 -129 -122 -129
c-79 0 -133 47 -133 119zM215 753c0 -53 38 -86 100 -86c47 0 89 46 89 96c0 43 -50 90 -95 90c-48 0 -94 -47 -94 -100z" />
    <glyph glyph-name="aringacute.ss01" 
d="M250 -10c-102 0 -171 99 -171 241c0 197 134 324 262 324c49 0 94 -26 132 -75c3 15 6 29 10 43c2 9 10 16 20 16c11 0 20 -9 20 -20c0 -2 0 -5 -1 -10c-25 -90 -42 -219 -42 -279c0 -93 27 -171 72 -213c5 -4 7 -9 7 -15c0 -12 -8 -20 -20 -20c-5 0 -10 2 -13 5
c-41 37 -69 97 -80 169c-53 -105 -122 -166 -196 -166zM119 231c0 -121 53 -201 131 -201c71 0 140 72 190 197v3c0 45 9 125 23 202c-34 55 -75 83 -122 83c-122 0 -222 -126 -222 -284zM182 753c0 72 59 133 127 133c20 0 41 -6 59 -17l171 128c3 3 7 4 12 4
c11 0 20 -9 20 -20c0 -6 -3 -12 -8 -16l-162 -122c22 -22 36 -51 36 -80c0 -68 -57 -129 -122 -129c-79 0 -133 47 -133 119zM215 753c0 -53 38 -86 100 -86c47 0 89 46 89 96c0 43 -50 90 -95 90c-48 0 -94 -47 -94 -100z" />
    <glyph glyph-name="atilde.ss01" 
d="M250 -10c-102 0 -171 99 -171 241c0 197 134 324 262 324c49 0 94 -26 132 -75c3 15 6 29 10 43c2 9 10 16 20 16c11 0 20 -9 20 -20c0 -2 0 -5 -1 -10c-25 -90 -42 -219 -42 -279c0 -93 27 -171 72 -213c5 -4 7 -9 7 -15c0 -12 -8 -20 -20 -20c-5 0 -10 2 -13 5
c-41 37 -69 97 -80 169c-53 -105 -122 -166 -196 -166zM77 657v4c15 78 72 133 141 133c52 0 83 -29 113 -60c27 -28 48 -49 85 -49c44 0 79 40 87 102c1 10 10 17 20 17c11 0 20 -9 20 -20v-3c-11 -81 -62 -136 -127 -136c-52 0 -83 30 -113 61c-27 27 -48 48 -85 48
c-49 0 -90 -40 -101 -100c-2 -9 -10 -17 -20 -17c-11 0 -20 9 -20 20zM119 231c0 -121 53 -201 131 -201c71 0 140 72 190 197v3c0 45 9 125 23 202c-34 55 -75 83 -122 83c-122 0 -222 -126 -222 -284z" />
    <glyph glyph-name="fi" unicode="&#xfb01;" 
d="M130 -72c-11 0 -20 8 -20 20c0 5 16 68 16 186c0 42 -2 244 -3 359h-17c-18 0 -36 1 -52 2c-11 1 -19 10 -19 20c0 12 9 20 20 20c3 0 32 -2 51 -2h16v34c0 159 45 240 142 240c18 0 37 -4 53 -12c7 -3 12 -10 12 -18c0 -11 -8 -20 -20 -20c-3 0 -6 1 -10 3
c-10 4 -22 7 -35 7c-68 0 -102 -60 -102 -200v-31c47 4 92 13 131 26c2 2 5 2 7 2c12 0 20 -8 20 -20c0 -8 -6 -16 -13 -19c-42 -15 -93 -25 -144 -30c1 -115 3 -319 3 -361c0 -72 -5 -135 -16 -190c-2 -9 -10 -16 -20 -16zM436 181c0 132 7 271 17 350c2 10 10 18 20 18
c12 0 20 -8 20 -20c0 -6 -17 -117 -17 -348c0 -107 4 -168 4 -173c0 -12 -8 -20 -20 -20c-10 0 -20 8 -20 19c-2 43 -4 105 -4 174zM449 750c0 35 9 59 33 59c19 0 30 -20 30 -42c0 -23 -9 -54 -21 -75c-4 -6 -9 -9 -16 -9c-8 0 -15 5 -18 12c-3 3 -6 7 -6 12
c-1 17 -2 32 -2 43z" />
    <glyph glyph-name="fl" unicode="&#xfb02;" 
d="M103 493c-17 0 -34 1 -51 2c-10 1 -18 10 -18 20c0 12 8 20 21 20c3 0 22 -2 48 -2h16v34c0 159 45 240 142 240c18 0 37 -4 53 -12c7 -3 12 -10 12 -18c0 -11 -9 -20 -20 -20c-4 0 -6 1 -11 3c-9 4 -22 7 -34 7c-69 0 -102 -60 -102 -200v-32c82 8 129 29 136 29
c12 0 20 -8 20 -20c0 -8 -5 -16 -13 -19c-42 -15 -91 -25 -142 -29c1 -115 3 -320 3 -362c0 -72 -5 -135 -16 -190c-2 -9 -10 -16 -20 -16c-11 0 -20 8 -20 20c0 5 16 68 16 186c0 42 -2 244 -3 359h-17zM390 203c0 178 11 397 30 595c1 10 10 18 20 18c12 0 20 -8 20 -20
s-30 -294 -30 -593c0 -122 17 -176 50 -176c20 0 48 13 76 35c2 2 6 3 10 3c11 0 20 -8 20 -20c0 -6 -3 -12 -8 -16c-34 -27 -70 -44 -100 -44c-62 0 -88 75 -88 218z" />
    <glyph glyph-name="ordfeminine" unicode="&#xaa;" 
d="M474 377c-9 0 -18 7 -18 17c-2 21 -4 46 -7 73c-52 -42 -126 -67 -199 -67c-92 0 -146 40 -146 110c0 80 70 124 189 124c43 0 94 -6 139 -18l-4 30c-13 92 -47 128 -118 128c-43 0 -90 -13 -137 -36c-3 -2 -6 -2 -9 -2c-10 0 -18 8 -18 18c0 7 4 13 10 17
c52 25 106 39 154 39c92 0 139 -50 154 -160c11 -74 24 -188 28 -255c0 -10 -7 -18 -18 -18zM140 510c0 -47 37 -74 110 -74c74 0 148 28 195 72l-8 70c-45 12 -99 20 -144 20c-100 0 -153 -32 -153 -88z" />
    <glyph glyph-name="ordmasculine" unicode="&#xba;" 
d="M301 392c-118 0 -184 69 -184 191c0 125 92 229 205 229c114 0 182 -83 182 -217c0 -120 -83 -203 -203 -203zM153 583c0 -101 52 -154 148 -154c99 0 167 67 167 166c0 115 -54 180 -146 180s-169 -86 -169 -192z" />
    <glyph glyph-name="uni0410" unicode="&#x410;" 
d="M547 -14c-10 0 -18 8 -20 17c-14 69 -29 141 -46 215c-86 -3 -219 -12 -333 -23c-25 -60 -45 -118 -59 -167c-2 -8 -10 -14 -20 -14c-11 0 -20 8 -20 20c0 2 1 5 2 8c13 44 31 95 52 149l-36 -4c-11 0 -20 9 -20 20c0 10 8 19 18 20l55 6c69 166 165 352 239 472
c3 5 10 9 17 9c10 0 17 -6 20 -14c69 -232 129 -479 170 -685c1 -5 1 -7 1 -9c0 -11 -9 -20 -20 -20zM165 237c105 10 211 18 307 21c-30 127 -64 258 -102 387c-66 -112 -145 -266 -205 -408z" />
    <glyph glyph-name="uni0411" unicode="&#x411;" 
d="M228 -8c-29 0 -58 2 -84 7c-9 1 -16 9 -17 18c-7 75 -10 195 -10 329c0 102 2 211 5 312h-20c-11 0 -20 9 -20 20s9 20 20 20c27 0 233 4 299 4c32 0 63 -1 89 -2c11 0 20 -9 20 -19c0 -12 -9 -20 -20 -20c-25 0 -57 1 -89 1c-49 0 -165 -2 -238 -3
c-2 -44 -5 -161 -6 -261c25 6 51 9 80 9c158 0 292 -94 292 -212c0 -120 -128 -203 -301 -203zM157 345c1 -122 3 -231 9 -309c19 -3 39 -4 62 -4c151 0 261 69 261 163c0 92 -115 172 -252 172c-30 0 -56 -3 -80 -9v-13z" />
    <glyph glyph-name="uni0412" unicode="&#x412;" 
d="M126 -24c-11 0 -20 8 -20 20c0 40 -10 629 -10 686c0 10 8 18 18 20c42 4 82 7 118 7c188 0 290 -64 290 -189c0 -84 -54 -143 -143 -171c123 -29 194 -83 194 -158c0 -126 -158 -194 -427 -197c-1 -11 -9 -18 -20 -18zM136 664l4 -290c46 -1 89 -3 128 -7
c134 6 214 64 214 153c0 98 -83 149 -250 149c-31 0 -62 -3 -96 -5zM141 334l5 -300c247 3 387 62 387 157c0 83 -150 140 -392 143z" />
    <glyph glyph-name="uni0413" unicode="&#x413;" 
d="M132 -11c-11 0 -20 9 -20 20c0 169 6 518 11 652c0 10 8 18 17 19c88 16 182 25 273 25c42 0 85 -2 126 -6c10 0 18 -9 18 -20s-8 -20 -20 -20c-10 0 -53 7 -124 6c-82 -1 -167 -7 -250 -21c-5 -142 -11 -472 -11 -635c0 -11 -8 -20 -20 -20z" />
    <glyph glyph-name="uni0403" unicode="&#x403;" 
d="M132 -11c-11 0 -20 9 -20 20c0 169 6 518 11 652c0 10 8 18 17 19c88 16 182 25 273 25c42 0 85 -2 126 -6c10 0 18 -9 18 -20s-8 -20 -20 -20c-10 0 -53 7 -124 6c-82 -1 -167 -7 -250 -21c-5 -142 -11 -472 -11 -635c0 -11 -8 -20 -20 -20zM189 798c0 7 3 13 8 16
l202 151c3 3 7 4 12 4c11 0 20 -9 20 -20c0 -6 -3 -12 -8 -16l-202 -151c-3 -2 -7 -4 -12 -4c-11 0 -20 9 -20 20z" />
    <glyph glyph-name="uni0490" unicode="&#x490;" 
d="M132 -15c-11 0 -20 8 -20 20c0 170 6 520 11 654c0 10 8 18 17 20c88 16 182 25 273 25c35 0 71 -2 105 -5c2 31 1 92 0 119c0 11 9 20 20 20s20 -9 20 -20c0 -20 1 -45 1 -70c0 -29 -1 -53 -2 -72c0 -10 -10 -18 -20 -18c-6 0 -52 6 -124 6c-82 -1 -167 -8 -250 -22
c-5 -143 -11 -474 -11 -637c0 -12 -8 -20 -20 -20z" />
    <glyph glyph-name="uni0492" unicode="&#x492;" 
d="M132 -11c-11 0 -20 9 -20 20c0 72 1 176 3 283c-41 -5 -66 -9 -70 -9c-10 0 -18 7 -18 18c0 9 7 17 16 18c23 3 48 6 72 9c2 132 5 262 8 333c0 10 8 18 17 19c88 16 182 25 273 25c42 0 85 -2 126 -6c10 0 18 -9 18 -20s-8 -20 -20 -20c-10 0 -53 7 -124 6
c-82 -1 -167 -7 -250 -21c-3 -71 -5 -190 -7 -312c60 6 122 10 176 12c10 0 18 -8 18 -19c0 -9 -8 -18 -18 -18c-70 -2 -130 -7 -177 -11c-2 -108 -3 -214 -3 -287c0 -11 -8 -20 -20 -20z" />
    <glyph glyph-name="uni0414" unicode="&#x414;" 
d="M43 -209c-11 0 -20 9 -20 20c5 87 13 150 23 191c2 8 9 15 17 16s22 3 39 4c57 101 83 279 83 579v68c0 10 7 18 16 20c65 11 198 18 288 19c12 0 20 -9 20 -20s-12 -144 -12 -338c0 -63 2 -188 6 -304c14 1 25 1 33 1c11 0 20 -8 20 -19c0 -68 0 -171 2 -216
c0 -11 -8 -20 -20 -20c-10 0 -20 9 -20 19c-1 18 -2 147 -2 195c-127 -3 -360 -16 -434 -26c-7 -34 -12 -83 -19 -170c0 -11 -9 -19 -20 -19zM150 26c91 7 226 15 313 19c-4 116 -6 242 -6 305c0 109 5 230 10 318c-78 -2 -183 -8 -242 -16v-52c0 -308 -28 -474 -75 -574z
" />
    <glyph glyph-name="uni0415" unicode="&#x415;" 
d="M537 -3c-107 0 -253 7 -341 16c-80 9 -117 46 -117 120c0 43 7 128 11 210c-8 2 -15 10 -15 19c0 11 8 19 17 20c1 24 2 47 2 68c0 214 -12 217 -12 231c0 11 9 20 20 20c10 0 18 -7 20 -16l1 -3c85 14 181 22 271 22c46 0 90 -2 133 -6c10 -2 18 -10 18 -20
c0 -12 -8 -20 -20 -20c-10 0 -54 6 -131 6c-90 0 -183 -8 -266 -22c5 -41 6 -100 6 -192c0 -20 -1 -43 -2 -68c119 -1 253 3 350 17h3c12 0 20 -8 20 -20c0 -10 -7 -18 -17 -20c-98 -14 -243 -19 -358 -18c-4 -83 -11 -174 -11 -208c0 -53 21 -73 81 -80
c88 -9 232 -16 337 -16c12 0 20 -8 20 -20c0 -11 -8 -20 -20 -20z" />
    <glyph glyph-name="uni0400" unicode="&#x400;" 
d="M537 -3c-107 0 -253 7 -341 16c-80 9 -117 46 -117 120c0 43 7 128 11 210c-8 2 -15 10 -15 19c0 11 8 19 17 20c1 24 2 47 2 68c0 214 -12 217 -12 231c0 11 9 20 20 20c10 0 18 -7 20 -16l1 -3c85 14 181 22 271 22c46 0 90 -2 133 -6c10 -2 18 -10 18 -20
c0 -12 -8 -20 -20 -20c-10 0 -54 6 -131 6c-90 0 -183 -8 -266 -22c5 -41 6 -100 6 -192c0 -20 -1 -43 -2 -68c119 -1 253 3 350 17h3c12 0 20 -8 20 -20c0 -10 -7 -18 -17 -20c-98 -14 -243 -19 -358 -18c-4 -83 -11 -174 -11 -208c0 -53 21 -73 81 -80
c88 -9 232 -16 337 -16c12 0 20 -8 20 -20c0 -11 -8 -20 -20 -20zM189 946c0 11 9 20 20 20c5 0 9 -1 12 -4l202 -151c5 -3 8 -9 8 -16c0 -11 -9 -20 -20 -20c-5 0 -9 2 -12 4l-202 151c-5 4 -8 10 -8 16z" />
    <glyph glyph-name="uni0401" unicode="&#x401;" 
d="M537 -3c-107 0 -253 7 -341 16c-80 9 -117 46 -117 120c0 43 7 128 11 210c-8 2 -15 10 -15 19c0 11 8 19 17 20c1 24 2 47 2 68c0 214 -12 217 -12 231c0 11 9 20 20 20c10 0 18 -7 20 -16l1 -3c85 14 181 22 271 22c46 0 90 -2 133 -6c10 -2 18 -10 18 -20
c0 -12 -8 -20 -20 -20c-10 0 -54 6 -131 6c-90 0 -183 -8 -266 -22c5 -41 6 -100 6 -192c0 -20 -1 -43 -2 -68c119 -1 253 3 350 17h3c12 0 20 -8 20 -20c0 -10 -7 -18 -17 -20c-98 -14 -243 -19 -358 -18c-4 -83 -11 -174 -11 -208c0 -53 21 -73 81 -80
c88 -9 232 -16 337 -16c12 0 20 -8 20 -20c0 -11 -8 -20 -20 -20zM189 869c0 10 1 19 3 29s10 16 20 16c12 0 20 -8 20 -20c0 -4 -3 -15 -3 -25c0 -20 6 -42 6 -48c0 -11 -8 -20 -20 -20c-10 0 -18 8 -20 17c-4 20 -6 37 -6 51zM388 832c0 6 2 11 2 32c0 28 -1 38 -1 42
c0 12 9 20 20 20s20 -8 20 -19c1 -10 1 -27 1 -43c0 -14 0 -27 -2 -35c-2 -10 -10 -17 -20 -17c-11 0 -20 9 -20 20z" />
    <glyph glyph-name="uni0416" unicode="&#x416;" 
d="M45 -7c-11 0 -20 9 -20 20c0 3 1 6 2 9c50 107 136 233 209 320c-82 103 -149 222 -196 346c-1 3 -1 5 -1 7c0 12 8 20 20 20c8 0 16 -6 18 -14c47 -123 112 -238 191 -339l26 -2c2 93 3 202 3 326c0 12 9 20 20 20c12 0 20 -8 20 -20c0 -89 -1 -207 -3 -329l23 -1
c79 102 144 219 191 345c2 8 10 14 18 14c12 0 20 -8 20 -20c0 -2 0 -4 -1 -7c-47 -127 -114 -248 -194 -352c73 -87 158 -208 207 -315c1 -3 2 -5 2 -8c0 -11 -9 -20 -20 -20c-9 0 -16 5 -19 13c-49 104 -131 224 -204 310l-24 1c-2 -113 -5 -226 -10 -321
c0 -11 -10 -19 -20 -19c-11 0 -20 9 -20 20c0 6 6 121 10 322l-24 3c-72 -85 -155 -210 -205 -316c-3 -8 -10 -13 -19 -13z" />
    <glyph glyph-name="uni0417" unicode="&#x417;" 
d="M276 -8c-64 0 -121 17 -182 52c-6 3 -10 10 -10 18c0 11 8 20 20 20c4 0 7 -2 10 -3c56 -33 106 -47 162 -47c117 0 195 64 195 158c0 91 -78 149 -202 149c-20 0 -56 -4 -59 -4c-11 0 -20 9 -20 20v2c0 10 7 17 15 20c174 56 253 114 253 180c0 63 -62 112 -144 112
c-54 0 -121 -18 -176 -48c-3 -1 -6 -2 -9 -2c-12 0 -20 9 -20 20c0 8 4 15 11 18c61 32 135 52 194 52c104 0 184 -65 184 -152c0 -72 -62 -131 -192 -183c126 -12 205 -82 205 -184c0 -117 -96 -198 -235 -198z" />
    <glyph glyph-name="uni0418" unicode="&#x418;" 
d="M103 710c11 0 20 -9 20 -20c4 -90 8 -301 8 -477c0 -41 0 -82 -1 -117c104 208 250 452 360 596c3 4 9 7 15 7c10 0 20 -8 20 -19c6 -106 9 -235 9 -359c0 -123 -3 -239 -9 -320c0 -10 -10 -18 -20 -18c-11 0 -20 8 -20 20c0 5 9 119 9 318c0 103 -2 210 -7 303
c-115 -160 -264 -415 -360 -619c-3 -7 -10 -12 -18 -12c-11 0 -20 9 -20 20c2 48 2 115 2 191c0 301 -8 476 -8 486c0 11 9 20 20 20z" />
    <glyph glyph-name="uni0419" unicode="&#x419;" 
d="M103 710c11 0 20 -9 20 -20c4 -90 8 -301 8 -477c0 -41 0 -82 -1 -117c104 208 250 452 360 596c3 4 9 7 15 7c10 0 20 -8 20 -19c6 -106 9 -235 9 -359c0 -123 -3 -239 -9 -320c0 -10 -10 -18 -20 -18c-11 0 -20 8 -20 20c0 5 9 119 9 318c0 103 -2 210 -7 303
c-115 -160 -264 -415 -360 -619c-3 -7 -10 -12 -18 -12c-11 0 -20 9 -20 20c2 48 2 115 2 191c0 301 -8 476 -8 486c0 11 9 20 20 20zM106 939c0 11 9 20 20 20c9 0 17 -6 19 -15c17 -59 84 -102 162 -102c76 0 134 41 147 103c2 9 10 16 20 16c11 0 20 -9 20 -20
c0 -1 0 -3 -1 -4c-17 -81 -91 -135 -186 -135c-96 0 -178 54 -200 131c-1 2 -1 4 -1 6z" />
    <glyph glyph-name="uni040D" unicode="&#x40d;" 
d="M103 710c11 0 20 -9 20 -20c4 -90 8 -301 8 -477c0 -41 0 -82 -1 -117c104 208 250 452 360 596c3 4 9 7 15 7c10 0 20 -8 20 -19c6 -106 9 -235 9 -359c0 -123 -3 -239 -9 -320c0 -10 -10 -18 -20 -18c-11 0 -20 8 -20 20c0 5 9 119 9 318c0 103 -2 210 -7 303
c-115 -160 -264 -415 -360 -619c-3 -7 -10 -12 -18 -12c-11 0 -20 9 -20 20c2 48 2 115 2 191c0 301 -8 476 -8 486c0 11 9 20 20 20zM179 946c0 11 9 20 20 20c5 0 9 -1 12 -4l202 -151c5 -3 8 -9 8 -16c0 -11 -9 -20 -20 -20c-5 0 -9 2 -12 4l-202 151c-5 4 -8 10 -8 16z
" />
    <glyph glyph-name="uni041A" unicode="&#x41a;" 
d="M534 -6c-5 0 -10 2 -14 6c-99 86 -233 224 -319 322l-41 2c-1 -29 -1 -60 -1 -90c0 -92 9 -213 9 -222c0 -11 -8 -20 -20 -20c-10 0 -19 8 -20 19c-5 71 -9 168 -9 223c0 121 9 321 23 458c2 10 10 18 20 18c12 0 20 -8 20 -20c0 -3 -15 -150 -21 -326l43 -2
c122 87 226 198 299 320c4 6 10 10 18 10c12 0 20 -8 20 -20c0 -4 -1 -7 -3 -10c-74 -123 -177 -235 -299 -323c85 -96 214 -227 309 -309c4 -4 6 -10 6 -16c0 -11 -8 -20 -20 -20z" />
    <glyph glyph-name="uni040C" unicode="&#x40c;" 
d="M534 -6c-5 0 -10 2 -14 6c-99 86 -233 224 -319 322l-41 2c-1 -29 -1 -60 -1 -90c0 -92 9 -213 9 -222c0 -11 -8 -20 -20 -20c-10 0 -19 8 -20 19c-5 71 -9 168 -9 223c0 121 9 321 23 458c2 10 10 18 20 18c12 0 20 -8 20 -20c0 -3 -15 -150 -21 -326l43 -2
c122 87 226 198 299 320c4 6 10 10 18 10c12 0 20 -8 20 -20c0 -4 -1 -7 -3 -10c-74 -123 -177 -235 -299 -323c85 -96 214 -227 309 -309c4 -4 6 -10 6 -16c0 -11 -8 -20 -20 -20zM189 798c0 7 3 13 8 16l202 151c3 3 7 4 12 4c11 0 20 -9 20 -20c0 -6 -3 -12 -8 -16
l-202 -151c-3 -2 -7 -4 -12 -4c-11 0 -20 9 -20 20z" />
    <glyph glyph-name="uni041B" unicode="&#x41b;" 
d="M514 -15c-10 0 -20 8 -20 19c-8 151 -17 380 -17 466c0 56 4 132 10 193c-43 2 -99 4 -153 4c-42 0 -75 -1 -101 -2v-44c0 -367 -48 -532 -186 -625c-3 -1 -7 -3 -11 -3c-11 0 -20 9 -20 20c0 7 4 14 9 17c124 84 168 237 168 591v42c-11 0 -18 -1 -19 -1
c-11 0 -20 9 -20 20c0 10 8 20 18 20c37 3 98 5 162 5s129 -2 177 -5c10 0 18 -10 18 -20c0 -4 -12 -117 -12 -212c0 -153 17 -455 17 -465c0 -12 -8 -20 -20 -20z" />
    <glyph glyph-name="uni041C" unicode="&#x41c;" 
d="M47 -11c-12 0 -20 8 -20 20c7 182 29 498 34 677c1 12 10 20 20 20c8 0 16 -4 19 -12c104 -222 157 -329 198 -439c47 118 146 340 190 451c2 7 10 13 18 13c10 0 19 -8 20 -18c23 -212 65 -642 65 -679c0 -12 -8 -20 -20 -20c-10 0 -19 8 -20 18c-9 128 -22 276 -57 605
c-38 -91 -126 -295 -177 -423c-3 -8 -10 -14 -19 -14c-8 0 -16 6 -19 14c-32 96 -96 228 -180 409c-7 -139 -26 -472 -32 -602c0 -12 -10 -20 -20 -20z" />
    <glyph glyph-name="uni041D" unicode="&#x41d;" 
d="M514 -21c-10 0 -20 8 -20 19c-5 88 -9 202 -13 300c-39 4 -88 5 -138 5c-74 0 -151 -3 -200 -9c-3 -117 -13 -215 -27 -287c-2 -8 -10 -16 -20 -16c-11 0 -20 9 -20 21c0 10 28 118 28 376c0 144 -11 286 -11 292c0 12 9 20 20 20c10 0 20 -8 20 -18
c6 -84 11 -189 11 -294v-53c51 5 128 8 199 8c52 0 99 -1 137 -5c-2 56 -3 104 -3 135c0 71 11 162 27 230c3 9 11 15 20 15c12 0 20 -8 20 -20c0 -11 -27 -102 -27 -225c0 -121 17 -471 17 -474c0 -12 -8 -20 -20 -20z" />
    <glyph glyph-name="uni041E" unicode="&#x41e;" 
d="M288 -7c-142 0 -227 93 -227 248c0 228 95 467 254 467c151 0 243 -96 243 -256c0 -270 -109 -459 -270 -459zM101 241c0 -132 68 -208 187 -208c134 0 230 171 230 419c0 137 -74 216 -203 216c-132 0 -214 -217 -214 -427z" />
    <glyph glyph-name="uni041F" unicode="&#x41f;" 
d="M511 -20c-10 0 -20 9 -20 20c-8 135 -17 339 -17 416c0 74 6 172 15 250c-29 1 -63 3 -99 3c-86 0 -183 -5 -243 -13v-39c0 -187 -11 -447 -28 -605c-1 -10 -10 -18 -20 -18c-11 0 -20 9 -20 20s28 259 28 602v58c0 10 8 19 17 20c59 8 168 15 266 15c47 0 89 -2 123 -5
c10 0 18 -9 18 -20c0 -6 -17 -128 -17 -268c0 -128 17 -406 17 -416c0 -11 -8 -20 -20 -20z" />
    <glyph glyph-name="uni0420" unicode="&#x420;" 
d="M149 -16c-10 0 -20 8 -20 20c-3 123 -9 387 -9 516c0 57 1 109 2 157c0 10 7 17 16 19c29 8 62 12 98 12c161 0 294 -105 294 -233c0 -131 -127 -224 -303 -224c-22 0 -44 2 -64 5l6 -252c0 -12 -8 -20 -20 -20zM160 520c0 -75 1 -152 3 -224c19 -3 41 -5 64 -5
c154 0 263 77 263 184c0 104 -116 193 -254 193c-27 0 -52 -3 -74 -8c-1 -45 -2 -92 -2 -140z" />
    <glyph glyph-name="uni0421" unicode="&#x421;" 
d="M289 -14c-149 0 -230 101 -230 281c0 255 121 423 305 423c51 0 95 -14 135 -33l2 60c1 11 10 19 20 19c12 0 20 -8 20 -20l-7 -215c0 -11 -9 -20 -20 -20s-20 9 -20 20l4 111c-48 25 -89 38 -134 38c-160 0 -265 -149 -265 -383c0 -159 65 -241 190 -241
c84 0 164 33 254 105c3 2 8 4 13 4c12 0 20 -8 20 -20c0 -6 -3 -11 -7 -15c-97 -77 -186 -114 -280 -114z" />
    <glyph glyph-name="uni0422" unicode="&#x422;" 
d="M320 -10c-11 0 -20 8 -20 20c0 158 -9 454 -22 643c-35 -1 -70 -1 -105 -1c-41 0 -80 0 -118 1c-11 0 -20 10 -20 20c0 12 9 20 20 20c38 -1 76 -1 118 -1c230 0 381 13 388 13c11 0 20 -8 20 -20c0 -10 -8 -19 -19 -20c-75 -6 -159 -9 -244 -11c13 -191 22 -487 22 -644
c0 -12 -8 -20 -20 -20z" />
    <glyph glyph-name="uni0423" unicode="&#x423;" 
d="M152 -39c-11 0 -20 9 -20 20c0 6 2 11 6 15c54 59 107 134 158 217c-63 129 -158 315 -237 456c-2 3 -3 7 -3 11c0 11 9 20 20 20c8 0 14 -4 17 -10c75 -133 165 -307 228 -436c84 145 158 308 208 450c3 7 11 13 19 13c12 0 20 -8 20 -20c0 -2 0 -4 -1 -7
c-87 -244 -245 -550 -401 -723c-4 -3 -8 -6 -14 -6z" />
    <glyph glyph-name="uni040E" unicode="&#x40e;" 
d="M152 -39c-11 0 -20 9 -20 20c0 6 2 11 6 15c54 59 107 134 158 217c-63 129 -158 315 -237 456c-2 3 -3 7 -3 11c0 11 9 20 20 20c8 0 14 -4 17 -10c75 -133 165 -307 228 -436c84 145 158 308 208 450c3 7 11 13 19 13c12 0 20 -8 20 -20c0 -2 0 -4 -1 -7
c-87 -244 -245 -550 -401 -723c-4 -3 -8 -6 -14 -6zM116 939c0 11 9 20 20 20c9 0 17 -6 19 -15c17 -59 84 -102 162 -102c76 0 134 41 147 103c2 9 10 16 20 16c11 0 20 -9 20 -20c0 -1 0 -3 -1 -4c-17 -81 -91 -135 -186 -135c-96 0 -178 54 -200 131c-1 2 -1 4 -1 6z" />
    <glyph glyph-name="uni0424" unicode="&#x424;" 
d="M288 33c-159 0 -255 111 -255 294c0 157 93 320 247 342c-1 39 -3 63 -3 64c0 12 9 20 20 20c10 0 20 -8 20 -18l3 -64c166 -2 265 -111 265 -290c0 -184 -98 -319 -246 -344c1 -24 1 -46 1 -67c0 -12 -8 -20 -20 -20c-11 0 -20 8 -20 20v63h-12zM73 327
c0 -162 79 -256 215 -256h12c-2 225 -11 438 -17 559c-132 -21 -210 -163 -210 -303zM322 632c7 -174 14 -394 16 -556c124 24 207 142 207 305c0 157 -81 248 -223 251z" />
    <glyph glyph-name="uni0425" unicode="&#x425;" 
d="M52 -11c-11 0 -20 8 -20 20c0 4 2 9 5 12c73 91 163 212 234 317c-77 116 -140 231 -184 339c-1 2 -2 5 -2 8c0 11 9 20 20 20c9 0 16 -6 19 -12c42 -102 99 -210 171 -319c74 111 171 242 238 331c4 4 10 8 16 8c12 0 20 -9 20 -20c0 -5 -2 -9 -4 -13
c-70 -91 -171 -229 -246 -341c54 -79 177 -238 243 -319c3 -2 5 -8 5 -12c0 -12 -8 -20 -20 -20c-6 0 -12 2 -15 7c-64 76 -180 225 -237 308c-70 -104 -156 -219 -227 -307c-4 -4 -10 -7 -16 -7z" />
    <glyph glyph-name="uni0427" unicode="&#x427;" 
d="M236 287c-108 0 -170 63 -170 173c0 77 4 154 10 228c1 10 10 18 20 18c12 0 20 -9 20 -20c0 -5 -10 -85 -10 -226c0 -88 44 -133 130 -133c77 0 162 21 222 55v12c0 111 3 219 8 307c0 11 10 19 20 19c12 0 20 -9 20 -20c0 -7 -8 -124 -8 -306c0 -265 28 -382 28 -387
c0 -11 -8 -20 -20 -20c-10 0 -18 7 -20 16c-15 68 -25 201 -28 335c-64 -32 -146 -51 -222 -51z" />
    <glyph glyph-name="uni0426" unicode="&#x426;" 
d="M538 -215c-11 0 -20 8 -20 20c0 5 15 65 19 200c-121 0 -291 -6 -437 -15c-11 0 -20 9 -20 21c2 78 3 193 3 313c0 235 -4 362 -4 368c0 11 9 20 20 20s20 -8 20 -20c3 -96 4 -233 4 -368c0 -109 -1 -215 -3 -292c102 6 217 10 318 12c16 155 25 458 27 645
c0 11 10 20 20 20c12 0 20 -9 20 -20c-2 -185 -11 -487 -27 -644c28 1 55 1 79 1c12 0 20 -9 20 -21c-1 -84 -8 -164 -19 -224c-2 -9 -10 -16 -20 -16z" />
    <glyph glyph-name="uni0428" unicode="&#x428;" 
d="M524 -5c-123 0 -303 1 -452 3c-12 0 -20 9 -20 20c-2 87 -3 221 -3 355c0 115 1 230 2 313c0 12 9 20 20 20s20 -8 20 -20c0 -8 -2 -128 -2 -313c0 -123 1 -248 3 -335l193 -2c-2 80 -3 200 -3 322c0 121 1 243 3 335c0 12 10 20 20 20c12 0 20 -8 20 -20
c0 -17 -3 -150 -3 -335c0 -123 1 -243 3 -322c65 -1 127 -1 180 -1c1 54 6 432 8 668c1 12 10 20 20 20c12 0 20 -8 20 -20c-2 -275 -8 -638 -9 -688c0 -12 -9 -20 -20 -20z" />
    <glyph glyph-name="uni0429" unicode="&#x429;" 
d="M540 -215c-11 0 -20 8 -20 20v4c11 52 17 123 19 201c-218 -1 -449 -15 -457 -15c-12 0 -20 8 -20 20c0 14 3 144 3 309c0 176 -4 356 -4 364c0 11 8 20 20 20c10 0 20 -9 20 -20c3 -96 4 -231 4 -364c0 -107 -1 -212 -3 -288c53 3 109 5 165 7c6 155 9 463 10 652
c0 11 8 20 20 20c11 0 20 -9 20 -20c-1 -188 -4 -495 -9 -650c56 2 111 3 162 4c16 155 25 458 27 646c0 11 9 20 20 20s20 -9 20 -20c-2 -186 -11 -488 -27 -645h49c12 0 20 -9 20 -20c-1 -87 -8 -168 -19 -229c-2 -9 -10 -16 -20 -16z" />
    <glyph glyph-name="uni040F" unicode="&#x40f;" 
d="M516 -5c-10 0 -67 7 -184 8c1 -79 5 -148 13 -195v-4c0 -11 -8 -20 -20 -20c-10 0 -18 8 -20 17c-8 49 -12 118 -13 202c-108 0 -187 -5 -192 -5c-11 0 -20 9 -20 20c0 10 4 119 4 319c0 264 -5 345 -5 360c0 11 9 20 20 20s20 -8 20 -20c4 -94 5 -228 5 -360
c0 -111 -1 -220 -4 -298c55 3 115 4 172 4c75 0 145 -2 204 -6c-3 101 -4 196 -4 285c0 127 4 245 13 364c1 10 10 18 20 18c12 0 20 -9 20 -20c0 -13 -13 -137 -13 -362c0 -171 4 -294 4 -307c0 -12 -8 -20 -20 -20z" />
    <glyph glyph-name="uni042C" unicode="&#x42c;" 
d="M120 496c0 69 0 136 2 200c0 12 10 20 20 20c12 0 20 -9 20 -20c0 -10 -2 -98 -2 -201v-57c24 5 50 7 78 7c160 0 292 -103 292 -231c0 -130 -126 -222 -301 -222c-30 0 -60 2 -86 7c-9 2 -17 10 -17 20c0 26 -6 344 -6 477zM161 398c1 -129 4 -329 5 -361
c19 -3 41 -5 63 -5c153 0 261 76 261 182c0 104 -114 191 -252 191c-28 0 -54 -2 -77 -7z" />
    <glyph glyph-name="uni042B" unicode="&#x42b;" 
d="M149 -9c-23 0 -45 2 -65 8c-10 2 -16 10 -16 19c-2 119 -6 342 -6 471c0 65 0 129 2 190c0 11 9 19 20 19s20 -8 20 -20c0 -9 -2 -119 -2 -189v-28c18 3 36 5 56 5c140 0 239 -101 239 -244s-95 -231 -248 -231zM102 420c1 -127 5 -285 6 -385c14 -2 27 -4 41 -4
c131 0 208 71 208 191c0 121 -81 204 -199 204c-20 0 -38 -2 -56 -6zM497 477c0 62 6 148 16 211c2 10 10 17 20 17c12 0 20 -8 20 -20c0 -10 -16 -95 -16 -208c0 -143 17 -441 17 -464c0 -11 -8 -20 -20 -20c-10 0 -20 8 -20 19c-8 150 -17 380 -17 465z" />
    <glyph glyph-name="uni042A" unicode="&#x42a;" 
d="M299 -8c-27 0 -52 2 -75 7c-9 2 -16 10 -16 20c0 116 -6 340 -6 471c0 59 0 119 1 176c-89 0 -151 -6 -158 -6c-11 0 -20 9 -20 20c0 10 8 20 18 20c55 4 122 6 181 6c11 0 20 -8 20 -20c0 -10 -2 -87 -2 -196v-49c19 5 41 8 66 8c152 0 260 -96 260 -233
c0 -139 -103 -224 -269 -224zM242 402c2 -122 4 -275 6 -365c16 -3 32 -5 51 -5c145 0 229 68 229 184c0 114 -90 193 -220 193c-23 0 -45 -2 -66 -7z" />
    <glyph glyph-name="uni0409" unicode="&#x409;" 
d="M20 -6c-11 0 -20 8 -20 20c0 10 7 18 16 20c63 13 81 69 81 277c0 196 -20 356 -20 368c0 11 9 20 20 20c130 0 216 7 223 7c12 0 20 -9 20 -20s-2 -105 -2 -197v-40c146 -8 247 -107 247 -245c0 -120 -89 -209 -210 -209c-18 0 -36 1 -53 4c-10 2 -18 10 -18 20
c-2 120 -6 340 -6 470c0 60 0 119 2 175c-60 -3 -125 -5 -181 -5c11 -108 18 -245 18 -348c0 -202 -16 -296 -113 -317h-4zM338 408c2 -129 5 -275 6 -371c10 -1 19 -2 31 -2c99 0 170 71 170 169c0 116 -84 196 -207 204z" />
    <glyph glyph-name="uni040A" unicode="&#x40a;" 
d="M375 -9c-22 0 -43 2 -63 8c-10 2 -16 10 -16 19c-1 46 -3 176 -5 301c-62 -4 -128 -6 -188 -6c-2 -98 -6 -211 -11 -301c-1 -11 -10 -19 -20 -19c-12 0 -20 9 -20 20c0 7 14 272 14 464c0 110 -13 199 -13 207c0 11 8 20 20 20c10 0 18 -8 20 -18c8 -63 13 -148 13 -209
c0 -33 -1 -76 -2 -124c60 0 126 2 187 6c-1 47 -1 91 -1 129c0 64 0 129 2 189c0 11 10 20 20 20c12 0 20 -9 20 -20c0 -10 -2 -122 -2 -189v-29c17 3 35 5 54 5c119 0 201 -95 201 -232c0 -149 -80 -241 -210 -241zM330 418c1 -138 5 -315 6 -383c13 -3 27 -4 39 -4
c108 0 170 73 170 201c0 115 -65 192 -160 192c-20 0 -38 -2 -55 -6z" />
    <glyph glyph-name="uni0405" unicode="&#x405;" 
d="M293 -7c-98 0 -164 23 -225 81c-5 4 -7 9 -7 15c0 12 8 20 20 20c5 0 10 -2 13 -5c54 -51 110 -71 199 -71c122 0 210 82 210 190c0 86 -57 124 -211 132c-129 7 -186 48 -186 143c0 125 90 206 226 206c70 0 124 -10 176 -35c8 -3 12 -10 12 -18c0 -11 -8 -20 -20 -20
c-14 0 -51 33 -168 33c-114 0 -186 -64 -186 -166c0 -69 37 -98 147 -103c174 -9 250 -59 250 -172c0 -131 -106 -230 -250 -230z" />
    <glyph glyph-name="uni0404" unicode="&#x404;" 
d="M289 -14c-149 0 -230 101 -230 281c0 255 121 423 305 423c51 0 95 -14 135 -33l2 60c1 11 10 19 20 19c12 0 20 -8 20 -20l-7 -215c0 -11 -9 -20 -20 -20s-20 9 -20 20l4 111c-48 25 -89 38 -134 38c-138 0 -235 -111 -259 -292c101 10 213 14 284 14c11 0 20 -9 20 -20
s-9 -20 -20 -20c-73 0 -188 -5 -288 -15c-1 -16 -2 -33 -2 -50c0 -159 65 -241 190 -241c84 0 164 33 254 105c3 2 8 4 13 4c12 0 20 -8 20 -20c0 -6 -3 -11 -7 -15c-97 -77 -186 -114 -280 -114z" />
    <glyph glyph-name="uni042D" unicode="&#x42d;" 
d="M234 -10c-58 0 -121 17 -175 46c-6 4 -10 10 -10 18c0 12 8 20 20 20c4 0 7 0 10 -2c47 -27 103 -42 155 -42c164 0 288 130 288 305v10c-203 -7 -302 -22 -313 -22s-20 8 -20 20c0 10 8 18 18 20c104 12 211 19 313 22c-14 171 -101 278 -228 278
c-59 0 -117 -18 -181 -62l-6 -95c-1 -10 -10 -18 -20 -18c-12 0 -20 8 -20 20l13 193c1 10 10 18 20 18c12 0 20 -8 20 -20l-3 -48c60 35 118 52 177 52c163 0 270 -146 270 -368c0 -197 -141 -345 -328 -345z" />
    <glyph glyph-name="uni0406" unicode="&#x406;" 
d="M147 -11c-11 0 -20 9 -20 20c0 10 8 19 18 20c47 6 101 11 156 14c-13 112 -20 239 -20 347c0 83 3 180 8 275c-48 2 -93 3 -135 3c-11 0 -20 9 -20 20s9 20 20 20c123 -2 235 -6 316 -11c11 -1 19 -9 19 -20s-9 -20 -20 -20c-49 3 -96 5 -140 7c-5 -95 -8 -192 -8 -274
c0 -106 7 -232 20 -345c49 2 96 4 134 4c11 0 20 -9 20 -20s-9 -20 -20 -20c-102 -1 -235 -8 -328 -20z" />
    <glyph glyph-name="uni0407" unicode="&#x407;" 
d="M147 -11c-11 0 -20 9 -20 20c0 10 8 19 18 20c47 6 101 11 156 14c-13 112 -20 239 -20 347c0 83 3 180 8 275c-48 2 -93 3 -135 3c-11 0 -20 9 -20 20s9 20 20 20c123 -2 235 -6 316 -11c11 -1 19 -9 19 -20s-9 -20 -20 -20c-49 3 -96 5 -140 7c-5 -95 -8 -192 -8 -274
c0 -106 7 -232 20 -345c49 2 96 4 134 4c11 0 20 -9 20 -20s-9 -20 -20 -20c-102 -1 -235 -8 -328 -20zM189 869c0 10 1 19 3 29s10 16 20 16c12 0 20 -8 20 -20c0 -4 -3 -15 -3 -25c0 -20 6 -42 6 -48c0 -11 -8 -20 -20 -20c-10 0 -18 8 -20 17c-4 20 -6 37 -6 51zM388 832
c0 6 2 11 2 32c0 28 -1 38 -1 42c0 12 9 20 20 20s20 -8 20 -19c1 -10 1 -27 1 -43c0 -14 0 -27 -2 -35c-2 -10 -10 -17 -20 -17c-11 0 -20 9 -20 20z" />
    <glyph glyph-name="uni0408" unicode="&#x408;" 
d="M338 -56c-123 0 -258 111 -258 214c0 30 8 55 25 73c4 4 9 6 15 6c11 0 20 -9 20 -20c0 -5 -2 -9 -5 -12c-10 -12 -15 -27 -15 -47c0 -80 117 -174 216 -174c48 0 78 71 79 183c1 103 -8 267 -27 491c-68 -3 -137 -7 -196 -12c-11 0 -20 9 -20 20c0 10 8 19 18 20
c104 9 253 15 344 17c11 0 20 -9 20 -20s-9 -20 -20 -20c-32 -1 -68 -2 -106 -3c19 -216 28 -384 27 -493c-1 -137 -42 -223 -117 -223z" />
    <glyph glyph-name="uni040B" unicode="&#x40b;" 
d="M530 -4c-11 0 -20 9 -20 20c0 5 11 90 11 185c0 109 -48 164 -139 164c-57 0 -120 -23 -166 -57c0 -177 9 -295 9 -306s-8 -20 -20 -20c-10 0 -19 9 -20 19c-6 87 -9 197 -9 312c0 128 7 267 19 348h-39c-37 0 -73 1 -108 2c-12 0 -20 10 -20 20c0 12 9 20 20 20
c8 0 70 -2 108 -2c173 0 330 15 339 15c12 0 20 -9 20 -20c0 -10 -8 -20 -18 -20c-79 -7 -170 -12 -261 -14c-11 -67 -18 -186 -20 -306c49 31 109 49 166 49c114 0 179 -74 179 -204c0 -61 -4 -125 -11 -187c-1 -10 -9 -18 -20 -18z" />
    <glyph glyph-name="uni042E" unicode="&#x42e;" 
d="M401 -15c-98 0 -145 109 -148 316c-17 2 -36 4 -58 4c-30 0 -61 -3 -85 -8c-4 -119 -13 -218 -28 -292c-2 -10 -10 -16 -20 -16c-12 0 -20 8 -20 20c0 9 29 107 29 386c0 165 -12 296 -12 304c0 11 9 20 20 20s20 -8 20 -19c7 -87 12 -196 12 -305v-57c25 4 55 7 84 7
c21 0 41 -1 58 -4c3 244 54 368 164 368c107 0 157 -121 157 -344c0 -255 -52 -380 -173 -380zM293 322c0 -199 38 -297 108 -297c89 0 133 104 133 340c0 202 -42 304 -117 304c-81 0 -124 -112 -124 -347z" />
    <glyph glyph-name="uni042F" unicode="&#x42f;" 
d="M75 -27c-12 0 -20 8 -20 20c0 4 1 8 4 12c70 96 164 203 255 288c-147 37 -226 107 -226 207c0 132 150 204 405 204h33c11 0 19 -10 19 -20c0 -14 -7 -180 -7 -367c0 -142 6 -293 6 -308c0 -12 -8 -21 -20 -21c-10 0 -19 9 -20 20c-2 52 -5 175 -6 258
c-49 3 -94 9 -134 16c-96 -85 -197 -199 -273 -301c-4 -5 -10 -8 -16 -8zM128 500c0 -108 127 -177 370 -193v10c0 118 4 241 7 347h-13c-232 0 -364 -61 -364 -164z" />
    <glyph glyph-name="uni0402" unicode="&#x402;" 
d="M397 -15c-32 0 -63 10 -85 29c-7 2 -11 9 -11 17c0 11 8 20 20 20c3 0 6 -1 9 -3c17 -15 41 -23 67 -23c79 0 129 60 129 157c0 121 -53 184 -153 184c-55 0 -115 -23 -158 -59c0 -183 9 -298 9 -304c0 -12 -9 -20 -20 -20s-20 8 -20 19c-6 86 -9 196 -9 313
c0 131 7 267 19 345h-40c-37 0 -81 1 -108 2c-11 0 -19 10 -19 20c0 12 8 20 20 20c9 0 69 -2 107 -2c185 0 330 15 339 15c12 0 20 -9 20 -20s-8 -20 -18 -20c-79 -7 -170 -12 -261 -14c-10 -67 -17 -184 -19 -304c47 31 104 49 158 49c123 0 193 -81 193 -224
c0 -118 -68 -197 -169 -197z" />
    <glyph glyph-name="uni0462" unicode="&#x462;" 
d="M156 -13c-11 0 -20 8 -20 20c-1 14 -1 29 -1 45c0 141 16 335 17 527c-43 -1 -83 -1 -116 -1c-12 0 -20 9 -20 20c0 12 8 20 20 20l116 1c-1 39 -2 70 -2 78c0 11 8 20 20 20c10 0 19 -8 20 -20c1 -24 2 -50 2 -78c204 4 321 13 327 13c11 0 20 -8 20 -20
c0 -10 -8 -20 -19 -20c-104 -7 -224 -11 -328 -13c0 -54 -2 -115 -5 -176c22 3 43 4 63 4c193 0 334 -80 334 -198c0 -139 -162 -214 -428 -222zM176 28c236 11 368 75 368 181c0 90 -124 158 -294 158c-22 0 -43 -1 -64 -4c-6 -134 -12 -265 -10 -335z" />
    <glyph glyph-name="uni0472" unicode="&#x472;" 
d="M412 304c-86 0 -134 59 -206 59c-35 0 -67 -10 -100 -30c-3 -31 -5 -61 -5 -92c0 -132 68 -208 187 -208c109 0 193 113 220 289c-28 -12 -59 -18 -96 -18zM61 241c0 228 95 467 254 467c151 0 243 -96 243 -256c0 -270 -109 -459 -270 -459c-142 0 -227 93 -227 248z
M113 382c30 14 61 21 93 21c83 0 132 -59 206 -59c43 0 73 8 102 26c3 26 4 54 4 82c0 137 -74 216 -203 216c-102 0 -174 -130 -202 -286z" />
    <glyph glyph-name="uni0474" unicode="&#x474;" 
d="M292 -17c-7 0 -14 4 -18 11c-85 167 -201 477 -252 691c-1 6 -1 8 -1 9c0 12 9 20 20 20c10 0 18 -6 20 -16c46 -196 145 -468 225 -635c47 199 97 394 127 499c30 102 65 145 122 145c22 0 47 -10 68 -26c4 -4 8 -10 8 -16c0 -11 -9 -20 -20 -20c-5 0 -8 2 -12 4
c-13 11 -30 17 -43 17c-37 0 -60 -33 -84 -117c-34 -112 -90 -331 -140 -550c-2 -10 -10 -16 -20 -16z" />
    <glyph glyph-name="uni0496" unicode="&#x496;" 
d="M580 -214c-11 0 -20 8 -20 20c0 5 11 61 18 187h-38c-9 0 -17 6 -19 15c-40 103 -107 223 -166 308l-22 1c-2 -113 -5 -226 -10 -321c0 -11 -10 -19 -20 -19c-11 0 -20 9 -20 20c0 6 6 123 10 323c-8 0 -16 1 -23 2c-72 -85 -156 -210 -206 -316c-3 -8 -10 -13 -19 -13
c-11 0 -20 9 -20 20c0 3 1 6 2 9c50 107 136 233 209 320c-82 103 -149 222 -196 346c-1 3 -1 5 -1 7c0 12 8 20 20 20c8 0 16 -6 18 -14c47 -123 113 -239 193 -339l24 -2c2 93 3 203 3 326c0 12 9 20 20 20c12 0 20 -8 20 -20c0 -89 -1 -207 -3 -329l21 -1
c81 102 146 219 193 345c2 8 10 14 18 14c12 0 20 -8 20 -20c0 -2 0 -4 -1 -7c-47 -127 -114 -248 -195 -352c57 -85 124 -200 164 -302h44c12 0 20 -9 20 -20c-2 -74 -10 -162 -18 -211c-1 -10 -10 -17 -20 -17z" />
    <glyph glyph-name="uni049A" unicode="&#x49a;" 
d="M558 -210c-11 0 -20 9 -20 20c0 5 9 55 17 185h-30c-4 0 -9 2 -12 5c-96 86 -227 224 -312 322l-41 2c-1 -29 -1 -60 -1 -90c0 -100 9 -214 9 -222c0 -11 -8 -20 -20 -20c-10 0 -19 8 -20 19c-5 71 -9 168 -9 223c0 121 9 321 23 458c2 10 10 18 20 18c12 0 20 -8 20 -20
c0 -7 -15 -151 -21 -326l43 -2c122 87 226 198 299 320c4 6 10 10 18 10c12 0 20 -8 20 -20c0 -4 -1 -7 -3 -10c-74 -123 -178 -236 -299 -324c81 -93 204 -222 296 -303h41c12 0 20 -9 20 -20c-2 -67 -10 -159 -18 -208c-2 -9 -10 -17 -20 -17z" />
    <glyph glyph-name="uni04A2" unicode="&#x4a2;" 
d="M514 -21c-10 0 -20 8 -20 19c-5 88 -9 202 -13 300c-39 4 -88 5 -138 5c-74 0 -151 -3 -200 -9c-3 -117 -13 -215 -27 -287c-2 -8 -10 -16 -20 -16c-11 0 -20 9 -20 21c0 10 28 118 28 376c0 144 -11 286 -11 292c0 12 9 20 20 20c10 0 20 -8 20 -18
c6 -84 11 -189 11 -294v-53c51 5 128 8 199 8c52 0 99 -1 137 -5c-2 56 -3 104 -3 135c0 71 11 162 27 230c3 9 11 15 20 15c12 0 20 -8 20 -20c0 -11 -27 -102 -27 -225c0 -105 13 -380 16 -455h30c12 0 20 -8 20 -20c-2 -67 -10 -158 -18 -207c-2 -10 -10 -18 -20 -18
c-11 0 -20 9 -20 20c0 7 10 59 17 185h-28v1z" />
    <glyph glyph-name="uni04AE" unicode="&#x4ae;" 
d="M312 -10c-11 0 -20 8 -20 20c3 63 6 150 9 244c-64 117 -161 287 -241 414c-2 3 -4 7 -4 12c0 11 9 20 20 20c7 0 13 -4 17 -9c75 -119 165 -275 228 -390c81 126 156 271 209 404c3 7 10 12 18 12c12 0 20 -8 20 -20c0 -3 0 -6 -2 -9c-55 -138 -136 -296 -225 -430
c-3 -94 -6 -181 -9 -249c0 -11 -9 -19 -20 -19z" />
    <glyph glyph-name="uni04B0" unicode="&#x4b0;" 
d="M312 -10c-11 0 -20 8 -20 20c3 59 5 138 8 226c-73 -7 -118 -14 -124 -14c-10 0 -18 7 -18 18c0 9 7 17 16 18c37 5 77 10 117 14c-64 116 -155 275 -231 396c-2 3 -4 7 -4 12c0 11 9 20 20 20c7 0 13 -4 17 -9c75 -119 165 -275 228 -390c81 126 156 271 209 404
c3 7 10 12 18 12c12 0 20 -8 20 -20c0 -3 0 -6 -2 -9c-52 -132 -128 -281 -213 -411c38 3 76 5 110 6c10 0 18 -8 18 -19c0 -9 -8 -18 -18 -18c-45 -1 -87 -4 -123 -6c-2 -87 -5 -167 -8 -231c0 -11 -9 -19 -20 -19z" />
    <glyph glyph-name="uni04B2" unicode="&#x4b2;" 
d="M573 -218c-12 0 -20 8 -20 20c0 6 7 31 17 186h-28c-6 0 -12 2 -16 7c-62 77 -175 224 -232 306c-70 -103 -156 -217 -226 -305c-4 -4 -10 -7 -16 -7c-11 0 -20 8 -20 20c0 4 2 9 5 12c73 91 163 211 233 315c-78 118 -139 233 -183 341c-1 2 -2 5 -2 8c0 11 9 20 20 20
c9 0 16 -6 19 -13c41 -101 98 -209 170 -320c73 112 171 244 239 333c4 4 10 8 16 8c12 0 20 -9 20 -20c0 -5 -2 -9 -4 -13c-70 -91 -172 -229 -246 -341l-2 -3c53 -77 168 -226 234 -308h40c11 0 20 -8 20 -20c-3 -67 -11 -160 -18 -209c-2 -10 -10 -17 -20 -17z" />
    <glyph glyph-name="uni04B6" unicode="&#x4b6;" 
d="M236 287c-108 0 -170 63 -170 173c0 77 4 154 10 228c1 10 10 18 20 18c12 0 20 -9 20 -20c0 -5 -10 -85 -10 -226c0 -88 44 -133 130 -133c77 0 162 21 222 55v12c0 111 3 219 8 307c0 11 10 19 20 19c12 0 20 -9 20 -20c0 -7 -8 -124 -8 -306c0 -205 17 -321 24 -366
h33c12 0 20 -8 20 -20c-2 -67 -10 -158 -18 -207c-2 -10 -10 -18 -20 -18c-11 0 -20 9 -20 20c0 7 10 59 17 185h-21c-2 -1 -5 -1 -7 -1c-10 0 -18 7 -20 16c-15 68 -25 201 -28 335c-64 -32 -146 -51 -222 -51z" />
    <glyph glyph-name="uni04BA" unicode="&#x4ba;" 
d="M525 -8c-11 0 -20 8 -20 20c0 6 10 82 10 203c0 106 -53 160 -157 160c-75 0 -157 -23 -214 -58v-13c0 -183 8 -297 8 -307c0 -11 -9 -20 -20 -20s-20 9 -20 20c-5 88 -8 196 -8 307c0 152 8 318 22 398c1 9 10 17 20 17c11 0 20 -9 20 -20c0 -9 -19 -102 -22 -336
c62 32 141 52 214 52c126 0 197 -72 197 -200c0 -68 -3 -140 -10 -205c-1 -10 -10 -18 -20 -18z" />
    <glyph glyph-name="uni04C0" unicode="&#x4c0;" 
d="M147 -11c-11 0 -20 9 -20 20c0 10 8 19 18 20c47 6 101 11 156 14c-13 112 -20 239 -20 347c0 83 3 180 8 275c-48 2 -93 3 -135 3c-11 0 -20 9 -20 20s9 20 20 20c123 -2 235 -6 316 -11c11 -1 19 -9 19 -20s-9 -20 -20 -20c-49 3 -96 5 -140 7c-5 -95 -8 -192 -8 -274
c0 -106 7 -232 20 -345c49 2 96 4 134 4c11 0 20 -9 20 -20s-9 -20 -20 -20c-102 -1 -235 -8 -328 -20z" />
    <glyph glyph-name="uni04D8" unicode="&#x4d8;" 
d="M263 -8c-128 0 -212 104 -212 262c0 64 31 100 93 113c80 17 227 42 366 59c-12 156 -85 245 -206 245c-81 0 -148 -30 -221 -100c-4 -4 -9 -6 -15 -6c-11 0 -20 8 -20 20c0 5 3 10 6 14c81 77 158 112 250 112c154 0 247 -124 247 -327c0 -248 -105 -392 -288 -392z
M91 254c0 -137 67 -222 172 -222c159 0 248 126 248 351v3c-136 -17 -280 -42 -358 -59c-45 -8 -62 -28 -62 -73z" />
    <glyph glyph-name="uni04E2" unicode="&#x4e2;" 
d="M103 710c11 0 20 -9 20 -20c4 -90 8 -301 8 -477c0 -41 0 -82 -1 -117c104 208 250 452 360 596c3 4 9 7 15 7c10 0 20 -8 20 -19c6 -106 9 -235 9 -359c0 -123 -3 -239 -9 -320c0 -10 -10 -18 -20 -18c-11 0 -20 8 -20 20c0 5 9 119 9 318c0 103 -2 210 -7 303
c-115 -160 -264 -415 -360 -619c-3 -7 -10 -12 -18 -12c-11 0 -20 9 -20 20c2 48 2 115 2 191c0 301 -8 476 -8 486c0 11 9 20 20 20zM92 831c0 11 8 19 18 20c106 15 288 22 377 22c12 0 20 -8 20 -20c0 -11 -8 -20 -20 -20c-216 0 -370 -22 -375 -22c-11 0 -20 9 -20 20z
" />
    <glyph glyph-name="uni04E8" unicode="&#x4e8;" 
d="M286 -7c-142 0 -227 93 -227 248c0 228 95 467 254 467c151 0 243 -96 243 -256c0 -270 -109 -459 -270 -459zM99 241c0 -132 68 -208 187 -208c105 0 186 104 217 268c-128 17 -285 36 -398 41c-4 -33 -6 -67 -6 -101zM111 382c114 -6 270 -25 398 -41c5 35 7 72 7 111
c0 137 -74 216 -203 216c-102 0 -174 -130 -202 -286z" />
    <glyph glyph-name="uni04EE" unicode="&#x4ee;" 
d="M152 -39c-11 0 -20 9 -20 20c0 6 2 11 6 15c54 59 107 134 158 217c-63 129 -158 315 -237 456c-2 3 -3 7 -3 11c0 11 9 20 20 20c8 0 14 -4 17 -10c75 -133 165 -307 228 -436c84 145 158 308 208 450c3 7 11 13 19 13c12 0 20 -8 20 -20c0 -2 0 -4 -1 -7
c-87 -244 -245 -550 -401 -723c-4 -3 -8 -6 -14 -6zM102 831c0 11 8 19 18 20c106 15 288 22 377 22c12 0 20 -8 20 -20c0 -11 -8 -20 -20 -20c-216 0 -370 -22 -375 -22c-11 0 -20 9 -20 20z" />
    <glyph glyph-name="uni0430" unicode="&#x430;" 
d="M517 -30c-10 0 -20 8 -20 19c-2 29 -5 62 -8 97c-61 -58 -148 -94 -231 -94c-112 0 -179 53 -179 146c0 105 86 165 231 165c53 0 111 -9 159 -25l-7 59c-15 127 -58 179 -147 179c-48 0 -101 -17 -154 -49c-3 -2 -6 -3 -10 -3c-11 0 -20 8 -20 20c0 7 4 14 11 18
c58 35 118 54 173 54c112 0 169 -67 187 -215c11 -95 28 -249 35 -351c0 -11 -8 -20 -20 -20zM119 138c0 -69 47 -106 139 -106c83 0 170 39 226 101c-3 34 -7 69 -10 103c-48 17 -108 27 -164 27c-124 0 -191 -45 -191 -125z" />
    <glyph glyph-name="uni0431" unicode="&#x431;" 
d="M307 -20c-133 0 -232 116 -232 265c0 83 20 193 51 278c42 114 114 169 246 187c76 10 114 37 135 90c2 8 10 14 18 14c12 0 20 -9 20 -20c0 -2 0 -6 -1 -8c-26 -68 -77 -103 -167 -116c-119 -16 -180 -60 -217 -161c-13 -36 -24 -76 -32 -117c51 63 121 102 190 102
c127 0 224 -103 224 -236c0 -146 -113 -278 -235 -278zM115 245c0 -128 82 -225 192 -225c100 0 195 115 195 238c0 112 -79 198 -184 198c-76 0 -151 -51 -198 -130c-3 -28 -5 -56 -5 -81z" />
    <glyph glyph-name="uni0432" unicode="&#x432;" 
d="M132 -12c-12 0 -20 9 -20 20c0 31 -10 503 -10 516c0 11 8 20 18 20c42 3 81 5 117 5c185 0 288 -47 288 -143c0 -62 -53 -107 -149 -126c124 -24 191 -70 191 -134c0 -105 -160 -158 -435 -158zM142 506c0 -34 3 -152 5 -202c40 0 77 -2 113 -5c138 3 225 47 225 107
c0 66 -85 103 -248 103c-28 0 -60 -1 -95 -3zM147 265c2 -82 4 -169 5 -236c238 2 375 47 375 117c0 89 -218 118 -380 119z" />
    <glyph glyph-name="uni0433" unicode="&#x433;" 
d="M120 -8c-11 0 -20 8 -20 20c0 139 4 352 12 490c1 9 8 17 17 18c96 18 193 28 288 28c44 0 89 -3 134 -7c10 -1 18 -10 18 -20c0 -11 -9 -20 -20 -20c-5 0 -67 7 -132 7c-87 0 -176 -8 -265 -24c-8 -137 -12 -339 -12 -472c0 -12 -8 -20 -20 -20z" />
    <glyph glyph-name="uni0453" unicode="&#x453;" 
d="M120 -8c-11 0 -20 8 -20 20c0 139 4 352 12 490c1 9 8 17 17 18c96 18 193 28 288 28c44 0 89 -3 134 -7c10 -1 18 -10 18 -20c0 -11 -9 -20 -20 -20c-5 0 -67 7 -132 7c-87 0 -176 -8 -265 -24c-8 -137 -12 -339 -12 -472c0 -12 -8 -20 -20 -20zM189 641c0 7 3 13 8 16
l202 151c3 3 7 4 12 4c11 0 20 -9 20 -20c0 -6 -3 -12 -8 -16l-202 -151c-3 -2 -7 -4 -12 -4c-11 0 -20 9 -20 20z" />
    <glyph glyph-name="uni0491" unicode="&#x491;" 
d="M120 -11c-11 0 -20 9 -20 20c0 140 4 352 12 490c1 9 8 17 17 19c94 18 194 27 291 27c37 0 73 -1 110 -4c1 21 1 113 0 134c0 12 8 20 20 20c10 0 20 -8 20 -19c0 -23 1 -51 1 -79c0 -32 -1 -58 -2 -79c-1 -10 -10 -19 -20 -19c-14 0 -48 6 -129 6
c-88 0 -178 -8 -268 -24c-8 -136 -12 -338 -12 -472c0 -11 -8 -20 -20 -20z" />
    <glyph glyph-name="uni0493" unicode="&#x493;" 
d="M123 -8c-11 0 -20 8 -20 20c0 57 1 126 2 197c-27 -4 -43 -6 -47 -6c-10 0 -18 7 -18 18c0 9 7 17 16 18l50 6c2 92 5 185 9 257c1 9 8 17 17 18c96 18 193 28 288 28c44 0 89 -3 134 -7c10 -1 18 -10 18 -20c0 -11 -9 -20 -20 -20c-5 0 -67 7 -132 7
c-87 0 -176 -8 -265 -24c-4 -68 -7 -151 -9 -234c68 7 138 12 199 14c10 0 18 -8 18 -19c0 -9 -8 -18 -18 -18c-82 -2 -150 -8 -200 -14c-1 -72 -2 -143 -2 -201c0 -12 -8 -20 -20 -20z" />
    </font>
</defs>
</svg>
