<?xml version="1.0" standalone="no"?>
<!DOCTYPE svg PUBLIC "-//W3C//DTD SVG 1.1//EN" "http://www.w3.org/Graphics/SVG/1.1/DTD/svg11.dtd" >
<svg xmlns="http://www.w3.org/2000/svg" xmlns:xlink="http://www.w3.org/1999/xlink" version="1.1">
<metadata>
Created by FontForge 20201107 at Mon May  2 01:01:55 2022
 By Unknown
Copyright \(c\) 2019 by Toshi Omagari. All rights reserved.
</metadata>
<defs>
<font id="ComicCode-BoldItalic" horiz-adv-x="620" >
  <font-face 
    font-family="Comic Code"
    font-weight="700"
    font-style="italic"
    font-stretch="normal"
    units-per-em="1000"
    panose-1="0 0 0 0 0 0 0 0 0 0"
    ascent="800"
    descent="-200"
    x-height="576"
    cap-height="718"
    bbox="-1226 -454 818 1136"
    underline-thickness="50"
    underline-position="-125"
    slope="-11.31"
    stemh="140"
    stemv="140"
    unicode-range="U+000D-FB02"
  />
<missing-glyph 
d="M294 -184c-94 0 -207 3 -308 9c-32 2 -57 28 -57 60c0 4 1 9 2 14c49 234 123 563 171 770c-14 11 -23 28 -23 47c0 33 26 59 58 60c89 3 223 5 341 5c54 0 107 0 149 -1c33 -1 59 -27 59 -60c0 -4 0 -8 -1 -13c-57 -286 -139 -667 -188 -843c-7 -25 -29 -44 -56 -45
c-44 -2 -93 -3 -147 -3zM63 -59c77 -3 159 -5 231 -5c35 0 68 0 98 1c45 169 111 472 162 724h-76c-119 0 -200 -2 -255 -3c-45 -186 -110 -483 -160 -717zM157 44c0 49 43 86 94 86c45 0 80 -34 80 -79c0 -41 -29 -73 -69 -91c-9 -3 -16 -5 -26 -5c-22 0 -41 12 -52 31
c-16 14 -27 35 -27 58zM193 258c0 57 23 90 78 114c68 28 106 68 106 103c0 12 -5 18 -15 18c-18 0 -44 -9 -64 -22c-9 -7 -21 -11 -34 -11c-34 0 -60 26 -60 60c0 21 11 39 27 50c38 26 90 43 131 43c79 0 135 -59 135 -138c0 -85 -63 -160 -160 -206
c-20 -9 -24 -12 -24 -21c0 -5 1 -12 2 -18c0 -33 -27 -60 -60 -60c-31 0 -57 24 -60 54c-1 13 -2 25 -2 34z" />
    <glyph glyph-name=".notdef" 
d="M294 -184c-94 0 -207 3 -308 9c-32 2 -57 28 -57 60c0 4 1 9 2 14c49 234 123 563 171 770c-14 11 -23 28 -23 47c0 33 26 59 58 60c89 3 223 5 341 5c54 0 107 0 149 -1c33 -1 59 -27 59 -60c0 -4 0 -8 -1 -13c-57 -286 -139 -667 -188 -843c-7 -25 -29 -44 -56 -45
c-44 -2 -93 -3 -147 -3zM63 -59c77 -3 159 -5 231 -5c35 0 68 0 98 1c45 169 111 472 162 724h-76c-119 0 -200 -2 -255 -3c-45 -186 -110 -483 -160 -717zM157 44c0 49 43 86 94 86c45 0 80 -34 80 -79c0 -41 -29 -73 -69 -91c-9 -3 -16 -5 -26 -5c-22 0 -41 12 -52 31
c-16 14 -27 35 -27 58zM193 258c0 57 23 90 78 114c68 28 106 68 106 103c0 12 -5 18 -15 18c-18 0 -44 -9 -64 -22c-9 -7 -21 -11 -34 -11c-34 0 -60 26 -60 60c0 21 11 39 27 50c38 26 90 43 131 43c79 0 135 -59 135 -138c0 -85 -63 -160 -160 -206
c-20 -9 -24 -12 -24 -21c0 -5 1 -12 2 -18c0 -33 -27 -60 -60 -60c-31 0 -57 24 -60 54c-1 13 -2 25 -2 34z" />
    <glyph glyph-name="CR" unicode="&#xd;" 
 />
    <glyph glyph-name="space" unicode=" " 
 />
    <glyph glyph-name="A" unicode="A" 
d="M481 -36c-39 0 -70 31 -70 70c0 44 0 88 -1 132c-73 -4 -155 -10 -239 -18c-26 -42 -48 -82 -66 -117c-11 -24 -35 -40 -63 -40c-39 0 -70 31 -70 70c0 12 3 23 8 32c11 21 23 44 36 68c-10 12 -17 28 -17 46c0 36 28 66 63 70l27 3c96 150 218 314 308 420
c13 15 32 25 54 25c36 0 66 -28 70 -64c22 -214 30 -439 30 -627c0 -39 -31 -70 -70 -70zM268 297c48 4 94 7 137 9c-2 57 -5 113 -9 168c-42 -56 -86 -116 -128 -177z" />
    <glyph glyph-name="Aacute" unicode="&#xc1;" 
d="M481 -36c-39 0 -70 31 -70 70c0 44 0 88 -1 132c-73 -4 -155 -10 -239 -18c-26 -42 -48 -82 -66 -117c-11 -24 -35 -40 -63 -40c-39 0 -70 31 -70 70c0 12 3 23 8 32c11 21 23 44 36 68c-10 12 -17 28 -17 46c0 36 28 66 63 70l27 3c96 150 218 314 308 420
c13 15 32 25 54 25c36 0 66 -28 70 -64c22 -214 30 -439 30 -627c0 -39 -31 -70 -70 -70zM268 297c48 4 94 7 137 9c-2 57 -5 113 -9 168c-42 -56 -86 -116 -128 -177zM300 815c0 25 13 47 33 59l230 150c11 8 25 12 39 12c39 0 70 -31 70 -70c0 -25 -13 -47 -33 -59
l-230 -150c-11 -8 -25 -12 -39 -12c-39 0 -70 31 -70 70z" />
    <glyph glyph-name="Abreve" unicode="&#x102;" 
d="M481 -36c-39 0 -70 31 -70 70c0 44 0 88 -1 132c-73 -4 -155 -10 -239 -18c-26 -42 -48 -82 -66 -117c-11 -24 -35 -40 -63 -40c-39 0 -70 31 -70 70c0 12 3 23 8 32c11 21 23 44 36 68c-10 12 -17 28 -17 46c0 36 28 66 63 70l27 3c96 150 218 314 308 420
c13 15 32 25 54 25c36 0 66 -28 70 -64c22 -214 30 -439 30 -627c0 -39 -31 -70 -70 -70zM248 939c0 39 31 70 70 70c37 0 67 -29 70 -65c2 -29 35 -52 87 -52c57 0 107 30 126 74c10 26 35 45 65 45c39 0 70 -31 70 -70c0 -10 -2 -20 -6 -28c-41 -97 -142 -161 -255 -161
c-122 0 -222 75 -227 187zM268 297c48 4 94 7 137 9c-2 57 -5 113 -9 168c-42 -56 -86 -116 -128 -177z" />
    <glyph glyph-name="Acircumflex" unicode="&#xc2;" 
d="M481 -36c-39 0 -70 31 -70 70c0 44 0 88 -1 132c-73 -4 -155 -10 -239 -18c-26 -42 -48 -82 -66 -117c-11 -24 -35 -40 -63 -40c-39 0 -70 31 -70 70c0 12 3 23 8 32c11 21 23 44 36 68c-10 12 -17 28 -17 46c0 36 28 66 63 70l27 3c96 150 218 314 308 420
c13 15 32 25 54 25c36 0 66 -28 70 -64c22 -214 30 -439 30 -627c0 -39 -31 -70 -70 -70zM215 815c0 25 13 47 33 59c73 48 146 92 220 133c10 6 22 9 35 9c16 0 30 -5 42 -14c63 -47 116 -94 157 -141c10 -12 17 -28 17 -46c0 -39 -31 -70 -70 -70c-21 0 -40 9 -53 24
c-27 32 -59 62 -99 93c-58 -32 -115 -67 -173 -105c-11 -8 -25 -12 -39 -12c-39 0 -70 31 -70 70zM268 297c48 4 94 7 137 9c-2 57 -5 113 -9 168c-42 -56 -86 -116 -128 -177z" />
    <glyph glyph-name="Adieresis" unicode="&#xc4;" 
d="M481 -36c-39 0 -70 31 -70 70c0 44 0 88 -1 132c-73 -4 -155 -10 -239 -18c-26 -42 -48 -82 -66 -117c-11 -24 -35 -40 -63 -40c-39 0 -70 31 -70 70c0 12 3 23 8 32c11 21 23 44 36 68c-10 12 -17 28 -17 46c0 36 28 66 63 70l27 3c96 150 218 314 308 420
c13 15 32 25 54 25c36 0 66 -28 70 -64c22 -214 30 -439 30 -627c0 -39 -31 -70 -70 -70zM268 297c48 4 94 7 137 9c-2 57 -5 113 -9 168c-42 -56 -86 -116 -128 -177zM303 821c0 43 5 74 18 101c11 25 35 42 64 42c39 0 70 -31 70 -70c0 -11 -3 -22 -7 -31
c-4 -8 -5 -15 -5 -42c0 -39 -31 -70 -70 -70s-70 31 -70 70zM498 832c0 11 2 21 7 30c1 2 4 20 10 54c4 34 34 60 69 60c39 0 70 -31 70 -70c0 -4 0 -8 -1 -12c-6 -36 -12 -69 -20 -87c-10 -26 -35 -45 -65 -45c-39 0 -70 31 -70 70z" />
    <glyph glyph-name="Agrave" unicode="&#xc0;" 
d="M481 -36c-39 0 -70 31 -70 70c0 44 0 88 -1 132c-73 -4 -155 -10 -239 -18c-26 -42 -48 -82 -66 -117c-11 -24 -35 -40 -63 -40c-39 0 -70 31 -70 70c0 12 3 23 8 32c11 21 23 44 36 68c-10 12 -17 28 -17 46c0 36 28 66 63 70l27 3c96 150 218 314 308 420
c13 15 32 25 54 25c36 0 66 -28 70 -64c22 -214 30 -439 30 -627c0 -39 -31 -70 -70 -70zM268 297c48 4 94 7 137 9c-2 57 -5 113 -9 168c-42 -56 -86 -116 -128 -177zM322 946c0 39 31 70 70 70c18 0 34 -7 46 -17l172 -151c15 -13 24 -32 24 -53c0 -39 -31 -70 -70 -70
c-18 0 -34 7 -46 17l-172 151c-15 13 -24 32 -24 53z" />
    <glyph glyph-name="Amacron" unicode="&#x100;" 
d="M481 -36c-39 0 -70 31 -70 70c0 44 0 88 -1 132c-73 -4 -155 -10 -239 -18c-26 -42 -48 -82 -66 -117c-11 -24 -35 -40 -63 -40c-39 0 -70 31 -70 70c0 12 3 23 8 32c11 21 23 44 36 68c-10 12 -17 28 -17 46c0 36 28 66 63 70l27 3c96 150 218 314 308 420
c13 15 32 25 54 25c36 0 66 -28 70 -64c22 -214 30 -439 30 -627c0 -39 -31 -70 -70 -70zM212 831c0 36 27 65 62 69c112 16 298 23 388 23c39 0 70 -31 70 -70s-31 -70 -70 -70c-87 0 -264 -7 -369 -21c-4 -1 -7 -1 -11 -1c-39 0 -70 31 -70 70zM268 297c48 4 94 7 137 9
c-2 57 -5 113 -9 168c-42 -56 -86 -116 -128 -177z" />
    <glyph glyph-name="Aogonek" unicode="&#x104;" 
d="M395 -242c-76 0 -136 48 -136 115c0 64 64 123 152 168c0 42 0 83 -1 125c-73 -4 -155 -10 -239 -18c-26 -42 -48 -82 -66 -117c-11 -24 -35 -40 -63 -40c-39 0 -70 31 -70 70c0 12 3 23 8 32c11 21 23 44 36 68c-10 12 -17 28 -17 46c0 36 28 66 63 70l27 3
c96 150 218 314 308 420c13 15 32 25 54 25c36 0 66 -28 70 -64c22 -214 30 -439 30 -627c0 -24 -12 -45 -30 -58l-11 -6c-1 0 -1 0 -2 -1l-6 -2c-52 -19 -103 -51 -103 -63c0 -4 2 -6 5 -6c17 0 44 12 67 29c12 9 26 14 42 14c39 0 70 -31 70 -70c0 -23 -11 -44 -29 -57
c-46 -34 -109 -56 -159 -56zM268 297c48 4 94 7 137 9c-2 57 -5 113 -9 168c-42 -56 -86 -116 -128 -177z" />
    <glyph glyph-name="Aring" unicode="&#xc5;" 
d="M481 -36c-39 0 -70 31 -70 70c0 44 0 88 -1 132c-73 -4 -155 -10 -239 -18c-26 -42 -48 -82 -66 -117c-11 -24 -35 -40 -63 -40c-39 0 -70 31 -70 70c0 12 3 23 8 32c11 21 23 44 36 68c-10 12 -17 28 -17 46c0 36 28 66 63 70l27 3c96 150 218 314 308 420
c13 15 32 25 54 25c36 0 66 -28 70 -64c22 -214 30 -439 30 -627c0 -39 -31 -70 -70 -70zM268 297c48 4 94 7 137 9c-2 57 -5 113 -9 168c-42 -56 -86 -116 -128 -177zM311 908c0 98 90 185 188 185c89 0 168 -75 168 -163c0 -89 -92 -173 -182 -173
c-101 0 -174 59 -174 151zM411 908c0 -22 18 -51 74 -51c35 0 82 35 82 73c0 34 -28 63 -68 63c-41 0 -88 -42 -88 -85z" />
    <glyph glyph-name="Aringacute" unicode="&#x1fa;" 
d="M481 -36c-39 0 -70 31 -70 70c0 44 0 88 -1 132c-73 -4 -155 -10 -239 -18c-26 -42 -48 -82 -66 -117c-11 -24 -35 -40 -63 -40c-39 0 -70 31 -70 70c0 12 3 23 8 32c11 21 23 44 36 68c-10 12 -17 28 -17 46c0 36 28 66 63 70l27 3c83 128 184 268 268 372
c-44 25 -72 69 -72 126c0 98 90 185 188 185c21 0 41 -4 60 -12l176 115c11 8 25 12 39 12c39 0 70 -31 70 -70c0 -25 -13 -47 -33 -59l-152 -99c5 -16 8 -33 8 -50c0 -68 -53 -132 -118 -159c21 -208 28 -425 28 -607c0 -39 -31 -70 -70 -70zM268 297c48 4 94 7 137 9
c-2 57 -5 113 -9 168c-42 -56 -86 -116 -128 -177zM385 778c0 -22 18 -51 74 -51c35 0 82 35 82 73c0 34 -28 63 -68 63c-41 0 -88 -42 -88 -85z" />
    <glyph glyph-name="Atilde" unicode="&#xc3;" 
d="M481 -36c-39 0 -70 31 -70 70c0 44 0 88 -1 132c-73 -4 -155 -10 -239 -18c-26 -42 -48 -82 -66 -117c-11 -24 -35 -40 -63 -40c-39 0 -70 31 -70 70c0 12 3 23 8 32c11 21 23 44 36 68c-10 12 -17 28 -17 46c0 36 28 66 63 70l27 3c96 150 218 314 308 420
c13 15 32 25 54 25c36 0 66 -28 70 -64c22 -214 30 -439 30 -627c0 -39 -31 -70 -70 -70zM184 814c0 10 2 19 5 27c37 93 120 160 209 160c62 0 101 -26 143 -82c21 -26 23 -27 33 -27c22 0 50 27 64 70c9 28 36 49 67 49c39 0 70 -31 70 -70c0 -8 -1 -16 -4 -24
c-33 -97 -109 -165 -197 -165c-62 0 -101 26 -143 82c-21 26 -23 27 -33 27c-28 0 -62 -29 -78 -71c-10 -27 -36 -46 -66 -46c-39 0 -70 31 -70 70zM268 297c48 4 94 7 137 9c-2 57 -5 113 -9 168c-42 -56 -86 -116 -128 -177z" />
    <glyph glyph-name="AE" unicode="&#xc6;" 
d="M25 -19c-39 0 -70 31 -70 70c0 10 2 18 6 27c11 29 25 61 41 95c-10 12 -16 27 -16 44c0 36 27 66 63 70l8 1c74 145 164 301 230 404c12 20 34 33 59 33c22 0 42 -12 52 -30l5 1c40 8 90 13 141 13c26 0 52 -1 75 -3c36 -3 64 -33 64 -70c0 -39 -31 -70 -70 -70
c-8 0 -32 3 -69 3c-20 0 -39 -1 -57 -2c-12 -42 -24 -87 -35 -131c30 3 60 6 85 11c5 1 10 2 15 2c39 0 70 -31 70 -70c0 -35 -25 -63 -58 -69c-43 -8 -96 -14 -148 -17c-20 -86 -34 -151 -34 -154s1 -5 3 -5c24 0 70 9 108 21c7 3 15 4 23 4c39 0 70 -31 70 -70
c0 -32 -21 -58 -50 -67c-50 -16 -114 -28 -151 -28c-86 0 -143 52 -143 137c0 7 2 19 4 33c-32 -2 -66 -4 -100 -8c-22 -46 -40 -90 -55 -129c-10 -27 -36 -46 -66 -46zM216 303l65 4c24 85 53 183 76 257c-44 -76 -95 -169 -141 -261z" />
    <glyph glyph-name="AEacute" unicode="&#x1fc;" 
d="M25 -19c-39 0 -70 31 -70 70c0 10 2 18 6 27c11 29 25 61 41 95c-10 12 -16 27 -16 44c0 36 27 66 63 70l8 1c74 145 164 301 230 404c12 20 34 33 59 33c22 0 42 -12 52 -30l5 1c40 8 90 13 141 13c26 0 52 -1 75 -3c36 -3 64 -33 64 -70c0 -39 -31 -70 -70 -70
c-8 0 -32 3 -69 3c-20 0 -39 -1 -57 -2c-12 -42 -24 -87 -35 -131c30 3 60 6 85 11c5 1 10 2 15 2c39 0 70 -31 70 -70c0 -35 -25 -63 -58 -69c-43 -8 -96 -14 -148 -17c-20 -86 -34 -151 -34 -154s1 -5 3 -5c24 0 70 9 108 21c7 3 15 4 23 4c39 0 70 -31 70 -70
c0 -32 -21 -58 -50 -67c-50 -16 -114 -28 -151 -28c-86 0 -143 52 -143 137c0 7 2 19 4 33c-32 -2 -66 -4 -100 -8c-22 -46 -40 -90 -55 -129c-10 -27 -36 -46 -66 -46zM216 303l65 4c24 85 53 183 76 257c-44 -76 -95 -169 -141 -261zM350 815c0 25 13 47 33 59l230 150
c11 8 25 12 39 12c39 0 70 -31 70 -70c0 -25 -13 -47 -33 -59l-230 -150c-11 -8 -25 -12 -39 -12c-39 0 -70 31 -70 70z" />
    <glyph glyph-name="B" unicode="B" 
d="M74 -49c-39 0 -70 31 -70 70c0 5 1 10 2 15c22 117 54 292 79 428c15 87 28 159 34 188c6 31 31 55 63 58c52 5 89 7 123 7c178 0 294 -72 294 -212c0 -68 -36 -124 -97 -163c51 -32 81 -75 81 -131c0 -151 -194 -225 -454 -233c-13 -17 -32 -27 -55 -27zM164 120
c164 11 279 54 279 91c0 20 -110 56 -250 63zM218 414c30 -2 60 -5 88 -9c96 9 153 49 153 100c0 44 -45 72 -154 72c-17 0 -36 -1 -58 -2c-6 -35 -15 -82 -25 -136z" />
    <glyph glyph-name="C" unicode="C" 
d="M271 -22c-156 0 -246 98 -246 265c0 238 194 455 409 455c29 0 58 -5 88 -16l4 16c6 31 34 55 68 55c39 0 70 -31 70 -70c0 -6 -1 -12 -2 -17l-50 -213c-6 -31 -34 -55 -68 -55c-39 0 -70 31 -70 70c0 6 1 12 2 17l14 60c-20 9 -38 13 -56 13c-136 0 -269 -154 -269 -315
c0 -91 31 -125 106 -125c54 0 112 27 189 91c12 11 28 17 45 17c39 0 70 -31 70 -70c0 -22 -10 -41 -26 -54c-100 -84 -189 -124 -278 -124z" />
    <glyph glyph-name="Cacute" unicode="&#x106;" 
d="M271 -22c-156 0 -246 98 -246 265c0 238 194 455 409 455c29 0 58 -5 88 -16l4 16c6 31 34 55 68 55c39 0 70 -31 70 -70c0 -6 -1 -12 -2 -17l-50 -213c-6 -31 -34 -55 -68 -55c-39 0 -70 31 -70 70c0 6 1 12 2 17l14 60c-20 9 -38 13 -56 13c-136 0 -269 -154 -269 -315
c0 -91 31 -125 106 -125c54 0 112 27 189 91c12 11 28 17 45 17c39 0 70 -31 70 -70c0 -22 -10 -41 -26 -54c-100 -84 -189 -124 -278 -124zM250 815c0 25 13 47 33 59l230 150c11 8 25 12 39 12c39 0 70 -31 70 -70c0 -25 -13 -47 -33 -59l-230 -150
c-11 -8 -25 -12 -39 -12c-39 0 -70 31 -70 70z" />
    <glyph glyph-name="Ccaron" unicode="&#x10c;" 
d="M271 -22c-156 0 -246 98 -246 265c0 238 194 455 409 455c29 0 58 -5 88 -16l4 16c6 31 34 55 68 55c39 0 70 -31 70 -70c0 -6 -1 -12 -2 -17l-50 -213c-6 -31 -34 -55 -68 -55c-39 0 -70 31 -70 70c0 6 1 12 2 17l14 60c-20 9 -38 13 -56 13c-136 0 -269 -154 -269 -315
c0 -91 31 -125 106 -125c54 0 112 27 189 91c12 11 28 17 45 17c39 0 70 -31 70 -70c0 -22 -10 -41 -26 -54c-100 -84 -189 -124 -278 -124zM191 946c0 39 31 70 70 70c21 0 40 -9 53 -24c27 -32 59 -62 99 -93c58 32 115 67 173 105c11 8 25 12 39 12c39 0 70 -31 70 -70
c0 -25 -13 -47 -33 -59c-73 -48 -146 -92 -220 -133c-10 -6 -22 -9 -35 -9c-16 0 -30 5 -42 14c-63 47 -116 94 -157 141c-10 12 -17 28 -17 46z" />
    <glyph glyph-name="Ccedilla" unicode="&#xc7;" 
d="M544 398c-39 0 -70 31 -70 70c0 6 1 12 2 17l14 60c-20 9 -38 13 -56 13c-136 0 -269 -154 -269 -315c0 -91 31 -125 106 -125c54 0 112 27 189 91c12 11 28 17 45 17c39 0 70 -31 70 -70c0 -22 -10 -41 -26 -54c-63 -53 -121 -88 -178 -107c12 -21 19 -45 19 -72
c0 -109 -108 -190 -237 -190l-27 1c-36 3 -64 33 -64 70c0 39 31 70 70 70c4 0 7 0 10 -1h11c54 0 97 27 97 50c0 2 -7 8 -26 11c-31 5 -56 30 -59 62c-90 36 -140 122 -140 247c0 238 194 455 409 455c29 0 58 -5 88 -16l4 16c6 31 34 55 68 55c39 0 70 -31 70 -70
c0 -6 -1 -12 -2 -17l-50 -213c-6 -31 -34 -55 -68 -55z" />
    <glyph glyph-name="Ccircumflex" unicode="&#x108;" 
d="M271 -22c-156 0 -246 98 -246 265c0 238 194 455 409 455c29 0 58 -5 88 -16l4 16c5 24 23 44 47 52c-10 4 -20 11 -27 19c-27 32 -59 62 -99 93c-58 -32 -115 -67 -173 -105c-11 -8 -25 -12 -39 -12c-39 0 -70 31 -70 70c0 25 13 47 33 59c73 48 146 92 220 133
c10 6 22 9 35 9c16 0 30 -5 42 -14c63 -47 116 -94 157 -141c10 -12 17 -28 17 -46c0 -32 -20 -58 -49 -67c26 -10 44 -35 44 -65c0 -6 -1 -12 -2 -17l-50 -213c-6 -31 -34 -55 -68 -55c-39 0 -70 31 -70 70c0 6 1 12 2 17l14 60c-20 9 -38 13 -56 13
c-136 0 -269 -154 -269 -315c0 -91 31 -125 106 -125c54 0 112 27 189 91c12 11 28 17 45 17c39 0 70 -31 70 -70c0 -22 -10 -41 -26 -54c-100 -84 -189 -124 -278 -124z" />
    <glyph glyph-name="Cdotaccent" unicode="&#x10a;" 
d="M271 -22c-156 0 -246 98 -246 265c0 238 194 455 409 455c29 0 58 -5 88 -16l4 16c6 31 34 55 68 55c39 0 70 -31 70 -70c0 -6 -1 -12 -2 -17l-50 -213c-6 -31 -34 -55 -68 -55c-39 0 -70 31 -70 70c0 6 1 12 2 17l14 60c-20 9 -38 13 -56 13c-136 0 -269 -154 -269 -315
c0 -91 31 -125 106 -125c54 0 112 27 189 91c12 11 28 17 45 17c39 0 70 -31 70 -70c0 -22 -10 -41 -26 -54c-100 -84 -189 -124 -278 -124zM333 842c6 95 33 155 108 155c49 0 87 -39 87 -88c0 -41 -33 -92 -72 -126c-12 -11 -28 -17 -46 -17c-38 0 -77 35 -77 76z" />
    <glyph glyph-name="D" unicode="D" 
d="M152 -13c-31 0 -68 6 -98 16c-29 9 -50 35 -50 67c0 7 1 15 3 21c38 128 77 338 101 495c-14 13 -23 31 -23 52c0 37 28 67 64 70c34 3 64 5 91 5c233 0 374 -122 374 -326c0 -224 -205 -400 -462 -400zM162 127c175 4 312 120 312 260c0 122 -75 184 -227 186
c-20 -134 -52 -312 -85 -446z" />
    <glyph glyph-name="Eth" unicode="&#xd0;" 
d="M152 -13c-31 0 -68 6 -98 16c-29 9 -50 35 -50 67c0 7 1 15 3 21c15 52 31 117 45 186l-9 -1c-3 -1 -5 -1 -9 -1c-33 0 -60 27 -60 60c0 31 23 56 54 60l49 6c12 64 22 128 31 185c-14 13 -23 31 -23 52c0 37 28 67 64 70c34 3 64 5 91 5c233 0 374 -122 374 -326
c0 -224 -205 -400 -462 -400zM162 127c175 4 312 120 312 260c0 122 -75 184 -227 186c-7 -49 -16 -103 -26 -158c48 3 92 6 120 6c34 0 60 -26 60 -60c0 -32 -25 -59 -58 -60c-48 -1 -96 -4 -145 -8c-11 -59 -23 -115 -36 -166z" />
    <glyph glyph-name="Dcaron" unicode="&#x10e;" 
d="M152 -13c-31 0 -68 6 -98 16c-29 9 -50 35 -50 67c0 7 1 15 3 21c38 128 77 338 101 495c-14 13 -23 31 -23 52c0 37 28 67 64 70c34 3 64 5 91 5c233 0 374 -122 374 -326c0 -224 -205 -400 -462 -400zM162 127c175 4 312 120 312 260c0 122 -75 184 -227 186
c-20 -134 -52 -312 -85 -446zM191 946c0 39 31 70 70 70c21 0 40 -9 53 -24c27 -32 59 -62 99 -93c58 32 115 67 173 105c11 8 25 12 39 12c39 0 70 -31 70 -70c0 -25 -13 -47 -33 -59c-73 -48 -146 -92 -220 -133c-10 -6 -22 -9 -35 -9c-16 0 -30 5 -42 14
c-63 47 -116 94 -157 141c-10 12 -17 28 -17 46z" />
    <glyph glyph-name="Dcroat" unicode="&#x110;" 
d="M152 -13c-31 0 -68 6 -98 16c-29 9 -50 35 -50 67c0 7 1 15 3 21c15 52 31 117 45 186l-9 -1c-3 -1 -5 -1 -9 -1c-33 0 -60 27 -60 60c0 31 23 56 54 60l49 6c12 64 22 128 31 185c-14 13 -23 31 -23 52c0 37 28 67 64 70c34 3 64 5 91 5c233 0 374 -122 374 -326
c0 -224 -205 -400 -462 -400zM162 127c175 4 312 120 312 260c0 122 -75 184 -227 186c-7 -49 -16 -103 -26 -158c48 3 92 6 120 6c34 0 60 -26 60 -60c0 -32 -25 -59 -58 -60c-48 -1 -96 -4 -145 -8c-11 -59 -23 -115 -36 -166z" />
    <glyph glyph-name="E" unicode="E" 
d="M485 -11c-99 0 -232 7 -313 17c-86 10 -142 52 -142 139c0 38 17 97 33 157l6 22c-7 11 -11 24 -11 38c0 27 15 51 38 62l8 40c20 99 27 146 25 175c0 39 31 70 70 70c15 0 30 -5 42 -14c70 11 146 17 217 17c47 0 93 -2 136 -6c36 -3 64 -33 64 -70
c0 -39 -31 -70 -70 -70c-46 4 -88 6 -130 6c-65 0 -132 -5 -195 -15c-5 -31 -11 -71 -21 -121l-1 -5c92 2 177 7 245 17l11 1c39 0 70 -31 70 -70c0 -36 -27 -65 -61 -69c-83 -12 -190 -19 -301 -19l-7 -27c-20 -74 -27 -101 -27 -110c0 -6 4 -7 19 -9
c76 -9 202 -16 295 -16c39 0 70 -31 70 -70s-31 -70 -70 -70z" />
    <glyph glyph-name="Eacute" unicode="&#xc9;" 
d="M485 -11c-99 0 -232 7 -313 17c-86 10 -142 52 -142 139c0 38 17 97 33 157l6 22c-7 11 -11 24 -11 38c0 27 15 51 38 62l8 40c20 99 27 146 25 175c0 39 31 70 70 70c15 0 30 -5 42 -14c70 11 146 17 217 17c47 0 93 -2 136 -6c36 -3 64 -33 64 -70
c0 -39 -31 -70 -70 -70c-46 4 -88 6 -130 6c-65 0 -132 -5 -195 -15c-5 -31 -11 -71 -21 -121l-1 -5c92 2 177 7 245 17l11 1c39 0 70 -31 70 -70c0 -36 -27 -65 -61 -69c-83 -12 -190 -19 -301 -19l-7 -27c-20 -74 -27 -101 -27 -110c0 -6 4 -7 19 -9
c76 -9 202 -16 295 -16c39 0 70 -31 70 -70s-31 -70 -70 -70zM250 815c0 25 13 47 33 59l230 150c11 8 25 12 39 12c39 0 70 -31 70 -70c0 -25 -13 -47 -33 -59l-230 -150c-11 -8 -25 -12 -39 -12c-39 0 -70 31 -70 70z" />
    <glyph glyph-name="Ebreve" unicode="&#x114;" 
d="M485 -11c-99 0 -232 7 -313 17c-86 10 -142 52 -142 139c0 38 17 97 33 157l6 22c-7 11 -11 24 -11 38c0 27 15 51 38 62l8 40c20 99 27 146 25 175c0 39 31 70 70 70c15 0 30 -5 42 -14c70 11 146 17 217 17c47 0 93 -2 136 -6c36 -3 64 -33 64 -70
c0 -39 -31 -70 -70 -70c-46 4 -88 6 -130 6c-65 0 -132 -5 -195 -15c-5 -31 -11 -71 -21 -121l-1 -5c92 2 177 7 245 17l11 1c39 0 70 -31 70 -70c0 -36 -27 -65 -61 -69c-83 -12 -190 -19 -301 -19l-7 -27c-20 -74 -27 -101 -27 -110c0 -6 4 -7 19 -9
c76 -9 202 -16 295 -16c39 0 70 -31 70 -70s-31 -70 -70 -70zM198 939c0 39 31 70 70 70c37 0 67 -29 70 -65c2 -29 35 -52 87 -52c57 0 107 30 126 74c10 26 35 45 65 45c39 0 70 -31 70 -70c0 -10 -2 -20 -6 -28c-41 -97 -142 -161 -255 -161c-122 0 -222 75 -227 187z
" />
    <glyph glyph-name="Ecaron" unicode="&#x11a;" 
d="M485 -11c-99 0 -232 7 -313 17c-86 10 -142 52 -142 139c0 38 17 97 33 157l6 22c-7 11 -11 24 -11 38c0 27 15 51 38 62l8 40c20 99 27 146 25 175c0 39 31 70 70 70c15 0 30 -5 42 -14c70 11 146 17 217 17c47 0 93 -2 136 -6c36 -3 64 -33 64 -70
c0 -39 -31 -70 -70 -70c-46 4 -88 6 -130 6c-65 0 -132 -5 -195 -15c-5 -31 -11 -71 -21 -121l-1 -5c92 2 177 7 245 17l11 1c39 0 70 -31 70 -70c0 -36 -27 -65 -61 -69c-83 -12 -190 -19 -301 -19l-7 -27c-20 -74 -27 -101 -27 -110c0 -6 4 -7 19 -9
c76 -9 202 -16 295 -16c39 0 70 -31 70 -70s-31 -70 -70 -70zM191 946c0 39 31 70 70 70c21 0 40 -9 53 -24c27 -32 59 -62 99 -93c58 32 115 67 173 105c11 8 25 12 39 12c39 0 70 -31 70 -70c0 -25 -13 -47 -33 -59c-73 -48 -146 -92 -220 -133c-10 -6 -22 -9 -35 -9
c-16 0 -30 5 -42 14c-63 47 -116 94 -157 141c-10 12 -17 28 -17 46z" />
    <glyph glyph-name="Ecircumflex" unicode="&#xca;" 
d="M485 -11c-99 0 -232 7 -313 17c-86 10 -142 52 -142 139c0 38 17 97 33 157l6 22c-7 11 -11 24 -11 38c0 27 15 51 38 62l8 40c20 99 27 146 25 175c0 39 31 70 70 70c15 0 30 -5 42 -14c70 11 146 17 217 17c47 0 93 -2 136 -6c36 -3 64 -33 64 -70
c0 -39 -31 -70 -70 -70c-46 4 -88 6 -130 6c-65 0 -132 -5 -195 -15c-5 -31 -11 -71 -21 -121l-1 -5c92 2 177 7 245 17l11 1c39 0 70 -31 70 -70c0 -36 -27 -65 -61 -69c-83 -12 -190 -19 -301 -19l-7 -27c-20 -74 -27 -101 -27 -110c0 -6 4 -7 19 -9
c76 -9 202 -16 295 -16c39 0 70 -31 70 -70s-31 -70 -70 -70zM165 815c0 25 13 47 33 59c73 48 146 92 220 133c10 6 22 9 35 9c16 0 30 -5 42 -14c63 -47 116 -94 157 -141c10 -12 17 -28 17 -46c0 -39 -31 -70 -70 -70c-21 0 -40 9 -53 24c-27 32 -59 62 -99 93
c-58 -32 -115 -67 -173 -105c-11 -8 -25 -12 -39 -12c-39 0 -70 31 -70 70z" />
    <glyph glyph-name="Edieresis" unicode="&#xcb;" 
d="M485 -11c-99 0 -232 7 -313 17c-86 10 -142 52 -142 139c0 38 17 97 33 157l6 22c-7 11 -11 24 -11 38c0 27 15 51 38 62l8 40c20 99 27 146 25 175c0 39 31 70 70 70c15 0 30 -5 42 -14c70 11 146 17 217 17c47 0 93 -2 136 -6c36 -3 64 -33 64 -70
c0 -39 -31 -70 -70 -70c-46 4 -88 6 -130 6c-65 0 -132 -5 -195 -15c-5 -31 -11 -71 -21 -121l-1 -5c92 2 177 7 245 17l11 1c39 0 70 -31 70 -70c0 -36 -27 -65 -61 -69c-83 -12 -190 -19 -301 -19l-7 -27c-20 -74 -27 -101 -27 -110c0 -6 4 -7 19 -9
c76 -9 202 -16 295 -16c39 0 70 -31 70 -70s-31 -70 -70 -70zM253 821c0 43 5 74 18 101c11 25 35 42 64 42c39 0 70 -31 70 -70c0 -11 -3 -22 -7 -31c-4 -8 -5 -15 -5 -42c0 -39 -31 -70 -70 -70s-70 31 -70 70zM448 832c0 11 2 21 7 30c1 2 4 20 10 54c4 34 34 60 69 60
c39 0 70 -31 70 -70c0 -4 0 -8 -1 -12c-6 -36 -12 -69 -20 -87c-10 -26 -35 -45 -65 -45c-39 0 -70 31 -70 70z" />
    <glyph glyph-name="Edotaccent" unicode="&#x116;" 
d="M485 -11c-99 0 -232 7 -313 17c-86 10 -142 52 -142 139c0 38 17 97 33 157l6 22c-7 11 -11 24 -11 38c0 27 15 51 38 62l8 40c20 99 27 146 25 175c0 39 31 70 70 70c15 0 30 -5 42 -14c70 11 146 17 217 17c47 0 93 -2 136 -6c36 -3 64 -33 64 -70
c0 -39 -31 -70 -70 -70c-46 4 -88 6 -130 6c-65 0 -132 -5 -195 -15c-5 -31 -11 -71 -21 -121l-1 -5c92 2 177 7 245 17l11 1c39 0 70 -31 70 -70c0 -36 -27 -65 -61 -69c-83 -12 -190 -19 -301 -19l-7 -27c-20 -74 -27 -101 -27 -110c0 -6 4 -7 19 -9
c76 -9 202 -16 295 -16c39 0 70 -31 70 -70s-31 -70 -70 -70zM333 842c6 95 33 155 108 155c49 0 87 -39 87 -88c0 -41 -33 -92 -72 -126c-12 -11 -28 -17 -46 -17c-38 0 -77 35 -77 76z" />
    <glyph glyph-name="Egrave" unicode="&#xc8;" 
d="M485 -11c-99 0 -232 7 -313 17c-86 10 -142 52 -142 139c0 38 17 97 33 157l6 22c-7 11 -11 24 -11 38c0 27 15 51 38 62l8 40c20 99 27 146 25 175c0 39 31 70 70 70c15 0 30 -5 42 -14c70 11 146 17 217 17c47 0 93 -2 136 -6c36 -3 64 -33 64 -70
c0 -39 -31 -70 -70 -70c-46 4 -88 6 -130 6c-65 0 -132 -5 -195 -15c-5 -31 -11 -71 -21 -121l-1 -5c92 2 177 7 245 17l11 1c39 0 70 -31 70 -70c0 -36 -27 -65 -61 -69c-83 -12 -190 -19 -301 -19l-7 -27c-20 -74 -27 -101 -27 -110c0 -6 4 -7 19 -9
c76 -9 202 -16 295 -16c39 0 70 -31 70 -70s-31 -70 -70 -70zM272 946c0 39 31 70 70 70c18 0 34 -7 46 -17l172 -151c15 -13 24 -32 24 -53c0 -39 -31 -70 -70 -70c-18 0 -34 7 -46 17l-172 151c-15 13 -24 32 -24 53z" />
    <glyph glyph-name="Emacron" unicode="&#x112;" 
d="M485 -11c-99 0 -232 7 -313 17c-86 10 -142 52 -142 139c0 38 17 97 33 157l6 22c-7 11 -11 24 -11 38c0 27 15 51 38 62l8 40c20 99 27 146 25 175c0 39 31 70 70 70c15 0 30 -5 42 -14c70 11 146 17 217 17c47 0 93 -2 136 -6c36 -3 64 -33 64 -70
c0 -39 -31 -70 -70 -70c-46 4 -88 6 -130 6c-65 0 -132 -5 -195 -15c-5 -31 -11 -71 -21 -121l-1 -5c92 2 177 7 245 17l11 1c39 0 70 -31 70 -70c0 -36 -27 -65 -61 -69c-83 -12 -190 -19 -301 -19l-7 -27c-20 -74 -27 -101 -27 -110c0 -6 4 -7 19 -9
c76 -9 202 -16 295 -16c39 0 70 -31 70 -70s-31 -70 -70 -70zM162 831c0 36 27 65 62 69c112 16 298 23 388 23c39 0 70 -31 70 -70s-31 -70 -70 -70c-87 0 -264 -7 -369 -21c-4 -1 -7 -1 -11 -1c-39 0 -70 31 -70 70z" />
    <glyph glyph-name="Eogonek" unicode="&#x118;" 
d="M399 -217c-76 0 -136 48 -136 115c0 34 18 66 48 96c-52 3 -101 7 -139 12c-86 10 -142 52 -142 139c0 38 17 97 33 157l6 22c-7 11 -11 24 -11 38c0 27 15 51 38 62l8 40c20 99 27 146 25 175c0 39 31 70 70 70c15 0 30 -5 42 -14c70 11 146 17 217 17
c47 0 93 -2 136 -6c36 -3 64 -33 64 -70c0 -39 -31 -70 -70 -70c-46 4 -88 6 -130 6c-65 0 -132 -5 -195 -15c-5 -31 -11 -71 -21 -121l-1 -5c92 2 177 7 245 17l11 1c39 0 70 -31 70 -70c0 -36 -27 -65 -61 -69c-83 -12 -190 -19 -301 -19l-7 -27
c-20 -74 -27 -101 -27 -110c0 -6 4 -7 19 -9c76 -9 202 -16 295 -16c39 0 70 -31 70 -70c0 -24 -12 -45 -30 -58l-11 -6c-1 0 -1 0 -2 -1l-6 -2c-52 -19 -103 -51 -103 -63c0 -4 2 -6 5 -6c17 0 44 12 67 29c12 9 26 14 42 14c39 0 70 -31 70 -70c0 -23 -11 -44 -29 -57
c-46 -34 -109 -56 -159 -56z" />
    <glyph glyph-name="F" unicode="F" 
d="M87 -15c-39 0 -70 31 -70 70c0 5 1 10 2 15c14 73 30 144 46 211c31 140 59 261 64 361c2 37 32 67 70 67c16 0 31 -5 43 -15c82 12 163 18 240 18c45 0 89 -2 132 -6c36 -3 64 -33 64 -70c0 -39 -31 -70 -70 -70c-9 0 -62 6 -126 6c-71 0 -145 -5 -220 -16
c-7 -45 -16 -98 -27 -149c64 6 127 9 184 9c32 0 63 -1 91 -3c36 -3 65 -33 65 -70c0 -39 -31 -70 -70 -70c-3 0 -55 3 -86 3c-65 0 -141 -5 -215 -13l-3 -13c-15 -67 -31 -136 -45 -207c-6 -33 -35 -58 -69 -58z" />
    <glyph glyph-name="G" unicode="G" 
d="M264 -6c-145 0 -241 107 -241 268c0 206 199 447 374 447c54 0 142 -28 201 -64c20 -12 34 -34 34 -60c0 -39 -31 -70 -70 -70c-14 0 -27 4 -38 11c-37 23 -97 43 -127 43c-94 0 -234 -179 -234 -307c0 -85 36 -128 101 -128c61 0 122 53 157 135l-76 -11
c-4 -1 -8 -1 -12 -1c-39 0 -70 31 -70 70c0 35 26 65 60 69c52 8 148 22 225 29h7c39 0 70 -31 70 -70c0 -32 -21 -58 -49 -67c-45 -173 -169 -294 -312 -294z" />
    <glyph glyph-name="Gbreve" unicode="&#x11e;" 
d="M264 -6c-145 0 -241 107 -241 268c0 206 199 447 374 447c54 0 142 -28 201 -64c20 -12 34 -34 34 -60c0 -39 -31 -70 -70 -70c-14 0 -27 4 -38 11c-37 23 -97 43 -127 43c-94 0 -234 -179 -234 -307c0 -85 36 -128 101 -128c61 0 122 53 157 135l-76 -11
c-4 -1 -8 -1 -12 -1c-39 0 -70 31 -70 70c0 35 26 65 60 69c52 8 148 22 225 29h7c39 0 70 -31 70 -70c0 -32 -21 -58 -49 -67c-45 -173 -169 -294 -312 -294zM198 939c0 39 31 70 70 70c37 0 67 -29 70 -65c2 -29 35 -52 87 -52c57 0 107 30 126 74c10 26 35 45 65 45
c39 0 70 -31 70 -70c0 -10 -2 -20 -6 -28c-41 -97 -142 -161 -255 -161c-122 0 -222 75 -227 187z" />
    <glyph glyph-name="Gcircumflex" unicode="&#x11c;" 
d="M264 -6c-145 0 -241 107 -241 268c0 206 199 447 374 447c54 0 142 -28 201 -64c20 -12 34 -34 34 -60c0 -39 -31 -70 -70 -70c-14 0 -27 4 -38 11c-37 23 -97 43 -127 43c-94 0 -234 -179 -234 -307c0 -85 36 -128 101 -128c61 0 122 53 157 135l-76 -11
c-4 -1 -8 -1 -12 -1c-39 0 -70 31 -70 70c0 35 26 65 60 69c52 8 148 22 225 29h7c39 0 70 -31 70 -70c0 -32 -21 -58 -49 -67c-45 -173 -169 -294 -312 -294zM165 815c0 25 13 47 33 59c73 48 146 92 220 133c10 6 22 9 35 9c16 0 30 -5 42 -14c63 -47 116 -94 157 -141
c10 -12 17 -28 17 -46c0 -39 -31 -70 -70 -70c-21 0 -40 9 -53 24c-27 32 -59 62 -99 93c-58 -32 -115 -67 -173 -105c-11 -8 -25 -12 -39 -12c-39 0 -70 31 -70 70z" />
    <glyph glyph-name="uni0122" unicode="&#x122;" 
d="M264 -6c-145 0 -241 107 -241 268c0 206 199 447 374 447c54 0 142 -28 201 -64c20 -12 34 -34 34 -60c0 -39 -31 -70 -70 -70c-14 0 -27 4 -38 11c-37 23 -97 43 -127 43c-94 0 -234 -179 -234 -307c0 -85 36 -128 101 -128c61 0 122 53 157 135l-76 -11
c-4 -1 -8 -1 -12 -1c-39 0 -70 31 -70 70c0 35 26 65 60 69c52 8 148 22 225 29h7c39 0 70 -31 70 -70c0 -32 -21 -58 -49 -67c-45 -173 -169 -294 -312 -294zM81 -243c0 22 10 42 27 55c33 26 85 82 104 110c13 19 34 32 59 32c39 0 70 -31 70 -70c0 -15 -5 -28 -12 -40
c-26 -38 -91 -107 -134 -141c-12 -10 -27 -16 -44 -16c-39 0 -70 31 -70 70z" />
    <glyph glyph-name="Gdotaccent" unicode="&#x120;" 
d="M264 -6c-145 0 -241 107 -241 268c0 206 199 447 374 447c54 0 142 -28 201 -64c20 -12 34 -34 34 -60c0 -39 -31 -70 -70 -70c-14 0 -27 4 -38 11c-37 23 -97 43 -127 43c-94 0 -234 -179 -234 -307c0 -85 36 -128 101 -128c61 0 122 53 157 135l-76 -11
c-4 -1 -8 -1 -12 -1c-39 0 -70 31 -70 70c0 35 26 65 60 69c52 8 148 22 225 29h7c39 0 70 -31 70 -70c0 -32 -21 -58 -49 -67c-45 -173 -169 -294 -312 -294zM333 842c6 95 33 155 108 155c49 0 87 -39 87 -88c0 -41 -33 -92 -72 -126c-12 -11 -28 -17 -46 -17
c-38 0 -77 35 -77 76z" />
    <glyph glyph-name="H" unicode="H" 
d="M468 -22c-39 0 -70 31 -70 70c0 2 0 5 1 11c8 56 18 126 28 193c-23 1 -48 1 -75 1c-58 0 -119 -2 -167 -6c-19 -77 -42 -151 -67 -209c-11 -26 -36 -44 -65 -44c-39 0 -70 31 -70 70c0 10 2 20 6 29c51 117 102 342 125 550c4 35 34 63 70 63c39 0 70 -31 70 -70
c0 -3 0 -6 -1 -9c-7 -67 -20 -151 -36 -238c42 3 89 4 135 4c35 0 68 -1 97 -2c5 32 10 59 14 78c13 64 42 150 72 210c11 24 35 40 63 40c39 0 70 -31 70 -70c0 -12 -3 -23 -8 -32c-25 -51 -49 -121 -59 -176c-15 -71 -46 -271 -64 -402c-4 -34 -33 -61 -69 -61z" />
    <glyph glyph-name="Hbar" unicode="&#x126;" 
d="M468 -22c-39 0 -70 31 -70 70c0 2 0 5 1 11c8 56 18 126 28 193c-23 1 -48 1 -75 1c-58 0 -119 -2 -167 -6c-19 -77 -42 -151 -67 -209c-11 -26 -36 -44 -65 -44c-39 0 -70 31 -70 70c0 10 2 20 6 29c38 86 75 232 102 385c-30 8 -52 35 -52 68c0 38 30 69 68 70h4l3 27
c4 35 34 63 70 63c39 0 70 -31 70 -70c0 -3 0 -6 -1 -9l-1 -7c72 2 176 6 261 10c7 18 15 34 22 49c11 24 35 40 63 40c39 0 70 -31 70 -70c0 -7 -1 -14 -3 -21c22 -11 36 -34 36 -61c0 -37 -29 -67 -65 -70l-22 -2c-5 -19 -10 -37 -13 -54c-15 -71 -46 -271 -64 -402
c-4 -34 -33 -61 -69 -61zM217 389c42 3 89 4 135 4c35 0 68 -1 97 -2c5 32 10 59 14 78l4 18c-79 -3 -164 -5 -234 -8c-5 -29 -11 -59 -16 -90z" />
    <glyph glyph-name="Hcircumflex" unicode="&#x124;" 
d="M468 -22c-39 0 -70 31 -70 70c0 2 0 5 1 11c8 56 18 126 28 193c-23 1 -48 1 -75 1c-58 0 -119 -2 -167 -6c-19 -77 -42 -151 -67 -209c-11 -26 -36 -44 -65 -44c-39 0 -70 31 -70 70c0 10 2 20 6 29c51 117 102 342 125 550c4 35 34 63 70 63c39 0 70 -31 70 -70
c0 -3 0 -6 -1 -9c-7 -67 -20 -151 -36 -238c42 3 89 4 135 4c35 0 68 -1 97 -2c5 32 10 59 14 78c13 64 42 150 72 210c11 24 35 40 63 40c39 0 70 -31 70 -70c0 -12 -3 -23 -8 -32c-25 -51 -49 -121 -59 -176c-15 -71 -46 -271 -64 -402c-4 -34 -33 -61 -69 -61zM165 815
c0 25 13 47 33 59c73 48 146 92 220 133c10 6 22 9 35 9c16 0 30 -5 42 -14c63 -47 116 -94 157 -141c10 -12 17 -28 17 -46c0 -39 -31 -70 -70 -70c-21 0 -40 9 -53 24c-27 32 -59 62 -99 93c-58 -32 -115 -67 -173 -105c-11 -8 -25 -12 -39 -12c-39 0 -70 31 -70 70z" />
    <glyph glyph-name="I" unicode="I" 
d="M100 -26c-39 0 -70 31 -70 70c0 36 27 66 62 70s77 8 122 11c13 140 39 288 80 452l-67 1c-38 1 -69 32 -69 70c0 39 31 70 70 70c120 -2 233 -6 316 -11c37 -2 66 -33 66 -70c0 -39 -31 -70 -70 -70c-31 2 -66 4 -103 5c-41 -161 -68 -304 -82 -440c27 1 52 2 77 2
c39 0 70 -31 70 -70c0 -38 -31 -70 -69 -70c-111 -1 -241 -9 -333 -20z" />
    <glyph glyph-name="IJ" unicode="&#x132;" 
d="M359 -24c-109 0 -178 80 -178 195c0 51 14 109 38 145c12 20 34 33 59 33c39 0 70 -31 70 -70c0 -14 -4 -28 -12 -39c-8 -14 -15 -42 -15 -69c0 -43 12 -55 38 -55c25 0 62 52 77 128c16 72 31 181 44 319c-30 -2 -58 -4 -77 -7c-3 -1 -7 -1 -10 -1c-39 0 -70 31 -70 70
c0 36 27 65 62 70c59 7 182 15 245 15c39 0 70 -31 70 -70s-31 -70 -70 -70h-8c-15 -153 -31 -274 -48 -354c-29 -138 -108 -240 -215 -240zM7 49v6c14 190 49 382 108 605c7 30 35 53 68 53c39 0 70 -31 70 -70c0 -7 -1 -13 -3 -20c-57 -214 -90 -396 -103 -579
c-3 -36 -33 -65 -70 -65c-39 0 -70 31 -70 70z" />
    <glyph glyph-name="Iacute" unicode="&#xcd;" 
d="M100 -26c-39 0 -70 31 -70 70c0 36 27 66 62 70s77 8 122 11c13 140 39 288 80 452l-67 1c-38 1 -69 32 -69 70c0 39 31 70 70 70c120 -2 233 -6 316 -11c37 -2 66 -33 66 -70c0 -39 -31 -70 -70 -70c-31 2 -66 4 -103 5c-41 -161 -68 -304 -82 -440c27 1 52 2 77 2
c39 0 70 -31 70 -70c0 -38 -31 -70 -69 -70c-111 -1 -241 -9 -333 -20zM250 815c0 25 13 47 33 59l230 150c11 8 25 12 39 12c39 0 70 -31 70 -70c0 -25 -13 -47 -33 -59l-230 -150c-11 -8 -25 -12 -39 -12c-39 0 -70 31 -70 70z" />
    <glyph glyph-name="Ibreve" unicode="&#x12c;" 
d="M100 -26c-39 0 -70 31 -70 70c0 36 27 66 62 70s77 8 122 11c13 140 39 288 80 452l-67 1c-38 1 -69 32 -69 70c0 39 31 70 70 70c120 -2 233 -6 316 -11c37 -2 66 -33 66 -70c0 -39 -31 -70 -70 -70c-31 2 -66 4 -103 5c-41 -161 -68 -304 -82 -440c27 1 52 2 77 2
c39 0 70 -31 70 -70c0 -38 -31 -70 -69 -70c-111 -1 -241 -9 -333 -20zM198 939c0 39 31 70 70 70c37 0 67 -29 70 -65c2 -29 35 -52 87 -52c57 0 107 30 126 74c10 26 35 45 65 45c39 0 70 -31 70 -70c0 -10 -2 -20 -6 -28c-41 -97 -142 -161 -255 -161
c-122 0 -222 75 -227 187z" />
    <glyph glyph-name="Icircumflex" unicode="&#xce;" 
d="M100 -26c-39 0 -70 31 -70 70c0 36 27 66 62 70s77 8 122 11c13 140 39 288 80 452l-67 1c-38 1 -69 32 -69 70c0 39 31 70 70 70c120 -2 233 -6 316 -11c37 -2 66 -33 66 -70c0 -39 -31 -70 -70 -70c-31 2 -66 4 -103 5c-41 -161 -68 -304 -82 -440c27 1 52 2 77 2
c39 0 70 -31 70 -70c0 -38 -31 -70 -69 -70c-111 -1 -241 -9 -333 -20zM165 815c0 25 13 47 33 59c73 48 146 92 220 133c10 6 22 9 35 9c16 0 30 -5 42 -14c63 -47 116 -94 157 -141c10 -12 17 -28 17 -46c0 -39 -31 -70 -70 -70c-21 0 -40 9 -53 24c-27 32 -59 62 -99 93
c-58 -32 -115 -67 -173 -105c-11 -8 -25 -12 -39 -12c-39 0 -70 31 -70 70z" />
    <glyph glyph-name="Idieresis" unicode="&#xcf;" 
d="M100 -26c-39 0 -70 31 -70 70c0 36 27 66 62 70s77 8 122 11c13 140 39 288 80 452l-67 1c-38 1 -69 32 -69 70c0 39 31 70 70 70c120 -2 233 -6 316 -11c37 -2 66 -33 66 -70c0 -39 -31 -70 -70 -70c-31 2 -66 4 -103 5c-41 -161 -68 -304 -82 -440c27 1 52 2 77 2
c39 0 70 -31 70 -70c0 -38 -31 -70 -69 -70c-111 -1 -241 -9 -333 -20zM253 821c0 43 5 74 18 101c11 25 35 42 64 42c39 0 70 -31 70 -70c0 -11 -3 -22 -7 -31c-4 -8 -5 -15 -5 -42c0 -39 -31 -70 -70 -70s-70 31 -70 70zM448 832c0 11 2 21 7 30c1 2 4 20 10 54
c4 34 34 60 69 60c39 0 70 -31 70 -70c0 -4 0 -8 -1 -12c-6 -36 -12 -69 -20 -87c-10 -26 -35 -45 -65 -45c-39 0 -70 31 -70 70z" />
    <glyph glyph-name="Idotaccent" unicode="&#x130;" 
d="M100 -26c-39 0 -70 31 -70 70c0 36 27 66 62 70s77 8 122 11c13 140 39 288 80 452l-67 1c-38 1 -69 32 -69 70c0 39 31 70 70 70c120 -2 233 -6 316 -11c37 -2 66 -33 66 -70c0 -39 -31 -70 -70 -70c-31 2 -66 4 -103 5c-41 -161 -68 -304 -82 -440c27 1 52 2 77 2
c39 0 70 -31 70 -70c0 -38 -31 -70 -69 -70c-111 -1 -241 -9 -333 -20zM333 842c6 95 33 155 108 155c49 0 87 -39 87 -88c0 -41 -33 -92 -72 -126c-12 -11 -28 -17 -46 -17c-38 0 -77 35 -77 76z" />
    <glyph glyph-name="Igrave" unicode="&#xcc;" 
d="M100 -26c-39 0 -70 31 -70 70c0 36 27 66 62 70s77 8 122 11c13 140 39 288 80 452l-67 1c-38 1 -69 32 -69 70c0 39 31 70 70 70c120 -2 233 -6 316 -11c37 -2 66 -33 66 -70c0 -39 -31 -70 -70 -70c-31 2 -66 4 -103 5c-41 -161 -68 -304 -82 -440c27 1 52 2 77 2
c39 0 70 -31 70 -70c0 -38 -31 -70 -69 -70c-111 -1 -241 -9 -333 -20zM272 946c0 39 31 70 70 70c18 0 34 -7 46 -17l172 -151c15 -13 24 -32 24 -53c0 -39 -31 -70 -70 -70c-18 0 -34 7 -46 17l-172 151c-15 13 -24 32 -24 53z" />
    <glyph glyph-name="Imacron" unicode="&#x12a;" 
d="M100 -26c-39 0 -70 31 -70 70c0 36 27 66 62 70s77 8 122 11c13 140 39 288 80 452l-67 1c-38 1 -69 32 -69 70c0 39 31 70 70 70c120 -2 233 -6 316 -11c37 -2 66 -33 66 -70c0 -39 -31 -70 -70 -70c-31 2 -66 4 -103 5c-41 -161 -68 -304 -82 -440c27 1 52 2 77 2
c39 0 70 -31 70 -70c0 -38 -31 -70 -69 -70c-111 -1 -241 -9 -333 -20zM162 831c0 36 27 65 62 69c112 16 298 23 388 23c39 0 70 -31 70 -70s-31 -70 -70 -70c-87 0 -264 -7 -369 -21c-4 -1 -7 -1 -11 -1c-39 0 -70 31 -70 70z" />
    <glyph glyph-name="Iogonek" unicode="&#x12e;" 
d="M100 -26c-39 0 -70 31 -70 70c0 36 27 66 62 70s77 8 122 11c13 140 39 288 80 452l-67 1c-38 1 -69 32 -69 70c0 39 31 70 70 70c120 -2 233 -6 316 -11c37 -2 66 -33 66 -70c0 -39 -31 -70 -70 -70c-31 2 -66 4 -103 5c-41 -161 -68 -304 -82 -440c27 1 52 2 77 2
c39 0 70 -31 70 -70c0 -38 -31 -70 -69 -70c-30 0 -62 -1 -94 -2c-52 -20 -102 -51 -102 -63c0 -4 2 -6 5 -6c17 0 44 12 67 29c12 9 26 14 42 14c39 0 70 -31 70 -70c0 -23 -11 -44 -29 -57c-46 -34 -109 -56 -159 -56c-76 0 -136 48 -136 115c0 28 12 54 33 79z" />
    <glyph glyph-name="Itilde" unicode="&#x128;" 
d="M100 -26c-39 0 -70 31 -70 70c0 36 27 66 62 70s77 8 122 11c13 140 39 288 80 452l-67 1c-38 1 -69 32 -69 70c0 39 31 70 70 70c120 -2 233 -6 316 -11c37 -2 66 -33 66 -70c0 -39 -31 -70 -70 -70c-31 2 -66 4 -103 5c-41 -161 -68 -304 -82 -440c27 1 52 2 77 2
c39 0 70 -31 70 -70c0 -38 -31 -70 -69 -70c-111 -1 -241 -9 -333 -20zM134 814c0 10 2 19 5 27c37 93 120 160 209 160c62 0 101 -26 143 -82c21 -26 23 -27 33 -27c22 0 50 27 64 70c9 28 36 49 67 49c39 0 70 -31 70 -70c0 -8 -1 -16 -4 -24c-33 -97 -109 -165 -197 -165
c-62 0 -101 26 -143 82c-21 26 -23 27 -33 27c-28 0 -62 -29 -78 -71c-10 -27 -36 -46 -66 -46c-39 0 -70 31 -70 70z" />
    <glyph glyph-name="J" unicode="J" 
d="M291 -64c-139 0 -271 116 -271 242c0 50 21 102 58 134c12 10 28 17 46 17c39 0 70 -31 70 -70c0 -21 -9 -40 -24 -53c-6 -5 -10 -15 -10 -28c0 -46 69 -102 131 -102c10 0 42 55 57 128c17 82 35 206 51 359c-52 -2 -99 -5 -138 -9c-39 0 -70 31 -70 70
c0 37 28 67 64 70c89 8 220 14 351 17c39 0 70 -31 70 -70c0 -38 -31 -69 -69 -70l-66 -2c-17 -166 -36 -303 -55 -393c-29 -139 -96 -240 -195 -240z" />
    <glyph glyph-name="Jcircumflex" unicode="&#x134;" 
d="M291 -64c-139 0 -271 116 -271 242c0 50 21 102 58 134c12 10 28 17 46 17c39 0 70 -31 70 -70c0 -21 -9 -40 -24 -53c-6 -5 -10 -15 -10 -28c0 -46 69 -102 131 -102c10 0 42 55 57 128c17 82 35 206 51 359c-52 -2 -99 -5 -138 -9c-39 0 -70 31 -70 70
c0 37 28 67 64 70c89 8 220 14 351 17c39 0 70 -31 70 -70c0 -38 -31 -69 -69 -70l-66 -2c-17 -166 -36 -303 -55 -393c-29 -139 -96 -240 -195 -240zM165 815c0 25 13 47 33 59c73 48 146 92 220 133c10 6 22 9 35 9c16 0 30 -5 42 -14c63 -47 116 -94 157 -141
c10 -12 17 -28 17 -46c0 -39 -31 -70 -70 -70c-21 0 -40 9 -53 24c-27 32 -59 62 -99 93c-58 -32 -115 -67 -173 -105c-11 -8 -25 -12 -39 -12c-39 0 -70 31 -70 70z" />
    <glyph glyph-name="K" unicode="K" 
d="M103 -16c-39 0 -70 31 -70 70c0 3 0 6 1 9c20 178 70 398 135 606c8 30 35 51 67 51c39 0 70 -31 70 -70c0 -8 -1 -15 -4 -23c-19 -60 -37 -122 -52 -183c110 69 208 149 290 236c13 13 31 22 51 22c39 0 70 -31 70 -70c0 -19 -7 -35 -19 -48
c-82 -88 -182 -170 -292 -242c61 -91 136 -190 189 -249c11 -13 18 -29 18 -47c0 -39 -31 -70 -70 -70c-21 0 -40 9 -52 24c-64 71 -145 181 -205 271l-23 -13c-15 -74 -27 -146 -34 -211c-4 -36 -34 -63 -70 -63z" />
    <glyph glyph-name="uni0136" unicode="&#x136;" 
d="M103 -16c-39 0 -70 31 -70 70c0 3 0 6 1 9c20 178 70 398 135 606c8 30 35 51 67 51c39 0 70 -31 70 -70c0 -8 -1 -15 -4 -23c-19 -60 -37 -122 -52 -183c110 69 208 149 290 236c13 13 31 22 51 22c39 0 70 -31 70 -70c0 -19 -7 -35 -19 -48
c-82 -88 -182 -170 -292 -242c61 -91 136 -190 189 -249c11 -13 18 -29 18 -47c0 -39 -31 -70 -70 -70c-21 0 -40 9 -52 24c-64 71 -145 181 -205 271l-23 -13c-15 -74 -27 -146 -34 -211c-4 -36 -34 -63 -70 -63zM81 -243c0 22 10 42 27 55c33 26 85 82 104 110
c13 19 34 32 59 32c39 0 70 -31 70 -70c0 -15 -5 -28 -12 -40c-26 -38 -91 -107 -134 -141c-12 -10 -27 -16 -44 -16c-39 0 -70 31 -70 70z" />
    <glyph glyph-name="L" unicode="L" 
d="M113 -6c-39 0 -70 31 -70 70c0 6 1 12 2 18c33 134 88 422 109 566c4 34 33 61 69 61c39 0 70 -31 70 -70c0 -4 0 -7 -1 -11c-17 -122 -58 -341 -91 -492c99 4 193 16 279 34c5 1 10 2 16 2c39 0 70 -31 70 -70c0 -34 -24 -62 -57 -69c-119 -25 -256 -39 -396 -39z" />
    <glyph glyph-name="Lacute" unicode="&#x139;" 
d="M113 -6c-39 0 -70 31 -70 70c0 6 1 12 2 18c33 134 88 422 109 566c4 34 33 61 69 61c39 0 70 -31 70 -70c0 -4 0 -7 -1 -11c-17 -122 -58 -341 -91 -492c99 4 193 16 279 34c5 1 10 2 16 2c39 0 70 -31 70 -70c0 -34 -24 -62 -57 -69c-119 -25 -256 -39 -396 -39z
M250 815c0 25 13 47 33 59l230 150c11 8 25 12 39 12c39 0 70 -31 70 -70c0 -25 -13 -47 -33 -59l-230 -150c-11 -8 -25 -12 -39 -12c-39 0 -70 31 -70 70z" />
    <glyph glyph-name="Lcaron" unicode="&#x13d;" 
d="M113 -6c-39 0 -70 31 -70 70c0 6 1 12 2 18c33 134 88 422 109 566c4 34 33 61 69 61c39 0 70 -31 70 -70c0 -4 0 -7 -1 -11c-17 -122 -58 -341 -91 -492c99 4 193 16 279 34c5 1 10 2 16 2c39 0 70 -31 70 -70c0 -34 -24 -62 -57 -69c-119 -25 -256 -39 -396 -39z
M364 452c0 17 6 33 17 45c41 50 67 106 67 143c0 11 -1 14 -3 17c-9 12 -14 26 -14 42c0 39 31 70 70 70c24 0 45 -12 57 -30c20 -27 30 -63 30 -99c0 -71 -38 -158 -100 -232c-13 -16 -32 -26 -54 -26c-39 0 -70 31 -70 70z" />
    <glyph glyph-name="uni013B" unicode="&#x13b;" 
d="M113 -6c-39 0 -70 31 -70 70c0 6 1 12 2 18c33 134 88 422 109 566c4 34 33 61 69 61c39 0 70 -31 70 -70c0 -4 0 -7 -1 -11c-17 -122 -58 -341 -91 -492c99 4 193 16 279 34c5 1 10 2 16 2c39 0 70 -31 70 -70c0 -34 -24 -62 -57 -69c-119 -25 -256 -39 -396 -39z
M81 -243c0 22 10 42 27 55c33 26 85 82 104 110c13 19 34 32 59 32c39 0 70 -31 70 -70c0 -15 -5 -28 -12 -40c-26 -38 -91 -107 -134 -141c-12 -10 -27 -16 -44 -16c-39 0 -70 31 -70 70z" />
    <glyph glyph-name="Ldot" unicode="&#x13f;" 
d="M113 -6c-39 0 -70 31 -70 70c0 6 1 12 2 18c33 134 88 422 109 566c4 34 33 61 69 61c39 0 70 -31 70 -70c0 -4 0 -7 -1 -11c-17 -122 -58 -341 -91 -492c99 4 193 16 279 34c5 1 10 2 16 2c39 0 70 -31 70 -70c0 -34 -24 -62 -57 -69c-119 -25 -256 -39 -396 -39z
M302 392c0 76 61 137 136 137c69 0 127 -48 127 -115c0 -61 -45 -108 -107 -133c-8 -3 -17 -5 -27 -5c-78 0 -129 37 -129 116z" />
    <glyph glyph-name="Lslash" unicode="&#x141;" 
d="M113 -6c-39 0 -70 31 -70 70c0 6 1 12 2 18c9 36 19 82 30 134l-33 -17c-10 -6 -22 -9 -34 -9c-39 0 -70 31 -70 70c0 27 16 51 39 63c37 20 83 42 132 67c19 97 35 192 45 258c4 34 33 61 69 61c39 0 70 -31 70 -70c0 -4 0 -7 -1 -11c-6 -45 -16 -102 -27 -165
c58 26 117 52 170 73c9 4 18 6 28 6c39 0 70 -31 70 -70c0 -30 -19 -56 -45 -65c-80 -32 -170 -73 -254 -113c-11 -56 -23 -110 -33 -158c99 4 193 16 279 34c5 1 10 2 16 2c39 0 70 -31 70 -70c0 -34 -24 -62 -57 -69c-119 -25 -256 -39 -396 -39z" />
    <glyph glyph-name="M" unicode="M" 
d="M26 -16c-39 0 -70 31 -70 70c0 6 1 12 2 18c22 89 47 184 71 275c29 111 57 217 76 303c7 32 35 56 69 56c33 0 60 -22 68 -53c10 -36 62 -210 75 -254c18 29 153 237 182 283c12 21 34 35 60 35c39 0 70 -31 70 -70c0 -5 -3 -43 -10 -116c-14 -166 -29 -342 -45 -474
c-4 -35 -34 -62 -70 -62c-39 0 -70 31 -70 70c15 126 28 280 34 341c-46 -71 -89 -139 -114 -181c-12 -21 -35 -35 -61 -35c-35 0 -64 26 -69 60c-7 42 -20 94 -36 150l-24 -88c-24 -92 -48 -185 -70 -273c-7 -32 -35 -55 -68 -55z" />
    <glyph glyph-name="N" unicode="N" 
d="M56 -23c-39 0 -70 31 -70 70c0 6 1 13 3 19c28 115 100 443 124 589c5 34 34 60 69 60c31 0 58 -21 67 -49c45 -135 115 -294 184 -425c34 153 65 320 77 420c4 36 34 63 70 63c39 0 70 -31 70 -70c0 -3 0 -6 -1 -9c-17 -147 -72 -418 -121 -605c-7 -31 -35 -54 -68 -54
c-25 0 -47 13 -59 32c-62 95 -134 234 -196 375c-29 -141 -63 -291 -81 -362c-7 -31 -35 -54 -68 -54z" />
    <glyph glyph-name="Nacute" unicode="&#x143;" 
d="M56 -23c-39 0 -70 31 -70 70c0 6 1 13 3 19c28 115 100 443 124 589c5 34 34 60 69 60c31 0 58 -21 67 -49c45 -135 115 -294 184 -425c34 153 65 320 77 420c4 36 34 63 70 63c39 0 70 -31 70 -70c0 -3 0 -6 -1 -9c-17 -147 -72 -418 -121 -605c-7 -31 -35 -54 -68 -54
c-25 0 -47 13 -59 32c-62 95 -134 234 -196 375c-29 -141 -63 -291 -81 -362c-7 -31 -35 -54 -68 -54zM250 815c0 25 13 47 33 59l230 150c11 8 25 12 39 12c39 0 70 -31 70 -70c0 -25 -13 -47 -33 -59l-230 -150c-11 -8 -25 -12 -39 -12c-39 0 -70 31 -70 70z" />
    <glyph glyph-name="Ncaron" unicode="&#x147;" 
d="M56 -23c-39 0 -70 31 -70 70c0 6 1 13 3 19c28 115 100 443 124 589c5 34 34 60 69 60c31 0 58 -21 67 -49c45 -135 115 -294 184 -425c34 153 65 320 77 420c4 36 34 63 70 63c39 0 70 -31 70 -70c0 -3 0 -6 -1 -9c-17 -147 -72 -418 -121 -605c-7 -31 -35 -54 -68 -54
c-25 0 -47 13 -59 32c-62 95 -134 234 -196 375c-29 -141 -63 -291 -81 -362c-7 -31 -35 -54 -68 -54zM191 946c0 39 31 70 70 70c21 0 40 -9 53 -24c27 -32 59 -62 99 -93c58 32 115 67 173 105c11 8 25 12 39 12c39 0 70 -31 70 -70c0 -25 -13 -47 -33 -59
c-73 -48 -146 -92 -220 -133c-10 -6 -22 -9 -35 -9c-16 0 -30 5 -42 14c-63 47 -116 94 -157 141c-10 12 -17 28 -17 46z" />
    <glyph glyph-name="uni0145" unicode="&#x145;" 
d="M56 -23c-39 0 -70 31 -70 70c0 6 1 13 3 19c28 115 100 443 124 589c5 34 34 60 69 60c31 0 58 -21 67 -49c45 -135 115 -294 184 -425c34 153 65 320 77 420c4 36 34 63 70 63c39 0 70 -31 70 -70c0 -3 0 -6 -1 -9c-17 -147 -72 -418 -121 -605c-7 -31 -35 -54 -68 -54
c-25 0 -47 13 -59 32c-62 95 -134 234 -196 375c-29 -141 -63 -291 -81 -362c-7 -31 -35 -54 -68 -54zM81 -243c0 22 10 42 27 55c33 26 85 82 104 110c13 19 34 32 59 32c39 0 70 -31 70 -70c0 -15 -5 -28 -12 -40c-26 -38 -91 -107 -134 -141c-12 -10 -27 -16 -44 -16
c-39 0 -70 31 -70 70z" />
    <glyph glyph-name="Ntilde" unicode="&#xd1;" 
d="M56 -23c-39 0 -70 31 -70 70c0 6 1 13 3 19c28 115 100 443 124 589c5 34 34 60 69 60c31 0 58 -21 67 -49c45 -135 115 -294 184 -425c34 153 65 320 77 420c4 36 34 63 70 63c39 0 70 -31 70 -70c0 -3 0 -6 -1 -9c-17 -147 -72 -418 -121 -605c-7 -31 -35 -54 -68 -54
c-25 0 -47 13 -59 32c-62 95 -134 234 -196 375c-29 -141 -63 -291 -81 -362c-7 -31 -35 -54 -68 -54zM134 814c0 10 2 19 5 27c37 93 120 160 209 160c62 0 101 -26 143 -82c21 -26 23 -27 33 -27c22 0 50 27 64 70c9 28 36 49 67 49c39 0 70 -31 70 -70
c0 -8 -1 -16 -4 -24c-33 -97 -109 -165 -197 -165c-62 0 -101 26 -143 82c-21 26 -23 27 -33 27c-28 0 -62 -29 -78 -71c-10 -27 -36 -46 -66 -46c-39 0 -70 31 -70 70z" />
    <glyph glyph-name="Eng" unicode="&#x14a;" 
d="M285 -252c-62 0 -122 21 -163 59c-15 12 -24 31 -24 52c0 39 31 70 70 70c18 0 35 -7 47 -18c16 -15 41 -23 70 -23c40 0 68 35 100 155c-58 94 -123 221 -180 350c-29 -141 -63 -291 -81 -362c-7 -31 -35 -54 -68 -54c-39 0 -70 31 -70 70c0 6 1 13 3 19
c28 115 100 443 124 589c5 34 34 60 69 60c31 0 58 -21 67 -49c45 -135 115 -295 184 -425c35 156 66 321 77 420c4 36 34 63 70 63c39 0 70 -31 70 -70c0 -3 0 -6 -1 -9c-17 -147 -73 -425 -124 -623c-48 -181 -113 -274 -240 -274z" />
    <glyph glyph-name="O" unicode="O" 
d="M244 -10c-138 0 -224 97 -224 252c0 218 193 469 367 469c147 0 237 -101 237 -261c0 -226 -191 -460 -380 -460zM160 242c0 -80 27 -112 84 -112c108 0 240 172 240 320c0 85 -31 121 -97 121c-91 0 -227 -191 -227 -329z" />
    <glyph glyph-name="Oacute" unicode="&#xd3;" 
d="M244 -10c-138 0 -224 97 -224 252c0 218 193 469 367 469c147 0 237 -101 237 -261c0 -226 -191 -460 -380 -460zM160 242c0 -80 27 -112 84 -112c108 0 240 172 240 320c0 85 -31 121 -97 121c-91 0 -227 -191 -227 -329zM250 815c0 25 13 47 33 59l230 150
c11 8 25 12 39 12c39 0 70 -31 70 -70c0 -25 -13 -47 -33 -59l-230 -150c-11 -8 -25 -12 -39 -12c-39 0 -70 31 -70 70z" />
    <glyph glyph-name="Obreve" unicode="&#x14e;" 
d="M244 -10c-138 0 -224 97 -224 252c0 218 193 469 367 469c147 0 237 -101 237 -261c0 -226 -191 -460 -380 -460zM160 242c0 -80 27 -112 84 -112c108 0 240 172 240 320c0 85 -31 121 -97 121c-91 0 -227 -191 -227 -329zM198 939c0 39 31 70 70 70c37 0 67 -29 70 -65
c2 -29 35 -52 87 -52c57 0 107 30 126 74c10 26 35 45 65 45c39 0 70 -31 70 -70c0 -10 -2 -20 -6 -28c-41 -97 -142 -161 -255 -161c-122 0 -222 75 -227 187z" />
    <glyph glyph-name="Ocircumflex" unicode="&#xd4;" 
d="M244 -10c-138 0 -224 97 -224 252c0 218 193 469 367 469c147 0 237 -101 237 -261c0 -226 -191 -460 -380 -460zM160 242c0 -80 27 -112 84 -112c108 0 240 172 240 320c0 85 -31 121 -97 121c-91 0 -227 -191 -227 -329zM165 815c0 25 13 47 33 59
c73 48 146 92 220 133c10 6 22 9 35 9c16 0 30 -5 42 -14c63 -47 116 -94 157 -141c10 -12 17 -28 17 -46c0 -39 -31 -70 -70 -70c-21 0 -40 9 -53 24c-27 32 -59 62 -99 93c-58 -32 -115 -67 -173 -105c-11 -8 -25 -12 -39 -12c-39 0 -70 31 -70 70z" />
    <glyph glyph-name="Odieresis" unicode="&#xd6;" 
d="M244 -10c-138 0 -224 97 -224 252c0 218 193 469 367 469c147 0 237 -101 237 -261c0 -226 -191 -460 -380 -460zM160 242c0 -80 27 -112 84 -112c108 0 240 172 240 320c0 85 -31 121 -97 121c-91 0 -227 -191 -227 -329zM253 821c0 43 5 74 18 101c11 25 35 42 64 42
c39 0 70 -31 70 -70c0 -11 -3 -22 -7 -31c-4 -8 -5 -15 -5 -42c0 -39 -31 -70 -70 -70s-70 31 -70 70zM448 832c0 11 2 21 7 30c1 2 4 20 10 54c4 34 34 60 69 60c39 0 70 -31 70 -70c0 -4 0 -8 -1 -12c-6 -36 -12 -69 -20 -87c-10 -26 -35 -45 -65 -45c-39 0 -70 31 -70 70
z" />
    <glyph glyph-name="Ograve" unicode="&#xd2;" 
d="M244 -10c-138 0 -224 97 -224 252c0 218 193 469 367 469c147 0 237 -101 237 -261c0 -226 -191 -460 -380 -460zM160 242c0 -80 27 -112 84 -112c108 0 240 172 240 320c0 85 -31 121 -97 121c-91 0 -227 -191 -227 -329zM272 946c0 39 31 70 70 70c18 0 34 -7 46 -17
l172 -151c15 -13 24 -32 24 -53c0 -39 -31 -70 -70 -70c-18 0 -34 7 -46 17l-172 151c-15 13 -24 32 -24 53z" />
    <glyph glyph-name="Ohungarumlaut" unicode="&#x150;" 
d="M244 -10c-138 0 -224 97 -224 252c0 218 193 469 367 469c147 0 237 -101 237 -261c0 -226 -191 -460 -380 -460zM160 242c0 -80 27 -112 84 -112c108 0 240 172 240 320c0 85 -31 121 -97 121c-91 0 -227 -191 -227 -329zM191 815c0 20 8 38 22 51
c60 56 118 108 176 154c12 10 27 16 44 16c39 0 70 -31 70 -70c0 -22 -10 -42 -27 -55c-54 -44 -109 -92 -167 -147c-12 -12 -29 -19 -48 -19c-39 0 -70 31 -70 70zM431 815c0 20 8 38 22 51c60 56 118 108 176 154c12 10 27 16 44 16c39 0 70 -31 70 -70
c0 -22 -10 -42 -27 -55c-54 -44 -109 -92 -167 -147c-12 -12 -29 -19 -48 -19c-39 0 -70 31 -70 70z" />
    <glyph glyph-name="Omacron" unicode="&#x14c;" 
d="M244 -10c-138 0 -224 97 -224 252c0 218 193 469 367 469c147 0 237 -101 237 -261c0 -226 -191 -460 -380 -460zM160 242c0 -80 27 -112 84 -112c108 0 240 172 240 320c0 85 -31 121 -97 121c-91 0 -227 -191 -227 -329zM162 831c0 36 27 65 62 69
c112 16 298 23 388 23c39 0 70 -31 70 -70s-31 -70 -70 -70c-87 0 -264 -7 -369 -21c-4 -1 -7 -1 -11 -1c-39 0 -70 31 -70 70z" />
    <glyph glyph-name="Oslash" unicode="&#xd8;" 
d="M244 -10c-47 0 -88 11 -121 32l-64 -78c-13 -17 -33 -27 -55 -27c-39 0 -70 31 -70 70c0 17 6 32 16 44c26 33 55 68 86 105c-10 31 -16 67 -16 106c0 218 193 469 367 469c51 0 96 -12 132 -35c30 32 58 60 83 84c13 12 30 20 49 20c39 0 70 -31 70 -70
c0 -20 -8 -37 -21 -50c-28 -27 -60 -59 -94 -96c12 -33 18 -71 18 -114c0 -226 -191 -460 -380 -460zM160 251c92 105 190 214 279 309c-14 8 -31 11 -52 11c-89 0 -221 -183 -227 -320zM198 141c12 -8 28 -11 46 -11c108 0 240 172 240 320v13
c-93 -102 -195 -216 -286 -322z" />
    <glyph glyph-name="Oslashacute" unicode="&#x1fe;" 
d="M244 -10c-47 0 -88 11 -121 32l-64 -78c-13 -17 -33 -27 -55 -27c-39 0 -70 31 -70 70c0 17 6 32 16 44c26 33 55 68 86 105c-10 31 -16 67 -16 106c0 218 193 469 367 469c51 0 96 -12 132 -35c30 32 58 60 83 84c13 12 30 20 49 20c39 0 70 -31 70 -70
c0 -20 -8 -37 -21 -50c-28 -27 -60 -59 -94 -96c12 -33 18 -71 18 -114c0 -226 -191 -460 -380 -460zM160 251c92 105 190 214 279 309c-14 8 -31 11 -52 11c-89 0 -221 -183 -227 -320zM198 141c12 -8 28 -11 46 -11c108 0 240 172 240 320v13
c-93 -102 -195 -216 -286 -322zM250 815c0 25 13 47 33 59l230 150c11 8 25 12 39 12c39 0 70 -31 70 -70c0 -25 -13 -47 -33 -59l-230 -150c-11 -8 -25 -12 -39 -12c-39 0 -70 31 -70 70z" />
    <glyph glyph-name="Otilde" unicode="&#xd5;" 
d="M244 -10c-138 0 -224 97 -224 252c0 218 193 469 367 469c147 0 237 -101 237 -261c0 -226 -191 -460 -380 -460zM134 814c0 10 2 19 5 27c37 93 120 160 209 160c62 0 101 -26 143 -82c21 -26 23 -27 33 -27c22 0 50 27 64 70c9 28 36 49 67 49c39 0 70 -31 70 -70
c0 -8 -1 -16 -4 -24c-33 -97 -109 -165 -197 -165c-62 0 -101 26 -143 82c-21 26 -23 27 -33 27c-28 0 -62 -29 -78 -71c-10 -27 -36 -46 -66 -46c-39 0 -70 31 -70 70zM160 242c0 -80 27 -112 84 -112c108 0 240 172 240 320c0 85 -31 121 -97 121
c-91 0 -227 -191 -227 -329z" />
    <glyph glyph-name="OE" unicode="&#x152;" 
d="M266 -21c-161 0 -256 96 -256 258c0 281 165 475 408 475c63 0 149 -7 208 -17c34 -5 60 -34 60 -69c0 -39 -31 -70 -70 -70c-4 0 -9 0 -13 1c-31 5 -71 10 -110 12c-11 -40 -23 -86 -35 -134c28 2 54 5 77 8c3 1 7 1 11 1c39 0 70 -31 70 -70c0 -36 -27 -65 -61 -69
c-38 -6 -85 -10 -132 -12c-14 -59 -27 -116 -38 -165c33 5 69 11 108 19c5 1 11 2 16 2c39 0 70 -31 70 -70c0 -34 -24 -63 -57 -69c-100 -21 -183 -31 -256 -31zM150 237c0 -76 26 -110 90 -117c15 71 37 165 60 258v2c16 63 32 127 46 183c-121 -34 -196 -153 -196 -326z
" />
    <glyph glyph-name="P" unicode="P" 
d="M104 -16c-39 0 -70 31 -70 70c0 16 13 77 22 132c23 130 54 310 88 463c6 27 27 49 54 54c35 9 73 13 111 13c169 0 304 -113 304 -259c0 -150 -173 -264 -389 -264c-8 0 -16 0 -25 1c-13 -80 -20 -121 -26 -152c-5 -33 -34 -58 -69 -58zM224 333c135 0 249 62 249 124
c0 65 -70 119 -164 119c-13 0 -26 -1 -38 -2c-17 -78 -33 -162 -47 -241z" />
    <glyph glyph-name="Thorn" unicode="&#xde;" 
d="M219 113c-11 0 -23 0 -34 1c-5 -30 -10 -57 -14 -79c-5 -33 -34 -58 -69 -58c-39 0 -70 31 -70 70c0 5 0 10 1 14c6 30 13 69 21 114c24 137 56 328 93 491c7 32 35 56 69 56c39 0 70 -31 70 -70c0 -6 -1 -12 -2 -17l-9 -39h20c165 0 301 -91 301 -223
c0 -150 -166 -260 -377 -260zM209 253h10c131 0 237 58 237 120c0 42 -70 83 -161 83c-18 0 -34 -1 -49 -3c-13 -69 -26 -137 -37 -200z" />
    <glyph glyph-name="Q" unicode="Q" 
d="M256 -18c-144 0 -228 104 -228 277c0 245 169 462 365 462c138 0 228 -117 228 -289c0 -123 -69 -260 -161 -349c32 -53 64 -97 94 -125c13 -13 22 -31 22 -51c0 -39 -31 -70 -70 -70c-19 0 -36 7 -48 19c-37 34 -76 86 -112 146c-30 -13 -60 -20 -90 -20zM168 259
c0 -100 29 -137 88 -137c8 0 15 1 24 4c-20 40 -37 83 -52 125c-3 8 -5 16 -5 25c0 39 31 70 70 70c31 0 57 -20 66 -48c10 -28 21 -55 33 -82c50 63 89 147 89 216c0 96 -35 149 -88 149c-114 0 -225 -154 -225 -322z" />
    <glyph glyph-name="R" unicode="R" 
d="M488 -33c-18 0 -35 7 -47 18c-78 71 -180 145 -282 204c-14 -60 -26 -111 -32 -149c-5 -34 -34 -60 -69 -60c-39 0 -70 31 -70 70c0 4 0 9 1 13c21 125 90 383 160 600c8 29 35 50 67 50h6c239 -20 387 -97 387 -251c0 -118 -90 -197 -252 -234c65 -44 127 -93 178 -139
c14 -13 23 -31 23 -52c0 -39 -31 -70 -70 -70zM201 348c172 11 268 56 268 114c0 50 -66 88 -203 106c-23 -73 -45 -148 -65 -220z" />
    <glyph glyph-name="Racute" unicode="&#x154;" 
d="M488 -33c-18 0 -35 7 -47 18c-78 71 -180 145 -282 204c-14 -60 -26 -111 -32 -149c-5 -34 -34 -60 -69 -60c-39 0 -70 31 -70 70c0 4 0 9 1 13c21 125 90 383 160 600c8 29 35 50 67 50h6c239 -20 387 -97 387 -251c0 -118 -90 -197 -252 -234c65 -44 127 -93 178 -139
c14 -13 23 -31 23 -52c0 -39 -31 -70 -70 -70zM201 348c172 11 268 56 268 114c0 50 -66 88 -203 106c-23 -73 -45 -148 -65 -220zM250 815c0 25 13 47 33 59l230 150c11 8 25 12 39 12c39 0 70 -31 70 -70c0 -25 -13 -47 -33 -59l-230 -150c-11 -8 -25 -12 -39 -12
c-39 0 -70 31 -70 70z" />
    <glyph glyph-name="Rcaron" unicode="&#x158;" 
d="M488 -33c-18 0 -35 7 -47 18c-78 71 -180 145 -282 204c-14 -60 -26 -111 -32 -149c-5 -34 -34 -60 -69 -60c-39 0 -70 31 -70 70c0 4 0 9 1 13c21 125 90 383 160 600c8 29 35 50 67 50h6c239 -20 387 -97 387 -251c0 -118 -90 -197 -252 -234c65 -44 127 -93 178 -139
c14 -13 23 -31 23 -52c0 -39 -31 -70 -70 -70zM191 946c0 39 31 70 70 70c21 0 40 -9 53 -24c27 -32 59 -62 99 -93c58 32 115 67 173 105c11 8 25 12 39 12c39 0 70 -31 70 -70c0 -25 -13 -47 -33 -59c-73 -48 -146 -92 -220 -133c-10 -6 -22 -9 -35 -9c-16 0 -30 5 -42 14
c-63 47 -116 94 -157 141c-10 12 -17 28 -17 46zM201 348c172 11 268 56 268 114c0 50 -66 88 -203 106c-23 -73 -45 -148 -65 -220z" />
    <glyph glyph-name="uni0156" unicode="&#x156;" 
d="M488 -33c-18 0 -35 7 -47 18c-78 71 -180 145 -282 204c-14 -60 -26 -111 -32 -149c-5 -34 -34 -60 -69 -60c-39 0 -70 31 -70 70c0 4 0 9 1 13c21 125 90 383 160 600c8 29 35 50 67 50h6c239 -20 387 -97 387 -251c0 -118 -90 -197 -252 -234c65 -44 127 -93 178 -139
c14 -13 23 -31 23 -52c0 -39 -31 -70 -70 -70zM81 -243c0 22 10 42 27 55c33 26 85 82 104 110c13 19 34 32 59 32c39 0 70 -31 70 -70c0 -15 -5 -28 -12 -40c-26 -38 -91 -107 -134 -141c-12 -10 -27 -16 -44 -16c-39 0 -70 31 -70 70zM201 348c172 11 268 56 268 114
c0 50 -66 88 -203 106c-23 -73 -45 -148 -65 -220z" />
    <glyph glyph-name="S" unicode="S" 
d="M258 -17c-115 0 -193 30 -255 99c-11 13 -18 29 -18 47c0 39 31 70 70 70c21 0 40 -9 52 -24c35 -38 73 -52 151 -52c104 0 177 49 177 109c0 31 -24 50 -136 65c-124 17 -196 81 -196 190c0 128 131 219 289 219c75 0 141 -16 199 -48c22 -12 37 -35 37 -62
c0 -39 -31 -70 -70 -70c-13 0 -25 3 -35 10c-39 21 -76 30 -131 30c-84 0 -149 -39 -149 -79c0 -29 13 -43 75 -52c167 -22 257 -80 257 -203c0 -144 -136 -249 -317 -249z" />
    <glyph glyph-name="Sacute" unicode="&#x15a;" 
d="M258 -17c-115 0 -193 30 -255 99c-11 13 -18 29 -18 47c0 39 31 70 70 70c21 0 40 -9 52 -24c35 -38 73 -52 151 -52c104 0 177 49 177 109c0 31 -24 50 -136 65c-124 17 -196 81 -196 190c0 128 131 219 289 219c75 0 141 -16 199 -48c22 -12 37 -35 37 -62
c0 -39 -31 -70 -70 -70c-13 0 -25 3 -35 10c-39 21 -76 30 -131 30c-84 0 -149 -39 -149 -79c0 -29 13 -43 75 -52c167 -22 257 -80 257 -203c0 -144 -136 -249 -317 -249zM250 815c0 25 13 47 33 59l230 150c11 8 25 12 39 12c39 0 70 -31 70 -70c0 -25 -13 -47 -33 -59
l-230 -150c-11 -8 -25 -12 -39 -12c-39 0 -70 31 -70 70z" />
    <glyph glyph-name="Scaron" unicode="&#x160;" 
d="M258 -17c-115 0 -193 30 -255 99c-11 13 -18 29 -18 47c0 39 31 70 70 70c21 0 40 -9 52 -24c35 -38 73 -52 151 -52c104 0 177 49 177 109c0 31 -24 50 -136 65c-124 17 -196 81 -196 190c0 128 131 219 289 219c75 0 141 -16 199 -48c22 -12 37 -35 37 -62
c0 -39 -31 -70 -70 -70c-13 0 -25 3 -35 10c-39 21 -76 30 -131 30c-84 0 -149 -39 -149 -79c0 -29 13 -43 75 -52c167 -22 257 -80 257 -203c0 -144 -136 -249 -317 -249zM191 946c0 39 31 70 70 70c21 0 40 -9 53 -24c27 -32 59 -62 99 -93c58 32 115 67 173 105
c11 8 25 12 39 12c39 0 70 -31 70 -70c0 -25 -13 -47 -33 -59c-73 -48 -146 -92 -220 -133c-10 -6 -22 -9 -35 -9c-16 0 -30 5 -42 14c-63 47 -116 94 -157 141c-10 12 -17 28 -17 46z" />
    <glyph glyph-name="Scedilla" unicode="&#x15e;" 
d="M153 -267l-27 1c-36 3 -64 33 -64 70c0 39 31 70 70 70c4 0 7 0 10 -1h11c54 0 97 27 97 50c0 2 -7 8 -26 11c-29 4 -53 28 -58 57c-67 13 -119 42 -163 91c-11 13 -18 29 -18 47c0 39 31 70 70 70c21 0 40 -9 52 -24c35 -38 73 -52 151 -52c104 0 177 49 177 109
c0 31 -24 50 -136 65c-124 17 -196 81 -196 190c0 128 131 219 289 219c75 0 141 -16 199 -48c22 -12 37 -35 37 -62c0 -39 -31 -70 -70 -70c-13 0 -25 3 -35 10c-39 21 -76 30 -131 30c-84 0 -149 -39 -149 -79c0 -29 13 -43 75 -52c167 -22 257 -80 257 -203
c0 -113 -83 -201 -206 -235c14 -21 21 -46 21 -74c0 -109 -108 -190 -237 -190z" />
    <glyph glyph-name="Scircumflex" unicode="&#x15c;" 
d="M258 -17c-115 0 -193 30 -255 99c-11 13 -18 29 -18 47c0 39 31 70 70 70c21 0 40 -9 52 -24c35 -38 73 -52 151 -52c104 0 177 49 177 109c0 31 -24 50 -136 65c-124 17 -196 81 -196 190c0 128 131 219 289 219c75 0 141 -16 199 -48c22 -12 37 -35 37 -62
c0 -39 -31 -70 -70 -70c-13 0 -25 3 -35 10c-39 21 -76 30 -131 30c-84 0 -149 -39 -149 -79c0 -29 13 -43 75 -52c167 -22 257 -80 257 -203c0 -144 -136 -249 -317 -249zM165 815c0 25 13 47 33 59c73 48 146 92 220 133c10 6 22 9 35 9c16 0 30 -5 42 -14
c63 -47 116 -94 157 -141c10 -12 17 -28 17 -46c0 -39 -31 -70 -70 -70c-21 0 -40 9 -53 24c-27 32 -59 62 -99 93c-58 -32 -115 -67 -173 -105c-11 -8 -25 -12 -39 -12c-39 0 -70 31 -70 70z" />
    <glyph glyph-name="uni0218" unicode="&#x218;" 
d="M258 -17c-115 0 -193 30 -255 99c-11 13 -18 29 -18 47c0 39 31 70 70 70c21 0 40 -9 52 -24c35 -38 73 -52 151 -52c104 0 177 49 177 109c0 31 -24 50 -136 65c-124 17 -196 81 -196 190c0 128 131 219 289 219c75 0 141 -16 199 -48c22 -12 37 -35 37 -62
c0 -39 -31 -70 -70 -70c-13 0 -25 3 -35 10c-39 21 -76 30 -131 30c-84 0 -149 -39 -149 -79c0 -29 13 -43 75 -52c167 -22 257 -80 257 -203c0 -144 -136 -249 -317 -249zM81 -243c0 22 10 42 27 55c33 26 85 82 104 110c13 19 34 32 59 32c39 0 70 -31 70 -70
c0 -15 -5 -28 -12 -40c-26 -38 -91 -107 -134 -141c-12 -10 -27 -16 -44 -16c-39 0 -70 31 -70 70z" />
    <glyph glyph-name="uni1E9E" unicode="&#x1e9e;" 
d="M264 -20c-39 0 -70 31 -70 70c0 36 28 66 63 70c119 13 185 63 185 133c0 27 -23 49 -87 63c-32 7 -56 35 -56 69c0 19 8 36 20 49c33 34 75 82 115 131c-56 -2 -115 -3 -176 -3c-37 -203 -76 -389 -108 -521c-7 -32 -35 -55 -68 -55c-39 0 -70 31 -70 70c0 6 0 9 2 18
c32 127 69 306 104 502c-17 13 -29 34 -29 57c0 39 31 70 70 70c26 -1 53 -1 98 -1c127 0 246 5 325 12c39 0 70 -31 70 -70c0 -15 -5 -29 -13 -41c-36 -51 -93 -124 -150 -190c59 -36 93 -91 93 -160c0 -149 -119 -252 -318 -273z" />
    <glyph glyph-name="uni018F" unicode="&#x18f;" 
d="M235 -13c-135 0 -223 95 -223 239c0 104 48 169 151 190c77 15 202 36 319 52c-10 73 -50 108 -125 108c-55 0 -105 -24 -172 -85c-12 -11 -29 -18 -47 -18c-39 0 -70 31 -70 70c0 21 9 39 23 52c90 82 175 121 266 121c165 0 267 -109 267 -284
c0 -247 -171 -445 -389 -445zM152 226c0 -68 28 -99 83 -99c107 0 198 82 234 198c-104 -15 -210 -33 -277 -46c-34 -7 -40 -13 -40 -53z" />
    <glyph glyph-name="T" unicode="T" 
d="M276 -10c-39 0 -70 31 -70 70c0 5 1 10 2 15c23 116 57 322 78 477h-36c-38 0 -75 0 -111 1c-38 1 -68 32 -68 70c0 39 31 70 70 70c35 -1 71 -1 109 -1c121 0 250 4 365 13c39 0 70 -31 70 -70c0 -37 -29 -67 -65 -70c-60 -5 -126 -8 -192 -10
c-22 -161 -58 -384 -83 -508c-6 -32 -35 -57 -69 -57z" />
    <glyph glyph-name="Tbar" unicode="&#x166;" 
d="M276 -10c-39 0 -70 31 -70 70c0 5 1 10 2 15c11 55 24 130 38 210l-57 -7c-3 -1 -5 -1 -9 -1c-33 0 -60 27 -60 60c0 31 23 56 54 60c24 3 56 7 91 11c8 50 15 99 21 144h-36c-38 0 -75 0 -111 1c-38 1 -68 32 -68 70c0 39 31 70 70 70c35 -1 71 -1 109 -1
c121 0 250 4 365 13c39 0 70 -31 70 -70c0 -37 -29 -67 -65 -70c-60 -5 -126 -8 -192 -10l-20 -135c32 2 60 3 79 3c34 0 60 -26 60 -60c0 -32 -25 -59 -58 -60s-66 -3 -100 -5c-15 -95 -31 -187 -44 -251c-6 -32 -35 -57 -69 -57z" />
    <glyph glyph-name="Tcaron" unicode="&#x164;" 
d="M276 -10c-39 0 -70 31 -70 70c0 5 1 10 2 15c23 116 57 322 78 477h-36c-38 0 -75 0 -111 1c-38 1 -68 32 -68 70c0 39 31 70 70 70c35 -1 71 -1 109 -1c121 0 250 4 365 13c39 0 70 -31 70 -70c0 -37 -29 -67 -65 -70c-60 -5 -126 -8 -192 -10
c-22 -161 -58 -384 -83 -508c-6 -32 -35 -57 -69 -57zM191 946c0 39 31 70 70 70c21 0 40 -9 53 -24c27 -32 59 -62 99 -93c58 32 115 67 173 105c11 8 25 12 39 12c39 0 70 -31 70 -70c0 -25 -13 -47 -33 -59c-73 -48 -146 -92 -220 -133c-10 -6 -22 -9 -35 -9
c-16 0 -30 5 -42 14c-63 47 -116 94 -157 141c-10 12 -17 28 -17 46z" />
    <glyph glyph-name="uni0162" unicode="&#x162;" 
d="M250 552c-38 0 -75 0 -111 1c-38 1 -68 32 -68 70c0 39 31 70 70 70c35 -1 71 -1 109 -1c121 0 250 4 365 13c39 0 70 -31 70 -70c0 -37 -29 -67 -65 -70c-60 -5 -126 -8 -192 -10c-22 -161 -58 -384 -83 -508c-1 -6 -3 -11 -5 -16c31 -27 50 -64 50 -108
c0 -109 -108 -190 -237 -190l-27 1c-36 3 -64 33 -64 70c0 39 31 70 70 70c4 0 7 0 10 -1h11c54 0 97 27 97 50c0 2 -7 8 -26 11c-33 5 -59 34 -59 69c0 29 17 53 42 64c0 3 0 5 1 8c23 116 57 322 78 477h-36z" />
    <glyph glyph-name="uni021A" unicode="&#x21a;" 
d="M276 -10c-39 0 -70 31 -70 70c0 5 1 10 2 15c23 116 57 322 78 477h-36c-38 0 -75 0 -111 1c-38 1 -68 32 -68 70c0 39 31 70 70 70c35 -1 71 -1 109 -1c121 0 250 4 365 13c39 0 70 -31 70 -70c0 -37 -29 -67 -65 -70c-60 -5 -126 -8 -192 -10
c-22 -161 -58 -384 -83 -508c-6 -32 -35 -57 -69 -57zM81 -243c0 22 10 42 27 55c33 26 85 82 104 110c13 19 34 32 59 32c39 0 70 -31 70 -70c0 -15 -5 -28 -12 -40c-26 -38 -91 -107 -134 -141c-12 -10 -27 -16 -44 -16c-39 0 -70 31 -70 70z" />
    <glyph glyph-name="U" unicode="U" 
d="M262 -18c-151 0 -244 83 -244 220c0 74 64 308 103 447c8 30 35 52 68 52c39 0 70 -31 70 -70c0 -7 -1 -14 -3 -21c-63 -223 -98 -369 -98 -408c0 -56 27 -80 104 -80c113 0 176 58 202 189c19 94 36 234 42 338c2 37 33 66 70 66c39 0 70 -31 70 -70v-5
c-7 -109 -25 -256 -44 -356c-40 -196 -158 -302 -340 -302z" />
    <glyph glyph-name="Uacute" unicode="&#xda;" 
d="M262 -18c-151 0 -244 83 -244 220c0 74 64 308 103 447c8 30 35 52 68 52c39 0 70 -31 70 -70c0 -7 -1 -14 -3 -21c-63 -223 -98 -369 -98 -408c0 -56 27 -80 104 -80c113 0 176 58 202 189c19 94 36 234 42 338c2 37 33 66 70 66c39 0 70 -31 70 -70v-5
c-7 -109 -25 -256 -44 -356c-40 -196 -158 -302 -340 -302zM250 815c0 25 13 47 33 59l230 150c11 8 25 12 39 12c39 0 70 -31 70 -70c0 -25 -13 -47 -33 -59l-230 -150c-11 -8 -25 -12 -39 -12c-39 0 -70 31 -70 70z" />
    <glyph glyph-name="Ubreve" unicode="&#x16c;" 
d="M262 -18c-151 0 -244 83 -244 220c0 74 64 308 103 447c8 30 35 52 68 52c39 0 70 -31 70 -70c0 -7 -1 -14 -3 -21c-63 -223 -98 -369 -98 -408c0 -56 27 -80 104 -80c113 0 176 58 202 189c19 94 36 234 42 338c2 37 33 66 70 66c39 0 70 -31 70 -70v-5
c-7 -109 -25 -256 -44 -356c-40 -196 -158 -302 -340 -302zM198 939c0 39 31 70 70 70c37 0 67 -29 70 -65c2 -29 35 -52 87 -52c57 0 107 30 126 74c10 26 35 45 65 45c39 0 70 -31 70 -70c0 -10 -2 -20 -6 -28c-41 -97 -142 -161 -255 -161c-122 0 -222 75 -227 187z" />
    <glyph glyph-name="Ucircumflex" unicode="&#xdb;" 
d="M262 -18c-151 0 -244 83 -244 220c0 74 64 308 103 447c8 30 35 52 68 52c39 0 70 -31 70 -70c0 -7 -1 -14 -3 -21c-63 -223 -98 -369 -98 -408c0 -56 27 -80 104 -80c113 0 176 58 202 189c19 94 36 234 42 338c2 37 33 66 70 66c39 0 70 -31 70 -70v-5
c-7 -109 -25 -256 -44 -356c-40 -196 -158 -302 -340 -302zM165 815c0 25 13 47 33 59c73 48 146 92 220 133c10 6 22 9 35 9c16 0 30 -5 42 -14c63 -47 116 -94 157 -141c10 -12 17 -28 17 -46c0 -39 -31 -70 -70 -70c-21 0 -40 9 -53 24c-27 32 -59 62 -99 93
c-58 -32 -115 -67 -173 -105c-11 -8 -25 -12 -39 -12c-39 0 -70 31 -70 70z" />
    <glyph glyph-name="Udieresis" unicode="&#xdc;" 
d="M262 -18c-151 0 -244 83 -244 220c0 74 64 308 103 447c8 30 35 52 68 52c39 0 70 -31 70 -70c0 -7 -1 -14 -3 -21c-63 -223 -98 -369 -98 -408c0 -56 27 -80 104 -80c113 0 176 58 202 189c19 94 36 234 42 338c2 37 33 66 70 66c39 0 70 -31 70 -70v-5
c-7 -109 -25 -256 -44 -356c-40 -196 -158 -302 -340 -302zM253 821c0 43 5 74 18 101c11 25 35 42 64 42c39 0 70 -31 70 -70c0 -11 -3 -22 -7 -31c-4 -8 -5 -15 -5 -42c0 -39 -31 -70 -70 -70s-70 31 -70 70zM448 832c0 11 2 21 7 30c1 2 4 20 10 54c4 34 34 60 69 60
c39 0 70 -31 70 -70c0 -4 0 -8 -1 -12c-6 -36 -12 -69 -20 -87c-10 -26 -35 -45 -65 -45c-39 0 -70 31 -70 70z" />
    <glyph glyph-name="Ugrave" unicode="&#xd9;" 
d="M262 -18c-151 0 -244 83 -244 220c0 74 64 308 103 447c8 30 35 52 68 52c39 0 70 -31 70 -70c0 -7 -1 -14 -3 -21c-63 -223 -98 -369 -98 -408c0 -56 27 -80 104 -80c113 0 176 58 202 189c19 94 36 234 42 338c2 37 33 66 70 66c39 0 70 -31 70 -70v-5
c-7 -109 -25 -256 -44 -356c-40 -196 -158 -302 -340 -302zM272 946c0 39 31 70 70 70c18 0 34 -7 46 -17l172 -151c15 -13 24 -32 24 -53c0 -39 -31 -70 -70 -70c-18 0 -34 7 -46 17l-172 151c-15 13 -24 32 -24 53z" />
    <glyph glyph-name="Uhungarumlaut" unicode="&#x170;" 
d="M262 -18c-151 0 -244 83 -244 220c0 74 64 308 103 447c8 30 35 52 68 52c39 0 70 -31 70 -70c0 -7 -1 -14 -3 -21c-63 -223 -98 -369 -98 -408c0 -56 27 -80 104 -80c113 0 176 58 202 189c19 94 36 234 42 338c2 37 33 66 70 66c39 0 70 -31 70 -70v-5
c-7 -109 -25 -256 -44 -356c-40 -196 -158 -302 -340 -302zM191 815c0 20 8 38 22 51c60 56 118 108 176 154c12 10 27 16 44 16c39 0 70 -31 70 -70c0 -22 -10 -42 -27 -55c-54 -44 -109 -92 -167 -147c-12 -12 -29 -19 -48 -19c-39 0 -70 31 -70 70zM431 815
c0 20 8 38 22 51c60 56 118 108 176 154c12 10 27 16 44 16c39 0 70 -31 70 -70c0 -22 -10 -42 -27 -55c-54 -44 -109 -92 -167 -147c-12 -12 -29 -19 -48 -19c-39 0 -70 31 -70 70z" />
    <glyph glyph-name="Umacron" unicode="&#x16a;" 
d="M262 -18c-151 0 -244 83 -244 220c0 74 64 308 103 447c8 30 35 52 68 52c39 0 70 -31 70 -70c0 -7 -1 -14 -3 -21c-63 -223 -98 -369 -98 -408c0 -56 27 -80 104 -80c113 0 176 58 202 189c19 94 36 234 42 338c2 37 33 66 70 66c39 0 70 -31 70 -70v-5
c-7 -109 -25 -256 -44 -356c-40 -196 -158 -302 -340 -302zM162 831c0 36 27 65 62 69c112 16 298 23 388 23c39 0 70 -31 70 -70s-31 -70 -70 -70c-87 0 -264 -7 -369 -21c-4 -1 -7 -1 -11 -1c-39 0 -70 31 -70 70z" />
    <glyph glyph-name="Uogonek" unicode="&#x172;" 
d="M265 -214c-76 0 -136 48 -136 115c0 32 16 63 44 92c-98 27 -155 101 -155 209c0 74 64 308 103 447c8 30 35 52 68 52c39 0 70 -31 70 -70c0 -7 -1 -14 -3 -21c-63 -223 -98 -369 -98 -408c0 -56 27 -80 104 -80c113 0 176 58 202 189c19 94 36 234 42 338
c2 37 33 66 70 66c39 0 70 -31 70 -70v-5c-7 -109 -25 -256 -44 -356c-30 -146 -103 -243 -214 -282l-8 -4c-55 -19 -111 -53 -111 -66c0 -4 2 -6 5 -6c17 0 44 12 67 29c12 9 26 14 42 14c39 0 70 -31 70 -70c0 -23 -11 -44 -29 -57c-46 -34 -109 -56 -159 -56z" />
    <glyph glyph-name="Uring" unicode="&#x16e;" 
d="M262 -18c-151 0 -244 83 -244 220c0 74 64 308 103 447c8 30 35 52 68 52c39 0 70 -31 70 -70c0 -7 -1 -14 -3 -21c-63 -223 -98 -369 -98 -408c0 -56 27 -80 104 -80c113 0 176 58 202 189c19 94 36 234 42 338c2 37 33 66 70 66c39 0 70 -31 70 -70v-5
c-7 -109 -25 -256 -44 -356c-40 -196 -158 -302 -340 -302zM261 908c0 98 90 185 188 185c89 0 168 -75 168 -163c0 -89 -92 -173 -182 -173c-101 0 -174 59 -174 151zM361 908c0 -22 18 -51 74 -51c35 0 82 35 82 73c0 34 -28 63 -68 63c-41 0 -88 -42 -88 -85z" />
    <glyph glyph-name="Utilde" unicode="&#x168;" 
d="M262 -18c-151 0 -244 83 -244 220c0 74 64 308 103 447c8 30 35 52 68 52c39 0 70 -31 70 -70c0 -7 -1 -14 -3 -21c-63 -223 -98 -369 -98 -408c0 -56 27 -80 104 -80c113 0 176 58 202 189c19 94 36 234 42 338c2 37 33 66 70 66c39 0 70 -31 70 -70v-5
c-7 -109 -25 -256 -44 -356c-40 -196 -158 -302 -340 -302zM134 814c0 10 2 19 5 27c37 93 120 160 209 160c62 0 101 -26 143 -82c21 -26 23 -27 33 -27c22 0 50 27 64 70c9 28 36 49 67 49c39 0 70 -31 70 -70c0 -8 -1 -16 -4 -24c-33 -97 -109 -165 -197 -165
c-62 0 -101 26 -143 82c-21 26 -23 27 -33 27c-28 0 -62 -29 -78 -71c-10 -27 -36 -46 -66 -46c-39 0 -70 31 -70 70z" />
    <glyph glyph-name="V" unicode="V" 
d="M249 -20c-32 0 -59 21 -67 50c-50 159 -97 432 -105 618c0 39 31 70 70 70c38 0 69 -30 70 -67c5 -118 27 -276 56 -411c98 176 202 344 289 468c13 18 34 30 58 30c39 0 70 -31 70 -70c0 -15 -5 -30 -13 -41c-110 -155 -248 -384 -365 -608c-12 -23 -36 -39 -63 -39z
" />
    <glyph glyph-name="W" unicode="W" 
d="M148 -20c-38 0 -69 30 -70 67s-16 355 -16 491c0 38 1 71 2 100c1 38 32 68 70 68c39 0 70 -31 70 -70c0 -2 -2 -42 -2 -98c0 -69 3 -147 5 -225c32 68 62 134 88 194c10 26 36 44 65 44c38 0 69 -30 70 -68c1 -37 6 -90 12 -149c43 111 87 226 123 334c9 28 36 49 67 49
c39 0 70 -31 70 -70c0 -8 -1 -16 -4 -24c-61 -181 -172 -449 -218 -584c-10 -28 -36 -48 -67 -48c-37 0 -67 28 -70 64c-4 46 -15 139 -22 198c-31 -66 -90 -188 -109 -230c-10 -25 -35 -43 -64 -43z" />
    <glyph glyph-name="Wacute" unicode="&#x1e82;" 
d="M148 -20c-38 0 -69 30 -70 67s-16 355 -16 491c0 38 1 71 2 100c1 38 32 68 70 68c39 0 70 -31 70 -70c0 -2 -2 -42 -2 -98c0 -69 3 -147 5 -225c32 68 62 134 88 194c10 26 36 44 65 44c38 0 69 -30 70 -68c1 -37 6 -90 12 -149c43 111 87 226 123 334c9 28 36 49 67 49
c39 0 70 -31 70 -70c0 -8 -1 -16 -4 -24c-61 -181 -172 -449 -218 -584c-10 -28 -36 -48 -67 -48c-37 0 -67 28 -70 64c-4 46 -15 139 -22 198c-31 -66 -90 -188 -109 -230c-10 -25 -35 -43 -64 -43zM250 815c0 25 13 47 33 59l230 150c11 8 25 12 39 12c39 0 70 -31 70 -70
c0 -25 -13 -47 -33 -59l-230 -150c-11 -8 -25 -12 -39 -12c-39 0 -70 31 -70 70z" />
    <glyph glyph-name="Wcircumflex" unicode="&#x174;" 
d="M148 -20c-38 0 -69 30 -70 67s-16 355 -16 491c0 38 1 71 2 100c1 38 32 68 70 68c39 0 70 -31 70 -70c0 -2 -2 -42 -2 -98c0 -69 3 -147 5 -225c32 68 62 134 88 194c10 26 36 44 65 44c38 0 69 -30 70 -68c1 -37 6 -90 12 -149c43 111 87 226 123 334c9 28 36 49 67 49
c39 0 70 -31 70 -70c0 -8 -1 -16 -4 -24c-61 -181 -172 -449 -218 -584c-10 -28 -36 -48 -67 -48c-37 0 -67 28 -70 64c-4 46 -15 139 -22 198c-31 -66 -90 -188 -109 -230c-10 -25 -35 -43 -64 -43zM165 815c0 25 13 47 33 59c73 48 146 92 220 133c10 6 22 9 35 9
c16 0 30 -5 42 -14c63 -47 116 -94 157 -141c10 -12 17 -28 17 -46c0 -39 -31 -70 -70 -70c-21 0 -40 9 -53 24c-27 32 -59 62 -99 93c-58 -32 -115 -67 -173 -105c-11 -8 -25 -12 -39 -12c-39 0 -70 31 -70 70z" />
    <glyph glyph-name="Wdieresis" unicode="&#x1e84;" 
d="M148 -20c-38 0 -69 30 -70 67s-16 355 -16 491c0 38 1 71 2 100c1 38 32 68 70 68c39 0 70 -31 70 -70c0 -2 -2 -42 -2 -98c0 -69 3 -147 5 -225c32 68 62 134 88 194c10 26 36 44 65 44c38 0 69 -30 70 -68c1 -37 6 -90 12 -149c43 111 87 226 123 334c9 28 36 49 67 49
c39 0 70 -31 70 -70c0 -8 -1 -16 -4 -24c-61 -181 -172 -449 -218 -584c-10 -28 -36 -48 -67 -48c-37 0 -67 28 -70 64c-4 46 -15 139 -22 198c-31 -66 -90 -188 -109 -230c-10 -25 -35 -43 -64 -43zM253 821c0 43 5 74 18 101c11 25 35 42 64 42c39 0 70 -31 70 -70
c0 -11 -3 -22 -7 -31c-4 -8 -5 -15 -5 -42c0 -39 -31 -70 -70 -70s-70 31 -70 70zM448 832c0 11 2 21 7 30c1 2 4 20 10 54c4 34 34 60 69 60c39 0 70 -31 70 -70c0 -4 0 -8 -1 -12c-6 -36 -12 -69 -20 -87c-10 -26 -35 -45 -65 -45c-39 0 -70 31 -70 70z" />
    <glyph glyph-name="Wgrave" unicode="&#x1e80;" 
d="M148 -20c-38 0 -69 30 -70 67s-16 355 -16 491c0 38 1 71 2 100c1 38 32 68 70 68c39 0 70 -31 70 -70c0 -2 -2 -42 -2 -98c0 -69 3 -147 5 -225c32 68 62 134 88 194c10 26 36 44 65 44c38 0 69 -30 70 -68c1 -37 6 -90 12 -149c43 111 87 226 123 334c9 28 36 49 67 49
c39 0 70 -31 70 -70c0 -8 -1 -16 -4 -24c-61 -181 -172 -449 -218 -584c-10 -28 -36 -48 -67 -48c-37 0 -67 28 -70 64c-4 46 -15 139 -22 198c-31 -66 -90 -188 -109 -230c-10 -25 -35 -43 -64 -43zM272 946c0 39 31 70 70 70c18 0 34 -7 46 -17l172 -151
c15 -13 24 -32 24 -53c0 -39 -31 -70 -70 -70c-18 0 -34 7 -46 17l-172 151c-15 13 -24 32 -24 53z" />
    <glyph glyph-name="X" unicode="X" 
d="M20 -23c-39 0 -70 31 -70 70c0 20 8 38 22 51c79 75 173 170 251 254c-50 107 -82 203 -100 280c-1 5 -2 11 -2 17c0 39 31 70 70 70c34 0 62 -24 68 -55c15 -65 38 -131 67 -200c79 86 168 177 234 242c12 12 30 20 49 20c39 0 70 -31 70 -70c0 -19 -8 -37 -21 -50
c-74 -73 -180 -183 -266 -277c41 -72 110 -183 151 -243c7 -12 12 -25 12 -40c0 -39 -31 -70 -70 -70c-25 0 -46 13 -59 32c-35 52 -90 140 -133 213c-73 -76 -154 -158 -225 -225c-12 -12 -29 -19 -48 -19z" />
    <glyph glyph-name="Y" unicode="Y" 
d="M266 -21c-39 0 -70 31 -70 70c0 6 1 12 2 18c14 60 31 129 49 202c-42 96 -105 231 -161 334c-6 10 -9 21 -9 34c0 39 31 70 70 70c27 0 51 -15 62 -38c43 -79 91 -178 130 -263c74 88 150 188 217 285c12 19 34 31 58 31c39 0 70 -31 70 -70c0 -15 -5 -29 -13 -40
c-76 -111 -179 -247 -285 -366c-19 -76 -37 -149 -52 -212c-6 -31 -34 -55 -68 -55z" />
    <glyph glyph-name="Yacute" unicode="&#xdd;" 
d="M266 -21c-39 0 -70 31 -70 70c0 6 1 12 2 18c14 60 31 129 49 202c-42 96 -105 231 -161 334c-6 10 -9 21 -9 34c0 39 31 70 70 70c27 0 51 -15 62 -38c43 -79 91 -178 130 -263c74 88 150 188 217 285c12 19 34 31 58 31c39 0 70 -31 70 -70c0 -15 -5 -29 -13 -40
c-76 -111 -179 -247 -285 -366c-19 -76 -37 -149 -52 -212c-6 -31 -34 -55 -68 -55zM250 815c0 25 13 47 33 59l230 150c11 8 25 12 39 12c39 0 70 -31 70 -70c0 -25 -13 -47 -33 -59l-230 -150c-11 -8 -25 -12 -39 -12c-39 0 -70 31 -70 70z" />
    <glyph glyph-name="Ycircumflex" unicode="&#x176;" 
d="M266 -21c-39 0 -70 31 -70 70c0 6 1 12 2 18c14 60 31 129 49 202c-42 96 -105 231 -161 334c-6 10 -9 21 -9 34c0 39 31 70 70 70c27 0 51 -15 62 -38c43 -79 91 -178 130 -263c74 88 150 188 217 285c12 19 34 31 58 31c39 0 70 -31 70 -70c0 -15 -5 -29 -13 -40
c-76 -111 -179 -247 -285 -366c-19 -76 -37 -149 -52 -212c-6 -31 -34 -55 -68 -55zM165 815c0 25 13 47 33 59c73 48 146 92 220 133c10 6 22 9 35 9c16 0 30 -5 42 -14c63 -47 116 -94 157 -141c10 -12 17 -28 17 -46c0 -39 -31 -70 -70 -70c-21 0 -40 9 -53 24
c-27 32 -59 62 -99 93c-58 -32 -115 -67 -173 -105c-11 -8 -25 -12 -39 -12c-39 0 -70 31 -70 70z" />
    <glyph glyph-name="Ydieresis" unicode="&#x178;" 
d="M266 -21c-39 0 -70 31 -70 70c0 6 1 12 2 18c14 60 31 129 49 202c-42 96 -105 231 -161 334c-6 10 -9 21 -9 34c0 39 31 70 70 70c27 0 51 -15 62 -38c43 -79 91 -178 130 -263c74 88 150 188 217 285c12 19 34 31 58 31c39 0 70 -31 70 -70c0 -15 -5 -29 -13 -40
c-76 -111 -179 -247 -285 -366c-19 -76 -37 -149 -52 -212c-6 -31 -34 -55 -68 -55zM253 821c0 43 5 74 18 101c11 25 35 42 64 42c39 0 70 -31 70 -70c0 -11 -3 -22 -7 -31c-4 -8 -5 -15 -5 -42c0 -39 -31 -70 -70 -70s-70 31 -70 70zM448 832c0 11 2 21 7 30
c1 2 4 20 10 54c4 34 34 60 69 60c39 0 70 -31 70 -70c0 -4 0 -8 -1 -12c-6 -36 -12 -69 -20 -87c-10 -26 -35 -45 -65 -45c-39 0 -70 31 -70 70z" />
    <glyph glyph-name="Ygrave" unicode="&#x1ef2;" 
d="M266 -21c-39 0 -70 31 -70 70c0 6 1 12 2 18c14 60 31 129 49 202c-42 96 -105 231 -161 334c-6 10 -9 21 -9 34c0 39 31 70 70 70c27 0 51 -15 62 -38c43 -79 91 -178 130 -263c74 88 150 188 217 285c12 19 34 31 58 31c39 0 70 -31 70 -70c0 -15 -5 -29 -13 -40
c-76 -111 -179 -247 -285 -366c-19 -76 -37 -149 -52 -212c-6 -31 -34 -55 -68 -55zM272 946c0 39 31 70 70 70c18 0 34 -7 46 -17l172 -151c15 -13 24 -32 24 -53c0 -39 -31 -70 -70 -70c-18 0 -34 7 -46 17l-172 151c-15 13 -24 32 -24 53z" />
    <glyph glyph-name="Z" unicode="Z" 
d="M40 -9c-39 0 -70 31 -70 70c0 17 6 33 16 45c139 166 287 329 416 457c-44 -2 -87 -3 -127 -3c-51 0 -95 2 -127 4c-36 3 -65 33 -65 70c0 39 31 70 70 70h6c28 -2 67 -4 116 -4c95 0 209 5 310 13h6c39 0 70 -31 70 -70c0 -21 -9 -40 -24 -53
c-122 -105 -283 -271 -441 -453h76c76 1 149 1 217 6h6c39 0 70 -31 70 -70c0 -37 -29 -67 -65 -70c-73 -5 -152 -5 -228 -6c-79 0 -155 0 -225 -6h-7z" />
    <glyph glyph-name="Zacute" unicode="&#x179;" 
d="M40 -9c-39 0 -70 31 -70 70c0 17 6 33 16 45c139 166 287 329 416 457c-44 -2 -87 -3 -127 -3c-51 0 -95 2 -127 4c-36 3 -65 33 -65 70c0 39 31 70 70 70h6c28 -2 67 -4 116 -4c95 0 209 5 310 13h6c39 0 70 -31 70 -70c0 -21 -9 -40 -24 -53
c-122 -105 -283 -271 -441 -453h76c76 1 149 1 217 6h6c39 0 70 -31 70 -70c0 -37 -29 -67 -65 -70c-73 -5 -152 -5 -228 -6c-79 0 -155 0 -225 -6h-7zM250 815c0 25 13 47 33 59l230 150c11 8 25 12 39 12c39 0 70 -31 70 -70c0 -25 -13 -47 -33 -59l-230 -150
c-11 -8 -25 -12 -39 -12c-39 0 -70 31 -70 70z" />
    <glyph glyph-name="Zcaron" unicode="&#x17d;" 
d="M40 -9c-39 0 -70 31 -70 70c0 17 6 33 16 45c139 166 287 329 416 457c-44 -2 -87 -3 -127 -3c-51 0 -95 2 -127 4c-36 3 -65 33 -65 70c0 39 31 70 70 70h6c28 -2 67 -4 116 -4c95 0 209 5 310 13h6c39 0 70 -31 70 -70c0 -21 -9 -40 -24 -53
c-122 -105 -283 -271 -441 -453h76c76 1 149 1 217 6h6c39 0 70 -31 70 -70c0 -37 -29 -67 -65 -70c-73 -5 -152 -5 -228 -6c-79 0 -155 0 -225 -6h-7zM191 946c0 39 31 70 70 70c21 0 40 -9 53 -24c27 -32 59 -62 99 -93c58 32 115 67 173 105c11 8 25 12 39 12
c39 0 70 -31 70 -70c0 -25 -13 -47 -33 -59c-73 -48 -146 -92 -220 -133c-10 -6 -22 -9 -35 -9c-16 0 -30 5 -42 14c-63 47 -116 94 -157 141c-10 12 -17 28 -17 46z" />
    <glyph glyph-name="Zdotaccent" unicode="&#x17b;" 
d="M40 -9c-39 0 -70 31 -70 70c0 17 6 33 16 45c139 166 287 329 416 457c-44 -2 -87 -3 -127 -3c-51 0 -95 2 -127 4c-36 3 -65 33 -65 70c0 39 31 70 70 70h6c28 -2 67 -4 116 -4c95 0 209 5 310 13h6c39 0 70 -31 70 -70c0 -21 -9 -40 -24 -53
c-122 -105 -283 -271 -441 -453h76c76 1 149 1 217 6h6c39 0 70 -31 70 -70c0 -37 -29 -67 -65 -70c-73 -5 -152 -5 -228 -6c-79 0 -155 0 -225 -6h-7zM333 842c6 95 33 155 108 155c49 0 87 -39 87 -88c0 -41 -33 -92 -72 -126c-12 -11 -28 -17 -46 -17
c-38 0 -77 35 -77 76z" />
    <glyph glyph-name="Y.ss02" 
d="M102 -41c-39 0 -70 31 -70 70c0 22 10 42 26 54c53 44 111 101 170 165c-41 109 -95 251 -144 359c-5 9 -7 19 -7 30c0 39 31 70 70 70c29 0 54 -18 64 -43c40 -89 84 -198 120 -294c81 100 158 210 222 317c12 21 35 35 61 35c39 0 70 -31 70 -70c0 -14 -4 -26 -10 -37
c-126 -209 -337 -484 -527 -640c-12 -10 -28 -16 -45 -16z" />
    <glyph glyph-name="Yacute.ss02" 
d="M102 -41c-39 0 -70 31 -70 70c0 22 10 42 26 54c53 44 111 101 170 165c-41 109 -95 251 -144 359c-5 9 -7 19 -7 30c0 39 31 70 70 70c29 0 54 -18 64 -43c40 -89 84 -198 120 -294c81 100 158 210 222 317c12 21 35 35 61 35c39 0 70 -31 70 -70c0 -14 -4 -26 -10 -37
c-126 -209 -337 -484 -527 -640c-12 -10 -28 -16 -45 -16zM250 815c0 25 13 47 33 59l230 150c11 8 25 12 39 12c39 0 70 -31 70 -70c0 -25 -13 -47 -33 -59l-230 -150c-11 -8 -25 -12 -39 -12c-39 0 -70 31 -70 70z" />
    <glyph glyph-name="Ycircumflex.ss02" 
d="M102 -41c-39 0 -70 31 -70 70c0 22 10 42 26 54c53 44 111 101 170 165c-41 109 -95 251 -144 359c-5 9 -7 19 -7 30c0 39 31 70 70 70c29 0 54 -18 64 -43c40 -89 84 -198 120 -294c81 100 158 210 222 317c12 21 35 35 61 35c39 0 70 -31 70 -70c0 -14 -4 -26 -10 -37
c-126 -209 -337 -484 -527 -640c-12 -10 -28 -16 -45 -16zM165 815c0 25 13 47 33 59c73 48 146 92 220 133c10 6 22 9 35 9c16 0 30 -5 42 -14c63 -47 116 -94 157 -141c10 -12 17 -28 17 -46c0 -39 -31 -70 -70 -70c-21 0 -40 9 -53 24c-27 32 -59 62 -99 93
c-58 -32 -115 -67 -173 -105c-11 -8 -25 -12 -39 -12c-39 0 -70 31 -70 70z" />
    <glyph glyph-name="Ydieresis.ss02" 
d="M102 -41c-39 0 -70 31 -70 70c0 22 10 42 26 54c53 44 111 101 170 165c-41 109 -95 251 -144 359c-5 9 -7 19 -7 30c0 39 31 70 70 70c29 0 54 -18 64 -43c40 -89 84 -198 120 -294c81 100 158 210 222 317c12 21 35 35 61 35c39 0 70 -31 70 -70c0 -14 -4 -26 -10 -37
c-126 -209 -337 -484 -527 -640c-12 -10 -28 -16 -45 -16zM253 821c0 43 5 74 18 101c11 25 35 42 64 42c39 0 70 -31 70 -70c0 -11 -3 -22 -7 -31c-4 -8 -5 -15 -5 -42c0 -39 -31 -70 -70 -70s-70 31 -70 70zM448 832c0 11 2 21 7 30c1 2 4 20 10 54c4 34 34 60 69 60
c39 0 70 -31 70 -70c0 -4 0 -8 -1 -12c-6 -36 -12 -69 -20 -87c-10 -26 -35 -45 -65 -45c-39 0 -70 31 -70 70z" />
    <glyph glyph-name="Ygrave.ss02" 
d="M102 -41c-39 0 -70 31 -70 70c0 22 10 42 26 54c53 44 111 101 170 165c-41 109 -95 251 -144 359c-5 9 -7 19 -7 30c0 39 31 70 70 70c29 0 54 -18 64 -43c40 -89 84 -198 120 -294c81 100 158 210 222 317c12 21 35 35 61 35c39 0 70 -31 70 -70c0 -14 -4 -26 -10 -37
c-126 -209 -337 -484 -527 -640c-12 -10 -28 -16 -45 -16zM272 946c0 39 31 70 70 70c18 0 34 -7 46 -17l172 -151c15 -13 24 -32 24 -53c0 -39 -31 -70 -70 -70c-18 0 -34 7 -46 17l-172 151c-15 13 -24 32 -24 53z" />
    <glyph glyph-name="a" unicode="a" 
d="M194 -19c-104 0 -168 90 -168 218c0 191 171 378 348 378c42 0 81 -12 114 -35c12 19 34 32 58 32c39 0 70 -31 70 -70c0 -12 -3 -23 -8 -32c-57 -116 -91 -226 -91 -291c0 -41 9 -70 23 -84c13 -13 21 -31 21 -50c0 -39 -31 -70 -70 -70c-19 0 -37 8 -50 21
c-24 24 -41 55 -52 91c-61 -69 -129 -108 -195 -108zM166 199c0 -56 15 -78 38 -78c51 0 122 56 184 153c9 41 22 86 40 133c-14 21 -31 30 -54 30c-99 0 -208 -123 -208 -238z" />
    <glyph glyph-name="aacute" unicode="&#xe1;" 
d="M194 -19c-104 0 -168 90 -168 218c0 191 171 378 348 378c42 0 81 -12 114 -35c12 19 34 32 58 32c39 0 70 -31 70 -70c0 -12 -3 -23 -8 -32c-57 -116 -91 -226 -91 -291c0 -41 9 -70 23 -84c13 -13 21 -31 21 -50c0 -39 -31 -70 -70 -70c-19 0 -37 8 -50 21
c-24 24 -41 55 -52 91c-61 -69 -129 -108 -195 -108zM166 199c0 -56 15 -78 38 -78c51 0 122 56 184 153c9 41 22 86 40 133c-14 21 -31 30 -54 30c-99 0 -208 -123 -208 -238zM222 675c0 25 13 47 33 59l230 150c11 8 25 12 39 12c39 0 70 -31 70 -70
c0 -25 -13 -47 -33 -59l-230 -150c-11 -8 -25 -12 -39 -12c-39 0 -70 31 -70 70z" />
    <glyph glyph-name="abreve" unicode="&#x103;" 
d="M194 -19c-104 0 -168 90 -168 218c0 191 171 378 348 378c42 0 81 -12 114 -35c12 19 34 32 58 32c39 0 70 -31 70 -70c0 -12 -3 -23 -8 -32c-57 -116 -91 -226 -91 -291c0 -41 9 -70 23 -84c13 -13 21 -31 21 -50c0 -39 -31 -70 -70 -70c-19 0 -37 8 -50 21
c-24 24 -41 55 -52 91c-61 -69 -129 -108 -195 -108zM166 199c0 -56 15 -78 38 -78c51 0 122 56 184 153c9 41 22 86 40 133c-14 21 -31 30 -54 30c-99 0 -208 -123 -208 -238zM170 799c0 39 31 70 70 70c37 0 67 -29 70 -65c2 -29 35 -52 87 -52c57 0 107 30 126 74
c10 26 35 45 65 45c39 0 70 -31 70 -70c0 -10 -2 -20 -6 -28c-41 -97 -142 -161 -255 -161c-122 0 -222 75 -227 187z" />
    <glyph glyph-name="acircumflex" unicode="&#xe2;" 
d="M194 -19c-104 0 -168 90 -168 218c0 191 171 378 348 378c42 0 81 -12 114 -35c12 19 34 32 58 32c39 0 70 -31 70 -70c0 -12 -3 -23 -8 -32c-57 -116 -91 -226 -91 -291c0 -41 9 -70 23 -84c13 -13 21 -31 21 -50c0 -39 -31 -70 -70 -70c-19 0 -37 8 -50 21
c-24 24 -41 55 -52 91c-61 -69 -129 -108 -195 -108zM137 675c0 25 13 47 33 59c73 48 146 92 220 133c10 6 22 9 35 9c16 0 30 -5 42 -14c63 -47 116 -94 157 -141c10 -12 17 -28 17 -46c0 -39 -31 -70 -70 -70c-21 0 -40 9 -53 24c-27 32 -59 62 -99 93
c-58 -32 -115 -67 -173 -105c-11 -8 -25 -12 -39 -12c-39 0 -70 31 -70 70zM166 199c0 -56 15 -78 38 -78c51 0 122 56 184 153c9 41 22 86 40 133c-14 21 -31 30 -54 30c-99 0 -208 -123 -208 -238z" />
    <glyph glyph-name="adieresis" unicode="&#xe4;" 
d="M194 -19c-104 0 -168 90 -168 218c0 191 171 378 348 378c42 0 81 -12 114 -35c12 19 34 32 58 32c39 0 70 -31 70 -70c0 -12 -3 -23 -8 -32c-57 -116 -91 -226 -91 -291c0 -41 9 -70 23 -84c13 -13 21 -31 21 -50c0 -39 -31 -70 -70 -70c-19 0 -37 8 -50 21
c-24 24 -41 55 -52 91c-61 -69 -129 -108 -195 -108zM166 199c0 -56 15 -78 38 -78c51 0 122 56 184 153c9 41 22 86 40 133c-14 21 -31 30 -54 30c-99 0 -208 -123 -208 -238zM225 681c0 43 5 74 18 101c11 25 35 42 64 42c39 0 70 -31 70 -70c0 -11 -3 -22 -7 -31
c-4 -8 -5 -15 -5 -42c0 -39 -31 -70 -70 -70s-70 31 -70 70zM420 692c0 11 2 21 7 30c1 2 4 20 10 54c4 34 34 60 69 60c39 0 70 -31 70 -70c0 -4 0 -8 -1 -12c-6 -36 -12 -69 -20 -87c-10 -26 -35 -45 -65 -45c-39 0 -70 31 -70 70z" />
    <glyph glyph-name="agrave" unicode="&#xe0;" 
d="M194 -19c-104 0 -168 90 -168 218c0 191 171 378 348 378c42 0 81 -12 114 -35c12 19 34 32 58 32c39 0 70 -31 70 -70c0 -12 -3 -23 -8 -32c-57 -116 -91 -226 -91 -291c0 -41 9 -70 23 -84c13 -13 21 -31 21 -50c0 -39 -31 -70 -70 -70c-19 0 -37 8 -50 21
c-24 24 -41 55 -52 91c-61 -69 -129 -108 -195 -108zM166 199c0 -56 15 -78 38 -78c51 0 122 56 184 153c9 41 22 86 40 133c-14 21 -31 30 -54 30c-99 0 -208 -123 -208 -238zM244 806c0 39 31 70 70 70c18 0 34 -7 46 -17l172 -151c15 -13 24 -32 24 -53
c0 -39 -31 -70 -70 -70c-18 0 -34 7 -46 17l-172 151c-15 13 -24 32 -24 53z" />
    <glyph glyph-name="amacron" unicode="&#x101;" 
d="M194 -19c-104 0 -168 90 -168 218c0 191 171 378 348 378c42 0 81 -12 114 -35c12 19 34 32 58 32c39 0 70 -31 70 -70c0 -12 -3 -23 -8 -32c-57 -116 -91 -226 -91 -291c0 -41 9 -70 23 -84c13 -13 21 -31 21 -50c0 -39 -31 -70 -70 -70c-19 0 -37 8 -50 21
c-24 24 -41 55 -52 91c-61 -69 -129 -108 -195 -108zM134 691c0 36 27 65 62 69c112 16 298 23 388 23c39 0 70 -31 70 -70s-31 -70 -70 -70c-87 0 -264 -7 -369 -21c-4 -1 -7 -1 -11 -1c-39 0 -70 31 -70 70zM166 199c0 -56 15 -78 38 -78c51 0 122 56 184 153
c9 41 22 86 40 133c-14 21 -31 30 -54 30c-99 0 -208 -123 -208 -238z" />
    <glyph glyph-name="aogonek" unicode="&#x105;" 
d="M194 -19c-104 0 -168 90 -168 218c0 191 171 378 348 378c42 0 81 -12 114 -35c12 19 34 32 58 32c39 0 70 -31 70 -70c0 -12 -3 -23 -8 -32c-57 -116 -91 -226 -91 -291c0 -41 9 -70 23 -84c13 -13 21 -31 21 -50c0 -24 -12 -45 -30 -58l-11 -6c-1 0 -1 0 -2 -1l-6 -2
c-52 -19 -103 -51 -103 -63c0 -4 2 -6 5 -6c17 0 44 12 67 29c12 9 26 14 42 14c39 0 70 -31 70 -70c0 -23 -11 -44 -29 -57c-46 -34 -109 -56 -159 -56c-76 0 -136 48 -136 115c0 60 57 116 137 160c-7 13 -12 28 -17 43c-61 -69 -129 -108 -195 -108zM166 199
c0 -56 15 -78 38 -78c51 0 122 56 184 153c9 41 22 86 40 133c-14 21 -31 30 -54 30c-99 0 -208 -123 -208 -238z" />
    <glyph glyph-name="aring" unicode="&#xe5;" 
d="M194 -19c-104 0 -168 90 -168 218c0 191 171 378 348 378c42 0 81 -12 114 -35c12 19 34 32 58 32c39 0 70 -31 70 -70c0 -12 -3 -23 -8 -32c-57 -116 -91 -226 -91 -291c0 -41 9 -70 23 -84c13 -13 21 -31 21 -50c0 -39 -31 -70 -70 -70c-19 0 -37 8 -50 21
c-24 24 -41 55 -52 91c-61 -69 -129 -108 -195 -108zM166 199c0 -56 15 -78 38 -78c51 0 122 56 184 153c9 41 22 86 40 133c-14 21 -31 30 -54 30c-99 0 -208 -123 -208 -238zM233 768c0 98 90 185 188 185c89 0 168 -75 168 -163c0 -89 -92 -173 -182 -173
c-101 0 -174 59 -174 151zM333 768c0 -22 18 -51 74 -51c35 0 82 35 82 73c0 34 -28 63 -68 63c-41 0 -88 -42 -88 -85z" />
    <glyph glyph-name="aringacute" unicode="&#x1fb;" 
d="M194 -19c-104 0 -168 90 -168 218c0 191 171 378 348 378c42 0 81 -12 114 -35c12 19 34 32 58 32c39 0 70 -31 70 -70c0 -12 -3 -23 -8 -32c-57 -116 -91 -226 -91 -291c0 -41 9 -70 23 -84c13 -13 21 -31 21 -50c0 -39 -31 -70 -70 -70c-19 0 -37 8 -50 21
c-24 24 -41 55 -52 91c-61 -69 -129 -108 -195 -108zM166 199c0 -56 15 -78 38 -78c51 0 122 56 184 153c9 41 22 86 40 133c-14 21 -31 30 -54 30c-99 0 -208 -123 -208 -238zM233 768c0 98 90 185 188 185c21 0 41 -4 60 -12l176 115c11 8 25 12 39 12c39 0 70 -31 70 -70
c0 -25 -13 -47 -33 -59l-152 -99c5 -16 8 -33 8 -50c0 -89 -92 -173 -182 -173c-101 0 -174 59 -174 151zM333 768c0 -22 18 -51 74 -51c35 0 82 35 82 73c0 34 -28 63 -68 63c-41 0 -88 -42 -88 -85z" />
    <glyph glyph-name="atilde" unicode="&#xe3;" 
d="M194 -19c-104 0 -168 90 -168 218c0 191 171 378 348 378c42 0 81 -12 114 -35c12 19 34 32 58 32c39 0 70 -31 70 -70c0 -12 -3 -23 -8 -32c-57 -116 -91 -226 -91 -291c0 -41 9 -70 23 -84c13 -13 21 -31 21 -50c0 -39 -31 -70 -70 -70c-19 0 -37 8 -50 21
c-24 24 -41 55 -52 91c-61 -69 -129 -108 -195 -108zM106 674c0 10 2 19 5 27c37 93 120 160 209 160c62 0 101 -26 143 -82c21 -26 23 -27 33 -27c22 0 50 27 64 70c9 28 36 49 67 49c39 0 70 -31 70 -70c0 -8 -1 -16 -4 -24c-33 -97 -109 -165 -197 -165
c-62 0 -101 26 -143 82c-21 26 -23 27 -33 27c-28 0 -62 -29 -78 -71c-10 -27 -36 -46 -66 -46c-39 0 -70 31 -70 70zM166 199c0 -56 15 -78 38 -78c51 0 122 56 184 153c9 41 22 86 40 133c-14 21 -31 30 -54 30c-99 0 -208 -123 -208 -238z" />
    <glyph glyph-name="ae" unicode="&#xe6;" 
d="M396 -23c-56 0 -97 25 -123 69c-45 -45 -95 -71 -145 -71c-94 0 -153 68 -153 169c0 118 96 212 218 212c24 0 47 -3 68 -10c4 20 6 35 6 49c0 28 -8 38 -31 38c-20 0 -46 -10 -79 -33c-11 -7 -25 -12 -40 -12c-39 0 -70 31 -70 70c0 25 13 46 32 59c54 36 109 56 157 56
c52 0 93 -21 119 -59c40 43 89 70 144 70c86 0 147 -70 147 -160c0 -70 -26 -109 -91 -151c-47 -30 -121 -62 -195 -87c1 -58 16 -69 36 -69c17 0 36 11 68 44c13 14 31 22 51 22c39 0 70 -31 70 -70c0 -19 -7 -36 -19 -48c-55 -58 -109 -88 -170 -88zM115 144
c0 -22 5 -29 13 -29c32 0 76 37 112 98l1 10c-13 9 -28 13 -48 13c-45 0 -78 -39 -78 -92zM391 334c34 17 64 35 86 52c24 17 29 24 29 40c0 11 -5 18 -12 18c-36 0 -76 -47 -103 -110z" />
    <glyph glyph-name="aeacute" unicode="&#x1fd;" 
d="M396 -23c-56 0 -97 25 -123 69c-45 -45 -95 -71 -145 -71c-94 0 -153 68 -153 169c0 118 96 212 218 212c24 0 47 -3 68 -10c4 20 6 35 6 49c0 28 -8 38 -31 38c-20 0 -46 -10 -79 -33c-11 -7 -25 -12 -40 -12c-39 0 -70 31 -70 70c0 25 13 46 32 59c54 36 109 56 157 56
c52 0 93 -21 119 -59c40 43 89 70 144 70c86 0 147 -70 147 -160c0 -70 -26 -109 -91 -151c-47 -30 -121 -62 -195 -87c1 -58 16 -69 36 -69c17 0 36 11 68 44c13 14 31 22 51 22c39 0 70 -31 70 -70c0 -19 -7 -36 -19 -48c-55 -58 -109 -88 -170 -88zM115 144
c0 -22 5 -29 13 -29c32 0 76 37 112 98l1 10c-13 9 -28 13 -48 13c-45 0 -78 -39 -78 -92zM222 675c0 25 13 47 33 59l230 150c11 8 25 12 39 12c39 0 70 -31 70 -70c0 -25 -13 -47 -33 -59l-230 -150c-11 -8 -25 -12 -39 -12c-39 0 -70 31 -70 70zM391 334
c34 17 64 35 86 52c24 17 29 24 29 40c0 11 -5 18 -12 18c-36 0 -76 -47 -103 -110z" />
    <glyph glyph-name="b" unicode="b" 
d="M254 -25c-40 0 -81 7 -118 21l-13 -16c-13 -15 -32 -24 -53 -24c-39 0 -70 31 -70 70c0 18 7 34 17 46c19 22 30 49 40 100c3 12 20 111 36 206c13 74 25 144 29 165c21 102 43 177 66 227c11 24 36 41 64 41c39 0 70 -31 70 -70c0 -11 -3 -22 -7 -31
c-17 -35 -33 -88 -49 -164c39 23 76 34 111 34c123 0 205 -98 205 -243c0 -208 -139 -362 -328 -362zM191 125c19 -6 41 -10 63 -10c110 0 188 91 188 222c0 70 -24 103 -65 103c-36 0 -84 -24 -144 -74l-2 -12c-24 -142 -33 -196 -36 -210z" />
    <glyph glyph-name="c" unicode="c" 
d="M275 -23c-144 0 -236 95 -236 246c0 180 170 362 340 362c66 0 135 -26 197 -74c16 -13 27 -33 27 -56c0 -39 -31 -70 -70 -70c-16 0 -32 6 -44 15c-39 31 -74 45 -110 45c-92 0 -200 -119 -200 -222c0 -74 30 -106 96 -106c57 0 112 24 165 74c12 12 29 19 48 19
c39 0 70 -31 70 -70c0 -20 -9 -39 -22 -51c-78 -73 -169 -112 -261 -112z" />
    <glyph glyph-name="cacute" unicode="&#x107;" 
d="M275 -23c-144 0 -236 95 -236 246c0 180 170 362 340 362c66 0 135 -26 197 -74c16 -13 27 -33 27 -56c0 -39 -31 -70 -70 -70c-16 0 -32 6 -44 15c-39 31 -74 45 -110 45c-92 0 -200 -119 -200 -222c0 -74 30 -106 96 -106c57 0 112 24 165 74c12 12 29 19 48 19
c39 0 70 -31 70 -70c0 -20 -9 -39 -22 -51c-78 -73 -169 -112 -261 -112zM222 675c0 25 13 47 33 59l230 150c11 8 25 12 39 12c39 0 70 -31 70 -70c0 -25 -13 -47 -33 -59l-230 -150c-11 -8 -25 -12 -39 -12c-39 0 -70 31 -70 70z" />
    <glyph glyph-name="ccaron" unicode="&#x10d;" 
d="M275 -23c-144 0 -236 95 -236 246c0 180 170 362 340 362c66 0 135 -26 197 -74c16 -13 27 -33 27 -56c0 -39 -31 -70 -70 -70c-16 0 -32 6 -44 15c-39 31 -74 45 -110 45c-92 0 -200 -119 -200 -222c0 -74 30 -106 96 -106c57 0 112 24 165 74c12 12 29 19 48 19
c39 0 70 -31 70 -70c0 -20 -9 -39 -22 -51c-78 -73 -169 -112 -261 -112zM163 806c0 39 31 70 70 70c21 0 40 -9 53 -24c27 -32 59 -62 99 -93c58 32 115 67 173 105c11 8 25 12 39 12c39 0 70 -31 70 -70c0 -25 -13 -47 -33 -59c-73 -48 -146 -92 -220 -133
c-10 -6 -22 -9 -35 -9c-16 0 -30 5 -42 14c-63 47 -116 94 -157 141c-10 12 -17 28 -17 46z" />
    <glyph glyph-name="ccedilla" unicode="&#xe7;" 
d="M153 -267l-27 1c-36 3 -64 33 -64 70c0 39 31 70 70 70c4 0 7 0 10 -1h11c54 0 97 27 97 50c0 2 -7 8 -26 11c-32 5 -57 32 -59 65c-79 37 -126 116 -126 224c0 180 170 362 340 362c66 0 135 -26 197 -74c16 -13 27 -33 27 -56c0 -39 -31 -70 -70 -70
c-16 0 -32 6 -44 15c-39 31 -74 45 -110 45c-92 0 -200 -119 -200 -222c0 -74 30 -106 96 -106c57 0 112 24 165 74c12 12 29 19 48 19c39 0 70 -31 70 -70c0 -20 -9 -39 -22 -51c-50 -47 -106 -80 -163 -97c11 -20 17 -44 17 -69c0 -109 -108 -190 -237 -190z" />
    <glyph glyph-name="ccircumflex" unicode="&#x109;" 
d="M275 -23c-144 0 -236 95 -236 246c0 180 170 362 340 362c66 0 135 -26 197 -74c16 -13 27 -33 27 -56c0 -39 -31 -70 -70 -70c-16 0 -32 6 -44 15c-39 31 -74 45 -110 45c-92 0 -200 -119 -200 -222c0 -74 30 -106 96 -106c57 0 112 24 165 74c12 12 29 19 48 19
c39 0 70 -31 70 -70c0 -20 -9 -39 -22 -51c-78 -73 -169 -112 -261 -112zM137 675c0 25 13 47 33 59c73 48 146 92 220 133c10 6 22 9 35 9c16 0 30 -5 42 -14c63 -47 116 -94 157 -141c10 -12 17 -28 17 -46c0 -39 -31 -70 -70 -70c-21 0 -40 9 -53 24
c-27 32 -59 62 -99 93c-58 -32 -115 -67 -173 -105c-11 -8 -25 -12 -39 -12c-39 0 -70 31 -70 70z" />
    <glyph glyph-name="cdotaccent" unicode="&#x10b;" 
d="M275 -23c-144 0 -236 95 -236 246c0 180 170 362 340 362c66 0 135 -26 197 -74c16 -13 27 -33 27 -56c0 -39 -31 -70 -70 -70c-16 0 -32 6 -44 15c-39 31 -74 45 -110 45c-92 0 -200 -119 -200 -222c0 -74 30 -106 96 -106c57 0 112 24 165 74c12 12 29 19 48 19
c39 0 70 -31 70 -70c0 -20 -9 -39 -22 -51c-78 -73 -169 -112 -261 -112zM305 702c6 95 33 155 108 155c49 0 87 -39 87 -88c0 -41 -33 -92 -72 -126c-12 -11 -28 -17 -46 -17c-38 0 -77 35 -77 76z" />
    <glyph glyph-name="d" unicode="d" 
d="M218 -21c-115 0 -194 79 -194 195c0 198 167 402 334 402c39 0 78 -8 114 -23c25 86 51 166 72 223c9 27 35 47 66 47c39 0 70 -31 70 -70c0 -9 -2 -18 -5 -26c-56 -151 -143 -451 -143 -593c0 -33 5 -66 11 -75c7 -11 11 -24 11 -38c0 -39 -31 -70 -70 -70
c-26 0 -48 14 -60 34c-9 16 -17 36 -22 59c-60 -44 -120 -65 -184 -65zM164 174c0 -37 19 -55 64 -55c57 0 108 20 167 69c6 65 21 146 41 228c-22 12 -51 20 -78 20c-86 0 -194 -141 -194 -262z" />
    <glyph glyph-name="eth" unicode="&#xf0;" 
d="M254 -22c-140 0 -227 80 -227 211c0 192 165 363 353 363c9 0 18 0 26 -1c-13 22 -29 43 -48 61c-45 -19 -87 -37 -119 -51c-8 -3 -16 -5 -25 -5c-33 0 -60 27 -60 60c0 25 15 46 37 55l44 20c-23 11 -39 34 -39 62c0 39 31 70 70 70c10 0 19 -2 28 -6
c39 -16 74 -35 106 -58c53 22 104 42 140 56c7 2 14 4 22 4c33 0 60 -27 60 -60c0 -27 -17 -49 -41 -57l-86 -34c63 -80 97 -181 97 -293c0 -215 -152 -397 -338 -397zM167 189c0 -51 22 -71 87 -71c105 0 198 119 198 257v14c-17 21 -44 33 -72 33
c-110 0 -213 -112 -213 -233z" />
    <glyph glyph-name="dcaron" unicode="&#x10f;" 
d="M158 -19c-100 0 -161 87 -161 205c0 187 149 392 292 392c24 0 48 -4 70 -13c20 80 39 152 53 203c8 31 35 53 68 53c39 0 70 -31 70 -70c0 -7 -1 -14 -3 -20c-41 -147 -122 -465 -122 -583c0 -28 3 -43 9 -50c14 -14 25 -33 25 -56c0 -39 -31 -70 -70 -70
c-16 0 -31 5 -43 14c-14 11 -25 25 -34 43c-50 -32 -100 -48 -154 -48zM137 186c0 -49 10 -65 27 -65c36 0 76 20 123 67c5 63 21 149 40 238c-11 7 -25 12 -38 12c-58 0 -152 -147 -152 -252zM511 473c0 10 2 20 7 28c32 52 50 113 50 151c0 20 -7 31 -7 39
c0 33 27 60 60 60c31 0 55 -24 62 -53c4 -17 5 -31 5 -46c0 -56 -28 -136 -63 -206c-10 -20 -30 -33 -54 -33c-34 0 -60 26 -60 60z" />
    <glyph glyph-name="dcroat" unicode="&#x111;" 
d="M218 -21c-115 0 -194 79 -194 195c0 198 167 402 334 402c39 0 78 -8 114 -23l25 83c-48 -5 -95 -10 -142 -16c-3 -1 -5 -1 -9 -1c-33 0 -60 27 -60 60c0 31 23 56 54 60c49 7 128 15 198 20l6 17c9 27 35 47 66 47c37 0 67 -28 70 -64c20 -9 33 -30 33 -54
c0 -32 -25 -59 -58 -60h-9c-53 -161 -114 -392 -114 -511c0 -33 5 -66 11 -75c7 -11 11 -24 11 -38c0 -39 -31 -70 -70 -70c-26 0 -48 14 -60 34c-9 16 -17 36 -22 59c-60 -44 -120 -65 -184 -65zM164 174c0 -37 19 -55 64 -55c57 0 108 20 167 69c6 65 21 146 41 228
c-22 12 -51 20 -78 20c-86 0 -194 -141 -194 -262z" />
    <glyph glyph-name="e" unicode="e" 
d="M279 -24c-149 0 -235 91 -235 246c0 196 156 362 343 362c109 0 202 -71 202 -164c0 -66 -40 -107 -110 -144c-64 -36 -172 -78 -287 -114c13 -33 40 -46 87 -46c54 0 101 19 161 66c12 9 28 15 44 15c39 0 70 -31 70 -70c0 -23 -11 -43 -27 -56
c-83 -64 -162 -95 -248 -95zM194 290c89 28 170 62 219 89c20 11 36 23 36 33c0 14 -28 32 -62 32c-88 0 -166 -66 -193 -154z" />
    <glyph glyph-name="eacute" unicode="&#xe9;" 
d="M279 -24c-149 0 -235 91 -235 246c0 196 156 362 343 362c109 0 202 -71 202 -164c0 -66 -40 -107 -110 -144c-64 -36 -172 -78 -287 -114c13 -33 40 -46 87 -46c54 0 101 19 161 66c12 9 28 15 44 15c39 0 70 -31 70 -70c0 -23 -11 -43 -27 -56
c-83 -64 -162 -95 -248 -95zM194 290c89 28 170 62 219 89c20 11 36 23 36 33c0 14 -28 32 -62 32c-88 0 -166 -66 -193 -154zM222 675c0 25 13 47 33 59l230 150c11 8 25 12 39 12c39 0 70 -31 70 -70c0 -25 -13 -47 -33 -59l-230 -150c-11 -8 -25 -12 -39 -12
c-39 0 -70 31 -70 70z" />
    <glyph glyph-name="ebreve" unicode="&#x115;" 
d="M279 -24c-149 0 -235 91 -235 246c0 196 156 362 343 362c109 0 202 -71 202 -164c0 -66 -40 -107 -110 -144c-64 -36 -172 -78 -287 -114c13 -33 40 -46 87 -46c54 0 101 19 161 66c12 9 28 15 44 15c39 0 70 -31 70 -70c0 -23 -11 -43 -27 -56
c-83 -64 -162 -95 -248 -95zM170 799c0 39 31 70 70 70c37 0 67 -29 70 -65c2 -29 35 -52 87 -52c57 0 107 30 126 74c10 26 35 45 65 45c39 0 70 -31 70 -70c0 -10 -2 -20 -6 -28c-41 -97 -142 -161 -255 -161c-122 0 -222 75 -227 187zM194 290c89 28 170 62 219 89
c20 11 36 23 36 33c0 14 -28 32 -62 32c-88 0 -166 -66 -193 -154z" />
    <glyph glyph-name="ecaron" unicode="&#x11b;" 
d="M279 -24c-149 0 -235 91 -235 246c0 196 156 362 343 362c109 0 202 -71 202 -164c0 -66 -40 -107 -110 -144c-64 -36 -172 -78 -287 -114c13 -33 40 -46 87 -46c54 0 101 19 161 66c12 9 28 15 44 15c39 0 70 -31 70 -70c0 -23 -11 -43 -27 -56
c-83 -64 -162 -95 -248 -95zM163 806c0 39 31 70 70 70c21 0 40 -9 53 -24c27 -32 59 -62 99 -93c58 32 115 67 173 105c11 8 25 12 39 12c39 0 70 -31 70 -70c0 -25 -13 -47 -33 -59c-73 -48 -146 -92 -220 -133c-10 -6 -22 -9 -35 -9c-16 0 -30 5 -42 14
c-63 47 -116 94 -157 141c-10 12 -17 28 -17 46zM194 290c89 28 170 62 219 89c20 11 36 23 36 33c0 14 -28 32 -62 32c-88 0 -166 -66 -193 -154z" />
    <glyph glyph-name="ecircumflex" unicode="&#xea;" 
d="M279 -24c-149 0 -235 91 -235 246c0 196 156 362 343 362c109 0 202 -71 202 -164c0 -66 -40 -107 -110 -144c-64 -36 -172 -78 -287 -114c13 -33 40 -46 87 -46c54 0 101 19 161 66c12 9 28 15 44 15c39 0 70 -31 70 -70c0 -23 -11 -43 -27 -56
c-83 -64 -162 -95 -248 -95zM137 675c0 25 13 47 33 59c73 48 146 92 220 133c10 6 22 9 35 9c16 0 30 -5 42 -14c63 -47 116 -94 157 -141c10 -12 17 -28 17 -46c0 -39 -31 -70 -70 -70c-21 0 -40 9 -53 24c-27 32 -59 62 -99 93c-58 -32 -115 -67 -173 -105
c-11 -8 -25 -12 -39 -12c-39 0 -70 31 -70 70zM194 290c89 28 170 62 219 89c20 11 36 23 36 33c0 14 -28 32 -62 32c-88 0 -166 -66 -193 -154z" />
    <glyph glyph-name="edieresis" unicode="&#xeb;" 
d="M279 -24c-149 0 -235 91 -235 246c0 196 156 362 343 362c109 0 202 -71 202 -164c0 -66 -40 -107 -110 -144c-64 -36 -172 -78 -287 -114c13 -33 40 -46 87 -46c54 0 101 19 161 66c12 9 28 15 44 15c39 0 70 -31 70 -70c0 -23 -11 -43 -27 -56
c-83 -64 -162 -95 -248 -95zM194 290c89 28 170 62 219 89c20 11 36 23 36 33c0 14 -28 32 -62 32c-88 0 -166 -66 -193 -154zM225 681c0 43 5 74 18 101c11 25 35 42 64 42c39 0 70 -31 70 -70c0 -11 -3 -22 -7 -31c-4 -8 -5 -15 -5 -42c0 -39 -31 -70 -70 -70
s-70 31 -70 70zM420 692c0 11 2 21 7 30c1 2 4 20 10 54c4 34 34 60 69 60c39 0 70 -31 70 -70c0 -4 0 -8 -1 -12c-6 -36 -12 -69 -20 -87c-10 -26 -35 -45 -65 -45c-39 0 -70 31 -70 70z" />
    <glyph glyph-name="edotaccent" unicode="&#x117;" 
d="M279 -24c-149 0 -235 91 -235 246c0 196 156 362 343 362c109 0 202 -71 202 -164c0 -66 -40 -107 -110 -144c-64 -36 -172 -78 -287 -114c13 -33 40 -46 87 -46c54 0 101 19 161 66c12 9 28 15 44 15c39 0 70 -31 70 -70c0 -23 -11 -43 -27 -56
c-83 -64 -162 -95 -248 -95zM194 290c89 28 170 62 219 89c20 11 36 23 36 33c0 14 -28 32 -62 32c-88 0 -166 -66 -193 -154zM305 702c6 95 33 155 108 155c49 0 87 -39 87 -88c0 -41 -33 -92 -72 -126c-12 -11 -28 -17 -46 -17c-38 0 -77 35 -77 76z" />
    <glyph glyph-name="egrave" unicode="&#xe8;" 
d="M279 -24c-149 0 -235 91 -235 246c0 196 156 362 343 362c109 0 202 -71 202 -164c0 -66 -40 -107 -110 -144c-64 -36 -172 -78 -287 -114c13 -33 40 -46 87 -46c54 0 101 19 161 66c12 9 28 15 44 15c39 0 70 -31 70 -70c0 -23 -11 -43 -27 -56
c-83 -64 -162 -95 -248 -95zM194 290c89 28 170 62 219 89c20 11 36 23 36 33c0 14 -28 32 -62 32c-88 0 -166 -66 -193 -154zM244 806c0 39 31 70 70 70c18 0 34 -7 46 -17l172 -151c15 -13 24 -32 24 -53c0 -39 -31 -70 -70 -70c-18 0 -34 7 -46 17l-172 151
c-15 13 -24 32 -24 53z" />
    <glyph glyph-name="emacron" unicode="&#x113;" 
d="M279 -24c-149 0 -235 91 -235 246c0 196 156 362 343 362c109 0 202 -71 202 -164c0 -66 -40 -107 -110 -144c-64 -36 -172 -78 -287 -114c13 -33 40 -46 87 -46c54 0 101 19 161 66c12 9 28 15 44 15c39 0 70 -31 70 -70c0 -23 -11 -43 -27 -56
c-83 -64 -162 -95 -248 -95zM134 691c0 36 27 65 62 69c112 16 298 23 388 23c39 0 70 -31 70 -70s-31 -70 -70 -70c-87 0 -264 -7 -369 -21c-4 -1 -7 -1 -11 -1c-39 0 -70 31 -70 70zM194 290c89 28 170 62 219 89c20 11 36 23 36 33c0 14 -28 32 -62 32
c-88 0 -166 -66 -193 -154z" />
    <glyph glyph-name="eogonek" unicode="&#x119;" 
d="M313 -201c-76 0 -136 48 -136 115c0 25 9 48 26 71c-102 27 -159 111 -159 237c0 196 156 362 343 362c109 0 202 -71 202 -164c0 -66 -40 -107 -110 -144c-64 -36 -172 -78 -287 -114c13 -33 40 -46 87 -46c54 0 101 19 161 66c12 9 28 15 44 15c39 0 70 -31 70 -70
c0 -23 -11 -43 -27 -56c-49 -38 -97 -64 -146 -79c-36 -18 -64 -38 -64 -47c0 -4 2 -6 5 -6c17 0 44 12 67 29c12 9 26 14 42 14c39 0 70 -31 70 -70c0 -23 -11 -44 -29 -57c-46 -34 -109 -56 -159 -56zM194 290c89 28 170 62 219 89c20 11 36 23 36 33c0 14 -28 32 -62 32
c-88 0 -166 -66 -193 -154z" />
    <glyph glyph-name="uni0259" unicode="&#x259;" 
d="M341 584c149 0 235 -91 235 -246c0 -196 -156 -362 -343 -362c-109 0 -202 71 -202 164c0 66 40 107 110 144c64 36 172 78 287 114c-13 33 -40 46 -87 46c-54 0 -101 -19 -161 -66c-12 -9 -28 -15 -44 -15c-39 0 -70 31 -70 70c0 23 11 43 27 56c83 64 162 95 248 95z
M171 148c0 -14 28 -32 62 -32c88 0 166 66 193 154c-89 -28 -170 -62 -219 -89c-20 -11 -36 -23 -36 -33z" />
    <glyph glyph-name="f" unicode="f" 
d="M89 -217c-70 0 -132 27 -171 76c-9 12 -15 27 -15 44c0 39 31 70 70 70c23 0 43 -11 55 -27c12 -15 31 -23 61 -23c63 0 89 28 114 153c12 56 19 199 29 317h-13c-32 0 -63 1 -92 2c-37 2 -67 32 -67 70c0 39 31 70 70 70c2 0 59 -2 89 -2h28c0 3 1 5 1 7
c38 195 119 277 283 277c33 0 70 -4 100 -12c32 -7 55 -35 55 -68c0 -39 -31 -70 -70 -70c-6 0 -12 1 -18 2c-20 5 -44 8 -67 8c-83 0 -114 -26 -139 -137c58 5 115 13 167 23c4 1 9 1 14 1c39 0 70 -31 70 -70c0 -35 -25 -63 -58 -69c-65 -12 -138 -21 -212 -27
c-11 -119 -19 -285 -32 -350c-37 -184 -111 -265 -252 -265z" />
    <glyph glyph-name="g" unicode="g" 
d="M199 -223c-89 0 -170 28 -222 78c-14 13 -22 31 -22 51c0 39 31 70 70 70c19 0 36 -7 48 -19c27 -25 71 -40 126 -40c100 0 155 42 183 153c-50 -34 -102 -50 -157 -50c-120 0 -193 70 -193 190c0 193 149 366 321 366c44 0 87 -13 126 -37l4 8c11 23 35 39 63 39
c39 0 70 -31 70 -70c0 -12 -3 -23 -8 -33c-12 -22 -21 -48 -25 -72c-6 -29 -16 -88 -25 -152c-11 -68 -22 -140 -30 -183c-40 -199 -149 -299 -329 -299zM172 210c0 -38 11 -50 63 -50c61 0 115 26 180 90l4 30c7 42 13 83 19 116c-28 28 -56 40 -85 40
c-92 0 -181 -109 -181 -226z" />
    <glyph glyph-name="gbreve" unicode="&#x11f;" 
d="M199 -223c-89 0 -170 28 -222 78c-14 13 -22 31 -22 51c0 39 31 70 70 70c19 0 36 -7 48 -19c27 -25 71 -40 126 -40c100 0 155 42 183 153c-50 -34 -102 -50 -157 -50c-120 0 -193 70 -193 190c0 193 149 366 321 366c44 0 87 -13 126 -37l4 8c11 23 35 39 63 39
c39 0 70 -31 70 -70c0 -12 -3 -23 -8 -33c-12 -22 -21 -48 -25 -72c-6 -29 -16 -88 -25 -152c-11 -68 -22 -140 -30 -183c-40 -199 -149 -299 -329 -299zM170 799c0 39 31 70 70 70c37 0 67 -29 70 -65c2 -29 35 -52 87 -52c57 0 107 30 126 74c10 26 35 45 65 45
c39 0 70 -31 70 -70c0 -10 -2 -20 -6 -28c-41 -97 -142 -161 -255 -161c-122 0 -222 75 -227 187zM172 210c0 -38 11 -50 63 -50c61 0 115 26 180 90l4 30c7 42 13 83 19 116c-28 28 -56 40 -85 40c-92 0 -181 -109 -181 -226z" />
    <glyph glyph-name="gcircumflex" unicode="&#x11d;" 
d="M199 -223c-89 0 -170 28 -222 78c-14 13 -22 31 -22 51c0 39 31 70 70 70c19 0 36 -7 48 -19c27 -25 71 -40 126 -40c100 0 155 42 183 153c-50 -34 -102 -50 -157 -50c-120 0 -193 70 -193 190c0 193 149 366 321 366c44 0 87 -13 126 -37l4 8c11 23 35 39 63 39
c39 0 70 -31 70 -70c0 -12 -3 -23 -8 -33c-12 -22 -21 -48 -25 -72c-6 -29 -16 -88 -25 -152c-11 -68 -22 -140 -30 -183c-40 -199 -149 -299 -329 -299zM137 675c0 25 13 47 33 59c73 48 146 92 220 133c10 6 22 9 35 9c16 0 30 -5 42 -14c63 -47 116 -94 157 -141
c10 -12 17 -28 17 -46c0 -39 -31 -70 -70 -70c-21 0 -40 9 -53 24c-27 32 -59 62 -99 93c-58 -32 -115 -67 -173 -105c-11 -8 -25 -12 -39 -12c-39 0 -70 31 -70 70zM172 210c0 -38 11 -50 63 -50c61 0 115 26 180 90l4 30c7 42 13 83 19 116c-28 28 -56 40 -85 40
c-92 0 -181 -109 -181 -226z" />
    <glyph glyph-name="uni0123" unicode="&#x123;" 
d="M199 -223c-89 0 -170 28 -222 78c-14 13 -22 31 -22 51c0 39 31 70 70 70c19 0 36 -7 48 -19c27 -25 71 -40 126 -40c100 0 155 42 183 153c-50 -34 -102 -50 -157 -50c-120 0 -193 70 -193 190c0 193 149 366 321 366c44 0 87 -13 126 -37l4 8c11 23 35 39 63 39
c39 0 70 -31 70 -70c0 -12 -3 -23 -8 -33c-12 -22 -21 -48 -25 -72c-6 -29 -16 -88 -25 -152c-11 -68 -22 -140 -30 -183c-40 -199 -149 -299 -329 -299zM172 210c0 -38 11 -50 63 -50c61 0 115 26 180 90l4 30c7 42 13 83 19 116c-28 28 -56 40 -85 40
c-92 0 -181 -109 -181 -226zM331 667c0 15 5 28 12 40c26 38 91 107 134 141c12 10 27 16 44 16c39 0 70 -31 70 -70c0 -22 -10 -42 -27 -55c-33 -26 -85 -82 -104 -110c-13 -19 -34 -32 -59 -32c-39 0 -70 31 -70 70z" />
    <glyph glyph-name="gdotaccent" unicode="&#x121;" 
d="M199 -223c-89 0 -170 28 -222 78c-14 13 -22 31 -22 51c0 39 31 70 70 70c19 0 36 -7 48 -19c27 -25 71 -40 126 -40c100 0 155 42 183 153c-50 -34 -102 -50 -157 -50c-120 0 -193 70 -193 190c0 193 149 366 321 366c44 0 87 -13 126 -37l4 8c11 23 35 39 63 39
c39 0 70 -31 70 -70c0 -12 -3 -23 -8 -33c-12 -22 -21 -48 -25 -72c-6 -29 -16 -88 -25 -152c-11 -68 -22 -140 -30 -183c-40 -199 -149 -299 -329 -299zM172 210c0 -38 11 -50 63 -50c61 0 115 26 180 90l4 30c7 42 13 83 19 116c-28 28 -56 40 -85 40
c-92 0 -181 -109 -181 -226zM305 702c6 95 33 155 108 155c49 0 87 -39 87 -88c0 -41 -33 -92 -72 -126c-12 -11 -28 -17 -46 -17c-38 0 -77 35 -77 76z" />
    <glyph glyph-name="h" unicode="h" 
d="M418 -59c-39 0 -70 31 -70 70c0 8 1 15 3 22c50 165 84 316 84 370c0 26 -1 29 -5 29c-38 0 -126 -64 -208 -159c-16 -66 -35 -141 -60 -240c-7 -31 -35 -54 -68 -54c-39 0 -70 31 -70 70c0 7 1 13 3 19c79 311 94 377 133 695c4 35 34 62 70 62c39 0 70 -31 70 -70
c0 -3 0 -7 -1 -10c-14 -110 -25 -192 -36 -263c65 59 128 92 181 92c83 0 131 -69 131 -171c0 -88 -53 -289 -89 -411c-9 -29 -36 -51 -68 -51z" />
    <glyph glyph-name="hbar" unicode="&#x127;" 
d="M418 -59c-39 0 -70 31 -70 70c0 8 1 15 3 22c50 165 84 316 84 370c0 26 -1 29 -5 29c-38 0 -126 -64 -208 -159c-16 -66 -35 -141 -60 -240c-7 -31 -35 -54 -68 -54c-39 0 -70 31 -70 70c0 7 1 13 3 19c65 258 87 347 115 551h-1c-33 0 -60 27 -60 60c0 31 23 56 54 60
l22 3l3 21c4 35 34 62 70 62c39 0 69 -30 70 -69c59 5 115 9 148 9c34 0 60 -26 60 -60c0 -32 -25 -59 -58 -60c-54 -2 -110 -5 -165 -10c-8 -58 -15 -108 -22 -153c65 59 128 92 181 92c83 0 131 -69 131 -171c0 -88 -53 -289 -89 -411c-9 -29 -36 -51 -68 -51z" />
    <glyph glyph-name="hcircumflex" unicode="&#x125;" 
d="M418 -59c-39 0 -70 31 -70 70c0 8 1 15 3 22c50 165 84 316 84 370c0 26 -1 29 -5 29c-38 0 -126 -64 -208 -159c-16 -66 -35 -141 -60 -240c-7 -31 -35 -54 -68 -54c-39 0 -70 31 -70 70c0 7 1 13 3 19c79 311 94 377 133 695c4 35 34 62 70 62c39 0 70 -31 70 -70
c0 -3 0 -7 -1 -10c-14 -110 -25 -192 -36 -263c65 59 128 92 181 92c83 0 131 -69 131 -171c0 -88 -53 -289 -89 -411c-9 -29 -36 -51 -68 -51zM185 915c0 25 13 47 33 59c73 48 146 92 220 133c10 6 22 9 35 9c16 0 30 -5 42 -14c63 -47 116 -94 157 -141
c10 -12 17 -28 17 -46c0 -39 -31 -70 -70 -70c-21 0 -40 9 -53 24c-27 32 -59 62 -99 93c-58 -32 -115 -67 -173 -105c-11 -8 -25 -12 -39 -12c-39 0 -70 31 -70 70z" />
    <glyph glyph-name="i" unicode="i" 
d="M342 -15c-100 0 -157 49 -157 144s50 230 50 247c0 3 -1 5 -5 5c-14 0 -58 -31 -80 -51c-12 -10 -28 -17 -46 -17c-39 0 -70 31 -70 70c0 21 9 40 24 53c84 73 188 121 263 121c48 0 86 -33 86 -82c0 -45 -81 -255 -81 -337c0 -10 4 -13 16 -13c25 0 73 18 104 40
c12 8 26 13 41 13c39 0 70 -31 70 -70c0 -24 -12 -45 -31 -58c-54 -37 -131 -65 -184 -65zM296 706c4 79 35 131 104 131c49 0 87 -39 87 -88c0 -47 -41 -97 -85 -116c-8 -5 -18 -7 -29 -7c-19 0 -36 8 -49 20c-19 14 -28 34 -28 60z" />
    <glyph glyph-name="dotlessi" unicode="&#x131;" 
d="M342 -15c-100 0 -157 49 -157 144s50 230 50 247c0 3 -1 5 -5 5c-14 0 -58 -31 -80 -51c-12 -10 -28 -17 -46 -17c-39 0 -70 31 -70 70c0 21 9 40 24 53c84 73 188 121 263 121c48 0 86 -33 86 -82c0 -45 -81 -255 -81 -337c0 -10 4 -13 16 -13c25 0 73 18 104 40
c12 8 26 13 41 13c39 0 70 -31 70 -70c0 -24 -12 -45 -31 -58c-54 -37 -131 -65 -184 -65z" />
    <glyph glyph-name="iacute" unicode="&#xed;" 
d="M342 -15c-100 0 -157 49 -157 144s50 230 50 247c0 3 -1 5 -5 5c-14 0 -58 -31 -80 -51c-12 -10 -28 -17 -46 -17c-39 0 -70 31 -70 70c0 21 9 40 24 53c84 73 188 121 263 121c48 0 86 -33 86 -82c0 -45 -81 -255 -81 -337c0 -10 4 -13 16 -13c25 0 73 18 104 40
c12 8 26 13 41 13c39 0 70 -31 70 -70c0 -24 -12 -45 -31 -58c-54 -37 -131 -65 -184 -65zM222 675c0 25 13 47 33 59l230 150c11 8 25 12 39 12c39 0 70 -31 70 -70c0 -25 -13 -47 -33 -59l-230 -150c-11 -8 -25 -12 -39 -12c-39 0 -70 31 -70 70z" />
    <glyph glyph-name="ibreve" unicode="&#x12d;" 
d="M342 -15c-100 0 -157 49 -157 144s50 230 50 247c0 3 -1 5 -5 5c-14 0 -58 -31 -80 -51c-12 -10 -28 -17 -46 -17c-39 0 -70 31 -70 70c0 21 9 40 24 53c84 73 188 121 263 121c48 0 86 -33 86 -82c0 -45 -81 -255 -81 -337c0 -10 4 -13 16 -13c25 0 73 18 104 40
c12 8 26 13 41 13c39 0 70 -31 70 -70c0 -24 -12 -45 -31 -58c-54 -37 -131 -65 -184 -65zM170 799c0 39 31 70 70 70c37 0 67 -29 70 -65c2 -29 35 -52 87 -52c57 0 107 30 126 74c10 26 35 45 65 45c39 0 70 -31 70 -70c0 -10 -2 -20 -6 -28c-41 -97 -142 -161 -255 -161
c-122 0 -222 75 -227 187z" />
    <glyph glyph-name="icircumflex" unicode="&#xee;" 
d="M342 -15c-100 0 -157 49 -157 144s50 230 50 247c0 3 -1 5 -5 5c-14 0 -58 -31 -80 -51c-12 -10 -28 -17 -46 -17c-39 0 -70 31 -70 70c0 21 9 40 24 53c84 73 188 121 263 121c48 0 86 -33 86 -82c0 -45 -81 -255 -81 -337c0 -10 4 -13 16 -13c25 0 73 18 104 40
c12 8 26 13 41 13c39 0 70 -31 70 -70c0 -24 -12 -45 -31 -58c-54 -37 -131 -65 -184 -65zM137 675c0 25 13 47 33 59c73 48 146 92 220 133c10 6 22 9 35 9c16 0 30 -5 42 -14c63 -47 116 -94 157 -141c10 -12 17 -28 17 -46c0 -39 -31 -70 -70 -70c-21 0 -40 9 -53 24
c-27 32 -59 62 -99 93c-58 -32 -115 -67 -173 -105c-11 -8 -25 -12 -39 -12c-39 0 -70 31 -70 70z" />
    <glyph glyph-name="idieresis" unicode="&#xef;" 
d="M342 -15c-100 0 -157 49 -157 144s50 230 50 247c0 3 -1 5 -5 5c-14 0 -58 -31 -80 -51c-12 -10 -28 -17 -46 -17c-39 0 -70 31 -70 70c0 21 9 40 24 53c84 73 188 121 263 121c48 0 86 -33 86 -82c0 -45 -81 -255 -81 -337c0 -10 4 -13 16 -13c25 0 73 18 104 40
c12 8 26 13 41 13c39 0 70 -31 70 -70c0 -24 -12 -45 -31 -58c-54 -37 -131 -65 -184 -65zM225 681c0 43 5 74 18 101c11 25 35 42 64 42c39 0 70 -31 70 -70c0 -11 -3 -22 -7 -31c-4 -8 -5 -15 -5 -42c0 -39 -31 -70 -70 -70s-70 31 -70 70zM420 692c0 11 2 21 7 30
c1 2 4 20 10 54c4 34 34 60 69 60c39 0 70 -31 70 -70c0 -4 0 -8 -1 -12c-6 -36 -12 -69 -20 -87c-10 -26 -35 -45 -65 -45c-39 0 -70 31 -70 70z" />
    <glyph glyph-name="igrave" unicode="&#xec;" 
d="M342 -15c-100 0 -157 49 -157 144s50 230 50 247c0 3 -1 5 -5 5c-14 0 -58 -31 -80 -51c-12 -10 -28 -17 -46 -17c-39 0 -70 31 -70 70c0 21 9 40 24 53c84 73 188 121 263 121c48 0 86 -33 86 -82c0 -45 -81 -255 -81 -337c0 -10 4 -13 16 -13c25 0 73 18 104 40
c12 8 26 13 41 13c39 0 70 -31 70 -70c0 -24 -12 -45 -31 -58c-54 -37 -131 -65 -184 -65zM244 806c0 39 31 70 70 70c18 0 34 -7 46 -17l172 -151c15 -13 24 -32 24 -53c0 -39 -31 -70 -70 -70c-18 0 -34 7 -46 17l-172 151c-15 13 -24 32 -24 53z" />
    <glyph glyph-name="ij" unicode="&#x133;" 
d="M268 -221c-54 0 -106 17 -139 50c-13 13 -21 30 -21 50c0 39 31 70 70 70c19 0 37 -8 50 -21c4 -4 20 -9 40 -9c49 0 89 47 107 142c16 74 56 340 63 441c2 37 33 66 70 66c39 0 70 -31 70 -70v-5c-8 -108 -49 -381 -65 -460c-31 -157 -122 -254 -245 -254zM28 48v3
c3 104 64 367 97 457c9 28 35 48 66 48c39 0 70 -31 70 -70c0 -9 -2 -18 -5 -25c-29 -83 -85 -324 -88 -415c-1 -38 -32 -68 -70 -68c-39 0 -70 31 -70 70zM149 697c0 78 32 140 105 140c49 0 88 -34 88 -84c0 -43 -33 -87 -74 -117c-12 -9 -26 -14 -42 -14
c-17 0 -32 6 -44 16c-20 12 -33 34 -33 59zM458 725c0 63 39 118 100 118c49 0 86 -37 86 -86c0 -28 -13 -61 -33 -93c-17 -28 -42 -35 -69 -35c-45 0 -69 20 -78 54c-3 12 -6 31 -6 42z" />
    <glyph glyph-name="imacron" unicode="&#x12b;" 
d="M342 -15c-100 0 -157 49 -157 144s50 230 50 247c0 3 -1 5 -5 5c-14 0 -58 -31 -80 -51c-12 -10 -28 -17 -46 -17c-39 0 -70 31 -70 70c0 21 9 40 24 53c84 73 188 121 263 121c48 0 86 -33 86 -82c0 -45 -81 -255 -81 -337c0 -10 4 -13 16 -13c25 0 73 18 104 40
c12 8 26 13 41 13c39 0 70 -31 70 -70c0 -24 -12 -45 -31 -58c-54 -37 -131 -65 -184 -65zM134 691c0 36 27 65 62 69c112 16 298 23 388 23c39 0 70 -31 70 -70s-31 -70 -70 -70c-87 0 -264 -7 -369 -21c-4 -1 -7 -1 -11 -1c-39 0 -70 31 -70 70z" />
    <glyph glyph-name="iogonek" unicode="&#x12f;" 
d="M373 626c-19 0 -36 8 -49 20c-19 14 -28 34 -28 60c4 79 35 131 104 131c49 0 87 -39 87 -88c0 -47 -41 -97 -85 -116c-8 -5 -18 -7 -29 -7zM34 383c0 21 9 40 24 53c84 73 188 121 263 121c48 0 86 -33 86 -82c0 -45 -81 -255 -81 -337c0 -10 4 -13 16 -13
c25 0 73 18 104 40c12 8 26 13 41 13c39 0 70 -31 70 -70c0 -24 -12 -45 -31 -58c-37 -25 -84 -46 -127 -57c-55 -19 -111 -53 -111 -66c0 -4 2 -6 5 -6c17 0 44 12 67 29c12 9 26 14 42 14c39 0 70 -31 70 -70c0 -23 -11 -44 -29 -57c-46 -34 -109 -56 -159 -56
c-76 0 -136 48 -136 115c0 45 31 87 80 124c-28 24 -43 60 -43 109c0 95 50 230 50 247c0 3 -1 5 -5 5c-14 0 -58 -31 -80 -51c-12 -10 -28 -17 -46 -17c-39 0 -70 31 -70 70z" />
    <glyph glyph-name="itilde" unicode="&#x129;" 
d="M342 -15c-100 0 -157 49 -157 144s50 230 50 247c0 3 -1 5 -5 5c-14 0 -58 -31 -80 -51c-12 -10 -28 -17 -46 -17c-39 0 -70 31 -70 70c0 21 9 40 24 53c84 73 188 121 263 121c48 0 86 -33 86 -82c0 -45 -81 -255 -81 -337c0 -10 4 -13 16 -13c25 0 73 18 104 40
c12 8 26 13 41 13c39 0 70 -31 70 -70c0 -24 -12 -45 -31 -58c-54 -37 -131 -65 -184 -65zM106 674c0 10 2 19 5 27c37 93 120 160 209 160c62 0 101 -26 143 -82c21 -26 23 -27 33 -27c22 0 50 27 64 70c9 28 36 49 67 49c39 0 70 -31 70 -70c0 -8 -1 -16 -4 -24
c-33 -97 -109 -165 -197 -165c-62 0 -101 26 -143 82c-21 26 -23 27 -33 27c-28 0 -62 -29 -78 -71c-10 -27 -36 -46 -66 -46c-39 0 -70 31 -70 70z" />
    <glyph glyph-name="j" unicode="j" 
d="M426 618c-45 0 -71 21 -78 55c-3 12 -6 31 -6 40c0 63 38 120 100 120c49 0 86 -37 86 -86c0 -28 -13 -61 -32 -94c-16 -28 -41 -35 -70 -35zM-6 12c0 39 31 70 70 70c34 0 62 -24 69 -56c20 -90 39 -107 91 -107c47 0 89 53 111 162c16 75 52 314 52 333c0 6 -2 8 -6 8
c-24 0 -142 -61 -236 -133c-12 -9 -27 -15 -43 -15c-39 0 -70 31 -70 70c0 23 11 43 28 56c125 97 264 166 337 166c77 0 132 -52 132 -128c0 -54 -43 -321 -56 -385c-36 -172 -125 -274 -249 -274c-126 0 -193 67 -228 216c-1 5 -2 11 -2 17z" />
    <glyph glyph-name="uni0237" unicode="&#x237;" 
d="M224 -221c-126 0 -193 67 -228 216c-1 5 -2 11 -2 17c0 39 31 70 70 70c34 0 62 -24 69 -56c20 -90 39 -107 91 -107c47 0 89 53 111 162c16 75 52 314 52 333c0 6 -2 8 -6 8c-24 0 -142 -61 -236 -133c-12 -9 -27 -15 -43 -15c-39 0 -70 31 -70 70c0 23 11 43 28 56
c125 97 264 166 337 166c77 0 132 -52 132 -128c0 -54 -43 -321 -56 -385c-36 -172 -125 -274 -249 -274z" />
    <glyph glyph-name="jcircumflex" unicode="&#x135;" 
d="M224 -221c-126 0 -193 67 -228 216c-1 5 -2 11 -2 17c0 39 31 70 70 70c34 0 62 -24 69 -56c20 -90 39 -107 91 -107c47 0 89 53 111 162c16 75 52 314 52 333c0 6 -2 8 -6 8c-24 0 -142 -61 -236 -133c-12 -9 -27 -15 -43 -15c-39 0 -70 31 -70 70c0 23 11 43 28 56
c125 97 264 166 337 166c77 0 132 -52 132 -128c0 -54 -43 -321 -56 -385c-36 -172 -125 -274 -249 -274zM137 675c0 25 13 47 33 59c73 48 146 92 220 133c10 6 22 9 35 9c16 0 30 -5 42 -14c63 -47 116 -94 157 -141c10 -12 17 -28 17 -46c0 -39 -31 -70 -70 -70
c-21 0 -40 9 -53 24c-27 32 -59 62 -99 93c-58 -32 -115 -67 -173 -105c-11 -8 -25 -12 -39 -12c-39 0 -70 31 -70 70z" />
    <glyph glyph-name="k" unicode="k" 
d="M473 -18c-24 0 -46 12 -58 31c-43 63 -102 139 -152 195c-25 -15 -52 -29 -78 -42c-13 -44 -26 -90 -40 -137c-8 -29 -35 -51 -67 -51c-39 0 -70 31 -70 70c0 8 1 15 3 22c69 227 111 419 152 687c4 35 34 61 69 61c39 0 70 -31 70 -70c0 -4 0 -8 -1 -12
c-21 -138 -43 -262 -71 -386c105 62 196 132 272 210c13 13 30 21 50 21c39 0 70 -31 70 -70c0 -19 -8 -36 -20 -49c-63 -64 -137 -125 -218 -180c49 -58 105 -130 146 -190c8 -11 13 -25 13 -40c0 -39 -31 -70 -70 -70z" />
    <glyph glyph-name="uni0137" unicode="&#x137;" 
d="M473 -18c-24 0 -46 12 -58 31c-43 63 -102 139 -152 195c-25 -15 -52 -29 -78 -42c-13 -44 -26 -90 -40 -137c-8 -29 -35 -51 -67 -51c-39 0 -70 31 -70 70c0 8 1 15 3 22c69 227 111 419 152 687c4 35 34 61 69 61c39 0 70 -31 70 -70c0 -4 0 -8 -1 -12
c-21 -138 -43 -262 -71 -386c105 62 196 132 272 210c13 13 30 21 50 21c39 0 70 -31 70 -70c0 -19 -8 -36 -20 -49c-63 -64 -137 -125 -218 -180c49 -58 105 -130 146 -190c8 -11 13 -25 13 -40c0 -39 -31 -70 -70 -70zM81 -243c0 22 10 42 27 55c33 26 85 82 104 110
c13 19 34 32 59 32c39 0 70 -31 70 -70c0 -15 -5 -28 -12 -40c-26 -38 -91 -107 -134 -141c-12 -10 -27 -16 -44 -16c-39 0 -70 31 -70 70z" />
    <glyph glyph-name="kgreenlandic" unicode="&#x138;" 
d="M78 -22c-39 0 -70 31 -70 70c0 7 1 15 3 21c41 136 88 330 112 448c6 32 35 57 69 57c39 0 70 -31 70 -70c0 -5 -1 -10 -2 -15c-8 -39 -19 -88 -31 -139c105 62 197 132 273 210c13 13 30 21 50 21c39 0 70 -31 70 -70c0 -19 -8 -36 -20 -49c-63 -64 -137 -125 -218 -180
c49 -58 105 -130 146 -190c8 -11 13 -25 13 -40c0 -39 -31 -70 -70 -70c-24 0 -46 12 -58 31c-43 63 -102 139 -152 195c-26 -15 -52 -29 -79 -42c-13 -49 -26 -95 -38 -136c-9 -30 -36 -52 -68 -52z" />
    <glyph glyph-name="l" unicode="l" 
d="M295 -13c-92 0 -144 56 -144 150c0 96 64 326 119 489c0 1 -1 2 -3 2c-32 -3 -66 -8 -95 -14c-5 -1 -10 -2 -15 -2c-39 0 -70 31 -70 70c0 34 25 63 58 69c67 13 157 24 203 24c49 0 87 -36 87 -84c0 -10 -1 -20 -5 -31c-71 -190 -139 -446 -139 -523c0 -7 3 -10 10 -10
c35 0 96 17 162 46c9 5 19 7 30 7c39 0 70 -31 70 -70c0 -29 -18 -54 -43 -64c-80 -37 -166 -59 -225 -59z" />
    <glyph glyph-name="lacute" unicode="&#x13a;" 
d="M295 -13c-92 0 -144 56 -144 150c0 96 64 326 119 489c0 1 -1 2 -3 2c-32 -3 -66 -8 -95 -14c-5 -1 -10 -2 -15 -2c-39 0 -70 31 -70 70c0 34 25 63 58 69c67 13 157 24 203 24c49 0 87 -36 87 -84c0 -10 -1 -20 -5 -31c-71 -190 -139 -446 -139 -523c0 -7 3 -10 10 -10
c35 0 96 17 162 46c9 5 19 7 30 7c39 0 70 -31 70 -70c0 -29 -18 -54 -43 -64c-80 -37 -166 -59 -225 -59zM270 915c0 25 13 47 33 59l230 150c11 8 25 12 39 12c39 0 70 -31 70 -70c0 -25 -13 -47 -33 -59l-230 -150c-11 -8 -25 -12 -39 -12c-39 0 -70 31 -70 70z" />
    <glyph glyph-name="lcaron" unicode="&#x13e;" 
d="M295 -13c-92 0 -144 56 -144 150c0 96 64 326 119 489c0 1 -1 2 -3 2c-32 -3 -66 -8 -95 -14c-5 -1 -10 -2 -15 -2c-39 0 -70 31 -70 70c0 34 25 63 58 69c67 13 157 24 203 24c49 0 87 -36 87 -84c0 -10 -1 -20 -5 -31c-71 -190 -139 -446 -139 -523c0 -7 3 -10 10 -10
c35 0 96 17 162 46c9 5 19 7 30 7c39 0 70 -31 70 -70c0 -29 -18 -54 -43 -64c-80 -37 -166 -59 -225 -59zM394 452c0 17 6 33 17 45c41 50 67 106 67 143c0 11 -1 14 -3 17c-9 12 -14 26 -14 42c0 39 31 70 70 70c24 0 45 -12 57 -30c20 -27 30 -63 30 -99
c0 -71 -38 -158 -100 -232c-13 -16 -32 -26 -54 -26c-39 0 -70 31 -70 70z" />
    <glyph glyph-name="uni013C" unicode="&#x13c;" 
d="M295 -13c-92 0 -144 56 -144 150c0 96 64 326 119 489c0 1 -1 2 -3 2c-32 -3 -66 -8 -95 -14c-5 -1 -10 -2 -15 -2c-39 0 -70 31 -70 70c0 34 25 63 58 69c67 13 157 24 203 24c49 0 87 -36 87 -84c0 -10 -1 -20 -5 -31c-71 -190 -139 -446 -139 -523c0 -7 3 -10 10 -10
c35 0 96 17 162 46c9 5 19 7 30 7c39 0 70 -31 70 -70c0 -29 -18 -54 -43 -64c-80 -37 -166 -59 -225 -59zM81 -243c0 22 10 42 27 55c33 26 85 82 104 110c13 19 34 32 59 32c39 0 70 -31 70 -70c0 -15 -5 -28 -12 -40c-26 -38 -91 -107 -134 -141c-12 -10 -27 -16 -44 -16
c-39 0 -70 31 -70 70z" />
    <glyph glyph-name="ldot" unicode="&#x140;" 
d="M295 -13c-92 0 -144 56 -144 150c0 96 64 326 119 489c0 1 -1 2 -3 2c-32 -3 -66 -8 -95 -14c-5 -1 -10 -2 -15 -2c-39 0 -70 31 -70 70c0 34 25 63 58 69c67 13 157 24 203 24c49 0 87 -36 87 -84c0 -10 -1 -20 -5 -31c-71 -190 -139 -446 -139 -523c0 -7 3 -10 10 -10
c35 0 96 17 162 46c9 5 19 7 30 7c39 0 70 -31 70 -70c0 -29 -18 -54 -43 -64c-80 -37 -166 -59 -225 -59zM402 392c0 76 61 137 136 137c69 0 127 -48 127 -115c0 -61 -45 -108 -107 -133c-8 -3 -17 -5 -27 -5c-78 0 -129 37 -129 116z" />
    <glyph glyph-name="lslash" unicode="&#x142;" 
d="M295 -13c-92 0 -144 56 -144 150c0 23 4 52 10 87c-18 -9 -34 -17 -49 -25c-10 -6 -22 -9 -34 -9c-39 0 -70 31 -70 70c0 27 16 51 39 63c43 22 96 49 154 77c21 77 46 158 69 226c0 1 -1 2 -3 2c-32 -3 -66 -8 -95 -14c-5 -1 -10 -2 -15 -2c-39 0 -70 31 -70 70
c0 34 25 63 58 69c67 13 157 24 203 24c49 0 87 -36 87 -84c0 -10 -1 -20 -5 -31c-21 -57 -42 -120 -61 -182c47 21 93 41 136 58c9 4 18 6 28 6c39 0 70 -31 70 -70c0 -30 -19 -56 -45 -65c-74 -30 -159 -68 -238 -105c-18 -74 -29 -134 -29 -165c0 -7 3 -10 10 -10
c35 0 96 17 162 46c9 5 19 7 30 7c39 0 70 -31 70 -70c0 -29 -18 -54 -43 -64c-80 -37 -166 -59 -225 -59z" />
    <glyph glyph-name="m" unicode="m" 
d="M478 -15c-39 0 -70 31 -70 70c0 6 1 13 2 18c29 115 57 273 57 319c0 6 0 13 -2 13c-9 0 -51 -36 -79 -71c-11 -87 -33 -207 -50 -267c-8 -30 -36 -52 -68 -52c-39 0 -70 31 -70 70c0 7 1 14 3 21c21 68 51 256 51 296c0 5 -1 6 -3 6c-5 0 -38 -21 -74 -59
c-23 -113 -48 -240 -60 -313c-4 -35 -34 -61 -69 -61c-39 0 -70 31 -70 70c0 4 0 8 1 12c17 114 66 348 95 475c7 32 35 56 69 56c33 0 59 -26 60 -59c31 22 63 34 92 34c42 0 71 -26 87 -65c36 34 75 55 111 55c76 0 116 -66 116 -161c0 -68 -36 -254 -61 -353
c-7 -31 -35 -54 -68 -54z" />
    <glyph glyph-name="n" unicode="n" 
d="M430 -19c-39 0 -70 31 -70 70c0 7 1 14 3 21c43 150 70 274 70 318c0 37 -6 44 -19 44c-42 0 -139 -91 -215 -214c-11 -63 -22 -130 -34 -188c-6 -32 -35 -57 -69 -57c-39 0 -70 31 -70 70c0 5 1 11 2 16c12 57 23 124 34 189c18 105 37 210 55 277c8 31 35 53 68 53
s60 -27 60 -60c0 -7 -1 -14 -3 -20c-4 -14 -7 -29 -11 -46c66 76 134 120 193 120c93 0 149 -74 149 -184c0 -77 -46 -254 -75 -357c-8 -30 -35 -52 -68 -52z" />
    <glyph glyph-name="nacute" unicode="&#x144;" 
d="M430 -19c-39 0 -70 31 -70 70c0 7 1 14 3 21c43 150 70 274 70 318c0 37 -6 44 -19 44c-42 0 -139 -91 -215 -214c-11 -63 -22 -130 -34 -188c-6 -32 -35 -57 -69 -57c-39 0 -70 31 -70 70c0 5 1 11 2 16c12 57 23 124 34 189c18 105 37 210 55 277c8 31 35 53 68 53
s60 -27 60 -60c0 -7 -1 -14 -3 -20c-4 -14 -7 -29 -11 -46c66 76 134 120 193 120c93 0 149 -74 149 -184c0 -77 -46 -254 -75 -357c-8 -30 -35 -52 -68 -52zM222 675c0 25 13 47 33 59l230 150c11 8 25 12 39 12c39 0 70 -31 70 -70c0 -25 -13 -47 -33 -59l-230 -150
c-11 -8 -25 -12 -39 -12c-39 0 -70 31 -70 70z" />
    <glyph glyph-name="napostrophe" unicode="&#x149;" 
d="M25 343c-39 0 -70 31 -70 70c0 23 11 44 28 56c47 36 85 69 115 99c-29 16 -48 50 -48 88c0 71 65 130 139 130c67 0 117 -55 117 -122c0 -27 -7 -55 -22 -84h1c33 0 60 -27 60 -60c0 -7 -1 -14 -3 -20c-4 -14 -7 -29 -11 -46c66 76 134 120 193 120
c93 0 149 -74 149 -184c0 -77 -46 -254 -75 -357c-8 -30 -35 -52 -68 -52c-39 0 -70 31 -70 70c0 7 1 14 3 21c43 150 70 274 70 318c0 37 -6 44 -19 44c-42 0 -139 -91 -215 -214c-11 -63 -22 -130 -34 -188c-6 -32 -35 -57 -69 -57c-39 0 -70 31 -70 70c0 5 1 11 2 16
c12 57 23 124 34 189c14 81 28 161 42 225c-36 -37 -81 -76 -136 -118c-12 -9 -27 -14 -43 -14z" />
    <glyph glyph-name="ncaron" unicode="&#x148;" 
d="M430 -19c-39 0 -70 31 -70 70c0 7 1 14 3 21c43 150 70 274 70 318c0 37 -6 44 -19 44c-42 0 -139 -91 -215 -214c-11 -63 -22 -130 -34 -188c-6 -32 -35 -57 -69 -57c-39 0 -70 31 -70 70c0 5 1 11 2 16c12 57 23 124 34 189c18 105 37 210 55 277c8 31 35 53 68 53
s60 -27 60 -60c0 -7 -1 -14 -3 -20c-4 -14 -7 -29 -11 -46c66 76 134 120 193 120c93 0 149 -74 149 -184c0 -77 -46 -254 -75 -357c-8 -30 -35 -52 -68 -52zM163 806c0 39 31 70 70 70c21 0 40 -9 53 -24c27 -32 59 -62 99 -93c58 32 115 67 173 105c11 8 25 12 39 12
c39 0 70 -31 70 -70c0 -25 -13 -47 -33 -59c-73 -48 -146 -92 -220 -133c-10 -6 -22 -9 -35 -9c-16 0 -30 5 -42 14c-63 47 -116 94 -157 141c-10 12 -17 28 -17 46z" />
    <glyph glyph-name="uni0146" unicode="&#x146;" 
d="M430 -19c-39 0 -70 31 -70 70c0 7 1 14 3 21c43 150 70 274 70 318c0 37 -6 44 -19 44c-42 0 -139 -91 -215 -214c-11 -63 -22 -130 -34 -188c-6 -32 -35 -57 -69 -57c-39 0 -70 31 -70 70c0 5 1 11 2 16c12 57 23 124 34 189c18 105 37 210 55 277c8 31 35 53 68 53
s60 -27 60 -60c0 -7 -1 -14 -3 -20c-4 -14 -7 -29 -11 -46c66 76 134 120 193 120c93 0 149 -74 149 -184c0 -77 -46 -254 -75 -357c-8 -30 -35 -52 -68 -52zM81 -243c0 22 10 42 27 55c33 26 85 82 104 110c13 19 34 32 59 32c39 0 70 -31 70 -70c0 -15 -5 -28 -12 -40
c-26 -38 -91 -107 -134 -141c-12 -10 -27 -16 -44 -16c-39 0 -70 31 -70 70z" />
    <glyph glyph-name="ntilde" unicode="&#xf1;" 
d="M430 -19c-39 0 -70 31 -70 70c0 7 1 14 3 21c43 150 70 274 70 318c0 37 -6 44 -19 44c-42 0 -139 -91 -215 -214c-11 -63 -22 -130 -34 -188c-6 -32 -35 -57 -69 -57c-39 0 -70 31 -70 70c0 5 1 11 2 16c12 57 23 124 34 189c18 105 37 210 55 277c8 31 35 53 68 53
s60 -27 60 -60c0 -7 -1 -14 -3 -20c-4 -14 -7 -29 -11 -46c66 76 134 120 193 120c93 0 149 -74 149 -184c0 -77 -46 -254 -75 -357c-8 -30 -35 -52 -68 -52zM106 674c0 10 2 19 5 27c37 93 120 160 209 160c62 0 101 -26 143 -82c21 -26 23 -27 33 -27c22 0 50 27 64 70
c9 28 36 49 67 49c39 0 70 -31 70 -70c0 -8 -1 -16 -4 -24c-33 -97 -109 -165 -197 -165c-62 0 -101 26 -143 82c-21 26 -23 27 -33 27c-28 0 -62 -29 -78 -71c-10 -27 -36 -46 -66 -46c-39 0 -70 31 -70 70z" />
    <glyph glyph-name="eng" unicode="&#x14b;" 
d="M294 -221c-58 0 -110 25 -141 69c-8 12 -13 26 -13 41c0 39 31 70 70 70c24 0 45 -12 58 -31c4 -5 11 -9 26 -9c14 0 42 41 73 168c34 132 61 264 61 303c0 37 -6 44 -19 44c-42 0 -139 -91 -215 -213c-11 -67 -24 -138 -36 -199c-6 -32 -35 -57 -69 -57
c-39 0 -70 31 -70 70c0 5 1 11 2 16c13 63 26 137 38 209c18 105 37 210 55 277c8 31 35 53 68 53c39 0 70 -31 70 -70c0 -7 -1 -14 -3 -20l-7 -28c61 65 122 102 177 102c93 0 149 -74 149 -184c0 -66 -40 -240 -65 -337c-44 -177 -99 -274 -209 -274z" />
    <glyph glyph-name="o" unicode="o" 
d="M274 -22c-151 0 -240 92 -240 246c0 184 152 358 316 358c143 0 232 -102 232 -262c0 -194 -133 -342 -308 -342zM174 224c0 -77 28 -106 100 -106c96 0 168 85 168 202c0 85 -31 122 -92 122c-85 0 -176 -111 -176 -218z" />
    <glyph glyph-name="oacute" unicode="&#xf3;" 
d="M274 -22c-151 0 -240 92 -240 246c0 184 152 358 316 358c143 0 232 -102 232 -262c0 -194 -133 -342 -308 -342zM174 224c0 -77 28 -106 100 -106c96 0 168 85 168 202c0 85 -31 122 -92 122c-85 0 -176 -111 -176 -218zM222 675c0 25 13 47 33 59l230 150
c11 8 25 12 39 12c39 0 70 -31 70 -70c0 -25 -13 -47 -33 -59l-230 -150c-11 -8 -25 -12 -39 -12c-39 0 -70 31 -70 70z" />
    <glyph glyph-name="obreve" unicode="&#x14f;" 
d="M274 -22c-151 0 -240 92 -240 246c0 184 152 358 316 358c143 0 232 -102 232 -262c0 -194 -133 -342 -308 -342zM170 799c0 39 31 70 70 70c37 0 67 -29 70 -65c2 -29 35 -52 87 -52c57 0 107 30 126 74c10 26 35 45 65 45c39 0 70 -31 70 -70c0 -10 -2 -20 -6 -28
c-41 -97 -142 -161 -255 -161c-122 0 -222 75 -227 187zM174 224c0 -77 28 -106 100 -106c96 0 168 85 168 202c0 85 -31 122 -92 122c-85 0 -176 -111 -176 -218z" />
    <glyph glyph-name="ocircumflex" unicode="&#xf4;" 
d="M274 -22c-151 0 -240 92 -240 246c0 184 152 358 316 358c143 0 232 -102 232 -262c0 -194 -133 -342 -308 -342zM137 675c0 25 13 47 33 59c73 48 146 92 220 133c10 6 22 9 35 9c16 0 30 -5 42 -14c63 -47 116 -94 157 -141c10 -12 17 -28 17 -46
c0 -39 -31 -70 -70 -70c-21 0 -40 9 -53 24c-27 32 -59 62 -99 93c-58 -32 -115 -67 -173 -105c-11 -8 -25 -12 -39 -12c-39 0 -70 31 -70 70zM174 224c0 -77 28 -106 100 -106c96 0 168 85 168 202c0 85 -31 122 -92 122c-85 0 -176 -111 -176 -218z" />
    <glyph glyph-name="odieresis" unicode="&#xf6;" 
d="M274 -22c-151 0 -240 92 -240 246c0 184 152 358 316 358c143 0 232 -102 232 -262c0 -194 -133 -342 -308 -342zM174 224c0 -77 28 -106 100 -106c96 0 168 85 168 202c0 85 -31 122 -92 122c-85 0 -176 -111 -176 -218zM225 681c0 43 5 74 18 101c11 25 35 42 64 42
c39 0 70 -31 70 -70c0 -11 -3 -22 -7 -31c-4 -8 -5 -15 -5 -42c0 -39 -31 -70 -70 -70s-70 31 -70 70zM420 692c0 11 2 21 7 30c1 2 4 20 10 54c4 34 34 60 69 60c39 0 70 -31 70 -70c0 -4 0 -8 -1 -12c-6 -36 -12 -69 -20 -87c-10 -26 -35 -45 -65 -45c-39 0 -70 31 -70 70
z" />
    <glyph glyph-name="ograve" unicode="&#xf2;" 
d="M274 -22c-151 0 -240 92 -240 246c0 184 152 358 316 358c143 0 232 -102 232 -262c0 -194 -133 -342 -308 -342zM174 224c0 -77 28 -106 100 -106c96 0 168 85 168 202c0 85 -31 122 -92 122c-85 0 -176 -111 -176 -218zM244 806c0 39 31 70 70 70c18 0 34 -7 46 -17
l172 -151c15 -13 24 -32 24 -53c0 -39 -31 -70 -70 -70c-18 0 -34 7 -46 17l-172 151c-15 13 -24 32 -24 53z" />
    <glyph glyph-name="ohungarumlaut" unicode="&#x151;" 
d="M274 -22c-151 0 -240 92 -240 246c0 184 152 358 316 358c143 0 232 -102 232 -262c0 -194 -133 -342 -308 -342zM163 675c0 20 8 38 22 51c60 56 118 108 176 154c12 10 27 16 44 16c39 0 70 -31 70 -70c0 -22 -10 -42 -27 -55c-54 -44 -109 -92 -167 -147
c-12 -12 -29 -19 -48 -19c-39 0 -70 31 -70 70zM174 224c0 -77 28 -106 100 -106c96 0 168 85 168 202c0 85 -31 122 -92 122c-85 0 -176 -111 -176 -218zM403 675c0 20 8 38 22 51c60 56 118 108 176 154c12 10 27 16 44 16c39 0 70 -31 70 -70c0 -22 -10 -42 -27 -55
c-54 -44 -109 -92 -167 -147c-12 -12 -29 -19 -48 -19c-39 0 -70 31 -70 70z" />
    <glyph glyph-name="omacron" unicode="&#x14d;" 
d="M274 -22c-151 0 -240 92 -240 246c0 184 152 358 316 358c143 0 232 -102 232 -262c0 -194 -133 -342 -308 -342zM134 691c0 36 27 65 62 69c112 16 298 23 388 23c39 0 70 -31 70 -70s-31 -70 -70 -70c-87 0 -264 -7 -369 -21c-4 -1 -7 -1 -11 -1c-39 0 -70 31 -70 70z
M174 224c0 -77 28 -106 100 -106c96 0 168 85 168 202c0 85 -31 122 -92 122c-85 0 -176 -111 -176 -218z" />
    <glyph glyph-name="oslash" unicode="&#xf8;" 
d="M274 -22c-56 0 -104 13 -142 37c-28 -27 -54 -53 -78 -77c-13 -13 -31 -21 -50 -21c-39 0 -70 31 -70 70c0 19 8 37 20 49c28 28 60 59 94 92c-9 28 -14 60 -14 96c0 184 152 358 316 358c61 0 112 -18 150 -52c27 22 51 41 73 58c12 9 27 15 43 15c39 0 70 -31 70 -70
c0 -23 -11 -43 -28 -56c-25 -20 -54 -43 -86 -69c7 -27 10 -56 10 -88c0 -194 -133 -342 -308 -342zM174 224v-8c78 71 160 144 235 207c-15 13 -35 19 -59 19c-85 0 -176 -111 -176 -218zM223 125c14 -5 31 -7 51 -7c96 0 168 85 168 202v2c-72 -63 -148 -132 -219 -197z
" />
    <glyph glyph-name="oslashacute" unicode="&#x1ff;" 
d="M274 -22c-56 0 -104 13 -142 37c-28 -27 -54 -53 -78 -77c-13 -13 -31 -21 -50 -21c-39 0 -70 31 -70 70c0 19 8 37 20 49c28 28 60 59 94 92c-9 28 -14 60 -14 96c0 184 152 358 316 358c61 0 112 -18 150 -52c27 22 51 41 73 58c12 9 27 15 43 15c39 0 70 -31 70 -70
c0 -23 -11 -43 -28 -56c-25 -20 -54 -43 -86 -69c7 -27 10 -56 10 -88c0 -194 -133 -342 -308 -342zM174 224v-8c78 71 160 144 235 207c-15 13 -35 19 -59 19c-85 0 -176 -111 -176 -218zM222 675c0 25 13 47 33 59l230 150c11 8 25 12 39 12c39 0 70 -31 70 -70
c0 -25 -13 -47 -33 -59l-230 -150c-11 -8 -25 -12 -39 -12c-39 0 -70 31 -70 70zM223 125c14 -5 31 -7 51 -7c96 0 168 85 168 202v2c-72 -63 -148 -132 -219 -197z" />
    <glyph glyph-name="otilde" unicode="&#xf5;" 
d="M274 -22c-151 0 -240 92 -240 246c0 184 152 358 316 358c143 0 232 -102 232 -262c0 -194 -133 -342 -308 -342zM106 674c0 10 2 19 5 27c37 93 120 160 209 160c62 0 101 -26 143 -82c21 -26 23 -27 33 -27c22 0 50 27 64 70c9 28 36 49 67 49c39 0 70 -31 70 -70
c0 -8 -1 -16 -4 -24c-33 -97 -109 -165 -197 -165c-62 0 -101 26 -143 82c-21 26 -23 27 -33 27c-28 0 -62 -29 -78 -71c-10 -27 -36 -46 -66 -46c-39 0 -70 31 -70 70zM174 224c0 -77 28 -106 100 -106c96 0 168 85 168 202c0 85 -31 122 -92 122
c-85 0 -176 -111 -176 -218z" />
    <glyph glyph-name="oe" unicode="&#x153;" 
d="M150 -18c-101 0 -155 86 -155 214c0 180 110 386 241 386c52 0 89 -28 112 -76c41 46 91 75 147 75c87 0 150 -66 150 -155c0 -63 -27 -106 -85 -144c-48 -31 -124 -67 -200 -95c1 -58 18 -69 36 -69c20 0 40 11 75 45c13 12 30 20 49 20c39 0 70 -31 70 -70
c0 -20 -8 -37 -21 -50c-57 -56 -112 -85 -173 -85c-55 0 -96 24 -122 66c-35 -38 -77 -62 -124 -62zM135 196c0 -54 6 -74 15 -74c34 0 81 77 99 164l2 11c3 19 5 39 5 58c0 57 -10 87 -20 87c-32 0 -101 -149 -101 -246zM392 335c35 21 65 41 88 60c24 19 25 22 25 31
c0 12 -3 15 -10 15c-37 0 -77 -45 -103 -106z" />
    <glyph glyph-name="p" unicode="p" 
d="M265 -22c-33 0 -72 6 -108 15c-12 -52 -26 -105 -41 -161c-7 -31 -35 -54 -68 -54c-39 0 -70 31 -70 70c0 7 1 13 3 19c69 264 116 462 138 683c3 36 33 64 70 64c39 0 70 -31 70 -70v-8c0 -2 0 -5 -1 -7c47 30 94 46 136 46c112 0 184 -123 184 -268
c0 -190 -132 -329 -313 -329zM190 129c24 -7 51 -11 75 -11c103 0 173 75 173 189c0 67 -28 128 -44 128c-41 0 -101 -30 -160 -82c-12 -74 -27 -148 -44 -224z" />
    <glyph glyph-name="thorn" unicode="&#xfe;" 
d="M265 -22c-34 0 -73 6 -109 15c-14 -61 -30 -124 -46 -190c-7 -32 -35 -55 -68 -55c-39 0 -70 31 -70 70c0 6 1 12 2 18c89 360 150 626 186 923c4 35 34 62 70 62c39 0 70 -31 70 -70c0 -3 0 -6 -1 -10c-8 -67 -18 -132 -28 -197c43 20 85 31 123 31
c112 0 184 -123 184 -268c0 -190 -132 -329 -313 -329zM188 129c24 -7 53 -11 77 -11c103 0 173 75 173 189c0 67 -28 128 -44 128c-40 0 -98 -29 -158 -80c-14 -74 -30 -148 -48 -226z" />
    <glyph glyph-name="q" unicode="q" 
d="M395 -218c-39 0 -70 31 -70 70c0 3 0 6 1 10c6 47 13 95 21 143c-35 -15 -73 -23 -107 -23c-125 0 -211 101 -211 245c0 174 171 350 341 350c70 0 137 -30 192 -85c13 -13 21 -31 21 -50c0 -7 -1 -13 -3 -20c-38 -143 -96 -419 -115 -578c-4 -35 -34 -62 -70 -62z
M169 227c0 -68 31 -105 81 -105c42 0 88 16 128 45c17 84 36 168 56 250c-21 14 -42 20 -64 20c-92 0 -201 -113 -201 -210z" />
    <glyph glyph-name="r" unicode="r" 
d="M119 -22c-39 0 -70 31 -70 70c0 8 1 15 4 22c48 158 67 247 67 315c0 40 -3 73 -9 98c-2 6 -3 13 -3 19c0 39 31 70 70 70c33 0 61 -23 68 -54c3 -13 6 -28 8 -44c64 66 147 110 223 110c83 0 123 -47 123 -134c0 -33 -3 -70 -8 -97c-6 -33 -34 -58 -69 -58
c-39 0 -70 31 -70 70c0 13 7 36 7 69c0 6 -1 8 -3 8c-44 0 -181 -74 -211 -188c-14 -72 -36 -149 -60 -225c-8 -29 -35 -51 -67 -51z" />
    <glyph glyph-name="racute" unicode="&#x155;" 
d="M119 -22c-39 0 -70 31 -70 70c0 8 1 15 4 22c48 158 67 247 67 315c0 40 -3 73 -9 98c-2 6 -3 13 -3 19c0 39 31 70 70 70c33 0 61 -23 68 -54c3 -13 6 -28 8 -44c64 66 147 110 223 110c83 0 123 -47 123 -134c0 -33 -3 -70 -8 -97c-6 -33 -34 -58 -69 -58
c-39 0 -70 31 -70 70c0 13 7 36 7 69c0 6 -1 8 -3 8c-44 0 -181 -74 -211 -188c-14 -72 -36 -149 -60 -225c-8 -29 -35 -51 -67 -51zM222 675c0 25 13 47 33 59l230 150c11 8 25 12 39 12c39 0 70 -31 70 -70c0 -25 -13 -47 -33 -59l-230 -150c-11 -8 -25 -12 -39 -12
c-39 0 -70 31 -70 70z" />
    <glyph glyph-name="rcaron" unicode="&#x159;" 
d="M119 -22c-39 0 -70 31 -70 70c0 8 1 15 4 22c48 158 67 247 67 315c0 40 -3 73 -9 98c-2 6 -3 13 -3 19c0 39 31 70 70 70c33 0 61 -23 68 -54c3 -13 6 -28 8 -44c64 66 147 110 223 110c83 0 123 -47 123 -134c0 -33 -3 -70 -8 -97c-6 -33 -34 -58 -69 -58
c-39 0 -70 31 -70 70c0 13 7 36 7 69c0 6 -1 8 -3 8c-44 0 -181 -74 -211 -188c-14 -72 -36 -149 -60 -225c-8 -29 -35 -51 -67 -51zM163 806c0 39 31 70 70 70c21 0 40 -9 53 -24c27 -32 59 -62 99 -93c58 32 115 67 173 105c11 8 25 12 39 12c39 0 70 -31 70 -70
c0 -25 -13 -47 -33 -59c-73 -48 -146 -92 -220 -133c-10 -6 -22 -9 -35 -9c-16 0 -30 5 -42 14c-63 47 -116 94 -157 141c-10 12 -17 28 -17 46z" />
    <glyph glyph-name="uni0157" unicode="&#x157;" 
d="M119 -22c-39 0 -70 31 -70 70c0 8 1 15 4 22c48 158 67 247 67 315c0 40 -3 73 -9 98c-2 6 -3 13 -3 19c0 39 31 70 70 70c33 0 61 -23 68 -54c3 -13 6 -28 8 -44c64 66 147 110 223 110c83 0 123 -47 123 -134c0 -33 -3 -70 -8 -97c-6 -33 -34 -58 -69 -58
c-39 0 -70 31 -70 70c0 13 7 36 7 69c0 6 -1 8 -3 8c-44 0 -181 -74 -211 -188c-14 -72 -36 -149 -60 -225c-8 -29 -35 -51 -67 -51zM81 -243c0 22 10 42 27 55c33 26 85 82 104 110c13 19 34 32 59 32c39 0 70 -31 70 -70c0 -15 -5 -28 -12 -40c-26 -38 -91 -107 -134 -141
c-12 -10 -27 -16 -44 -16c-39 0 -70 31 -70 70z" />
    <glyph glyph-name="s" unicode="s" 
d="M274 -23c-96 0 -178 29 -243 85c-15 13 -25 32 -25 53c0 39 31 70 70 70c18 0 34 -7 46 -17c40 -35 87 -51 152 -51c54 0 122 27 122 34c0 12 -10 24 -88 38c-140 26 -214 77 -214 184c0 126 139 211 305 211c96 0 174 -37 174 -120c0 -20 -3 -46 -8 -78
c-5 -34 -34 -60 -69 -60c-39 0 -70 31 -70 70c0 4 0 8 1 12c2 12 3 23 4 33c-6 1 -16 3 -32 3c-91 0 -165 -39 -165 -71c0 -17 11 -30 100 -46c130 -24 202 -75 202 -176c0 -105 -126 -174 -262 -174z" />
    <glyph glyph-name="sacute" unicode="&#x15b;" 
d="M274 -23c-96 0 -178 29 -243 85c-15 13 -25 32 -25 53c0 39 31 70 70 70c18 0 34 -7 46 -17c40 -35 87 -51 152 -51c54 0 122 27 122 34c0 12 -10 24 -88 38c-140 26 -214 77 -214 184c0 126 139 211 305 211c96 0 174 -37 174 -120c0 -20 -3 -46 -8 -78
c-5 -34 -34 -60 -69 -60c-39 0 -70 31 -70 70c0 4 0 8 1 12c2 12 3 23 4 33c-6 1 -16 3 -32 3c-91 0 -165 -39 -165 -71c0 -17 11 -30 100 -46c130 -24 202 -75 202 -176c0 -105 -126 -174 -262 -174zM222 675c0 25 13 47 33 59l230 150c11 8 25 12 39 12
c39 0 70 -31 70 -70c0 -25 -13 -47 -33 -59l-230 -150c-11 -8 -25 -12 -39 -12c-39 0 -70 31 -70 70z" />
    <glyph glyph-name="scaron" unicode="&#x161;" 
d="M274 -23c-96 0 -178 29 -243 85c-15 13 -25 32 -25 53c0 39 31 70 70 70c18 0 34 -7 46 -17c40 -35 87 -51 152 -51c54 0 122 27 122 34c0 12 -10 24 -88 38c-140 26 -214 77 -214 184c0 126 139 211 305 211c96 0 174 -37 174 -120c0 -20 -3 -46 -8 -78
c-5 -34 -34 -60 -69 -60c-39 0 -70 31 -70 70c0 4 0 8 1 12c2 12 3 23 4 33c-6 1 -16 3 -32 3c-91 0 -165 -39 -165 -71c0 -17 11 -30 100 -46c130 -24 202 -75 202 -176c0 -105 -126 -174 -262 -174zM163 806c0 39 31 70 70 70c21 0 40 -9 53 -24c27 -32 59 -62 99 -93
c58 32 115 67 173 105c11 8 25 12 39 12c39 0 70 -31 70 -70c0 -25 -13 -47 -33 -59c-73 -48 -146 -92 -220 -133c-10 -6 -22 -9 -35 -9c-16 0 -30 5 -42 14c-63 47 -116 94 -157 141c-10 12 -17 28 -17 46z" />
    <glyph glyph-name="scedilla" unicode="&#x15f;" 
d="M153 -267l-27 1c-36 3 -64 33 -64 70c0 39 31 70 70 70c4 0 7 0 10 -1h11c54 0 97 27 97 50c0 2 -7 8 -26 11c-29 4 -53 27 -58 57c-51 13 -96 37 -135 71c-15 13 -25 32 -25 53c0 39 31 70 70 70c18 0 34 -7 46 -17c40 -35 87 -51 152 -51c54 0 122 27 122 34
c0 12 -10 24 -88 38c-140 26 -214 77 -214 184c0 126 139 211 305 211c96 0 174 -37 174 -120c0 -20 -3 -46 -8 -78c-5 -34 -34 -60 -69 -60c-39 0 -70 31 -70 70c0 4 0 8 1 12c2 12 3 23 4 33c-6 1 -16 3 -32 3c-91 0 -165 -39 -165 -71c0 -17 11 -30 100 -46
c130 -24 202 -75 202 -176c0 -78 -70 -137 -162 -161c10 -20 16 -42 16 -67c0 -109 -108 -190 -237 -190z" />
    <glyph glyph-name="scircumflex" unicode="&#x15d;" 
d="M274 -23c-96 0 -178 29 -243 85c-15 13 -25 32 -25 53c0 39 31 70 70 70c18 0 34 -7 46 -17c40 -35 87 -51 152 -51c54 0 122 27 122 34c0 12 -10 24 -88 38c-140 26 -214 77 -214 184c0 126 139 211 305 211c96 0 174 -37 174 -120c0 -20 -3 -46 -8 -78
c-5 -34 -34 -60 -69 -60c-39 0 -70 31 -70 70c0 4 0 8 1 12c2 12 3 23 4 33c-6 1 -16 3 -32 3c-91 0 -165 -39 -165 -71c0 -17 11 -30 100 -46c130 -24 202 -75 202 -176c0 -105 -126 -174 -262 -174zM137 675c0 25 13 47 33 59c73 48 146 92 220 133c10 6 22 9 35 9
c16 0 30 -5 42 -14c63 -47 116 -94 157 -141c10 -12 17 -28 17 -46c0 -39 -31 -70 -70 -70c-21 0 -40 9 -53 24c-27 32 -59 62 -99 93c-58 -32 -115 -67 -173 -105c-11 -8 -25 -12 -39 -12c-39 0 -70 31 -70 70z" />
    <glyph glyph-name="uni0219" unicode="&#x219;" 
d="M274 -23c-96 0 -178 29 -243 85c-15 13 -25 32 -25 53c0 39 31 70 70 70c18 0 34 -7 46 -17c40 -35 87 -51 152 -51c54 0 122 27 122 34c0 12 -10 24 -88 38c-140 26 -214 77 -214 184c0 126 139 211 305 211c96 0 174 -37 174 -120c0 -20 -3 -46 -8 -78
c-5 -34 -34 -60 -69 -60c-39 0 -70 31 -70 70c0 4 0 8 1 12c2 12 3 23 4 33c-6 1 -16 3 -32 3c-91 0 -165 -39 -165 -71c0 -17 11 -30 100 -46c130 -24 202 -75 202 -176c0 -105 -126 -174 -262 -174zM81 -243c0 22 10 42 27 55c33 26 85 82 104 110c13 19 34 32 59 32
c39 0 70 -31 70 -70c0 -15 -5 -28 -12 -40c-26 -38 -91 -107 -134 -141c-12 -10 -27 -16 -44 -16c-39 0 -70 31 -70 70z" />
    <glyph glyph-name="germandbls" unicode="&#xdf;" 
d="M40 -148c-39 0 -70 31 -70 70c0 9 2 17 5 25c46 133 85 273 113 417c8 39 27 167 32 194c31 155 139 252 283 252c121 0 203 -78 203 -193c0 -71 -41 -137 -110 -192c46 -55 71 -121 71 -191c0 -133 -110 -247 -241 -247c-39 0 -86 13 -117 33c-19 12 -32 34 -32 59
c0 39 31 70 70 70c15 0 28 -4 39 -12c9 -6 26 -10 40 -10c53 0 101 51 101 107c0 55 -28 104 -82 140c-19 13 -32 35 -32 59c0 27 15 50 37 62c74 41 116 88 116 122c0 36 -18 53 -63 53c-75 0 -127 -48 -145 -140c-8 -36 -24 -152 -32 -194c-30 -150 -70 -297 -119 -436
c-10 -28 -36 -48 -67 -48z" />
    <glyph glyph-name="longs" unicode="&#x17f;" 
d="M152 -152c-39 0 -70 31 -70 70c0 13 4 25 10 36c28 49 47 101 59 163c10 49 23 123 36 198l14 78c-22 0 -44 1 -65 2c-37 2 -66 33 -66 70c0 39 31 70 70 70h5c21 -2 42 -2 65 -2h16c1 1 1 2 1 3c36 179 121 276 253 276c91 0 161 -58 186 -150c2 -6 3 -13 3 -20
c0 -39 -31 -70 -70 -70c-33 0 -60 23 -68 53c-9 33 -26 47 -51 47c-54 0 -92 -46 -115 -164c-11 -52 -25 -135 -40 -217c-13 -76 -27 -151 -36 -201c-15 -74 -41 -145 -76 -206c-11 -21 -35 -36 -61 -36z" />
    <glyph glyph-name="t" unicode="t" 
d="M287 -20c-99 0 -158 64 -158 167c0 47 23 154 51 263c-28 3 -54 7 -76 12c-31 7 -55 35 -55 68c0 39 31 70 70 70c6 0 12 -1 18 -2c19 -5 47 -9 80 -11c15 53 29 99 40 131c10 29 35 50 67 50c39 0 70 -31 70 -70c0 -8 -1 -14 -4 -23c-9 -27 -18 -57 -28 -89
c55 4 122 13 170 22c5 1 10 2 15 2c39 0 70 -31 70 -70c0 -34 -25 -63 -58 -69c-68 -14 -172 -25 -236 -27c-31 -117 -54 -224 -54 -257c0 -22 4 -27 28 -27c29 0 82 13 136 37c9 5 19 7 30 7c39 0 70 -31 70 -70c0 -29 -18 -54 -43 -65c-69 -30 -147 -49 -203 -49z" />
    <glyph glyph-name="tbar" unicode="&#x167;" 
d="M287 -20c-99 0 -158 64 -158 167c0 14 2 32 5 54l-21 -3c-3 -1 -5 -1 -9 -1c-33 0 -60 27 -60 60c0 31 23 56 54 60l61 7c7 28 14 57 21 86c-28 3 -54 7 -76 12c-31 7 -55 35 -55 68c0 39 31 70 70 70c6 0 12 -1 18 -2c19 -5 47 -9 80 -11c15 53 29 99 40 131
c10 29 35 50 67 50c39 0 70 -31 70 -70c0 -8 -1 -14 -4 -23c-9 -27 -18 -57 -28 -89c55 4 122 13 170 22c5 1 10 2 15 2c39 0 70 -31 70 -70c0 -34 -25 -63 -58 -69c-68 -14 -172 -25 -236 -27c-6 -22 -12 -45 -17 -66c42 3 80 5 105 5c34 0 60 -26 60 -60
c0 -32 -25 -59 -58 -60c-44 -1 -89 -4 -134 -7c-6 -32 -10 -56 -10 -69c0 -22 4 -27 28 -27c29 0 82 13 136 37c9 5 19 7 30 7c39 0 70 -31 70 -70c0 -29 -18 -54 -43 -65c-69 -30 -147 -49 -203 -49z" />
    <glyph glyph-name="tcaron" unicode="&#x165;" 
d="M287 -20c-99 0 -158 64 -158 167c0 42 18 129 41 223c-27 3 -53 7 -74 12c-31 7 -55 35 -55 68c0 39 31 70 70 70c6 0 12 -1 18 -2c18 -5 45 -8 77 -11c19 69 38 131 51 171c10 29 35 50 67 50c39 0 70 -31 70 -70c0 -8 -1 -14 -4 -23c-13 -39 -26 -83 -39 -129
c54 4 124 12 173 22c5 1 10 2 15 2c39 0 70 -31 70 -70c0 -34 -25 -63 -58 -69c-68 -14 -174 -25 -239 -27c-25 -101 -43 -188 -43 -217c0 -22 4 -27 28 -27c29 0 82 13 136 37c9 5 19 7 30 7c39 0 70 -31 70 -70c0 -29 -18 -54 -43 -65c-69 -30 -147 -49 -203 -49zM422 642
c0 17 6 33 17 44c35 34 57 70 57 94c0 11 -1 14 -3 17c-9 12 -14 26 -14 42c0 39 31 70 70 70c24 0 45 -12 57 -30c20 -27 30 -63 30 -99c0 -56 -34 -124 -89 -183c-14 -15 -33 -25 -55 -25c-39 0 -70 31 -70 70z" />
    <glyph glyph-name="uni0163" unicode="&#x163;" 
d="M153 -267l-27 1c-36 3 -64 33 -64 70c0 39 31 70 70 70c4 0 7 0 10 -1h11c54 0 97 27 97 50c0 2 -7 8 -26 11c-33 5 -59 34 -59 69c0 8 1 16 4 24c-26 29 -40 70 -40 120c0 47 23 154 51 263c-28 3 -54 7 -76 12c-31 7 -55 35 -55 68c0 39 31 70 70 70c6 0 12 -1 18 -2
c19 -5 47 -9 80 -11c15 53 29 99 40 131c10 29 35 50 67 50c39 0 70 -31 70 -70c0 -8 -1 -14 -4 -23c-9 -27 -18 -57 -28 -89c55 4 122 13 170 22c5 1 10 2 15 2c39 0 70 -31 70 -70c0 -34 -25 -63 -58 -69c-68 -14 -172 -25 -236 -27c-31 -117 -54 -224 -54 -257
c0 -22 4 -27 28 -27c29 0 82 13 136 37c9 5 19 7 30 7c39 0 70 -31 70 -70c0 -29 -18 -54 -43 -65c-38 -17 -79 -30 -117 -38c11 -20 17 -43 17 -68c0 -109 -108 -190 -237 -190z" />
    <glyph glyph-name="uni021B" unicode="&#x21b;" 
d="M287 -20c-99 0 -158 64 -158 167c0 47 23 154 51 263c-28 3 -54 7 -76 12c-31 7 -55 35 -55 68c0 39 31 70 70 70c6 0 12 -1 18 -2c19 -5 47 -9 80 -11c15 53 29 99 40 131c10 29 35 50 67 50c39 0 70 -31 70 -70c0 -8 -1 -14 -4 -23c-9 -27 -18 -57 -28 -89
c55 4 122 13 170 22c5 1 10 2 15 2c39 0 70 -31 70 -70c0 -34 -25 -63 -58 -69c-68 -14 -172 -25 -236 -27c-31 -117 -54 -224 -54 -257c0 -22 4 -27 28 -27c29 0 82 13 136 37c9 5 19 7 30 7c39 0 70 -31 70 -70c0 -29 -18 -54 -43 -65c-69 -30 -147 -49 -203 -49zM81 -243
c0 22 10 42 27 55c33 26 85 82 104 110c13 19 34 32 59 32c39 0 70 -31 70 -70c0 -15 -5 -28 -12 -40c-26 -38 -91 -107 -134 -141c-12 -10 -27 -16 -44 -16c-39 0 -70 31 -70 70z" />
    <glyph glyph-name="u" unicode="u" 
d="M202 -20c-103 0 -161 61 -161 170c0 83 41 239 102 386c10 26 35 45 65 45c39 0 70 -31 70 -70c0 -10 -2 -19 -6 -28c-54 -132 -91 -267 -91 -333c0 -24 5 -30 31 -30c49 0 104 30 178 98c11 68 39 193 67 303c7 31 35 54 68 54c39 0 70 -31 70 -70c0 -7 -1 -13 -3 -19
c-31 -122 -68 -293 -68 -313c0 -32 8 -74 21 -111c3 -8 5 -16 5 -25c0 -39 -31 -70 -70 -70c-31 0 -57 20 -66 48c-6 17 -12 35 -16 54c-69 -60 -132 -89 -196 -89z" />
    <glyph glyph-name="uacute" unicode="&#xfa;" 
d="M202 -20c-103 0 -161 61 -161 170c0 83 41 239 102 386c10 26 35 45 65 45c39 0 70 -31 70 -70c0 -10 -2 -19 -6 -28c-54 -132 -91 -267 -91 -333c0 -24 5 -30 31 -30c49 0 104 30 178 98c11 68 39 193 67 303c7 31 35 54 68 54c39 0 70 -31 70 -70c0 -7 -1 -13 -3 -19
c-31 -122 -68 -293 -68 -313c0 -32 8 -74 21 -111c3 -8 5 -16 5 -25c0 -39 -31 -70 -70 -70c-31 0 -57 20 -66 48c-6 17 -12 35 -16 54c-69 -60 -132 -89 -196 -89zM222 675c0 25 13 47 33 59l230 150c11 8 25 12 39 12c39 0 70 -31 70 -70c0 -25 -13 -47 -33 -59l-230 -150
c-11 -8 -25 -12 -39 -12c-39 0 -70 31 -70 70z" />
    <glyph glyph-name="ubreve" unicode="&#x16d;" 
d="M202 -20c-103 0 -161 61 -161 170c0 83 41 239 102 386c10 26 35 45 65 45c39 0 70 -31 70 -70c0 -10 -2 -19 -6 -28c-54 -132 -91 -267 -91 -333c0 -24 5 -30 31 -30c49 0 104 30 178 98c11 68 39 193 67 303c7 31 35 54 68 54c39 0 70 -31 70 -70c0 -7 -1 -13 -3 -19
c-31 -122 -68 -293 -68 -313c0 -32 8 -74 21 -111c3 -8 5 -16 5 -25c0 -39 -31 -70 -70 -70c-31 0 -57 20 -66 48c-6 17 -12 35 -16 54c-69 -60 -132 -89 -196 -89zM170 799c0 39 31 70 70 70c37 0 67 -29 70 -65c2 -29 35 -52 87 -52c57 0 107 30 126 74c10 26 35 45 65 45
c39 0 70 -31 70 -70c0 -10 -2 -20 -6 -28c-41 -97 -142 -161 -255 -161c-122 0 -222 75 -227 187z" />
    <glyph glyph-name="ucircumflex" unicode="&#xfb;" 
d="M202 -20c-103 0 -161 61 -161 170c0 83 41 239 102 386c10 26 35 45 65 45c39 0 70 -31 70 -70c0 -10 -2 -19 -6 -28c-54 -132 -91 -267 -91 -333c0 -24 5 -30 31 -30c49 0 104 30 178 98c11 68 39 193 67 303c7 31 35 54 68 54c39 0 70 -31 70 -70c0 -7 -1 -13 -3 -19
c-31 -122 -68 -293 -68 -313c0 -32 8 -74 21 -111c3 -8 5 -16 5 -25c0 -39 -31 -70 -70 -70c-31 0 -57 20 -66 48c-6 17 -12 35 -16 54c-69 -60 -132 -89 -196 -89zM137 675c0 25 13 47 33 59c73 48 146 92 220 133c10 6 22 9 35 9c16 0 30 -5 42 -14
c63 -47 116 -94 157 -141c10 -12 17 -28 17 -46c0 -39 -31 -70 -70 -70c-21 0 -40 9 -53 24c-27 32 -59 62 -99 93c-58 -32 -115 -67 -173 -105c-11 -8 -25 -12 -39 -12c-39 0 -70 31 -70 70z" />
    <glyph glyph-name="udieresis" unicode="&#xfc;" 
d="M202 -20c-103 0 -161 61 -161 170c0 83 41 239 102 386c10 26 35 45 65 45c39 0 70 -31 70 -70c0 -10 -2 -19 -6 -28c-54 -132 -91 -267 -91 -333c0 -24 5 -30 31 -30c49 0 104 30 178 98c11 68 39 193 67 303c7 31 35 54 68 54c39 0 70 -31 70 -70c0 -7 -1 -13 -3 -19
c-31 -122 -68 -293 -68 -313c0 -32 8 -74 21 -111c3 -8 5 -16 5 -25c0 -39 -31 -70 -70 -70c-31 0 -57 20 -66 48c-6 17 -12 35 -16 54c-69 -60 -132 -89 -196 -89zM225 681c0 43 5 74 18 101c11 25 35 42 64 42c39 0 70 -31 70 -70c0 -11 -3 -22 -7 -31
c-4 -8 -5 -15 -5 -42c0 -39 -31 -70 -70 -70s-70 31 -70 70zM420 692c0 11 2 21 7 30c1 2 4 20 10 54c4 34 34 60 69 60c39 0 70 -31 70 -70c0 -4 0 -8 -1 -12c-6 -36 -12 -69 -20 -87c-10 -26 -35 -45 -65 -45c-39 0 -70 31 -70 70z" />
    <glyph glyph-name="ugrave" unicode="&#xf9;" 
d="M202 -20c-103 0 -161 61 -161 170c0 83 41 239 102 386c10 26 35 45 65 45c39 0 70 -31 70 -70c0 -10 -2 -19 -6 -28c-54 -132 -91 -267 -91 -333c0 -24 5 -30 31 -30c49 0 104 30 178 98c11 68 39 193 67 303c7 31 35 54 68 54c39 0 70 -31 70 -70c0 -7 -1 -13 -3 -19
c-31 -122 -68 -293 -68 -313c0 -32 8 -74 21 -111c3 -8 5 -16 5 -25c0 -39 -31 -70 -70 -70c-31 0 -57 20 -66 48c-6 17 -12 35 -16 54c-69 -60 -132 -89 -196 -89zM244 806c0 39 31 70 70 70c18 0 34 -7 46 -17l172 -151c15 -13 24 -32 24 -53c0 -39 -31 -70 -70 -70
c-18 0 -34 7 -46 17l-172 151c-15 13 -24 32 -24 53z" />
    <glyph glyph-name="uhungarumlaut" unicode="&#x171;" 
d="M202 -20c-103 0 -161 61 -161 170c0 83 41 239 102 386c10 26 35 45 65 45c39 0 70 -31 70 -70c0 -10 -2 -19 -6 -28c-54 -132 -91 -267 -91 -333c0 -24 5 -30 31 -30c49 0 104 30 178 98c11 68 39 193 67 303c7 31 35 54 68 54c39 0 70 -31 70 -70c0 -7 -1 -13 -3 -19
c-31 -122 -68 -293 -68 -313c0 -32 8 -74 21 -111c3 -8 5 -16 5 -25c0 -39 -31 -70 -70 -70c-31 0 -57 20 -66 48c-6 17 -12 35 -16 54c-69 -60 -132 -89 -196 -89zM163 675c0 20 8 38 22 51c60 56 118 108 176 154c12 10 27 16 44 16c39 0 70 -31 70 -70
c0 -22 -10 -42 -27 -55c-54 -44 -109 -92 -167 -147c-12 -12 -29 -19 -48 -19c-39 0 -70 31 -70 70zM403 675c0 20 8 38 22 51c60 56 118 108 176 154c12 10 27 16 44 16c39 0 70 -31 70 -70c0 -22 -10 -42 -27 -55c-54 -44 -109 -92 -167 -147c-12 -12 -29 -19 -48 -19
c-39 0 -70 31 -70 70z" />
    <glyph glyph-name="umacron" unicode="&#x16b;" 
d="M202 -20c-103 0 -161 61 -161 170c0 83 41 239 102 386c10 26 35 45 65 45c39 0 70 -31 70 -70c0 -10 -2 -19 -6 -28c-54 -132 -91 -267 -91 -333c0 -24 5 -30 31 -30c49 0 104 30 178 98c11 68 39 193 67 303c7 31 35 54 68 54c39 0 70 -31 70 -70c0 -7 -1 -13 -3 -19
c-31 -122 -68 -293 -68 -313c0 -32 8 -74 21 -111c3 -8 5 -16 5 -25c0 -39 -31 -70 -70 -70c-31 0 -57 20 -66 48c-6 17 -12 35 -16 54c-69 -60 -132 -89 -196 -89zM134 691c0 36 27 65 62 69c112 16 298 23 388 23c39 0 70 -31 70 -70s-31 -70 -70 -70
c-87 0 -264 -7 -369 -21c-4 -1 -7 -1 -11 -1c-39 0 -70 31 -70 70z" />
    <glyph glyph-name="uogonek" unicode="&#x173;" 
d="M202 -20c-103 0 -161 61 -161 170c0 83 41 239 102 386c10 26 35 45 65 45c39 0 70 -31 70 -70c0 -10 -2 -19 -6 -28c-54 -132 -91 -267 -91 -333c0 -24 5 -30 31 -30c49 0 104 30 178 98c11 68 39 193 67 303c7 31 35 54 68 54c39 0 70 -31 70 -70c0 -7 -1 -13 -3 -19
c-31 -122 -68 -293 -68 -313c0 -32 8 -74 21 -111c3 -8 5 -16 5 -25c0 -24 -12 -45 -30 -58l-11 -6c-1 0 -1 0 -2 -1l-6 -2c-52 -19 -103 -51 -103 -63c0 -4 2 -6 5 -6c17 0 44 12 67 29c12 9 26 14 42 14c39 0 70 -31 70 -70c0 -23 -11 -44 -29 -57
c-46 -34 -109 -56 -159 -56c-76 0 -136 48 -136 115c0 63 61 121 147 165l-7 28c-69 -60 -132 -89 -196 -89z" />
    <glyph glyph-name="uring" unicode="&#x16f;" 
d="M202 -20c-103 0 -161 61 -161 170c0 83 41 239 102 386c10 26 35 45 65 45c39 0 70 -31 70 -70c0 -10 -2 -19 -6 -28c-54 -132 -91 -267 -91 -333c0 -24 5 -30 31 -30c49 0 104 30 178 98c11 68 39 193 67 303c7 31 35 54 68 54c39 0 70 -31 70 -70c0 -7 -1 -13 -3 -19
c-31 -122 -68 -293 -68 -313c0 -32 8 -74 21 -111c3 -8 5 -16 5 -25c0 -39 -31 -70 -70 -70c-31 0 -57 20 -66 48c-6 17 -12 35 -16 54c-69 -60 -132 -89 -196 -89zM233 768c0 98 90 185 188 185c89 0 168 -75 168 -163c0 -89 -92 -173 -182 -173c-101 0 -174 59 -174 151z
M333 768c0 -22 18 -51 74 -51c35 0 82 35 82 73c0 34 -28 63 -68 63c-41 0 -88 -42 -88 -85z" />
    <glyph glyph-name="utilde" unicode="&#x169;" 
d="M202 -20c-103 0 -161 61 -161 170c0 83 41 239 102 386c10 26 35 45 65 45c39 0 70 -31 70 -70c0 -10 -2 -19 -6 -28c-54 -132 -91 -267 -91 -333c0 -24 5 -30 31 -30c49 0 104 30 178 98c11 68 39 193 67 303c7 31 35 54 68 54c39 0 70 -31 70 -70c0 -7 -1 -13 -3 -19
c-31 -122 -68 -293 -68 -313c0 -32 8 -74 21 -111c3 -8 5 -16 5 -25c0 -39 -31 -70 -70 -70c-31 0 -57 20 -66 48c-6 17 -12 35 -16 54c-69 -60 -132 -89 -196 -89zM106 674c0 10 2 19 5 27c37 93 120 160 209 160c62 0 101 -26 143 -82c21 -26 23 -27 33 -27
c22 0 50 27 64 70c9 28 36 49 67 49c39 0 70 -31 70 -70c0 -8 -1 -16 -4 -24c-33 -97 -109 -165 -197 -165c-62 0 -101 26 -143 82c-21 26 -23 27 -33 27c-28 0 -62 -29 -78 -71c-10 -27 -36 -46 -66 -46c-39 0 -70 31 -70 70z" />
    <glyph glyph-name="v" unicode="v" 
d="M271 -45c-31 0 -57 20 -66 48c-44 122 -101 335 -128 475c0 4 -1 9 -1 14c0 39 31 70 70 70c35 0 63 -25 69 -58c16 -87 46 -206 76 -309c69 106 146 239 199 345c11 24 35 40 63 40c39 0 70 -31 70 -70c0 -12 -3 -23 -8 -32c-65 -130 -182 -330 -274 -458
c-3 -37 -33 -65 -70 -65z" />
    <glyph glyph-name="w" unicode="w" 
d="M127 -9c-34 0 -63 24 -69 57c-14 66 -23 206 -23 340c0 58 2 107 5 141c4 35 34 63 70 63c39 0 70 -31 70 -70c0 -8 -5 -38 -5 -134c0 -48 2 -96 3 -142c38 64 72 127 97 180c11 24 36 41 64 41c36 0 65 -27 69 -61l18 -130c40 78 77 162 104 241c9 29 36 49 67 49
c39 0 70 -31 70 -70c0 -9 -2 -17 -4 -24c-53 -152 -139 -325 -222 -444c-13 -19 -34 -31 -58 -31c-39 0 -70 31 -70 70c0 36 -3 85 -9 145c-41 -70 -83 -137 -118 -189c-13 -19 -34 -32 -59 -32z" />
    <glyph glyph-name="wacute" unicode="&#x1e83;" 
d="M127 -9c-34 0 -63 24 -69 57c-14 66 -23 206 -23 340c0 58 2 107 5 141c4 35 34 63 70 63c39 0 70 -31 70 -70c0 -8 -5 -38 -5 -134c0 -48 2 -96 3 -142c38 64 72 127 97 180c11 24 36 41 64 41c36 0 65 -27 69 -61l18 -130c40 78 77 162 104 241c9 29 36 49 67 49
c39 0 70 -31 70 -70c0 -9 -2 -17 -4 -24c-53 -152 -139 -325 -222 -444c-13 -19 -34 -31 -58 -31c-39 0 -70 31 -70 70c0 36 -3 85 -9 145c-41 -70 -83 -137 -118 -189c-13 -19 -34 -32 -59 -32zM222 675c0 25 13 47 33 59l230 150c11 8 25 12 39 12c39 0 70 -31 70 -70
c0 -25 -13 -47 -33 -59l-230 -150c-11 -8 -25 -12 -39 -12c-39 0 -70 31 -70 70z" />
    <glyph glyph-name="wcircumflex" unicode="&#x175;" 
d="M127 -9c-34 0 -63 24 -69 57c-14 66 -23 206 -23 340c0 58 2 107 5 141c4 35 34 63 70 63c39 0 70 -31 70 -70c0 -8 -5 -38 -5 -134c0 -48 2 -96 3 -142c38 64 72 127 97 180c11 24 36 41 64 41c36 0 65 -27 69 -61l18 -130c40 78 77 162 104 241c9 29 36 49 67 49
c39 0 70 -31 70 -70c0 -9 -2 -17 -4 -24c-53 -152 -139 -325 -222 -444c-13 -19 -34 -31 -58 -31c-39 0 -70 31 -70 70c0 36 -3 85 -9 145c-41 -70 -83 -137 -118 -189c-13 -19 -34 -32 -59 -32zM137 675c0 25 13 47 33 59c73 48 146 92 220 133c10 6 22 9 35 9
c16 0 30 -5 42 -14c63 -47 116 -94 157 -141c10 -12 17 -28 17 -46c0 -39 -31 -70 -70 -70c-21 0 -40 9 -53 24c-27 32 -59 62 -99 93c-58 -32 -115 -67 -173 -105c-11 -8 -25 -12 -39 -12c-39 0 -70 31 -70 70z" />
    <glyph glyph-name="wdieresis" unicode="&#x1e85;" 
d="M127 -9c-34 0 -63 24 -69 57c-14 66 -23 206 -23 340c0 58 2 107 5 141c4 35 34 63 70 63c39 0 70 -31 70 -70c0 -8 -5 -38 -5 -134c0 -48 2 -96 3 -142c38 64 72 127 97 180c11 24 36 41 64 41c36 0 65 -27 69 -61l18 -130c40 78 77 162 104 241c9 29 36 49 67 49
c39 0 70 -31 70 -70c0 -9 -2 -17 -4 -24c-53 -152 -139 -325 -222 -444c-13 -19 -34 -31 -58 -31c-39 0 -70 31 -70 70c0 36 -3 85 -9 145c-41 -70 -83 -137 -118 -189c-13 -19 -34 -32 -59 -32zM225 681c0 43 5 74 18 101c11 25 35 42 64 42c39 0 70 -31 70 -70
c0 -11 -3 -22 -7 -31c-4 -8 -5 -15 -5 -42c0 -39 -31 -70 -70 -70s-70 31 -70 70zM420 692c0 11 2 21 7 30c1 2 4 20 10 54c4 34 34 60 69 60c39 0 70 -31 70 -70c0 -4 0 -8 -1 -12c-6 -36 -12 -69 -20 -87c-10 -26 -35 -45 -65 -45c-39 0 -70 31 -70 70z" />
    <glyph glyph-name="wgrave" unicode="&#x1e81;" 
d="M127 -9c-34 0 -63 24 -69 57c-14 66 -23 206 -23 340c0 58 2 107 5 141c4 35 34 63 70 63c39 0 70 -31 70 -70c0 -8 -5 -38 -5 -134c0 -48 2 -96 3 -142c38 64 72 127 97 180c11 24 36 41 64 41c36 0 65 -27 69 -61l18 -130c40 78 77 162 104 241c9 29 36 49 67 49
c39 0 70 -31 70 -70c0 -9 -2 -17 -4 -24c-53 -152 -139 -325 -222 -444c-13 -19 -34 -31 -58 -31c-39 0 -70 31 -70 70c0 36 -3 85 -9 145c-41 -70 -83 -137 -118 -189c-13 -19 -34 -32 -59 -32zM244 806c0 39 31 70 70 70c18 0 34 -7 46 -17l172 -151c15 -13 24 -32 24 -53
c0 -39 -31 -70 -70 -70c-18 0 -34 7 -46 17l-172 151c-15 13 -24 32 -24 53z" />
    <glyph glyph-name="x" unicode="x" 
d="M48 -22c-39 0 -70 31 -70 70c0 17 6 33 17 45c53 63 136 143 216 207c-34 62 -67 107 -107 149c-12 12 -19 29 -19 48c0 39 31 70 70 70c20 0 38 -8 51 -22c43 -45 81 -96 117 -160c71 58 143 128 173 171c13 18 34 30 58 30c39 0 70 -31 70 -70c0 -15 -5 -30 -13 -41
c-39 -55 -133 -145 -219 -214c32 -50 83 -123 121 -170c9 -12 15 -27 15 -44c0 -39 -31 -70 -70 -70c-23 0 -43 11 -55 27c-33 41 -85 114 -122 171c-67 -54 -135 -119 -179 -172c-13 -15 -32 -25 -54 -25z" />
    <glyph glyph-name="y" unicode="y" 
d="M59 -223c-39 0 -70 31 -70 70c0 21 9 40 24 52c57 52 110 106 169 175c-28 136 -77 305 -118 404c-4 8 -6 18 -6 28c0 39 31 70 70 70c30 0 55 -19 65 -45c36 -85 74 -209 102 -321c81 104 163 229 217 328c11 23 35 38 62 38c39 0 70 -31 70 -70c0 -12 -3 -24 -9 -34
c-71 -132 -173 -277 -249 -373c-108 -134 -189 -222 -280 -304c-13 -11 -29 -18 -47 -18z" />
    <glyph glyph-name="yacute" unicode="&#xfd;" 
d="M59 -223c-39 0 -70 31 -70 70c0 21 9 40 24 52c57 52 110 106 169 175c-28 136 -77 305 -118 404c-4 8 -6 18 -6 28c0 39 31 70 70 70c30 0 55 -19 65 -45c36 -85 74 -209 102 -321c81 104 163 229 217 328c11 23 35 38 62 38c39 0 70 -31 70 -70c0 -12 -3 -24 -9 -34
c-71 -132 -173 -277 -249 -373c-108 -134 -189 -222 -280 -304c-13 -11 -29 -18 -47 -18zM222 675c0 25 13 47 33 59l230 150c11 8 25 12 39 12c39 0 70 -31 70 -70c0 -25 -13 -47 -33 -59l-230 -150c-11 -8 -25 -12 -39 -12c-39 0 -70 31 -70 70z" />
    <glyph glyph-name="ycircumflex" unicode="&#x177;" 
d="M59 -223c-39 0 -70 31 -70 70c0 21 9 40 24 52c57 52 110 106 169 175c-28 136 -77 305 -118 404c-4 8 -6 18 -6 28c0 39 31 70 70 70c30 0 55 -19 65 -45c36 -85 74 -209 102 -321c81 104 163 229 217 328c11 23 35 38 62 38c39 0 70 -31 70 -70c0 -12 -3 -24 -9 -34
c-71 -132 -173 -277 -249 -373c-108 -134 -189 -222 -280 -304c-13 -11 -29 -18 -47 -18zM137 675c0 25 13 47 33 59c73 48 146 92 220 133c10 6 22 9 35 9c16 0 30 -5 42 -14c63 -47 116 -94 157 -141c10 -12 17 -28 17 -46c0 -39 -31 -70 -70 -70c-21 0 -40 9 -53 24
c-27 32 -59 62 -99 93c-58 -32 -115 -67 -173 -105c-11 -8 -25 -12 -39 -12c-39 0 -70 31 -70 70z" />
    <glyph glyph-name="ydieresis" unicode="&#xff;" 
d="M59 -223c-39 0 -70 31 -70 70c0 21 9 40 24 52c57 52 110 106 169 175c-28 136 -77 305 -118 404c-4 8 -6 18 -6 28c0 39 31 70 70 70c30 0 55 -19 65 -45c36 -85 74 -209 102 -321c81 104 163 229 217 328c11 23 35 38 62 38c39 0 70 -31 70 -70c0 -12 -3 -24 -9 -34
c-71 -132 -173 -277 -249 -373c-108 -134 -189 -222 -280 -304c-13 -11 -29 -18 -47 -18zM225 681c0 43 5 74 18 101c11 25 35 42 64 42c39 0 70 -31 70 -70c0 -11 -3 -22 -7 -31c-4 -8 -5 -15 -5 -42c0 -39 -31 -70 -70 -70s-70 31 -70 70zM420 692c0 11 2 21 7 30
c1 2 4 20 10 54c4 34 34 60 69 60c39 0 70 -31 70 -70c0 -4 0 -8 -1 -12c-6 -36 -12 -69 -20 -87c-10 -26 -35 -45 -65 -45c-39 0 -70 31 -70 70z" />
    <glyph glyph-name="ygrave" unicode="&#x1ef3;" 
d="M59 -223c-39 0 -70 31 -70 70c0 21 9 40 24 52c57 52 110 106 169 175c-28 136 -77 305 -118 404c-4 8 -6 18 -6 28c0 39 31 70 70 70c30 0 55 -19 65 -45c36 -85 74 -209 102 -321c81 104 163 229 217 328c11 23 35 38 62 38c39 0 70 -31 70 -70c0 -12 -3 -24 -9 -34
c-71 -132 -173 -277 -249 -373c-108 -134 -189 -222 -280 -304c-13 -11 -29 -18 -47 -18zM244 806c0 39 31 70 70 70c18 0 34 -7 46 -17l172 -151c15 -13 24 -32 24 -53c0 -39 -31 -70 -70 -70c-18 0 -34 7 -46 17l-172 151c-15 13 -24 32 -24 53z" />
    <glyph glyph-name="z" unicode="z" 
d="M173 -6c-39 0 -79 1 -122 2c-38 1 -68 32 -68 70c0 20 8 38 22 51c77 74 155 143 233 212c38 33 76 67 113 100c-16 0 -31 -1 -47 -1c-57 0 -105 3 -139 9c-34 5 -60 34 -60 69c0 39 31 70 70 70c12 0 43 -8 129 -8c145 0 223 15 241 15c39 0 70 -31 70 -70
c0 -20 -8 -38 -22 -51c-91 -87 -178 -164 -262 -238c-33 -30 -66 -60 -100 -89c90 1 166 8 231 19c5 1 9 1 13 1c39 0 70 -31 70 -70c0 -35 -26 -64 -59 -69c-100 -17 -212 -22 -313 -22z" />
    <glyph glyph-name="zacute" unicode="&#x17a;" 
d="M173 -6c-39 0 -79 1 -122 2c-38 1 -68 32 -68 70c0 20 8 38 22 51c77 74 155 143 233 212c38 33 76 67 113 100c-16 0 -31 -1 -47 -1c-57 0 -105 3 -139 9c-34 5 -60 34 -60 69c0 39 31 70 70 70c12 0 43 -8 129 -8c145 0 223 15 241 15c39 0 70 -31 70 -70
c0 -20 -8 -38 -22 -51c-91 -87 -178 -164 -262 -238c-33 -30 -66 -60 -100 -89c90 1 166 8 231 19c5 1 9 1 13 1c39 0 70 -31 70 -70c0 -35 -26 -64 -59 -69c-100 -17 -212 -22 -313 -22zM222 675c0 25 13 47 33 59l230 150c11 8 25 12 39 12c39 0 70 -31 70 -70
c0 -25 -13 -47 -33 -59l-230 -150c-11 -8 -25 -12 -39 -12c-39 0 -70 31 -70 70z" />
    <glyph glyph-name="zcaron" unicode="&#x17e;" 
d="M173 -6c-39 0 -79 1 -122 2c-38 1 -68 32 -68 70c0 20 8 38 22 51c77 74 155 143 233 212c38 33 76 67 113 100c-16 0 -31 -1 -47 -1c-57 0 -105 3 -139 9c-34 5 -60 34 -60 69c0 39 31 70 70 70c12 0 43 -8 129 -8c145 0 223 15 241 15c39 0 70 -31 70 -70
c0 -20 -8 -38 -22 -51c-91 -87 -178 -164 -262 -238c-33 -30 -66 -60 -100 -89c90 1 166 8 231 19c5 1 9 1 13 1c39 0 70 -31 70 -70c0 -35 -26 -64 -59 -69c-100 -17 -212 -22 -313 -22zM163 806c0 39 31 70 70 70c21 0 40 -9 53 -24c27 -32 59 -62 99 -93
c58 32 115 67 173 105c11 8 25 12 39 12c39 0 70 -31 70 -70c0 -25 -13 -47 -33 -59c-73 -48 -146 -92 -220 -133c-10 -6 -22 -9 -35 -9c-16 0 -30 5 -42 14c-63 47 -116 94 -157 141c-10 12 -17 28 -17 46z" />
    <glyph glyph-name="zdotaccent" unicode="&#x17c;" 
d="M173 -6c-39 0 -79 1 -122 2c-38 1 -68 32 -68 70c0 20 8 38 22 51c77 74 155 143 233 212c38 33 76 67 113 100c-16 0 -31 -1 -47 -1c-57 0 -105 3 -139 9c-34 5 -60 34 -60 69c0 39 31 70 70 70c12 0 43 -8 129 -8c145 0 223 15 241 15c39 0 70 -31 70 -70
c0 -20 -8 -38 -22 -51c-91 -87 -178 -164 -262 -238c-33 -30 -66 -60 -100 -89c90 1 166 8 231 19c5 1 9 1 13 1c39 0 70 -31 70 -70c0 -35 -26 -64 -59 -69c-100 -17 -212 -22 -313 -22zM305 702c6 95 33 155 108 155c49 0 87 -39 87 -88c0 -41 -33 -92 -72 -126
c-12 -11 -28 -17 -46 -17c-38 0 -77 35 -77 76z" />
    <glyph glyph-name="a.ss01" 
d="M450 -49c-39 0 -70 31 -70 70v4c-53 -31 -112 -49 -168 -49c-116 0 -191 63 -191 168c0 125 122 200 289 200c33 0 68 -3 101 -9c1 17 2 30 2 39c0 61 -10 70 -49 70c-40 0 -83 -12 -133 -35c-10 -5 -21 -8 -32 -8c-39 0 -70 31 -70 70c0 28 17 53 41 64
c66 31 136 49 194 49c123 0 189 -76 189 -210c0 -62 -21 -278 -34 -362c-4 -34 -33 -61 -69 -61zM161 154c0 -26 11 -38 61 -38c58 0 125 26 177 69l2 29c-28 6 -59 10 -91 10c-94 0 -149 -31 -149 -70z" />
    <glyph glyph-name="aacute.ss01" 
d="M450 -49c-39 0 -70 31 -70 70v4c-53 -31 -112 -49 -168 -49c-116 0 -191 63 -191 168c0 125 122 200 289 200c33 0 68 -3 101 -9c1 17 2 30 2 39c0 61 -10 70 -49 70c-40 0 -83 -12 -133 -35c-10 -5 -21 -8 -32 -8c-39 0 -70 31 -70 70c0 28 17 53 41 64
c66 31 136 49 194 49c123 0 189 -76 189 -210c0 -62 -21 -278 -34 -362c-4 -34 -33 -61 -69 -61zM161 154c0 -26 11 -38 61 -38c58 0 125 26 177 69l2 29c-28 6 -59 10 -91 10c-94 0 -149 -31 -149 -70zM222 675c0 25 13 47 33 59l230 150c11 8 25 12 39 12
c39 0 70 -31 70 -70c0 -25 -13 -47 -33 -59l-230 -150c-11 -8 -25 -12 -39 -12c-39 0 -70 31 -70 70z" />
    <glyph glyph-name="abreve.ss01" 
d="M450 -49c-39 0 -70 31 -70 70v4c-53 -31 -112 -49 -168 -49c-116 0 -191 63 -191 168c0 125 122 200 289 200c33 0 68 -3 101 -9c1 17 2 30 2 39c0 61 -10 70 -49 70c-40 0 -83 -12 -133 -35c-10 -5 -21 -8 -32 -8c-39 0 -70 31 -70 70c0 28 17 53 41 64
c66 31 136 49 194 49c123 0 189 -76 189 -210c0 -62 -21 -278 -34 -362c-4 -34 -33 -61 -69 -61zM161 154c0 -26 11 -38 61 -38c58 0 125 26 177 69l2 29c-28 6 -59 10 -91 10c-94 0 -149 -31 -149 -70zM170 799c0 39 31 70 70 70c37 0 67 -29 70 -65c2 -29 35 -52 87 -52
c57 0 107 30 126 74c10 26 35 45 65 45c39 0 70 -31 70 -70c0 -10 -2 -20 -6 -28c-41 -97 -142 -161 -255 -161c-122 0 -222 75 -227 187z" />
    <glyph glyph-name="acircumflex.ss01" 
d="M450 -49c-39 0 -70 31 -70 70v4c-53 -31 -112 -49 -168 -49c-116 0 -191 63 -191 168c0 125 122 200 289 200c33 0 68 -3 101 -9c1 17 2 30 2 39c0 61 -10 70 -49 70c-40 0 -83 -12 -133 -35c-10 -5 -21 -8 -32 -8c-39 0 -70 31 -70 70c0 28 17 53 41 64
c66 31 136 49 194 49c123 0 189 -76 189 -210c0 -62 -21 -278 -34 -362c-4 -34 -33 -61 -69 -61zM137 675c0 25 13 47 33 59c73 48 146 92 220 133c10 6 22 9 35 9c16 0 30 -5 42 -14c63 -47 116 -94 157 -141c10 -12 17 -28 17 -46c0 -39 -31 -70 -70 -70
c-21 0 -40 9 -53 24c-27 32 -59 62 -99 93c-58 -32 -115 -67 -173 -105c-11 -8 -25 -12 -39 -12c-39 0 -70 31 -70 70zM161 154c0 -26 11 -38 61 -38c58 0 125 26 177 69l2 29c-28 6 -59 10 -91 10c-94 0 -149 -31 -149 -70z" />
    <glyph glyph-name="adieresis.ss01" 
d="M450 -49c-39 0 -70 31 -70 70v4c-53 -31 -112 -49 -168 -49c-116 0 -191 63 -191 168c0 125 122 200 289 200c33 0 68 -3 101 -9c1 17 2 30 2 39c0 61 -10 70 -49 70c-40 0 -83 -12 -133 -35c-10 -5 -21 -8 -32 -8c-39 0 -70 31 -70 70c0 28 17 53 41 64
c66 31 136 49 194 49c123 0 189 -76 189 -210c0 -62 -21 -278 -34 -362c-4 -34 -33 -61 -69 -61zM161 154c0 -26 11 -38 61 -38c58 0 125 26 177 69l2 29c-28 6 -59 10 -91 10c-94 0 -149 -31 -149 -70zM225 681c0 43 5 74 18 101c11 25 35 42 64 42c39 0 70 -31 70 -70
c0 -11 -3 -22 -7 -31c-4 -8 -5 -15 -5 -42c0 -39 -31 -70 -70 -70s-70 31 -70 70zM420 692c0 11 2 21 7 30c1 2 4 20 10 54c4 34 34 60 69 60c39 0 70 -31 70 -70c0 -4 0 -8 -1 -12c-6 -36 -12 -69 -20 -87c-10 -26 -35 -45 -65 -45c-39 0 -70 31 -70 70z" />
    <glyph glyph-name="agrave.ss01" 
d="M450 -49c-39 0 -70 31 -70 70v4c-53 -31 -112 -49 -168 -49c-116 0 -191 63 -191 168c0 125 122 200 289 200c33 0 68 -3 101 -9c1 17 2 30 2 39c0 61 -10 70 -49 70c-40 0 -83 -12 -133 -35c-10 -5 -21 -8 -32 -8c-39 0 -70 31 -70 70c0 28 17 53 41 64
c66 31 136 49 194 49c123 0 189 -76 189 -210c0 -62 -21 -278 -34 -362c-4 -34 -33 -61 -69 -61zM161 154c0 -26 11 -38 61 -38c58 0 125 26 177 69l2 29c-28 6 -59 10 -91 10c-94 0 -149 -31 -149 -70zM244 806c0 39 31 70 70 70c18 0 34 -7 46 -17l172 -151
c15 -13 24 -32 24 -53c0 -39 -31 -70 -70 -70c-18 0 -34 7 -46 17l-172 151c-15 13 -24 32 -24 53z" />
    <glyph glyph-name="amacron.ss01" 
d="M450 -49c-39 0 -70 31 -70 70v4c-53 -31 -112 -49 -168 -49c-116 0 -191 63 -191 168c0 125 122 200 289 200c33 0 68 -3 101 -9c1 17 2 30 2 39c0 61 -10 70 -49 70c-40 0 -83 -12 -133 -35c-10 -5 -21 -8 -32 -8c-39 0 -70 31 -70 70c0 28 17 53 41 64
c66 31 136 49 194 49c123 0 189 -76 189 -210c0 -62 -21 -278 -34 -362c-4 -34 -33 -61 -69 -61zM134 691c0 36 27 65 62 69c112 16 298 23 388 23c39 0 70 -31 70 -70s-31 -70 -70 -70c-87 0 -264 -7 -369 -21c-4 -1 -7 -1 -11 -1c-39 0 -70 31 -70 70zM161 154
c0 -26 11 -38 61 -38c58 0 125 26 177 69l2 29c-28 6 -59 10 -91 10c-94 0 -149 -31 -149 -70z" />
    <glyph glyph-name="aogonek.ss01" 
d="M212 -24c-116 0 -191 63 -191 168c0 125 122 200 289 200c33 0 68 -3 101 -9c1 17 2 30 2 39c0 61 -10 70 -49 70c-40 0 -83 -12 -133 -35c-10 -5 -21 -8 -32 -8c-39 0 -70 31 -70 70c0 28 17 53 41 64c66 31 136 49 194 49c123 0 189 -76 189 -210
c0 -61 -20 -268 -33 -356c-1 -27 -18 -50 -41 -61l-4 -1c-1 -1 -2 -1 -2 -1c-53 -20 -105 -52 -105 -64c0 -4 2 -6 5 -6c17 0 44 12 67 29c12 9 26 14 42 14c39 0 70 -31 70 -70c0 -23 -11 -44 -29 -57c-46 -34 -109 -56 -159 -56c-76 0 -136 48 -136 115
c0 53 44 102 109 143c-41 -17 -84 -27 -125 -27zM161 154c0 -26 11 -38 61 -38c58 0 125 26 177 69l2 29c-28 6 -59 10 -91 10c-94 0 -149 -31 -149 -70z" />
    <glyph glyph-name="aring.ss01" 
d="M450 -49c-39 0 -70 31 -70 70v4c-53 -31 -112 -49 -168 -49c-116 0 -191 63 -191 168c0 125 122 200 289 200c33 0 68 -3 101 -9c1 17 2 30 2 39c0 61 -10 70 -49 70c-40 0 -83 -12 -133 -35c-10 -5 -21 -8 -32 -8c-39 0 -70 31 -70 70c0 28 17 53 41 64
c66 31 136 49 194 49c123 0 189 -76 189 -210c0 -62 -21 -278 -34 -362c-4 -34 -33 -61 -69 -61zM161 154c0 -26 11 -38 61 -38c58 0 125 26 177 69l2 29c-28 6 -59 10 -91 10c-94 0 -149 -31 -149 -70zM233 768c0 98 90 185 188 185c89 0 168 -75 168 -163
c0 -89 -92 -173 -182 -173c-101 0 -174 59 -174 151zM333 768c0 -22 18 -51 74 -51c35 0 82 35 82 73c0 34 -28 63 -68 63c-41 0 -88 -42 -88 -85z" />
    <glyph glyph-name="aringacute.ss01" 
d="M450 -49c-39 0 -70 31 -70 70v4c-53 -31 -112 -49 -168 -49c-116 0 -191 63 -191 168c0 125 122 200 289 200c33 0 68 -3 101 -9c1 17 2 30 2 39c0 61 -10 70 -49 70c-40 0 -83 -12 -133 -35c-10 -5 -21 -8 -32 -8c-39 0 -70 31 -70 70c0 28 17 53 41 64
c66 31 136 49 194 49c123 0 189 -76 189 -210c0 -62 -21 -278 -34 -362c-4 -34 -33 -61 -69 -61zM161 154c0 -26 11 -38 61 -38c58 0 125 26 177 69l2 29c-28 6 -59 10 -91 10c-94 0 -149 -31 -149 -70zM233 768c0 98 90 185 188 185c21 0 41 -4 60 -12l176 115
c11 8 25 12 39 12c39 0 70 -31 70 -70c0 -25 -13 -47 -33 -59l-152 -99c5 -16 8 -33 8 -50c0 -89 -92 -173 -182 -173c-101 0 -174 59 -174 151zM333 768c0 -22 18 -51 74 -51c35 0 82 35 82 73c0 34 -28 63 -68 63c-41 0 -88 -42 -88 -85z" />
    <glyph glyph-name="atilde.ss01" 
d="M450 -49c-39 0 -70 31 -70 70v4c-53 -31 -112 -49 -168 -49c-116 0 -191 63 -191 168c0 125 122 200 289 200c33 0 68 -3 101 -9c1 17 2 30 2 39c0 61 -10 70 -49 70c-40 0 -83 -12 -133 -35c-10 -5 -21 -8 -32 -8c-39 0 -70 31 -70 70c0 28 17 53 41 64
c66 31 136 49 194 49c123 0 189 -76 189 -210c0 -62 -21 -278 -34 -362c-4 -34 -33 -61 -69 -61zM106 674c0 10 2 19 5 27c37 93 120 160 209 160c62 0 101 -26 143 -82c21 -26 23 -27 33 -27c22 0 50 27 64 70c9 28 36 49 67 49c39 0 70 -31 70 -70c0 -8 -1 -16 -4 -24
c-33 -97 -109 -165 -197 -165c-62 0 -101 26 -143 82c-21 26 -23 27 -33 27c-28 0 -62 -29 -78 -71c-10 -27 -36 -46 -66 -46c-39 0 -70 31 -70 70zM161 154c0 -26 11 -38 61 -38c58 0 125 26 177 69l2 29c-28 6 -59 10 -91 10c-94 0 -149 -31 -149 -70z" />
    <glyph glyph-name="fi" unicode="&#xfb01;" 
d="M-7 -218c-39 0 -70 31 -70 70c0 30 19 56 46 66c47 19 70 53 92 160c17 77 38 211 54 316l-12 1c-36 3 -64 33 -64 70c0 39 31 70 70 70l28 -2c37 176 99 274 218 274c25 0 53 -6 75 -17c22 -12 38 -36 38 -63c0 -39 -31 -70 -70 -70c-27 0 -27 10 -43 10
c-25 0 -49 -30 -70 -118c11 3 22 6 33 10c7 3 16 5 25 5c39 0 70 -31 70 -70c0 -31 -20 -57 -48 -66c-31 -12 -69 -21 -107 -27c-17 -106 -40 -258 -59 -351c-31 -149 -80 -223 -179 -263c-8 -3 -17 -5 -27 -5zM370 56c0 3 0 5 1 11c18 126 66 342 99 447c8 29 35 50 67 50
c39 0 70 -31 70 -70c0 -8 -1 -16 -4 -23c-31 -97 -76 -305 -94 -424c-4 -34 -33 -61 -69 -61c-39 0 -70 31 -70 70zM508 692c0 26 11 125 92 125c47 0 77 -39 77 -83c0 -37 -22 -77 -51 -101c-12 -11 -28 -17 -45 -17c-44 0 -73 40 -73 76z" />
    <glyph glyph-name="fl" unicode="&#xfb02;" 
d="M448 -23c-76 0 -115 62 -115 144c0 114 98 474 150 644c8 29 35 51 67 51c39 0 70 -31 70 -70c0 -8 -1 -15 -3 -22c-81 -259 -143 -551 -143 -578c0 -6 1 -11 4 -11c4 0 14 5 29 5c39 0 70 -31 70 -70c0 -25 -13 -48 -34 -60c-31 -20 -66 -33 -95 -33zM-97 -148
c0 30 19 56 46 66c47 19 70 53 92 160c17 77 37 211 53 317h-2c-35 4 -63 34 -63 70c0 39 31 70 70 70l19 -1c36 175 98 273 217 273c25 0 53 -5 75 -17s38 -36 38 -63c0 -39 -31 -70 -70 -70c-27 0 -27 10 -43 10c-25 0 -48 -30 -70 -116c7 2 14 4 21 7c8 4 17 6 27 6
c39 0 70 -31 70 -70c0 -30 -19 -56 -46 -66c-29 -12 -63 -21 -99 -27c-17 -106 -40 -258 -59 -351c-31 -149 -80 -223 -179 -263c-8 -3 -17 -5 -27 -5c-39 0 -70 31 -70 70z" />
    <glyph glyph-name="ordfeminine" unicode="&#xaa;" 
d="M487 285c-33 0 -60 27 -60 60c-51 -23 -106 -37 -159 -37c-103 0 -170 53 -170 142c0 108 107 168 253 168c31 0 66 -3 100 -9v13c0 53 -10 60 -48 60s-80 -10 -128 -32c-8 -4 -16 -6 -26 -6c-33 0 -60 27 -60 60c0 25 16 47 37 56c61 27 124 42 177 42
c109 0 168 -64 168 -180c0 -34 -17 -228 -25 -284c-3 -29 -28 -53 -59 -53zM218 450c0 -14 8 -22 50 -22c60 0 124 21 173 55l1 15c-29 4 -62 8 -91 8c-84 0 -133 -25 -133 -56z" />
    <glyph glyph-name="ordmasculine" unicode="&#xba;" 
d="M326 292c-127 0 -203 76 -203 202c0 157 133 301 280 301c121 0 197 -84 197 -218c0 -162 -117 -285 -274 -285zM243 494c0 -59 22 -82 83 -82c90 0 154 68 154 165c0 70 -25 98 -77 98c-79 0 -160 -90 -160 -181z" />
    <glyph glyph-name="uni0410" unicode="&#x410;" 
d="M481 -36c-39 0 -70 31 -70 70c0 44 0 88 -1 132c-73 -4 -155 -10 -239 -18c-26 -42 -48 -82 -66 -117c-11 -24 -35 -40 -63 -40c-39 0 -70 31 -70 70c0 12 3 23 8 32c11 21 23 44 36 68c-10 12 -17 28 -17 46c0 36 28 66 63 70l27 3c96 150 218 314 308 420
c13 15 32 25 54 25c36 0 66 -28 70 -64c22 -214 30 -439 30 -627c0 -39 -31 -70 -70 -70zM268 297c48 4 94 7 137 9c-2 57 -5 113 -9 168c-42 -56 -86 -116 -128 -177z" />
    <glyph glyph-name="uni0411" unicode="&#x411;" 
d="M195 -14c-31 0 -64 2 -95 7c-35 4 -62 33 -62 69v8c11 103 50 307 96 507c-15 13 -25 32 -25 54c0 38 31 70 69 70c37 0 77 1 115 1c59 1 119 2 173 2c36 0 66 0 91 -1c38 -1 68 -32 68 -70c0 -39 -31 -70 -70 -70c-8 0 -53 1 -89 1c-53 0 -112 -1 -171 -2h-21
c-8 -37 -17 -75 -25 -112c170 0 310 -94 310 -230c0 -142 -169 -234 -364 -234zM187 126h8c120 0 224 49 224 94c0 46 -74 90 -170 90c-10 0 -20 0 -29 -1c-14 -69 -25 -132 -33 -183z" />
    <glyph glyph-name="uni0412" unicode="&#x412;" 
d="M74 -49c-39 0 -70 31 -70 70c0 5 1 10 2 15c22 117 54 292 79 428c15 87 28 159 34 188c6 31 31 55 63 58c52 5 89 7 123 7c178 0 294 -72 294 -212c0 -68 -36 -124 -97 -163c51 -32 81 -75 81 -131c0 -151 -194 -225 -454 -233c-13 -17 -32 -27 -55 -27zM164 120
c164 11 279 54 279 91c0 20 -110 56 -250 63zM218 414c30 -2 60 -5 88 -9c96 9 153 49 153 100c0 44 -45 72 -154 72c-17 0 -36 -1 -58 -2c-6 -35 -15 -82 -25 -136z" />
    <glyph glyph-name="uni0413" unicode="&#x413;" 
d="M87 -15c-39 0 -70 31 -70 70c0 5 1 10 2 15c29 148 95 449 124 567c6 28 29 50 57 54c96 17 194 26 287 26c44 0 86 -2 128 -6c36 -3 64 -33 64 -70c0 -39 -31 -70 -70 -70h-7c-37 4 -76 6 -115 6c-71 0 -145 -6 -219 -17c-31 -136 -86 -387 -112 -517
c-6 -33 -35 -58 -69 -58z" />
    <glyph glyph-name="uni0403" unicode="&#x403;" 
d="M87 -15c-39 0 -70 31 -70 70c0 5 1 10 2 15c29 148 95 449 124 567c6 28 29 50 57 54c96 17 194 26 287 26c44 0 86 -2 128 -6c36 -3 64 -33 64 -70c0 -39 -31 -70 -70 -70h-7c-37 4 -76 6 -115 6c-71 0 -145 -6 -219 -17c-31 -136 -86 -387 -112 -517
c-6 -33 -35 -58 -69 -58zM250 815c0 25 13 47 33 59l230 150c11 8 25 12 39 12c39 0 70 -31 70 -70c0 -25 -13 -47 -33 -59l-230 -150c-11 -8 -25 -12 -39 -12c-39 0 -70 31 -70 70z" />
    <glyph glyph-name="uni0490" unicode="&#x490;" 
d="M87 -15c-39 0 -70 31 -70 70c0 5 1 10 2 15c29 147 94 445 123 562c6 28 29 50 57 54c96 17 194 26 287 26c23 0 45 -1 67 -2c5 22 10 47 15 77c5 33 34 59 69 59c39 0 70 -31 70 -70c0 -5 0 -9 -1 -13c-7 -40 -19 -102 -30 -144c-8 -30 -35 -53 -68 -53h-7
c-37 4 -76 6 -115 6c-71 0 -145 -6 -219 -17c-31 -134 -85 -383 -111 -512c-6 -33 -35 -58 -69 -58z" />
    <glyph glyph-name="uni0492" unicode="&#x492;" 
d="M87 -15c-39 0 -70 31 -70 70c0 5 1 10 2 15c9 46 21 106 35 171h-3c-3 -1 -5 -1 -9 -1c-33 0 -60 27 -60 60c0 31 23 56 54 60l45 6c24 108 48 212 62 271c6 28 29 50 57 54c96 17 194 26 287 26c44 0 86 -2 128 -6c36 -3 64 -33 64 -70c0 -39 -31 -70 -70 -70h-7
c-37 4 -76 6 -115 6c-71 0 -145 -6 -219 -17l-40 -180c48 3 93 6 121 6c34 0 60 -26 60 -60c0 -32 -25 -59 -58 -60c-49 -1 -100 -4 -150 -9c-18 -81 -34 -159 -45 -214c-6 -33 -35 -58 -69 -58z" />
    <glyph glyph-name="uni0414" unicode="&#x414;" 
d="M-25 -217c-39 0 -70 31 -70 70c0 7 1 13 3 20c25 95 43 152 61 193c9 23 30 40 56 43l21 3c64 90 115 250 167 523c5 29 29 53 58 57c68 12 201 19 290 20c39 0 70 -31 70 -70c0 -7 -1 -14 -3 -21c-38 -132 -77 -313 -106 -488c25 -10 42 -35 42 -64c0 -5 -1 -10 -2 -15
c-4 -25 -9 -48 -14 -70c-11 -56 -20 -103 -26 -139c-4 -35 -33 -61 -69 -61c-39 0 -70 31 -70 70c0 4 0 8 1 12c5 36 14 80 24 129c-11 -1 -23 -1 -34 -2c-98 -4 -211 -9 -290 -17c-11 -33 -24 -77 -41 -140c-7 -30 -35 -53 -68 -53zM215 126l153 7c4 0 8 0 13 1
c24 149 55 305 88 435c-47 -2 -92 -5 -128 -9c-38 -192 -79 -333 -126 -434z" />
    <glyph glyph-name="uni0415" unicode="&#x415;" 
d="M485 -11c-99 0 -232 7 -313 17c-86 10 -142 52 -142 139c0 38 17 97 33 157l6 22c-7 11 -11 24 -11 38c0 27 15 51 38 62l8 40c20 99 27 146 25 175c0 39 31 70 70 70c15 0 30 -5 42 -14c70 11 146 17 217 17c47 0 93 -2 136 -6c36 -3 64 -33 64 -70
c0 -39 -31 -70 -70 -70c-46 4 -88 6 -130 6c-65 0 -132 -5 -195 -15c-5 -31 -11 -71 -21 -121l-1 -5c92 2 177 7 245 17l11 1c39 0 70 -31 70 -70c0 -36 -27 -65 -61 -69c-83 -12 -190 -19 -301 -19l-7 -27c-20 -74 -27 -101 -27 -110c0 -6 4 -7 19 -9
c76 -9 202 -16 295 -16c39 0 70 -31 70 -70s-31 -70 -70 -70z" />
    <glyph glyph-name="uni0401" unicode="&#x401;" 
d="M485 -11c-99 0 -232 7 -313 17c-86 10 -142 52 -142 139c0 38 17 97 33 157l6 22c-7 11 -11 24 -11 38c0 27 15 51 38 62l8 40c20 99 27 146 25 175c0 39 31 70 70 70c15 0 30 -5 42 -14c70 11 146 17 217 17c47 0 93 -2 136 -6c36 -3 64 -33 64 -70
c0 -39 -31 -70 -70 -70c-46 4 -88 6 -130 6c-65 0 -132 -5 -195 -15c-5 -31 -11 -71 -21 -121l-1 -5c92 2 177 7 245 17l11 1c39 0 70 -31 70 -70c0 -36 -27 -65 -61 -69c-83 -12 -190 -19 -301 -19l-7 -27c-20 -74 -27 -101 -27 -110c0 -6 4 -7 19 -9
c76 -9 202 -16 295 -16c39 0 70 -31 70 -70s-31 -70 -70 -70zM253 821c0 43 5 74 18 101c11 25 35 42 64 42c39 0 70 -31 70 -70c0 -11 -3 -22 -7 -31c-4 -8 -5 -15 -5 -42c0 -39 -31 -70 -70 -70s-70 31 -70 70zM448 832c0 11 2 21 7 30c1 2 4 20 10 54c4 34 34 60 69 60
c39 0 70 -31 70 -70c0 -4 0 -8 -1 -12c-6 -36 -12 -69 -20 -87c-10 -26 -35 -45 -65 -45c-39 0 -70 31 -70 70z" />
    <glyph glyph-name="uni0416" unicode="&#x416;" 
d="M19 -6c-39 0 -70 31 -70 70c0 13 3 25 9 35c46 84 117 184 183 263c-35 80 -60 176 -71 276v8c0 39 31 70 70 70c36 0 66 -28 70 -63c7 -90 22 -169 44 -235c5 -1 11 -2 16 -2c19 86 36 168 49 233c6 33 35 58 69 58c39 0 70 -31 70 -70c0 -5 -1 -10 -2 -15
c-11 -57 -26 -128 -42 -204c58 75 110 161 154 258c11 24 35 40 63 40c39 0 70 -31 70 -70c0 -12 -3 -23 -8 -33c-53 -105 -118 -203 -190 -286c38 -75 70 -168 85 -248c1 -5 2 -10 2 -15c0 -39 -31 -70 -70 -70c-35 0 -63 25 -69 58c-11 72 -33 152 -59 215l-11 1
c-19 -83 -38 -166 -56 -236c-7 -31 -35 -54 -68 -54c-39 0 -70 31 -70 70c0 6 1 13 3 19c16 63 33 137 50 212h-3c-57 -72 -117 -167 -156 -247c-12 -23 -35 -38 -62 -38z" />
    <glyph glyph-name="uni0417" unicode="&#x417;" 
d="M231 -20c-70 0 -134 17 -195 53c-21 12 -35 35 -35 61c0 39 31 70 70 70c13 0 26 -4 37 -10c40 -24 75 -34 123 -34c98 0 170 44 170 92c0 46 -39 73 -119 73c-15 0 -32 -1 -48 -3h-8c-39 0 -70 31 -70 70c0 19 8 37 21 50c10 10 22 16 35 19c177 43 240 76 240 106
c0 28 -23 47 -65 47c-46 0 -105 -14 -162 -38c-9 -4 -19 -6 -29 -6c-39 0 -70 31 -70 70c0 30 18 55 44 65c72 30 155 49 217 49c116 0 205 -78 205 -187c0 -75 -41 -125 -116 -165c41 -37 65 -88 65 -150c0 -133 -135 -232 -310 -232z" />
    <glyph glyph-name="uni0418" unicode="&#x418;" 
d="M486 -24c-39 0 -70 31 -70 70c0 7 1 14 3 21c26 90 57 233 83 372c-122 -131 -255 -290 -353 -425c-13 -17 -33 -29 -57 -29c-39 0 -70 31 -70 70c0 6 1 12 2 18c36 146 96 475 113 589c4 35 33 61 69 61c39 0 70 -31 70 -70c0 -4 0 -8 -1 -12c-9 -62 -31 -185 -54 -310
c115 138 239 273 337 364c13 12 29 19 48 19c39 0 70 -31 70 -70c0 -4 0 -7 -1 -10c-25 -190 -80 -462 -121 -606c-8 -30 -36 -52 -68 -52z" />
    <glyph glyph-name="uni0419" unicode="&#x419;" 
d="M486 -24c-39 0 -70 31 -70 70c0 7 1 14 3 21c26 90 57 233 83 372c-122 -131 -255 -290 -353 -425c-13 -17 -33 -29 -57 -29c-39 0 -70 31 -70 70c0 6 1 12 2 18c36 146 96 475 113 589c4 35 33 61 69 61c39 0 70 -31 70 -70c0 -4 0 -8 -1 -12c-9 -62 -31 -185 -54 -310
c115 138 239 273 337 364c13 12 29 19 48 19c39 0 70 -31 70 -70c0 -4 0 -7 -1 -10c-25 -190 -80 -462 -121 -606c-8 -30 -36 -52 -68 -52zM188 939c0 39 31 70 70 70c37 0 67 -29 70 -65c2 -29 35 -52 87 -52c57 0 107 30 126 74c10 26 35 45 65 45c39 0 70 -31 70 -70
c0 -10 -2 -20 -6 -28c-41 -97 -142 -161 -255 -161c-122 0 -222 75 -227 187z" />
    <glyph glyph-name="uni041A" unicode="&#x41a;" 
d="M487 -24c-21 0 -40 9 -53 24c-63 71 -145 183 -201 269l-24 1c-16 -79 -28 -154 -36 -223c-4 -36 -34 -63 -70 -63c-39 0 -70 31 -70 70c0 3 0 6 1 9c20 178 70 398 135 606c8 30 35 51 67 51c39 0 70 -31 70 -70c0 -8 -1 -15 -4 -23c-23 -72 -43 -146 -61 -218l11 -1
c110 74 207 165 283 266c12 17 33 28 56 28c39 0 70 -31 70 -70c0 -16 -5 -31 -15 -43c-75 -99 -172 -193 -278 -270c56 -83 123 -172 171 -226c11 -13 18 -29 18 -47c0 -39 -31 -70 -70 -70z" />
    <glyph glyph-name="uni040C" unicode="&#x40c;" 
d="M487 -24c-21 0 -40 9 -53 24c-63 71 -145 183 -201 269l-24 1c-16 -79 -28 -154 -36 -223c-4 -36 -34 -63 -70 -63c-39 0 -70 31 -70 70c0 3 0 6 1 9c20 178 70 398 135 606c8 30 35 51 67 51c39 0 70 -31 70 -70c0 -8 -1 -15 -4 -23c-23 -72 -43 -146 -61 -218l11 -1
c110 74 207 165 283 266c12 17 33 28 56 28c39 0 70 -31 70 -70c0 -16 -5 -31 -15 -43c-75 -99 -172 -193 -278 -270c56 -83 123 -172 171 -226c11 -13 18 -29 18 -47c0 -39 -31 -70 -70 -70zM250 815c0 25 13 47 33 59l230 150c11 8 25 12 39 12c39 0 70 -31 70 -70
c0 -25 -13 -47 -33 -59l-230 -150c-11 -8 -25 -12 -39 -12c-39 0 -70 31 -70 70z" />
    <glyph glyph-name="uni041B" unicode="&#x41b;" 
d="M469 -15c-39 0 -70 31 -70 70c0 4 0 7 1 11c24 194 53 370 87 500c-26 0 -53 1 -82 1l-62 -1c-67 -332 -152 -482 -318 -569c-10 -5 -21 -8 -33 -8c-39 0 -70 31 -70 70c0 28 16 52 39 63c120 61 183 176 241 454c-17 13 -28 33 -28 56c0 37 29 67 65 70c38 3 98 5 166 5
c67 0 132 -2 178 -5c37 -2 66 -33 66 -70c0 -8 -1 -15 -4 -22c-49 -154 -80 -353 -107 -563c-4 -35 -33 -62 -69 -62z" />
    <glyph glyph-name="uni041C" unicode="&#x41c;" 
d="M26 -16c-39 0 -70 31 -70 70c0 6 1 12 2 18c22 89 47 184 71 275c29 111 57 217 76 303c7 32 35 56 69 56c33 0 60 -22 68 -53c10 -36 62 -210 75 -254c18 29 153 237 182 283c12 21 34 35 60 35c39 0 70 -31 70 -70c0 -5 -3 -43 -10 -116c-14 -166 -29 -342 -45 -474
c-4 -35 -34 -62 -70 -62c-39 0 -70 31 -70 70c15 126 28 280 34 341c-46 -71 -89 -139 -114 -181c-12 -21 -35 -35 -61 -35c-35 0 -64 26 -69 60c-7 42 -20 94 -36 150l-24 -88c-24 -92 -48 -185 -70 -273c-7 -32 -35 -55 -68 -55z" />
    <glyph glyph-name="uni041D" unicode="&#x41d;" 
d="M468 -22c-39 0 -70 31 -70 70c0 2 0 5 1 11c8 56 18 126 28 193c-23 1 -48 1 -75 1c-58 0 -119 -2 -167 -6c-19 -77 -42 -151 -67 -209c-11 -26 -36 -44 -65 -44c-39 0 -70 31 -70 70c0 10 2 20 6 29c51 117 102 342 125 550c4 35 34 63 70 63c39 0 70 -31 70 -70
c0 -3 0 -6 -1 -9c-7 -67 -20 -151 -36 -238c42 3 89 4 135 4c35 0 68 -1 97 -2c5 32 10 59 14 78c13 64 42 150 72 210c11 24 35 40 63 40c39 0 70 -31 70 -70c0 -12 -3 -23 -8 -32c-25 -51 -49 -121 -59 -176c-15 -71 -46 -271 -64 -402c-4 -34 -33 -61 -69 -61z" />
    <glyph glyph-name="uni041E" unicode="&#x41e;" 
d="M244 -10c-138 0 -224 97 -224 252c0 218 193 469 367 469c147 0 237 -101 237 -261c0 -226 -191 -460 -380 -460zM160 242c0 -80 27 -112 84 -112c108 0 240 172 240 320c0 85 -31 121 -97 121c-91 0 -227 -191 -227 -329z" />
    <glyph glyph-name="uni041F" unicode="&#x41f;" 
d="M451 -17c-39 0 -70 31 -70 70c0 4 0 7 1 11c27 196 50 359 93 515h-13c-63 0 -137 -3 -192 -8c-34 -166 -90 -390 -132 -524c-8 -30 -35 -51 -67 -51c-39 0 -70 31 -70 70c0 8 1 15 4 22c44 143 106 397 137 559c5 30 30 54 60 57c62 9 170 15 260 15c44 0 82 -1 113 -4
c36 -3 64 -33 64 -70c0 -8 -1 -16 -4 -24c-58 -171 -83 -344 -115 -576c-4 -35 -33 -62 -69 -62z" />
    <glyph glyph-name="uni0420" unicode="&#x420;" 
d="M104 -16c-39 0 -70 31 -70 70c0 16 13 77 22 132c23 130 54 310 88 463c6 27 27 49 54 54c35 9 73 13 111 13c169 0 304 -113 304 -259c0 -150 -173 -264 -389 -264c-8 0 -16 0 -25 1c-13 -80 -20 -121 -26 -152c-5 -33 -34 -58 -69 -58zM224 333c135 0 249 62 249 124
c0 65 -70 119 -164 119c-13 0 -26 -1 -38 -2c-17 -78 -33 -162 -47 -241z" />
    <glyph glyph-name="uni0421" unicode="&#x421;" 
d="M271 -22c-156 0 -246 98 -246 265c0 238 194 455 409 455c29 0 58 -5 88 -16l4 16c6 31 34 55 68 55c39 0 70 -31 70 -70c0 -6 -1 -12 -2 -17l-50 -213c-6 -31 -34 -55 -68 -55c-39 0 -70 31 -70 70c0 6 1 12 2 17l14 60c-20 9 -38 13 -56 13c-136 0 -269 -154 -269 -315
c0 -91 31 -125 106 -125c54 0 112 27 189 91c12 11 28 17 45 17c39 0 70 -31 70 -70c0 -22 -10 -41 -26 -54c-100 -84 -189 -124 -278 -124z" />
    <glyph glyph-name="uni0422" unicode="&#x422;" 
d="M276 -10c-39 0 -70 31 -70 70c0 5 1 10 2 15c23 116 57 322 78 477h-36c-38 0 -75 0 -111 1c-38 1 -68 32 -68 70c0 39 31 70 70 70c35 -1 71 -1 109 -1c121 0 250 4 365 13c39 0 70 -31 70 -70c0 -37 -29 -67 -65 -70c-60 -5 -126 -8 -192 -10
c-22 -161 -58 -384 -83 -508c-6 -32 -35 -57 -69 -57z" />
    <glyph glyph-name="uni0423" unicode="&#x423;" 
d="M102 -41c-39 0 -70 31 -70 70c0 22 10 42 26 54c53 44 111 101 170 165c-41 109 -95 251 -144 359c-5 9 -7 19 -7 30c0 39 31 70 70 70c29 0 54 -18 64 -43c40 -89 84 -198 120 -294c81 100 158 210 222 317c12 21 35 35 61 35c39 0 70 -31 70 -70c0 -14 -4 -26 -10 -37
c-126 -209 -337 -484 -527 -640c-12 -10 -28 -16 -45 -16z" />
    <glyph glyph-name="uni040E" unicode="&#x40e;" 
d="M102 -41c-39 0 -70 31 -70 70c0 22 10 42 26 54c53 44 111 101 170 165c-41 109 -95 251 -144 359c-5 9 -7 19 -7 30c0 39 31 70 70 70c29 0 54 -18 64 -43c40 -89 84 -198 120 -294c81 100 158 210 222 317c12 21 35 35 61 35c39 0 70 -31 70 -70c0 -14 -4 -26 -10 -37
c-126 -209 -337 -484 -527 -640c-12 -10 -28 -16 -45 -16zM198 939c0 39 31 70 70 70c37 0 67 -29 70 -65c2 -29 35 -52 87 -52c57 0 107 30 126 74c10 26 35 45 65 45c39 0 70 -31 70 -70c0 -10 -2 -20 -6 -28c-41 -97 -142 -161 -255 -161c-122 0 -222 75 -227 187z" />
    <glyph glyph-name="uni0424" unicode="&#x424;" 
d="M268 -50c-39 0 -70 31 -70 70c0 5 1 10 2 15l1 3c-114 28 -182 125 -182 266c0 173 129 332 286 364l3 23c5 35 34 62 70 62c39 0 70 -31 70 -70c0 -4 0 -7 -1 -10l-2 -11c115 -30 183 -125 183 -264c0 -174 -125 -325 -285 -360l-6 -30c-6 -33 -35 -58 -69 -58zM159 304
c0 -78 23 -123 70 -138c19 109 42 240 60 358c-72 -37 -130 -127 -130 -220zM365 185c71 39 123 122 123 213c0 72 -21 116 -66 134c-17 -111 -38 -237 -57 -347z" />
    <glyph glyph-name="uni0425" unicode="&#x425;" 
d="M20 -23c-39 0 -70 31 -70 70c0 20 8 38 22 51c79 75 173 170 251 254c-50 107 -82 203 -100 280c-1 5 -2 11 -2 17c0 39 31 70 70 70c34 0 62 -24 68 -55c15 -65 38 -131 67 -200c79 86 168 177 234 242c12 12 30 20 49 20c39 0 70 -31 70 -70c0 -19 -8 -37 -21 -50
c-74 -73 -180 -183 -266 -277c41 -72 110 -183 151 -243c7 -12 12 -25 12 -40c0 -39 -31 -70 -70 -70c-25 0 -46 13 -59 32c-35 52 -90 140 -133 213c-73 -76 -154 -158 -225 -225c-12 -12 -29 -19 -48 -19z" />
    <glyph glyph-name="uni0427" unicode="&#x427;" 
d="M268 237c-124 0 -200 75 -200 198c0 48 31 171 50 226c9 29 36 49 67 49c39 0 70 -31 70 -70c0 -9 -2 -17 -4 -24c-20 -58 -43 -155 -43 -181c0 -45 13 -58 60 -58c54 0 116 15 167 40c18 94 40 186 58 254c8 30 35 53 68 53c39 0 70 -31 70 -70c0 -7 -1 -14 -3 -20
c-49 -181 -100 -438 -98 -585c0 -39 -31 -70 -70 -70c-38 0 -69 30 -70 67c-2 54 5 129 17 212c-47 -14 -95 -21 -139 -21z" />
    <glyph glyph-name="uni0426" unicode="&#x426;" 
d="M445 -215c-39 0 -70 31 -70 70c0 10 2 20 6 28c12 29 24 66 36 109c-102 -2 -252 -7 -363 -14c-39 0 -70 31 -70 70c0 6 1 11 2 17c33 147 90 431 117 591c5 34 34 60 69 60c39 0 70 -31 70 -70c0 -4 0 -9 -1 -13c-23 -134 -66 -354 -99 -510c73 3 148 6 218 8
c42 139 98 375 129 525c6 33 35 57 69 57c39 0 70 -31 70 -70c0 -6 -1 -11 -2 -16c-29 -138 -78 -348 -119 -494c38 0 69 -31 69 -70c0 -6 -1 -11 -2 -17c-20 -88 -42 -163 -64 -216c-10 -26 -35 -45 -65 -45z" />
    <glyph glyph-name="uni0428" unicode="&#x428;" 
d="M473 -5c-119 0 -293 1 -436 3c-38 0 -69 32 -69 70c0 4 0 9 1 13c24 142 78 414 112 569c7 32 35 56 69 56c39 0 70 -31 70 -70c0 -6 -1 -11 -2 -17c-29 -129 -70 -337 -97 -482l82 -1c26 143 72 374 106 521c7 32 35 56 69 56c39 0 70 -31 70 -70c0 -6 -1 -12 -2 -17
c-32 -138 -74 -349 -101 -491h72c11 52 24 113 38 178c26 124 55 259 76 354c7 32 35 56 69 56c39 0 70 -31 70 -70c0 -6 -1 -11 -2 -17c-21 -94 -50 -229 -76 -353l-50 -232c-7 -32 -35 -56 -69 -56z" />
    <glyph glyph-name="uni0429" unicode="&#x429;" 
d="M455 -215c-39 0 -70 31 -70 70c0 10 2 20 6 28c12 29 24 66 36 109c-156 -1 -372 -14 -383 -14c-39 0 -70 31 -70 70c0 6 1 11 2 17c33 147 90 431 117 591c5 34 34 60 69 60c39 0 70 -31 70 -70c0 -4 0 -9 -1 -13c-23 -134 -66 -354 -99 -510l62 3
c25 105 63 280 117 540c6 32 35 57 69 57c39 0 70 -31 70 -70c0 -7 -2 -16 -6 -36c-30 -141 -73 -347 -105 -487l61 2c42 141 99 381 131 534c7 33 35 57 69 57c39 0 70 -31 70 -70c0 -6 -1 -11 -2 -16c-31 -142 -82 -362 -123 -510c24 -11 41 -35 41 -64
c0 -6 -1 -11 -2 -17c-20 -88 -42 -163 -64 -216c-10 -26 -35 -45 -65 -45z" />
    <glyph glyph-name="uni040F" unicode="&#x40f;" 
d="M473 -5c-9 0 -52 5 -145 7c-12 -69 -18 -122 -20 -158c-1 -38 -32 -68 -70 -68c-39 0 -70 31 -70 70c0 32 9 97 19 157c-83 -2 -124 -5 -129 -5c-39 0 -70 31 -70 70c0 6 1 12 2 18c34 143 90 419 114 574c4 35 34 61 69 61c39 0 70 -31 70 -70c0 -4 0 -8 -1 -12
c-20 -131 -62 -345 -96 -497c35 1 70 1 105 1c58 0 114 -1 164 -4c30 175 67 354 114 517c8 30 36 52 68 52c39 0 70 -31 70 -70c0 -7 -1 -14 -3 -21c-45 -157 -85 -342 -122 -562c-5 -34 -34 -60 -69 -60z" />
    <glyph glyph-name="uni042C" unicode="&#x42c;" 
d="M203 -12c-39 0 -77 3 -110 8c-34 4 -60 34 -60 69c0 5 0 9 1 14c42 228 68 385 113 585c7 32 35 56 69 56c39 0 70 -31 70 -70c0 -6 -1 -12 -2 -17c-11 -47 -21 -95 -31 -142h11c175 0 307 -103 307 -244c0 -151 -160 -259 -368 -259zM185 128h18c128 0 228 56 228 119
c0 57 -68 104 -167 104c-14 0 -26 -1 -38 -2c-16 -82 -30 -159 -41 -221z" />
    <glyph glyph-name="uni042B" unicode="&#x42b;" 
d="M122 -17c-29 0 -58 3 -83 8c-33 6 -57 35 -57 69c0 5 0 9 1 14c4 20 8 45 13 72c24 133 60 338 100 513c7 32 35 56 69 56c39 0 70 -31 70 -70c0 -6 -1 -12 -2 -17c-8 -36 -17 -74 -24 -112c127 -5 214 -103 214 -245c0 -172 -121 -288 -301 -288zM134 123
c96 4 149 58 149 148c0 69 -31 105 -84 105c-7 0 -13 0 -18 -1c-18 -93 -34 -182 -47 -252zM419 55c0 4 0 7 1 11c49 353 75 485 121 609c9 27 35 47 66 47c39 0 70 -31 70 -70c0 -9 -2 -18 -5 -26c-43 -114 -67 -240 -114 -580c-4 -34 -33 -61 -69 -61c-39 0 -70 31 -70 70
z" />
    <glyph glyph-name="uni042A" unicode="&#x42a;" 
d="M273 -11c-32 0 -64 3 -92 8c-33 6 -58 34 -58 69c0 5 0 10 1 14c5 25 10 55 16 89c20 109 47 259 77 400c-32 -1 -73 -4 -76 -4c-39 0 -70 31 -70 70c0 37 29 67 65 70c51 4 112 6 168 6c39 0 70 -31 70 -70c0 -6 -1 -12 -2 -17c-8 -36 -16 -74 -24 -112
c151 -4 256 -101 256 -241c0 -166 -138 -282 -331 -282zM276 129c115 1 188 57 188 142c0 63 -45 101 -126 101c-7 0 -12 0 -18 -1c-17 -89 -24 -129 -44 -242z" />
    <glyph glyph-name="uni0409" unicode="&#x409;" 
d="M-24 -11c-39 0 -70 31 -70 70c0 35 25 63 58 69c39 8 60 45 94 217c18 86 33 203 39 291c2 37 33 66 70 66c126 0 210 7 217 7c39 0 70 -31 70 -70c0 -6 -1 -12 -2 -17c-11 -49 -20 -94 -30 -139c109 -29 178 -116 178 -233c0 -144 -124 -260 -277 -260
c-22 0 -42 2 -61 5c-33 5 -59 34 -59 69c0 5 0 10 1 14c5 25 10 55 16 89c28 149 63 339 76 397c-21 0 -43 -1 -65 -1c-8 -82 -21 -173 -35 -246c-43 -210 -85 -304 -206 -327c-4 0 -9 -1 -14 -1zM357 134c59 13 103 61 103 116c0 47 -23 81 -65 95
c-12 -63 -24 -131 -38 -211z" />
    <glyph glyph-name="uni040A" unicode="&#x40a;" 
d="M322 -17c-23 0 -47 3 -68 9c-30 8 -52 36 -52 68c0 5 0 10 1 14c7 34 19 105 35 192c-26 -1 -53 -2 -79 -3c-18 -75 -38 -152 -56 -224c-7 -31 -35 -54 -68 -54c-39 0 -70 31 -70 70c0 7 1 13 3 19c52 206 109 437 115 571c1 37 32 67 70 67c39 0 70 -31 70 -70v-3
c-3 -64 -15 -146 -33 -235c25 1 50 1 74 3c16 81 33 166 50 242c7 32 35 56 69 56c39 0 70 -31 70 -70c0 -6 -1 -12 -2 -17l-24 -115c108 -13 178 -99 178 -222c0 -173 -118 -298 -283 -298zM355 126c68 14 110 71 110 155c0 59 -22 84 -66 85c-15 -82 -30 -163 -44 -240z
" />
    <glyph glyph-name="uni0405" unicode="&#x405;" 
d="M258 -17c-115 0 -193 30 -255 99c-11 13 -18 29 -18 47c0 39 31 70 70 70c21 0 40 -9 52 -24c35 -38 73 -52 151 -52c104 0 177 49 177 109c0 31 -24 50 -136 65c-124 17 -196 81 -196 190c0 128 131 219 289 219c75 0 141 -16 199 -48c22 -12 37 -35 37 -62
c0 -39 -31 -70 -70 -70c-13 0 -25 3 -35 10c-39 21 -76 30 -131 30c-84 0 -149 -39 -149 -79c0 -29 13 -43 75 -52c167 -22 257 -80 257 -203c0 -144 -136 -249 -317 -249z" />
    <glyph glyph-name="uni0404" unicode="&#x404;" 
d="M271 -22c-156 0 -246 98 -246 265c0 238 194 455 409 455c29 0 58 -5 88 -16l4 16c6 31 34 55 68 55c39 0 70 -31 70 -70c0 -6 -1 -12 -2 -17l-50 -213c-6 -31 -34 -55 -68 -55c-39 0 -70 31 -70 70c0 6 1 12 2 17l14 60c-20 9 -38 13 -56 13c-85 0 -168 -59 -219 -143
c74 5 145 7 195 7c39 0 70 -31 70 -70s-31 -70 -70 -70c-70 0 -163 -4 -244 -12c-1 -9 -1 -18 -1 -27c0 -91 31 -125 106 -125c54 0 112 27 189 91c12 11 28 17 45 17c39 0 70 -31 70 -70c0 -22 -10 -41 -26 -54c-100 -84 -189 -124 -278 -124z" />
    <glyph glyph-name="uni042D" unicode="&#x42d;" 
d="M197 -13c-60 0 -123 17 -173 48c-20 12 -34 34 -34 60c0 39 31 70 70 70c14 0 27 -4 38 -11c29 -18 62 -27 99 -27c111 0 203 68 242 169c-63 -2 -129 -7 -194 -15c-3 -1 -7 -1 -10 -1c-39 0 -70 31 -70 70c0 36 27 66 62 70c70 8 148 15 233 18c-5 93 -42 142 -102 142
c-40 0 -80 -11 -127 -37l-18 -65c-8 -30 -35 -53 -68 -53c-39 0 -70 31 -70 70c0 7 1 14 3 20l45 166c8 30 35 53 68 53c25 0 46 -13 59 -32c37 12 73 18 108 18c149 0 243 -121 243 -307c0 -239 -176 -426 -404 -426z" />
    <glyph glyph-name="uni0406" unicode="&#x406;" 
d="M100 -26c-39 0 -70 31 -70 70c0 36 27 66 62 70s77 8 122 11c13 140 39 288 80 452l-67 1c-38 1 -69 32 -69 70c0 39 31 70 70 70c120 -2 233 -6 316 -11c37 -2 66 -33 66 -70c0 -39 -31 -70 -70 -70c-31 2 -66 4 -103 5c-41 -161 -68 -304 -82 -440c27 1 52 2 77 2
c39 0 70 -31 70 -70c0 -38 -31 -70 -69 -70c-111 -1 -241 -9 -333 -20z" />
    <glyph glyph-name="uni0407" unicode="&#x407;" 
d="M100 -26c-39 0 -70 31 -70 70c0 36 27 66 62 70s77 8 122 11c13 140 39 288 80 452l-67 1c-38 1 -69 32 -69 70c0 39 31 70 70 70c120 -2 233 -6 316 -11c37 -2 66 -33 66 -70c0 -39 -31 -70 -70 -70c-31 2 -66 4 -103 5c-41 -161 -68 -304 -82 -440c27 1 52 2 77 2
c39 0 70 -31 70 -70c0 -38 -31 -70 -69 -70c-111 -1 -241 -9 -333 -20zM253 821c0 43 5 74 18 101c11 25 35 42 64 42c39 0 70 -31 70 -70c0 -11 -3 -22 -7 -31c-4 -8 -5 -15 -5 -42c0 -39 -31 -70 -70 -70s-70 31 -70 70zM448 832c0 11 2 21 7 30c1 2 4 20 10 54
c4 34 34 60 69 60c39 0 70 -31 70 -70c0 -4 0 -8 -1 -12c-6 -36 -12 -69 -20 -87c-10 -26 -35 -45 -65 -45c-39 0 -70 31 -70 70z" />
    <glyph glyph-name="uni0408" unicode="&#x408;" 
d="M291 -64c-139 0 -271 116 -271 242c0 50 21 102 58 134c12 10 28 17 46 17c39 0 70 -31 70 -70c0 -21 -9 -40 -24 -53c-6 -5 -10 -15 -10 -28c0 -46 69 -102 131 -102c10 0 42 55 57 128c17 82 35 206 51 359c-52 -2 -99 -5 -138 -9c-39 0 -70 31 -70 70
c0 37 28 67 64 70c89 8 220 14 351 17c39 0 70 -31 70 -70c0 -38 -31 -69 -69 -70l-66 -2c-17 -166 -36 -303 -55 -393c-29 -139 -96 -240 -195 -240z" />
    <glyph glyph-name="uni040B" unicode="&#x40b;" 
d="M459 -7c-39 0 -70 31 -70 70c0 8 1 15 4 23c23 73 41 154 41 183c0 31 -7 39 -43 39c-35 0 -77 -12 -112 -33c-17 -85 -31 -169 -39 -233c-5 -35 -34 -62 -70 -62c-39 0 -70 31 -70 70c0 4 0 7 1 11c18 133 59 353 103 507l-56 1c-38 1 -68 32 -68 70c0 39 31 70 70 70
c10 0 60 -1 92 -1c98 0 205 4 296 12h7c39 0 70 -31 70 -70c0 -37 -29 -67 -65 -70c-62 -5 -131 -9 -200 -11c-12 -39 -25 -86 -37 -136c30 10 60 15 88 15c106 0 173 -69 173 -179c0 -55 -29 -166 -48 -226c-8 -29 -35 -50 -67 -50z" />
    <glyph glyph-name="uni042E" unicode="&#x42e;" 
d="M358 -17c-101 0 -149 87 -149 223c0 18 1 35 2 53c-12 0 -24 -1 -35 -2c-20 -84 -44 -163 -70 -226c-10 -26 -35 -44 -65 -44c-39 0 -70 31 -70 70c0 10 2 20 6 28c63 150 109 410 128 574c4 36 34 63 70 63c39 0 70 -31 70 -70c0 -3 0 -6 -1 -9
c-8 -68 -21 -155 -38 -244h16h8c38 173 126 315 240 315c105 0 154 -93 154 -231c0 -249 -106 -500 -266 -500zM349 206c0 -41 10 -83 9 -83c52 0 126 191 126 360c0 61 -13 91 -14 91c-44 0 -121 -208 -121 -368z" />
    <glyph glyph-name="uni042F" unicode="&#x42f;" 
d="M450 -19c-39 0 -70 31 -70 70c0 4 0 8 1 12c7 46 17 103 28 165l-37 6c-90 -70 -188 -160 -267 -245c-13 -13 -31 -22 -51 -22c-39 0 -70 31 -70 70c0 18 7 35 19 48c63 68 138 139 212 201c-74 42 -113 103 -113 182c0 172 197 250 468 244c38 -1 69 -32 69 -70
c0 -6 -1 -12 -2 -18c-45 -184 -95 -435 -118 -582c-4 -35 -34 -61 -69 -61zM242 468c0 -48 63 -87 194 -103c14 69 29 140 44 206c-147 -9 -238 -50 -238 -103z" />
    <glyph glyph-name="uni0402" unicode="&#x402;" 
d="M363 -15c-19 0 -42 3 -58 8c-29 8 -51 35 -51 67c0 39 31 70 70 70c8 0 16 -1 21 -3s9 -2 18 -2c49 0 88 49 88 113c0 55 -17 72 -61 72c-37 0 -81 -14 -119 -38c-16 -84 -31 -165 -40 -228c-4 -35 -33 -61 -69 -61c-39 0 -70 31 -70 70c0 4 0 8 1 12
c19 131 60 349 101 496l-51 1c-38 1 -68 32 -68 70c0 39 31 70 70 70c10 0 49 -1 89 -1c95 0 198 4 287 12h7c39 0 70 -31 70 -70c0 -37 -28 -67 -65 -70c-60 -5 -126 -9 -192 -11c-11 -35 -23 -77 -34 -124c28 8 56 12 83 12c124 0 201 -81 201 -212
c0 -141 -100 -253 -228 -253z" />
    <glyph glyph-name="uni0462" unicode="&#x462;" 
d="M130 -17c-39 0 -70 31 -70 70c0 4 0 8 1 12c10 63 33 156 56 254c15 59 30 119 43 176h-24c-39 0 -70 31 -70 70s31 70 70 70h52c1 9 3 17 4 25c4 35 33 61 69 61c39 0 70 -31 70 -70c0 -4 0 -8 -1 -11v-2c74 1 152 4 222 9h5c39 0 70 -31 70 -70c0 -37 -29 -68 -66 -70
c-81 -5 -174 -8 -258 -10l-10 -45c167 -5 294 -91 294 -223c0 -148 -170 -239 -457 -246zM216 129c141 15 231 56 231 100c0 45 -69 83 -169 83h-18c-18 -76 -31 -131 -44 -183z" />
    <glyph glyph-name="uni0472" unicode="&#x472;" 
d="M411 256c-41 0 -75 11 -121 35c-30 16 -40 19 -55 19c-23 0 -44 -6 -70 -20c-3 -16 -5 -32 -5 -48c0 -80 27 -112 84 -112c60 0 128 53 176 126h-9zM20 242c0 218 193 469 367 469c147 0 237 -101 237 -261c0 -226 -191 -460 -380 -460c-138 0 -224 97 -224 252zM234 450
h1c40 0 74 -11 120 -35c31 -16 40 -19 56 -19c29 0 48 4 70 17c2 13 3 25 3 37c0 85 -31 121 -97 121c-47 0 -107 -52 -153 -121z" />
    <glyph glyph-name="uni0474" unicode="&#x474;" 
d="M247 -23c-32 0 -58 21 -67 50c-49 151 -96 419 -105 623c0 39 31 70 70 70c38 0 69 -30 70 -67c5 -116 25 -266 51 -396c58 122 113 232 148 298c52 97 102 151 174 151c36 0 72 -15 97 -40c13 -13 21 -30 21 -50c0 -39 -31 -70 -70 -70c-29 0 -38 14 -48 14
c-6 0 -27 -27 -50 -71c-51 -96 -143 -282 -226 -469c-11 -25 -36 -43 -65 -43z" />
    <glyph glyph-name="uni0496" unicode="&#x496;" 
d="M478 -211c-39 0 -70 31 -70 70c0 9 2 17 5 25c10 27 23 70 35 118c-21 10 -35 31 -38 56c-4 70 -14 147 -27 210h-2c-19 -83 -38 -166 -56 -236c-7 -31 -35 -54 -68 -54c-39 0 -70 31 -70 70c0 6 1 13 3 19c16 63 33 137 50 212h-3c-57 -72 -117 -167 -156 -247
c-12 -23 -35 -38 -62 -38c-39 0 -70 31 -70 70c0 13 3 25 9 35c46 84 117 184 183 263c-35 80 -60 176 -71 276v8c0 39 31 70 70 70c36 0 66 -28 70 -63c7 -90 22 -169 44 -235c5 -1 11 -2 16 -2c19 86 36 168 49 233c6 33 35 58 69 58c39 0 70 -31 70 -70
c0 -5 -1 -10 -2 -15c-11 -57 -26 -128 -42 -204c58 75 110 161 154 258c11 24 35 40 63 40c39 0 70 -31 70 -70c0 -12 -3 -23 -8 -33c-54 -107 -122 -208 -195 -292c18 -55 33 -120 43 -184c36 -2 66 -32 66 -70c0 -6 -1 -12 -2 -18c-19 -80 -43 -164 -61 -212
c-9 -28 -35 -48 -66 -48z" />
    <glyph glyph-name="uni049A" unicode="&#x49a;" 
d="M439 -209c-39 0 -70 31 -70 70c0 9 2 18 5 26c9 24 22 63 32 103c-7 4 -12 9 -16 15c-47 65 -112 171 -162 264l-19 1c-16 -79 -28 -154 -36 -223c-4 -36 -34 -63 -70 -63c-39 0 -70 31 -70 70c0 2 0 3 1 9c20 178 70 398 135 606c8 30 35 51 67 51c39 0 70 -31 70 -70
c0 -8 -1 -15 -4 -23c-23 -72 -43 -146 -61 -218l11 -1c110 74 207 165 283 266c12 17 33 28 56 28c39 0 70 -31 70 -70c0 -16 -5 -31 -15 -43c-76 -101 -175 -196 -283 -274c37 -69 82 -141 118 -196h14c39 0 70 -31 70 -70c0 -6 -1 -13 -2 -19c-18 -70 -41 -148 -58 -192
c-9 -27 -35 -47 -66 -47z" />
    <glyph glyph-name="uni04A2" unicode="&#x4a2;" 
d="M53 -6c-39 0 -70 31 -70 70c0 10 2 20 6 29c51 117 102 342 125 550c4 35 34 63 70 63c39 0 70 -31 70 -70c0 -3 0 -6 -1 -9c-7 -67 -20 -151 -36 -238c42 3 89 4 135 4c35 0 68 -1 97 -2c5 32 10 59 14 78c13 64 42 150 72 210c11 24 35 40 63 40c39 0 70 -31 70 -70
c0 -12 -3 -23 -8 -32c-25 -51 -49 -121 -59 -176c-12 -59 -36 -205 -53 -328c22 -11 37 -35 37 -62c0 -6 -1 -13 -2 -19c-20 -78 -41 -151 -57 -192c-9 -27 -35 -47 -66 -47c-39 0 -70 31 -70 70c0 9 2 18 5 26c9 23 20 60 32 102c-18 13 -29 33 -29 57c0 2 0 5 1 11
c8 56 18 126 28 193c-23 1 -48 1 -75 1c-58 0 -119 -2 -167 -6c-19 -77 -42 -151 -67 -209c-11 -26 -36 -44 -65 -44z" />
    <glyph glyph-name="uni04AE" unicode="&#x4ae;" 
d="M266 -21c-39 0 -70 31 -70 70c0 6 1 12 2 18c14 60 31 129 49 202c-42 96 -105 231 -161 334c-6 10 -9 21 -9 34c0 39 31 70 70 70c27 0 51 -15 62 -38c43 -79 91 -178 130 -263c74 88 150 188 217 285c12 19 34 31 58 31c39 0 70 -31 70 -70c0 -15 -5 -29 -13 -40
c-76 -111 -179 -247 -285 -366c-19 -76 -37 -149 -52 -212c-6 -31 -34 -55 -68 -55z" />
    <glyph glyph-name="uni04B0" unicode="&#x4b0;" 
d="M266 -21c-39 0 -70 31 -70 70c0 6 1 12 2 18l19 79c-21 -3 -42 -5 -63 -8c-3 -1 -5 -1 -9 -1c-33 0 -60 27 -60 60c0 31 23 56 54 60c28 4 67 8 108 12c-42 97 -105 231 -161 334c-6 10 -9 21 -9 34c0 39 31 70 70 70c27 0 51 -15 62 -38c43 -79 91 -178 130 -263
c74 88 150 188 217 285c12 19 34 31 58 31c39 0 70 -31 70 -70c0 -15 -5 -29 -13 -40c-68 -100 -159 -220 -253 -330c13 1 24 1 34 1c34 0 60 -26 60 -60c0 -32 -25 -59 -58 -60c-30 -1 -60 -2 -90 -4l-30 -125c-6 -31 -34 -55 -68 -55z" />
    <glyph glyph-name="uni04B2" unicode="&#x4b2;" 
d="M20 -23c-39 0 -70 31 -70 70c0 20 8 38 22 51c77 73 167 164 244 246c-43 99 -75 198 -93 290c-1 5 -2 10 -2 15c0 39 31 70 70 70c34 0 63 -25 69 -58c13 -65 33 -133 60 -203c81 87 173 182 240 248c12 12 30 20 49 20c39 0 70 -31 70 -70c0 -19 -8 -37 -21 -50
c-77 -76 -188 -191 -276 -287c32 -60 77 -141 112 -200h9c39 0 70 -31 70 -70c0 -6 -1 -13 -2 -19c-21 -80 -43 -157 -60 -202c-9 -27 -35 -47 -66 -47c-39 0 -70 31 -70 70c0 9 2 18 5 26c10 26 22 66 35 112c-9 6 -16 13 -21 22c-29 49 -74 129 -112 199
c-70 -73 -147 -150 -214 -214c-12 -12 -29 -19 -48 -19z" />
    <glyph glyph-name="uni04B6" unicode="&#x4b6;" 
d="M268 237c-124 0 -200 75 -200 198c0 48 31 171 50 226c9 29 36 49 67 49c39 0 70 -31 70 -70c0 -9 -2 -17 -4 -24c-20 -58 -43 -155 -43 -181c0 -45 13 -58 60 -58c54 0 116 15 167 40c18 94 40 186 58 254c8 30 35 53 68 53c39 0 70 -31 70 -70c0 -7 -1 -14 -3 -20
c-42 -155 -86 -367 -96 -517c27 -10 45 -35 45 -65c0 -6 -1 -13 -2 -19c-20 -78 -41 -151 -57 -192c-9 -27 -35 -47 -66 -47c-39 0 -70 31 -70 70c0 9 2 18 5 26c9 23 20 60 32 102c-17 12 -28 32 -29 54c-2 54 5 129 17 212c-47 -14 -95 -21 -139 -21z" />
    <glyph glyph-name="uni04BA" unicode="&#x4ba;" 
d="M452 -9c-39 0 -70 31 -70 70c0 8 1 15 4 22c23 76 41 153 41 176c0 47 -13 59 -51 59c-49 0 -104 -12 -150 -33c-17 -86 -31 -172 -42 -245c-4 -35 -33 -61 -69 -61c-39 0 -70 31 -70 70c0 4 0 8 1 11c27 184 80 463 134 610c9 27 35 47 66 47c39 0 70 -31 70 -70
c0 -9 -2 -18 -5 -26c-17 -47 -35 -109 -51 -178c39 10 79 15 116 15c118 0 191 -77 191 -199c0 -49 -30 -160 -48 -217c-8 -29 -35 -51 -67 -51z" />
    <glyph glyph-name="uni04C0" unicode="&#x4c0;" 
d="M100 -26c-39 0 -70 31 -70 70c0 36 27 66 62 70s77 8 122 11c13 140 39 288 80 452l-67 1c-38 1 -69 32 -69 70c0 39 31 70 70 70c120 -2 233 -6 316 -11c37 -2 66 -33 66 -70c0 -39 -31 -70 -70 -70c-31 2 -66 4 -103 5c-41 -161 -68 -304 -82 -440c27 1 52 2 77 2
c39 0 70 -31 70 -70c0 -38 -31 -70 -69 -70c-111 -1 -241 -9 -333 -20z" />
    <glyph glyph-name="uni04D8" unicode="&#x4d8;" 
d="M235 -13c-135 0 -223 95 -223 239c0 104 48 169 151 190c77 15 202 36 319 52c-10 73 -50 108 -125 108c-55 0 -105 -24 -172 -85c-12 -11 -29 -18 -47 -18c-39 0 -70 31 -70 70c0 21 9 39 23 52c90 82 175 121 266 121c165 0 267 -109 267 -284
c0 -247 -171 -445 -389 -445zM152 226c0 -68 28 -99 83 -99c107 0 198 82 234 198c-104 -15 -210 -33 -277 -46c-34 -7 -40 -13 -40 -53z" />
    <glyph glyph-name="uni04E2" unicode="&#x4e2;" 
d="M486 -24c-39 0 -70 31 -70 70c0 7 1 14 3 21c26 90 57 233 83 372c-122 -131 -255 -290 -353 -425c-13 -17 -33 -29 -57 -29c-39 0 -70 31 -70 70c0 6 1 12 2 18c36 146 96 475 113 589c4 35 33 61 69 61c39 0 70 -31 70 -70c0 -4 0 -8 -1 -12c-9 -62 -31 -185 -54 -310
c115 138 239 273 337 364c13 12 29 19 48 19c39 0 70 -31 70 -70c0 -4 0 -7 -1 -10c-25 -190 -80 -462 -121 -606c-8 -30 -36 -52 -68 -52zM152 831c0 36 27 65 62 69c112 16 298 23 388 23c39 0 70 -31 70 -70s-31 -70 -70 -70c-87 0 -264 -7 -369 -21c-4 -1 -7 -1 -11 -1
c-39 0 -70 31 -70 70z" />
    <glyph glyph-name="uni04E8" unicode="&#x4e8;" 
d="M242 -10c-138 0 -224 97 -224 252c0 218 193 469 367 469c147 0 237 -101 237 -261c0 -226 -191 -460 -380 -460zM158 242c0 -80 27 -112 84 -112c62 0 131 56 179 132c-88 12 -180 22 -258 28c-3 -16 -5 -32 -5 -48zM217 426c82 -7 175 -19 259 -31c4 19 6 37 6 55
c0 85 -31 121 -97 121c-53 0 -120 -64 -168 -145z" />
    </font>
</defs>
</svg>
