<?xml version="1.0" standalone="no"?>
<!DOCTYPE svg PUBLIC "-//W3C//DTD SVG 1.1//EN" "http://www.w3.org/Graphics/SVG/1.1/DTD/svg11.dtd" >
<svg xmlns="http://www.w3.org/2000/svg" xmlns:xlink="http://www.w3.org/1999/xlink" version="1.1">
<metadata>
Created by FontForge 20201107 at Mon May  2 01:01:48 2022
 By Unknown
Copyright \(c\) 2019 by Toshi Omagari. All rights reserved.
</metadata>
<defs>
<font id="ComicCode-Thin" horiz-adv-x="620" >
  <font-face 
    font-family="Comic Code Thin"
    font-weight="100"
    font-stretch="normal"
    units-per-em="1000"
    panose-1="0 0 0 0 0 0 0 0 0 0"
    ascent="800"
    descent="-200"
    x-height="532"
    cap-height="706"
    bbox="-1136 -454 781 1056"
    underline-thickness="50"
    underline-position="-125"
    stemh="20"
    stemv="20"
    unicode-range="U+000D-FB02"
  />
<missing-glyph 
d="M375 -134c-104 0 -217 4 -308 9c-5 0 -9 5 -9 10c3 247 10 598 18 804c0 6 5 10 10 10c6 0 10 -4 10 -10c-8 -204 -15 -548 -18 -795c89 -5 197 -8 297 -8c48 0 93 1 134 3c13 175 19 541 19 821c-39 1 -87 1 -138 1c-118 0 -251 -2 -338 -5c-6 0 -10 4 -10 10
c0 5 4 10 10 10c87 3 220 5 338 5c54 0 106 0 148 -1c6 0 10 -5 10 -10c0 -286 -6 -667 -20 -842c0 -5 -4 -9 -10 -9c-41 -2 -90 -3 -143 -3zM196 523c0 3 1 6 4 8c29 23 72 39 107 39c65 0 112 -52 112 -122c0 -62 -49 -121 -130 -157c-23 -10 -30 -18 -30 -31
c0 -31 11 -48 11 -53c0 -6 -4 -10 -10 -10c-4 0 -8 3 -9 7c-8 21 -12 38 -12 56c0 22 12 36 42 49c74 33 118 85 118 139c0 59 -39 102 -92 102c-30 0 -68 -14 -95 -35c-1 -1 -4 -2 -6 -2c-6 0 -10 4 -10 10zM240 43c0 25 22 42 53 42c26 0 47 -19 47 -44
c0 -26 -27 -49 -51 -49c-6 0 -10 4 -10 9c-22 4 -39 20 -39 42z" />
    <glyph glyph-name=".notdef" 
d="M375 -134c-104 0 -217 4 -308 9c-5 0 -9 5 -9 10c3 247 10 598 18 804c0 6 5 10 10 10c6 0 10 -4 10 -10c-8 -204 -15 -548 -18 -795c89 -5 197 -8 297 -8c48 0 93 1 134 3c13 175 19 541 19 821c-39 1 -87 1 -138 1c-118 0 -251 -2 -338 -5c-6 0 -10 4 -10 10
c0 5 4 10 10 10c87 3 220 5 338 5c54 0 106 0 148 -1c6 0 10 -5 10 -10c0 -286 -6 -667 -20 -842c0 -5 -4 -9 -10 -9c-41 -2 -90 -3 -143 -3zM196 523c0 3 1 6 4 8c29 23 72 39 107 39c65 0 112 -52 112 -122c0 -62 -49 -121 -130 -157c-23 -10 -30 -18 -30 -31
c0 -31 11 -48 11 -53c0 -6 -4 -10 -10 -10c-4 0 -8 3 -9 7c-8 21 -12 38 -12 56c0 22 12 36 42 49c74 33 118 85 118 139c0 59 -39 102 -92 102c-30 0 -68 -14 -95 -35c-1 -1 -4 -2 -6 -2c-6 0 -10 4 -10 10zM240 43c0 25 22 42 53 42c26 0 47 -19 47 -44
c0 -26 -27 -49 -51 -49c-6 0 -10 4 -10 9c-22 4 -39 20 -39 42z" />
    <glyph glyph-name="CR" unicode="&#xd;" 
 />
    <glyph glyph-name="space" unicode=" " 
 />
    <glyph glyph-name="A" unicode="A" 
d="M550 -9c-5 0 -9 4 -10 8c-15 73 -31 150 -49 230c-91 -3 -230 -12 -352 -24c-26 -65 -48 -127 -63 -180c-1 -4 -5 -7 -10 -7c-6 0 -10 4 -10 10c0 1 0 3 1 6c14 50 35 108 59 169l-52 -6c-6 0 -10 4 -10 10c0 5 4 9 9 10l62 7c70 169 167 360 242 483c2 3 5 5 9 5
c5 0 8 -3 10 -7c72 -239 132 -491 173 -697l1 -7c0 -6 -4 -10 -10 -10zM148 226c115 11 233 19 338 23c-33 139 -70 285 -113 429c-72 -121 -160 -295 -225 -452z" />
    <glyph glyph-name="Aacute" unicode="&#xc1;" 
d="M550 -9c-5 0 -9 4 -10 8c-15 73 -31 150 -49 230c-91 -3 -230 -12 -352 -24c-26 -65 -48 -127 -63 -180c-1 -4 -5 -7 -10 -7c-6 0 -10 4 -10 10c0 1 0 3 1 6c14 50 35 108 59 169l-52 -6c-6 0 -10 4 -10 10c0 5 4 9 9 10l62 7c70 169 167 360 242 483c2 3 5 5 9 5
c5 0 8 -3 10 -7c72 -239 132 -491 173 -697l1 -7c0 -6 -4 -10 -10 -10zM148 226c115 11 233 19 338 23c-33 139 -70 285 -113 429c-72 -121 -160 -295 -225 -452zM269 795c0 3 2 6 4 8l202 151c2 1 4 2 6 2c6 0 10 -4 10 -10c0 -3 -2 -6 -4 -8l-202 -151c-2 -1 -4 -2 -6 -2
c-6 0 -10 4 -10 10z" />
    <glyph glyph-name="Abreve" unicode="&#x102;" 
d="M550 -9c-5 0 -9 4 -10 8c-15 73 -31 150 -49 230c-91 -3 -230 -12 -352 -24c-26 -65 -48 -127 -63 -180c-1 -4 -5 -7 -10 -7c-6 0 -10 4 -10 10c0 1 0 3 1 6c14 50 35 108 59 169l-52 -6c-6 0 -10 4 -10 10c0 5 4 9 9 10l62 7c70 169 167 360 242 483c2 3 5 5 9 5
c5 0 8 -3 10 -7c72 -239 132 -491 173 -697l1 -7c0 -6 -4 -10 -10 -10zM148 226c115 11 233 19 338 23c-33 139 -70 285 -113 429c-72 -121 -160 -295 -225 -452zM196 936v3c0 6 4 10 10 10c5 0 9 -3 10 -8c18 -64 88 -109 171 -109c81 0 143 44 157 111c1 5 5 8 10 8
c6 0 10 -4 10 -10v-2c-17 -77 -87 -127 -177 -127c-91 0 -170 51 -191 124z" />
    <glyph glyph-name="Acircumflex" unicode="&#xc2;" 
d="M550 -9c-5 0 -9 4 -10 8c-15 73 -31 150 -49 230c-91 -3 -230 -12 -352 -24c-26 -65 -48 -127 -63 -180c-1 -4 -5 -7 -10 -7c-6 0 -10 4 -10 10c0 1 0 3 1 6c14 50 35 108 59 169l-52 -6c-6 0 -10 4 -10 10c0 5 4 9 9 10l62 7c70 169 167 360 242 483c2 3 5 5 9 5
c5 0 8 -3 10 -7c72 -239 132 -491 173 -697l1 -7c0 -6 -4 -10 -10 -10zM148 226c115 11 233 19 338 23c-33 139 -70 285 -113 429c-72 -121 -160 -295 -225 -452zM188 815c0 3 2 6 4 8c65 49 130 92 193 131c1 1 3 2 5 2s4 -1 6 -2c70 -46 127 -89 173 -132c2 -2 3 -4 3 -7
c0 -6 -4 -10 -10 -10c-3 0 -5 1 -7 3c-44 41 -97 82 -165 126c-66 -41 -127 -82 -186 -127c-2 -1 -4 -2 -6 -2c-6 0 -10 4 -10 10z" />
    <glyph glyph-name="Adieresis" unicode="&#xc4;" 
d="M550 -9c-5 0 -9 4 -10 8c-15 73 -31 150 -49 230c-91 -3 -230 -12 -352 -24c-26 -65 -48 -127 -63 -180c-1 -4 -5 -7 -10 -7c-6 0 -10 4 -10 10c0 1 0 3 1 6c14 50 35 108 59 169l-52 -6c-6 0 -10 4 -10 10c0 5 4 9 9 10l62 7c70 169 167 360 242 483c2 3 5 5 9 5
c5 0 8 -3 10 -7c72 -239 132 -491 173 -697l1 -7c0 -6 -4 -10 -10 -10zM148 226c115 11 233 19 338 23c-33 139 -70 285 -113 429c-72 -121 -160 -295 -225 -452zM269 869c0 9 1 17 3 27c1 5 5 8 10 8c6 0 10 -4 10 -10c0 -4 -3 -15 -3 -25c0 -21 6 -43 6 -48
c0 -6 -4 -10 -10 -10c-5 0 -9 4 -10 8c-4 20 -6 36 -6 50zM468 832c0 5 2 10 2 32c0 30 -1 38 -1 42c0 6 4 10 10 10c5 0 10 -4 10 -10c1 -10 1 -27 1 -42s0 -27 -2 -34c-1 -5 -5 -8 -10 -8c-6 0 -10 4 -10 10z" />
    <glyph glyph-name="Agrave" unicode="&#xc0;" 
d="M550 -9c-5 0 -9 4 -10 8c-15 73 -31 150 -49 230c-91 -3 -230 -12 -352 -24c-26 -65 -48 -127 -63 -180c-1 -4 -5 -7 -10 -7c-6 0 -10 4 -10 10c0 1 0 3 1 6c14 50 35 108 59 169l-52 -6c-6 0 -10 4 -10 10c0 5 4 9 9 10l62 7c70 169 167 360 242 483c2 3 5 5 9 5
c5 0 8 -3 10 -7c72 -239 132 -491 173 -697l1 -7c0 -6 -4 -10 -10 -10zM148 226c115 11 233 19 338 23c-33 139 -70 285 -113 429c-72 -121 -160 -295 -225 -452zM269 946c0 6 4 10 10 10c2 0 4 -1 6 -2l202 -151c2 -2 4 -5 4 -8c0 -6 -4 -10 -10 -10c-2 0 -4 1 -6 2
l-202 151c-2 2 -4 5 -4 8z" />
    <glyph glyph-name="Amacron" unicode="&#x100;" 
d="M550 -9c-5 0 -9 4 -10 8c-15 73 -31 150 -49 230c-91 -3 -230 -12 -352 -24c-26 -65 -48 -127 -63 -180c-1 -4 -5 -7 -10 -7c-6 0 -10 4 -10 10c0 1 0 3 1 6c14 50 35 108 59 169l-52 -6c-6 0 -10 4 -10 10c0 5 4 9 9 10l62 7c70 169 167 360 242 483c2 3 5 5 9 5
c5 0 8 -3 10 -7c72 -239 132 -491 173 -697l1 -7c0 -6 -4 -10 -10 -10zM148 226c115 11 233 19 338 23c-33 139 -70 285 -113 429c-72 -121 -160 -295 -225 -452zM182 831c0 5 4 9 9 10c106 15 287 22 376 22c6 0 10 -4 10 -10s-4 -10 -10 -10c-216 0 -371 -22 -375 -22
c-6 0 -10 4 -10 10z" />
    <glyph glyph-name="Aogonek" unicode="&#x104;" 
d="M64 197c-6 0 -10 4 -10 10c0 5 4 9 9 10l62 7c70 169 167 360 242 483c2 3 5 5 9 5c5 0 8 -3 10 -7c72 -239 132 -491 173 -697l1 -7c0 -4 -2 -7 -4 -8l-1 -1c-70 -37 -119 -90 -119 -128c0 -34 30 -59 69 -59c34 0 75 16 103 41c2 1 4 2 7 2c6 0 10 -4 10 -10
c0 -3 -1 -6 -3 -8c-32 -27 -78 -45 -117 -45c-50 0 -89 34 -89 79s50 101 123 142c-15 71 -31 145 -48 223c-91 -3 -230 -12 -352 -24c-26 -65 -48 -127 -63 -180c-1 -4 -5 -7 -10 -7c-6 0 -10 4 -10 10c0 1 0 3 1 6c14 50 35 108 59 169zM148 226c115 11 233 19 338 23
c-33 139 -70 285 -113 429c-72 -121 -160 -295 -225 -452z" />
    <glyph glyph-name="Aring" unicode="&#xc5;" 
d="M550 -9c-5 0 -9 4 -10 8c-15 73 -31 150 -49 230c-91 -3 -230 -12 -352 -24c-26 -65 -48 -127 -63 -180c-1 -4 -5 -7 -10 -7c-6 0 -10 4 -10 10c0 1 0 3 1 6c14 50 35 108 59 169l-52 -6c-6 0 -10 4 -10 10c0 5 4 9 9 10l62 7c70 169 167 360 242 483c2 3 5 5 9 5
c5 0 8 -3 10 -7c72 -239 132 -491 173 -697l1 -7c0 -6 -4 -10 -10 -10zM148 226c115 11 233 19 338 23c-33 139 -70 285 -113 429c-72 -121 -160 -295 -225 -452zM262 908c0 67 55 125 117 125c58 0 118 -58 118 -115c0 -64 -52 -121 -112 -121c-74 0 -123 44 -123 111z
M282 908c0 -56 40 -91 103 -91c48 0 92 48 92 101c0 46 -51 95 -98 95c-51 0 -97 -49 -97 -105z" />
    <glyph glyph-name="Aringacute" unicode="&#x1fa;" 
d="M550 -9c-5 0 -9 4 -10 8c-15 73 -31 150 -49 230c-91 -3 -230 -12 -352 -24c-26 -65 -48 -127 -63 -180c-1 -4 -5 -7 -10 -7c-6 0 -10 4 -10 10c0 1 0 3 1 6c14 50 35 108 59 169l-52 -6c-6 0 -10 4 -10 10c0 5 4 9 9 10l62 7c68 165 162 351 237 475
c-61 8 -100 49 -100 109c0 67 55 125 117 125c21 0 41 -7 60 -19l176 132c2 1 4 2 6 2c6 0 10 -4 10 -10c0 -3 -2 -6 -4 -8l-172 -129c25 -22 42 -53 42 -83c0 -63 -50 -119 -109 -121c71 -237 130 -485 171 -689l1 -7c0 -6 -4 -10 -10 -10zM148 226c115 11 233 19 338 23
c-33 139 -70 285 -113 429c-72 -121 -160 -295 -225 -452zM282 808c0 -56 40 -91 103 -91c48 0 92 48 92 101c0 46 -51 95 -98 95c-51 0 -97 -49 -97 -105z" />
    <glyph glyph-name="Atilde" unicode="&#xc3;" 
d="M550 -9c-5 0 -9 4 -10 8c-15 73 -31 150 -49 230c-91 -3 -230 -12 -352 -24c-26 -65 -48 -127 -63 -180c-1 -4 -5 -7 -10 -7c-6 0 -10 4 -10 10c0 1 0 3 1 6c14 50 35 108 59 169l-52 -6c-6 0 -10 4 -10 10c0 5 4 9 9 10l62 7c70 169 167 360 242 483c2 3 5 5 9 5
c5 0 8 -3 10 -7c72 -239 132 -491 173 -697l1 -7c0 -6 -4 -10 -10 -10zM148 226c115 11 233 19 338 23c-33 139 -70 285 -113 429c-72 -121 -160 -295 -225 -452zM157 814v2c14 74 67 125 131 125c50 0 80 -30 106 -58c27 -27 50 -51 92 -51c50 0 88 43 97 110c1 5 5 9 10 9
c6 0 10 -4 10 -10v-2c-11 -76 -57 -127 -117 -127c-50 0 -80 30 -106 58c-27 27 -50 51 -92 51c-54 0 -99 -44 -111 -109c-1 -4 -5 -8 -10 -8c-6 0 -10 4 -10 10z" />
    <glyph glyph-name="AE" unicode="&#xc6;" 
d="M16 -9c-6 0 -10 4 -10 10v3c15 60 39 131 67 206l-29 -3c-6 0 -10 4 -10 10c0 5 4 9 9 10l38 4c66 171 154 358 223 481c2 3 5 5 9 5c6 0 10 -4 10 -10c0 -2 0 -4 -1 -5c-68 -120 -153 -301 -218 -468c70 7 140 12 202 15c4 138 12 310 20 418h-3c-6 0 -10 4 -10 10
c0 5 3 9 8 10c43 9 97 14 157 14c34 0 69 -2 100 -5c5 -1 9 -5 9 -10c0 -6 -4 -10 -10 -10c-3 0 -46 5 -99 5c-65 0 -107 -6 -132 -10c-6 -77 -11 -190 -16 -299c110 1 203 17 207 17c6 0 10 -4 10 -10c0 -5 -4 -9 -8 -10c-63 -11 -143 -17 -209 -17c-4 -96 -6 -187 -6 -247
c0 -62 25 -91 79 -91c47 0 125 15 182 34c2 1 3 1 4 1c6 0 10 -4 10 -10c0 -4 -2 -8 -7 -10c-61 -20 -141 -35 -189 -35c-65 0 -99 38 -99 111c0 33 1 76 2 124c-91 -5 -165 -11 -210 -16c-30 -78 -54 -151 -70 -214c-1 -5 -5 -8 -10 -8z" />
    <glyph glyph-name="AEacute" unicode="&#x1fc;" 
d="M16 -9c-6 0 -10 4 -10 10v3c15 60 39 131 67 206l-29 -3c-6 0 -10 4 -10 10c0 5 4 9 9 10l38 4c66 171 154 358 223 481c2 3 5 5 9 5c6 0 10 -4 10 -10c0 -2 0 -4 -1 -5c-68 -120 -153 -301 -218 -468c70 7 140 12 202 15c4 138 12 310 20 418h-3c-6 0 -10 4 -10 10
c0 5 3 9 8 10c43 9 97 14 157 14c34 0 69 -2 100 -5c5 -1 9 -5 9 -10c0 -6 -4 -10 -10 -10c-3 0 -46 5 -99 5c-65 0 -107 -6 -132 -10c-6 -77 -11 -190 -16 -299c110 1 203 17 207 17c6 0 10 -4 10 -10c0 -5 -4 -9 -8 -10c-63 -11 -143 -17 -209 -17c-4 -96 -6 -187 -6 -247
c0 -62 25 -91 79 -91c47 0 125 15 182 34c2 1 3 1 4 1c6 0 10 -4 10 -10c0 -4 -2 -8 -7 -10c-61 -20 -141 -35 -189 -35c-65 0 -99 38 -99 111c0 33 1 76 2 124c-91 -5 -165 -11 -210 -16c-30 -78 -54 -151 -70 -214c-1 -5 -5 -8 -10 -8zM299 795c0 3 2 6 4 8l202 151
c2 1 4 2 6 2c6 0 10 -4 10 -10c0 -3 -2 -6 -4 -8l-202 -151c-2 -1 -4 -2 -6 -2c-6 0 -10 4 -10 10z" />
    <glyph glyph-name="B" unicode="B" 
d="M126 -19c-6 0 -10 4 -10 10c0 41 -10 648 -10 699c0 5 4 9 9 10c40 4 80 7 117 7c186 0 283 -62 283 -182c0 -90 -65 -154 -173 -177c144 -26 226 -82 226 -160c0 -122 -157 -190 -432 -191v-6c0 -6 -4 -10 -10 -10zM126 681l5 -315c51 0 99 -3 143 -8
c137 8 221 71 221 167c0 107 -88 162 -263 162c-34 0 -69 -3 -106 -6zM131 346l5 -329c263 1 412 64 412 171c0 96 -158 157 -417 158z" />
    <glyph glyph-name="C" unicode="C" 
d="M287 -12c-144 0 -221 98 -221 277c0 257 117 423 298 423c59 0 105 -18 147 -39l2 74c0 6 5 10 10 10c6 0 10 -4 10 -10l-7 -215c0 -6 -5 -10 -10 -10c-6 0 -10 4 -10 10l4 118c-51 28 -97 42 -146 42c-169 0 -278 -156 -278 -403c0 -169 69 -257 201 -257
c89 0 174 34 268 107c1 1 4 2 6 2c6 0 10 -4 10 -10c0 -3 -2 -6 -4 -8c-97 -75 -186 -111 -280 -111z" />
    <glyph glyph-name="Cacute" unicode="&#x106;" 
d="M287 -12c-144 0 -221 98 -221 277c0 257 117 423 298 423c59 0 105 -18 147 -39l2 74c0 6 5 10 10 10c6 0 10 -4 10 -10l-7 -215c0 -6 -5 -10 -10 -10c-6 0 -10 4 -10 10l4 118c-51 28 -97 42 -146 42c-169 0 -278 -156 -278 -403c0 -169 69 -257 201 -257
c89 0 174 34 268 107c1 1 4 2 6 2c6 0 10 -4 10 -10c0 -3 -2 -6 -4 -8c-97 -75 -186 -111 -280 -111zM199 795c0 3 2 6 4 8l202 151c2 1 4 2 6 2c6 0 10 -4 10 -10c0 -3 -2 -6 -4 -8l-202 -151c-2 -1 -4 -2 -6 -2c-6 0 -10 4 -10 10z" />
    <glyph glyph-name="Ccaron" unicode="&#x10c;" 
d="M287 -12c-144 0 -221 98 -221 277c0 257 117 423 298 423c59 0 105 -18 147 -39l2 74c0 6 5 10 10 10c6 0 10 -4 10 -10l-7 -215c0 -6 -5 -10 -10 -10c-6 0 -10 4 -10 10l4 118c-51 28 -97 42 -146 42c-169 0 -278 -156 -278 -403c0 -169 69 -257 201 -257
c89 0 174 34 268 107c1 1 4 2 6 2c6 0 10 -4 10 -10c0 -3 -2 -6 -4 -8c-97 -75 -186 -111 -280 -111zM118 946c0 6 4 10 10 10c3 0 5 -1 7 -3c44 -41 97 -82 165 -126c66 41 127 82 186 127c2 1 4 2 6 2c6 0 10 -4 10 -10c0 -3 -2 -6 -4 -8c-65 -49 -130 -92 -193 -131
c-1 -1 -3 -2 -5 -2s-4 1 -6 2c-70 46 -127 89 -173 132c-2 2 -3 4 -3 7z" />
    <glyph glyph-name="Ccedilla" unicode="&#xc7;" 
d="M516 498c-6 0 -10 4 -10 10l4 118c-51 28 -97 42 -146 42c-169 0 -278 -156 -278 -403c0 -169 69 -257 201 -257c89 0 174 34 268 107c1 1 4 2 6 2c6 0 10 -4 10 -10c0 -3 -2 -6 -4 -8c-81 -62 -156 -98 -233 -108c44 -19 69 -57 69 -106c0 -65 -67 -112 -155 -112
c-8 0 -15 0 -22 1c-5 0 -9 5 -9 10c0 6 4 10 11 10c2 0 10 -1 20 -1c78 0 135 40 135 92c0 53 -34 86 -94 98c-3 1 -6 2 -8 5c-140 3 -215 100 -215 277c0 257 117 423 298 423c59 0 105 -18 147 -39l2 74c0 6 5 10 10 10c6 0 10 -4 10 -10l-7 -215c0 -6 -5 -10 -10 -10z
" />
    <glyph glyph-name="Ccircumflex" unicode="&#x108;" 
d="M287 -12c-144 0 -221 98 -221 277c0 257 117 423 298 423c59 0 105 -18 147 -39l2 74c0 6 5 10 10 10c6 0 10 -4 10 -10l-7 -215c0 -6 -5 -10 -10 -10c-6 0 -10 4 -10 10l4 118c-51 28 -97 42 -146 42c-169 0 -278 -156 -278 -403c0 -169 69 -257 201 -257
c89 0 174 34 268 107c1 1 4 2 6 2c6 0 10 -4 10 -10c0 -3 -2 -6 -4 -8c-97 -75 -186 -111 -280 -111zM118 815c0 3 2 6 4 8c65 49 130 92 193 131c1 1 3 2 5 2s4 -1 6 -2c70 -46 127 -89 173 -132c2 -2 3 -4 3 -7c0 -6 -4 -10 -10 -10c-3 0 -5 1 -7 3
c-44 41 -97 82 -165 126c-66 -41 -127 -82 -186 -127c-2 -1 -4 -2 -6 -2c-6 0 -10 4 -10 10z" />
    <glyph glyph-name="Cdotaccent" unicode="&#x10a;" 
d="M287 -12c-144 0 -221 98 -221 277c0 257 117 423 298 423c59 0 105 -18 147 -39l2 74c0 6 5 10 10 10c6 0 10 -4 10 -10l-7 -215c0 -6 -5 -10 -10 -10c-6 0 -10 4 -10 10l4 118c-51 28 -97 42 -146 42c-169 0 -278 -156 -278 -403c0 -169 69 -257 201 -257
c89 0 174 34 268 107c1 1 4 2 6 2c6 0 10 -4 10 -10c0 -3 -2 -6 -4 -8c-97 -75 -186 -111 -280 -111zM278 886c0 35 10 51 34 51c18 0 31 -14 31 -32c0 -22 -16 -54 -37 -76c-2 -2 -4 -3 -7 -3c-4 0 -8 3 -9 6c-5 1 -8 4 -9 9c-2 18 -3 33 -3 45z" />
    <glyph glyph-name="D" unicode="D" 
d="M177 -5c-26 0 -57 6 -84 17c-4 1 -7 5 -7 9c7 100 9 162 9 265c0 127 -5 292 -10 394l-12 -1c-6 0 -10 4 -10 10c0 5 4 9 9 10c14 2 63 5 85 5c249 0 391 -123 391 -339c0 -220 -149 -370 -371 -370zM104 682c6 -104 11 -268 11 -396c0 -97 -3 -183 -8 -258
c23 -8 48 -13 70 -13c211 0 351 141 351 350c0 205 -133 319 -371 319c-14 0 -34 -1 -53 -2z" />
    <glyph glyph-name="Eth" unicode="&#xd0;" 
d="M177 -5c-26 0 -57 6 -84 17c-4 1 -7 5 -7 9c7 100 9 162 9 265v50c-49 -5 -79 -10 -83 -10c-6 0 -10 4 -10 10c0 5 4 9 9 10c28 4 56 7 84 10c-2 113 -6 240 -10 324l-12 -1c-6 0 -10 4 -10 10c0 5 4 9 9 10c14 2 63 5 85 5c249 0 391 -123 391 -339
c0 -220 -149 -370 -371 -370zM104 682c5 -85 9 -211 11 -324c60 6 121 10 180 12c6 0 10 -4 10 -10c0 -5 -4 -10 -10 -10c-72 -2 -133 -7 -180 -12v-52c0 -97 -3 -183 -8 -258c23 -8 48 -13 70 -13c211 0 351 141 351 350c0 205 -133 319 -371 319c-14 0 -34 -1 -53 -2z" />
    <glyph glyph-name="Dcaron" unicode="&#x10e;" 
d="M177 -5c-26 0 -57 6 -84 17c-4 1 -7 5 -7 9c7 100 9 162 9 265c0 127 -5 292 -10 394l-12 -1c-6 0 -10 4 -10 10c0 5 4 9 9 10c14 2 63 5 85 5c249 0 391 -123 391 -339c0 -220 -149 -370 -371 -370zM104 682c6 -104 11 -268 11 -396c0 -97 -3 -183 -8 -258
c23 -8 48 -13 70 -13c211 0 351 141 351 350c0 205 -133 319 -371 319c-14 0 -34 -1 -53 -2zM118 946c0 6 4 10 10 10c3 0 5 -1 7 -3c44 -41 97 -82 165 -126c66 41 127 82 186 127c2 1 4 2 6 2c6 0 10 -4 10 -10c0 -3 -2 -6 -4 -8c-65 -49 -130 -92 -193 -131
c-1 -1 -3 -2 -5 -2s-4 1 -6 2c-70 46 -127 89 -173 132c-2 2 -3 4 -3 7z" />
    <glyph glyph-name="Dcroat" unicode="&#x110;" 
d="M177 -5c-26 0 -57 6 -84 17c-4 1 -7 5 -7 9c7 100 9 162 9 265v50c-49 -5 -79 -10 -83 -10c-6 0 -10 4 -10 10c0 5 4 9 9 10c28 4 56 7 84 10c-2 113 -6 240 -10 324l-12 -1c-6 0 -10 4 -10 10c0 5 4 9 9 10c14 2 63 5 85 5c249 0 391 -123 391 -339
c0 -220 -149 -370 -371 -370zM104 682c5 -85 9 -211 11 -324c60 6 121 10 180 12c6 0 10 -4 10 -10c0 -5 -4 -10 -10 -10c-72 -2 -133 -7 -180 -12v-52c0 -97 -3 -183 -8 -258c23 -8 48 -13 70 -13c211 0 351 141 351 350c0 205 -133 319 -371 319c-14 0 -34 -1 -53 -2z" />
    <glyph glyph-name="E" unicode="E" 
d="M539 -1c-109 0 -258 7 -347 16c-75 8 -108 41 -108 110c0 46 8 140 12 227h-4c-6 0 -10 5 -10 10c0 6 4 10 10 10h5c1 28 2 55 2 78c0 224 -12 226 -12 239c0 6 4 10 10 10c5 0 9 -3 10 -8l2 -13c89 16 191 24 287 24c45 0 89 -2 132 -6c5 -1 9 -5 9 -10
c0 -6 -4 -10 -10 -10c-10 0 -51 6 -131 6c-96 0 -197 -9 -284 -24c5 -42 7 -105 7 -208c0 -22 -1 -49 -2 -78c119 -2 271 4 368 17h2c6 0 10 -4 10 -10c0 -5 -4 -9 -9 -10c-101 -14 -254 -19 -372 -17c-4 -89 -12 -189 -12 -227c0 -59 25 -83 90 -90c90 -10 237 -16 345 -16
c6 0 10 -4 10 -10s-4 -10 -10 -10z" />
    <glyph glyph-name="Eacute" unicode="&#xc9;" 
d="M539 -1c-109 0 -258 7 -347 16c-75 8 -108 41 -108 110c0 46 8 140 12 227h-4c-6 0 -10 5 -10 10c0 6 4 10 10 10h5c1 28 2 55 2 78c0 224 -12 226 -12 239c0 6 4 10 10 10c5 0 9 -3 10 -8l2 -13c89 16 191 24 287 24c45 0 89 -2 132 -6c5 -1 9 -5 9 -10
c0 -6 -4 -10 -10 -10c-10 0 -51 6 -131 6c-96 0 -197 -9 -284 -24c5 -42 7 -105 7 -208c0 -22 -1 -49 -2 -78c119 -2 271 4 368 17h2c6 0 10 -4 10 -10c0 -5 -4 -9 -9 -10c-101 -14 -254 -19 -372 -17c-4 -89 -12 -189 -12 -227c0 -59 25 -83 90 -90c90 -10 237 -16 345 -16
c6 0 10 -4 10 -10s-4 -10 -10 -10zM199 795c0 3 2 6 4 8l202 151c2 1 4 2 6 2c6 0 10 -4 10 -10c0 -3 -2 -6 -4 -8l-202 -151c-2 -1 -4 -2 -6 -2c-6 0 -10 4 -10 10z" />
    <glyph glyph-name="Ebreve" unicode="&#x114;" 
d="M539 -1c-109 0 -258 7 -347 16c-75 8 -108 41 -108 110c0 46 8 140 12 227h-4c-6 0 -10 5 -10 10c0 6 4 10 10 10h5c1 28 2 55 2 78c0 224 -12 226 -12 239c0 6 4 10 10 10c5 0 9 -3 10 -8l2 -13c89 16 191 24 287 24c45 0 89 -2 132 -6c5 -1 9 -5 9 -10
c0 -6 -4 -10 -10 -10c-10 0 -51 6 -131 6c-96 0 -197 -9 -284 -24c5 -42 7 -105 7 -208c0 -22 -1 -49 -2 -78c119 -2 271 4 368 17h2c6 0 10 -4 10 -10c0 -5 -4 -9 -9 -10c-101 -14 -254 -19 -372 -17c-4 -89 -12 -189 -12 -227c0 -59 25 -83 90 -90c90 -10 237 -16 345 -16
c6 0 10 -4 10 -10s-4 -10 -10 -10zM126 936v3c0 6 4 10 10 10c5 0 9 -3 10 -8c18 -64 88 -109 171 -109c81 0 143 44 157 111c1 5 5 8 10 8c6 0 10 -4 10 -10v-2c-17 -77 -87 -127 -177 -127c-91 0 -170 51 -191 124z" />
    <glyph glyph-name="Ecaron" unicode="&#x11a;" 
d="M539 -1c-109 0 -258 7 -347 16c-75 8 -108 41 -108 110c0 46 8 140 12 227h-4c-6 0 -10 5 -10 10c0 6 4 10 10 10h5c1 28 2 55 2 78c0 224 -12 226 -12 239c0 6 4 10 10 10c5 0 9 -3 10 -8l2 -13c89 16 191 24 287 24c45 0 89 -2 132 -6c5 -1 9 -5 9 -10
c0 -6 -4 -10 -10 -10c-10 0 -51 6 -131 6c-96 0 -197 -9 -284 -24c5 -42 7 -105 7 -208c0 -22 -1 -49 -2 -78c119 -2 271 4 368 17h2c6 0 10 -4 10 -10c0 -5 -4 -9 -9 -10c-101 -14 -254 -19 -372 -17c-4 -89 -12 -189 -12 -227c0 -59 25 -83 90 -90c90 -10 237 -16 345 -16
c6 0 10 -4 10 -10s-4 -10 -10 -10zM118 946c0 6 4 10 10 10c3 0 5 -1 7 -3c44 -41 97 -82 165 -126c66 41 127 82 186 127c2 1 4 2 6 2c6 0 10 -4 10 -10c0 -3 -2 -6 -4 -8c-65 -49 -130 -92 -193 -131c-1 -1 -3 -2 -5 -2s-4 1 -6 2c-70 46 -127 89 -173 132c-2 2 -3 4 -3 7
z" />
    <glyph glyph-name="Ecircumflex" unicode="&#xca;" 
d="M539 -1c-109 0 -258 7 -347 16c-75 8 -108 41 -108 110c0 46 8 140 12 227h-4c-6 0 -10 5 -10 10c0 6 4 10 10 10h5c1 28 2 55 2 78c0 224 -12 226 -12 239c0 6 4 10 10 10c5 0 9 -3 10 -8l2 -13c89 16 191 24 287 24c45 0 89 -2 132 -6c5 -1 9 -5 9 -10
c0 -6 -4 -10 -10 -10c-10 0 -51 6 -131 6c-96 0 -197 -9 -284 -24c5 -42 7 -105 7 -208c0 -22 -1 -49 -2 -78c119 -2 271 4 368 17h2c6 0 10 -4 10 -10c0 -5 -4 -9 -9 -10c-101 -14 -254 -19 -372 -17c-4 -89 -12 -189 -12 -227c0 -59 25 -83 90 -90c90 -10 237 -16 345 -16
c6 0 10 -4 10 -10s-4 -10 -10 -10zM118 815c0 3 2 6 4 8c65 49 130 92 193 131c1 1 3 2 5 2s4 -1 6 -2c70 -46 127 -89 173 -132c2 -2 3 -4 3 -7c0 -6 -4 -10 -10 -10c-3 0 -5 1 -7 3c-44 41 -97 82 -165 126c-66 -41 -127 -82 -186 -127c-2 -1 -4 -2 -6 -2
c-6 0 -10 4 -10 10z" />
    <glyph glyph-name="Edieresis" unicode="&#xcb;" 
d="M539 -1c-109 0 -258 7 -347 16c-75 8 -108 41 -108 110c0 46 8 140 12 227h-4c-6 0 -10 5 -10 10c0 6 4 10 10 10h5c1 28 2 55 2 78c0 224 -12 226 -12 239c0 6 4 10 10 10c5 0 9 -3 10 -8l2 -13c89 16 191 24 287 24c45 0 89 -2 132 -6c5 -1 9 -5 9 -10
c0 -6 -4 -10 -10 -10c-10 0 -51 6 -131 6c-96 0 -197 -9 -284 -24c5 -42 7 -105 7 -208c0 -22 -1 -49 -2 -78c119 -2 271 4 368 17h2c6 0 10 -4 10 -10c0 -5 -4 -9 -9 -10c-101 -14 -254 -19 -372 -17c-4 -89 -12 -189 -12 -227c0 -59 25 -83 90 -90c90 -10 237 -16 345 -16
c6 0 10 -4 10 -10s-4 -10 -10 -10zM199 869c0 9 1 17 3 27c1 5 5 8 10 8c6 0 10 -4 10 -10c0 -4 -3 -15 -3 -25c0 -21 6 -43 6 -48c0 -6 -4 -10 -10 -10c-5 0 -9 4 -10 8c-4 20 -6 36 -6 50zM398 832c0 5 2 10 2 32c0 30 -1 38 -1 42c0 6 4 10 10 10c5 0 10 -4 10 -10
c1 -10 1 -27 1 -42s0 -27 -2 -34c-1 -5 -5 -8 -10 -8c-6 0 -10 4 -10 10z" />
    <glyph glyph-name="Edotaccent" unicode="&#x116;" 
d="M539 -1c-109 0 -258 7 -347 16c-75 8 -108 41 -108 110c0 46 8 140 12 227h-4c-6 0 -10 5 -10 10c0 6 4 10 10 10h5c1 28 2 55 2 78c0 224 -12 226 -12 239c0 6 4 10 10 10c5 0 9 -3 10 -8l2 -13c89 16 191 24 287 24c45 0 89 -2 132 -6c5 -1 9 -5 9 -10
c0 -6 -4 -10 -10 -10c-10 0 -51 6 -131 6c-96 0 -197 -9 -284 -24c5 -42 7 -105 7 -208c0 -22 -1 -49 -2 -78c119 -2 271 4 368 17h2c6 0 10 -4 10 -10c0 -5 -4 -9 -9 -10c-101 -14 -254 -19 -372 -17c-4 -89 -12 -189 -12 -227c0 -59 25 -83 90 -90c90 -10 237 -16 345 -16
c6 0 10 -4 10 -10s-4 -10 -10 -10zM278 886c0 35 10 51 34 51c18 0 31 -14 31 -32c0 -22 -16 -54 -37 -76c-2 -2 -4 -3 -7 -3c-4 0 -8 3 -9 6c-5 1 -8 4 -9 9c-2 18 -3 33 -3 45z" />
    <glyph glyph-name="Egrave" unicode="&#xc8;" 
d="M539 -1c-109 0 -258 7 -347 16c-75 8 -108 41 -108 110c0 46 8 140 12 227h-4c-6 0 -10 5 -10 10c0 6 4 10 10 10h5c1 28 2 55 2 78c0 224 -12 226 -12 239c0 6 4 10 10 10c5 0 9 -3 10 -8l2 -13c89 16 191 24 287 24c45 0 89 -2 132 -6c5 -1 9 -5 9 -10
c0 -6 -4 -10 -10 -10c-10 0 -51 6 -131 6c-96 0 -197 -9 -284 -24c5 -42 7 -105 7 -208c0 -22 -1 -49 -2 -78c119 -2 271 4 368 17h2c6 0 10 -4 10 -10c0 -5 -4 -9 -9 -10c-101 -14 -254 -19 -372 -17c-4 -89 -12 -189 -12 -227c0 -59 25 -83 90 -90c90 -10 237 -16 345 -16
c6 0 10 -4 10 -10s-4 -10 -10 -10zM199 946c0 6 4 10 10 10c2 0 4 -1 6 -2l202 -151c2 -2 4 -5 4 -8c0 -6 -4 -10 -10 -10c-2 0 -4 1 -6 2l-202 151c-2 2 -4 5 -4 8z" />
    <glyph glyph-name="Emacron" unicode="&#x112;" 
d="M539 -1c-109 0 -258 7 -347 16c-75 8 -108 41 -108 110c0 46 8 140 12 227h-4c-6 0 -10 5 -10 10c0 6 4 10 10 10h5c1 28 2 55 2 78c0 224 -12 226 -12 239c0 6 4 10 10 10c5 0 9 -3 10 -8l2 -13c89 16 191 24 287 24c45 0 89 -2 132 -6c5 -1 9 -5 9 -10
c0 -6 -4 -10 -10 -10c-10 0 -51 6 -131 6c-96 0 -197 -9 -284 -24c5 -42 7 -105 7 -208c0 -22 -1 -49 -2 -78c119 -2 271 4 368 17h2c6 0 10 -4 10 -10c0 -5 -4 -9 -9 -10c-101 -14 -254 -19 -372 -17c-4 -89 -12 -189 -12 -227c0 -59 25 -83 90 -90c90 -10 237 -16 345 -16
c6 0 10 -4 10 -10s-4 -10 -10 -10zM112 831c0 5 4 9 9 10c106 15 287 22 376 22c6 0 10 -4 10 -10s-4 -10 -10 -10c-216 0 -371 -22 -375 -22c-6 0 -10 4 -10 10z" />
    <glyph glyph-name="Eogonek" unicode="&#x118;" 
d="M92 352c-6 0 -10 5 -10 10c0 6 4 10 10 10h5c1 28 2 55 2 78c0 224 -12 226 -12 239c0 6 4 10 10 10c5 0 9 -3 10 -8l2 -13c89 16 191 24 287 24c45 0 89 -2 132 -6c5 -1 9 -5 9 -10c0 -6 -4 -10 -10 -10c-10 0 -51 6 -131 6c-96 0 -197 -9 -284 -24c5 -42 7 -105 7 -208
c0 -22 -1 -49 -2 -78c119 -2 271 4 368 17h2c6 0 10 -4 10 -10c0 -5 -4 -9 -9 -10c-101 -14 -254 -19 -372 -17c-4 -89 -12 -189 -12 -227c0 -59 25 -83 90 -90c90 -10 237 -16 345 -16c6 0 10 -4 10 -10c0 -4 -2 -7 -4 -8l-1 -1c-70 -37 -119 -90 -119 -128
c0 -34 30 -59 69 -59c34 0 75 16 103 41c2 1 4 2 7 2c6 0 10 -4 10 -10c0 -3 -1 -6 -3 -8c-32 -27 -78 -45 -117 -45c-50 0 -89 34 -89 79c0 39 39 88 98 127c-104 1 -231 8 -311 16c-75 8 -108 41 -108 110c0 46 8 140 12 227h-4z" />
    <glyph glyph-name="F" unicode="F" 
d="M132 -15c-6 0 -10 4 -10 10c0 103 7 372 7 425c0 208 -12 261 -12 269c0 6 4 10 10 10c5 0 9 -4 10 -9l1 -12c88 15 182 24 272 24c42 0 85 -2 128 -6c5 -1 9 -5 9 -10c0 -6 -4 -10 -10 -10c-7 0 -52 6 -127 6c-87 0 -180 -8 -269 -24c6 -63 8 -130 8 -238l-1 -82
c81 11 174 18 258 18c31 0 60 -1 87 -3c5 0 9 -5 9 -10c0 -6 -4 -10 -10 -10c-5 0 -34 3 -86 3c-85 0 -178 -7 -259 -19c-2 -104 -5 -254 -5 -322c0 -6 -4 -10 -10 -10z" />
    <glyph glyph-name="G" unicode="G" 
d="M279 -4c-136 0 -226 106 -226 269c0 250 161 441 284 441c45 0 122 -23 172 -50c3 -2 5 -5 5 -9c0 -6 -4 -10 -10 -10c-2 0 -3 0 -5 1c-48 27 -121 48 -162 48c-113 0 -264 -179 -264 -421c0 -152 82 -249 206 -249c146 0 250 125 251 305c-184 -23 -264 -42 -274 -42
c-6 0 -10 4 -10 10c0 5 4 9 8 10c109 21 312 48 322 48c6 0 10 -4 10 -10c0 -5 -4 -9 -9 -10l-27 -3c0 -193 -113 -328 -271 -328z" />
    <glyph glyph-name="Gbreve" unicode="&#x11e;" 
d="M279 -4c-136 0 -226 106 -226 269c0 250 161 441 284 441c45 0 122 -23 172 -50c3 -2 5 -5 5 -9c0 -6 -4 -10 -10 -10c-2 0 -3 0 -5 1c-48 27 -121 48 -162 48c-113 0 -264 -179 -264 -421c0 -152 82 -249 206 -249c146 0 250 125 251 305c-184 -23 -264 -42 -274 -42
c-6 0 -10 4 -10 10c0 5 4 9 8 10c109 21 312 48 322 48c6 0 10 -4 10 -10c0 -5 -4 -9 -9 -10l-27 -3c0 -193 -113 -328 -271 -328zM126 936v3c0 6 4 10 10 10c5 0 9 -3 10 -8c18 -64 88 -109 171 -109c81 0 143 44 157 111c1 5 5 8 10 8c6 0 10 -4 10 -10v-2
c-17 -77 -87 -127 -177 -127c-91 0 -170 51 -191 124z" />
    <glyph glyph-name="Gcircumflex" unicode="&#x11c;" 
d="M279 -4c-136 0 -226 106 -226 269c0 250 161 441 284 441c45 0 122 -23 172 -50c3 -2 5 -5 5 -9c0 -6 -4 -10 -10 -10c-2 0 -3 0 -5 1c-48 27 -121 48 -162 48c-113 0 -264 -179 -264 -421c0 -152 82 -249 206 -249c146 0 250 125 251 305c-184 -23 -264 -42 -274 -42
c-6 0 -10 4 -10 10c0 5 4 9 8 10c109 21 312 48 322 48c6 0 10 -4 10 -10c0 -5 -4 -9 -9 -10l-27 -3c0 -193 -113 -328 -271 -328zM118 815c0 3 2 6 4 8c65 49 130 92 193 131c1 1 3 2 5 2s4 -1 6 -2c70 -46 127 -89 173 -132c2 -2 3 -4 3 -7c0 -6 -4 -10 -10 -10
c-3 0 -5 1 -7 3c-44 41 -97 82 -165 126c-66 -41 -127 -82 -186 -127c-2 -1 -4 -2 -6 -2c-6 0 -10 4 -10 10z" />
    <glyph glyph-name="uni0122" unicode="&#x122;" 
d="M279 -4c-136 0 -226 106 -226 269c0 250 161 441 284 441c45 0 122 -23 172 -50c3 -2 5 -5 5 -9c0 -6 -4 -10 -10 -10c-2 0 -3 0 -5 1c-48 27 -121 48 -162 48c-113 0 -264 -179 -264 -421c0 -152 82 -249 206 -249c146 0 250 125 251 305c-184 -23 -264 -42 -274 -42
c-6 0 -10 4 -10 10c0 5 4 9 8 10c109 21 312 48 322 48c6 0 10 -4 10 -10c0 -5 -4 -9 -9 -10l-27 -3c0 -193 -113 -328 -271 -328zM246 -243c0 2 1 5 2 6c37 44 81 122 93 154c1 4 5 7 9 7c6 0 10 -4 10 -10c0 -1 0 -3 -1 -4c-12 -34 -58 -115 -95 -159c-2 -3 -5 -4 -8 -4
c-6 0 -10 4 -10 10z" />
    <glyph glyph-name="Gdotaccent" unicode="&#x120;" 
d="M279 -4c-136 0 -226 106 -226 269c0 250 161 441 284 441c45 0 122 -23 172 -50c3 -2 5 -5 5 -9c0 -6 -4 -10 -10 -10c-2 0 -3 0 -5 1c-48 27 -121 48 -162 48c-113 0 -264 -179 -264 -421c0 -152 82 -249 206 -249c146 0 250 125 251 305c-184 -23 -264 -42 -274 -42
c-6 0 -10 4 -10 10c0 5 4 9 8 10c109 21 312 48 322 48c6 0 10 -4 10 -10c0 -5 -4 -9 -9 -10l-27 -3c0 -193 -113 -328 -271 -328zM278 886c0 35 10 51 34 51c18 0 31 -14 31 -32c0 -22 -16 -54 -37 -76c-2 -2 -4 -3 -7 -3c-4 0 -8 3 -9 6c-5 1 -8 4 -9 9c-2 18 -3 33 -3 45
z" />
    <glyph glyph-name="H" unicode="H" 
d="M514 -21c-5 0 -10 4 -10 10c-5 94 -10 215 -13 318c-42 4 -94 6 -148 6c-79 0 -160 -4 -210 -10c-3 -124 -12 -228 -27 -304c-1 -4 -5 -8 -10 -8c-6 0 -10 4 -10 10c0 7 28 124 28 387c0 148 -11 296 -11 301c0 6 4 10 10 10c5 0 10 -4 10 -9c6 -85 11 -193 11 -302
l-1 -65c52 7 133 10 210 10c57 0 108 -2 147 -6c-2 62 -3 116 -3 149c0 72 11 165 27 234c1 5 5 8 10 8c6 0 10 -4 10 -10c0 -10 -27 -103 -27 -232c0 -127 17 -484 17 -487c0 -6 -4 -10 -10 -10z" />
    <glyph glyph-name="Hbar" unicode="&#x126;" 
d="M514 -21c-5 0 -10 4 -10 10c-5 94 -10 215 -13 318c-42 4 -94 6 -148 6c-79 0 -160 -4 -210 -10c-3 -124 -12 -228 -27 -304c-1 -4 -5 -8 -10 -8c-6 0 -10 4 -10 10c0 7 28 124 28 387c0 52 -1 104 -3 150l-55 -2c-6 0 -10 4 -10 10c0 5 4 10 10 10l54 2
c-3 74 -7 128 -7 131c0 6 4 10 10 10c5 0 10 -4 10 -9c3 -40 5 -84 7 -132l34 1c94 2 214 6 328 13c5 48 13 97 22 138c1 5 5 8 10 8c6 0 10 -4 10 -10c0 -7 -14 -58 -22 -135l62 4c6 0 10 -4 10 -10c0 -5 -4 -10 -9 -10l-65 -5c-2 -23 -3 -49 -3 -76
c0 -127 17 -484 17 -487c0 -6 -4 -10 -10 -10zM131 538c2 -48 3 -99 3 -150l-1 -65c52 7 133 10 210 10c57 0 108 -2 147 -6c-2 62 -3 116 -3 149c0 23 1 49 3 75c-101 -5 -228 -9 -325 -12c-12 0 -23 -1 -34 -1z" />
    <glyph glyph-name="Hcircumflex" unicode="&#x124;" 
d="M514 -21c-5 0 -10 4 -10 10c-5 94 -10 215 -13 318c-42 4 -94 6 -148 6c-79 0 -160 -4 -210 -10c-3 -124 -12 -228 -27 -304c-1 -4 -5 -8 -10 -8c-6 0 -10 4 -10 10c0 7 28 124 28 387c0 148 -11 296 -11 301c0 6 4 10 10 10c5 0 10 -4 10 -9c6 -85 11 -193 11 -302
l-1 -65c52 7 133 10 210 10c57 0 108 -2 147 -6c-2 62 -3 116 -3 149c0 72 11 165 27 234c1 5 5 8 10 8c6 0 10 -4 10 -10c0 -10 -27 -103 -27 -232c0 -127 17 -484 17 -487c0 -6 -4 -10 -10 -10zM118 815c0 3 2 6 4 8c65 49 130 92 193 131c1 1 3 2 5 2s4 -1 6 -2
c70 -46 127 -89 173 -132c2 -2 3 -4 3 -7c0 -6 -4 -10 -10 -10c-3 0 -5 1 -7 3c-44 41 -97 82 -165 126c-66 -41 -127 -82 -186 -127c-2 -1 -4 -2 -6 -2c-6 0 -10 4 -10 10z" />
    <glyph glyph-name="I" unicode="I" 
d="M147 -8c-6 0 -10 4 -10 10c0 5 4 9 9 10c50 6 109 11 166 14c-13 117 -21 251 -21 365c0 87 3 190 9 292c-53 1 -101 2 -146 3c-6 0 -10 5 -10 10c0 6 4 10 10 10c123 -2 234 -6 316 -11c5 0 9 -5 9 -10c0 -6 -4 -10 -10 -10c-54 3 -104 5 -149 7
c-6 -101 -9 -204 -9 -291c0 -112 8 -245 21 -364c53 3 103 5 143 5c6 0 10 -4 10 -10c0 -5 -4 -10 -10 -10c-107 -1 -228 -8 -328 -20z" />
    <glyph glyph-name="IJ" unicode="&#x132;" 
d="M406 -24c-89 0 -148 91 -148 224c0 24 4 46 11 63c1 3 5 6 9 6c6 0 10 -4 10 -10c0 -5 -10 -19 -10 -59c0 -122 51 -204 128 -204c59 0 98 68 99 174c1 107 -8 279 -28 518c-85 -5 -148 -13 -153 -13c-6 0 -10 4 -10 10c0 5 4 9 9 10c52 7 171 15 235 15
c6 0 10 -4 10 -10s-4 -10 -10 -10c-21 0 -42 -1 -61 -2c19 -228 29 -406 28 -518c-1 -117 -48 -194 -119 -194zM91 385c0 92 3 203 9 310c0 6 5 10 10 10c6 0 10 -4 10 -10c0 -2 -9 -158 -9 -310c0 -206 22 -378 22 -384s-4 -10 -10 -10c-5 0 -9 4 -10 9
c-14 124 -22 267 -22 385z" />
    <glyph glyph-name="Iacute" unicode="&#xcd;" 
d="M147 -8c-6 0 -10 4 -10 10c0 5 4 9 9 10c50 6 109 11 166 14c-13 117 -21 251 -21 365c0 87 3 190 9 292c-53 1 -101 2 -146 3c-6 0 -10 5 -10 10c0 6 4 10 10 10c123 -2 234 -6 316 -11c5 0 9 -5 9 -10c0 -6 -4 -10 -10 -10c-54 3 -104 5 -149 7
c-6 -101 -9 -204 -9 -291c0 -112 8 -245 21 -364c53 3 103 5 143 5c6 0 10 -4 10 -10c0 -5 -4 -10 -10 -10c-107 -1 -228 -8 -328 -20zM199 795c0 3 2 6 4 8l202 151c2 1 4 2 6 2c6 0 10 -4 10 -10c0 -3 -2 -6 -4 -8l-202 -151c-2 -1 -4 -2 -6 -2c-6 0 -10 4 -10 10z" />
    <glyph glyph-name="Ibreve" unicode="&#x12c;" 
d="M147 -8c-6 0 -10 4 -10 10c0 5 4 9 9 10c50 6 109 11 166 14c-13 117 -21 251 -21 365c0 87 3 190 9 292c-53 1 -101 2 -146 3c-6 0 -10 5 -10 10c0 6 4 10 10 10c123 -2 234 -6 316 -11c5 0 9 -5 9 -10c0 -6 -4 -10 -10 -10c-54 3 -104 5 -149 7
c-6 -101 -9 -204 -9 -291c0 -112 8 -245 21 -364c53 3 103 5 143 5c6 0 10 -4 10 -10c0 -5 -4 -10 -10 -10c-107 -1 -228 -8 -328 -20zM126 936v3c0 6 4 10 10 10c5 0 9 -3 10 -8c18 -64 88 -109 171 -109c81 0 143 44 157 111c1 5 5 8 10 8c6 0 10 -4 10 -10v-2
c-17 -77 -87 -127 -177 -127c-91 0 -170 51 -191 124z" />
    <glyph glyph-name="Icircumflex" unicode="&#xce;" 
d="M147 -8c-6 0 -10 4 -10 10c0 5 4 9 9 10c50 6 109 11 166 14c-13 117 -21 251 -21 365c0 87 3 190 9 292c-53 1 -101 2 -146 3c-6 0 -10 5 -10 10c0 6 4 10 10 10c123 -2 234 -6 316 -11c5 0 9 -5 9 -10c0 -6 -4 -10 -10 -10c-54 3 -104 5 -149 7
c-6 -101 -9 -204 -9 -291c0 -112 8 -245 21 -364c53 3 103 5 143 5c6 0 10 -4 10 -10c0 -5 -4 -10 -10 -10c-107 -1 -228 -8 -328 -20zM118 815c0 3 2 6 4 8c65 49 130 92 193 131c1 1 3 2 5 2s4 -1 6 -2c70 -46 127 -89 173 -132c2 -2 3 -4 3 -7c0 -6 -4 -10 -10 -10
c-3 0 -5 1 -7 3c-44 41 -97 82 -165 126c-66 -41 -127 -82 -186 -127c-2 -1 -4 -2 -6 -2c-6 0 -10 4 -10 10z" />
    <glyph glyph-name="Idieresis" unicode="&#xcf;" 
d="M147 -8c-6 0 -10 4 -10 10c0 5 4 9 9 10c50 6 109 11 166 14c-13 117 -21 251 -21 365c0 87 3 190 9 292c-53 1 -101 2 -146 3c-6 0 -10 5 -10 10c0 6 4 10 10 10c123 -2 234 -6 316 -11c5 0 9 -5 9 -10c0 -6 -4 -10 -10 -10c-54 3 -104 5 -149 7
c-6 -101 -9 -204 -9 -291c0 -112 8 -245 21 -364c53 3 103 5 143 5c6 0 10 -4 10 -10c0 -5 -4 -10 -10 -10c-107 -1 -228 -8 -328 -20zM199 869c0 9 1 17 3 27c1 5 5 8 10 8c6 0 10 -4 10 -10c0 -4 -3 -15 -3 -25c0 -21 6 -43 6 -48c0 -6 -4 -10 -10 -10c-5 0 -9 4 -10 8
c-4 20 -6 36 -6 50zM398 832c0 5 2 10 2 32c0 30 -1 38 -1 42c0 6 4 10 10 10c5 0 10 -4 10 -10c1 -10 1 -27 1 -42s0 -27 -2 -34c-1 -5 -5 -8 -10 -8c-6 0 -10 4 -10 10z" />
    <glyph glyph-name="Idotaccent" unicode="&#x130;" 
d="M147 -8c-6 0 -10 4 -10 10c0 5 4 9 9 10c50 6 109 11 166 14c-13 117 -21 251 -21 365c0 87 3 190 9 292c-53 1 -101 2 -146 3c-6 0 -10 5 -10 10c0 6 4 10 10 10c123 -2 234 -6 316 -11c5 0 9 -5 9 -10c0 -6 -4 -10 -10 -10c-54 3 -104 5 -149 7
c-6 -101 -9 -204 -9 -291c0 -112 8 -245 21 -364c53 3 103 5 143 5c6 0 10 -4 10 -10c0 -5 -4 -10 -10 -10c-107 -1 -228 -8 -328 -20zM278 886c0 35 10 51 34 51c18 0 31 -14 31 -32c0 -22 -16 -54 -37 -76c-2 -2 -4 -3 -7 -3c-4 0 -8 3 -9 6c-5 1 -8 4 -9 9
c-2 18 -3 33 -3 45z" />
    <glyph glyph-name="Igrave" unicode="&#xcc;" 
d="M147 -8c-6 0 -10 4 -10 10c0 5 4 9 9 10c50 6 109 11 166 14c-13 117 -21 251 -21 365c0 87 3 190 9 292c-53 1 -101 2 -146 3c-6 0 -10 5 -10 10c0 6 4 10 10 10c123 -2 234 -6 316 -11c5 0 9 -5 9 -10c0 -6 -4 -10 -10 -10c-54 3 -104 5 -149 7
c-6 -101 -9 -204 -9 -291c0 -112 8 -245 21 -364c53 3 103 5 143 5c6 0 10 -4 10 -10c0 -5 -4 -10 -10 -10c-107 -1 -228 -8 -328 -20zM199 946c0 6 4 10 10 10c2 0 4 -1 6 -2l202 -151c2 -2 4 -5 4 -8c0 -6 -4 -10 -10 -10c-2 0 -4 1 -6 2l-202 151c-2 2 -4 5 -4 8z" />
    <glyph glyph-name="Imacron" unicode="&#x12a;" 
d="M147 -8c-6 0 -10 4 -10 10c0 5 4 9 9 10c50 6 109 11 166 14c-13 117 -21 251 -21 365c0 87 3 190 9 292c-53 1 -101 2 -146 3c-6 0 -10 5 -10 10c0 6 4 10 10 10c123 -2 234 -6 316 -11c5 0 9 -5 9 -10c0 -6 -4 -10 -10 -10c-54 3 -104 5 -149 7
c-6 -101 -9 -204 -9 -291c0 -112 8 -245 21 -364c53 3 103 5 143 5c6 0 10 -4 10 -10c0 -5 -4 -10 -10 -10c-107 -1 -228 -8 -328 -20zM112 831c0 5 4 9 9 10c106 15 287 22 376 22c6 0 10 -4 10 -10s-4 -10 -10 -10c-216 0 -371 -22 -375 -22c-6 0 -10 4 -10 10z" />
    <glyph glyph-name="Iogonek" unicode="&#x12e;" 
d="M147 -8c-6 0 -10 4 -10 10c0 5 4 9 9 10c50 6 109 11 166 14c-13 117 -21 251 -21 365c0 87 3 190 9 292c-53 1 -101 2 -146 3c-6 0 -10 5 -10 10c0 6 4 10 10 10c123 -2 234 -6 316 -11c5 0 9 -5 9 -10c0 -6 -4 -10 -10 -10c-54 3 -104 5 -149 7
c-6 -101 -9 -204 -9 -291c0 -112 8 -245 21 -364c53 3 103 5 143 5c6 0 10 -4 10 -10c0 -5 -4 -10 -10 -10c-41 0 -84 -2 -127 -4c-70 -37 -119 -90 -119 -128c0 -34 30 -59 69 -59c34 0 75 16 103 41c2 1 4 2 7 2c6 0 10 -4 10 -10c0 -3 -1 -6 -3 -8
c-32 -27 -78 -45 -117 -45c-50 0 -89 34 -89 79c0 39 38 87 96 126c-55 -3 -109 -8 -158 -14z" />
    <glyph glyph-name="Itilde" unicode="&#x128;" 
d="M147 -8c-6 0 -10 4 -10 10c0 5 4 9 9 10c50 6 109 11 166 14c-13 117 -21 251 -21 365c0 87 3 190 9 292c-53 1 -101 2 -146 3c-6 0 -10 5 -10 10c0 6 4 10 10 10c123 -2 234 -6 316 -11c5 0 9 -5 9 -10c0 -6 -4 -10 -10 -10c-54 3 -104 5 -149 7
c-6 -101 -9 -204 -9 -291c0 -112 8 -245 21 -364c53 3 103 5 143 5c6 0 10 -4 10 -10c0 -5 -4 -10 -10 -10c-107 -1 -228 -8 -328 -20zM87 814v2c14 74 67 125 131 125c50 0 80 -30 106 -58c27 -27 50 -51 92 -51c50 0 88 43 97 110c1 5 5 9 10 9c6 0 10 -4 10 -10v-2
c-11 -76 -57 -127 -117 -127c-50 0 -80 30 -106 58c-27 27 -50 51 -92 51c-54 0 -99 -44 -111 -109c-1 -4 -5 -8 -10 -8c-6 0 -10 4 -10 10z" />
    <glyph glyph-name="J" unicode="J" 
d="M336 -54c-117 0 -248 107 -248 204c0 27 8 50 23 66c1 2 4 3 7 3c6 0 10 -4 10 -10c0 -3 -1 -5 -3 -7c-11 -12 -17 -30 -17 -52c0 -86 122 -184 228 -184c54 0 88 72 89 194c1 107 -8 279 -28 517c-70 -3 -142 -7 -205 -13c-6 0 -10 4 -10 10c0 5 4 9 9 10
c105 10 249 15 343 17c6 0 10 -4 10 -10c0 -5 -4 -10 -10 -10c-37 -1 -76 -2 -117 -3c19 -228 29 -406 28 -518c-1 -134 -41 -214 -109 -214z" />
    <glyph glyph-name="Jcircumflex" unicode="&#x134;" 
d="M336 -54c-117 0 -248 107 -248 204c0 27 8 50 23 66c1 2 4 3 7 3c6 0 10 -4 10 -10c0 -3 -1 -5 -3 -7c-11 -12 -17 -30 -17 -52c0 -86 122 -184 228 -184c54 0 88 72 89 194c1 107 -8 279 -28 517c-70 -3 -142 -7 -205 -13c-6 0 -10 4 -10 10c0 5 4 9 9 10
c105 10 249 15 343 17c6 0 10 -4 10 -10c0 -5 -4 -10 -10 -10c-37 -1 -76 -2 -117 -3c19 -228 29 -406 28 -518c-1 -134 -41 -214 -109 -214zM118 815c0 3 2 6 4 8c65 49 130 92 193 131c1 1 3 2 5 2s4 -1 6 -2c70 -46 127 -89 173 -132c2 -2 3 -4 3 -7c0 -6 -4 -10 -10 -10
c-3 0 -5 1 -7 3c-44 41 -97 82 -165 126c-66 -41 -127 -82 -186 -127c-2 -1 -4 -2 -6 -2c-6 0 -10 4 -10 10z" />
    <glyph glyph-name="K" unicode="K" 
d="M148 -6c-5 0 -10 4 -10 9c-5 73 -9 172 -9 229c0 122 9 326 23 467c1 5 5 9 10 9c6 0 10 -4 10 -10c0 -8 -15 -148 -21 -330c149 88 274 198 362 318c2 2 5 4 8 4c6 0 10 -4 10 -10c0 -2 -1 -4 -2 -6c-85 -116 -205 -223 -344 -309c96 -107 246 -257 355 -349
c3 -2 4 -5 4 -8c0 -6 -4 -10 -10 -10c-2 0 -5 1 -6 2c-112 95 -264 247 -361 354l-16 -10c-1 -36 -2 -74 -2 -112c0 -57 4 -155 9 -228c0 -6 -4 -10 -10 -10z" />
    <glyph glyph-name="uni0136" unicode="&#x136;" 
d="M148 -6c-5 0 -10 4 -10 9c-5 73 -9 172 -9 229c0 122 9 326 23 467c1 5 5 9 10 9c6 0 10 -4 10 -10c0 -8 -15 -148 -21 -330c149 88 274 198 362 318c2 2 5 4 8 4c6 0 10 -4 10 -10c0 -2 -1 -4 -2 -6c-85 -116 -205 -223 -344 -309c96 -107 246 -257 355 -349
c3 -2 4 -5 4 -8c0 -6 -4 -10 -10 -10c-2 0 -5 1 -6 2c-112 95 -264 247 -361 354l-16 -10c-1 -36 -2 -74 -2 -112c0 -57 4 -155 9 -228c0 -6 -4 -10 -10 -10zM246 -243c0 2 1 5 2 6c37 44 81 122 93 154c1 4 5 7 9 7c6 0 10 -4 10 -10c0 -1 0 -3 -1 -4
c-12 -34 -58 -115 -95 -159c-2 -3 -5 -4 -8 -4c-6 0 -10 4 -10 10z" />
    <glyph glyph-name="L" unicode="L" 
d="M166 -6c-6 0 -10 4 -10 10c2 61 3 148 3 244c0 314 -8 441 -8 451c0 6 4 10 10 10c5 0 10 -4 10 -10c6 -120 8 -297 8 -451c0 -91 -1 -174 -3 -234c228 2 359 38 366 38c6 0 10 -4 10 -10c0 -5 -3 -9 -8 -10c-111 -25 -240 -38 -378 -38z" />
    <glyph glyph-name="Lacute" unicode="&#x139;" 
d="M166 -6c-6 0 -10 4 -10 10c2 61 3 148 3 244c0 314 -8 441 -8 451c0 6 4 10 10 10c5 0 10 -4 10 -10c6 -120 8 -297 8 -451c0 -91 -1 -174 -3 -234c228 2 359 38 366 38c6 0 10 -4 10 -10c0 -5 -3 -9 -8 -10c-111 -25 -240 -38 -378 -38zM199 795c0 3 2 6 4 8l202 151
c2 1 4 2 6 2c6 0 10 -4 10 -10c0 -3 -2 -6 -4 -8l-202 -151c-2 -1 -4 -2 -6 -2c-6 0 -10 4 -10 10z" />
    <glyph glyph-name="Lcaron" unicode="&#x13d;" 
d="M166 -6c-6 0 -10 4 -10 10c2 61 3 148 3 244c0 314 -8 441 -8 451c0 6 4 10 10 10c5 0 10 -4 10 -10c6 -120 8 -297 8 -451c0 -91 -1 -174 -3 -234c228 2 359 38 366 38c6 0 10 -4 10 -10c0 -5 -3 -9 -8 -10c-111 -25 -240 -38 -378 -38zM390 452c0 2 1 4 2 5
c30 50 47 102 47 148c0 37 -10 67 -29 87c-2 2 -3 4 -3 7c0 6 4 10 10 10c3 0 5 -1 7 -3c23 -24 35 -59 35 -101c0 -51 -18 -106 -50 -158c-2 -3 -5 -5 -9 -5c-6 0 -10 4 -10 10z" />
    <glyph glyph-name="uni013B" unicode="&#x13b;" 
d="M166 -6c-6 0 -10 4 -10 10c2 61 3 148 3 244c0 314 -8 441 -8 451c0 6 4 10 10 10c5 0 10 -4 10 -10c6 -120 8 -297 8 -451c0 -91 -1 -174 -3 -234c228 2 359 38 366 38c6 0 10 -4 10 -10c0 -5 -3 -9 -8 -10c-111 -25 -240 -38 -378 -38zM246 -243c0 2 1 5 2 6
c37 44 81 122 93 154c1 4 5 7 9 7c6 0 10 -4 10 -10c0 -1 0 -3 -1 -4c-12 -34 -58 -115 -95 -159c-2 -3 -5 -4 -8 -4c-6 0 -10 4 -10 10z" />
    <glyph glyph-name="Ldot" unicode="&#x13f;" 
d="M166 -6c-6 0 -10 4 -10 10c2 61 3 148 3 244c0 314 -8 441 -8 451c0 6 4 10 10 10c5 0 10 -4 10 -10c6 -120 8 -297 8 -451c0 -91 -1 -174 -3 -234c228 2 359 38 366 38c6 0 10 -4 10 -10c0 -5 -3 -9 -8 -10c-111 -25 -240 -38 -378 -38zM410 383c0 36 26 62 63 62
c42 0 77 -29 77 -64c0 -29 -18 -54 -55 -66c-6 -2 -11 -3 -16 -3c-40 0 -69 27 -69 71z" />
    <glyph glyph-name="Lslash" unicode="&#x141;" 
d="M166 -6c-6 0 -10 4 -10 10c2 61 3 148 3 244v82c-54 -29 -103 -56 -142 -79c-1 0 -3 -1 -5 -1c-6 0 -10 4 -10 10c0 4 2 7 5 9c41 24 94 54 152 84c-2 238 -8 337 -8 346c0 6 4 10 10 10c5 0 10 -4 10 -10c5 -91 7 -214 8 -336c79 42 166 84 242 118c1 1 3 1 4 1
c6 0 10 -4 10 -10c0 -4 -3 -8 -6 -9c-79 -35 -169 -79 -250 -122v-93c0 -91 -1 -174 -3 -234c228 2 359 38 366 38c6 0 10 -4 10 -10c0 -5 -3 -9 -8 -10c-111 -25 -240 -38 -378 -38z" />
    <glyph glyph-name="M" unicode="M" 
d="M42 -10c-6 0 -10 4 -10 10c8 200 29 488 35 696c0 6 5 10 10 10c4 0 8 -2 9 -6c114 -244 167 -351 212 -473c50 127 156 365 203 485c1 4 5 7 9 7c5 0 9 -4 10 -9c24 -222 66 -659 66 -697c0 -6 -4 -10 -10 -10c-5 0 -10 4 -10 9c-9 133 -23 285 -62 657
c-35 -86 -138 -325 -197 -474c-1 -4 -5 -7 -9 -7s-8 3 -10 7c-35 105 -106 253 -202 459c-6 -148 -28 -513 -34 -654c0 -6 -5 -10 -10 -10z" />
    <glyph glyph-name="N" unicode="N" 
d="M103 -7c-6 0 -10 4 -10 10c0 10 8 183 8 497c0 76 0 144 -2 195c0 6 4 10 10 10c4 0 8 -2 9 -6c101 -218 259 -492 378 -657c5 103 8 223 8 338c0 202 -9 322 -9 326c0 6 4 10 10 10c5 0 10 -4 10 -9c6 -83 9 -202 9 -327c0 -126 -3 -258 -9 -367c0 -5 -5 -9 -10 -9
c-3 0 -6 2 -8 4c-115 153 -270 418 -377 640c1 -43 1 -94 1 -148c0 -182 -4 -403 -8 -497c0 -6 -5 -10 -10 -10z" />
    <glyph glyph-name="Nacute" unicode="&#x143;" 
d="M103 -7c-6 0 -10 4 -10 10c0 10 8 183 8 497c0 76 0 144 -2 195c0 6 4 10 10 10c4 0 8 -2 9 -6c101 -218 259 -492 378 -657c5 103 8 223 8 338c0 202 -9 322 -9 326c0 6 4 10 10 10c5 0 10 -4 10 -9c6 -83 9 -202 9 -327c0 -126 -3 -258 -9 -367c0 -5 -5 -9 -10 -9
c-3 0 -6 2 -8 4c-115 153 -270 418 -377 640c1 -43 1 -94 1 -148c0 -182 -4 -403 -8 -497c0 -6 -5 -10 -10 -10zM199 795c0 3 2 6 4 8l202 151c2 1 4 2 6 2c6 0 10 -4 10 -10c0 -3 -2 -6 -4 -8l-202 -151c-2 -1 -4 -2 -6 -2c-6 0 -10 4 -10 10z" />
    <glyph glyph-name="Ncaron" unicode="&#x147;" 
d="M103 -7c-6 0 -10 4 -10 10c0 10 8 183 8 497c0 76 0 144 -2 195c0 6 4 10 10 10c4 0 8 -2 9 -6c101 -218 259 -492 378 -657c5 103 8 223 8 338c0 202 -9 322 -9 326c0 6 4 10 10 10c5 0 10 -4 10 -9c6 -83 9 -202 9 -327c0 -126 -3 -258 -9 -367c0 -5 -5 -9 -10 -9
c-3 0 -6 2 -8 4c-115 153 -270 418 -377 640c1 -43 1 -94 1 -148c0 -182 -4 -403 -8 -497c0 -6 -5 -10 -10 -10zM118 946c0 6 4 10 10 10c3 0 5 -1 7 -3c44 -41 97 -82 165 -126c66 41 127 82 186 127c2 1 4 2 6 2c6 0 10 -4 10 -10c0 -3 -2 -6 -4 -8
c-65 -49 -130 -92 -193 -131c-1 -1 -3 -2 -5 -2s-4 1 -6 2c-70 46 -127 89 -173 132c-2 2 -3 4 -3 7z" />
    <glyph glyph-name="uni0145" unicode="&#x145;" 
d="M103 -7c-6 0 -10 4 -10 10c0 10 8 183 8 497c0 76 0 144 -2 195c0 6 4 10 10 10c4 0 8 -2 9 -6c101 -218 259 -492 378 -657c5 103 8 223 8 338c0 202 -9 322 -9 326c0 6 4 10 10 10c5 0 10 -4 10 -9c6 -83 9 -202 9 -327c0 -126 -3 -258 -9 -367c0 -5 -5 -9 -10 -9
c-3 0 -6 2 -8 4c-115 153 -270 418 -377 640c1 -43 1 -94 1 -148c0 -182 -4 -403 -8 -497c0 -6 -5 -10 -10 -10zM246 -243c0 2 1 5 2 6c37 44 81 122 93 154c1 4 5 7 9 7c6 0 10 -4 10 -10c0 -1 0 -3 -1 -4c-12 -34 -58 -115 -95 -159c-2 -3 -5 -4 -8 -4c-6 0 -10 4 -10 10z
" />
    <glyph glyph-name="Ntilde" unicode="&#xd1;" 
d="M103 -7c-6 0 -10 4 -10 10c0 10 8 183 8 497c0 76 0 144 -2 195c0 6 4 10 10 10c4 0 8 -2 9 -6c101 -218 259 -492 378 -657c5 103 8 223 8 338c0 202 -9 322 -9 326c0 6 4 10 10 10c5 0 10 -4 10 -9c6 -83 9 -202 9 -327c0 -126 -3 -258 -9 -367c0 -5 -5 -9 -10 -9
c-3 0 -6 2 -8 4c-115 153 -270 418 -377 640c1 -43 1 -94 1 -148c0 -182 -4 -403 -8 -497c0 -6 -5 -10 -10 -10zM87 814v2c14 74 67 125 131 125c50 0 80 -30 106 -58c27 -27 50 -51 92 -51c50 0 88 43 97 110c1 5 5 9 10 9c6 0 10 -4 10 -10v-2c-11 -76 -57 -127 -117 -127
c-50 0 -80 30 -106 58c-27 27 -50 51 -92 51c-54 0 -99 -44 -111 -109c-1 -4 -5 -8 -10 -8c-6 0 -10 4 -10 10z" />
    <glyph glyph-name="Eng" unicode="&#x14a;" 
d="M103 -7c-6 0 -10 4 -10 10c0 10 5 173 8 497c1 126 -2 188 -2 195c0 6 4 10 10 10c4 0 8 -2 9 -6c101 -219 259 -491 378 -656c6 92 8 202 8 310c0 242 -9 344 -9 353c0 6 4 10 10 10c5 0 10 -4 10 -9c6 -88 9 -219 9 -354c0 -109 -2 -220 -8 -314
c-10 -165 -48 -231 -138 -231c-47 0 -95 15 -131 43c-2 2 -4 5 -4 8c0 6 4 10 10 10c2 0 4 -1 6 -2c33 -25 75 -39 119 -39c72 0 105 50 116 184c-115 153 -268 416 -374 636c1 -43 1 -94 1 -148c0 -182 -4 -403 -8 -497c0 -6 -5 -10 -10 -10z" />
    <glyph glyph-name="O" unicode="O" 
d="M288 -6c-138 0 -220 91 -220 244c0 222 90 469 247 469c147 0 235 -94 235 -252c0 -272 -106 -461 -262 -461zM88 238c0 -142 74 -224 200 -224c142 0 242 180 242 441c0 146 -79 232 -215 232c-143 0 -227 -231 -227 -449z" />
    <glyph glyph-name="Oacute" unicode="&#xd3;" 
d="M288 -6c-138 0 -220 91 -220 244c0 222 90 469 247 469c147 0 235 -94 235 -252c0 -272 -106 -461 -262 -461zM88 238c0 -142 74 -224 200 -224c142 0 242 180 242 441c0 146 -79 232 -215 232c-143 0 -227 -231 -227 -449zM199 795c0 3 2 6 4 8l202 151c2 1 4 2 6 2
c6 0 10 -4 10 -10c0 -3 -2 -6 -4 -8l-202 -151c-2 -1 -4 -2 -6 -2c-6 0 -10 4 -10 10z" />
    <glyph glyph-name="Obreve" unicode="&#x14e;" 
d="M288 -6c-138 0 -220 91 -220 244c0 222 90 469 247 469c147 0 235 -94 235 -252c0 -272 -106 -461 -262 -461zM88 238c0 -142 74 -224 200 -224c142 0 242 180 242 441c0 146 -79 232 -215 232c-143 0 -227 -231 -227 -449zM126 936v3c0 6 4 10 10 10c5 0 9 -3 10 -8
c18 -64 88 -109 171 -109c81 0 143 44 157 111c1 5 5 8 10 8c6 0 10 -4 10 -10v-2c-17 -77 -87 -127 -177 -127c-91 0 -170 51 -191 124z" />
    <glyph glyph-name="Ocircumflex" unicode="&#xd4;" 
d="M288 -6c-138 0 -220 91 -220 244c0 222 90 469 247 469c147 0 235 -94 235 -252c0 -272 -106 -461 -262 -461zM88 238c0 -142 74 -224 200 -224c142 0 242 180 242 441c0 146 -79 232 -215 232c-143 0 -227 -231 -227 -449zM118 815c0 3 2 6 4 8c65 49 130 92 193 131
c1 1 3 2 5 2s4 -1 6 -2c70 -46 127 -89 173 -132c2 -2 3 -4 3 -7c0 -6 -4 -10 -10 -10c-3 0 -5 1 -7 3c-44 41 -97 82 -165 126c-66 -41 -127 -82 -186 -127c-2 -1 -4 -2 -6 -2c-6 0 -10 4 -10 10z" />
    <glyph glyph-name="Odieresis" unicode="&#xd6;" 
d="M288 -6c-138 0 -220 91 -220 244c0 222 90 469 247 469c147 0 235 -94 235 -252c0 -272 -106 -461 -262 -461zM88 238c0 -142 74 -224 200 -224c142 0 242 180 242 441c0 146 -79 232 -215 232c-143 0 -227 -231 -227 -449zM199 869c0 9 1 17 3 27c1 5 5 8 10 8
c6 0 10 -4 10 -10c0 -4 -3 -15 -3 -25c0 -21 6 -43 6 -48c0 -6 -4 -10 -10 -10c-5 0 -9 4 -10 8c-4 20 -6 36 -6 50zM398 832c0 5 2 10 2 32c0 30 -1 38 -1 42c0 6 4 10 10 10c5 0 10 -4 10 -10c1 -10 1 -27 1 -42s0 -27 -2 -34c-1 -5 -5 -8 -10 -8c-6 0 -10 4 -10 10z" />
    <glyph glyph-name="Ograve" unicode="&#xd2;" 
d="M288 -6c-138 0 -220 91 -220 244c0 222 90 469 247 469c147 0 235 -94 235 -252c0 -272 -106 -461 -262 -461zM88 238c0 -142 74 -224 200 -224c142 0 242 180 242 441c0 146 -79 232 -215 232c-143 0 -227 -231 -227 -449zM199 946c0 6 4 10 10 10c2 0 4 -1 6 -2
l202 -151c2 -2 4 -5 4 -8c0 -6 -4 -10 -10 -10c-2 0 -4 1 -6 2l-202 151c-2 2 -4 5 -4 8z" />
    <glyph glyph-name="Ohungarumlaut" unicode="&#x150;" 
d="M288 -6c-138 0 -220 91 -220 244c0 222 90 469 247 469c147 0 235 -94 235 -252c0 -272 -106 -461 -262 -461zM88 238c0 -142 74 -224 200 -224c142 0 242 180 242 441c0 146 -79 232 -215 232c-143 0 -227 -231 -227 -449zM179 815c0 2 1 5 2 7c48 55 96 106 143 151
c2 2 4 3 7 3c6 0 10 -4 10 -10c0 -3 -1 -5 -3 -7c-46 -44 -93 -94 -141 -151c-2 -2 -5 -3 -8 -3c-6 0 -10 4 -10 10zM379 815c0 2 1 5 2 7c48 55 96 106 143 151c2 2 4 3 7 3c6 0 10 -4 10 -10c0 -3 -1 -5 -3 -7c-46 -44 -93 -94 -141 -151c-2 -2 -5 -3 -8 -3
c-6 0 -10 4 -10 10z" />
    <glyph glyph-name="Omacron" unicode="&#x14c;" 
d="M288 -6c-138 0 -220 91 -220 244c0 222 90 469 247 469c147 0 235 -94 235 -252c0 -272 -106 -461 -262 -461zM88 238c0 -142 74 -224 200 -224c142 0 242 180 242 441c0 146 -79 232 -215 232c-143 0 -227 -231 -227 -449zM112 831c0 5 4 9 9 10c106 15 287 22 376 22
c6 0 10 -4 10 -10s-4 -10 -10 -10c-216 0 -371 -22 -375 -22c-6 0 -10 4 -10 10z" />
    <glyph glyph-name="Oslash" unicode="&#xd8;" 
d="M288 -6c-72 0 -128 25 -166 70c-18 -29 -35 -56 -50 -82c-2 -3 -5 -5 -9 -5c-6 0 -10 4 -10 10c0 2 1 4 1 5c17 28 35 58 55 89c-27 40 -41 93 -41 157c0 222 90 469 247 469c77 0 137 -26 178 -72c24 30 45 58 64 81c2 3 5 4 8 4c6 0 10 -4 10 -10c0 -2 -1 -5 -2 -6
c-20 -25 -43 -54 -68 -85c29 -42 45 -97 45 -164c0 -272 -106 -461 -262 -461zM88 238c0 -56 11 -102 33 -138c107 169 250 375 359 518c-37 45 -93 69 -165 69c-143 0 -227 -231 -227 -449zM133 82c35 -44 87 -68 155 -68c142 0 242 180 242 441c0 59 -13 109 -38 146
c-110 -145 -251 -350 -359 -519z" />
    <glyph glyph-name="Oslashacute" unicode="&#x1fe;" 
d="M288 -6c-72 0 -128 25 -166 70c-18 -29 -35 -56 -50 -82c-2 -3 -5 -5 -9 -5c-6 0 -10 4 -10 10c0 2 1 4 1 5c17 28 35 58 55 89c-27 40 -41 93 -41 157c0 222 90 469 247 469c77 0 137 -26 178 -72c24 30 45 58 64 81c2 3 5 4 8 4c6 0 10 -4 10 -10c0 -2 -1 -5 -2 -6
c-20 -25 -43 -54 -68 -85c29 -42 45 -97 45 -164c0 -272 -106 -461 -262 -461zM88 238c0 -56 11 -102 33 -138c107 169 250 375 359 518c-37 45 -93 69 -165 69c-143 0 -227 -231 -227 -449zM133 82c35 -44 87 -68 155 -68c142 0 242 180 242 441c0 59 -13 109 -38 146
c-110 -145 -251 -350 -359 -519zM199 795c0 3 2 6 4 8l202 151c2 1 4 2 6 2c6 0 10 -4 10 -10c0 -3 -2 -6 -4 -8l-202 -151c-2 -1 -4 -2 -6 -2c-6 0 -10 4 -10 10z" />
    <glyph glyph-name="Otilde" unicode="&#xd5;" 
d="M288 -6c-138 0 -220 91 -220 244c0 222 90 469 247 469c147 0 235 -94 235 -252c0 -272 -106 -461 -262 -461zM87 814v2c14 74 67 125 131 125c50 0 80 -30 106 -58c27 -27 50 -51 92 -51c50 0 88 43 97 110c1 5 5 9 10 9c6 0 10 -4 10 -10v-2
c-11 -76 -57 -127 -117 -127c-50 0 -80 30 -106 58c-27 27 -50 51 -92 51c-54 0 -99 -44 -111 -109c-1 -4 -5 -8 -10 -8c-6 0 -10 4 -10 10zM88 238c0 -142 74 -224 200 -224c142 0 242 180 242 441c0 146 -79 232 -215 232c-143 0 -227 -231 -227 -449z" />
    <glyph glyph-name="OE" unicode="&#x152;" 
d="M312 -6c-169 0 -262 118 -262 330c0 255 99 383 296 383c71 0 168 -7 232 -16c5 -1 9 -5 9 -10c0 -6 -4 -10 -10 -10c-4 0 -113 16 -230 16c-6 -83 -11 -201 -16 -320c111 1 203 17 206 17c6 0 10 -4 10 -10c0 -5 -4 -9 -8 -10c-62 -11 -142 -16 -208 -17
c-5 -126 -8 -251 -8 -333c137 2 256 40 266 40c6 0 10 -4 10 -10c0 -5 -3 -9 -8 -10c-105 -27 -195 -40 -279 -40zM70 324c0 -197 82 -306 233 -310c0 163 12 494 24 673c-173 -8 -257 -127 -257 -363z" />
    <glyph glyph-name="P" unicode="P" 
d="M149 -16c-5 0 -10 4 -10 10c-3 124 -9 397 -9 530c0 58 1 112 2 161c0 5 3 9 8 10c29 7 61 11 96 11c155 0 284 -102 284 -226c0 -127 -123 -217 -293 -217c-26 0 -51 2 -74 6l6 -275c0 -6 -4 -10 -10 -10zM150 524c0 -79 1 -160 3 -235c22 -4 47 -6 74 -6
c159 0 273 82 273 197c0 112 -120 206 -264 206c-31 0 -59 -3 -84 -9c-1 -49 -2 -101 -2 -153z" />
    <glyph glyph-name="Thorn" unicode="&#xde;" 
d="M227 123c-24 0 -48 1 -71 5c2 -69 3 -121 3 -132c0 -6 -4 -10 -10 -10c-5 0 -10 4 -10 10c0 32 -9 400 -9 544c0 60 1 115 2 165c0 6 5 10 10 10c6 0 10 -4 10 -10c-1 -41 -2 -84 -2 -128c26 6 55 9 86 9c155 0 284 -107 284 -236c0 -133 -123 -227 -293 -227zM150 540
c0 -91 3 -264 6 -392c22 -3 45 -5 71 -5c160 0 273 86 273 207c0 118 -120 216 -264 216c-32 0 -60 -4 -86 -10v-16z" />
    <glyph glyph-name="Q" unicode="Q" 
d="M302 -6c-153 0 -234 117 -234 335c0 221 103 378 251 378c136 0 233 -129 233 -307c0 -118 -47 -255 -119 -336c55 -61 114 -114 173 -148c3 -2 5 -5 5 -9c0 -6 -4 -10 -10 -10c-2 0 -3 0 -5 1c-60 35 -121 89 -177 151c-35 -34 -75 -55 -117 -55zM88 329
c0 -207 74 -315 214 -315c36 0 72 19 104 50c-49 57 -93 118 -130 177c-1 2 -2 3 -2 5c0 6 4 10 10 10c4 0 7 -2 9 -5c36 -57 79 -117 127 -172c64 73 112 197 112 321c0 168 -89 287 -213 287c-135 0 -231 -147 -231 -358z" />
    <glyph glyph-name="R" unicode="R" 
d="M547 -37c-3 0 -5 1 -7 3c-105 96 -250 205 -387 284c-3 2 -5 5 -5 9c0 5 4 10 10 10c229 6 347 76 347 204c0 122 -113 193 -343 215c-23 -232 -39 -499 -39 -652c0 -17 1 -32 1 -46c0 -6 -4 -10 -10 -10c-5 0 -10 4 -10 10c0 14 -1 29 -1 46c0 156 17 428 40 664
c1 6 6 9 11 9c246 -21 371 -100 371 -236c0 -134 -115 -210 -333 -223c129 -78 263 -179 362 -270c2 -1 3 -4 3 -7c0 -6 -4 -10 -10 -10z" />
    <glyph glyph-name="Racute" unicode="&#x154;" 
d="M547 -37c-3 0 -5 1 -7 3c-105 96 -250 205 -387 284c-3 2 -5 5 -5 9c0 5 4 10 10 10c229 6 347 76 347 204c0 122 -113 193 -343 215c-23 -232 -39 -499 -39 -652c0 -17 1 -32 1 -46c0 -6 -4 -10 -10 -10c-5 0 -10 4 -10 10c0 14 -1 29 -1 46c0 156 17 428 40 664
c1 6 6 9 11 9c246 -21 371 -100 371 -236c0 -134 -115 -210 -333 -223c129 -78 263 -179 362 -270c2 -1 3 -4 3 -7c0 -6 -4 -10 -10 -10zM199 795c0 3 2 6 4 8l202 151c2 1 4 2 6 2c6 0 10 -4 10 -10c0 -3 -2 -6 -4 -8l-202 -151c-2 -1 -4 -2 -6 -2c-6 0 -10 4 -10 10z" />
    <glyph glyph-name="Rcaron" unicode="&#x158;" 
d="M547 -37c-3 0 -5 1 -7 3c-105 96 -250 205 -387 284c-3 2 -5 5 -5 9c0 5 4 10 10 10c229 6 347 76 347 204c0 122 -113 193 -343 215c-23 -232 -39 -499 -39 -652c0 -17 1 -32 1 -46c0 -6 -4 -10 -10 -10c-5 0 -10 4 -10 10c0 14 -1 29 -1 46c0 156 17 428 40 664
c1 6 6 9 11 9c246 -21 371 -100 371 -236c0 -134 -115 -210 -333 -223c129 -78 263 -179 362 -270c2 -1 3 -4 3 -7c0 -6 -4 -10 -10 -10zM118 946c0 6 4 10 10 10c3 0 5 -1 7 -3c44 -41 97 -82 165 -126c66 41 127 82 186 127c2 1 4 2 6 2c6 0 10 -4 10 -10
c0 -3 -2 -6 -4 -8c-65 -49 -130 -92 -193 -131c-1 -1 -3 -2 -5 -2s-4 1 -6 2c-70 46 -127 89 -173 132c-2 2 -3 4 -3 7z" />
    <glyph glyph-name="uni0156" unicode="&#x156;" 
d="M547 -37c-3 0 -5 1 -7 3c-105 96 -250 205 -387 284c-3 2 -5 5 -5 9c0 5 4 10 10 10c229 6 347 76 347 204c0 122 -113 193 -343 215c-23 -232 -39 -499 -39 -652c0 -17 1 -32 1 -46c0 -6 -4 -10 -10 -10c-5 0 -10 4 -10 10c0 14 -1 29 -1 46c0 156 17 428 40 664
c1 6 6 9 11 9c246 -21 371 -100 371 -236c0 -134 -115 -210 -333 -223c129 -78 263 -179 362 -270c2 -1 3 -4 3 -7c0 -6 -4 -10 -10 -10zM246 -243c0 2 1 5 2 6c37 44 81 122 93 154c1 4 5 7 9 7c6 0 10 -4 10 -10c0 -1 0 -3 -1 -4c-12 -34 -58 -115 -95 -159
c-2 -3 -5 -4 -8 -4c-6 0 -10 4 -10 10z" />
    <glyph glyph-name="S" unicode="S" 
d="M293 -5c-97 0 -160 23 -220 81c-2 2 -3 4 -3 7c0 6 4 10 10 10c3 0 5 -1 7 -3c56 -54 114 -75 206 -75c128 0 221 88 221 206c0 96 -62 137 -222 146c-125 6 -177 45 -177 136c0 122 86 201 217 201c70 0 122 -10 173 -35c4 -2 6 -5 6 -9c0 -6 -4 -10 -10 -10
c-10 0 -51 34 -169 34c-120 0 -197 -70 -197 -181c0 -79 43 -111 158 -116c170 -9 241 -58 241 -166c0 -129 -102 -226 -241 -226z" />
    <glyph glyph-name="Sacute" unicode="&#x15a;" 
d="M293 -5c-97 0 -160 23 -220 81c-2 2 -3 4 -3 7c0 6 4 10 10 10c3 0 5 -1 7 -3c56 -54 114 -75 206 -75c128 0 221 88 221 206c0 96 -62 137 -222 146c-125 6 -177 45 -177 136c0 122 86 201 217 201c70 0 122 -10 173 -35c4 -2 6 -5 6 -9c0 -6 -4 -10 -10 -10
c-10 0 -51 34 -169 34c-120 0 -197 -70 -197 -181c0 -79 43 -111 158 -116c170 -9 241 -58 241 -166c0 -129 -102 -226 -241 -226zM199 795c0 3 2 6 4 8l202 151c2 1 4 2 6 2c6 0 10 -4 10 -10c0 -3 -2 -6 -4 -8l-202 -151c-2 -1 -4 -2 -6 -2c-6 0 -10 4 -10 10z" />
    <glyph glyph-name="Scaron" unicode="&#x160;" 
d="M293 -5c-97 0 -160 23 -220 81c-2 2 -3 4 -3 7c0 6 4 10 10 10c3 0 5 -1 7 -3c56 -54 114 -75 206 -75c128 0 221 88 221 206c0 96 -62 137 -222 146c-125 6 -177 45 -177 136c0 122 86 201 217 201c70 0 122 -10 173 -35c4 -2 6 -5 6 -9c0 -6 -4 -10 -10 -10
c-10 0 -51 34 -169 34c-120 0 -197 -70 -197 -181c0 -79 43 -111 158 -116c170 -9 241 -58 241 -166c0 -129 -102 -226 -241 -226zM118 946c0 6 4 10 10 10c3 0 5 -1 7 -3c44 -41 97 -82 165 -126c66 41 127 82 186 127c2 1 4 2 6 2c6 0 10 -4 10 -10c0 -3 -2 -6 -4 -8
c-65 -49 -130 -92 -193 -131c-1 -1 -3 -2 -5 -2s-4 1 -6 2c-70 46 -127 89 -173 132c-2 2 -3 4 -3 7z" />
    <glyph glyph-name="Scedilla" unicode="&#x15e;" 
d="M248 -227c-8 0 -15 0 -22 1c-5 0 -9 5 -9 10c0 6 4 10 11 10c2 0 10 -1 20 -1c78 0 135 40 135 92c0 53 -34 86 -94 98c-5 1 -9 5 -9 10v2c-90 2 -150 26 -207 81c-2 2 -3 4 -3 7c0 6 4 10 10 10c3 0 5 -1 7 -3c56 -54 114 -75 206 -75c128 0 221 88 221 206
c0 96 -62 137 -222 146c-125 6 -177 45 -177 136c0 122 86 201 217 201c70 0 122 -10 173 -35c4 -2 6 -5 6 -9c0 -6 -4 -10 -10 -10c-10 0 -51 34 -169 34c-120 0 -197 -70 -197 -181c0 -79 43 -111 158 -116c170 -9 241 -58 241 -166c0 -120 -89 -213 -214 -225
c53 -17 83 -57 83 -111c0 -65 -67 -112 -155 -112z" />
    <glyph glyph-name="Scircumflex" unicode="&#x15c;" 
d="M293 -5c-97 0 -160 23 -220 81c-2 2 -3 4 -3 7c0 6 4 10 10 10c3 0 5 -1 7 -3c56 -54 114 -75 206 -75c128 0 221 88 221 206c0 96 -62 137 -222 146c-125 6 -177 45 -177 136c0 122 86 201 217 201c70 0 122 -10 173 -35c4 -2 6 -5 6 -9c0 -6 -4 -10 -10 -10
c-10 0 -51 34 -169 34c-120 0 -197 -70 -197 -181c0 -79 43 -111 158 -116c170 -9 241 -58 241 -166c0 -129 -102 -226 -241 -226zM118 815c0 3 2 6 4 8c65 49 130 92 193 131c1 1 3 2 5 2s4 -1 6 -2c70 -46 127 -89 173 -132c2 -2 3 -4 3 -7c0 -6 -4 -10 -10 -10
c-3 0 -5 1 -7 3c-44 41 -97 82 -165 126c-66 -41 -127 -82 -186 -127c-2 -1 -4 -2 -6 -2c-6 0 -10 4 -10 10z" />
    <glyph glyph-name="uni0218" unicode="&#x218;" 
d="M293 -5c-97 0 -160 23 -220 81c-2 2 -3 4 -3 7c0 6 4 10 10 10c3 0 5 -1 7 -3c56 -54 114 -75 206 -75c128 0 221 88 221 206c0 96 -62 137 -222 146c-125 6 -177 45 -177 136c0 122 86 201 217 201c70 0 122 -10 173 -35c4 -2 6 -5 6 -9c0 -6 -4 -10 -10 -10
c-10 0 -51 34 -169 34c-120 0 -197 -70 -197 -181c0 -79 43 -111 158 -116c170 -9 241 -58 241 -166c0 -129 -102 -226 -241 -226zM246 -243c0 2 1 5 2 6c37 44 81 122 93 154c1 4 5 7 9 7c6 0 10 -4 10 -10c0 -1 0 -3 -1 -4c-12 -34 -58 -115 -95 -159c-2 -3 -5 -4 -8 -4
c-6 0 -10 4 -10 10z" />
    <glyph glyph-name="uni1E9E" unicode="&#x1e9e;" 
d="M299 -17c-6 0 -10 4 -10 10c0 5 4 9 9 10c155 17 241 86 241 192c0 96 -64 159 -190 186c-5 1 -8 5 -8 10c0 2 1 4 2 6c59 83 126 207 166 289c-94 -8 -217 -11 -328 -11h-57c3 -112 4 -224 4 -328c0 -130 -2 -250 -6 -347c0 -6 -5 -10 -10 -10c-6 0 -10 4 -10 10
c4 97 6 217 6 347c0 106 -1 217 -4 328l-34 1c-6 0 -10 5 -10 10c0 6 4 10 10 10c34 -1 71 -1 111 -1c220 0 336 13 344 13c6 0 10 -4 10 -10c0 -2 0 -3 -1 -4c-36 -79 -105 -207 -166 -297c125 -30 191 -100 191 -202c0 -118 -94 -194 -259 -212h-1z" />
    <glyph glyph-name="uni018F" unicode="&#x18f;" 
d="M260 -7c-123 0 -202 103 -202 260c0 60 27 93 85 104c81 17 234 43 377 61c-9 173 -88 272 -216 272c-85 0 -156 -32 -232 -104c-2 -2 -4 -3 -7 -3c-6 0 -10 4 -10 10c0 3 1 5 3 7c80 76 155 110 246 110c148 0 237 -123 237 -326c0 -248 -102 -391 -281 -391zM78 253
c0 -147 71 -240 182 -240c167 0 261 134 261 371v14c-142 -18 -293 -44 -374 -61c-49 -9 -69 -33 -69 -84z" />
    <glyph glyph-name="T" unicode="T" 
d="M320 -10c-6 0 -10 4 -10 10c0 165 -10 479 -22 673c-40 -1 -79 -1 -117 -1c-41 0 -81 0 -119 1c-6 0 -10 5 -10 10c0 6 4 10 10 10c38 -1 77 -1 119 -1c233 0 387 13 393 13s10 -4 10 -10c0 -5 -4 -10 -9 -10c-79 -6 -168 -10 -257 -12c12 -195 22 -508 22 -673
c0 -6 -4 -10 -10 -10z" />
    <glyph glyph-name="Tbar" unicode="&#x166;" 
d="M320 -10c-6 0 -10 4 -10 10c0 86 -3 213 -7 342c-74 -6 -120 -14 -125 -14c-6 0 -10 4 -10 10c0 5 4 9 9 10c41 6 83 10 125 14c-4 112 -9 224 -14 311c-40 -1 -79 -1 -117 -1c-41 0 -81 0 -119 1c-6 0 -10 5 -10 10c0 6 4 10 10 10c38 -1 77 -1 119 -1
c233 0 387 13 393 13s10 -4 10 -10c0 -5 -4 -10 -9 -10c-79 -6 -168 -10 -257 -12c5 -87 10 -198 14 -309c47 4 93 7 139 8c6 0 10 -4 10 -10c0 -5 -4 -10 -10 -10c-52 -2 -98 -5 -138 -8c4 -130 7 -257 7 -344c0 -6 -4 -10 -10 -10z" />
    <glyph glyph-name="Tcaron" unicode="&#x164;" 
d="M320 -10c-6 0 -10 4 -10 10c0 165 -10 479 -22 673c-40 -1 -79 -1 -117 -1c-41 0 -81 0 -119 1c-6 0 -10 5 -10 10c0 6 4 10 10 10c38 -1 77 -1 119 -1c233 0 387 13 393 13s10 -4 10 -10c0 -5 -4 -10 -9 -10c-79 -6 -168 -10 -257 -12c12 -195 22 -508 22 -673
c0 -6 -4 -10 -10 -10zM118 946c0 6 4 10 10 10c3 0 5 -1 7 -3c44 -41 97 -82 165 -126c66 41 127 82 186 127c2 1 4 2 6 2c6 0 10 -4 10 -10c0 -3 -2 -6 -4 -8c-65 -49 -130 -92 -193 -131c-1 -1 -3 -2 -5 -2s-4 1 -6 2c-70 46 -127 89 -173 132c-2 2 -3 4 -3 7z" />
    <glyph glyph-name="uni0162" unicode="&#x162;" 
d="M171 672c-41 0 -81 0 -119 1c-6 0 -10 5 -10 10c0 6 4 10 10 10c38 -1 77 -1 119 -1c233 0 387 13 393 13s10 -4 10 -10c0 -5 -4 -10 -9 -10c-79 -6 -168 -10 -257 -12c12 -195 22 -508 22 -673c0 -3 -1 -5 -2 -6c48 -19 75 -58 75 -109c0 -65 -67 -112 -155 -112
c-8 0 -15 0 -22 1c-5 0 -9 5 -9 10c0 6 4 10 11 10c2 0 10 -1 20 -1c78 0 135 40 135 92c0 53 -34 86 -94 98c-5 1 -9 5 -9 10c0 6 4 10 10 10h2c6 -1 12 -2 18 -4v1c0 165 -10 479 -22 673c-40 -1 -79 -1 -117 -1z" />
    <glyph glyph-name="uni021A" unicode="&#x21a;" 
d="M320 -10c-6 0 -10 4 -10 10c0 165 -10 479 -22 673c-40 -1 -79 -1 -117 -1c-41 0 -81 0 -119 1c-6 0 -10 5 -10 10c0 6 4 10 10 10c38 -1 77 -1 119 -1c233 0 387 13 393 13s10 -4 10 -10c0 -5 -4 -10 -9 -10c-79 -6 -168 -10 -257 -12c12 -195 22 -508 22 -673
c0 -6 -4 -10 -10 -10zM246 -243c0 2 1 5 2 6c37 44 81 122 93 154c1 4 5 7 9 7c6 0 10 -4 10 -10c0 -1 0 -3 -1 -4c-12 -34 -58 -115 -95 -159c-2 -3 -5 -4 -8 -4c-6 0 -10 4 -10 10z" />
    <glyph glyph-name="U" unicode="U" 
d="M308 -4c-140 0 -219 93 -219 255c0 107 9 284 20 435c0 5 5 9 10 9c6 0 10 -4 10 -10c0 -2 -20 -273 -20 -434c0 -151 71 -235 199 -235c141 0 211 91 211 276c0 196 -26 401 -26 407s4 10 10 10c5 0 9 -4 10 -9c14 -118 26 -287 26 -408c0 -196 -78 -296 -231 -296z" />
    <glyph glyph-name="Uacute" unicode="&#xda;" 
d="M308 -4c-140 0 -219 93 -219 255c0 107 9 284 20 435c0 5 5 9 10 9c6 0 10 -4 10 -10c0 -2 -20 -273 -20 -434c0 -151 71 -235 199 -235c141 0 211 91 211 276c0 196 -26 401 -26 407s4 10 10 10c5 0 9 -4 10 -9c14 -118 26 -287 26 -408c0 -196 -78 -296 -231 -296z
M199 795c0 3 2 6 4 8l202 151c2 1 4 2 6 2c6 0 10 -4 10 -10c0 -3 -2 -6 -4 -8l-202 -151c-2 -1 -4 -2 -6 -2c-6 0 -10 4 -10 10z" />
    <glyph glyph-name="Ubreve" unicode="&#x16c;" 
d="M308 -4c-140 0 -219 93 -219 255c0 107 9 284 20 435c0 5 5 9 10 9c6 0 10 -4 10 -10c0 -2 -20 -273 -20 -434c0 -151 71 -235 199 -235c141 0 211 91 211 276c0 196 -26 401 -26 407s4 10 10 10c5 0 9 -4 10 -9c14 -118 26 -287 26 -408c0 -196 -78 -296 -231 -296z
M126 936v3c0 6 4 10 10 10c5 0 9 -3 10 -8c18 -64 88 -109 171 -109c81 0 143 44 157 111c1 5 5 8 10 8c6 0 10 -4 10 -10v-2c-17 -77 -87 -127 -177 -127c-91 0 -170 51 -191 124z" />
    <glyph glyph-name="Ucircumflex" unicode="&#xdb;" 
d="M308 -4c-140 0 -219 93 -219 255c0 107 9 284 20 435c0 5 5 9 10 9c6 0 10 -4 10 -10c0 -2 -20 -273 -20 -434c0 -151 71 -235 199 -235c141 0 211 91 211 276c0 196 -26 401 -26 407s4 10 10 10c5 0 9 -4 10 -9c14 -118 26 -287 26 -408c0 -196 -78 -296 -231 -296z
M118 815c0 3 2 6 4 8c65 49 130 92 193 131c1 1 3 2 5 2s4 -1 6 -2c70 -46 127 -89 173 -132c2 -2 3 -4 3 -7c0 -6 -4 -10 -10 -10c-3 0 -5 1 -7 3c-44 41 -97 82 -165 126c-66 -41 -127 -82 -186 -127c-2 -1 -4 -2 -6 -2c-6 0 -10 4 -10 10z" />
    <glyph glyph-name="Udieresis" unicode="&#xdc;" 
d="M308 -4c-140 0 -219 93 -219 255c0 107 9 284 20 435c0 5 5 9 10 9c6 0 10 -4 10 -10c0 -2 -20 -273 -20 -434c0 -151 71 -235 199 -235c141 0 211 91 211 276c0 196 -26 401 -26 407s4 10 10 10c5 0 9 -4 10 -9c14 -118 26 -287 26 -408c0 -196 -78 -296 -231 -296z
M199 869c0 9 1 17 3 27c1 5 5 8 10 8c6 0 10 -4 10 -10c0 -4 -3 -15 -3 -25c0 -21 6 -43 6 -48c0 -6 -4 -10 -10 -10c-5 0 -9 4 -10 8c-4 20 -6 36 -6 50zM398 832c0 5 2 10 2 32c0 30 -1 38 -1 42c0 6 4 10 10 10c5 0 10 -4 10 -10c1 -10 1 -27 1 -42s0 -27 -2 -34
c-1 -5 -5 -8 -10 -8c-6 0 -10 4 -10 10z" />
    <glyph glyph-name="Ugrave" unicode="&#xd9;" 
d="M308 -4c-140 0 -219 93 -219 255c0 107 9 284 20 435c0 5 5 9 10 9c6 0 10 -4 10 -10c0 -2 -20 -273 -20 -434c0 -151 71 -235 199 -235c141 0 211 91 211 276c0 196 -26 401 -26 407s4 10 10 10c5 0 9 -4 10 -9c14 -118 26 -287 26 -408c0 -196 -78 -296 -231 -296z
M199 946c0 6 4 10 10 10c2 0 4 -1 6 -2l202 -151c2 -2 4 -5 4 -8c0 -6 -4 -10 -10 -10c-2 0 -4 1 -6 2l-202 151c-2 2 -4 5 -4 8z" />
    <glyph glyph-name="Uhungarumlaut" unicode="&#x170;" 
d="M308 -4c-140 0 -219 93 -219 255c0 107 9 284 20 435c0 5 5 9 10 9c6 0 10 -4 10 -10c0 -2 -20 -273 -20 -434c0 -151 71 -235 199 -235c141 0 211 91 211 276c0 196 -26 401 -26 407s4 10 10 10c5 0 9 -4 10 -9c14 -118 26 -287 26 -408c0 -196 -78 -296 -231 -296z
M179 815c0 2 1 5 2 7c48 55 96 106 143 151c2 2 4 3 7 3c6 0 10 -4 10 -10c0 -3 -1 -5 -3 -7c-46 -44 -93 -94 -141 -151c-2 -2 -5 -3 -8 -3c-6 0 -10 4 -10 10zM379 815c0 2 1 5 2 7c48 55 96 106 143 151c2 2 4 3 7 3c6 0 10 -4 10 -10c0 -3 -1 -5 -3 -7
c-46 -44 -93 -94 -141 -151c-2 -2 -5 -3 -8 -3c-6 0 -10 4 -10 10z" />
    <glyph glyph-name="Umacron" unicode="&#x16a;" 
d="M308 -4c-140 0 -219 93 -219 255c0 107 9 284 20 435c0 5 5 9 10 9c6 0 10 -4 10 -10c0 -2 -20 -273 -20 -434c0 -151 71 -235 199 -235c141 0 211 91 211 276c0 196 -26 401 -26 407s4 10 10 10c5 0 9 -4 10 -9c14 -118 26 -287 26 -408c0 -196 -78 -296 -231 -296z
M112 831c0 5 4 9 9 10c106 15 287 22 376 22c6 0 10 -4 10 -10s-4 -10 -10 -10c-216 0 -371 -22 -375 -22c-6 0 -10 4 -10 10z" />
    <glyph glyph-name="Uogonek" unicode="&#x172;" 
d="M308 -4c-140 0 -219 93 -219 255c0 107 9 284 20 435c0 5 5 9 10 9c6 0 10 -4 10 -10c0 -2 -20 -273 -20 -434c0 -151 71 -235 199 -235c141 0 211 91 211 276c0 196 -26 401 -26 407s4 10 10 10c5 0 9 -4 10 -9c14 -118 26 -287 26 -408c0 -151 -47 -246 -138 -281h-1
c-70 -37 -119 -90 -119 -128c0 -34 30 -59 69 -59c34 0 75 16 103 41c2 1 4 2 7 2c6 0 10 -4 10 -10c0 -3 -1 -6 -3 -8c-32 -27 -78 -45 -117 -45c-50 0 -89 34 -89 79c0 35 31 78 80 115c-10 -1 -21 -2 -33 -2z" />
    <glyph glyph-name="Uring" unicode="&#x16e;" 
d="M308 -4c-140 0 -219 93 -219 255c0 107 9 284 20 435c0 5 5 9 10 9c6 0 10 -4 10 -10c0 -2 -20 -273 -20 -434c0 -151 71 -235 199 -235c141 0 211 91 211 276c0 196 -26 401 -26 407s4 10 10 10c5 0 9 -4 10 -9c14 -118 26 -287 26 -408c0 -196 -78 -296 -231 -296z
M192 908c0 67 55 125 117 125c58 0 118 -58 118 -115c0 -64 -52 -121 -112 -121c-74 0 -123 44 -123 111zM212 908c0 -56 40 -91 103 -91c48 0 92 48 92 101c0 46 -51 95 -98 95c-51 0 -97 -49 -97 -105z" />
    <glyph glyph-name="Utilde" unicode="&#x168;" 
d="M308 -4c-140 0 -219 93 -219 255c0 107 9 284 20 435c0 5 5 9 10 9c6 0 10 -4 10 -10c0 -2 -20 -273 -20 -434c0 -151 71 -235 199 -235c141 0 211 91 211 276c0 196 -26 401 -26 407s4 10 10 10c5 0 9 -4 10 -9c14 -118 26 -287 26 -408c0 -196 -78 -296 -231 -296z
M87 814v2c14 74 67 125 131 125c50 0 80 -30 106 -58c27 -27 50 -51 92 -51c50 0 88 43 97 110c1 5 5 9 10 9c6 0 10 -4 10 -10v-2c-11 -76 -57 -127 -117 -127c-50 0 -80 30 -106 58c-27 27 -50 51 -92 51c-54 0 -99 -44 -111 -109c-1 -4 -5 -8 -10 -8c-6 0 -10 4 -10 10z
" />
    <glyph glyph-name="V" unicode="V" 
d="M295 -19c-4 0 -8 2 -10 6c-79 167 -186 476 -233 691c-1 4 -1 5 -1 6c0 6 4 10 10 10c5 0 9 -3 10 -8c45 -207 144 -496 221 -667c79 261 173 518 253 692c1 4 5 6 9 6c6 0 10 -4 10 -10c0 -2 0 -3 -1 -4c-83 -182 -181 -451 -259 -715c-1 -4 -4 -7 -9 -7z" />
    <glyph glyph-name="W" unicode="W" 
d="M184 -22c-5 0 -9 3 -10 8c-76 341 -119 539 -141 683v2c0 6 4 10 10 10c5 0 9 -4 10 -9c20 -136 67 -352 131 -641c18 74 101 391 125 501c1 5 5 8 10 8s9 -3 10 -8c17 -77 50 -193 135 -483c19 121 82 481 105 655c1 5 5 9 10 9c6 0 10 -4 10 -10
c-1 -48 -77 -471 -112 -704c-1 -5 -5 -9 -10 -9s-9 3 -10 7c-11 42 -113 389 -138 488c-21 -91 -108 -425 -125 -499c-1 -5 -5 -8 -10 -8z" />
    <glyph glyph-name="Wacute" unicode="&#x1e82;" 
d="M184 -22c-5 0 -9 3 -10 8c-76 341 -119 539 -141 683v2c0 6 4 10 10 10c5 0 9 -4 10 -9c20 -136 67 -352 131 -641c18 74 101 391 125 501c1 5 5 8 10 8s9 -3 10 -8c17 -77 50 -193 135 -483c19 121 82 481 105 655c1 5 5 9 10 9c6 0 10 -4 10 -10
c-1 -48 -77 -471 -112 -704c-1 -5 -5 -9 -10 -9s-9 3 -10 7c-11 42 -113 389 -138 488c-21 -91 -108 -425 -125 -499c-1 -5 -5 -8 -10 -8zM199 795c0 3 2 6 4 8l202 151c2 1 4 2 6 2c6 0 10 -4 10 -10c0 -3 -2 -6 -4 -8l-202 -151c-2 -1 -4 -2 -6 -2c-6 0 -10 4 -10 10z" />
    <glyph glyph-name="Wcircumflex" unicode="&#x174;" 
d="M184 -22c-5 0 -9 3 -10 8c-76 341 -119 539 -141 683v2c0 6 4 10 10 10c5 0 9 -4 10 -9c20 -136 67 -352 131 -641c18 74 101 391 125 501c1 5 5 8 10 8s9 -3 10 -8c17 -77 50 -193 135 -483c19 121 82 481 105 655c1 5 5 9 10 9c6 0 10 -4 10 -10
c-1 -48 -77 -471 -112 -704c-1 -5 -5 -9 -10 -9s-9 3 -10 7c-11 42 -113 389 -138 488c-21 -91 -108 -425 -125 -499c-1 -5 -5 -8 -10 -8zM118 815c0 3 2 6 4 8c65 49 130 92 193 131c1 1 3 2 5 2s4 -1 6 -2c70 -46 127 -89 173 -132c2 -2 3 -4 3 -7c0 -6 -4 -10 -10 -10
c-3 0 -5 1 -7 3c-44 41 -97 82 -165 126c-66 -41 -127 -82 -186 -127c-2 -1 -4 -2 -6 -2c-6 0 -10 4 -10 10z" />
    <glyph glyph-name="Wdieresis" unicode="&#x1e84;" 
d="M184 -22c-5 0 -9 3 -10 8c-76 341 -119 539 -141 683v2c0 6 4 10 10 10c5 0 9 -4 10 -9c20 -136 67 -352 131 -641c18 74 101 391 125 501c1 5 5 8 10 8s9 -3 10 -8c17 -77 50 -193 135 -483c19 121 82 481 105 655c1 5 5 9 10 9c6 0 10 -4 10 -10
c-1 -48 -77 -471 -112 -704c-1 -5 -5 -9 -10 -9s-9 3 -10 7c-11 42 -113 389 -138 488c-21 -91 -108 -425 -125 -499c-1 -5 -5 -8 -10 -8zM199 869c0 9 1 17 3 27c1 5 5 8 10 8c6 0 10 -4 10 -10c0 -4 -3 -15 -3 -25c0 -21 6 -43 6 -48c0 -6 -4 -10 -10 -10c-5 0 -9 4 -10 8
c-4 20 -6 36 -6 50zM398 832c0 5 2 10 2 32c0 30 -1 38 -1 42c0 6 4 10 10 10c5 0 10 -4 10 -10c1 -10 1 -27 1 -42s0 -27 -2 -34c-1 -5 -5 -8 -10 -8c-6 0 -10 4 -10 10z" />
    <glyph glyph-name="Wgrave" unicode="&#x1e80;" 
d="M184 -22c-5 0 -9 3 -10 8c-76 341 -119 539 -141 683v2c0 6 4 10 10 10c5 0 9 -4 10 -9c20 -136 67 -352 131 -641c18 74 101 391 125 501c1 5 5 8 10 8s9 -3 10 -8c17 -77 50 -193 135 -483c19 121 82 481 105 655c1 5 5 9 10 9c6 0 10 -4 10 -10
c-1 -48 -77 -471 -112 -704c-1 -5 -5 -9 -10 -9s-9 3 -10 7c-11 42 -113 389 -138 488c-21 -91 -108 -425 -125 -499c-1 -5 -5 -8 -10 -8zM199 946c0 6 4 10 10 10c2 0 4 -1 6 -2l202 -151c2 -2 4 -5 4 -8c0 -6 -4 -10 -10 -10c-2 0 -4 1 -6 2l-202 151c-2 2 -4 5 -4 8z" />
    <glyph glyph-name="X" unicode="X" 
d="M49 -9c-6 0 -10 4 -10 10c0 2 1 5 2 6c75 94 169 220 242 330c-80 122 -144 240 -189 351c-1 1 -1 3 -1 4c0 6 4 10 10 10c4 0 8 -3 9 -6c44 -109 106 -223 183 -341c76 116 178 257 249 351c2 2 5 4 8 4c6 0 10 -4 10 -10c0 -2 -1 -4 -2 -6c-71 -94 -173 -235 -249 -349
l-5 -7c1 -1 2 -3 3 -4c54 -80 181 -245 249 -328c1 -1 2 -4 2 -6c0 -6 -4 -10 -10 -10c-3 0 -6 1 -8 4c-67 82 -193 245 -247 326c-73 -110 -165 -233 -238 -325c-2 -2 -5 -4 -8 -4z" />
    <glyph glyph-name="Y" unicode="Y" 
d="M312 -8c-6 0 -10 4 -10 10c3 65 6 146 9 250c-64 121 -163 298 -243 431c-1 1 -2 3 -2 5c0 6 4 10 10 10c4 0 7 -2 9 -5c78 -128 172 -295 236 -415c86 136 167 292 220 431c1 4 5 7 9 7c6 0 10 -4 10 -10c0 -1 0 -3 -1 -4c-55 -144 -138 -307 -228 -444
c-3 -98 -6 -187 -9 -256c0 -6 -5 -10 -10 -10z" />
    <glyph glyph-name="Yacute" unicode="&#xdd;" 
d="M312 -8c-6 0 -10 4 -10 10c3 65 6 146 9 250c-64 121 -163 298 -243 431c-1 1 -2 3 -2 5c0 6 4 10 10 10c4 0 7 -2 9 -5c78 -128 172 -295 236 -415c86 136 167 292 220 431c1 4 5 7 9 7c6 0 10 -4 10 -10c0 -1 0 -3 -1 -4c-55 -144 -138 -307 -228 -444
c-3 -98 -6 -187 -9 -256c0 -6 -5 -10 -10 -10zM199 795c0 3 2 6 4 8l202 151c2 1 4 2 6 2c6 0 10 -4 10 -10c0 -3 -2 -6 -4 -8l-202 -151c-2 -1 -4 -2 -6 -2c-6 0 -10 4 -10 10z" />
    <glyph glyph-name="Ycircumflex" unicode="&#x176;" 
d="M312 -8c-6 0 -10 4 -10 10c3 65 6 146 9 250c-64 121 -163 298 -243 431c-1 1 -2 3 -2 5c0 6 4 10 10 10c4 0 7 -2 9 -5c78 -128 172 -295 236 -415c86 136 167 292 220 431c1 4 5 7 9 7c6 0 10 -4 10 -10c0 -1 0 -3 -1 -4c-55 -144 -138 -307 -228 -444
c-3 -98 -6 -187 -9 -256c0 -6 -5 -10 -10 -10zM118 815c0 3 2 6 4 8c65 49 130 92 193 131c1 1 3 2 5 2s4 -1 6 -2c70 -46 127 -89 173 -132c2 -2 3 -4 3 -7c0 -6 -4 -10 -10 -10c-3 0 -5 1 -7 3c-44 41 -97 82 -165 126c-66 -41 -127 -82 -186 -127c-2 -1 -4 -2 -6 -2
c-6 0 -10 4 -10 10z" />
    <glyph glyph-name="Ydieresis" unicode="&#x178;" 
d="M312 -8c-6 0 -10 4 -10 10c3 65 6 146 9 250c-64 121 -163 298 -243 431c-1 1 -2 3 -2 5c0 6 4 10 10 10c4 0 7 -2 9 -5c78 -128 172 -295 236 -415c86 136 167 292 220 431c1 4 5 7 9 7c6 0 10 -4 10 -10c0 -1 0 -3 -1 -4c-55 -144 -138 -307 -228 -444
c-3 -98 -6 -187 -9 -256c0 -6 -5 -10 -10 -10zM199 869c0 9 1 17 3 27c1 5 5 8 10 8c6 0 10 -4 10 -10c0 -4 -3 -15 -3 -25c0 -21 6 -43 6 -48c0 -6 -4 -10 -10 -10c-5 0 -9 4 -10 8c-4 20 -6 36 -6 50zM398 832c0 5 2 10 2 32c0 30 -1 38 -1 42c0 6 4 10 10 10
c5 0 10 -4 10 -10c1 -10 1 -27 1 -42s0 -27 -2 -34c-1 -5 -5 -8 -10 -8c-6 0 -10 4 -10 10z" />
    <glyph glyph-name="Ygrave" unicode="&#x1ef2;" 
d="M312 -8c-6 0 -10 4 -10 10c3 65 6 146 9 250c-64 121 -163 298 -243 431c-1 1 -2 3 -2 5c0 6 4 10 10 10c4 0 7 -2 9 -5c78 -128 172 -295 236 -415c86 136 167 292 220 431c1 4 5 7 9 7c6 0 10 -4 10 -10c0 -1 0 -3 -1 -4c-55 -144 -138 -307 -228 -444
c-3 -98 -6 -187 -9 -256c0 -6 -5 -10 -10 -10zM199 946c0 6 4 10 10 10c2 0 4 -1 6 -2l202 -151c2 -2 4 -5 4 -8c0 -6 -4 -10 -10 -10c-2 0 -4 1 -6 2l-202 151c-2 2 -4 5 -4 8z" />
    <glyph glyph-name="Z" unicode="Z" 
d="M74 -5c-6 0 -10 4 -10 10c0 2 0 3 1 5c141 261 305 518 431 675c-103 -7 -211 -11 -298 -11c-51 0 -95 2 -127 4c-5 0 -9 5 -9 10c0 6 4 10 10 10c10 0 45 -5 126 -4c142 2 313 13 320 13c6 0 10 -4 10 -10c0 -2 -1 -5 -2 -6c-124 -151 -291 -410 -434 -675
c68 5 143 5 218 5c174 0 224 6 226 6c6 0 10 -4 10 -10c0 -5 -4 -10 -9 -10c-71 -5 -149 -6 -227 -6c-188 0 -232 -6 -236 -6z" />
    <glyph glyph-name="Zacute" unicode="&#x179;" 
d="M74 -5c-6 0 -10 4 -10 10c0 2 0 3 1 5c141 261 305 518 431 675c-103 -7 -211 -11 -298 -11c-51 0 -95 2 -127 4c-5 0 -9 5 -9 10c0 6 4 10 10 10c10 0 45 -5 126 -4c142 2 313 13 320 13c6 0 10 -4 10 -10c0 -2 -1 -5 -2 -6c-124 -151 -291 -410 -434 -675
c68 5 143 5 218 5c174 0 224 6 226 6c6 0 10 -4 10 -10c0 -5 -4 -10 -9 -10c-71 -5 -149 -6 -227 -6c-188 0 -232 -6 -236 -6zM199 795c0 3 2 6 4 8l202 151c2 1 4 2 6 2c6 0 10 -4 10 -10c0 -3 -2 -6 -4 -8l-202 -151c-2 -1 -4 -2 -6 -2c-6 0 -10 4 -10 10z" />
    <glyph glyph-name="Zcaron" unicode="&#x17d;" 
d="M74 -5c-6 0 -10 4 -10 10c0 2 0 3 1 5c141 261 305 518 431 675c-103 -7 -211 -11 -298 -11c-51 0 -95 2 -127 4c-5 0 -9 5 -9 10c0 6 4 10 10 10c10 0 45 -5 126 -4c142 2 313 13 320 13c6 0 10 -4 10 -10c0 -2 -1 -5 -2 -6c-124 -151 -291 -410 -434 -675
c68 5 143 5 218 5c174 0 224 6 226 6c6 0 10 -4 10 -10c0 -5 -4 -10 -9 -10c-71 -5 -149 -6 -227 -6c-188 0 -232 -6 -236 -6zM118 946c0 6 4 10 10 10c3 0 5 -1 7 -3c44 -41 97 -82 165 -126c66 41 127 82 186 127c2 1 4 2 6 2c6 0 10 -4 10 -10c0 -3 -2 -6 -4 -8
c-65 -49 -130 -92 -193 -131c-1 -1 -3 -2 -5 -2s-4 1 -6 2c-70 46 -127 89 -173 132c-2 2 -3 4 -3 7z" />
    <glyph glyph-name="Zdotaccent" unicode="&#x17b;" 
d="M74 -5c-6 0 -10 4 -10 10c0 2 0 3 1 5c141 261 305 518 431 675c-103 -7 -211 -11 -298 -11c-51 0 -95 2 -127 4c-5 0 -9 5 -9 10c0 6 4 10 10 10c10 0 45 -5 126 -4c142 2 313 13 320 13c6 0 10 -4 10 -10c0 -2 -1 -5 -2 -6c-124 -151 -291 -410 -434 -675
c68 5 143 5 218 5c174 0 224 6 226 6c6 0 10 -4 10 -10c0 -5 -4 -10 -9 -10c-71 -5 -149 -6 -227 -6c-188 0 -232 -6 -236 -6zM278 886c0 35 10 51 34 51c18 0 31 -14 31 -32c0 -22 -16 -54 -37 -76c-2 -2 -4 -3 -7 -3c-4 0 -8 3 -9 6c-5 1 -8 4 -9 9c-2 18 -3 33 -3 45z
" />
    <glyph glyph-name="Y.ss02" 
d="M152 -33c-6 0 -10 4 -10 10c0 3 1 5 3 7c56 63 111 142 163 229c-65 137 -161 329 -241 475c-1 2 -1 3 -1 5c0 6 4 10 10 10c4 0 7 -2 9 -5c77 -142 170 -327 235 -464c90 154 169 330 220 480c2 4 6 7 10 7c6 0 10 -4 10 -10c0 -1 0 -2 -1 -3
c-84 -244 -241 -559 -400 -738c-1 -2 -4 -3 -7 -3z" />
    <glyph glyph-name="Yacute.ss02" 
d="M152 -33c-6 0 -10 4 -10 10c0 3 1 5 3 7c56 63 111 142 163 229c-65 137 -161 329 -241 475c-1 2 -1 3 -1 5c0 6 4 10 10 10c4 0 7 -2 9 -5c77 -142 170 -327 235 -464c90 154 169 330 220 480c2 4 6 7 10 7c6 0 10 -4 10 -10c0 -1 0 -2 -1 -3
c-84 -244 -241 -559 -400 -738c-1 -2 -4 -3 -7 -3zM199 795c0 3 2 6 4 8l202 151c2 1 4 2 6 2c6 0 10 -4 10 -10c0 -3 -2 -6 -4 -8l-202 -151c-2 -1 -4 -2 -6 -2c-6 0 -10 4 -10 10z" />
    <glyph glyph-name="Ycircumflex.ss02" 
d="M152 -33c-6 0 -10 4 -10 10c0 3 1 5 3 7c56 63 111 142 163 229c-65 137 -161 329 -241 475c-1 2 -1 3 -1 5c0 6 4 10 10 10c4 0 7 -2 9 -5c77 -142 170 -327 235 -464c90 154 169 330 220 480c2 4 6 7 10 7c6 0 10 -4 10 -10c0 -1 0 -2 -1 -3
c-84 -244 -241 -559 -400 -738c-1 -2 -4 -3 -7 -3zM118 815c0 3 2 6 4 8c65 49 130 92 193 131c1 1 3 2 5 2s4 -1 6 -2c70 -46 127 -89 173 -132c2 -2 3 -4 3 -7c0 -6 -4 -10 -10 -10c-3 0 -5 1 -7 3c-44 41 -97 82 -165 126c-66 -41 -127 -82 -186 -127c-2 -1 -4 -2 -6 -2
c-6 0 -10 4 -10 10z" />
    <glyph glyph-name="Ydieresis.ss02" 
d="M152 -33c-6 0 -10 4 -10 10c0 3 1 5 3 7c56 63 111 142 163 229c-65 137 -161 329 -241 475c-1 2 -1 3 -1 5c0 6 4 10 10 10c4 0 7 -2 9 -5c77 -142 170 -327 235 -464c90 154 169 330 220 480c2 4 6 7 10 7c6 0 10 -4 10 -10c0 -1 0 -2 -1 -3
c-84 -244 -241 -559 -400 -738c-1 -2 -4 -3 -7 -3zM199 869c0 9 1 17 3 27c1 5 5 8 10 8c6 0 10 -4 10 -10c0 -4 -3 -15 -3 -25c0 -21 6 -43 6 -48c0 -6 -4 -10 -10 -10c-5 0 -9 4 -10 8c-4 20 -6 36 -6 50zM398 832c0 5 2 10 2 32c0 30 -1 38 -1 42c0 6 4 10 10 10
c5 0 10 -4 10 -10c1 -10 1 -27 1 -42s0 -27 -2 -34c-1 -5 -5 -8 -10 -8c-6 0 -10 4 -10 10z" />
    <glyph glyph-name="Ygrave.ss02" 
d="M152 -33c-6 0 -10 4 -10 10c0 3 1 5 3 7c56 63 111 142 163 229c-65 137 -161 329 -241 475c-1 2 -1 3 -1 5c0 6 4 10 10 10c4 0 7 -2 9 -5c77 -142 170 -327 235 -464c90 154 169 330 220 480c2 4 6 7 10 7c6 0 10 -4 10 -10c0 -1 0 -2 -1 -3
c-84 -244 -241 -559 -400 -738c-1 -2 -4 -3 -7 -3zM199 946c0 6 4 10 10 10c2 0 4 -1 6 -2l202 -151c2 -2 4 -5 4 -8c0 -6 -4 -10 -10 -10c-2 0 -4 1 -6 2l-202 151c-2 2 -4 5 -4 8z" />
    <glyph glyph-name="a" unicode="a" 
d="M520 -26c-5 0 -10 4 -10 9c-2 34 -6 74 -10 115c-62 -64 -154 -103 -242 -103c-109 0 -172 50 -172 138c0 100 82 158 225 158c57 0 121 -10 172 -28l-9 75c-16 135 -63 192 -160 192c-50 0 -105 -18 -160 -52c-1 -1 -3 -2 -5 -2c-6 0 -10 4 -10 10c0 4 2 7 5 9
c58 36 116 55 170 55c108 0 163 -64 180 -210c12 -102 29 -252 36 -356c0 -6 -4 -10 -10 -10zM106 133c0 -76 53 -118 152 -118c89 0 181 43 240 109l-13 117c-49 19 -114 30 -174 30c-132 0 -205 -50 -205 -138z" />
    <glyph glyph-name="aacute" unicode="&#xe1;" 
d="M520 -26c-5 0 -10 4 -10 9c-2 34 -6 74 -10 115c-62 -64 -154 -103 -242 -103c-109 0 -172 50 -172 138c0 100 82 158 225 158c57 0 121 -10 172 -28l-9 75c-16 135 -63 192 -160 192c-50 0 -105 -18 -160 -52c-1 -1 -3 -2 -5 -2c-6 0 -10 4 -10 10c0 4 2 7 5 9
c58 36 116 55 170 55c108 0 163 -64 180 -210c12 -102 29 -252 36 -356c0 -6 -4 -10 -10 -10zM106 133c0 -76 53 -118 152 -118c89 0 181 43 240 109l-13 117c-49 19 -114 30 -174 30c-132 0 -205 -50 -205 -138zM199 635c0 3 2 6 4 8l202 151c2 1 4 2 6 2c6 0 10 -4 10 -10
c0 -3 -2 -6 -4 -8l-202 -151c-2 -1 -4 -2 -6 -2c-6 0 -10 4 -10 10z" />
    <glyph glyph-name="abreve" unicode="&#x103;" 
d="M520 -26c-5 0 -10 4 -10 9c-2 34 -6 74 -10 115c-62 -64 -154 -103 -242 -103c-109 0 -172 50 -172 138c0 100 82 158 225 158c57 0 121 -10 172 -28l-9 75c-16 135 -63 192 -160 192c-50 0 -105 -18 -160 -52c-1 -1 -3 -2 -5 -2c-6 0 -10 4 -10 10c0 4 2 7 5 9
c58 36 116 55 170 55c108 0 163 -64 180 -210c12 -102 29 -252 36 -356c0 -6 -4 -10 -10 -10zM106 133c0 -76 53 -118 152 -118c89 0 181 43 240 109l-13 117c-49 19 -114 30 -174 30c-132 0 -205 -50 -205 -138zM126 776v3c0 6 4 10 10 10c5 0 9 -3 10 -8
c18 -64 88 -109 171 -109c81 0 143 44 157 111c1 5 5 8 10 8c6 0 10 -4 10 -10v-2c-17 -77 -87 -127 -177 -127c-91 0 -170 51 -191 124z" />
    <glyph glyph-name="acircumflex" unicode="&#xe2;" 
d="M520 -26c-5 0 -10 4 -10 9c-2 34 -6 74 -10 115c-62 -64 -154 -103 -242 -103c-109 0 -172 50 -172 138c0 100 82 158 225 158c57 0 121 -10 172 -28l-9 75c-16 135 -63 192 -160 192c-50 0 -105 -18 -160 -52c-1 -1 -3 -2 -5 -2c-6 0 -10 4 -10 10c0 4 2 7 5 9
c58 36 116 55 170 55c108 0 163 -64 180 -210c12 -102 29 -252 36 -356c0 -6 -4 -10 -10 -10zM106 133c0 -76 53 -118 152 -118c89 0 181 43 240 109l-13 117c-49 19 -114 30 -174 30c-132 0 -205 -50 -205 -138zM118 655c0 3 2 6 4 8c65 49 130 92 193 131c1 1 3 2 5 2
s4 -1 6 -2c70 -46 127 -89 173 -132c2 -2 3 -4 3 -7c0 -6 -4 -10 -10 -10c-3 0 -5 1 -7 3c-44 41 -97 82 -165 126c-66 -41 -127 -82 -186 -127c-2 -1 -4 -2 -6 -2c-6 0 -10 4 -10 10z" />
    <glyph glyph-name="adieresis" unicode="&#xe4;" 
d="M520 -26c-5 0 -10 4 -10 9c-2 34 -6 74 -10 115c-62 -64 -154 -103 -242 -103c-109 0 -172 50 -172 138c0 100 82 158 225 158c57 0 121 -10 172 -28l-9 75c-16 135 -63 192 -160 192c-50 0 -105 -18 -160 -52c-1 -1 -3 -2 -5 -2c-6 0 -10 4 -10 10c0 4 2 7 5 9
c58 36 116 55 170 55c108 0 163 -64 180 -210c12 -102 29 -252 36 -356c0 -6 -4 -10 -10 -10zM106 133c0 -76 53 -118 152 -118c89 0 181 43 240 109l-13 117c-49 19 -114 30 -174 30c-132 0 -205 -50 -205 -138zM199 709c0 9 1 17 3 27c1 5 5 8 10 8c6 0 10 -4 10 -10
c0 -4 -3 -15 -3 -25c0 -21 6 -43 6 -48c0 -6 -4 -10 -10 -10c-5 0 -9 4 -10 8c-4 20 -6 36 -6 50zM398 672c0 5 2 10 2 32c0 30 -1 38 -1 42c0 6 4 10 10 10c5 0 10 -4 10 -10c1 -10 1 -27 1 -42s0 -27 -2 -34c-1 -5 -5 -8 -10 -8c-6 0 -10 4 -10 10z" />
    <glyph glyph-name="agrave" unicode="&#xe0;" 
d="M520 -26c-5 0 -10 4 -10 9c-2 34 -6 74 -10 115c-62 -64 -154 -103 -242 -103c-109 0 -172 50 -172 138c0 100 82 158 225 158c57 0 121 -10 172 -28l-9 75c-16 135 -63 192 -160 192c-50 0 -105 -18 -160 -52c-1 -1 -3 -2 -5 -2c-6 0 -10 4 -10 10c0 4 2 7 5 9
c58 36 116 55 170 55c108 0 163 -64 180 -210c12 -102 29 -252 36 -356c0 -6 -4 -10 -10 -10zM106 133c0 -76 53 -118 152 -118c89 0 181 43 240 109l-13 117c-49 19 -114 30 -174 30c-132 0 -205 -50 -205 -138zM199 786c0 6 4 10 10 10c2 0 4 -1 6 -2l202 -151
c2 -2 4 -5 4 -8c0 -6 -4 -10 -10 -10c-2 0 -4 1 -6 2l-202 151c-2 2 -4 5 -4 8z" />
    <glyph glyph-name="amacron" unicode="&#x101;" 
d="M520 -26c-5 0 -10 4 -10 9c-2 34 -6 74 -10 115c-62 -64 -154 -103 -242 -103c-109 0 -172 50 -172 138c0 100 82 158 225 158c57 0 121 -10 172 -28l-9 75c-16 135 -63 192 -160 192c-50 0 -105 -18 -160 -52c-1 -1 -3 -2 -5 -2c-6 0 -10 4 -10 10c0 4 2 7 5 9
c58 36 116 55 170 55c108 0 163 -64 180 -210c12 -102 29 -252 36 -356c0 -6 -4 -10 -10 -10zM106 133c0 -76 53 -118 152 -118c89 0 181 43 240 109l-13 117c-49 19 -114 30 -174 30c-132 0 -205 -50 -205 -138zM112 671c0 5 4 9 9 10c106 15 287 22 376 22
c6 0 10 -4 10 -10s-4 -10 -10 -10c-216 0 -371 -22 -375 -22c-6 0 -10 4 -10 10z" />
    <glyph glyph-name="aogonek" unicode="&#x105;" 
d="M258 -5c-109 0 -172 50 -172 138c0 100 82 158 225 158c57 0 121 -10 172 -28l-9 75c-16 135 -63 192 -160 192c-50 0 -105 -18 -160 -52c-1 -1 -3 -2 -5 -2c-6 0 -10 4 -10 10c0 4 2 7 5 9c58 36 116 55 170 55c108 0 163 -64 180 -210c12 -102 29 -252 36 -356
c0 -4 -2 -7 -4 -8l-1 -1c-70 -37 -119 -90 -119 -128c0 -34 30 -59 69 -59c34 0 75 16 103 41c2 1 4 2 7 2c6 0 10 -4 10 -10c0 -3 -1 -6 -3 -8c-32 -27 -78 -45 -117 -45c-50 0 -89 34 -89 79s50 102 124 142l-10 109c-62 -64 -154 -103 -242 -103zM106 133
c0 -76 53 -118 152 -118c89 0 181 43 240 109l-13 117c-49 19 -114 30 -174 30c-132 0 -205 -50 -205 -138z" />
    <glyph glyph-name="aring" unicode="&#xe5;" 
d="M520 -26c-5 0 -10 4 -10 9c-2 34 -6 74 -10 115c-62 -64 -154 -103 -242 -103c-109 0 -172 50 -172 138c0 100 82 158 225 158c57 0 121 -10 172 -28l-9 75c-16 135 -63 192 -160 192c-50 0 -105 -18 -160 -52c-1 -1 -3 -2 -5 -2c-6 0 -10 4 -10 10c0 4 2 7 5 9
c58 36 116 55 170 55c108 0 163 -64 180 -210c12 -102 29 -252 36 -356c0 -6 -4 -10 -10 -10zM106 133c0 -76 53 -118 152 -118c89 0 181 43 240 109l-13 117c-49 19 -114 30 -174 30c-132 0 -205 -50 -205 -138zM192 748c0 67 55 125 117 125c58 0 118 -58 118 -115
c0 -64 -52 -121 -112 -121c-74 0 -123 44 -123 111zM212 748c0 -56 40 -91 103 -91c48 0 92 48 92 101c0 46 -51 95 -98 95c-51 0 -97 -49 -97 -105z" />
    <glyph glyph-name="aringacute" unicode="&#x1fb;" 
d="M520 -26c-5 0 -10 4 -10 9c-2 34 -6 74 -10 115c-62 -64 -154 -103 -242 -103c-109 0 -172 50 -172 138c0 100 82 158 225 158c57 0 121 -10 172 -28l-9 75c-16 135 -63 192 -160 192c-50 0 -105 -18 -160 -52c-1 -1 -3 -2 -5 -2c-6 0 -10 4 -10 10c0 4 2 7 5 9
c58 36 116 55 170 55c108 0 163 -64 180 -210c12 -102 29 -252 36 -356c0 -6 -4 -10 -10 -10zM106 133c0 -76 53 -118 152 -118c89 0 181 43 240 109l-13 117c-49 19 -114 30 -174 30c-132 0 -205 -50 -205 -138zM192 748c0 67 55 125 117 125c21 0 41 -7 60 -19l176 132
c2 1 4 2 6 2c6 0 10 -4 10 -10c0 -3 -2 -6 -4 -8l-172 -129c25 -22 42 -53 42 -83c0 -64 -52 -121 -112 -121c-74 0 -123 44 -123 111zM212 748c0 -56 40 -91 103 -91c48 0 92 48 92 101c0 46 -51 95 -98 95c-51 0 -97 -49 -97 -105z" />
    <glyph glyph-name="atilde" unicode="&#xe3;" 
d="M520 -26c-5 0 -10 4 -10 9c-2 34 -6 74 -10 115c-62 -64 -154 -103 -242 -103c-109 0 -172 50 -172 138c0 100 82 158 225 158c57 0 121 -10 172 -28l-9 75c-16 135 -63 192 -160 192c-50 0 -105 -18 -160 -52c-1 -1 -3 -2 -5 -2c-6 0 -10 4 -10 10c0 4 2 7 5 9
c58 36 116 55 170 55c108 0 163 -64 180 -210c12 -102 29 -252 36 -356c0 -6 -4 -10 -10 -10zM87 654v2c14 74 67 125 131 125c50 0 80 -30 106 -58c27 -27 50 -51 92 -51c50 0 88 43 97 110c1 5 5 9 10 9c6 0 10 -4 10 -10v-2c-11 -76 -57 -127 -117 -127
c-50 0 -80 30 -106 58c-27 27 -50 51 -92 51c-54 0 -99 -44 -111 -109c-1 -4 -5 -8 -10 -8c-6 0 -10 4 -10 10zM106 133c0 -76 53 -118 152 -118c89 0 181 43 240 109l-13 117c-49 19 -114 30 -174 30c-132 0 -205 -50 -205 -138z" />
    <glyph glyph-name="ae" unicode="&#xe6;" 
d="M443 -2c-61 0 -102 32 -124 94c-45 -61 -109 -97 -174 -97c-73 0 -116 52 -116 142c0 93 57 156 141 156c48 0 91 -13 130 -40v96c0 111 -39 170 -109 170c-35 0 -74 -15 -114 -46c-2 -1 -4 -2 -6 -2c-6 0 -10 4 -10 10c0 3 2 6 4 8c43 33 86 50 126 50
c72 0 118 -53 127 -145c24 102 72 157 144 157c66 0 118 -61 118 -135c0 -31 -13 -52 -48 -79c-53 -41 -136 -86 -212 -116c1 -133 40 -203 123 -203c50 0 91 23 135 77c2 3 5 4 8 4c6 0 10 -4 10 -10c0 -2 -1 -5 -2 -6c-49 -59 -95 -85 -151 -85zM49 137
c0 -79 34 -122 96 -122c63 0 126 38 166 101c-7 31 -11 67 -11 109v3c-39 30 -82 45 -130 45c-73 0 -121 -54 -121 -136zM320 242c73 30 150 73 200 111c31 24 40 39 40 63c0 64 -43 115 -98 115c-86 0 -139 -100 -142 -289z" />
    <glyph glyph-name="aeacute" unicode="&#x1fd;" 
d="M443 -2c-61 0 -102 32 -124 94c-45 -61 -109 -97 -174 -97c-73 0 -116 52 -116 142c0 93 57 156 141 156c48 0 91 -13 130 -40v96c0 111 -39 170 -109 170c-35 0 -74 -15 -114 -46c-2 -1 -4 -2 -6 -2c-6 0 -10 4 -10 10c0 3 2 6 4 8c43 33 86 50 126 50
c72 0 118 -53 127 -145c24 102 72 157 144 157c66 0 118 -61 118 -135c0 -31 -13 -52 -48 -79c-53 -41 -136 -86 -212 -116c1 -133 40 -203 123 -203c50 0 91 23 135 77c2 3 5 4 8 4c6 0 10 -4 10 -10c0 -2 -1 -5 -2 -6c-49 -59 -95 -85 -151 -85zM49 137
c0 -79 34 -122 96 -122c63 0 126 38 166 101c-7 31 -11 67 -11 109v3c-39 30 -82 45 -130 45c-73 0 -121 -54 -121 -136zM199 635c0 3 2 6 4 8l202 151c2 1 4 2 6 2c6 0 10 -4 10 -10c0 -3 -2 -6 -4 -8l-202 -151c-2 -1 -4 -2 -6 -2c-6 0 -10 4 -10 10zM320 242
c73 30 150 73 200 111c31 24 40 39 40 63c0 64 -43 115 -98 115c-86 0 -139 -100 -142 -289z" />
    <glyph glyph-name="b" unicode="b" 
d="M271 -15c-48 0 -99 15 -139 39c-5 -20 -12 -38 -22 -53c-2 -3 -5 -5 -9 -5c-6 0 -10 4 -10 10c0 8 30 30 30 143c0 37 -9 389 -9 442c0 112 6 192 18 244c1 5 5 8 10 8c6 0 10 -4 10 -10c0 -12 -18 -48 -18 -242l2 -102c58 61 113 91 167 91c129 0 227 -126 227 -290
s-104 -275 -257 -275zM134 429c3 -123 7 -285 7 -310c0 -28 -2 -52 -5 -74c37 -24 88 -40 135 -40c142 0 237 102 237 255s-90 270 -207 270c-52 0 -107 -33 -167 -101z" />
    <glyph glyph-name="c" unicode="c" 
d="M300 -12c-131 0 -216 94 -216 241c0 172 116 321 250 321c60 0 124 -24 191 -71c3 -2 4 -5 4 -8c0 -6 -4 -10 -10 -10c-2 0 -5 1 -6 2c-64 45 -123 67 -179 67c-123 0 -230 -139 -230 -301c0 -136 76 -221 196 -221c90 0 166 36 232 106c2 2 4 3 7 3c6 0 10 -4 10 -10
c0 -3 -1 -5 -3 -7c-69 -74 -152 -112 -246 -112z" />
    <glyph glyph-name="cacute" unicode="&#x107;" 
d="M300 -12c-131 0 -216 94 -216 241c0 172 116 321 250 321c60 0 124 -24 191 -71c3 -2 4 -5 4 -8c0 -6 -4 -10 -10 -10c-2 0 -5 1 -6 2c-64 45 -123 67 -179 67c-123 0 -230 -139 -230 -301c0 -136 76 -221 196 -221c90 0 166 36 232 106c2 2 4 3 7 3c6 0 10 -4 10 -10
c0 -3 -1 -5 -3 -7c-69 -74 -152 -112 -246 -112zM199 635c0 3 2 6 4 8l202 151c2 1 4 2 6 2c6 0 10 -4 10 -10c0 -3 -2 -6 -4 -8l-202 -151c-2 -1 -4 -2 -6 -2c-6 0 -10 4 -10 10z" />
    <glyph glyph-name="ccaron" unicode="&#x10d;" 
d="M300 -12c-131 0 -216 94 -216 241c0 172 116 321 250 321c60 0 124 -24 191 -71c3 -2 4 -5 4 -8c0 -6 -4 -10 -10 -10c-2 0 -5 1 -6 2c-64 45 -123 67 -179 67c-123 0 -230 -139 -230 -301c0 -136 76 -221 196 -221c90 0 166 36 232 106c2 2 4 3 7 3c6 0 10 -4 10 -10
c0 -3 -1 -5 -3 -7c-69 -74 -152 -112 -246 -112zM118 786c0 6 4 10 10 10c3 0 5 -1 7 -3c44 -41 97 -82 165 -126c66 41 127 82 186 127c2 1 4 2 6 2c6 0 10 -4 10 -10c0 -3 -2 -6 -4 -8c-65 -49 -130 -92 -193 -131c-1 -1 -3 -2 -5 -2s-4 1 -6 2c-70 46 -127 89 -173 132
c-2 2 -3 4 -3 7z" />
    <glyph glyph-name="ccedilla" unicode="&#xe7;" 
d="M248 -227c-8 0 -15 0 -22 1c-5 0 -9 5 -9 10c0 6 4 10 11 10c2 0 10 -1 20 -1c78 0 135 40 135 92c0 53 -34 86 -94 98c-3 1 -6 3 -8 6c-120 8 -197 100 -197 240c0 172 116 321 250 321c60 0 124 -24 191 -71c3 -2 4 -5 4 -8c0 -6 -4 -10 -10 -10c-2 0 -5 1 -6 2
c-64 45 -123 67 -179 67c-123 0 -230 -139 -230 -301c0 -136 76 -221 196 -221c90 0 166 36 232 106c2 2 4 3 7 3c6 0 10 -4 10 -10c0 -3 -1 -5 -3 -7c-60 -64 -130 -101 -210 -110c43 -20 67 -57 67 -105c0 -65 -67 -112 -155 -112z" />
    <glyph glyph-name="ccircumflex" unicode="&#x109;" 
d="M300 -12c-131 0 -216 94 -216 241c0 172 116 321 250 321c60 0 124 -24 191 -71c3 -2 4 -5 4 -8c0 -6 -4 -10 -10 -10c-2 0 -5 1 -6 2c-64 45 -123 67 -179 67c-123 0 -230 -139 -230 -301c0 -136 76 -221 196 -221c90 0 166 36 232 106c2 2 4 3 7 3c6 0 10 -4 10 -10
c0 -3 -1 -5 -3 -7c-69 -74 -152 -112 -246 -112zM118 655c0 3 2 6 4 8c65 49 130 92 193 131c1 1 3 2 5 2s4 -1 6 -2c70 -46 127 -89 173 -132c2 -2 3 -4 3 -7c0 -6 -4 -10 -10 -10c-3 0 -5 1 -7 3c-44 41 -97 82 -165 126c-66 -41 -127 -82 -186 -127c-2 -1 -4 -2 -6 -2
c-6 0 -10 4 -10 10z" />
    <glyph glyph-name="cdotaccent" unicode="&#x10b;" 
d="M300 -12c-131 0 -216 94 -216 241c0 172 116 321 250 321c60 0 124 -24 191 -71c3 -2 4 -5 4 -8c0 -6 -4 -10 -10 -10c-2 0 -5 1 -6 2c-64 45 -123 67 -179 67c-123 0 -230 -139 -230 -301c0 -136 76 -221 196 -221c90 0 166 36 232 106c2 2 4 3 7 3c6 0 10 -4 10 -10
c0 -3 -1 -5 -3 -7c-69 -74 -152 -112 -246 -112zM278 726c0 35 10 51 34 51c18 0 31 -14 31 -32c0 -22 -16 -54 -37 -76c-2 -2 -4 -3 -7 -3c-4 0 -8 3 -9 6c-5 1 -8 4 -9 9c-2 18 -3 33 -3 45z" />
    <glyph glyph-name="d" unicode="d" 
d="M289 -7c-114 0 -193 88 -193 215c0 196 98 342 232 342c52 0 109 -20 151 -51c7 109 20 224 32 305c1 5 5 9 10 9c6 0 10 -4 10 -10c0 -5 -38 -248 -38 -468c0 -78 8 -217 13 -246c8 -49 31 -100 52 -115c2 -2 4 -5 4 -8c0 -6 -4 -10 -10 -10c-2 0 -4 1 -6 2
c-25 18 -51 73 -60 127l-1 5c-58 -66 -122 -97 -196 -97zM116 208c0 -116 70 -195 173 -195c74 0 135 33 194 104c-5 55 -10 156 -10 218c0 42 2 90 5 140l-1 -1c-38 34 -97 56 -149 56c-121 0 -212 -136 -212 -322z" />
    <glyph glyph-name="eth" unicode="&#xf0;" 
d="M300 -7c-141 0 -220 87 -220 243c0 168 119 296 274 296c43 0 95 -14 134 -35c-34 85 -92 156 -166 211c-63 -33 -128 -68 -171 -93c-1 0 -3 -1 -5 -1c-6 0 -10 4 -10 10c0 4 2 7 5 9c41 24 102 57 162 88c-41 28 -86 50 -135 68c-4 1 -7 5 -7 9c0 6 4 10 10 10
c1 0 2 0 4 -1c55 -19 104 -45 148 -76c53 28 104 53 139 70c1 1 2 1 4 1c6 0 10 -4 10 -10c0 -4 -2 -7 -6 -9c-33 -16 -80 -39 -129 -65c127 -96 200 -238 200 -398c0 -193 -99 -327 -241 -327zM100 236c0 -145 70 -223 200 -223s221 125 221 307c0 52 -8 101 -22 146
c-35 26 -96 46 -145 46c-144 0 -254 -119 -254 -276z" />
    <glyph glyph-name="dcaron" unicode="&#x10f;" 
d="M224 -7c-97 0 -163 88 -163 214c0 193 86 338 202 338c44 0 92 -21 129 -54c5 113 18 236 34 319c1 5 5 9 10 9c6 0 10 -4 10 -10c0 -7 -38 -245 -38 -447c0 -76 8 -212 13 -240c8 -47 31 -97 52 -112c2 -2 4 -5 4 -8c0 -6 -4 -10 -10 -10c-2 0 -4 1 -6 2
c-22 16 -45 59 -56 104c-54 -72 -111 -105 -181 -105zM81 207c0 -116 58 -194 143 -194c68 0 121 34 176 112c-5 41 -12 166 -12 237c0 31 1 66 2 102c-34 38 -84 61 -127 61c-103 0 -182 -136 -182 -318zM500 452c0 2 1 3 2 5c30 50 47 102 47 148c0 37 -10 67 -29 87
c-2 2 -3 4 -3 7c0 6 4 10 10 10c3 0 5 -1 7 -3c23 -24 35 -59 35 -101c0 -51 -18 -106 -50 -158c-2 -3 -5 -5 -9 -5c-6 0 -10 4 -10 10z" />
    <glyph glyph-name="dcroat" unicode="&#x111;" 
d="M289 -7c-114 0 -193 88 -193 215c0 196 98 342 232 342c52 0 109 -20 151 -51c4 64 10 130 17 191c-112 -8 -184 -20 -190 -20s-10 4 -10 10c0 5 4 9 9 10c64 9 129 15 193 20c4 34 9 66 13 94c1 5 5 9 10 9c6 0 10 -4 10 -10c0 -2 -5 -37 -12 -92l70 3c6 0 10 -4 10 -10
c0 -5 -4 -10 -10 -10c-26 -1 -50 -2 -72 -3c-11 -92 -24 -228 -24 -356c0 -78 8 -217 13 -246c8 -49 31 -100 52 -115c2 -2 4 -5 4 -8c0 -6 -4 -10 -10 -10c-2 0 -4 1 -6 2c-25 18 -51 73 -60 127l-1 5c-58 -66 -122 -97 -196 -97zM116 208c0 -116 70 -195 173 -195
c74 0 135 33 194 104c-5 55 -10 156 -10 218c0 42 2 90 5 140l-1 -1c-38 34 -97 56 -149 56c-121 0 -212 -136 -212 -322z" />
    <glyph glyph-name="e" unicode="e" 
d="M321 -5c-147 0 -223 82 -223 241c0 208 134 309 249 309c86 0 174 -57 174 -111c0 -37 -15 -58 -65 -94c-78 -56 -215 -123 -333 -166c17 -103 81 -159 198 -159c77 0 141 25 208 84c3 2 5 2 7 2c6 0 10 -4 10 -10c0 -3 -1 -6 -3 -8c-72 -61 -139 -88 -222 -88zM118 236
c0 -15 1 -29 2 -42c116 43 249 107 324 162c46 33 57 48 57 78c0 42 -80 91 -154 91c-109 0 -229 -91 -229 -289z" />
    <glyph glyph-name="eacute" unicode="&#xe9;" 
d="M321 -5c-147 0 -223 82 -223 241c0 208 134 309 249 309c86 0 174 -57 174 -111c0 -37 -15 -58 -65 -94c-78 -56 -215 -123 -333 -166c17 -103 81 -159 198 -159c77 0 141 25 208 84c3 2 5 2 7 2c6 0 10 -4 10 -10c0 -3 -1 -6 -3 -8c-72 -61 -139 -88 -222 -88zM118 236
c0 -15 1 -29 2 -42c116 43 249 107 324 162c46 33 57 48 57 78c0 42 -80 91 -154 91c-109 0 -229 -91 -229 -289zM199 635c0 3 2 6 4 8l202 151c2 1 4 2 6 2c6 0 10 -4 10 -10c0 -3 -2 -6 -4 -8l-202 -151c-2 -1 -4 -2 -6 -2c-6 0 -10 4 -10 10z" />
    <glyph glyph-name="ebreve" unicode="&#x115;" 
d="M321 -5c-147 0 -223 82 -223 241c0 208 134 309 249 309c86 0 174 -57 174 -111c0 -37 -15 -58 -65 -94c-78 -56 -215 -123 -333 -166c17 -103 81 -159 198 -159c77 0 141 25 208 84c3 2 5 2 7 2c6 0 10 -4 10 -10c0 -3 -1 -6 -3 -8c-72 -61 -139 -88 -222 -88zM118 236
c0 -15 1 -29 2 -42c116 43 249 107 324 162c46 33 57 48 57 78c0 42 -80 91 -154 91c-109 0 -229 -91 -229 -289zM126 776v3c0 6 4 10 10 10c5 0 9 -3 10 -8c18 -64 88 -109 171 -109c81 0 143 44 157 111c1 5 5 8 10 8c6 0 10 -4 10 -10v-2c-17 -77 -87 -127 -177 -127
c-91 0 -170 51 -191 124z" />
    <glyph glyph-name="ecaron" unicode="&#x11b;" 
d="M321 -5c-147 0 -223 82 -223 241c0 208 134 309 249 309c86 0 174 -57 174 -111c0 -37 -15 -58 -65 -94c-78 -56 -215 -123 -333 -166c17 -103 81 -159 198 -159c77 0 141 25 208 84c3 2 5 2 7 2c6 0 10 -4 10 -10c0 -3 -1 -6 -3 -8c-72 -61 -139 -88 -222 -88zM118 236
c0 -15 1 -29 2 -42c116 43 249 107 324 162c46 33 57 48 57 78c0 42 -80 91 -154 91c-109 0 -229 -91 -229 -289zM118 786c0 6 4 10 10 10c3 0 5 -1 7 -3c44 -41 97 -82 165 -126c66 41 127 82 186 127c2 1 4 2 6 2c6 0 10 -4 10 -10c0 -3 -2 -6 -4 -8
c-65 -49 -130 -92 -193 -131c-1 -1 -3 -2 -5 -2s-4 1 -6 2c-70 46 -127 89 -173 132c-2 2 -3 4 -3 7z" />
    <glyph glyph-name="ecircumflex" unicode="&#xea;" 
d="M321 -5c-147 0 -223 82 -223 241c0 208 134 309 249 309c86 0 174 -57 174 -111c0 -37 -15 -58 -65 -94c-78 -56 -215 -123 -333 -166c17 -103 81 -159 198 -159c77 0 141 25 208 84c3 2 5 2 7 2c6 0 10 -4 10 -10c0 -3 -1 -6 -3 -8c-72 -61 -139 -88 -222 -88zM118 236
c0 -15 1 -29 2 -42c116 43 249 107 324 162c46 33 57 48 57 78c0 42 -80 91 -154 91c-109 0 -229 -91 -229 -289zM118 655c0 3 2 6 4 8c65 49 130 92 193 131c1 1 3 2 5 2s4 -1 6 -2c70 -46 127 -89 173 -132c2 -2 3 -4 3 -7c0 -6 -4 -10 -10 -10c-3 0 -5 1 -7 3
c-44 41 -97 82 -165 126c-66 -41 -127 -82 -186 -127c-2 -1 -4 -2 -6 -2c-6 0 -10 4 -10 10z" />
    <glyph glyph-name="edieresis" unicode="&#xeb;" 
d="M321 -5c-147 0 -223 82 -223 241c0 208 134 309 249 309c86 0 174 -57 174 -111c0 -37 -15 -58 -65 -94c-78 -56 -215 -123 -333 -166c17 -103 81 -159 198 -159c77 0 141 25 208 84c3 2 5 2 7 2c6 0 10 -4 10 -10c0 -3 -1 -6 -3 -8c-72 -61 -139 -88 -222 -88zM118 236
c0 -15 1 -29 2 -42c116 43 249 107 324 162c46 33 57 48 57 78c0 42 -80 91 -154 91c-109 0 -229 -91 -229 -289zM199 709c0 9 1 17 3 27c1 5 5 8 10 8c6 0 10 -4 10 -10c0 -4 -3 -15 -3 -25c0 -21 6 -43 6 -48c0 -6 -4 -10 -10 -10c-5 0 -9 4 -10 8c-4 20 -6 36 -6 50z
M398 672c0 5 2 10 2 32c0 30 -1 38 -1 42c0 6 4 10 10 10c5 0 10 -4 10 -10c1 -10 1 -27 1 -42s0 -27 -2 -34c-1 -5 -5 -8 -10 -8c-6 0 -10 4 -10 10z" />
    <glyph glyph-name="edotaccent" unicode="&#x117;" 
d="M321 -5c-147 0 -223 82 -223 241c0 208 134 309 249 309c86 0 174 -57 174 -111c0 -37 -15 -58 -65 -94c-78 -56 -215 -123 -333 -166c17 -103 81 -159 198 -159c77 0 141 25 208 84c3 2 5 2 7 2c6 0 10 -4 10 -10c0 -3 -1 -6 -3 -8c-72 -61 -139 -88 -222 -88zM118 236
c0 -15 1 -29 2 -42c116 43 249 107 324 162c46 33 57 48 57 78c0 42 -80 91 -154 91c-109 0 -229 -91 -229 -289zM278 726c0 35 10 51 34 51c18 0 31 -14 31 -32c0 -22 -16 -54 -37 -76c-2 -2 -4 -3 -7 -3c-4 0 -8 3 -9 6c-5 1 -8 4 -9 9c-2 18 -3 33 -3 45z" />
    <glyph glyph-name="egrave" unicode="&#xe8;" 
d="M321 -5c-147 0 -223 82 -223 241c0 208 134 309 249 309c86 0 174 -57 174 -111c0 -37 -15 -58 -65 -94c-78 -56 -215 -123 -333 -166c17 -103 81 -159 198 -159c77 0 141 25 208 84c3 2 5 2 7 2c6 0 10 -4 10 -10c0 -3 -1 -6 -3 -8c-72 -61 -139 -88 -222 -88zM118 236
c0 -15 1 -29 2 -42c116 43 249 107 324 162c46 33 57 48 57 78c0 42 -80 91 -154 91c-109 0 -229 -91 -229 -289zM199 786c0 6 4 10 10 10c2 0 4 -1 6 -2l202 -151c2 -2 4 -5 4 -8c0 -6 -4 -10 -10 -10c-2 0 -4 1 -6 2l-202 151c-2 2 -4 5 -4 8z" />
    <glyph glyph-name="emacron" unicode="&#x113;" 
d="M321 -5c-147 0 -223 82 -223 241c0 208 134 309 249 309c86 0 174 -57 174 -111c0 -37 -15 -58 -65 -94c-78 -56 -215 -123 -333 -166c17 -103 81 -159 198 -159c77 0 141 25 208 84c3 2 5 2 7 2c6 0 10 -4 10 -10c0 -3 -1 -6 -3 -8c-72 -61 -139 -88 -222 -88zM112 671
c0 5 4 9 9 10c106 15 287 22 376 22c6 0 10 -4 10 -10s-4 -10 -10 -10c-216 0 -371 -22 -375 -22c-6 0 -10 4 -10 10zM118 236c0 -15 1 -29 2 -42c116 43 249 107 324 162c46 33 57 48 57 78c0 42 -80 91 -154 91c-109 0 -229 -91 -229 -289z" />
    <glyph glyph-name="eogonek" unicode="&#x119;" 
d="M321 -5c-147 0 -223 82 -223 241c0 208 134 309 249 309c86 0 174 -57 174 -111c0 -37 -15 -58 -65 -94c-78 -56 -215 -123 -333 -166c17 -103 81 -159 198 -159c77 0 141 25 208 84c3 2 5 2 7 2c6 0 10 -4 10 -10c0 -3 -1 -6 -3 -8c-32 -27 -64 -48 -96 -62l-1 -1
c-70 -37 -119 -90 -119 -128c0 -34 30 -59 69 -59c34 0 75 16 103 41c2 1 4 2 7 2c6 0 10 -4 10 -10c0 -3 -1 -6 -3 -8c-32 -27 -78 -45 -117 -45c-50 0 -89 34 -89 79c0 33 27 73 71 108c-18 -3 -37 -5 -57 -5zM118 236c0 -15 1 -29 2 -42c116 43 249 107 324 162
c46 33 57 48 57 78c0 42 -80 91 -154 91c-109 0 -229 -91 -229 -289z" />
    <glyph glyph-name="uni0259" unicode="&#x259;" 
d="M299 545c147 0 223 -82 223 -241c0 -208 -134 -309 -249 -309c-86 0 -174 57 -174 111c0 37 15 58 65 94c78 56 215 123 333 166c-17 103 -81 159 -198 159c-77 0 -141 -25 -208 -84c-3 -2 -5 -2 -7 -2c-6 0 -10 4 -10 10c0 3 1 6 3 8c72 61 139 88 222 88zM119 106
c0 -42 80 -91 154 -91c109 0 229 91 229 289c0 15 -1 29 -2 42c-116 -43 -249 -107 -324 -162c-46 -33 -57 -48 -57 -78z" />
    <glyph glyph-name="f" unicode="f" 
d="M244 -62c-6 0 -10 4 -10 10s31 66 31 186c0 43 -4 265 -6 380c-26 -1 -51 -1 -76 -1c-31 0 -61 1 -90 2c-6 0 -10 5 -10 10c0 6 4 10 10 10c29 -1 58 -2 90 -2c26 0 52 1 75 1v43c0 169 46 230 180 230c32 0 64 -4 91 -10c5 -1 8 -5 8 -10c0 -6 -4 -10 -10 -10
c-7 0 -38 10 -89 10c-121 0 -160 -51 -160 -210v-42c152 7 247 29 252 29c6 0 10 -4 10 -10c0 -5 -4 -9 -8 -10c-76 -15 -164 -25 -253 -29c2 -115 6 -337 6 -381c0 -72 -11 -135 -32 -189c-1 -4 -5 -7 -9 -7z" />
    <glyph glyph-name="g" unicode="g" 
d="M286 -208c-78 0 -150 22 -202 61c-2 2 -4 5 -4 8c0 6 4 10 10 10c2 0 4 -1 6 -2c48 -36 116 -57 190 -57c140 0 201 71 201 233c0 21 -1 60 -2 106c-67 -76 -138 -111 -222 -111c-120 0 -182 74 -182 217c0 168 90 289 217 289c58 0 119 -26 177 -77c2 27 6 56 14 80
c2 4 5 7 10 7c6 0 10 -4 10 -10c0 -3 -14 -39 -14 -91c0 -56 12 -338 12 -410c0 -173 -70 -253 -221 -253zM101 257c0 -132 53 -197 162 -197c85 0 154 38 221 121c-4 98 -8 214 -9 262c-58 55 -119 83 -177 83c-115 0 -197 -112 -197 -269z" />
    <glyph glyph-name="gbreve" unicode="&#x11f;" 
d="M286 -208c-78 0 -150 22 -202 61c-2 2 -4 5 -4 8c0 6 4 10 10 10c2 0 4 -1 6 -2c48 -36 116 -57 190 -57c140 0 201 71 201 233c0 21 -1 60 -2 106c-67 -76 -138 -111 -222 -111c-120 0 -182 74 -182 217c0 168 90 289 217 289c58 0 119 -26 177 -77c2 27 6 56 14 80
c2 4 5 7 10 7c6 0 10 -4 10 -10c0 -3 -14 -39 -14 -91c0 -56 12 -338 12 -410c0 -173 -70 -253 -221 -253zM101 257c0 -132 53 -197 162 -197c85 0 154 38 221 121c-4 98 -8 214 -9 262c-58 55 -119 83 -177 83c-115 0 -197 -112 -197 -269zM126 776v3c0 6 4 10 10 10
c5 0 9 -3 10 -8c18 -64 88 -109 171 -109c81 0 143 44 157 111c1 5 5 8 10 8c6 0 10 -4 10 -10v-2c-17 -77 -87 -127 -177 -127c-91 0 -170 51 -191 124z" />
    <glyph glyph-name="gcircumflex" unicode="&#x11d;" 
d="M286 -208c-78 0 -150 22 -202 61c-2 2 -4 5 -4 8c0 6 4 10 10 10c2 0 4 -1 6 -2c48 -36 116 -57 190 -57c140 0 201 71 201 233c0 21 -1 60 -2 106c-67 -76 -138 -111 -222 -111c-120 0 -182 74 -182 217c0 168 90 289 217 289c58 0 119 -26 177 -77c2 27 6 56 14 80
c2 4 5 7 10 7c6 0 10 -4 10 -10c0 -3 -14 -39 -14 -91c0 -56 12 -338 12 -410c0 -173 -70 -253 -221 -253zM101 257c0 -132 53 -197 162 -197c85 0 154 38 221 121c-4 98 -8 214 -9 262c-58 55 -119 83 -177 83c-115 0 -197 -112 -197 -269zM118 655c0 3 2 6 4 8
c65 49 130 92 193 131c1 1 3 2 5 2s4 -1 6 -2c70 -46 127 -89 173 -132c2 -2 3 -4 3 -7c0 -6 -4 -10 -10 -10c-3 0 -5 1 -7 3c-44 41 -97 82 -165 126c-66 -41 -127 -82 -186 -127c-2 -1 -4 -2 -6 -2c-6 0 -10 4 -10 10z" />
    <glyph glyph-name="uni0123" unicode="&#x123;" 
d="M286 -208c-78 0 -150 22 -202 61c-2 2 -4 5 -4 8c0 6 4 10 10 10c2 0 4 -1 6 -2c48 -36 116 -57 190 -57c140 0 201 71 201 233c0 21 -1 60 -2 106c-67 -76 -138 -111 -222 -111c-120 0 -182 74 -182 217c0 168 90 289 217 289c58 0 119 -26 177 -77c2 27 6 56 14 80
c2 4 5 7 10 7c6 0 10 -4 10 -10c0 -3 -14 -39 -14 -91c0 -56 12 -338 12 -410c0 -173 -70 -253 -221 -253zM101 257c0 -132 53 -197 162 -197c85 0 154 38 221 121c-4 98 -8 214 -9 262c-58 55 -119 83 -177 83c-115 0 -197 -112 -197 -269zM253 617c0 1 0 3 1 4
c12 34 58 115 95 159c2 3 5 4 8 4c6 0 10 -4 10 -10c0 -2 -1 -5 -2 -6c-37 -44 -81 -122 -93 -154c-1 -4 -5 -7 -9 -7c-6 0 -10 4 -10 10z" />
    <glyph glyph-name="gdotaccent" unicode="&#x121;" 
d="M286 -208c-78 0 -150 22 -202 61c-2 2 -4 5 -4 8c0 6 4 10 10 10c2 0 4 -1 6 -2c48 -36 116 -57 190 -57c140 0 201 71 201 233c0 21 -1 60 -2 106c-67 -76 -138 -111 -222 -111c-120 0 -182 74 -182 217c0 168 90 289 217 289c58 0 119 -26 177 -77c2 27 6 56 14 80
c2 4 5 7 10 7c6 0 10 -4 10 -10c0 -3 -14 -39 -14 -91c0 -56 12 -338 12 -410c0 -173 -70 -253 -221 -253zM101 257c0 -132 53 -197 162 -197c85 0 154 38 221 121c-4 98 -8 214 -9 262c-58 55 -119 83 -177 83c-115 0 -197 -112 -197 -269zM278 726c0 35 10 51 34 51
c18 0 31 -14 31 -32c0 -22 -16 -54 -37 -76c-2 -2 -4 -3 -7 -3c-4 0 -8 3 -9 6c-5 1 -8 4 -9 9c-2 18 -3 33 -3 45z" />
    <glyph glyph-name="h" unicode="h" 
d="M482 -19c-6 0 -10 4 -10 10c0 5 16 131 16 301c0 152 -40 237 -109 237c-64 0 -152 -76 -225 -193c-2 -73 -7 -205 -14 -337c0 -6 -5 -10 -10 -10c-6 0 -10 4 -10 10c0 7 14 221 14 369c0 178 -25 426 -25 432s4 10 10 10c5 0 10 -4 10 -9c16 -179 25 -321 25 -428
c73 108 159 176 225 176c83 0 129 -93 129 -257c0 -100 -5 -198 -16 -302c-1 -5 -5 -9 -10 -9z" />
    <glyph glyph-name="hbar" unicode="&#x127;" 
d="M482 -19c-6 0 -10 4 -10 10c0 5 16 131 16 301c0 152 -40 237 -109 237c-64 0 -152 -76 -225 -193c-2 -73 -7 -205 -14 -337c0 -6 -5 -10 -10 -10c-6 0 -10 4 -10 10c0 7 14 221 14 369c0 99 -8 220 -15 308c-28 -3 -45 -6 -48 -6c-6 0 -10 4 -10 10c0 5 4 9 9 10l48 6
c-5 60 -9 102 -9 104c0 6 4 10 10 10c5 0 10 -4 10 -9l9 -103c72 9 145 14 216 16c6 0 10 -4 10 -10c0 -5 -4 -10 -10 -10c-91 -3 -165 -10 -215 -16c10 -122 15 -224 15 -305c73 108 159 176 225 176c83 0 129 -93 129 -257c0 -100 -5 -198 -16 -302c-1 -5 -5 -9 -10 -9z
" />
    <glyph glyph-name="hcircumflex" unicode="&#x125;" 
d="M482 -19c-6 0 -10 4 -10 10c0 5 16 131 16 301c0 152 -40 237 -109 237c-64 0 -152 -76 -225 -193c-2 -73 -7 -205 -14 -337c0 -6 -5 -10 -10 -10c-6 0 -10 4 -10 10c0 7 14 221 14 369c0 178 -25 426 -25 432s4 10 10 10c5 0 10 -4 10 -9c16 -179 25 -321 25 -428
c73 108 159 176 225 176c83 0 129 -93 129 -257c0 -100 -5 -198 -16 -302c-1 -5 -5 -9 -10 -9zM118 915c0 3 2 6 4 8c65 49 130 92 193 131c1 1 3 2 5 2s4 -1 6 -2c70 -46 127 -89 173 -132c2 -2 3 -4 3 -7c0 -6 -4 -10 -10 -10c-3 0 -5 1 -7 3c-44 41 -97 82 -165 126
c-66 -41 -127 -82 -186 -127c-2 -1 -4 -2 -6 -2c-6 0 -10 4 -10 10z" />
    <glyph glyph-name="i" unicode="i" 
d="M125 -5c-6 0 -10 4 -10 10s4 10 10 10c63 0 127 3 184 7c-5 38 -8 93 -8 154c0 135 21 311 21 340c0 10 -1 11 -9 11c-80 0 -170 -14 -176 -14s-10 4 -10 10c0 5 4 9 9 10c63 9 134 14 177 14c20 0 29 -10 29 -31c0 -34 -21 -205 -21 -340c0 -61 3 -114 8 -153
c93 7 162 15 166 15c6 0 10 -4 10 -10c0 -5 -4 -9 -9 -10c-108 -13 -270 -23 -371 -23zM269 746c0 35 10 51 34 51c18 0 31 -14 31 -32c0 -31 -32 -79 -44 -79c-13 0 -21 11 -21 60z" />
    <glyph glyph-name="dotlessi" unicode="&#x131;" 
d="M125 -5c-6 0 -10 4 -10 10s4 10 10 10c63 0 127 3 184 7c-5 38 -8 93 -8 154c0 135 21 311 21 340c0 10 -1 11 -9 11c-80 0 -170 -14 -176 -14s-10 4 -10 10c0 5 4 9 9 10c63 9 134 14 177 14c20 0 29 -10 29 -31c0 -34 -21 -205 -21 -340c0 -61 3 -114 8 -153
c93 7 162 15 166 15c6 0 10 -4 10 -10c0 -5 -4 -9 -9 -10c-108 -13 -270 -23 -371 -23z" />
    <glyph glyph-name="iacute" unicode="&#xed;" 
d="M125 -5c-6 0 -10 4 -10 10s4 10 10 10c63 0 127 3 184 7c-5 38 -8 93 -8 154c0 135 21 311 21 340c0 10 -1 11 -9 11c-80 0 -170 -14 -176 -14s-10 4 -10 10c0 5 4 9 9 10c63 9 134 14 177 14c20 0 29 -10 29 -31c0 -34 -21 -205 -21 -340c0 -61 3 -114 8 -153
c93 7 162 15 166 15c6 0 10 -4 10 -10c0 -5 -4 -9 -9 -10c-108 -13 -270 -23 -371 -23zM199 635c0 3 2 6 4 8l202 151c2 1 4 2 6 2c6 0 10 -4 10 -10c0 -3 -2 -6 -4 -8l-202 -151c-2 -1 -4 -2 -6 -2c-6 0 -10 4 -10 10z" />
    <glyph glyph-name="ibreve" unicode="&#x12d;" 
d="M125 -5c-6 0 -10 4 -10 10s4 10 10 10c63 0 127 3 184 7c-5 38 -8 93 -8 154c0 135 21 311 21 340c0 10 -1 11 -9 11c-80 0 -170 -14 -176 -14s-10 4 -10 10c0 5 4 9 9 10c63 9 134 14 177 14c20 0 29 -10 29 -31c0 -34 -21 -205 -21 -340c0 -61 3 -114 8 -153
c93 7 162 15 166 15c6 0 10 -4 10 -10c0 -5 -4 -9 -9 -10c-108 -13 -270 -23 -371 -23zM126 776v3c0 6 4 10 10 10c5 0 9 -3 10 -8c18 -64 88 -109 171 -109c81 0 143 44 157 111c1 5 5 8 10 8c6 0 10 -4 10 -10v-2c-17 -77 -87 -127 -177 -127c-91 0 -170 51 -191 124z" />
    <glyph glyph-name="icircumflex" unicode="&#xee;" 
d="M125 -5c-6 0 -10 4 -10 10s4 10 10 10c63 0 127 3 184 7c-5 38 -8 93 -8 154c0 135 21 311 21 340c0 10 -1 11 -9 11c-80 0 -170 -14 -176 -14s-10 4 -10 10c0 5 4 9 9 10c63 9 134 14 177 14c20 0 29 -10 29 -31c0 -34 -21 -205 -21 -340c0 -61 3 -114 8 -153
c93 7 162 15 166 15c6 0 10 -4 10 -10c0 -5 -4 -9 -9 -10c-108 -13 -270 -23 -371 -23zM118 655c0 3 2 6 4 8c65 49 130 92 193 131c1 1 3 2 5 2s4 -1 6 -2c70 -46 127 -89 173 -132c2 -2 3 -4 3 -7c0 -6 -4 -10 -10 -10c-3 0 -5 1 -7 3c-44 41 -97 82 -165 126
c-66 -41 -127 -82 -186 -127c-2 -1 -4 -2 -6 -2c-6 0 -10 4 -10 10z" />
    <glyph glyph-name="idieresis" unicode="&#xef;" 
d="M125 -5c-6 0 -10 4 -10 10s4 10 10 10c63 0 127 3 184 7c-5 38 -8 93 -8 154c0 135 21 311 21 340c0 10 -1 11 -9 11c-80 0 -170 -14 -176 -14s-10 4 -10 10c0 5 4 9 9 10c63 9 134 14 177 14c20 0 29 -10 29 -31c0 -34 -21 -205 -21 -340c0 -61 3 -114 8 -153
c93 7 162 15 166 15c6 0 10 -4 10 -10c0 -5 -4 -9 -9 -10c-108 -13 -270 -23 -371 -23zM199 709c0 9 1 17 3 27c1 5 5 8 10 8c6 0 10 -4 10 -10c0 -4 -3 -15 -3 -25c0 -21 6 -43 6 -48c0 -6 -4 -10 -10 -10c-5 0 -9 4 -10 8c-4 20 -6 36 -6 50zM398 672c0 5 2 10 2 32
c0 30 -1 38 -1 42c0 6 4 10 10 10c5 0 10 -4 10 -10c1 -10 1 -27 1 -42s0 -27 -2 -34c-1 -5 -5 -8 -10 -8c-6 0 -10 4 -10 10z" />
    <glyph glyph-name="igrave" unicode="&#xec;" 
d="M125 -5c-6 0 -10 4 -10 10s4 10 10 10c63 0 127 3 184 7c-5 38 -8 93 -8 154c0 135 21 311 21 340c0 10 -1 11 -9 11c-80 0 -170 -14 -176 -14s-10 4 -10 10c0 5 4 9 9 10c63 9 134 14 177 14c20 0 29 -10 29 -31c0 -34 -21 -205 -21 -340c0 -61 3 -114 8 -153
c93 7 162 15 166 15c6 0 10 -4 10 -10c0 -5 -4 -9 -9 -10c-108 -13 -270 -23 -371 -23zM199 786c0 6 4 10 10 10c2 0 4 -1 6 -2l202 -151c2 -2 4 -5 4 -8c0 -6 -4 -10 -10 -10c-2 0 -4 1 -6 2l-202 151c-2 2 -4 5 -4 8z" />
    <glyph glyph-name="ij" unicode="&#x133;" 
d="M349 -211c-51 0 -95 17 -123 47c-2 2 -3 4 -3 7c0 6 4 10 10 10c3 0 5 -1 7 -3c25 -26 63 -41 109 -41c80 0 127 82 127 228c0 184 -37 494 -37 503c0 6 4 10 10 10c5 0 9 -4 10 -9c17 -116 37 -418 37 -504c0 -156 -53 -248 -147 -248zM128 726c0 35 10 51 34 51
c18 0 31 -14 31 -32c0 -22 -16 -54 -37 -76c-2 -2 -4 -3 -7 -3c-4 0 -8 3 -9 6c-5 1 -8 4 -9 9c-2 18 -3 33 -3 45zM130 165c0 157 9 328 15 372c1 5 5 9 10 9c6 0 10 -4 10 -10c0 -7 -15 -139 -15 -371c0 -104 9 -161 9 -165c0 -6 -4 -10 -10 -10c-5 0 -9 4 -10 9
c-5 39 -9 99 -9 166zM423 736c0 27 11 47 31 47c19 0 30 -15 30 -39c0 -15 -4 -35 -13 -59c-2 -5 -5 -7 -9 -7c-3 0 -7 2 -9 4c-3 -2 -7 -4 -10 -4c-4 0 -7 2 -9 6c-7 16 -11 35 -11 52z" />
    <glyph glyph-name="imacron" unicode="&#x12b;" 
d="M125 -5c-6 0 -10 4 -10 10s4 10 10 10c63 0 127 3 184 7c-5 38 -8 93 -8 154c0 135 21 311 21 340c0 10 -1 11 -9 11c-80 0 -170 -14 -176 -14s-10 4 -10 10c0 5 4 9 9 10c63 9 134 14 177 14c20 0 29 -10 29 -31c0 -34 -21 -205 -21 -340c0 -61 3 -114 8 -153
c93 7 162 15 166 15c6 0 10 -4 10 -10c0 -5 -4 -9 -9 -10c-108 -13 -270 -23 -371 -23zM112 671c0 5 4 9 9 10c106 15 287 22 376 22c6 0 10 -4 10 -10s-4 -10 -10 -10c-216 0 -371 -22 -375 -22c-6 0 -10 4 -10 10z" />
    <glyph glyph-name="iogonek" unicode="&#x12f;" 
d="M125 -5c-6 0 -10 4 -10 10s4 10 10 10c63 0 127 3 184 7c-5 38 -8 93 -8 154c0 135 21 311 21 340c0 10 -1 11 -9 11c-80 0 -170 -14 -176 -14s-10 4 -10 10c0 5 4 9 9 10c63 9 134 14 177 14c20 0 29 -10 29 -31c0 -34 -21 -205 -21 -340c0 -61 3 -114 8 -153
c93 7 162 15 166 15c6 0 10 -4 10 -10c0 -5 -4 -9 -9 -10c-47 -6 -103 -11 -160 -15h-1c-70 -37 -119 -90 -119 -128c0 -34 30 -59 69 -59c34 0 75 16 103 41c2 1 4 2 7 2c6 0 10 -4 10 -10c0 -3 -1 -6 -3 -8c-32 -27 -78 -45 -117 -45c-50 0 -89 34 -89 79
c0 39 38 87 96 126c-61 -4 -121 -6 -167 -6zM269 746c0 35 10 51 34 51c18 0 31 -14 31 -32c0 -31 -32 -79 -44 -79c-13 0 -21 11 -21 60z" />
    <glyph glyph-name="itilde" unicode="&#x129;" 
d="M125 -5c-6 0 -10 4 -10 10s4 10 10 10c63 0 127 3 184 7c-5 38 -8 93 -8 154c0 135 21 311 21 340c0 10 -1 11 -9 11c-80 0 -170 -14 -176 -14s-10 4 -10 10c0 5 4 9 9 10c63 9 134 14 177 14c20 0 29 -10 29 -31c0 -34 -21 -205 -21 -340c0 -61 3 -114 8 -153
c93 7 162 15 166 15c6 0 10 -4 10 -10c0 -5 -4 -9 -9 -10c-108 -13 -270 -23 -371 -23zM87 654v2c14 74 67 125 131 125c50 0 80 -30 106 -58c27 -27 50 -51 92 -51c50 0 88 43 97 110c1 5 5 9 10 9c6 0 10 -4 10 -10v-2c-11 -76 -57 -127 -117 -127c-50 0 -80 30 -106 58
c-27 27 -50 51 -92 51c-54 0 -99 -44 -111 -109c-1 -4 -5 -8 -10 -8c-6 0 -10 4 -10 10z" />
    <glyph glyph-name="j" unicode="j" 
d="M280 -221c-95 0 -149 46 -201 169c-1 2 -1 3 -1 4c0 6 4 10 10 10c4 0 8 -3 9 -6c50 -117 97 -157 183 -157c71 0 127 91 127 208c0 81 -8 362 -17 470c-3 37 -6 41 -38 45c-21 3 -51 4 -84 4c-59 0 -96 -5 -104 -5c-6 0 -10 4 -10 10c0 5 4 9 9 10c32 4 69 5 105 5
c32 0 63 -1 86 -4c43 -6 53 -17 56 -63c9 -108 17 -391 17 -472c0 -128 -64 -228 -147 -228zM314 746c0 27 11 47 31 47c19 0 30 -15 30 -39c0 -40 -13 -67 -31 -67s-30 22 -30 59z" />
    <glyph glyph-name="uni0237" unicode="&#x237;" 
d="M280 -221c-95 0 -149 46 -201 169c-1 2 -1 3 -1 4c0 6 4 10 10 10c4 0 8 -3 9 -6c50 -117 97 -157 183 -157c71 0 127 91 127 208c0 81 -8 362 -17 470c-3 37 -6 41 -38 45c-21 3 -51 4 -84 4c-59 0 -96 -5 -104 -5c-6 0 -10 4 -10 10c0 5 4 9 9 10c32 4 69 5 105 5
c32 0 63 -1 86 -4c43 -6 53 -17 56 -63c9 -108 17 -391 17 -472c0 -128 -64 -228 -147 -228z" />
    <glyph glyph-name="jcircumflex" unicode="&#x135;" 
d="M280 -221c-95 0 -149 46 -201 169c-1 2 -1 3 -1 4c0 6 4 10 10 10c4 0 8 -3 9 -6c50 -117 97 -157 183 -157c71 0 127 91 127 208c0 81 -8 362 -17 470c-3 37 -6 41 -38 45c-21 3 -51 4 -84 4c-59 0 -96 -5 -104 -5c-6 0 -10 4 -10 10c0 5 4 9 9 10c32 4 69 5 105 5
c32 0 63 -1 86 -4c43 -6 53 -17 56 -63c9 -108 17 -391 17 -472c0 -128 -64 -228 -147 -228zM118 655c0 3 2 6 4 8c65 49 130 92 193 131c1 1 3 2 5 2s4 -1 6 -2c70 -46 127 -89 173 -132c2 -2 3 -4 3 -7c0 -6 -4 -10 -10 -10c-3 0 -5 1 -7 3c-44 41 -97 82 -165 126
c-66 -41 -127 -82 -186 -127c-2 -1 -4 -2 -6 -2c-6 0 -10 4 -10 10z" />
    <glyph glyph-name="k" unicode="k" 
d="M129 -12c-6 0 -10 4 -10 11c0 2 23 246 23 522c0 122 -9 276 -9 279c0 6 4 10 10 10c5 0 10 -4 10 -10c5 -89 9 -209 9 -279c0 -77 -3 -183 -8 -290c153 87 279 195 369 315c2 2 5 4 8 4c6 0 10 -4 10 -10c0 -2 -1 -4 -2 -6c-65 -86 -147 -166 -244 -236
c81 -80 189 -204 257 -290c1 -1 2 -4 2 -6c0 -6 -4 -10 -10 -10c-3 0 -6 2 -8 4c-68 87 -176 211 -258 290c-39 -28 -81 -54 -125 -79c-4 -74 -8 -148 -14 -210c0 -5 -5 -9 -10 -9z" />
    <glyph glyph-name="uni0137" unicode="&#x137;" 
d="M129 -12c-6 0 -10 4 -10 11c0 2 23 246 23 522c0 122 -9 276 -9 279c0 6 4 10 10 10c5 0 10 -4 10 -10c5 -89 9 -209 9 -279c0 -77 -3 -183 -8 -290c153 87 279 195 369 315c2 2 5 4 8 4c6 0 10 -4 10 -10c0 -2 -1 -4 -2 -6c-65 -86 -147 -166 -244 -236
c81 -80 189 -204 257 -290c1 -1 2 -4 2 -6c0 -6 -4 -10 -10 -10c-3 0 -6 2 -8 4c-68 87 -176 211 -258 290c-39 -28 -81 -54 -125 -79c-4 -74 -8 -148 -14 -210c0 -5 -5 -9 -10 -9zM246 -243c0 2 1 5 2 6c37 44 81 122 93 154c1 4 5 7 9 7c6 0 10 -4 10 -10c0 -1 0 -3 -1 -4
c-12 -34 -58 -115 -95 -159c-2 -3 -5 -4 -8 -4c-6 0 -10 4 -10 10z" />
    <glyph glyph-name="kgreenlandic" unicode="&#x138;" 
d="M129 -12c-6 0 -10 4 -10 10c0 5 23 268 23 543c0 6 4 10 10 10s10 -4 10 -10c0 -82 -3 -196 -8 -310c153 87 279 195 369 315c2 2 5 4 8 4c6 0 10 -4 10 -10c0 -2 -1 -4 -2 -6c-65 -86 -147 -166 -244 -236c81 -80 189 -204 257 -290c1 -1 2 -4 2 -6c0 -6 -4 -10 -10 -10
c-3 0 -6 2 -8 4c-68 87 -176 211 -258 290c-39 -28 -81 -54 -125 -79c-4 -74 -9 -148 -14 -210c0 -5 -5 -9 -10 -9z" />
    <glyph glyph-name="l" unicode="l" 
d="M340 -8c-98 0 -107 70 -107 213c0 157 19 355 51 532c0 5 -4 8 -11 8c-74 0 -192 -23 -196 -23c-6 0 -10 4 -10 10c0 5 4 9 8 10c63 12 153 23 198 23c18 0 31 -12 31 -29c0 -4 -51 -269 -51 -531c0 -141 7 -193 87 -193c49 0 117 19 182 52c2 1 3 1 5 1
c6 0 10 -4 10 -10c0 -4 -2 -7 -6 -9c-67 -34 -138 -54 -191 -54z" />
    <glyph glyph-name="lacute" unicode="&#x13a;" 
d="M340 -8c-98 0 -107 70 -107 213c0 157 19 355 51 532c0 5 -4 8 -11 8c-74 0 -192 -23 -196 -23c-6 0 -10 4 -10 10c0 5 4 9 8 10c63 12 153 23 198 23c18 0 31 -12 31 -29c0 -4 -51 -269 -51 -531c0 -141 7 -193 87 -193c49 0 117 19 182 52c2 1 3 1 5 1
c6 0 10 -4 10 -10c0 -4 -2 -7 -6 -9c-67 -34 -138 -54 -191 -54zM199 895c0 3 2 6 4 8l202 151c2 1 4 2 6 2c6 0 10 -4 10 -10c0 -3 -2 -6 -4 -8l-202 -151c-2 -1 -4 -2 -6 -2c-6 0 -10 4 -10 10z" />
    <glyph glyph-name="lcaron" unicode="&#x13e;" 
d="M340 -8c-98 0 -107 70 -107 213c0 157 19 355 51 532c0 5 -4 8 -11 8c-74 0 -192 -23 -196 -23c-6 0 -10 4 -10 10c0 5 4 9 8 10c63 12 153 23 198 23c18 0 31 -12 31 -29c0 -4 -51 -269 -51 -531c0 -141 7 -193 87 -193c49 0 117 19 182 52c2 1 3 1 5 1
c6 0 10 -4 10 -10c0 -4 -2 -7 -6 -9c-67 -34 -138 -54 -191 -54zM420 452c0 2 1 4 2 5c30 50 47 102 47 148c0 37 -10 67 -29 87c-2 2 -3 4 -3 7c0 6 4 10 10 10c3 0 5 -1 7 -3c23 -24 35 -59 35 -101c0 -51 -18 -106 -50 -158c-2 -3 -5 -5 -9 -5c-6 0 -10 4 -10 10z" />
    <glyph glyph-name="uni013C" unicode="&#x13c;" 
d="M340 -8c-98 0 -107 70 -107 213c0 157 19 355 51 532c0 5 -4 8 -11 8c-74 0 -192 -23 -196 -23c-6 0 -10 4 -10 10c0 5 4 9 8 10c63 12 153 23 198 23c18 0 31 -12 31 -29c0 -4 -51 -269 -51 -531c0 -141 7 -193 87 -193c49 0 117 19 182 52c2 1 3 1 5 1
c6 0 10 -4 10 -10c0 -4 -2 -7 -6 -9c-67 -34 -138 -54 -191 -54zM246 -243c0 2 1 5 2 6c37 44 81 122 93 154c1 4 5 7 9 7c6 0 10 -4 10 -10c0 -1 0 -3 -1 -4c-12 -34 -58 -115 -95 -159c-2 -3 -5 -4 -8 -4c-6 0 -10 4 -10 10z" />
    <glyph glyph-name="ldot" unicode="&#x140;" 
d="M340 -8c-98 0 -107 70 -107 213c0 157 19 355 51 532c0 5 -4 8 -11 8c-74 0 -192 -23 -196 -23c-6 0 -10 4 -10 10c0 5 4 9 8 10c63 12 153 23 198 23c18 0 31 -12 31 -29c0 -4 -51 -269 -51 -531c0 -141 7 -193 87 -193c49 0 117 19 182 52c2 1 3 1 5 1
c6 0 10 -4 10 -10c0 -4 -2 -7 -6 -9c-67 -34 -138 -54 -191 -54zM500 383c0 36 26 62 63 62c42 0 77 -29 77 -64c0 -29 -18 -54 -55 -66c-6 -2 -11 -3 -16 -3c-40 0 -69 27 -69 71z" />
    <glyph glyph-name="lslash" unicode="&#x142;" 
d="M340 -8c-98 0 -107 70 -107 213c0 41 1 84 4 129c-57 -30 -109 -59 -150 -83c-1 0 -3 -1 -5 -1c-6 0 -10 4 -10 10c0 4 2 7 5 9c44 26 100 57 161 89c8 123 24 256 46 379c0 5 -4 8 -11 8c-74 0 -192 -23 -196 -23c-6 0 -10 4 -10 10c0 5 4 9 8 10c63 12 153 23 198 23
c18 0 31 -12 31 -29c0 -3 -32 -169 -45 -367c76 40 159 80 232 112c1 1 3 1 4 1c6 0 10 -4 10 -10c0 -4 -3 -8 -6 -9c-76 -34 -163 -76 -242 -118c-2 -46 -4 -93 -4 -140c0 -141 7 -193 87 -193c49 0 117 19 182 52c2 1 3 1 5 1c6 0 10 -4 10 -10c0 -4 -2 -7 -6 -9
c-67 -34 -138 -54 -191 -54z" />
    <glyph glyph-name="m" unicode="m" 
d="M543 6c-6 0 -10 4 -10 10c2 38 2 115 2 195c0 187 -29 280 -89 280c-42 0 -97 -52 -133 -126c4 -59 7 -139 7 -209c0 -39 -1 -76 -3 -108c0 -5 -5 -9 -10 -9c-6 0 -10 4 -10 11c0 4 3 36 3 106c0 86 -4 184 -11 243c-6 68 -25 103 -52 103c-43 0 -101 -45 -146 -114
c-1 -51 -1 -105 -1 -158c0 -87 1 -169 3 -225c0 -6 -4 -10 -10 -10c-5 0 -10 4 -10 10c-2 55 -3 138 -3 225c0 111 1 230 3 310c0 6 5 10 10 10c6 0 10 -4 10 -10l-2 -119c46 62 101 101 146 101c40 0 65 -43 72 -121c39 66 93 110 137 110c76 0 109 -100 109 -300
c0 -80 0 -157 -2 -195c0 -6 -5 -10 -10 -10z" />
    <glyph glyph-name="n" unicode="n" 
d="M490 -4c-6 0 -10 4 -10 10c0 4 13 146 13 297c0 141 -43 219 -119 219s-175 -114 -240 -277c3 -92 6 -186 5 -250c0 -6 -5 -10 -10 -10c-6 0 -10 4 -10 10c1 104 -8 295 -8 420c0 46 1 91 3 132c0 6 5 10 10 10c6 0 10 -4 10 -10c0 -3 -3 -64 -3 -132c0 -37 1 -79 2 -123
c67 150 162 250 241 250c89 0 139 -87 139 -239c0 -82 -5 -203 -13 -298c0 -5 -5 -9 -10 -9z" />
    <glyph glyph-name="nacute" unicode="&#x144;" 
d="M490 -4c-6 0 -10 4 -10 10c0 4 13 146 13 297c0 141 -43 219 -119 219s-175 -114 -240 -277c3 -92 6 -186 5 -250c0 -6 -5 -10 -10 -10c-6 0 -10 4 -10 10c1 104 -8 295 -8 420c0 46 1 91 3 132c0 6 5 10 10 10c6 0 10 -4 10 -10c0 -3 -3 -64 -3 -132c0 -37 1 -79 2 -123
c67 150 162 250 241 250c89 0 139 -87 139 -239c0 -82 -5 -203 -13 -298c0 -5 -5 -9 -10 -9zM199 635c0 3 2 6 4 8l202 151c2 1 4 2 6 2c6 0 10 -4 10 -10c0 -3 -2 -6 -4 -8l-202 -151c-2 -1 -4 -2 -6 -2c-6 0 -10 4 -10 10z" />
    <glyph glyph-name="napostrophe" unicode="&#x149;" 
d="M8 483c-6 0 -10 4 -10 10c0 3 1 6 3 7c99 88 149 155 158 211c-15 -15 -34 -22 -54 -22c-35 0 -61 24 -61 56c0 35 29 61 68 61c38 0 68 -35 68 -78c0 -65 -53 -143 -165 -242c-2 -2 -4 -3 -7 -3zM191 415c0 46 3 91 3 132c0 6 5 10 10 10c6 0 10 -4 10 -10
c0 -3 -3 -64 -3 -132c0 -37 1 -79 2 -123c67 150 162 250 241 250c89 0 139 -87 139 -239c0 -82 -5 -203 -13 -298c0 -5 -5 -9 -10 -9c-6 0 -10 4 -10 10c0 4 13 146 13 297c0 141 -43 219 -119 219s-175 -114 -240 -278c2 -92 5 -185 5 -249c0 -6 -5 -10 -10 -10
c-6 0 -10 4 -10 10c0 104 -8 295 -8 420z" />
    <glyph glyph-name="ncaron" unicode="&#x148;" 
d="M490 -4c-6 0 -10 4 -10 10c0 4 13 146 13 297c0 141 -43 219 -119 219s-175 -114 -240 -277c3 -92 6 -186 5 -250c0 -6 -5 -10 -10 -10c-6 0 -10 4 -10 10c1 104 -8 295 -8 420c0 46 1 91 3 132c0 6 5 10 10 10c6 0 10 -4 10 -10c0 -3 -3 -64 -3 -132c0 -37 1 -79 2 -123
c67 150 162 250 241 250c89 0 139 -87 139 -239c0 -82 -5 -203 -13 -298c0 -5 -5 -9 -10 -9zM118 786c0 6 4 10 10 10c3 0 5 -1 7 -3c44 -41 97 -82 165 -126c66 41 127 82 186 127c2 1 4 2 6 2c6 0 10 -4 10 -10c0 -3 -2 -6 -4 -8c-65 -49 -130 -92 -193 -131
c-1 -1 -3 -2 -5 -2s-4 1 -6 2c-70 46 -127 89 -173 132c-2 2 -3 4 -3 7z" />
    <glyph glyph-name="uni0146" unicode="&#x146;" 
d="M490 -4c-6 0 -10 4 -10 10c0 4 13 146 13 297c0 141 -43 219 -119 219s-175 -114 -240 -277c3 -92 6 -186 5 -250c0 -6 -5 -10 -10 -10c-6 0 -10 4 -10 10c1 104 -8 295 -8 420c0 46 1 91 3 132c0 6 5 10 10 10c6 0 10 -4 10 -10c0 -3 -3 -64 -3 -132c0 -37 1 -79 2 -123
c67 150 162 250 241 250c89 0 139 -87 139 -239c0 -82 -5 -203 -13 -298c0 -5 -5 -9 -10 -9zM246 -243c0 2 1 5 2 6c37 44 81 122 93 154c1 4 5 7 9 7c6 0 10 -4 10 -10c0 -1 0 -3 -1 -4c-12 -34 -58 -115 -95 -159c-2 -3 -5 -4 -8 -4c-6 0 -10 4 -10 10z" />
    <glyph glyph-name="ntilde" unicode="&#xf1;" 
d="M490 -4c-6 0 -10 4 -10 10c0 4 13 146 13 297c0 141 -43 219 -119 219s-175 -114 -240 -277c3 -92 6 -186 5 -250c0 -6 -5 -10 -10 -10c-6 0 -10 4 -10 10c1 104 -8 295 -8 420c0 46 1 91 3 132c0 6 5 10 10 10c6 0 10 -4 10 -10c0 -3 -3 -64 -3 -132c0 -37 1 -79 2 -123
c67 150 162 250 241 250c89 0 139 -87 139 -239c0 -82 -5 -203 -13 -298c0 -5 -5 -9 -10 -9zM87 654v2c14 74 67 125 131 125c50 0 80 -30 106 -58c27 -27 50 -51 92 -51c50 0 88 43 97 110c1 5 5 9 10 9c6 0 10 -4 10 -10v-2c-11 -76 -57 -127 -117 -127
c-50 0 -80 30 -106 58c-27 27 -50 51 -92 51c-54 0 -99 -44 -111 -109c-1 -4 -5 -8 -10 -8c-6 0 -10 4 -10 10z" />
    <glyph glyph-name="eng" unicode="&#x14b;" 
d="M384 -211c-47 0 -89 19 -119 53c-2 2 -3 4 -3 7c0 6 4 10 10 10c3 0 5 -1 7 -3c27 -31 64 -47 105 -47c55 0 79 50 91 198c8 95 13 214 13 296c0 141 -43 219 -119 219s-175 -114 -240 -277c2 -98 5 -206 5 -250c0 -6 -5 -10 -10 -10c-6 0 -10 4 -10 10
c0 74 -8 345 -8 420c0 46 1 91 3 132c0 6 5 10 10 10c6 0 10 -4 10 -11c0 -5 -3 -64 -3 -131c0 -25 1 -70 2 -122c68 149 162 249 241 249c89 0 139 -87 139 -239c0 -82 -5 -203 -13 -298c-13 -157 -42 -216 -111 -216z" />
    <glyph glyph-name="o" unicode="o" 
d="M299 -10c-131 0 -204 91 -204 253c0 169 103 307 230 307c126 0 201 -110 201 -291c0 -159 -93 -269 -227 -269zM115 243c0 -151 65 -233 184 -233c122 0 207 101 207 249c0 171 -67 271 -181 271c-115 0 -210 -128 -210 -287z" />
    <glyph glyph-name="oacute" unicode="&#xf3;" 
d="M299 -10c-131 0 -204 91 -204 253c0 169 103 307 230 307c126 0 201 -110 201 -291c0 -159 -93 -269 -227 -269zM115 243c0 -151 65 -233 184 -233c122 0 207 101 207 249c0 171 -67 271 -181 271c-115 0 -210 -128 -210 -287zM199 635c0 3 2 6 4 8l202 151c2 1 4 2 6 2
c6 0 10 -4 10 -10c0 -3 -2 -6 -4 -8l-202 -151c-2 -1 -4 -2 -6 -2c-6 0 -10 4 -10 10z" />
    <glyph glyph-name="obreve" unicode="&#x14f;" 
d="M299 -10c-131 0 -204 91 -204 253c0 169 103 307 230 307c126 0 201 -110 201 -291c0 -159 -93 -269 -227 -269zM115 243c0 -151 65 -233 184 -233c122 0 207 101 207 249c0 171 -67 271 -181 271c-115 0 -210 -128 -210 -287zM126 776v3c0 6 4 10 10 10c5 0 9 -3 10 -8
c18 -64 88 -109 171 -109c81 0 143 44 157 111c1 5 5 8 10 8c6 0 10 -4 10 -10v-2c-17 -77 -87 -127 -177 -127c-91 0 -170 51 -191 124z" />
    <glyph glyph-name="ocircumflex" unicode="&#xf4;" 
d="M299 -10c-131 0 -204 91 -204 253c0 169 103 307 230 307c126 0 201 -110 201 -291c0 -159 -93 -269 -227 -269zM115 243c0 -151 65 -233 184 -233c122 0 207 101 207 249c0 171 -67 271 -181 271c-115 0 -210 -128 -210 -287zM118 655c0 3 2 6 4 8c65 49 130 92 193 131
c1 1 3 2 5 2s4 -1 6 -2c70 -46 127 -89 173 -132c2 -2 3 -4 3 -7c0 -6 -4 -10 -10 -10c-3 0 -5 1 -7 3c-44 41 -97 82 -165 126c-66 -41 -127 -82 -186 -127c-2 -1 -4 -2 -6 -2c-6 0 -10 4 -10 10z" />
    <glyph glyph-name="odieresis" unicode="&#xf6;" 
d="M299 -10c-131 0 -204 91 -204 253c0 169 103 307 230 307c126 0 201 -110 201 -291c0 -159 -93 -269 -227 -269zM115 243c0 -151 65 -233 184 -233c122 0 207 101 207 249c0 171 -67 271 -181 271c-115 0 -210 -128 -210 -287zM199 709c0 9 1 17 3 27c1 5 5 8 10 8
c6 0 10 -4 10 -10c0 -4 -3 -15 -3 -25c0 -21 6 -43 6 -48c0 -6 -4 -10 -10 -10c-5 0 -9 4 -10 8c-4 20 -6 36 -6 50zM398 672c0 5 2 10 2 32c0 30 -1 38 -1 42c0 6 4 10 10 10c5 0 10 -4 10 -10c1 -10 1 -27 1 -42s0 -27 -2 -34c-1 -5 -5 -8 -10 -8c-6 0 -10 4 -10 10z" />
    <glyph glyph-name="ograve" unicode="&#xf2;" 
d="M299 -10c-131 0 -204 91 -204 253c0 169 103 307 230 307c126 0 201 -110 201 -291c0 -159 -93 -269 -227 -269zM115 243c0 -151 65 -233 184 -233c122 0 207 101 207 249c0 171 -67 271 -181 271c-115 0 -210 -128 -210 -287zM199 786c0 6 4 10 10 10c2 0 4 -1 6 -2
l202 -151c2 -2 4 -5 4 -8c0 -6 -4 -10 -10 -10c-2 0 -4 1 -6 2l-202 151c-2 2 -4 5 -4 8z" />
    <glyph glyph-name="ohungarumlaut" unicode="&#x151;" 
d="M299 -10c-131 0 -204 91 -204 253c0 169 103 307 230 307c126 0 201 -110 201 -291c0 -159 -93 -269 -227 -269zM115 243c0 -151 65 -233 184 -233c122 0 207 101 207 249c0 171 -67 271 -181 271c-115 0 -210 -128 -210 -287zM179 655c0 2 1 5 2 7c48 55 96 106 143 151
c2 2 4 3 7 3c6 0 10 -4 10 -10c0 -3 -1 -5 -3 -7c-46 -44 -93 -94 -141 -151c-2 -2 -5 -3 -8 -3c-6 0 -10 4 -10 10zM379 655c0 2 1 5 2 7c48 55 96 106 143 151c2 2 4 3 7 3c6 0 10 -4 10 -10c0 -3 -1 -5 -3 -7c-46 -44 -93 -94 -141 -151c-2 -2 -5 -3 -8 -3
c-6 0 -10 4 -10 10z" />
    <glyph glyph-name="omacron" unicode="&#x14d;" 
d="M299 -10c-131 0 -204 91 -204 253c0 169 103 307 230 307c126 0 201 -110 201 -291c0 -159 -93 -269 -227 -269zM112 671c0 5 4 9 9 10c106 15 287 22 376 22c6 0 10 -4 10 -10s-4 -10 -10 -10c-216 0 -371 -22 -375 -22c-6 0 -10 4 -10 10zM115 243
c0 -151 65 -233 184 -233c122 0 207 101 207 249c0 171 -67 271 -181 271c-115 0 -210 -128 -210 -287z" />
    <glyph glyph-name="oslash" unicode="&#xf8;" 
d="M299 -10c-70 0 -124 26 -158 75c-26 -29 -49 -58 -70 -84c-2 -2 -5 -4 -8 -4c-6 0 -10 4 -10 10c0 2 1 5 2 6c22 28 47 59 74 91c-22 40 -34 94 -34 159c0 169 103 307 230 307c67 0 119 -31 154 -86c29 29 56 55 79 76c2 2 4 3 7 3c6 0 10 -4 10 -10c0 -3 -1 -6 -3 -7
c-24 -22 -52 -49 -83 -80c24 -48 37 -112 37 -187c0 -159 -93 -269 -227 -269zM115 243c0 -58 10 -106 28 -143c99 116 222 249 321 349c-31 53 -78 81 -139 81c-115 0 -210 -128 -210 -287zM154 81c31 -47 80 -71 145 -71c122 0 207 101 207 249c0 70 -11 128 -32 172
c-100 -101 -222 -234 -320 -350z" />
    <glyph glyph-name="oslashacute" unicode="&#x1ff;" 
d="M299 -10c-70 0 -124 26 -158 75c-26 -29 -49 -58 -70 -84c-2 -2 -5 -4 -8 -4c-6 0 -10 4 -10 10c0 2 1 5 2 6c22 28 47 59 74 91c-22 40 -34 94 -34 159c0 169 103 307 230 307c67 0 119 -31 154 -86c29 29 56 55 79 76c2 2 4 3 7 3c6 0 10 -4 10 -10c0 -3 -1 -6 -3 -7
c-24 -22 -52 -49 -83 -80c24 -48 37 -112 37 -187c0 -159 -93 -269 -227 -269zM115 243c0 -58 10 -106 28 -143c99 116 222 249 321 349c-31 53 -78 81 -139 81c-115 0 -210 -128 -210 -287zM154 81c31 -47 80 -71 145 -71c122 0 207 101 207 249c0 70 -11 128 -32 172
c-100 -101 -222 -234 -320 -350zM199 635c0 3 2 6 4 8l202 151c2 1 4 2 6 2c6 0 10 -4 10 -10c0 -3 -2 -6 -4 -8l-202 -151c-2 -1 -4 -2 -6 -2c-6 0 -10 4 -10 10z" />
    <glyph glyph-name="otilde" unicode="&#xf5;" 
d="M299 -10c-131 0 -204 91 -204 253c0 169 103 307 230 307c126 0 201 -110 201 -291c0 -159 -93 -269 -227 -269zM87 654v2c14 74 67 125 131 125c50 0 80 -30 106 -58c27 -27 50 -51 92 -51c50 0 88 43 97 110c1 5 5 9 10 9c6 0 10 -4 10 -10v-2
c-11 -76 -57 -127 -117 -127c-50 0 -80 30 -106 58c-27 27 -50 51 -92 51c-54 0 -99 -44 -111 -109c-1 -4 -5 -8 -10 -8c-6 0 -10 4 -10 10zM115 243c0 -151 65 -233 184 -233c122 0 207 101 207 249c0 171 -67 271 -181 271c-115 0 -210 -128 -210 -287z" />
    <glyph glyph-name="oe" unicode="&#x153;" 
d="M172 -2c-88 0 -138 96 -138 258c0 160 67 286 154 286c67 0 112 -64 129 -174c22 117 74 183 149 183c66 0 118 -65 118 -145c0 -31 -13 -52 -48 -79c-52 -40 -135 -85 -212 -116c3 -134 42 -198 123 -198c50 0 91 23 135 77c2 3 5 4 8 4c6 0 10 -4 10 -10
c0 -2 -1 -5 -2 -6c-49 -59 -95 -85 -151 -85c-76 0 -122 50 -137 147c-24 -87 -74 -142 -138 -142zM54 256c0 -151 44 -238 118 -238c77 0 132 99 132 242c0 165 -44 262 -116 262c-74 0 -134 -117 -134 -266zM324 233c72 29 150 72 200 110c31 24 40 39 40 63
c0 69 -43 125 -98 125c-87 0 -140 -111 -142 -298z" />
    <glyph glyph-name="p" unicode="p" 
d="M289 -7c-45 0 -104 14 -145 32c-3 -66 -7 -145 -12 -238c0 -5 -5 -9 -10 -9s-10 5 -10 11c0 8 17 263 17 433c0 195 -15 348 -15 352c0 6 4 10 10 10c5 0 10 -4 10 -9c4 -39 7 -84 9 -131c59 64 127 101 184 101c108 0 200 -137 200 -297c0 -158 -91 -255 -238 -255z
M145 415c2 -64 4 -131 4 -193c0 -45 -1 -102 -4 -174c37 -20 98 -35 144 -35c136 0 218 88 218 235c0 149 -84 277 -180 277c-56 0 -124 -41 -182 -110z" />
    <glyph glyph-name="thorn" unicode="&#xfe;" 
d="M289 -7c-46 0 -107 14 -147 33c-3 -70 -6 -149 -10 -239c0 -5 -5 -9 -10 -9s-10 5 -10 11c0 10 17 337 17 555v78l-3 2l3 3c-3 218 -15 361 -15 368c0 6 4 10 10 10c5 0 10 -4 10 -9c7 -96 12 -224 14 -347c58 61 123 96 179 96c108 0 200 -137 200 -297
c0 -158 -91 -255 -238 -255zM143 49c37 -20 99 -36 146 -36c136 0 218 88 218 235c0 149 -84 277 -180 277c-55 0 -121 -39 -178 -105v-76c0 -72 -2 -168 -6 -295z" />
    <glyph glyph-name="q" unicode="q" 
d="M496 -208c-5 0 -10 4 -10 9c-5 64 -8 168 -9 253c-49 -39 -113 -62 -176 -62c-120 0 -210 109 -210 255c0 162 111 300 239 300c58 0 121 -25 172 -67c3 -2 4 -5 4 -8c0 -4 -8 -125 -9 -352c0 -206 9 -313 9 -318c0 -6 -4 -10 -10 -10zM111 247c0 -135 82 -235 190 -235
c64 0 130 26 176 70v38c0 130 4 260 9 347c-47 38 -104 60 -156 60c-116 0 -219 -129 -219 -280z" />
    <glyph glyph-name="r" unicode="r" 
d="M155 -12c-6 0 -10 4 -10 10c0 3 15 170 15 298c0 57 -17 161 -45 237c-1 2 -1 3 -1 4c0 6 4 10 10 10c4 0 8 -3 9 -7c22 -57 37 -130 43 -188c40 113 148 207 254 207c39 0 68 -11 75 -31c15 -39 21 -97 21 -128c0 -6 -4 -10 -10 -10s-10 4 -10 10c0 29 -6 85 -19 122
c-4 9 -27 17 -57 17c-118 0 -238 -126 -250 -256c-1 -69 -7 -199 -15 -286c0 -5 -5 -9 -10 -9z" />
    <glyph glyph-name="racute" unicode="&#x155;" 
d="M155 -12c-6 0 -10 4 -10 10c0 3 15 170 15 298c0 57 -17 161 -45 237c-1 2 -1 3 -1 4c0 6 4 10 10 10c4 0 8 -3 9 -7c22 -57 37 -130 43 -188c40 113 148 207 254 207c39 0 68 -11 75 -31c15 -39 21 -97 21 -128c0 -6 -4 -10 -10 -10s-10 4 -10 10c0 29 -6 85 -19 122
c-4 9 -27 17 -57 17c-118 0 -238 -126 -250 -256c-1 -69 -7 -199 -15 -286c0 -5 -5 -9 -10 -9zM199 635c0 3 2 6 4 8l202 151c2 1 4 2 6 2c6 0 10 -4 10 -10c0 -3 -2 -6 -4 -8l-202 -151c-2 -1 -4 -2 -6 -2c-6 0 -10 4 -10 10z" />
    <glyph glyph-name="rcaron" unicode="&#x159;" 
d="M155 -12c-6 0 -10 4 -10 10c0 3 15 170 15 298c0 57 -17 161 -45 237c-1 2 -1 3 -1 4c0 6 4 10 10 10c4 0 8 -3 9 -7c22 -57 37 -130 43 -188c40 113 148 207 254 207c39 0 68 -11 75 -31c15 -39 21 -97 21 -128c0 -6 -4 -10 -10 -10s-10 4 -10 10c0 29 -6 85 -19 122
c-4 9 -27 17 -57 17c-118 0 -238 -126 -250 -256c-1 -69 -7 -199 -15 -286c0 -5 -5 -9 -10 -9zM118 786c0 6 4 10 10 10c3 0 5 -1 7 -3c44 -41 97 -82 165 -126c66 41 127 82 186 127c2 1 4 2 6 2c6 0 10 -4 10 -10c0 -3 -2 -6 -4 -8c-65 -49 -130 -92 -193 -131
c-1 -1 -3 -2 -5 -2s-4 1 -6 2c-70 46 -127 89 -173 132c-2 2 -3 4 -3 7z" />
    <glyph glyph-name="uni0157" unicode="&#x157;" 
d="M155 -12c-6 0 -10 4 -10 10c0 3 15 170 15 298c0 57 -17 161 -45 237c-1 2 -1 3 -1 4c0 6 4 10 10 10c4 0 8 -3 9 -7c22 -57 37 -130 43 -188c40 113 148 207 254 207c39 0 68 -11 75 -31c15 -39 21 -97 21 -128c0 -6 -4 -10 -10 -10s-10 4 -10 10c0 29 -6 85 -19 122
c-4 9 -27 17 -57 17c-118 0 -238 -126 -250 -256c-1 -69 -7 -199 -15 -286c0 -5 -5 -9 -10 -9zM96 -243c0 2 1 5 2 6c37 44 81 122 93 154c1 4 5 7 9 7c6 0 10 -4 10 -10c0 -1 0 -3 -1 -4c-12 -34 -58 -115 -95 -159c-2 -3 -5 -4 -8 -4c-6 0 -10 4 -10 10z" />
    <glyph glyph-name="s" unicode="s" 
d="M307 -13c-85 0 -159 27 -225 83c-3 2 -4 5 -4 8c0 6 4 10 10 10c2 0 5 -1 6 -2c63 -53 133 -79 213 -79c109 0 187 49 187 115c0 65 -46 95 -173 114c-108 16 -206 40 -206 145c0 102 103 174 247 174c64 0 110 -13 118 -36c7 -23 11 -61 12 -113c0 -6 -4 -10 -10 -10
c-5 0 -10 4 -10 10c-1 42 -4 82 -12 107c-3 11 -47 22 -98 22c-133 0 -227 -64 -227 -154c0 -89 82 -109 188 -125c107 -16 191 -43 191 -134c0 -79 -88 -135 -207 -135z" />
    <glyph glyph-name="sacute" unicode="&#x15b;" 
d="M307 -13c-85 0 -159 27 -225 83c-3 2 -4 5 -4 8c0 6 4 10 10 10c2 0 5 -1 6 -2c63 -53 133 -79 213 -79c109 0 187 49 187 115c0 65 -46 95 -173 114c-108 16 -206 40 -206 145c0 102 103 174 247 174c64 0 110 -13 118 -36c7 -23 11 -61 12 -113c0 -6 -4 -10 -10 -10
c-5 0 -10 4 -10 10c-1 42 -4 82 -12 107c-3 11 -47 22 -98 22c-133 0 -227 -64 -227 -154c0 -89 82 -109 188 -125c107 -16 191 -43 191 -134c0 -79 -88 -135 -207 -135zM199 635c0 3 2 6 4 8l202 151c2 1 4 2 6 2c6 0 10 -4 10 -10c0 -3 -2 -6 -4 -8l-202 -151
c-2 -1 -4 -2 -6 -2c-6 0 -10 4 -10 10z" />
    <glyph glyph-name="scaron" unicode="&#x161;" 
d="M307 -13c-85 0 -159 27 -225 83c-3 2 -4 5 -4 8c0 6 4 10 10 10c2 0 5 -1 6 -2c63 -53 133 -79 213 -79c109 0 187 49 187 115c0 65 -46 95 -173 114c-108 16 -206 40 -206 145c0 102 103 174 247 174c64 0 110 -13 118 -36c7 -23 11 -61 12 -113c0 -6 -4 -10 -10 -10
c-5 0 -10 4 -10 10c-1 42 -4 82 -12 107c-3 11 -47 22 -98 22c-133 0 -227 -64 -227 -154c0 -89 82 -109 188 -125c107 -16 191 -43 191 -134c0 -79 -88 -135 -207 -135zM118 786c0 6 4 10 10 10c3 0 5 -1 7 -3c44 -41 97 -82 165 -126c66 41 127 82 186 127c2 1 4 2 6 2
c6 0 10 -4 10 -10c0 -3 -2 -6 -4 -8c-65 -49 -130 -92 -193 -131c-1 -1 -3 -2 -5 -2s-4 1 -6 2c-70 46 -127 89 -173 132c-2 2 -3 4 -3 7z" />
    <glyph glyph-name="scedilla" unicode="&#x15f;" 
d="M248 -227c-8 0 -15 0 -22 1c-5 0 -9 5 -9 10c0 6 4 10 11 10c2 0 10 -1 20 -1c78 0 135 40 135 92c0 53 -34 86 -94 98c-3 1 -6 2 -7 5c-75 5 -141 32 -200 82c-3 2 -4 5 -4 8c0 6 4 10 10 10c2 0 5 -1 6 -2c63 -53 133 -79 213 -79c109 0 187 49 187 115
c0 65 -46 95 -173 114c-108 16 -206 40 -206 145c0 102 103 174 247 174c64 0 110 -13 118 -36c7 -23 11 -61 12 -113c0 -6 -4 -10 -10 -10c-5 0 -10 4 -10 10c-1 42 -4 82 -12 107c-3 11 -47 22 -98 22c-133 0 -227 -64 -227 -154c0 -89 82 -109 188 -125
c107 -16 191 -43 191 -134c0 -72 -72 -124 -174 -134c40 -20 63 -56 63 -103c0 -65 -67 -112 -155 -112z" />
    <glyph glyph-name="scircumflex" unicode="&#x15d;" 
d="M307 -13c-85 0 -159 27 -225 83c-3 2 -4 5 -4 8c0 6 4 10 10 10c2 0 5 -1 6 -2c63 -53 133 -79 213 -79c109 0 187 49 187 115c0 65 -46 95 -173 114c-108 16 -206 40 -206 145c0 102 103 174 247 174c64 0 110 -13 118 -36c7 -23 11 -61 12 -113c0 -6 -4 -10 -10 -10
c-5 0 -10 4 -10 10c-1 42 -4 82 -12 107c-3 11 -47 22 -98 22c-133 0 -227 -64 -227 -154c0 -89 82 -109 188 -125c107 -16 191 -43 191 -134c0 -79 -88 -135 -207 -135zM118 655c0 3 2 6 4 8c65 49 130 92 193 131c1 1 3 2 5 2s4 -1 6 -2c70 -46 127 -89 173 -132
c2 -2 3 -4 3 -7c0 -6 -4 -10 -10 -10c-3 0 -5 1 -7 3c-44 41 -97 82 -165 126c-66 -41 -127 -82 -186 -127c-2 -1 -4 -2 -6 -2c-6 0 -10 4 -10 10z" />
    <glyph glyph-name="uni0219" unicode="&#x219;" 
d="M307 -13c-85 0 -159 27 -225 83c-3 2 -4 5 -4 8c0 6 4 10 10 10c2 0 5 -1 6 -2c63 -53 133 -79 213 -79c109 0 187 49 187 115c0 65 -46 95 -173 114c-108 16 -206 40 -206 145c0 102 103 174 247 174c64 0 110 -13 118 -36c7 -23 11 -61 12 -113c0 -6 -4 -10 -10 -10
c-5 0 -10 4 -10 10c-1 42 -4 82 -12 107c-3 11 -47 22 -98 22c-133 0 -227 -64 -227 -154c0 -89 82 -109 188 -125c107 -16 191 -43 191 -134c0 -79 -88 -135 -207 -135zM246 -243c0 2 1 5 2 6c37 44 81 122 93 154c1 4 5 7 9 7c6 0 10 -4 10 -10c0 -1 0 -3 -1 -4
c-12 -34 -58 -115 -95 -159c-2 -3 -5 -4 -8 -4c-6 0 -10 4 -10 10z" />
    <glyph glyph-name="germandbls" unicode="&#xdf;" 
d="M361 15c87 0 149 73 149 175c0 96 -60 186 -163 244c-3 2 -5 5 -5 9c0 3 2 6 4 8c81 57 125 126 125 197c0 86 -59 142 -150 142c-117 0 -185 -72 -185 -195c0 -38 7 -231 7 -281c0 -149 -7 -298 -21 -440c-1 -5 -5 -9 -10 -9c-6 0 -10 4 -10 10s21 187 21 439
c0 49 -7 243 -7 281c0 134 77 215 205 215c102 0 170 -65 170 -162c0 -73 -43 -145 -121 -204c101 -62 160 -155 160 -254c0 -113 -71 -195 -169 -195c-36 0 -82 16 -110 39c-3 2 -4 5 -4 8c0 6 4 10 10 10c2 0 5 -1 6 -2c25 -20 66 -35 98 -35z" />
    <glyph glyph-name="longs" unicode="&#x17f;" 
d="M224 -102c-6 0 -10 4 -10 10c0 8 31 64 31 186c0 41 -3 230 -5 361c-24 -1 -47 -2 -71 -2c-26 0 -51 0 -77 2c-5 0 -9 5 -9 10c0 6 4 10 10 10s39 -2 76 -2c23 0 47 0 70 1l-1 103c0 153 49 230 150 230c62 0 117 -39 148 -106c1 -1 1 -2 1 -4c0 -6 -4 -10 -10 -10
c-4 0 -8 2 -9 6c-28 60 -75 94 -130 94c-88 0 -130 -67 -130 -210c0 -58 7 -423 7 -483c0 -72 -11 -135 -32 -189c-1 -4 -5 -7 -9 -7z" />
    <glyph glyph-name="t" unicode="t" 
d="M333 -9c-84 0 -123 58 -123 181c0 87 6 223 14 343c-55 2 -116 8 -159 17c-5 1 -8 5 -8 10c0 6 4 10 10 10c9 0 60 -14 158 -17c4 59 9 113 13 155c1 5 5 9 10 9c6 0 10 -4 10 -10c0 -2 -6 -64 -13 -155h24c106 0 236 26 244 26c6 0 10 -4 10 -10c0 -5 -4 -9 -8 -10
c-76 -15 -190 -26 -246 -26h-25c-7 -98 -14 -224 -14 -342c0 -112 32 -161 103 -161c49 0 115 16 173 43c1 1 2 1 4 1c6 0 10 -4 10 -10c0 -4 -2 -8 -6 -9c-60 -28 -128 -45 -181 -45z" />
    <glyph glyph-name="tbar" unicode="&#x167;" 
d="M333 -9c-84 0 -123 58 -123 181c0 26 0 55 1 87c-55 -6 -89 -11 -93 -11c-6 0 -10 4 -10 10c0 5 4 9 9 10c31 4 63 8 95 11c2 74 7 158 12 236c-55 2 -116 8 -159 17c-5 1 -8 5 -8 10c0 6 4 10 10 10c9 0 60 -14 158 -17c4 59 9 113 13 155c1 5 5 9 10 9
c6 0 10 -4 10 -10c0 -2 -6 -64 -13 -155h24c106 0 236 26 244 26c6 0 10 -4 10 -10c0 -5 -4 -9 -8 -10c-76 -15 -190 -26 -246 -26h-25c-5 -68 -10 -150 -12 -233c57 6 113 9 169 11c6 0 10 -4 10 -10c0 -5 -4 -10 -10 -10c-67 -2 -124 -6 -170 -11c-1 -30 -1 -60 -1 -89
c0 -112 32 -161 103 -161c49 0 115 16 173 43c1 1 2 1 4 1c6 0 10 -4 10 -10c0 -4 -2 -8 -6 -9c-60 -28 -128 -45 -181 -45z" />
    <glyph glyph-name="tcaron" unicode="&#x165;" 
d="M390 582c-6 0 -10 4 -10 10c0 2 1 4 2 5c30 50 47 102 47 148c0 37 -10 67 -29 87c-2 2 -3 4 -3 7c0 6 4 10 10 10c3 0 5 -1 7 -3c23 -24 35 -59 35 -101c0 -51 -18 -106 -50 -158c-2 -3 -5 -5 -9 -5zM57 502c0 6 4 10 10 10c9 0 59 -14 155 -17c5 74 11 144 16 195
c1 5 5 9 10 9c6 0 10 -4 10 -10c0 -2 -8 -83 -16 -195h27c106 0 236 26 244 26c6 0 10 -4 10 -10c0 -5 -4 -9 -8 -10c-76 -15 -190 -26 -246 -26h-28c-6 -91 -11 -200 -11 -302c0 -112 32 -161 103 -161c49 0 115 16 173 43c1 1 2 1 4 1c6 0 10 -4 10 -10c0 -4 -2 -8 -6 -9
c-60 -28 -128 -45 -181 -45c-84 0 -123 58 -123 181c0 78 5 194 11 303c-54 2 -114 8 -156 17c-5 1 -8 5 -8 10z" />
    <glyph glyph-name="uni0163" unicode="&#x163;" 
d="M269 514h-25c-7 -98 -14 -224 -14 -342c0 -112 32 -161 103 -161c49 0 115 16 173 43c1 1 2 1 4 1c6 0 10 -4 10 -10c0 -4 -2 -8 -6 -9c-60 -28 -127 -45 -180 -45c44 -19 69 -57 69 -106c0 -65 -67 -112 -155 -112c-8 0 -15 0 -22 1c-5 0 -9 5 -9 10c0 6 4 10 11 10
c2 0 10 -1 20 -1c78 0 135 40 135 92c0 53 -34 86 -94 98c-5 1 -9 5 -9 10c0 3 1 5 3 7c-50 21 -73 77 -73 172c0 87 6 223 14 343c-55 2 -116 8 -159 17c-5 1 -8 5 -8 10c0 6 4 10 10 10c9 0 60 -14 158 -17c4 59 9 113 13 155c1 5 5 9 10 9c6 0 10 -4 10 -10
c0 -2 -6 -64 -13 -155h24c106 0 236 26 244 26c6 0 10 -4 10 -10c0 -5 -4 -9 -8 -10c-76 -15 -190 -26 -246 -26z" />
    <glyph glyph-name="uni021B" unicode="&#x21b;" 
d="M333 -9c-84 0 -123 58 -123 181c0 87 6 223 14 343c-55 2 -116 8 -159 17c-5 1 -8 5 -8 10c0 6 4 10 10 10c9 0 60 -14 158 -17c4 59 9 113 13 155c1 5 5 9 10 9c6 0 10 -4 10 -10c0 -2 -6 -64 -13 -155h24c106 0 236 26 244 26c6 0 10 -4 10 -10c0 -5 -4 -9 -8 -10
c-76 -15 -190 -26 -246 -26h-25c-7 -98 -14 -224 -14 -342c0 -112 32 -161 103 -161c49 0 115 16 173 43c1 1 2 1 4 1c6 0 10 -4 10 -10c0 -4 -2 -8 -6 -9c-60 -28 -128 -45 -181 -45zM246 -243c0 2 1 5 2 6c37 44 81 122 93 154c1 4 5 7 9 7c6 0 10 -4 10 -10
c0 -1 0 -3 -1 -4c-12 -34 -58 -115 -95 -159c-2 -3 -5 -4 -8 -4c-6 0 -10 4 -10 10z" />
    <glyph glyph-name="u" unicode="u" 
d="M278 -10c-110 0 -158 65 -158 214c0 104 14 217 42 341c1 5 5 8 10 8c6 0 10 -4 10 -10c0 -1 0 -2 -1 -6c-27 -118 -41 -231 -41 -333c0 -139 40 -194 138 -194c53 0 115 24 197 76c-2 22 -3 55 -3 118c0 88 3 218 9 324c0 5 5 9 10 9c6 0 10 -4 10 -11
c0 -8 -9 -134 -9 -322c0 -69 1 -101 4 -124s20 -60 42 -88c1 -1 2 -4 2 -6c0 -6 -4 -10 -10 -10c-3 0 -6 2 -8 4c-20 25 -37 59 -44 85c-80 -51 -144 -75 -200 -75z" />
    <glyph glyph-name="uacute" unicode="&#xfa;" 
d="M278 -10c-110 0 -158 65 -158 214c0 104 14 217 42 341c1 5 5 8 10 8c6 0 10 -4 10 -10c0 -1 0 -2 -1 -6c-27 -118 -41 -231 -41 -333c0 -139 40 -194 138 -194c53 0 115 24 197 76c-2 22 -3 55 -3 118c0 88 3 218 9 324c0 5 5 9 10 9c6 0 10 -4 10 -11
c0 -8 -9 -134 -9 -322c0 -69 1 -101 4 -124s20 -60 42 -88c1 -1 2 -4 2 -6c0 -6 -4 -10 -10 -10c-3 0 -6 2 -8 4c-20 25 -37 59 -44 85c-80 -51 -144 -75 -200 -75zM199 635c0 3 2 6 4 8l202 151c2 1 4 2 6 2c6 0 10 -4 10 -10c0 -3 -2 -6 -4 -8l-202 -151
c-2 -1 -4 -2 -6 -2c-6 0 -10 4 -10 10z" />
    <glyph glyph-name="ubreve" unicode="&#x16d;" 
d="M278 -10c-110 0 -158 65 -158 214c0 104 14 217 42 341c1 5 5 8 10 8c6 0 10 -4 10 -10c0 -1 0 -2 -1 -6c-27 -118 -41 -231 -41 -333c0 -139 40 -194 138 -194c53 0 115 24 197 76c-2 22 -3 55 -3 118c0 88 3 218 9 324c0 5 5 9 10 9c6 0 10 -4 10 -11
c0 -8 -9 -134 -9 -322c0 -69 1 -101 4 -124s20 -60 42 -88c1 -1 2 -4 2 -6c0 -6 -4 -10 -10 -10c-3 0 -6 2 -8 4c-20 25 -37 59 -44 85c-80 -51 -144 -75 -200 -75zM126 776v3c0 6 4 10 10 10c5 0 9 -3 10 -8c18 -64 88 -109 171 -109c81 0 143 44 157 111c1 5 5 8 10 8
c6 0 10 -4 10 -10v-2c-17 -77 -87 -127 -177 -127c-91 0 -170 51 -191 124z" />
    <glyph glyph-name="ucircumflex" unicode="&#xfb;" 
d="M278 -10c-110 0 -158 65 -158 214c0 104 14 217 42 341c1 5 5 8 10 8c6 0 10 -4 10 -10c0 -1 0 -2 -1 -6c-27 -118 -41 -231 -41 -333c0 -139 40 -194 138 -194c53 0 115 24 197 76c-2 22 -3 55 -3 118c0 88 3 218 9 324c0 5 5 9 10 9c6 0 10 -4 10 -11
c0 -8 -9 -134 -9 -322c0 -69 1 -101 4 -124s20 -60 42 -88c1 -1 2 -4 2 -6c0 -6 -4 -10 -10 -10c-3 0 -6 2 -8 4c-20 25 -37 59 -44 85c-80 -51 -144 -75 -200 -75zM118 655c0 3 2 6 4 8c65 49 130 92 193 131c1 1 3 2 5 2s4 -1 6 -2c70 -46 127 -89 173 -132
c2 -2 3 -4 3 -7c0 -6 -4 -10 -10 -10c-3 0 -5 1 -7 3c-44 41 -97 82 -165 126c-66 -41 -127 -82 -186 -127c-2 -1 -4 -2 -6 -2c-6 0 -10 4 -10 10z" />
    <glyph glyph-name="udieresis" unicode="&#xfc;" 
d="M278 -10c-110 0 -158 65 -158 214c0 104 14 217 42 341c1 5 5 8 10 8c6 0 10 -4 10 -10c0 -1 0 -2 -1 -6c-27 -118 -41 -231 -41 -333c0 -139 40 -194 138 -194c53 0 115 24 197 76c-2 22 -3 55 -3 118c0 88 3 218 9 324c0 5 5 9 10 9c6 0 10 -4 10 -11
c0 -8 -9 -134 -9 -322c0 -69 1 -101 4 -124s20 -60 42 -88c1 -1 2 -4 2 -6c0 -6 -4 -10 -10 -10c-3 0 -6 2 -8 4c-20 25 -37 59 -44 85c-80 -51 -144 -75 -200 -75zM199 709c0 9 1 17 3 27c1 5 5 8 10 8c6 0 10 -4 10 -10c0 -4 -3 -15 -3 -25c0 -21 6 -43 6 -48
c0 -6 -4 -10 -10 -10c-5 0 -9 4 -10 8c-4 20 -6 36 -6 50zM398 672c0 5 2 10 2 32c0 30 -1 38 -1 42c0 6 4 10 10 10c5 0 10 -4 10 -10c1 -10 1 -27 1 -42s0 -27 -2 -34c-1 -5 -5 -8 -10 -8c-6 0 -10 4 -10 10z" />
    <glyph glyph-name="ugrave" unicode="&#xf9;" 
d="M278 -10c-110 0 -158 65 -158 214c0 104 14 217 42 341c1 5 5 8 10 8c6 0 10 -4 10 -10c0 -1 0 -2 -1 -6c-27 -118 -41 -231 -41 -333c0 -139 40 -194 138 -194c53 0 115 24 197 76c-2 22 -3 55 -3 118c0 88 3 218 9 324c0 5 5 9 10 9c6 0 10 -4 10 -11
c0 -8 -9 -134 -9 -322c0 -69 1 -101 4 -124s20 -60 42 -88c1 -1 2 -4 2 -6c0 -6 -4 -10 -10 -10c-3 0 -6 2 -8 4c-20 25 -37 59 -44 85c-80 -51 -144 -75 -200 -75zM199 786c0 6 4 10 10 10c2 0 4 -1 6 -2l202 -151c2 -2 4 -5 4 -8c0 -6 -4 -10 -10 -10c-2 0 -4 1 -6 2
l-202 151c-2 2 -4 5 -4 8z" />
    <glyph glyph-name="uhungarumlaut" unicode="&#x171;" 
d="M278 -10c-110 0 -158 65 -158 214c0 104 14 217 42 341c1 5 5 8 10 8c6 0 10 -4 10 -10c0 -1 0 -2 -1 -6c-27 -118 -41 -231 -41 -333c0 -139 40 -194 138 -194c53 0 115 24 197 76c-2 22 -3 55 -3 118c0 88 3 218 9 324c0 5 5 9 10 9c6 0 10 -4 10 -11
c0 -8 -9 -134 -9 -322c0 -69 1 -101 4 -124s20 -60 42 -88c1 -1 2 -4 2 -6c0 -6 -4 -10 -10 -10c-3 0 -6 2 -8 4c-20 25 -37 59 -44 85c-80 -51 -144 -75 -200 -75zM179 655c0 2 1 5 2 7c48 55 96 106 143 151c2 2 4 3 7 3c6 0 10 -4 10 -10c0 -3 -1 -5 -3 -7
c-46 -44 -93 -94 -141 -151c-2 -2 -5 -3 -8 -3c-6 0 -10 4 -10 10zM379 655c0 2 1 5 2 7c48 55 96 106 143 151c2 2 4 3 7 3c6 0 10 -4 10 -10c0 -3 -1 -5 -3 -7c-46 -44 -93 -94 -141 -151c-2 -2 -5 -3 -8 -3c-6 0 -10 4 -10 10z" />
    <glyph glyph-name="umacron" unicode="&#x16b;" 
d="M278 -10c-110 0 -158 65 -158 214c0 104 14 217 42 341c1 5 5 8 10 8c6 0 10 -4 10 -10c0 -1 0 -2 -1 -6c-27 -118 -41 -231 -41 -333c0 -139 40 -194 138 -194c53 0 115 24 197 76c-2 22 -3 55 -3 118c0 88 3 218 9 324c0 5 5 9 10 9c6 0 10 -4 10 -11
c0 -8 -9 -134 -9 -322c0 -69 1 -101 4 -124s20 -60 42 -88c1 -1 2 -4 2 -6c0 -6 -4 -10 -10 -10c-3 0 -6 2 -8 4c-20 25 -37 59 -44 85c-80 -51 -144 -75 -200 -75zM112 671c0 5 4 9 9 10c106 15 287 22 376 22c6 0 10 -4 10 -10s-4 -10 -10 -10c-216 0 -371 -22 -375 -22
c-6 0 -10 4 -10 10z" />
    <glyph glyph-name="uogonek" unicode="&#x173;" 
d="M278 -10c-110 0 -158 65 -158 214c0 104 14 217 42 341c1 5 5 8 10 8c6 0 10 -4 10 -10c0 -1 0 -2 -1 -6c-27 -118 -41 -231 -41 -333c0 -139 40 -194 138 -194c53 0 115 24 197 76c-2 22 -3 55 -3 118c0 88 3 218 9 324c0 5 5 9 10 9c6 0 10 -4 10 -11
c0 -8 -9 -134 -9 -322c0 -69 1 -101 4 -124s20 -60 42 -88c1 -1 2 -4 2 -6c0 -4 -2 -7 -4 -8l-1 -1c-70 -37 -119 -90 -119 -128c0 -34 30 -59 69 -59c34 0 75 16 103 41c2 1 4 2 7 2c6 0 10 -4 10 -10c0 -3 -1 -6 -3 -8c-32 -27 -78 -45 -117 -45c-50 0 -89 34 -89 79
c0 44 48 99 119 140c-16 24 -31 53 -37 76c-80 -51 -144 -75 -200 -75z" />
    <glyph glyph-name="uring" unicode="&#x16f;" 
d="M278 -10c-110 0 -158 65 -158 214c0 104 14 217 42 341c1 5 5 8 10 8c6 0 10 -4 10 -10c0 -1 0 -2 -1 -6c-27 -118 -41 -231 -41 -333c0 -139 40 -194 138 -194c53 0 115 24 197 76c-2 22 -3 55 -3 118c0 88 3 218 9 324c0 5 5 9 10 9c6 0 10 -4 10 -11
c0 -8 -9 -134 -9 -322c0 -69 1 -101 4 -124s20 -60 42 -88c1 -1 2 -4 2 -6c0 -6 -4 -10 -10 -10c-3 0 -6 2 -8 4c-20 25 -37 59 -44 85c-80 -51 -144 -75 -200 -75zM192 748c0 67 55 125 117 125c58 0 118 -58 118 -115c0 -64 -52 -121 -112 -121c-74 0 -123 44 -123 111z
M212 748c0 -56 40 -91 103 -91c48 0 92 48 92 101c0 46 -51 95 -98 95c-51 0 -97 -49 -97 -105z" />
    <glyph glyph-name="utilde" unicode="&#x169;" 
d="M278 -10c-110 0 -158 65 -158 214c0 104 14 217 42 341c1 5 5 8 10 8c6 0 10 -4 10 -10c0 -1 0 -2 -1 -6c-27 -118 -41 -231 -41 -333c0 -139 40 -194 138 -194c53 0 115 24 197 76c-2 22 -3 55 -3 118c0 88 3 218 9 324c0 5 5 9 10 9c6 0 10 -4 10 -11
c0 -8 -9 -134 -9 -322c0 -69 1 -101 4 -124s20 -60 42 -88c1 -1 2 -4 2 -6c0 -6 -4 -10 -10 -10c-3 0 -6 2 -8 4c-20 25 -37 59 -44 85c-80 -51 -144 -75 -200 -75zM87 654v2c14 74 67 125 131 125c50 0 80 -30 106 -58c27 -27 50 -51 92 -51c50 0 88 43 97 110
c1 5 5 9 10 9c6 0 10 -4 10 -10v-2c-11 -76 -57 -127 -117 -127c-50 0 -80 30 -106 58c-27 27 -50 51 -92 51c-54 0 -99 -44 -111 -109c-1 -4 -5 -8 -10 -8c-6 0 -10 4 -10 10z" />
    <glyph glyph-name="v" unicode="v" 
d="M324 -20c-4 0 -7 2 -9 5c-76 141 -184 381 -240 531c-1 2 -1 3 -1 4c0 6 4 10 10 10c4 0 8 -3 9 -7c52 -138 149 -355 223 -496c74 140 158 367 201 516c1 4 5 7 10 7c6 0 10 -4 10 -10c0 -1 0 -2 -1 -5c-44 -151 -133 -389 -208 -530l5 -10c1 -2 1 -3 1 -5
c0 -6 -4 -10 -10 -10z" />
    <glyph glyph-name="w" unicode="w" 
d="M171 -4c-4 0 -8 3 -9 6c-49 111 -119 405 -130 519v1c0 6 4 10 10 10c5 0 9 -4 10 -9c10 -105 72 -368 119 -490c45 118 100 284 134 426c1 5 5 8 10 8s9 -3 10 -7c44 -158 84 -311 105 -416c59 129 110 305 134 463c1 5 5 9 10 9c6 0 10 -4 10 -10v-2
c-26 -172 -84 -365 -149 -496c-2 -4 -5 -6 -9 -6c-5 0 -9 4 -10 8c-15 86 -48 222 -100 408c-37 -144 -92 -306 -136 -415c-1 -4 -5 -7 -9 -7z" />
    <glyph glyph-name="wacute" unicode="&#x1e83;" 
d="M171 -4c-4 0 -8 3 -9 6c-49 111 -119 405 -130 519v1c0 6 4 10 10 10c5 0 9 -4 10 -9c10 -105 72 -368 119 -490c45 118 100 284 134 426c1 5 5 8 10 8s9 -3 10 -7c44 -158 84 -311 105 -416c59 129 110 305 134 463c1 5 5 9 10 9c6 0 10 -4 10 -10v-2
c-26 -172 -84 -365 -149 -496c-2 -4 -5 -6 -9 -6c-5 0 -9 4 -10 8c-15 86 -48 222 -100 408c-37 -144 -92 -306 -136 -415c-1 -4 -5 -7 -9 -7zM199 635c0 3 2 6 4 8l202 151c2 1 4 2 6 2c6 0 10 -4 10 -10c0 -3 -2 -6 -4 -8l-202 -151c-2 -1 -4 -2 -6 -2c-6 0 -10 4 -10 10z
" />
    <glyph glyph-name="wcircumflex" unicode="&#x175;" 
d="M171 -4c-4 0 -8 3 -9 6c-49 111 -119 405 -130 519v1c0 6 4 10 10 10c5 0 9 -4 10 -9c10 -105 72 -368 119 -490c45 118 100 284 134 426c1 5 5 8 10 8s9 -3 10 -7c44 -158 84 -311 105 -416c59 129 110 305 134 463c1 5 5 9 10 9c6 0 10 -4 10 -10v-2
c-26 -172 -84 -365 -149 -496c-2 -4 -5 -6 -9 -6c-5 0 -9 4 -10 8c-15 86 -48 222 -100 408c-37 -144 -92 -306 -136 -415c-1 -4 -5 -7 -9 -7zM118 655c0 3 2 6 4 8c65 49 130 92 193 131c1 1 3 2 5 2s4 -1 6 -2c70 -46 127 -89 173 -132c2 -2 3 -4 3 -7
c0 -6 -4 -10 -10 -10c-3 0 -5 1 -7 3c-44 41 -97 82 -165 126c-66 -41 -127 -82 -186 -127c-2 -1 -4 -2 -6 -2c-6 0 -10 4 -10 10z" />
    <glyph glyph-name="wdieresis" unicode="&#x1e85;" 
d="M171 -4c-4 0 -8 3 -9 6c-49 111 -119 405 -130 519v1c0 6 4 10 10 10c5 0 9 -4 10 -9c10 -105 72 -368 119 -490c45 118 100 284 134 426c1 5 5 8 10 8s9 -3 10 -7c44 -158 84 -311 105 -416c59 129 110 305 134 463c1 5 5 9 10 9c6 0 10 -4 10 -10v-2
c-26 -172 -84 -365 -149 -496c-2 -4 -5 -6 -9 -6c-5 0 -9 4 -10 8c-15 86 -48 222 -100 408c-37 -144 -92 -306 -136 -415c-1 -4 -5 -7 -9 -7zM199 709c0 9 1 17 3 27c1 5 5 8 10 8c6 0 10 -4 10 -10c0 -4 -3 -15 -3 -25c0 -21 6 -43 6 -48c0 -6 -4 -10 -10 -10
c-5 0 -9 4 -10 8c-4 20 -6 36 -6 50zM398 672c0 5 2 10 2 32c0 30 -1 38 -1 42c0 6 4 10 10 10c5 0 10 -4 10 -10c1 -10 1 -27 1 -42s0 -27 -2 -34c-1 -5 -5 -8 -10 -8c-6 0 -10 4 -10 10z" />
    <glyph glyph-name="wgrave" unicode="&#x1e81;" 
d="M171 -4c-4 0 -8 3 -9 6c-49 111 -119 405 -130 519v1c0 6 4 10 10 10c5 0 9 -4 10 -9c10 -105 72 -368 119 -490c45 118 100 284 134 426c1 5 5 8 10 8s9 -3 10 -7c44 -158 84 -311 105 -416c59 129 110 305 134 463c1 5 5 9 10 9c6 0 10 -4 10 -10v-2
c-26 -172 -84 -365 -149 -496c-2 -4 -5 -6 -9 -6c-5 0 -9 4 -10 8c-15 86 -48 222 -100 408c-37 -144 -92 -306 -136 -415c-1 -4 -5 -7 -9 -7zM199 786c0 6 4 10 10 10c2 0 4 -1 6 -2l202 -151c2 -2 4 -5 4 -8c0 -6 -4 -10 -10 -10c-2 0 -4 1 -6 2l-202 151c-2 2 -4 5 -4 8z
" />
    <glyph glyph-name="x" unicode="x" 
d="M67 -9c-6 0 -10 4 -10 10c0 2 1 4 2 5c50 81 143 187 229 263c-63 91 -127 168 -207 237c-2 2 -3 5 -3 8c0 6 4 10 10 10c3 0 5 -1 7 -3c80 -70 145 -148 208 -239c85 73 187 190 222 258c2 4 5 6 9 6c6 0 10 -4 10 -10c0 -2 0 -3 -1 -5c-36 -71 -143 -191 -228 -267
l4 -6c39 -58 156 -187 219 -251c2 -2 3 -4 3 -7c0 -6 -4 -10 -10 -10c-3 0 -5 1 -7 3c-63 64 -182 195 -221 253l-3 5c-85 -74 -175 -176 -224 -255c-2 -3 -5 -5 -9 -5z" />
    <glyph glyph-name="y" unicode="y" 
d="M146 -209c-6 0 -10 4 -10 10c0 3 2 6 4 8c63 74 116 152 174 251c-59 140 -165 347 -249 474c-1 2 -2 4 -2 6c0 6 4 10 10 10c3 0 6 -1 8 -4c83 -125 185 -325 246 -464l31 55c60 106 133 263 178 405c2 6 5 8 10 8c6 0 10 -4 10 -10c0 -1 0 -2 -1 -5
c-46 -143 -119 -302 -179 -408c-77 -138 -142 -238 -222 -332c-3 -3 -5 -4 -8 -4z" />
    <glyph glyph-name="yacute" unicode="&#xfd;" 
d="M146 -209c-6 0 -10 4 -10 10c0 3 2 6 4 8c63 74 116 152 174 251c-59 140 -165 347 -249 474c-1 2 -2 4 -2 6c0 6 4 10 10 10c3 0 6 -1 8 -4c83 -125 185 -325 246 -464l31 55c60 106 133 263 178 405c2 6 5 8 10 8c6 0 10 -4 10 -10c0 -1 0 -2 -1 -5
c-46 -143 -119 -302 -179 -408c-77 -138 -142 -238 -222 -332c-3 -3 -5 -4 -8 -4zM199 635c0 3 2 6 4 8l202 151c2 1 4 2 6 2c6 0 10 -4 10 -10c0 -3 -2 -6 -4 -8l-202 -151c-2 -1 -4 -2 -6 -2c-6 0 -10 4 -10 10z" />
    <glyph glyph-name="ycircumflex" unicode="&#x177;" 
d="M146 -209c-6 0 -10 4 -10 10c0 3 2 6 4 8c63 74 116 152 174 251c-59 140 -165 347 -249 474c-1 2 -2 4 -2 6c0 6 4 10 10 10c3 0 6 -1 8 -4c83 -125 185 -325 246 -464l31 55c60 106 133 263 178 405c2 6 5 8 10 8c6 0 10 -4 10 -10c0 -1 0 -2 -1 -5
c-46 -143 -119 -302 -179 -408c-77 -138 -142 -238 -222 -332c-3 -3 -5 -4 -8 -4zM118 655c0 3 2 6 4 8c65 49 130 92 193 131c1 1 3 2 5 2s4 -1 6 -2c70 -46 127 -89 173 -132c2 -2 3 -4 3 -7c0 -6 -4 -10 -10 -10c-3 0 -5 1 -7 3c-44 41 -97 82 -165 126
c-66 -41 -127 -82 -186 -127c-2 -1 -4 -2 -6 -2c-6 0 -10 4 -10 10z" />
    <glyph glyph-name="ydieresis" unicode="&#xff;" 
d="M146 -209c-6 0 -10 4 -10 10c0 3 2 6 4 8c63 74 116 152 174 251c-59 140 -165 347 -249 474c-1 2 -2 4 -2 6c0 6 4 10 10 10c3 0 6 -1 8 -4c83 -125 185 -325 246 -464l31 55c60 106 133 263 178 405c2 6 5 8 10 8c6 0 10 -4 10 -10c0 -1 0 -2 -1 -5
c-46 -143 -119 -302 -179 -408c-77 -138 -142 -238 -222 -332c-3 -3 -5 -4 -8 -4zM199 709c0 9 1 17 3 27c1 5 5 8 10 8c6 0 10 -4 10 -10c0 -4 -3 -15 -3 -25c0 -21 6 -43 6 -48c0 -6 -4 -10 -10 -10c-5 0 -9 4 -10 8c-4 20 -6 36 -6 50zM398 672c0 5 2 10 2 32
c0 30 -1 38 -1 42c0 6 4 10 10 10c5 0 10 -4 10 -10c1 -10 1 -27 1 -42s0 -27 -2 -34c-1 -5 -5 -8 -10 -8c-6 0 -10 4 -10 10z" />
    <glyph glyph-name="ygrave" unicode="&#x1ef3;" 
d="M146 -209c-6 0 -10 4 -10 10c0 3 2 6 4 8c63 74 116 152 174 251c-59 140 -165 347 -249 474c-1 2 -2 4 -2 6c0 6 4 10 10 10c3 0 6 -1 8 -4c83 -125 185 -325 246 -464l31 55c60 106 133 263 178 405c2 6 5 8 10 8c6 0 10 -4 10 -10c0 -1 0 -2 -1 -5
c-46 -143 -119 -302 -179 -408c-77 -138 -142 -238 -222 -332c-3 -3 -5 -4 -8 -4zM199 786c0 6 4 10 10 10c2 0 4 -1 6 -2l202 -151c2 -2 4 -5 4 -8c0 -6 -4 -10 -10 -10c-2 0 -4 1 -6 2l-202 151c-2 2 -4 5 -4 8z" />
    <glyph glyph-name="z" unicode="z" 
d="M216 -6c-42 0 -82 1 -120 2c-6 0 -10 5 -10 10c0 2 1 4 2 6c109 158 275 360 389 518c-74 -8 -151 -12 -217 -12c-53 0 -99 3 -131 8c-5 1 -9 5 -9 10c0 6 4 10 10 10s41 -8 130 -8c133 1 233 15 238 15c6 0 10 -4 10 -10c0 -2 -1 -4 -2 -6
c-121 -172 -270 -351 -390 -522c32 0 66 -1 100 -1c198 0 293 21 298 21c6 0 10 -4 10 -10c0 -5 -4 -9 -8 -10c-80 -14 -180 -21 -300 -21z" />
    <glyph glyph-name="zacute" unicode="&#x17a;" 
d="M216 -6c-42 0 -82 1 -120 2c-6 0 -10 5 -10 10c0 2 1 4 2 6c109 158 275 360 389 518c-74 -8 -151 -12 -217 -12c-53 0 -99 3 -131 8c-5 1 -9 5 -9 10c0 6 4 10 10 10s41 -8 130 -8c133 1 233 15 238 15c6 0 10 -4 10 -10c0 -2 -1 -4 -2 -6
c-121 -172 -270 -351 -390 -522c32 0 66 -1 100 -1c198 0 293 21 298 21c6 0 10 -4 10 -10c0 -5 -4 -9 -8 -10c-80 -14 -180 -21 -300 -21zM199 635c0 3 2 6 4 8l202 151c2 1 4 2 6 2c6 0 10 -4 10 -10c0 -3 -2 -6 -4 -8l-202 -151c-2 -1 -4 -2 -6 -2c-6 0 -10 4 -10 10z
" />
    <glyph glyph-name="zcaron" unicode="&#x17e;" 
d="M216 -6c-42 0 -82 1 -120 2c-6 0 -10 5 -10 10c0 2 1 4 2 6c109 158 275 360 389 518c-74 -8 -151 -12 -217 -12c-53 0 -99 3 -131 8c-5 1 -9 5 -9 10c0 6 4 10 10 10s41 -8 130 -8c133 1 233 15 238 15c6 0 10 -4 10 -10c0 -2 -1 -4 -2 -6
c-121 -172 -270 -351 -390 -522c32 0 66 -1 100 -1c198 0 293 21 298 21c6 0 10 -4 10 -10c0 -5 -4 -9 -8 -10c-80 -14 -180 -21 -300 -21zM118 786c0 6 4 10 10 10c3 0 5 -1 7 -3c44 -41 97 -82 165 -126c66 41 127 82 186 127c2 1 4 2 6 2c6 0 10 -4 10 -10
c0 -3 -2 -6 -4 -8c-65 -49 -130 -92 -193 -131c-1 -1 -3 -2 -5 -2s-4 1 -6 2c-70 46 -127 89 -173 132c-2 2 -3 4 -3 7z" />
    <glyph glyph-name="zdotaccent" unicode="&#x17c;" 
d="M216 -6c-42 0 -82 1 -120 2c-6 0 -10 5 -10 10c0 2 1 4 2 6c109 158 275 360 389 518c-74 -8 -151 -12 -217 -12c-53 0 -99 3 -131 8c-5 1 -9 5 -9 10c0 6 4 10 10 10s41 -8 130 -8c133 1 233 15 238 15c6 0 10 -4 10 -10c0 -2 -1 -4 -2 -6
c-121 -172 -270 -351 -390 -522c32 0 66 -1 100 -1c198 0 293 21 298 21c6 0 10 -4 10 -10c0 -5 -4 -9 -8 -10c-80 -14 -180 -21 -300 -21zM278 726c0 35 10 51 34 51c18 0 31 -14 31 -32c0 -22 -16 -54 -37 -76c-2 -2 -4 -3 -7 -3c-4 0 -8 3 -9 6c-5 1 -8 4 -9 9
c-2 18 -3 33 -3 45z" />
    <glyph glyph-name="a.ss01" 
d="M250 -8c-97 0 -163 97 -163 238c0 199 135 320 256 320c52 0 99 -28 137 -82c4 19 8 38 13 55c1 5 5 8 10 8c6 0 10 -4 10 -10c0 -1 0 -3 -1 -7c-25 -94 -42 -227 -42 -289c0 -98 28 -180 76 -225c2 -2 3 -4 3 -7c0 -6 -4 -10 -10 -10c-3 0 -5 1 -7 3
c-44 40 -72 109 -80 190c-53 -117 -125 -184 -202 -184zM107 230c0 -131 58 -218 143 -218c75 0 149 77 200 209v4c0 47 9 133 25 215c-36 59 -81 90 -132 90c-130 0 -236 -133 -236 -300z" />
    <glyph glyph-name="aacute.ss01" 
d="M250 -8c-97 0 -163 97 -163 238c0 199 135 320 256 320c52 0 99 -28 137 -82c4 19 8 38 13 55c1 5 5 8 10 8c6 0 10 -4 10 -10c0 -1 0 -3 -1 -7c-25 -94 -42 -227 -42 -289c0 -98 28 -180 76 -225c2 -2 3 -4 3 -7c0 -6 -4 -10 -10 -10c-3 0 -5 1 -7 3
c-44 40 -72 109 -80 190c-53 -117 -125 -184 -202 -184zM107 230c0 -131 58 -218 143 -218c75 0 149 77 200 209v4c0 47 9 133 25 215c-36 59 -81 90 -132 90c-130 0 -236 -133 -236 -300zM199 635c0 3 2 6 4 8l202 151c2 1 4 2 6 2c6 0 10 -4 10 -10c0 -3 -2 -6 -4 -8
l-202 -151c-2 -1 -4 -2 -6 -2c-6 0 -10 4 -10 10z" />
    <glyph glyph-name="abreve.ss01" 
d="M250 -8c-97 0 -163 97 -163 238c0 199 135 320 256 320c52 0 99 -28 137 -82c4 19 8 38 13 55c1 5 5 8 10 8c6 0 10 -4 10 -10c0 -1 0 -3 -1 -7c-25 -94 -42 -227 -42 -289c0 -98 28 -180 76 -225c2 -2 3 -4 3 -7c0 -6 -4 -10 -10 -10c-3 0 -5 1 -7 3
c-44 40 -72 109 -80 190c-53 -117 -125 -184 -202 -184zM107 230c0 -131 58 -218 143 -218c75 0 149 77 200 209v4c0 47 9 133 25 215c-36 59 -81 90 -132 90c-130 0 -236 -133 -236 -300zM126 776v3c0 6 4 10 10 10c5 0 9 -3 10 -8c18 -64 88 -109 171 -109
c81 0 143 44 157 111c1 5 5 8 10 8c6 0 10 -4 10 -10v-2c-17 -77 -87 -127 -177 -127c-91 0 -170 51 -191 124z" />
    <glyph glyph-name="acircumflex.ss01" 
d="M250 -8c-97 0 -163 97 -163 238c0 199 135 320 256 320c52 0 99 -28 137 -82c4 19 8 38 13 55c1 5 5 8 10 8c6 0 10 -4 10 -10c0 -1 0 -3 -1 -7c-25 -94 -42 -227 -42 -289c0 -98 28 -180 76 -225c2 -2 3 -4 3 -7c0 -6 -4 -10 -10 -10c-3 0 -5 1 -7 3
c-44 40 -72 109 -80 190c-53 -117 -125 -184 -202 -184zM107 230c0 -131 58 -218 143 -218c75 0 149 77 200 209v4c0 47 9 133 25 215c-36 59 -81 90 -132 90c-130 0 -236 -133 -236 -300zM118 655c0 3 2 6 4 8c65 49 130 92 193 131c1 1 3 2 5 2s4 -1 6 -2
c70 -46 127 -89 173 -132c2 -2 3 -4 3 -7c0 -6 -4 -10 -10 -10c-3 0 -5 1 -7 3c-44 41 -97 82 -165 126c-66 -41 -127 -82 -186 -127c-2 -1 -4 -2 -6 -2c-6 0 -10 4 -10 10z" />
    <glyph glyph-name="adieresis.ss01" 
d="M250 -8c-97 0 -163 97 -163 238c0 199 135 320 256 320c52 0 99 -28 137 -82c4 19 8 38 13 55c1 5 5 8 10 8c6 0 10 -4 10 -10c0 -1 0 -3 -1 -7c-25 -94 -42 -227 -42 -289c0 -98 28 -180 76 -225c2 -2 3 -4 3 -7c0 -6 -4 -10 -10 -10c-3 0 -5 1 -7 3
c-44 40 -72 109 -80 190c-53 -117 -125 -184 -202 -184zM107 230c0 -131 58 -218 143 -218c75 0 149 77 200 209v4c0 47 9 133 25 215c-36 59 -81 90 -132 90c-130 0 -236 -133 -236 -300zM199 709c0 9 1 17 3 27c1 5 5 8 10 8c6 0 10 -4 10 -10c0 -4 -3 -15 -3 -25
c0 -21 6 -43 6 -48c0 -6 -4 -10 -10 -10c-5 0 -9 4 -10 8c-4 20 -6 36 -6 50zM398 672c0 5 2 10 2 32c0 30 -1 38 -1 42c0 6 4 10 10 10c5 0 10 -4 10 -10c1 -10 1 -27 1 -42s0 -27 -2 -34c-1 -5 -5 -8 -10 -8c-6 0 -10 4 -10 10z" />
    <glyph glyph-name="agrave.ss01" 
d="M250 -8c-97 0 -163 97 -163 238c0 199 135 320 256 320c52 0 99 -28 137 -82c4 19 8 38 13 55c1 5 5 8 10 8c6 0 10 -4 10 -10c0 -1 0 -3 -1 -7c-25 -94 -42 -227 -42 -289c0 -98 28 -180 76 -225c2 -2 3 -4 3 -7c0 -6 -4 -10 -10 -10c-3 0 -5 1 -7 3
c-44 40 -72 109 -80 190c-53 -117 -125 -184 -202 -184zM107 230c0 -131 58 -218 143 -218c75 0 149 77 200 209v4c0 47 9 133 25 215c-36 59 -81 90 -132 90c-130 0 -236 -133 -236 -300zM199 786c0 6 4 10 10 10c2 0 4 -1 6 -2l202 -151c2 -2 4 -5 4 -8
c0 -6 -4 -10 -10 -10c-2 0 -4 1 -6 2l-202 151c-2 2 -4 5 -4 8z" />
    <glyph glyph-name="amacron.ss01" 
d="M250 -8c-97 0 -163 97 -163 238c0 199 135 320 256 320c52 0 99 -28 137 -82c4 19 8 38 13 55c1 5 5 8 10 8c6 0 10 -4 10 -10c0 -1 0 -3 -1 -7c-25 -94 -42 -227 -42 -289c0 -98 28 -180 76 -225c2 -2 3 -4 3 -7c0 -6 -4 -10 -10 -10c-3 0 -5 1 -7 3
c-44 40 -72 109 -80 190c-53 -117 -125 -184 -202 -184zM107 230c0 -131 58 -218 143 -218c75 0 149 77 200 209v4c0 47 9 133 25 215c-36 59 -81 90 -132 90c-130 0 -236 -133 -236 -300zM112 671c0 5 4 9 9 10c106 15 287 22 376 22c6 0 10 -4 10 -10s-4 -10 -10 -10
c-216 0 -371 -22 -375 -22c-6 0 -10 4 -10 10z" />
    <glyph glyph-name="aogonek.ss01" 
d="M250 -8c-97 0 -163 97 -163 238c0 199 135 320 256 320c52 0 99 -28 137 -82c4 19 8 38 13 55c1 5 5 8 10 8c6 0 10 -4 10 -10c0 -1 0 -3 -1 -7c-25 -94 -42 -227 -42 -289c0 -98 28 -180 76 -225c2 -2 3 -4 3 -7c0 -4 -2 -7 -4 -8l-1 -1c-70 -37 -119 -90 -119 -128
c0 -34 30 -59 69 -59c34 0 75 16 103 41c2 1 4 2 7 2c6 0 10 -4 10 -10c0 -3 -1 -6 -3 -8c-32 -27 -78 -45 -117 -45c-50 0 -89 34 -89 79c0 44 47 99 118 139c-39 41 -63 106 -71 181c-53 -117 -125 -184 -202 -184zM107 230c0 -131 58 -218 143 -218c75 0 149 77 200 209
v4c0 47 9 133 25 215c-36 59 -81 90 -132 90c-130 0 -236 -133 -236 -300z" />
    <glyph glyph-name="aring.ss01" 
d="M250 -8c-97 0 -163 97 -163 238c0 199 135 320 256 320c52 0 99 -28 137 -82c4 19 8 38 13 55c1 5 5 8 10 8c6 0 10 -4 10 -10c0 -1 0 -3 -1 -7c-25 -94 -42 -227 -42 -289c0 -98 28 -180 76 -225c2 -2 3 -4 3 -7c0 -6 -4 -10 -10 -10c-3 0 -5 1 -7 3
c-44 40 -72 109 -80 190c-53 -117 -125 -184 -202 -184zM107 230c0 -131 58 -218 143 -218c75 0 149 77 200 209v4c0 47 9 133 25 215c-36 59 -81 90 -132 90c-130 0 -236 -133 -236 -300zM192 748c0 67 55 125 117 125c58 0 118 -58 118 -115c0 -64 -52 -121 -112 -121
c-74 0 -123 44 -123 111zM212 748c0 -56 40 -91 103 -91c48 0 92 48 92 101c0 46 -51 95 -98 95c-51 0 -97 -49 -97 -105z" />
    <glyph glyph-name="aringacute.ss01" 
d="M250 -8c-97 0 -163 97 -163 238c0 199 135 320 256 320c52 0 99 -28 137 -82c4 19 8 38 13 55c1 5 5 8 10 8c6 0 10 -4 10 -10c0 -1 0 -3 -1 -7c-25 -94 -42 -227 -42 -289c0 -98 28 -180 76 -225c2 -2 3 -4 3 -7c0 -6 -4 -10 -10 -10c-3 0 -5 1 -7 3
c-44 40 -72 109 -80 190c-53 -117 -125 -184 -202 -184zM107 230c0 -131 58 -218 143 -218c75 0 149 77 200 209v4c0 47 9 133 25 215c-36 59 -81 90 -132 90c-130 0 -236 -133 -236 -300zM192 748c0 67 55 125 117 125c21 0 41 -7 60 -19l176 132c2 1 4 2 6 2
c6 0 10 -4 10 -10c0 -3 -2 -6 -4 -8l-172 -129c25 -22 42 -53 42 -83c0 -64 -52 -121 -112 -121c-74 0 -123 44 -123 111zM212 748c0 -56 40 -91 103 -91c48 0 92 48 92 101c0 46 -51 95 -98 95c-51 0 -97 -49 -97 -105z" />
    <glyph glyph-name="atilde.ss01" 
d="M250 -8c-97 0 -163 97 -163 238c0 199 135 320 256 320c52 0 99 -28 137 -82c4 19 8 38 13 55c1 5 5 8 10 8c6 0 10 -4 10 -10c0 -1 0 -3 -1 -7c-25 -94 -42 -227 -42 -289c0 -98 28 -180 76 -225c2 -2 3 -4 3 -7c0 -6 -4 -10 -10 -10c-3 0 -5 1 -7 3
c-44 40 -72 109 -80 190c-53 -117 -125 -184 -202 -184zM87 654v2c14 74 67 125 131 125c50 0 80 -30 106 -58c27 -27 50 -51 92 -51c50 0 88 43 97 110c1 5 5 9 10 9c6 0 10 -4 10 -10v-2c-11 -76 -57 -127 -117 -127c-50 0 -80 30 -106 58c-27 27 -50 51 -92 51
c-54 0 -99 -44 -111 -109c-1 -4 -5 -8 -10 -8c-6 0 -10 4 -10 10zM107 230c0 -131 58 -218 143 -218c75 0 149 77 200 209v4c0 47 9 133 25 215c-36 59 -81 90 -132 90c-130 0 -236 -133 -236 -300z" />
    <glyph glyph-name="fi" unicode="&#xfb01;" 
d="M127 -62c-6 0 -10 4 -10 10c0 3 16 69 16 186c0 44 -3 264 -4 380c-8 -1 -17 -1 -26 -1c-17 0 -36 1 -52 2c-5 0 -9 5 -9 10c0 6 4 10 10 10c3 0 33 -2 51 -2l26 1v43c0 154 44 230 135 230c17 0 34 -4 49 -11c4 -2 6 -5 6 -9c0 -6 -4 -10 -10 -10c-2 0 -3 0 -7 2
c-10 5 -24 8 -38 8c-78 0 -115 -66 -115 -210v-42c52 3 104 13 148 28c1 1 2 1 3 1c6 0 10 -4 10 -10c0 -4 -3 -8 -7 -10c-45 -16 -99 -26 -154 -29c1 -116 4 -337 4 -381c0 -72 -5 -134 -16 -188c-1 -4 -5 -8 -10 -8zM441 176c0 136 7 279 18 361c1 5 5 9 10 9
c6 0 10 -4 10 -10s-18 -118 -18 -360c0 -110 4 -172 4 -178s-4 -10 -10 -10c-5 0 -10 4 -10 10c-2 42 -4 106 -4 178zM454 756c0 31 5 51 23 51c13 0 20 -15 20 -32c0 -21 -8 -52 -18 -73c-2 -4 -5 -6 -9 -6c-5 0 -9 3 -10 8c-2 2 -4 4 -4 7c-1 18 -2 33 -2 45z" />
    <glyph glyph-name="fl" unicode="&#xfb02;" 
d="M103 513c-17 0 -34 1 -52 2c-5 0 -9 5 -9 10c0 6 4 10 11 10c3 0 25 -2 50 -2l26 1v43c0 154 44 230 135 230c17 0 34 -4 49 -11c4 -2 6 -5 6 -9c0 -6 -4 -10 -10 -10c-2 0 -3 0 -7 2c-10 5 -24 8 -38 8c-78 0 -115 -66 -115 -210v-42c91 6 148 29 151 29
c6 0 10 -4 10 -10c0 -4 -3 -8 -7 -10c-45 -16 -99 -26 -154 -29c1 -116 4 -337 4 -381c0 -72 -5 -134 -16 -188c-1 -4 -5 -8 -10 -8c-6 0 -10 4 -10 10c0 3 16 69 16 186c0 44 -3 264 -4 380c-8 -1 -17 -1 -26 -1zM397 200c0 181 11 405 30 607c0 5 5 9 10 9
c6 0 10 -4 10 -10c0 -12 -30 -300 -30 -606c0 -130 20 -193 58 -193c23 0 56 15 88 41c1 1 4 2 6 2c6 0 10 -4 10 -10c0 -3 -1 -6 -4 -8c-34 -28 -71 -45 -100 -45c-54 0 -78 70 -78 213z" />
    <glyph glyph-name="ordfeminine" unicode="&#xaa;" 
d="M474 392c-5 0 -10 4 -10 9c-2 26 -4 55 -8 86c-52 -45 -130 -72 -206 -72c-88 0 -138 37 -138 102c0 74 66 116 181 116c47 0 102 -7 148 -20c-1 15 -3 28 -5 41c-13 96 -50 135 -126 135c-44 0 -93 -13 -141 -37c-2 -1 -3 -1 -5 -1c-6 0 -10 4 -10 10c0 4 2 7 6 9
c50 25 103 39 150 39c87 0 131 -47 146 -153c10 -72 23 -180 28 -254c0 -6 -4 -10 -10 -10zM132 517c0 -53 41 -82 118 -82s155 30 204 77l-10 79c-46 14 -103 22 -151 22c-104 0 -161 -34 -161 -96z" />
    <glyph glyph-name="ordmasculine" unicode="&#xba;" 
d="M301 409c-113 0 -176 65 -176 182c0 121 89 221 197 221c109 0 174 -79 174 -209c0 -115 -80 -194 -195 -194zM145 591c0 -105 55 -162 156 -162c104 0 175 71 175 174c0 120 -57 189 -154 189s-177 -90 -177 -201z" />
    <glyph glyph-name="uni0410" unicode="&#x410;" 
d="M550 -9c-5 0 -9 4 -10 8c-15 73 -31 150 -49 230c-91 -3 -230 -12 -352 -24c-26 -65 -48 -127 -63 -180c-1 -4 -5 -7 -10 -7c-6 0 -10 4 -10 10c0 1 0 3 1 6c14 50 35 108 59 169l-52 -6c-6 0 -10 4 -10 10c0 5 4 9 9 10l62 7c70 169 167 360 242 483c2 3 5 5 9 5
c5 0 8 -3 10 -7c72 -239 132 -491 173 -697l1 -7c0 -6 -4 -10 -10 -10zM148 226c115 11 233 19 338 23c-33 139 -70 285 -113 429c-72 -121 -160 -295 -225 -452z" />
    <glyph glyph-name="uni0411" unicode="&#x411;" 
d="M227 -7c-29 0 -57 2 -83 7c-4 1 -8 5 -8 9c-7 77 -10 201 -10 337c0 108 2 224 6 331h-31c-6 0 -10 4 -10 10c0 5 4 10 10 10c26 0 233 4 301 4c32 0 62 0 89 -1c6 0 10 -5 10 -10c0 -6 -4 -10 -10 -10c-27 1 -57 1 -89 1c-53 0 -178 -2 -250 -3c-1 -35 -5 -182 -6 -290
c27 6 58 10 90 10c155 0 284 -93 284 -207c0 -116 -123 -198 -293 -198zM146 346c1 -132 3 -251 9 -327c22 -4 46 -6 72 -6c159 0 273 74 273 178c0 102 -120 187 -264 187c-33 0 -62 -4 -90 -10v-22z" />
    <glyph glyph-name="uni0412" unicode="&#x412;" 
d="M126 -19c-6 0 -10 4 -10 10c0 41 -10 648 -10 699c0 5 4 9 9 10c40 4 80 7 117 7c186 0 283 -62 283 -182c0 -90 -65 -154 -173 -177c144 -26 226 -82 226 -160c0 -122 -157 -190 -432 -191v-6c0 -6 -4 -10 -10 -10zM126 681l5 -315c51 0 99 -3 143 -8
c137 8 221 71 221 167c0 107 -88 162 -263 162c-34 0 -69 -3 -106 -6zM131 346l5 -329c263 1 412 64 412 171c0 96 -158 157 -417 158z" />
    <glyph glyph-name="uni0413" unicode="&#x413;" 
d="M132 -10c-6 0 -10 4 -10 10c0 173 6 531 11 668c0 5 4 9 8 10c88 16 181 25 272 25c42 0 84 -2 125 -6c5 0 9 -5 9 -10c0 -6 -4 -10 -10 -10c-10 0 -50 7 -124 6c-85 -1 -173 -8 -260 -23c-5 -143 -11 -490 -11 -660c0 -6 -4 -10 -10 -10z" />
    <glyph glyph-name="uni0403" unicode="&#x403;" 
d="M132 -10c-6 0 -10 4 -10 10c0 173 6 531 11 668c0 5 4 9 8 10c88 16 181 25 272 25c42 0 84 -2 125 -6c5 0 9 -5 9 -10c0 -6 -4 -10 -10 -10c-10 0 -50 7 -124 6c-85 -1 -173 -8 -260 -23c-5 -143 -11 -490 -11 -660c0 -6 -4 -10 -10 -10zM199 795c0 3 2 6 4 8l202 151
c2 1 4 2 6 2c6 0 10 -4 10 -10c0 -3 -2 -6 -4 -8l-202 -151c-2 -1 -4 -2 -6 -2c-6 0 -10 4 -10 10z" />
    <glyph glyph-name="uni0490" unicode="&#x490;" 
d="M132 -15c-6 0 -10 4 -10 10c0 174 6 534 11 672c0 5 4 9 8 10c88 16 181 25 272 25c38 0 77 -2 115 -5c2 34 1 98 0 129c0 6 4 10 10 10c5 0 10 -4 10 -10c0 -20 1 -45 1 -70c0 -28 -1 -52 -2 -71c0 -5 -5 -9 -10 -9c-6 0 -48 6 -124 6c-85 -1 -173 -8 -260 -23
c-5 -144 -11 -493 -11 -664c0 -6 -4 -10 -10 -10z" />
    <glyph glyph-name="uni0492" unicode="&#x492;" 
d="M132 -10c-6 0 -10 4 -10 10c0 76 1 188 3 301c-46 -6 -74 -10 -78 -10c-6 0 -10 4 -10 10c0 5 4 9 9 10c26 4 53 7 79 10c2 137 5 274 8 347c0 5 4 9 8 10c88 16 181 25 272 25c42 0 84 -2 125 -6c5 0 9 -5 9 -10c0 -6 -4 -10 -10 -10c-10 0 -50 7 -124 6
c-85 -1 -173 -8 -260 -23c-3 -75 -6 -205 -8 -337c62 6 124 10 185 12c6 0 10 -4 10 -10c0 -5 -4 -10 -10 -10c-74 -2 -137 -7 -185 -12c-2 -114 -3 -226 -3 -303c0 -6 -4 -10 -10 -10z" />
    <glyph glyph-name="uni0414" unicode="&#x414;" 
d="M40 -207c-6 0 -10 4 -10 10c5 87 12 147 22 189c1 4 5 7 9 8c9 1 24 3 44 5c61 104 88 289 88 602v71c0 5 4 9 8 10c64 11 198 18 288 19c6 0 10 -4 10 -10c0 -11 -12 -146 -12 -347c0 -67 2 -201 7 -322l42 1c5 0 10 -4 10 -10c0 -70 0 -171 2 -215c0 -6 -4 -10 -10 -10
c-5 0 -10 4 -10 9c-1 17 -2 155 -2 205c-144 -4 -378 -17 -456 -27c-8 -35 -13 -86 -20 -179c0 -5 -5 -9 -10 -9zM130 7c94 7 251 16 344 20c-5 122 -7 256 -7 323c0 117 5 246 11 337c-85 -1 -202 -8 -265 -17v-63c0 -337 -32 -504 -83 -600z" />
    <glyph glyph-name="uni0415" unicode="&#x415;" 
d="M539 -1c-109 0 -258 7 -347 16c-75 8 -108 41 -108 110c0 46 8 140 12 227h-4c-6 0 -10 5 -10 10c0 6 4 10 10 10h5c1 28 2 55 2 78c0 224 -12 226 -12 239c0 6 4 10 10 10c5 0 9 -3 10 -8l2 -13c89 16 191 24 287 24c45 0 89 -2 132 -6c5 -1 9 -5 9 -10
c0 -6 -4 -10 -10 -10c-10 0 -51 6 -131 6c-96 0 -197 -9 -284 -24c5 -42 7 -105 7 -208c0 -22 -1 -49 -2 -78c119 -2 271 4 368 17h2c6 0 10 -4 10 -10c0 -5 -4 -9 -9 -10c-101 -14 -254 -19 -372 -17c-4 -89 -12 -189 -12 -227c0 -59 25 -83 90 -90c90 -10 237 -16 345 -16
c6 0 10 -4 10 -10s-4 -10 -10 -10z" />
    <glyph glyph-name="uni0400" unicode="&#x400;" 
d="M539 -1c-109 0 -258 7 -347 16c-75 8 -108 41 -108 110c0 46 8 140 12 227h-4c-6 0 -10 5 -10 10c0 6 4 10 10 10h5c1 28 2 55 2 78c0 224 -12 226 -12 239c0 6 4 10 10 10c5 0 9 -3 10 -8l2 -13c89 16 191 24 287 24c45 0 89 -2 132 -6c5 -1 9 -5 9 -10
c0 -6 -4 -10 -10 -10c-10 0 -51 6 -131 6c-96 0 -197 -9 -284 -24c5 -42 7 -105 7 -208c0 -22 -1 -49 -2 -78c119 -2 271 4 368 17h2c6 0 10 -4 10 -10c0 -5 -4 -9 -9 -10c-101 -14 -254 -19 -372 -17c-4 -89 -12 -189 -12 -227c0 -59 25 -83 90 -90c90 -10 237 -16 345 -16
c6 0 10 -4 10 -10s-4 -10 -10 -10zM199 946c0 6 4 10 10 10c2 0 4 -1 6 -2l202 -151c2 -2 4 -5 4 -8c0 -6 -4 -10 -10 -10c-2 0 -4 1 -6 2l-202 151c-2 2 -4 5 -4 8z" />
    <glyph glyph-name="uni0401" unicode="&#x401;" 
d="M539 -1c-109 0 -258 7 -347 16c-75 8 -108 41 -108 110c0 46 8 140 12 227h-4c-6 0 -10 5 -10 10c0 6 4 10 10 10h5c1 28 2 55 2 78c0 224 -12 226 -12 239c0 6 4 10 10 10c5 0 9 -3 10 -8l2 -13c89 16 191 24 287 24c45 0 89 -2 132 -6c5 -1 9 -5 9 -10
c0 -6 -4 -10 -10 -10c-10 0 -51 6 -131 6c-96 0 -197 -9 -284 -24c5 -42 7 -105 7 -208c0 -22 -1 -49 -2 -78c119 -2 271 4 368 17h2c6 0 10 -4 10 -10c0 -5 -4 -9 -9 -10c-101 -14 -254 -19 -372 -17c-4 -89 -12 -189 -12 -227c0 -59 25 -83 90 -90c90 -10 237 -16 345 -16
c6 0 10 -4 10 -10s-4 -10 -10 -10zM199 869c0 9 1 17 3 27c1 5 5 8 10 8c6 0 10 -4 10 -10c0 -4 -3 -15 -3 -25c0 -21 6 -43 6 -48c0 -6 -4 -10 -10 -10c-5 0 -9 4 -10 8c-4 20 -6 36 -6 50zM398 832c0 5 2 10 2 32c0 30 -1 38 -1 42c0 6 4 10 10 10c5 0 10 -4 10 -10
c1 -10 1 -27 1 -42s0 -27 -2 -34c-1 -5 -5 -8 -10 -8c-6 0 -10 4 -10 10z" />
    <glyph glyph-name="uni0416" unicode="&#x416;" 
d="M42 -7c-6 0 -10 4 -10 10c0 2 0 3 1 5c54 112 147 243 225 332c-88 108 -160 232 -210 361c-1 2 -1 3 -1 4c0 6 4 10 10 10c4 0 8 -3 9 -7c50 -128 123 -251 209 -357c9 -1 19 -2 29 -3c2 99 3 215 3 348c0 6 4 10 10 10s10 -4 10 -10c0 -95 -1 -220 -3 -349l28 -1
c86 107 157 231 207 362c1 4 5 7 9 7c6 0 10 -4 10 -10c0 -1 0 -2 -1 -4c-50 -132 -121 -257 -207 -365c77 -90 169 -217 222 -329c1 -2 1 -3 1 -4c0 -6 -4 -10 -10 -10c-4 0 -8 2 -9 6c-53 111 -145 238 -222 327l-29 1c-2 -119 -5 -240 -10 -340c0 -6 -5 -10 -10 -10
c-6 0 -10 4 -10 10c0 3 6 125 11 341l-28 2c-78 -88 -171 -219 -225 -331c-2 -4 -5 -6 -9 -6z" />
    <glyph glyph-name="uni0417" unicode="&#x417;" 
d="M276 -6c-63 0 -118 17 -178 52c-3 2 -5 5 -5 9c0 6 4 10 10 10c2 0 4 -1 5 -1c58 -35 110 -50 168 -50c123 0 206 70 206 173c0 99 -83 163 -213 163c-21 0 -56 -4 -59 -4c-6 0 -10 4 -10 10v2c0 5 3 8 7 10c176 58 262 122 262 194s-67 126 -155 126
c-56 0 -125 -19 -181 -50c-2 -1 -3 -1 -5 -1c-6 0 -10 4 -10 10c0 4 2 7 5 9c60 32 132 52 191 52c99 0 175 -63 175 -146c0 -73 -71 -136 -216 -192c138 0 229 -73 229 -183c0 -114 -92 -193 -226 -193z" />
    <glyph glyph-name="uni0418" unicode="&#x418;" 
d="M103 707c5 0 10 -4 10 -10c4 -94 8 -315 8 -497c0 -54 0 -105 -1 -148c107 222 262 487 377 640c2 2 5 4 8 4c5 0 10 -4 10 -9c6 -109 9 -241 9 -367c0 -125 -3 -244 -9 -327c0 -5 -5 -9 -10 -9c-6 0 -10 4 -10 10c0 4 9 124 9 326c0 115 -3 235 -8 338
c-119 -165 -277 -439 -378 -657c-1 -4 -5 -6 -9 -6c-6 0 -10 4 -10 10c2 51 2 119 2 195c0 314 -8 487 -8 497c0 6 4 10 10 10z" />
    <glyph glyph-name="uni0419" unicode="&#x419;" 
d="M103 707c5 0 10 -4 10 -10c4 -94 8 -315 8 -497c0 -54 0 -105 -1 -148c107 222 262 487 377 640c2 2 5 4 8 4c5 0 10 -4 10 -9c6 -109 9 -241 9 -367c0 -125 -3 -244 -9 -327c0 -5 -5 -9 -10 -9c-6 0 -10 4 -10 10c0 4 9 124 9 326c0 115 -3 235 -8 338
c-119 -165 -277 -439 -378 -657c-1 -4 -5 -6 -9 -6c-6 0 -10 4 -10 10c2 51 2 119 2 195c0 314 -8 487 -8 497c0 6 4 10 10 10zM116 936v3c0 6 4 10 10 10c5 0 9 -3 10 -8c18 -64 88 -109 171 -109c81 0 143 44 157 111c1 5 5 8 10 8c6 0 10 -4 10 -10v-2
c-17 -77 -87 -127 -177 -127c-91 0 -170 51 -191 124z" />
    <glyph glyph-name="uni040D" unicode="&#x40d;" 
d="M103 707c5 0 10 -4 10 -10c4 -94 8 -315 8 -497c0 -54 0 -105 -1 -148c107 222 262 487 377 640c2 2 5 4 8 4c5 0 10 -4 10 -9c6 -109 9 -241 9 -367c0 -125 -3 -244 -9 -327c0 -5 -5 -9 -10 -9c-6 0 -10 4 -10 10c0 4 9 124 9 326c0 115 -3 235 -8 338
c-119 -165 -277 -439 -378 -657c-1 -4 -5 -6 -9 -6c-6 0 -10 4 -10 10c2 51 2 119 2 195c0 314 -8 487 -8 497c0 6 4 10 10 10zM189 946c0 6 4 10 10 10c2 0 4 -1 6 -2l202 -151c2 -2 4 -5 4 -8c0 -6 -4 -10 -10 -10c-2 0 -4 1 -6 2l-202 151c-2 2 -4 5 -4 8z" />
    <glyph glyph-name="uni041A" unicode="&#x41a;" 
d="M534 -2c-2 0 -5 1 -7 3c-103 88 -243 232 -332 332c-11 0 -30 1 -45 2c0 -34 -1 -68 -1 -103c0 -96 9 -219 9 -228c0 -6 -4 -10 -10 -10c-5 0 -10 4 -10 9c-5 73 -9 172 -9 229c0 122 9 326 23 467c1 5 5 9 10 9c6 0 10 -4 10 -10c0 -2 -16 -158 -21 -343
c15 -1 35 -2 46 -2c129 90 239 205 315 332c2 3 5 5 9 5c6 0 10 -4 10 -10c0 -2 -1 -4 -2 -5c-77 -128 -186 -244 -314 -334c88 -99 225 -239 326 -325c2 -2 3 -5 3 -8c0 -6 -4 -10 -10 -10z" />
    <glyph glyph-name="uni040C" unicode="&#x40c;" 
d="M534 -2c-2 0 -5 1 -7 3c-103 88 -243 232 -332 332c-11 0 -30 1 -45 2c0 -34 -1 -68 -1 -103c0 -96 9 -219 9 -228c0 -6 -4 -10 -10 -10c-5 0 -10 4 -10 9c-5 73 -9 172 -9 229c0 122 9 326 23 467c1 5 5 9 10 9c6 0 10 -4 10 -10c0 -2 -16 -158 -21 -343
c15 -1 35 -2 46 -2c129 90 239 205 315 332c2 3 5 5 9 5c6 0 10 -4 10 -10c0 -2 -1 -4 -2 -5c-77 -128 -186 -244 -314 -334c88 -99 225 -239 326 -325c2 -2 3 -5 3 -8c0 -6 -4 -10 -10 -10zM199 795c0 3 2 6 4 8l202 151c2 1 4 2 6 2c6 0 10 -4 10 -10c0 -3 -2 -6 -4 -8
l-202 -151c-2 -1 -4 -2 -6 -2c-6 0 -10 4 -10 10z" />
    <glyph glyph-name="uni041B" unicode="&#x41b;" 
d="M514 -15c-5 0 -10 4 -10 9c-8 157 -17 394 -17 483c0 59 4 141 11 206c-46 2 -106 4 -164 4c-48 0 -85 -1 -111 -2v-56c0 -374 -47 -540 -181 -633c-2 -1 -4 -2 -6 -2c-6 0 -10 4 -10 10c0 3 2 7 4 8c128 89 173 249 173 617v55c-18 -1 -28 -2 -29 -2c-6 0 -10 4 -10 10
c0 5 4 10 9 10c37 3 98 5 161 5s128 -2 176 -5c5 0 9 -5 9 -10c0 -4 -12 -119 -12 -215c0 -166 17 -470 17 -482c0 -6 -4 -10 -10 -10z" />
    <glyph glyph-name="uni041C" unicode="&#x41c;" 
d="M42 -10c-6 0 -10 4 -10 10c8 200 29 488 35 696c0 6 5 10 10 10c4 0 8 -2 9 -6c114 -244 167 -351 212 -473c50 127 156 365 203 485c1 4 5 7 9 7c5 0 9 -4 10 -9c24 -222 66 -659 66 -697c0 -6 -4 -10 -10 -10c-5 0 -10 4 -10 9c-9 133 -23 285 -62 657
c-35 -86 -138 -325 -197 -474c-1 -4 -5 -7 -9 -7s-8 3 -10 7c-35 105 -106 253 -202 459c-6 -148 -28 -513 -34 -654c0 -6 -5 -10 -10 -10z" />
    <glyph glyph-name="uni041D" unicode="&#x41d;" 
d="M514 -21c-5 0 -10 4 -10 10c-5 94 -10 215 -13 318c-42 4 -94 6 -148 6c-79 0 -160 -4 -210 -10c-3 -124 -12 -228 -27 -304c-1 -4 -5 -8 -10 -8c-6 0 -10 4 -10 10c0 7 28 124 28 387c0 148 -11 296 -11 301c0 6 4 10 10 10c5 0 10 -4 10 -9c6 -85 11 -193 11 -302
l-1 -65c52 7 133 10 210 10c57 0 108 -2 147 -6c-2 62 -3 116 -3 149c0 72 11 165 27 234c1 5 5 8 10 8c6 0 10 -4 10 -10c0 -10 -27 -103 -27 -232c0 -127 17 -484 17 -487c0 -6 -4 -10 -10 -10z" />
    <glyph glyph-name="uni041E" unicode="&#x41e;" 
d="M288 -6c-138 0 -220 91 -220 244c0 222 90 469 247 469c147 0 235 -94 235 -252c0 -272 -106 -461 -262 -461zM88 238c0 -142 74 -224 200 -224c142 0 242 180 242 441c0 146 -79 232 -215 232c-143 0 -227 -231 -227 -449z" />
    <glyph glyph-name="uni041F" unicode="&#x41f;" 
d="M514 -20c-5 0 -10 4 -10 10c-8 139 -17 348 -17 427c0 78 6 184 16 266c-33 2 -72 4 -113 4c-91 0 -195 -5 -256 -14v-53c0 -190 -11 -455 -28 -617c-1 -5 -5 -9 -10 -9c-6 0 -10 4 -10 10c0 11 28 263 28 616v62c0 5 4 9 9 10c58 8 168 15 267 15c48 0 91 -2 125 -5
c5 0 9 -5 9 -10c0 -6 -17 -131 -17 -275c0 -136 17 -417 17 -427c0 -6 -4 -10 -10 -10z" />
    <glyph glyph-name="uni0420" unicode="&#x420;" 
d="M149 -16c-5 0 -10 4 -10 10c-3 124 -9 397 -9 530c0 58 1 112 2 161c0 5 3 9 8 10c29 7 61 11 96 11c155 0 284 -102 284 -226c0 -127 -123 -217 -293 -217c-26 0 -51 2 -74 6l6 -275c0 -6 -4 -10 -10 -10zM150 524c0 -79 1 -160 3 -235c22 -4 47 -6 74 -6
c159 0 273 82 273 197c0 112 -120 206 -264 206c-31 0 -59 -3 -84 -9c-1 -49 -2 -101 -2 -153z" />
    <glyph glyph-name="uni0421" unicode="&#x421;" 
d="M287 -12c-144 0 -221 98 -221 277c0 257 117 423 298 423c59 0 105 -18 147 -39l2 74c0 6 5 10 10 10c6 0 10 -4 10 -10l-7 -215c0 -6 -5 -10 -10 -10c-6 0 -10 4 -10 10l4 118c-51 28 -97 42 -146 42c-169 0 -278 -156 -278 -403c0 -169 69 -257 201 -257
c89 0 174 34 268 107c1 1 4 2 6 2c6 0 10 -4 10 -10c0 -3 -2 -6 -4 -8c-97 -75 -186 -111 -280 -111z" />
    <glyph glyph-name="uni0422" unicode="&#x422;" 
d="M320 -10c-6 0 -10 4 -10 10c0 165 -10 479 -22 673c-40 -1 -79 -1 -117 -1c-41 0 -81 0 -119 1c-6 0 -10 5 -10 10c0 6 4 10 10 10c38 -1 77 -1 119 -1c233 0 387 13 393 13s10 -4 10 -10c0 -5 -4 -10 -9 -10c-79 -6 -168 -10 -257 -12c12 -195 22 -508 22 -673
c0 -6 -4 -10 -10 -10z" />
    <glyph glyph-name="uni0423" unicode="&#x423;" 
d="M152 -38c-6 0 -10 4 -10 10c0 3 1 5 3 7c56 63 111 142 163 229l-1 2c-63 133 -160 326 -240 473c-1 2 -1 3 -1 5c0 6 4 10 10 10c4 0 7 -2 9 -5c78 -143 172 -331 235 -464c90 154 169 330 220 480c2 4 6 7 10 7c6 0 10 -4 10 -10c0 -1 0 -1 -1 -3
c-84 -244 -241 -559 -400 -738c-2 -2 -4 -3 -7 -3z" />
    <glyph glyph-name="uni040E" unicode="&#x40e;" 
d="M152 -38c-6 0 -10 4 -10 10c0 3 1 5 3 7c56 63 111 142 163 229l-1 2c-63 133 -160 326 -240 473c-1 2 -1 3 -1 5c0 6 4 10 10 10c4 0 7 -2 9 -5c78 -143 172 -331 235 -464c90 154 169 330 220 480c2 4 6 7 10 7c6 0 10 -4 10 -10c0 -1 0 -1 -1 -3
c-84 -244 -241 -559 -400 -738c-2 -2 -4 -3 -7 -3zM126 936v3c0 6 4 10 10 10c5 0 9 -3 10 -8c18 -64 88 -109 171 -109c81 0 143 44 157 111c1 5 5 8 10 8c6 0 10 -4 10 -10v-2c-17 -77 -87 -127 -177 -127c-91 0 -170 51 -191 124z" />
    <glyph glyph-name="uni0424" unicode="&#x424;" 
d="M288 33c-156 0 -250 110 -250 293c0 156 93 327 253 343l-4 74c0 6 4 10 10 10c5 0 10 -4 10 -9l4 -74h4c166 0 265 -107 265 -288c0 -189 -100 -325 -251 -346c1 -27 1 -53 1 -76c0 -6 -4 -10 -10 -10s-10 4 -10 10c0 25 0 49 -1 74c-7 -1 -14 -1 -21 -1zM58 326
c0 -172 85 -273 230 -273l21 1c-2 243 -12 471 -18 595c-148 -15 -233 -173 -233 -323zM311 650c9 -184 16 -423 18 -594c139 21 231 148 231 326c0 169 -90 268 -245 268h-4z" />
    <glyph glyph-name="uni0425" unicode="&#x425;" 
d="M49 -9c-6 0 -10 4 -10 10c0 2 1 5 2 6c75 94 169 220 242 330c-80 122 -144 240 -189 351c-1 1 -1 3 -1 4c0 6 4 10 10 10c4 0 8 -3 9 -6c44 -109 106 -223 183 -341c76 116 178 257 249 351c2 2 5 4 8 4c6 0 10 -4 10 -10c0 -2 -1 -4 -2 -6c-71 -94 -173 -235 -249 -349
l-5 -7c1 -1 2 -3 3 -4c54 -80 181 -245 249 -328c1 -1 2 -4 2 -6c0 -6 -4 -10 -10 -10c-3 0 -6 1 -8 4c-67 82 -193 245 -247 326c-73 -110 -165 -233 -238 -325c-2 -2 -5 -4 -8 -4z" />
    <glyph glyph-name="uni0427" unicode="&#x427;" 
d="M233 297c-103 0 -160 58 -160 163c0 79 3 159 10 236c0 5 5 9 10 9c6 0 10 -4 10 -10c0 -4 -10 -88 -10 -235c0 -94 48 -143 140 -143c82 0 172 23 235 59v18c0 115 3 226 8 315c0 6 5 10 10 10c6 0 10 -4 10 -10c0 -7 -8 -126 -8 -315c0 -272 28 -392 28 -395
c0 -6 -4 -10 -10 -10c-5 0 -9 3 -10 8c-16 72 -26 214 -28 357c-66 -35 -154 -57 -235 -57z" />
    <glyph glyph-name="uni0426" unicode="&#x426;" 
d="M540 -215c-6 0 -10 4 -10 10c0 4 15 67 19 213c-125 0 -302 -6 -449 -15c-6 0 -10 4 -10 10c2 81 3 199 3 321c0 237 -4 371 -4 377s4 10 10 10c5 0 10 -4 10 -10c3 -99 4 -240 4 -377c0 -116 -1 -230 -3 -310c108 6 230 11 337 13c16 155 26 475 28 671c0 6 5 10 10 10
c6 0 10 -4 10 -10c-2 -195 -12 -515 -28 -671c33 1 64 1 92 1c6 0 10 -4 10 -10c-1 -85 -8 -165 -19 -225c-1 -4 -5 -8 -10 -8z" />
    <glyph glyph-name="uni0428" unicode="&#x428;" 
d="M526 -5c-124 0 -305 1 -456 3c-6 0 -10 4 -10 10c-2 91 -3 229 -3 365c0 119 1 237 2 323c0 6 5 10 10 10c6 0 10 -4 10 -10c0 -8 -2 -126 -2 -323c0 -131 1 -264 3 -355l215 -2c-2 82 -3 210 -3 342c0 123 1 249 3 345c0 6 5 10 10 10c6 0 10 -4 10 -10
c0 -17 -3 -143 -3 -345c0 -132 1 -260 3 -342c73 -1 143 -1 201 -1c1 51 6 429 9 698c0 6 5 10 10 10c6 0 10 -4 10 -10c-3 -300 -8 -658 -9 -708c0 -6 -5 -10 -10 -10z" />
    <glyph glyph-name="uni0429" unicode="&#x429;" 
d="M540 -215c-6 0 -10 4 -10 10v2c11 56 17 132 19 216c-226 0 -461 -15 -469 -15c-6 0 -10 4 -10 10c0 15 3 146 3 316c0 184 -4 364 -4 372c0 6 4 10 10 10c5 0 10 -4 10 -10c3 -99 4 -238 4 -372c0 -114 -1 -226 -3 -305c59 3 122 6 185 8c6 154 9 479 10 676
c0 6 4 10 10 10s10 -4 10 -10c-1 -197 -4 -521 -10 -675c63 2 125 3 182 4c16 156 26 476 28 671c0 6 5 10 10 10c6 0 10 -4 10 -10c-2 -194 -12 -514 -28 -670h62c6 0 10 -4 10 -10c-1 -87 -8 -169 -19 -230c-1 -4 -5 -8 -10 -8z" />
    <glyph glyph-name="uni040F" unicode="&#x40f;" 
d="M516 -5c-9 0 -71 7 -194 8c0 -83 4 -155 13 -205v-2c0 -6 -4 -10 -10 -10c-5 0 -9 4 -10 8c-9 50 -13 122 -13 209h-10c-107 0 -187 -5 -192 -5c-6 0 -10 4 -10 10c0 10 4 114 4 328c0 284 -5 355 -5 370c0 6 4 10 10 10c5 0 10 -4 10 -10c4 -98 5 -236 5 -370
c0 -119 -1 -235 -4 -317c58 3 121 4 182 4c79 0 153 -2 214 -7c-3 110 -4 212 -4 306c0 130 4 251 13 372c0 5 5 9 10 9c6 0 10 -4 10 -10c0 -12 -13 -136 -13 -371c0 -187 4 -304 4 -317c0 -6 -4 -10 -10 -10z" />
    <glyph glyph-name="uni042C" unicode="&#x42c;" 
d="M130 500c0 70 0 139 2 205c0 6 5 10 10 10c6 0 10 -4 10 -10c0 -10 -2 -95 -2 -205l1 -73c26 6 54 9 85 9c155 0 284 -102 284 -226c0 -127 -123 -217 -293 -217c-29 0 -57 2 -83 7c-4 1 -8 5 -8 10c0 16 -6 354 -6 490zM151 407c1 -137 4 -365 5 -389c22 -3 46 -5 71 -5
c159 0 273 82 273 197c0 112 -120 206 -264 206c-32 0 -60 -3 -85 -9z" />
    <glyph glyph-name="uni042B" unicode="&#x42b;" 
d="M147 -7c-22 0 -43 2 -63 7c-5 1 -8 5 -8 10c-2 120 -6 350 -6 482c0 65 0 131 2 193c0 6 5 10 10 10c6 0 10 -4 10 -10c0 -9 -2 -122 -2 -193v-44c21 5 42 8 66 8c137 0 234 -97 234 -236c0 -141 -92 -227 -243 -227zM90 428c1 -134 5 -310 6 -410c17 -3 34 -5 51 -5
c140 0 223 77 223 207c0 128 -87 216 -214 216c-24 0 -45 -3 -66 -8zM507 477c0 63 6 151 16 216c1 5 5 9 10 9c6 0 10 -4 10 -10c0 -9 -16 -98 -16 -215c0 -146 17 -449 17 -472c0 -6 -4 -10 -10 -10c-5 0 -10 4 -10 9c-8 153 -17 386 -17 473z" />
    <glyph glyph-name="uni042A" unicode="&#x42a;" 
d="M297 -7c-26 0 -50 2 -73 7c-4 1 -8 5 -8 10c0 116 -6 349 -6 483c0 65 0 130 2 192c-97 0 -165 -6 -172 -6c-6 0 -10 4 -10 10c0 5 4 10 9 10c56 4 124 6 183 6c6 0 10 -4 10 -10c0 -10 -2 -84 -2 -202v-66c23 6 48 9 76 9c149 0 254 -93 254 -226
c0 -135 -100 -217 -263 -217zM230 407c2 -131 5 -300 6 -389c19 -3 39 -5 61 -5c153 0 243 73 243 197c0 122 -96 206 -234 206c-27 0 -51 -3 -76 -9z" />
    <glyph glyph-name="uni0409" unicode="&#x409;" 
d="M20 -5c-6 0 -10 4 -10 10c0 5 3 9 8 10c70 15 89 75 89 292c0 203 -20 371 -20 381c0 6 4 10 10 10c133 0 217 7 225 7c6 0 10 -4 10 -10c0 -11 -2 -104 -2 -202v-53c147 -4 250 -102 250 -240c0 -117 -86 -204 -203 -204c-18 0 -35 1 -52 4c-5 1 -9 5 -9 10
c-2 126 -6 349 -6 483c0 65 0 130 2 191c-68 -4 -141 -6 -204 -6c11 -114 19 -261 19 -371c0 -200 -14 -292 -105 -312h-2zM330 420c1 -138 5 -298 6 -401c13 -2 25 -3 41 -3c106 0 183 78 183 184c0 127 -94 215 -230 220z" />
    <glyph glyph-name="uni040A" unicode="&#x40a;" 
d="M377 -7c-22 0 -43 2 -63 7c-5 1 -8 5 -8 10c-1 47 -3 187 -5 319c-70 -4 -144 -6 -209 -6c-3 -103 -7 -223 -12 -319c0 -5 -5 -9 -10 -9c-6 0 -10 4 -10 10s14 277 14 472c0 115 -13 208 -13 215c0 6 4 10 10 10c5 0 9 -4 10 -9c8 -65 13 -153 13 -216
c0 -35 -1 -82 -2 -134c65 0 141 2 209 6l-1 143c0 65 0 131 2 193c0 6 5 10 10 10c6 0 10 -4 10 -10c0 -10 -2 -122 -2 -193v-44c21 5 42 8 66 8c114 0 194 -93 194 -226c0 -147 -77 -237 -203 -237zM320 428c1 -149 5 -347 6 -410c17 -3 34 -5 51 -5c115 0 183 80 183 217
c0 122 -71 206 -174 206c-24 0 -45 -3 -66 -8z" />
    <glyph glyph-name="uni0405" unicode="&#x405;" 
d="M293 -5c-97 0 -160 23 -220 81c-2 2 -3 4 -3 7c0 6 4 10 10 10c3 0 5 -1 7 -3c56 -54 114 -75 206 -75c128 0 221 88 221 206c0 96 -62 137 -222 146c-125 6 -177 45 -177 136c0 122 86 201 217 201c70 0 122 -10 173 -35c4 -2 6 -5 6 -9c0 -6 -4 -10 -10 -10
c-10 0 -51 34 -169 34c-120 0 -197 -70 -197 -181c0 -79 43 -111 158 -116c170 -9 241 -58 241 -166c0 -129 -102 -226 -241 -226z" />
    <glyph glyph-name="uni0404" unicode="&#x404;" 
d="M287 -12c-144 0 -221 98 -221 277c0 257 117 423 298 423c59 0 105 -18 147 -39l2 74c0 6 5 10 10 10c6 0 10 -4 10 -10l-7 -215c0 -6 -5 -10 -10 -10c-6 0 -10 4 -10 10l4 118c-51 28 -97 42 -146 42c-150 0 -252 -122 -274 -321c107 10 230 15 306 15c6 0 10 -4 10 -10
s-4 -10 -10 -10c-76 0 -200 -5 -308 -16c-1 -19 -2 -40 -2 -61c0 -169 69 -257 201 -257c89 0 174 34 268 107c1 1 4 2 6 2c6 0 10 -4 10 -10c0 -3 -2 -6 -4 -8c-97 -75 -186 -111 -280 -111z" />
    <glyph glyph-name="uni042D" unicode="&#x42d;" 
d="M232 -9c-58 0 -120 16 -174 46c-3 2 -5 5 -5 9c0 6 4 10 10 10c2 0 4 0 5 -1c50 -28 109 -44 164 -44c174 0 306 137 306 322v21c-215 -6 -321 -23 -331 -23c-6 0 -10 4 -10 10c0 5 4 9 9 10c112 14 226 20 331 23c-12 187 -107 306 -245 306c-64 0 -126 -21 -194 -67
l-7 -104c0 -5 -5 -9 -10 -9c-6 0 -10 4 -10 10l14 197c0 5 5 9 10 9c6 0 10 -4 10 -10l-5 -68c66 42 127 62 192 62c160 0 266 -145 266 -367c0 -196 -140 -342 -326 -342z" />
    <glyph glyph-name="uni0406" unicode="&#x406;" 
d="M147 -8c-6 0 -10 4 -10 10c0 5 4 9 9 10c50 6 109 11 166 14c-13 117 -21 251 -21 365c0 87 3 190 9 292c-53 1 -101 2 -146 3c-6 0 -10 5 -10 10c0 6 4 10 10 10c123 -2 234 -6 316 -11c5 0 9 -5 9 -10c0 -6 -4 -10 -10 -10c-54 3 -104 5 -149 7
c-6 -101 -9 -204 -9 -291c0 -112 8 -245 21 -364c53 3 103 5 143 5c6 0 10 -4 10 -10c0 -5 -4 -10 -10 -10c-107 -1 -228 -8 -328 -20z" />
    <glyph glyph-name="uni0407" unicode="&#x407;" 
d="M147 -8c-6 0 -10 4 -10 10c0 5 4 9 9 10c50 6 109 11 166 14c-13 117 -21 251 -21 365c0 87 3 190 9 292c-53 1 -101 2 -146 3c-6 0 -10 5 -10 10c0 6 4 10 10 10c123 -2 234 -6 316 -11c5 0 9 -5 9 -10c0 -6 -4 -10 -10 -10c-54 3 -104 5 -149 7
c-6 -101 -9 -204 -9 -291c0 -112 8 -245 21 -364c53 3 103 5 143 5c6 0 10 -4 10 -10c0 -5 -4 -10 -10 -10c-107 -1 -228 -8 -328 -20zM199 869c0 9 1 17 3 27c1 5 5 8 10 8c6 0 10 -4 10 -10c0 -4 -3 -15 -3 -25c0 -21 6 -43 6 -48c0 -6 -4 -10 -10 -10c-5 0 -9 4 -10 8
c-4 20 -6 36 -6 50zM398 832c0 5 2 10 2 32c0 30 -1 38 -1 42c0 6 4 10 10 10c5 0 10 -4 10 -10c1 -10 1 -27 1 -42s0 -27 -2 -34c-1 -5 -5 -8 -10 -8c-6 0 -10 4 -10 10z" />
    <glyph glyph-name="uni0408" unicode="&#x408;" 
d="M336 -54c-117 0 -248 107 -248 204c0 27 8 50 23 66c1 2 4 3 7 3c6 0 10 -4 10 -10c0 -3 -1 -5 -3 -7c-11 -12 -17 -30 -17 -52c0 -86 122 -184 228 -184c54 0 88 72 89 194c1 107 -8 279 -28 517c-70 -3 -142 -7 -205 -13c-6 0 -10 4 -10 10c0 5 4 9 9 10
c105 10 249 15 343 17c6 0 10 -4 10 -10c0 -5 -4 -10 -10 -10c-37 -1 -76 -2 -117 -3c19 -228 29 -406 28 -518c-1 -134 -41 -214 -109 -214z" />
    <glyph glyph-name="uni040B" unicode="&#x40b;" 
d="M536 -3c-6 0 -10 4 -10 10c0 4 11 93 11 191c0 117 -53 178 -153 178c-62 0 -131 -25 -180 -64c0 -186 9 -308 9 -319c0 -6 -4 -10 -10 -10c-5 0 -10 4 -10 9c-6 89 -9 201 -9 321c0 137 8 288 21 367h-52c-38 0 -75 1 -111 2c-6 0 -10 5 -10 10c0 6 4 10 10 10
c8 0 72 -2 111 -2c177 0 338 15 347 15c6 0 10 -4 10 -10c0 -5 -4 -10 -9 -10c-83 -7 -179 -12 -275 -14c-13 -71 -21 -208 -22 -344c51 36 118 59 180 59c111 0 173 -71 173 -198c0 -62 -4 -129 -11 -192c-1 -5 -5 -9 -10 -9z" />
    <glyph glyph-name="uni042E" unicode="&#x42e;" 
d="M402 -15c-93 0 -139 108 -141 322c-20 5 -43 7 -69 7c-34 0 -69 -3 -96 -10c-3 -125 -13 -230 -29 -307c-1 -5 -5 -8 -10 -8c-6 0 -10 4 -10 10c0 9 30 110 30 398c0 168 -12 305 -12 311s4 10 10 10c5 0 10 -4 10 -9c7 -88 12 -199 12 -312l-1 -72c28 5 63 9 96 9
c25 0 49 -2 69 -6c1 255 52 380 158 380c101 0 151 -117 151 -343c0 -258 -52 -380 -168 -380zM281 321c0 -211 41 -316 121 -316c101 0 148 112 148 360c0 215 -45 323 -131 323c-92 0 -138 -119 -138 -367z" />
    <glyph glyph-name="uni042F" unicode="&#x42f;" 
d="M69 -26c-6 0 -10 4 -10 10c0 2 1 4 2 6c76 103 179 219 276 307c-160 36 -244 106 -244 207c0 127 147 198 404 198h34c6 0 10 -5 10 -10c0 -14 -8 -178 -8 -375c0 -146 7 -301 7 -317c0 -6 -4 -10 -10 -10c-5 0 -10 4 -10 10c-3 50 -6 188 -7 273c-55 4 -105 10 -150 19
c-101 -88 -207 -207 -286 -314c-2 -2 -5 -4 -8 -4zM113 504c0 -119 138 -193 400 -210v23c0 123 4 253 8 365h-24c-245 0 -384 -65 -384 -178z" />
    <glyph glyph-name="uni0402" unicode="&#x402;" 
d="M395 -15c-35 0 -67 11 -91 33c-2 1 -3 4 -3 7c0 6 4 10 10 10c3 0 5 -1 7 -3c19 -17 47 -27 77 -27c87 0 143 67 143 172c0 130 -58 200 -165 200c-60 0 -124 -25 -169 -64c0 -192 9 -316 9 -320c0 -6 -4 -10 -10 -10c-5 0 -10 4 -10 9c-6 89 -9 202 -9 322
c0 141 8 288 21 366h-53c-38 0 -85 1 -111 2c-6 0 -10 5 -10 10c0 6 4 10 10 10c9 0 72 -2 111 -2c190 0 340 15 349 15c6 0 10 -4 10 -10c0 -5 -4 -10 -9 -10c-83 -7 -180 -12 -277 -14c-12 -71 -20 -208 -21 -343c48 37 110 59 169 59c119 0 185 -79 185 -220
c0 -116 -65 -192 -163 -192z" />
    <glyph glyph-name="uni0462" unicode="&#x462;" 
d="M152 -12c-5 0 -10 4 -10 10c-1 14 -1 30 -1 46c0 151 17 344 17 552c-49 -1 -94 -1 -131 -1c-6 0 -10 4 -10 10s4 10 10 10l131 1c0 45 -2 82 -2 90c0 6 4 10 10 10c5 0 10 -4 10 -10c2 -27 2 -57 2 -90c220 3 339 13 345 13s10 -4 10 -10c0 -5 -4 -10 -9 -10
c-110 -7 -237 -11 -346 -13c0 -64 -2 -134 -5 -203c25 3 51 5 76 5c193 0 332 -79 332 -193c0 -132 -154 -208 -429 -217zM162 8c256 10 399 80 399 197c0 100 -131 173 -312 173c-26 0 -52 -2 -77 -5c-5 -146 -13 -286 -10 -365z" />
    <glyph glyph-name="uni0472" unicode="&#x472;" 
d="M414 313c-86 0 -133 60 -210 60c-38 0 -74 -11 -110 -34c-4 -33 -6 -67 -6 -101c0 -142 74 -224 200 -224c120 0 209 128 235 324c-31 -17 -66 -25 -109 -25zM68 238c0 222 90 469 247 469c147 0 235 -94 235 -252c0 -272 -106 -461 -262 -461c-138 0 -220 91 -220 244z
M97 364c35 19 70 29 107 29c83 0 131 -60 210 -60c47 0 80 9 112 29c2 30 4 61 4 93c0 146 -79 232 -215 232c-115 0 -192 -151 -218 -323z" />
    <glyph glyph-name="uni0474" unicode="&#x474;" 
d="M292 -16c-4 0 -7 2 -9 6c-87 170 -205 487 -257 706l-1 7c0 6 4 10 10 10c5 0 9 -3 10 -8c50 -212 158 -507 243 -681c50 216 103 429 135 541c30 102 62 142 115 142c20 0 43 -9 63 -24c2 -2 4 -5 4 -8c0 -6 -4 -10 -10 -10c-2 0 -4 1 -6 2c-16 13 -36 20 -51 20
c-42 0 -68 -34 -95 -128c-34 -116 -90 -341 -141 -567c-1 -5 -5 -8 -10 -8z" />
    <glyph glyph-name="uni0496" unicode="&#x496;" 
d="M584 -215c-6 0 -10 4 -10 10c0 5 11 66 18 198h-49c-4 0 -8 3 -9 7c-43 110 -119 237 -182 326l-29 1c-2 -119 -5 -240 -10 -340c0 -6 -5 -10 -10 -10c-6 0 -10 4 -10 10c0 5 6 129 10 341l-27 2c-78 -88 -171 -219 -225 -331c-2 -4 -5 -6 -9 -6c-6 0 -10 4 -10 10
c0 2 0 3 1 5c54 112 147 243 225 332c-88 108 -160 232 -210 361c-1 2 -1 3 -1 4c0 6 4 10 10 10c4 0 8 -3 9 -7c50 -128 123 -251 209 -357c9 -1 19 -2 29 -3c2 99 3 216 3 348c0 6 4 10 10 10s10 -4 10 -10c0 -95 -1 -220 -3 -349l28 -1c86 107 157 231 207 362
c1 4 5 7 9 7c6 0 10 -4 10 -10c0 -1 0 -2 -1 -4c-50 -132 -121 -257 -207 -365c62 -89 136 -213 180 -323h52c6 0 10 -4 10 -10c-3 -73 -10 -158 -18 -209c-1 -5 -5 -9 -10 -9z" />
    <glyph glyph-name="uni049A" unicode="&#x49a;" 
d="M565 -210c-6 0 -10 4 -10 10c0 4 10 58 18 198h-39c-2 0 -5 1 -7 2c-103 89 -243 233 -332 333c-11 0 -30 1 -45 2c0 -34 -1 -68 -1 -103c0 -106 9 -221 9 -228c0 -6 -4 -10 -10 -10c-5 0 -10 4 -10 9c-5 73 -9 172 -9 229c0 122 9 326 23 467c1 5 5 9 10 9
c6 0 10 -4 10 -10c0 -7 -15 -160 -21 -343c15 -1 35 -2 46 -2c129 90 239 205 315 332c2 3 5 5 9 5c6 0 10 -4 10 -10c0 -2 -1 -4 -2 -5c-77 -128 -186 -244 -314 -334c87 -98 222 -237 323 -323h45c6 0 10 -4 10 -10c-3 -73 -10 -158 -18 -209c-1 -5 -5 -9 -10 -9z" />
    <glyph glyph-name="uni04A2" unicode="&#x4a2;" 
d="M514 -21c-5 0 -10 4 -10 10c-5 94 -10 215 -13 318c-42 4 -94 6 -148 6c-79 0 -160 -4 -210 -10c-3 -124 -12 -228 -27 -304c-1 -4 -5 -8 -10 -8c-6 0 -10 4 -10 10c0 7 28 124 28 387c0 148 -11 296 -11 301c0 6 4 10 10 10c5 0 10 -4 10 -9c6 -85 11 -193 11 -302
l-1 -65c52 7 133 10 210 10c57 0 108 -2 147 -6c-2 62 -3 116 -3 149c0 72 11 165 27 234c1 5 5 8 10 8c6 0 10 -4 10 -10c0 -10 -27 -103 -27 -232c0 -116 14 -422 17 -478h39c6 0 10 -4 10 -10c-3 -73 -10 -158 -18 -209c-1 -5 -5 -9 -10 -9c-6 0 -10 4 -10 10
s10 57 18 198h-39v1z" />
    <glyph glyph-name="uni04AE" unicode="&#x4ae;" 
d="M312 -8c-6 0 -10 4 -10 10c3 65 6 146 9 250c-64 121 -163 298 -243 431c-1 1 -2 3 -2 5c0 6 4 10 10 10c4 0 7 -2 9 -5c78 -128 172 -295 236 -415c86 136 167 292 220 431c1 4 5 7 9 7c6 0 10 -4 10 -10c0 -1 0 -3 -1 -4c-55 -144 -138 -307 -228 -444
c-3 -98 -6 -187 -9 -256c0 -6 -5 -10 -10 -10z" />
    <glyph glyph-name="uni04B0" unicode="&#x4b0;" 
d="M312 -8c-6 0 -10 4 -10 10c3 65 6 146 9 250l-1 1c-78 -7 -127 -15 -132 -15c-6 0 -10 4 -10 10c0 5 4 9 9 10c41 6 82 10 123 14c-64 120 -156 285 -232 411c-1 1 -2 3 -2 5c0 6 4 10 10 10c4 0 7 -2 9 -5c78 -128 172 -295 236 -415c86 136 167 292 220 431
c1 4 5 7 9 7c6 0 10 -4 10 -10c0 -1 0 -3 -1 -4c-53 -138 -131 -293 -217 -426c40 3 80 5 119 6c6 0 10 -4 10 -10c0 -5 -4 -10 -10 -10c-49 -1 -92 -4 -130 -7c-3 -97 -6 -185 -9 -253c0 -6 -5 -10 -10 -10z" />
    <glyph glyph-name="uni04B2" unicode="&#x4b2;" 
d="M581 -218c-6 0 -10 4 -10 10c0 4 8 28 18 198h-39c-3 0 -6 1 -8 4c-67 82 -193 245 -247 326c-73 -110 -165 -233 -238 -325c-2 -2 -5 -4 -8 -4c-6 0 -10 4 -10 10c0 2 1 5 2 6c75 94 169 220 242 330c-80 122 -144 240 -189 351c-1 1 -1 3 -1 4c0 6 4 10 10 10
c4 0 8 -3 9 -6c44 -109 106 -223 183 -341c75 116 178 257 249 351c2 2 5 4 8 4c6 0 10 -4 10 -10c0 -2 -1 -4 -2 -6c-71 -94 -174 -235 -249 -349l-5 -7c1 -1 2 -3 3 -4c53 -79 177 -240 246 -324h44c6 0 10 -4 10 -10c-3 -73 -10 -158 -18 -209c-1 -5 -5 -9 -10 -9z" />
    <glyph glyph-name="uni04B6" unicode="&#x4b6;" 
d="M233 297c-103 0 -160 58 -160 163c0 79 3 159 10 236c0 5 5 9 10 9c6 0 10 -4 10 -10c0 -4 -10 -88 -10 -235c0 -94 48 -143 140 -143c82 0 172 23 235 59v18c0 115 3 226 8 315c0 6 5 10 10 10c6 0 10 -4 10 -10c0 -7 -8 -126 -8 -315c0 -230 20 -351 26 -385h41
c6 0 10 -4 10 -10c-3 -73 -10 -158 -18 -209c-1 -5 -5 -9 -10 -9c-6 0 -10 4 -10 10s10 57 18 198h-39c-5 0 -9 3 -10 8c-16 72 -26 214 -28 357c-66 -35 -154 -57 -235 -57z" />
    <glyph glyph-name="uni04BA" unicode="&#x4ba;" 
d="M531 -8c-6 0 -10 4 -10 10c0 5 10 82 10 209c0 115 -59 175 -172 175c-82 0 -170 -25 -231 -63v-20c0 -193 8 -307 8 -316c0 -6 -4 -10 -10 -10c-5 0 -10 4 -10 10c-5 89 -8 200 -8 316c0 154 8 325 22 408c1 4 5 8 10 8c6 0 10 -4 10 -10c0 -8 -20 -111 -22 -364
c64 38 151 61 231 61c124 0 192 -69 192 -195c0 -70 -3 -143 -10 -210c-1 -5 -5 -9 -10 -9z" />
    <glyph glyph-name="uni04C0" unicode="&#x4c0;" 
d="M147 -8c-6 0 -10 4 -10 10c0 5 4 9 9 10c50 6 109 11 166 14c-13 117 -21 251 -21 365c0 87 3 190 9 292c-53 1 -101 2 -146 3c-6 0 -10 5 -10 10c0 6 4 10 10 10c123 -2 234 -6 316 -11c5 0 9 -5 9 -10c0 -6 -4 -10 -10 -10c-54 3 -104 5 -149 7
c-6 -101 -9 -204 -9 -291c0 -112 8 -245 21 -364c53 3 103 5 143 5c6 0 10 -4 10 -10c0 -5 -4 -10 -10 -10c-107 -1 -228 -8 -328 -20z" />
    <glyph glyph-name="uni04D8" unicode="&#x4d8;" 
d="M260 -7c-123 0 -202 103 -202 260c0 60 27 93 85 104c81 17 234 43 377 61c-9 173 -88 272 -216 272c-85 0 -156 -32 -232 -104c-2 -2 -4 -3 -7 -3c-6 0 -10 4 -10 10c0 3 1 5 3 7c80 76 155 110 246 110c148 0 237 -123 237 -326c0 -248 -102 -391 -281 -391zM78 253
c0 -147 71 -240 182 -240c167 0 261 134 261 371v14c-142 -18 -293 -44 -374 -61c-49 -9 -69 -33 -69 -84z" />
    <glyph glyph-name="uni04E2" unicode="&#x4e2;" 
d="M103 707c5 0 10 -4 10 -10c4 -94 8 -315 8 -497c0 -54 0 -105 -1 -148c107 222 262 487 377 640c2 2 5 4 8 4c5 0 10 -4 10 -9c6 -109 9 -241 9 -367c0 -125 -3 -244 -9 -327c0 -5 -5 -9 -10 -9c-6 0 -10 4 -10 10c0 4 9 124 9 326c0 115 -3 235 -8 338
c-119 -165 -277 -439 -378 -657c-1 -4 -5 -6 -9 -6c-6 0 -10 4 -10 10c2 51 2 119 2 195c0 314 -8 487 -8 497c0 6 4 10 10 10zM102 831c0 5 4 9 9 10c106 15 287 22 376 22c6 0 10 -4 10 -10s-4 -10 -10 -10c-216 0 -371 -22 -375 -22c-6 0 -10 4 -10 10z" />
    <glyph glyph-name="uni04E8" unicode="&#x4e8;" 
d="M286 -6c-138 0 -220 91 -220 244c0 222 90 469 247 469c147 0 235 -94 235 -252c0 -272 -106 -461 -262 -461zM86 238c0 -142 74 -224 200 -224c114 0 200 115 231 295c-136 18 -306 39 -423 44c-5 -38 -8 -77 -8 -115zM97 373c118 -5 287 -26 423 -44c5 40 8 82 8 126
c0 146 -79 232 -215 232c-113 0 -190 -145 -216 -314z" />
    <glyph glyph-name="uni04EE" unicode="&#x4ee;" 
d="M152 -38c-6 0 -10 4 -10 10c0 3 1 5 3 7c56 63 111 142 163 229l-1 2c-63 133 -160 326 -240 473c-1 2 -1 3 -1 5c0 6 4 10 10 10c4 0 7 -2 9 -5c78 -143 172 -331 235 -464c90 154 169 330 220 480c2 4 6 7 10 7c6 0 10 -4 10 -10c0 -1 0 -1 -1 -3
c-84 -244 -241 -559 -400 -738c-2 -2 -4 -3 -7 -3zM112 831c0 5 4 9 9 10c106 15 287 22 376 22c6 0 10 -4 10 -10s-4 -10 -10 -10c-216 0 -371 -22 -375 -22c-6 0 -10 4 -10 10z" />
    <glyph glyph-name="uni0430" unicode="&#x430;" 
d="M520 -26c-5 0 -10 4 -10 9c-2 34 -6 74 -10 115c-62 -64 -154 -103 -242 -103c-109 0 -172 50 -172 138c0 100 82 158 225 158c57 0 121 -10 172 -28l-9 75c-16 135 -63 192 -160 192c-50 0 -105 -18 -160 -52c-1 -1 -3 -2 -5 -2c-6 0 -10 4 -10 10c0 4 2 7 5 9
c58 36 116 55 170 55c108 0 163 -64 180 -210c12 -102 29 -252 36 -356c0 -6 -4 -10 -10 -10zM106 133c0 -76 53 -118 152 -118c89 0 181 43 240 109l-13 117c-49 19 -114 30 -174 30c-132 0 -205 -50 -205 -138z" />
    <glyph glyph-name="uni0431" unicode="&#x431;" 
d="M307 -19c-130 0 -227 113 -227 260c0 84 20 194 52 280c41 113 112 167 243 185c81 11 123 40 146 99c1 4 5 7 9 7c6 0 10 -4 10 -10c0 -1 0 -3 -1 -4c-25 -66 -74 -100 -162 -112c-124 -17 -188 -65 -227 -171c-15 -45 -29 -97 -38 -149c52 75 129 121 206 121
c124 0 219 -102 219 -233c0 -143 -111 -273 -230 -273zM100 241c0 -136 89 -240 207 -240c108 0 210 121 210 253c0 120 -86 213 -199 213c-82 0 -163 -57 -213 -147c-3 -28 -5 -54 -5 -79z" />
    <glyph glyph-name="uni0432" unicode="&#x432;" 
d="M130 -10c-6 0 -10 4 -10 10c0 32 -10 514 -10 528c0 5 4 10 9 10c42 3 82 5 118 5c184 0 282 -46 282 -136c0 -65 -63 -113 -171 -130c137 -23 214 -70 214 -136c0 -98 -155 -151 -432 -151zM130 519c0 -36 3 -172 5 -226c44 0 85 -2 124 -5c148 3 240 50 240 119
c0 76 -89 116 -262 116c-32 0 -68 -1 -107 -4zM135 273c2 -91 4 -189 5 -263c257 1 402 50 402 131c0 102 -240 132 -407 132z" />
    <glyph glyph-name="uni0433" unicode="&#x433;" 
d="M116 -7c-6 0 -10 4 -10 10c0 143 4 361 12 503c0 4 4 8 8 9c98 18 196 28 292 28c45 0 91 -3 136 -7c5 -1 9 -5 9 -10c0 -6 -4 -10 -10 -10c-4 0 -69 7 -135 7c-92 0 -186 -9 -280 -26c-8 -141 -12 -354 -12 -494c0 -6 -4 -10 -10 -10z" />
    <glyph glyph-name="uni0453" unicode="&#x453;" 
d="M116 -7c-6 0 -10 4 -10 10c0 143 4 361 12 503c0 4 4 8 8 9c98 18 196 28 292 28c45 0 91 -3 136 -7c5 -1 9 -5 9 -10c0 -6 -4 -10 -10 -10c-4 0 -69 7 -135 7c-92 0 -186 -9 -280 -26c-8 -141 -12 -354 -12 -494c0 -6 -4 -10 -10 -10zM199 635c0 3 2 6 4 8l202 151
c2 1 4 2 6 2c6 0 10 -4 10 -10c0 -3 -2 -6 -4 -8l-202 -151c-2 -1 -4 -2 -6 -2c-6 0 -10 4 -10 10z" />
    <glyph glyph-name="uni0491" unicode="&#x491;" 
d="M116 -9c-6 0 -10 4 -10 10c0 143 4 361 12 503c0 4 4 8 8 9c96 18 197 28 296 28c41 0 81 -2 122 -5c1 21 1 124 0 148c0 6 4 10 10 10c5 0 10 -4 10 -10c0 -23 1 -51 1 -80c0 -32 -1 -59 -2 -80c0 -5 -5 -9 -10 -9c-13 0 -46 6 -131 6c-93 0 -189 -9 -284 -26
c-8 -141 -12 -354 -12 -494c0 -6 -4 -10 -10 -10z" />
    <glyph glyph-name="uni0493" unicode="&#x493;" 
d="M116 -7c-6 0 -10 4 -10 10c0 62 1 137 2 214c-30 -3 -48 -6 -51 -6c-6 0 -10 4 -10 10c0 5 4 9 9 10l53 7c2 96 5 192 9 268c0 4 4 8 8 9c98 18 196 28 292 28c45 0 91 -3 136 -7c5 -1 9 -5 9 -10c0 -6 -4 -10 -10 -10c-4 0 -69 7 -135 7c-92 0 -186 -9 -280 -26
c-4 -73 -7 -165 -9 -257c70 8 142 13 211 15c6 0 10 -4 10 -10c0 -5 -4 -10 -10 -10c-89 -3 -162 -9 -212 -15c-1 -78 -2 -155 -2 -217c0 -6 -4 -10 -10 -10z" />
    <glyph glyph-name="uni0434" unicode="&#x434;" 
d="M40 -197c-6 0 -10 4 -10 10c5 77 11 147 22 189c1 4 5 7 9 8c12 2 27 4 44 5c42 70 68 188 68 454v55c0 5 4 9 9 10c63 8 197 14 287 14c6 0 10 -4 10 -10c0 -3 -12 -128 -12 -278c0 -47 2 -144 7 -224l62 3c5 0 10 -4 10 -10v-93c0 -100 2 -118 2 -122
c0 -6 -4 -10 -10 -10c-5 0 -10 4 -10 9c-1 18 -2 101 -2 123v82c-144 -6 -378 -16 -456 -27c-8 -35 -14 -96 -20 -179c0 -5 -5 -9 -10 -9zM129 18c93 8 231 13 324 17c-4 82 -6 178 -6 225c0 92 5 194 11 268c-86 -1 -207 -6 -265 -13v-46c0 -253 -24 -378 -64 -451z" />
    <glyph glyph-name="uni0435" unicode="&#x435;" 
d="M321 -5c-147 0 -223 82 -223 241c0 208 134 309 249 309c86 0 174 -57 174 -111c0 -37 -15 -58 -65 -94c-78 -56 -215 -123 -333 -166c17 -103 81 -159 198 -159c77 0 141 25 208 84c3 2 5 2 7 2c6 0 10 -4 10 -10c0 -3 -1 -6 -3 -8c-72 -61 -139 -88 -222 -88zM118 236
c0 -15 1 -29 2 -42c116 43 249 107 324 162c46 33 57 48 57 78c0 42 -80 91 -154 91c-109 0 -229 -91 -229 -289z" />
    <glyph glyph-name="uni0450" unicode="&#x450;" 
d="M321 -5c-147 0 -223 82 -223 241c0 208 134 309 249 309c86 0 174 -57 174 -111c0 -37 -15 -58 -65 -94c-78 -56 -215 -123 -333 -166c17 -103 81 -159 198 -159c77 0 141 25 208 84c3 2 5 2 7 2c6 0 10 -4 10 -10c0 -3 -1 -6 -3 -8c-72 -61 -139 -88 -222 -88zM118 236
c0 -15 1 -29 2 -42c116 43 249 107 324 162c46 33 57 48 57 78c0 42 -80 91 -154 91c-109 0 -229 -91 -229 -289zM199 786c0 6 4 10 10 10c2 0 4 -1 6 -2l202 -151c2 -2 4 -5 4 -8c0 -6 -4 -10 -10 -10c-2 0 -4 1 -6 2l-202 151c-2 2 -4 5 -4 8z" />
    <glyph glyph-name="uni0451" unicode="&#x451;" 
d="M321 -5c-147 0 -223 82 -223 241c0 208 134 309 249 309c86 0 174 -57 174 -111c0 -37 -15 -58 -65 -94c-78 -56 -215 -123 -333 -166c17 -103 81 -159 198 -159c77 0 141 25 208 84c3 2 5 2 7 2c6 0 10 -4 10 -10c0 -3 -1 -6 -3 -8c-72 -61 -139 -88 -222 -88zM118 236
c0 -15 1 -29 2 -42c116 43 249 107 324 162c46 33 57 48 57 78c0 42 -80 91 -154 91c-109 0 -229 -91 -229 -289zM199 709c0 9 1 17 3 27c1 5 5 8 10 8c6 0 10 -4 10 -10c0 -4 -3 -15 -3 -25c0 -21 6 -43 6 -48c0 -6 -4 -10 -10 -10c-5 0 -9 4 -10 8c-4 20 -6 36 -6 50z
M398 672c0 5 2 10 2 32c0 30 -1 38 -1 42c0 6 4 10 10 10c5 0 10 -4 10 -10c1 -10 1 -27 1 -42s0 -27 -2 -34c-1 -5 -5 -8 -10 -8c-6 0 -10 4 -10 10z" />
    <glyph glyph-name="uni0436" unicode="&#x436;" 
d="M568 -10c-4 0 -7 2 -9 5c-49 85 -134 187 -218 258h-18c-2 -93 -5 -187 -9 -266c0 -5 -5 -9 -10 -9c-6 0 -10 4 -10 10c0 5 6 108 9 265l-27 1c-77 -68 -162 -171 -210 -259c-2 -3 -5 -5 -9 -5c-6 0 -10 4 -10 10c0 2 0 3 1 5c49 87 131 189 210 259
c-81 79 -148 175 -196 283c-1 2 -1 3 -1 4c0 6 4 10 10 10c4 0 8 -3 9 -6c48 -108 115 -204 197 -281l27 -1c2 80 3 172 3 271c0 6 4 10 10 10s10 -4 10 -10c0 -73 -1 -171 -3 -271h17c84 77 154 173 204 282c1 4 5 6 9 6c6 0 10 -4 10 -10c0 -1 0 -2 -1 -4
c-50 -109 -119 -206 -203 -284c84 -72 168 -172 217 -258c1 -2 1 -3 1 -5c0 -6 -4 -10 -10 -10z" />
    <glyph glyph-name="uni0437" unicode="&#x437;" 
d="M274 -10c-67 0 -127 13 -192 41c-3 1 -6 5 -6 9c0 6 4 10 10 10c1 0 3 0 4 -1c63 -27 120 -39 184 -39c135 0 225 54 225 133c0 76 -91 126 -233 126c-33 0 -57 -3 -64 -3c-6 0 -10 4 -10 10v1c0 5 4 9 9 10c204 27 284 68 284 143c0 56 -78 104 -170 104
c-109 0 -196 -40 -202 -40s-10 4 -10 10c0 4 3 8 7 9c63 25 141 41 205 41c103 0 190 -56 190 -124c0 -71 -56 -114 -185 -143c123 -12 199 -65 199 -144c0 -92 -99 -153 -245 -153z" />
    <glyph glyph-name="uni0438" unicode="&#x438;" 
d="M520 -19c-6 0 -10 4 -10 10c0 9 10 80 10 260c0 91 -3 186 -8 267c-131 -132 -302 -351 -410 -524c-2 -3 -5 -5 -9 -5c-6 0 -10 4 -10 11c2 40 3 96 3 157c0 144 -5 318 -9 393c0 6 4 10 10 10c5 0 10 -4 10 -9c4 -75 9 -250 9 -394c0 -45 -1 -87 -2 -122
c115 177 282 388 409 513c2 2 4 3 7 3c5 0 10 -4 10 -9c6 -83 10 -188 10 -291c0 -104 -4 -197 -10 -261c-1 -5 -5 -9 -10 -9z" />
    <glyph glyph-name="uni0439" unicode="&#x439;" 
d="M520 -19c-6 0 -10 4 -10 10c0 9 10 80 10 260c0 91 -3 186 -8 267c-131 -132 -302 -351 -410 -524c-2 -3 -5 -5 -9 -5c-6 0 -10 4 -10 11c2 40 3 96 3 157c0 144 -5 318 -9 393c0 6 4 10 10 10c5 0 10 -4 10 -9c4 -75 9 -250 9 -394c0 -45 -1 -87 -2 -122
c115 177 282 388 409 513c2 2 4 3 7 3c5 0 10 -4 10 -9c6 -83 10 -188 10 -291c0 -104 -4 -197 -10 -261c-1 -5 -5 -9 -10 -9zM126 776v3c0 6 4 10 10 10c5 0 9 -3 10 -8c18 -64 88 -109 171 -109c81 0 143 44 157 111c1 5 5 8 10 8c6 0 10 -4 10 -10v-2
c-17 -77 -87 -127 -177 -127c-91 0 -170 51 -191 124z" />
    <glyph glyph-name="uni045D" unicode="&#x45d;" 
d="M520 -19c-6 0 -10 4 -10 10c0 9 10 80 10 260c0 91 -3 186 -8 267c-131 -132 -302 -351 -410 -524c-2 -3 -5 -5 -9 -5c-6 0 -10 4 -10 11c2 40 3 96 3 157c0 144 -5 318 -9 393c0 6 4 10 10 10c5 0 10 -4 10 -9c4 -75 9 -250 9 -394c0 -45 -1 -87 -2 -122
c115 177 282 388 409 513c2 2 4 3 7 3c5 0 10 -4 10 -9c6 -83 10 -188 10 -291c0 -104 -4 -197 -10 -261c-1 -5 -5 -9 -10 -9zM199 786c0 6 4 10 10 10c2 0 4 -1 6 -2l202 -151c2 -2 4 -5 4 -8c0 -6 -4 -10 -10 -10c-2 0 -4 1 -6 2l-202 151c-2 2 -4 5 -4 8z" />
    <glyph glyph-name="uni043A" unicode="&#x43a;" 
d="M524 -8c-3 0 -5 1 -7 3c-76 79 -197 193 -286 264c-26 0 -52 2 -76 6c-4 -94 -9 -190 -16 -268c0 -5 -5 -9 -10 -9c-6 0 -10 4 -10 10c0 14 23 261 23 543c0 6 4 10 10 10s10 -4 10 -10c0 -69 -2 -161 -6 -256c23 -3 50 -6 76 -6c120 72 220 164 291 267c1 2 5 4 8 4
c6 0 10 -4 10 -10c0 -2 -1 -4 -2 -6c-70 -102 -169 -193 -287 -266c89 -72 205 -182 279 -259c2 -2 3 -4 3 -7c0 -6 -4 -10 -10 -10z" />
    <glyph glyph-name="uni045C" unicode="&#x45c;" 
d="M524 -8c-3 0 -5 1 -7 3c-76 79 -197 193 -286 264c-26 0 -52 2 -76 6c-4 -94 -9 -190 -16 -268c0 -5 -5 -9 -10 -9c-6 0 -10 4 -10 10c0 14 23 261 23 543c0 6 4 10 10 10s10 -4 10 -10c0 -69 -2 -161 -6 -256c23 -3 50 -6 76 -6c120 72 220 164 291 267c1 2 5 4 8 4
c6 0 10 -4 10 -10c0 -2 -1 -4 -2 -6c-70 -102 -169 -193 -287 -266c89 -72 205 -182 279 -259c2 -2 3 -4 3 -7c0 -6 -4 -10 -10 -10zM199 635c0 3 2 6 4 8l202 151c2 1 4 2 6 2c6 0 10 -4 10 -10c0 -3 -2 -6 -4 -8l-202 -151c-2 -1 -4 -2 -6 -2c-6 0 -10 4 -10 10z" />
    </font>
</defs>
</svg>
